<?xml version="1.0" standalone="no"?>
<!DOCTYPE svg PUBLIC "-//W3C//DTD SVG 1.1//EN" "http://www.w3.org/Graphics/SVG/1.1/DTD/svg11.dtd" >
<svg>
<metadata>
Created by FontForge 20090914 at Thu Mar 14 16:29:59 2019
 By www-data
Copyright (c) 2019 by Creative lab. All rights reserved.
</metadata>
<defs>
<font id="AlistaScript" horiz-adv-x="412" >
  <font-face 
    font-family="Alista Script"
    font-weight="400"
    font-stretch="normal"
    units-per-em="1000"
    panose-1="2 0 5 3 4 0 0 2 0 3"
    ascent="750"
    descent="-250"
    x-height="454.492"
    cap-height="906"
    bbox="-1269 -408 2175.91 937.515"
    underline-thickness="50"
    underline-position="-50"
    unicode-range="U+000D-U+201E"
  />
<missing-glyph horiz-adv-x="170" 
 />
    <glyph glyph-name=".notdef" horiz-adv-x="170" 
 />
    <glyph glyph-name="NULL" horiz-adv-x="0" 
 />
    <glyph glyph-name="NULL" horiz-adv-x="0" 
 />
    <glyph glyph-name="nonmarkingreturn" unicode="&#xd;" horiz-adv-x="170" 
 />
    <glyph glyph-name="space" unicode=" " horiz-adv-x="170" 
 />
    <glyph glyph-name="exclam" unicode="!" horiz-adv-x="384" 
d="M107 87c8.66699 0 16.5 -2.5 23.5 -7.5s12.167 -11.167 15.5 -18.5s4.33301 -15 3 -23s-5.66602 -15.333 -12.999 -22c-6.66699 -7.33301 -14 -11.5 -22 -12.5s-15.667 0 -23 3s-13.5 8 -18.5 15s-7.5 15.5 -7.5 25.5c0 12 3.66699 21.667 11 29s17.666 11 30.999 11z
M330 638l-3.99902 -10.5l-4 -11.5c-6.66699 -18.667 -14.667 -42.667 -24 -72l-30 -95l-32.5 -104l-30 -97.5l-23.5 -76c-6.66699 -21 -10.667 -34.167 -12 -39.5s-6.33301 -9.5 -15 -12.5s-17.834 -4.5 -27.501 -4.5s-17.667 1.5 -24 4.5s-7.83301 8.5 -4.5 16.5
l42.5 121.5l46 130.5l47.5 130.5c16 43 32 83.167 48 120.5z" />
    <glyph glyph-name="quotedbl" unicode="&#x22;" horiz-adv-x="461" 
d="M264 488c-16 4.66699 -27.168 11.5 -33.501 20.5s-9 18.167 -8 27.5s5.16699 17.5 12.5 24.5s17 10.5 29 10.5c19.333 0 32.166 -7.5 38.499 -22.5s6.33301 -32.333 0 -52s-18.666 -39.167 -36.999 -58.5s-42.5 -33.333 -72.5 -42c-8 0 -13.667 2.66699 -17 8
s-1.66602 10 5.00098 14c6.66699 2 14.5 4.5 23.5 7.5s17.5 7.33301 25.5 13s15.167 12.5 21.5 20.5s10.5 17.667 12.5 29zM146.999 488c-16 4.66699 -27.168 11.5 -33.501 20.5s-9 18.167 -8 27.5s5.16699 17.5 12.5 24.5s17 10.5 29 10.5
c19.333 0 32.166 -7.5 38.499 -22.5s6.33301 -32.333 0 -52s-18.666 -39.167 -36.999 -58.5s-42.5 -33.333 -72.5 -42c-8 0 -13.667 2.66699 -17 8s-1.66602 10 5.00098 14c6.66699 2 14.5 4.5 23.5 7.5s17.5 7.33301 25.5 13s15.167 12.5 21.5 20.5s10.5 17.667 12.5 29z
" />
    <glyph glyph-name="numbersign" unicode="#" horiz-adv-x="583" 
d="M481 350c6 0 10.3281 -2 12.9951 -6s3.83398 -8.5 3.50098 -13.5s-2 -9.5 -5 -13.5s-6.83301 -6 -11.5 -6c-16.667 2.66699 -32.667 5 -48 7s-31 3 -47 3c-4 -14.667 -8.83301 -28.5 -14.5 -41.5s-10.5 -26.833 -14.5 -41.5c21.333 -2.66699 42 -4.33398 62 -5.00098
s40.667 -2 62 -4c6 0 10.333 -2 13 -6s3.83398 -8.16699 3.50098 -12.5s-2 -8.5 -5 -12.5s-6.83301 -6 -11.5 -6c-23.333 2.66699 -46.333 5 -69 7s-45 3.66699 -67 5l-37 -102c-2.66699 -5.33301 -6.33398 -8.66602 -11.001 -9.99902s-9 -1.33301 -13 0s-7.16699 4 -9.5 8
s-2.5 8.66699 -0.5 14l34 95c-14.667 0 -28.667 0.666992 -42 2s-27.333 3.33301 -42 6l-42 -115c-2 -5.33301 -5.16699 -8.66602 -9.5 -9.99902s-8.5 -1.33301 -12.5 0s-7.16699 4 -9.5 8s-2.5 8.66699 -0.5 14l37 103l-88 9c-5.33301 0.666992 -9 3 -11 7
s-2.66699 8.16699 -2 12.5s2.5 8.16602 5.5 11.499s7.16699 5 12.5 5l95 -7c6 12.667 11.333 25.834 16 39.501s9.33398 26.5 14.001 38.5l-130 12c-5.33301 1.33301 -9 4 -11 8s-2.66699 8.16699 -2 12.5s2.5 8.16602 5.5 11.499s7.16699 5 12.5 5l136 -12l19 49.5
c6 16.333 12.667 33.166 20 50.499c2 6 5.16699 9.83301 9.5 11.5s8.5 1.83398 12.5 0.500977s7.16699 -3.83301 9.5 -7.5s2.5 -7.83398 0.5 -12.501c-6.66699 -17.333 -12.167 -34.166 -16.5 -50.499s-9.5 -31.166 -15.5 -44.499
c14.667 -2.66699 28.834 -4.33398 42.501 -5.00098s26.834 -2 39.501 -4c8.66699 18 16 36.333 22 55s12.667 37.667 20 57c2 6 5.16699 9.83301 9.5 11.5s8.5 1.83398 12.5 0.500977s7.16699 -3.83301 9.5 -7.5s2.5 -7.83398 0.5 -12.501
c-6 -19.333 -12.167 -37.5 -18.5 -54.5s-12.166 -35.167 -17.499 -54.5c14.667 0 29 -0.5 43 -1.5s27 -1.5 39 -1.5zM349.995 324c-13.333 0 -27.1631 1.00195 -41.4961 3.00195l-43.5 6c-3.33301 -14.667 -7.83301 -29 -13.5 -43s-10.167 -27 -13.5 -39
c13.333 -2.66699 26.666 -4.33398 39.999 -5.00098s26.666 -2.33398 39.999 -5.00098c7.33301 15.333 13.166 29.5 17.499 42.5s9.16602 26.5 14.499 40.5z" />
    <glyph glyph-name="dollar" unicode="$" horiz-adv-x="459" 
d="M112 187c7.33301 6 12.835 6.16406 16.502 0.49707s3.5 -11.5 -0.5 -17.5c-13.333 -12 -22 -25.5 -26 -40.5s-4.83301 -29.5 -2.5 -43.5s7.33301 -26.333 15 -37s16.667 -17.5 27 -20.5s21.666 -1.16699 33.999 5.5s24.5 20.334 36.5 41.001
c13.333 21.333 19.666 44.833 18.999 70.5s-4.33398 53.5 -11.001 83.5l-3 -13l-26.5 -75c-8.33301 -24.667 -17.833 -50.667 -28.5 -78c-4.66699 -8.66699 -11.667 -13 -21 -13c-4 2 -7 5 -9 9s-1.66699 7.66699 1 11l58 159c2 8 5 16.667 9 26l12 27
c-6.66699 24.667 -12.334 49.334 -17.001 74.001s-7 48.667 -7 72s3.33301 43.166 10 59.499s15.5 29.333 26.5 39s23.333 16.5 37 20.5s27.5 5.33301 41.5 4c2.66699 4 4.83398 8.83301 6.50098 14.5s3.83398 11.834 6.50098 18.501c1.33301 4.66699 3.83301 8 7.5 10
s7.83398 1.66699 12.501 -1c4.66699 0 7.66699 -1.83301 9 -5.5s1.33301 -7.5 0 -11.5c-2.66699 -6 -5 -12 -7 -18s-4 -11.333 -6 -16c10.667 -6 19.667 -13.167 27 -21.5s12.333 -17.5 15 -27.5c4 -17.333 2.16699 -36.666 -5.5 -57.999s-24.167 -44.666 -49.5 -69.999
c-2 -3.33301 -4.33301 -4.83301 -7 -4.5s-5 1.5 -7 3.5s-3.33301 4.5 -4 7.5s0 6.16699 2 9.5c22.667 21.333 37.5 40.833 44.5 58.5s8.83301 33.167 5.5 46.5c-2.66699 7.33301 -6.66699 13.833 -12 19.5s-11 9.83398 -17 12.501l-32 -95
c-10.667 -32.667 -22.334 -64.334 -35.001 -95.001c6 -28 11.833 -57.333 17.5 -88s8.16699 -60.334 7.5 -89.001s-5.5 -55.5 -14.5 -80.5s-24.833 -45.833 -47.5 -62.5c-16 -12.667 -35.333 -17.167 -58 -13.5s-42 14.167 -58 31.5c-10 10.667 -17.333 23.167 -22 37.5
s-6.66699 29 -6 44s4 29.5 10 43.5s14.667 26 26 36zM295.002 512.997c-14.667 -3.33301 -26.499 -12.6689 -35.499 -28.002s-13.5 -33.666 -13.5 -54.999v-20.5c0 -8.33301 0.666992 -16.166 2 -23.499l22 64.5c7.33301 21 15.666 41.833 24.999 62.5z" />
    <glyph glyph-name="percent" unicode="%" horiz-adv-x="599" 
d="M375 569c2.66699 4.66699 6.17383 8.6709 10.5068 12.0039s9.16602 4 14.499 2c4.66699 -1.33301 7.83398 -4.33301 9.50098 -9s1.16699 -9 -1.5 -13l-104 -304l-99 -272c-2 -4 -5.33301 -6.5 -10 -7.5s-9 -0.833008 -13 0.5s-7.16699 3.66602 -9.5 6.99902
s-2.5 7.33301 -0.5 12c29.333 74 57.166 150.5 83.499 229.5s53.5 155.833 81.5 230.5c-7.33301 -6.66699 -14.333 -12 -21 -16s-14.334 -8.33301 -23.001 -13c-10.667 -4 -20.834 -6.33301 -30.501 -7s-18.834 -1 -27.501 -1c-17.333 -20.667 -35.333 -35 -54 -43
s-35 -10.167 -49 -6.5s-24.5 12.834 -31.5 27.501s-7.83301 34.334 -2.5 59.001c3.33301 16.667 9 33.167 17 49.5s18 30.166 30 41.499s25.667 19.666 41 24.999s31.666 5.66602 48.999 0.999023c5.33301 -3.33301 7.33301 -7.5 6 -12.5s-3.33301 -9.16699 -6 -12.5
c-14.667 -6 -28.334 -15.833 -41.001 -29.5s-23.167 -28 -31.5 -43s-14.333 -29.333 -18 -43s-4 -23.834 -1 -30.501s9.83301 -8.16699 20.5 -4.5s26 15.167 46 34.5c-12 10.667 -17.5 23.334 -16.5 38.001s5.5 28.167 13.5 40.5s17.667 21.833 29 28.5s21.666 7 30.999 1
c8 -5.33301 12.167 -12.333 12.5 -21s-1 -17.834 -4 -27.501s-7 -19 -12 -28l-11.5 -20.5c18 0 36.5 6.16699 55.5 18.5s34.833 27.166 47.5 44.499c9.33301 20 16 40.667 20 62zM478.007 194.004c-0.666992 -3.33301 -2.1582 -5.49316 -4.49121 -6.49316
s-5.83301 -2.16699 -10.5 -3.5s-10.334 -3.66602 -17.001 -6.99902s-14.667 -9 -24 -17c-16.667 -14.667 -28.834 -29.334 -36.501 -44.001s-12.167 -27.834 -13.5 -39.501s-0.333008 -21.334 3 -29.001s7.66602 -11.834 12.999 -12.501c6 -2 14.167 -0.666992 24.5 4
s20.833 11.834 31.5 21.501s20.5 21.167 29.5 34.5s15.167 27.666 18.5 42.999c1.33301 6.66699 1.66602 12 0.999023 16s-4 6 -10 6c-8.66699 -2.66699 -15.334 -7.5 -20.001 -14.5s-9.33398 -13.5 -14.001 -19.5c-0.666992 -3.33301 -2.33398 -5.33301 -5.00098 -6
s-5.16699 -0.5 -7.5 0.5s-4.5 2.66699 -6.5 5s-2.33301 4.83301 -1 7.5c4 11.333 10.167 22 18.5 32s18.5 15 30.5 15c17.333 2 28.5 -2 33.5 -12s6.5 -21.667 4.5 -35c-2.66699 -12.667 -8.33398 -26.5 -17.001 -41.5s-19.167 -28.833 -31.5 -41.5
s-25.666 -23.167 -39.999 -31.5s-28.833 -12.5 -43.5 -12.5c-18 0 -31.167 5.83301 -39.5 17.5s-12.833 26 -13.5 43s2.5 35.167 9.5 54.5s17 36.666 30 51.999s28.333 27.166 46 35.499s37.5 10.166 59.5 5.49902c1.33301 -2.66699 2.66602 -5.83398 3.99902 -9.50098
s0.666016 -7.16699 -2.00098 -10.5zM225.016 449.011c3.33301 4 7 9.16699 11 15.5s7.5 13 10.5 20s5.33301 13.667 7 20s1.83398 11.5 0.500977 15.5c-0.666992 4.66699 -4.16699 5 -10.5 1s-12.333 -10.167 -18 -18.5s-9.33398 -17.5 -11.001 -27.5
s1.83301 -18.667 10.5 -26z" />
    <glyph glyph-name="ampersand" unicode="&#x26;" horiz-adv-x="674" 
d="M388 166c-16 -2.66699 -31.665 -1.66895 -46.998 2.99805s-29.5 11.834 -42.5 21.501s-24.833 21 -35.5 34s-19.667 26.5 -27 40.5c-25.333 -12 -44.5 -25.833 -57.5 -41.5s-21.333 -31.834 -25 -48.501s-3.33398 -33.5 0.999023 -50.5s11.666 -32.333 21.999 -46
s23.166 -25.167 38.499 -34.5s31.666 -15.333 48.999 -18c22.667 -2 43.667 1.83301 63 11.5s36.333 22.5 51 38.5s26.334 34 35.001 54s13.5 40 14.5 60s-2.16699 38.5 -9.5 55.5s-20 30.167 -38 39.5c-1.33301 0 -2.83301 1.5 -4.5 4.5s-1.16699 7.16699 1.5 12.5
c1.33301 2 3.33301 3.66699 6 5s5.66699 1 9 -1c23.333 -10.667 40.833 -27.667 52.5 -51s15.834 -47.333 12.501 -72c-4.66699 -31.333 -13.167 -58.666 -25.5 -81.999s-27.166 -42.666 -44.499 -57.999s-37 -26.666 -59 -33.999s-44.667 -10.333 -68 -9
c-23.333 0.666992 -45 5.33398 -65 14.001s-37.333 20.167 -52 34.5s-26.334 31 -35.001 50s-13 39.833 -13 62.5c0 20.667 3 38.667 9 54s14.333 29.166 25 41.499s23 23.5 37 33.5s28.667 19.667 44 29c-10 29.333 -17.167 61 -21.5 95s-2.16602 65.667 6.50098 95
c6 22 16.5 40.167 31.5 54.5s31.5 24.166 49.5 29.499s36.333 5.33301 55 0s35 -16.666 49 -33.999c20 -24.667 30.5 -51 31.5 -79s-4.83301 -55 -17.5 -81s-31.167 -49.833 -55.5 -71.5s-51.833 -38.5 -82.5 -50.5c6.66699 -12 14.667 -24.333 24 -37
s19.666 -24.334 30.999 -35.001s23.5 -19.667 36.5 -27s26.5 -11.333 40.5 -12zM210.002 412.998c2 -14.667 4.83008 -28.998 8.49707 -42.998s7.83398 -27 12.501 -39c24.667 12 48.5 25.833 71.5 41.5s40.833 35.167 53.5 58.5c8 15.333 13 32.666 15 51.999
s-1.66699 37.666 -11 54.999c-10 20 -24.667 31.667 -44 35s-37.666 -0.666992 -54.999 -12s-31.666 -29.5 -42.999 -54.5s-14 -56.167 -8 -93.5z" />
    <glyph glyph-name="quotesingle" unicode="'" horiz-adv-x="356" 
d="M190 483c-15.333 4.66699 -26.333 11.5 -33 20.5s-9.83398 18.167 -9.50098 27.5s3.83301 17.5 10.5 24.5s15.667 10.5 27 10.5c20 0 33.5 -7.5 40.5 -22.5s7.5 -32.333 1.5 -52s-18.167 -39.167 -36.5 -58.5s-43.166 -33.333 -74.499 -42c-8 0 -13.667 2.66699 -17 8
s-2.33301 10 3 14c7.33301 2 15.5 4.5 24.5 7.5s17.667 7.33301 26 13s15.833 12.5 22.5 20.5s11.667 17.667 15 29z" />
    <glyph glyph-name="parenleft" unicode="(" horiz-adv-x="259" 
d="M205 22c3.33301 0 5.99707 -0.996094 7.99707 -2.99609s3 -4.33301 3 -7s-1 -5.16699 -3 -7.5s-5.33301 -3.83301 -10 -4.5c-28.667 -0.666992 -51.334 9 -68.001 29s-28.5 46 -35.5 78s-9.66699 68.5 -8 109.5s6.33398 82.167 14.001 123.5s18.167 81 31.5 119
s28 70.667 44 98s33.167 47 51.5 59s36.5 12.667 54.5 2c5.33301 -3.33301 7.33301 -8.5 6 -15.5s-6.66602 -9.16699 -15.999 -6.5c-10.667 1.33301 -22 -5.83398 -34 -21.501s-23.667 -36.5 -35 -62.5s-22 -56 -32 -90s-18.167 -68.833 -24.5 -104.5
s-10.666 -70.834 -12.999 -105.501s-1.66602 -65.834 2.00098 -93.501s10.667 -50.334 21 -68.001s24.833 -27.167 43.5 -28.5z" />
    <glyph glyph-name="parenright" unicode=")" horiz-adv-x="223" 
d="M34 603c-3.33301 0 -5.99902 0.996094 -7.99902 2.99609s-3 4.33301 -3 7s1 5.16699 3 7.5s5.33301 3.83301 10 4.5c28.667 0.666992 51.334 -9 68.001 -29s28.5 -46 35.5 -78s9.66699 -68.5 8 -109.5s-6.33398 -82.167 -14.001 -123.5s-18.167 -81 -31.5 -119
s-28 -70.667 -44 -98s-33.167 -47 -51.5 -59s-36.5 -12.667 -54.5 -2c-5.33301 3.33301 -7.33301 8.5 -6 15.5s6.66602 9.16699 15.999 6.5c10.667 -1.33301 22 5.83398 34 21.501s23.667 36.5 35 62.5s21.833 56 31.5 90s17.834 68.833 24.501 104.5
s11.167 70.834 13.5 105.501s1.66602 65.834 -2.00098 93.501s-10.667 50.334 -21 68.001s-24.833 27.167 -43.5 28.5z" />
    <glyph glyph-name="asterisk" unicode="*" horiz-adv-x="294" 
d="M185 545c2 3.33301 4.16895 4.99902 6.50195 4.99902s4.5 -1 6.5 -3s3.33301 -4.66699 4 -8s0 -6.66602 -2 -9.99902l-29 -24h38c4 0 7.16699 -1.33301 9.5 -4s3.5 -5.5 3.5 -8.5s-1.16699 -5.83301 -3.5 -8.5s-5.5 -4 -9.5 -4h-38l29 -25
c2 -3.33301 2.66699 -6.5 2 -9.5s-2 -5.66699 -4 -8s-4.16699 -3.66602 -6.5 -3.99902s-4.5 1.16699 -6.5 4.5l-29 25v-37c0 -4 -1.33301 -7.16699 -4 -9.5s-5.66699 -3.5 -9 -3.5s-6.33301 1.16699 -9 3.5s-4 5.5 -4 9.5v37l-24 -25c-6.66699 -6 -12.667 -6.16699 -18 -0.5
s-5.33301 11.5 0 17.5l26 25h-37c-4.66699 0 -8.16699 1.33301 -10.5 4s-3.5 5.5 -3.5 8.5s1.16699 5.83301 3.5 8.5s5.83301 4 10.5 4h37l-26 24c-2.66699 3.33301 -3.83398 6.66602 -3.50098 9.99902s1.5 6 3.5 8s4.66699 3 8 3s6.66602 -1.66699 9.99902 -5l24 -24v37
c0 4 1.33301 7 4 9s5.66699 3 9 3s6.33301 -1 9 -3s4 -5 4 -9v-37z" />
    <glyph glyph-name="plus" unicode="+" horiz-adv-x="410" 
d="M186 368c0 5.33301 1.5 10 4.5 14s6.83301 6 11.5 6c4 0 7.83301 -2 11.5 -6s5.5 -8.66699 5.5 -14v-92h91c6 0 10.667 -1.16699 14 -3.5s5 -7.16602 5 -14.499c0 -3.33301 -1.66699 -6.66602 -5 -9.99902s-8 -5 -14 -5h-91v-92c0 -3.33301 -1.83301 -6.83301 -5.5 -10.5
s-7.5 -5.5 -11.5 -5.5c-4.66699 0 -8.5 1.83301 -11.5 5.5s-4.5 7.16699 -4.5 10.5v92h-92c-4 0 -7.5 1.66699 -10.5 5s-4.5 6.66602 -4.5 9.99902c0 7.33301 1.5 12.166 4.5 14.499s6.5 3.5 10.5 3.5h92v92z" />
    <glyph glyph-name="comma" unicode="," horiz-adv-x="285" 
d="M155 91c-16 4.66699 -27.1699 11.501 -33.5029 20.501s-9.16602 18.167 -8.49902 27.5s4.33398 17.5 11.001 24.5s15.334 10.5 26.001 10.5c19.333 0 32.5 -7.5 39.5 -22.5s7.5 -32.333 1.5 -52s-18.333 -39.167 -37 -58.5s-43.667 -33.333 -75 -42
c-6 0 -11 2.66699 -15 8s-3 10 3 14c16 3.33301 32.833 10.166 50.5 20.499s30.167 26.833 37.5 49.5z" />
    <glyph glyph-name="hyphen" unicode="-" horiz-adv-x="475" 
d="M91 240c-4 0 -7.83301 1.66699 -11.5 5s-5.5 6.66602 -5.5 9.99902c0 7.33301 1.83301 12.166 5.5 14.499s7.5 3.5 11.5 3.5h219c4.66699 0 8.5 -1.16699 11.5 -3.5s4.5 -7.16602 4.5 -14.499c0 -3.33301 -1.5 -6.66602 -4.5 -9.99902s-6.83301 -5 -11.5 -5h-219z" />
    <glyph glyph-name="period" unicode="." horiz-adv-x="402" 
d="M179 86c8.66699 0 16.333 -2.50098 23 -7.50098s11.334 -11 14.001 -18s3.5 -14.667 2.5 -23s-4.5 -15.5 -10.5 -21.5c-6.66699 -7.33301 -14.167 -11.666 -22.5 -12.999s-16 -0.5 -23 2.5s-13 8 -18 15s-7.5 15.167 -7.5 24.5c0 12.667 3.66699 22.667 11 30
s17.666 11 30.999 11z" />
    <glyph glyph-name="slash" unicode="/" horiz-adv-x="415" 
d="M394 725c4 4 8.66699 6.50195 14 7.50195s10 0.5 14 -1.5s6.83301 -5 8.5 -9s0.833984 -9 -2.49902 -15l-84.5 -168.5l-91 -186.5l-87.5 -183.5l-75 -159.5c-2.66699 -5.33301 -6.83398 -8.5 -12.501 -9.5s-11.167 -0.833008 -16.5 0.5s-9.5 3.83301 -12.5 7.5
s-2.83301 8.16699 0.5 13.5c17.333 31.333 35.5 66.166 54.5 104.499l59 120l61 127.5l60.5 127.5l57.5 120c18.333 38.333 35.833 73.166 52.5 104.499z" />
    <glyph glyph-name="zero" unicode="0" horiz-adv-x="380" 
d="M339 414c-4 57.333 -13.665 97.6611 -28.998 120.994s-33 33 -53 29s-41.167 -19.833 -63.5 -47.5s-42.5 -63.5 -60.5 -107.5c-8 -17.333 -15.167 -38.833 -21.5 -64.5s-11.5 -52.5 -15.5 -80.5s-6.33301 -55.833 -7 -83.5s1.33301 -52.167 6 -73.5
s12.5 -38.166 23.5 -50.499s25.5 -17.5 43.5 -15.5c22 2.66699 41.833 11.334 59.5 26.001s33.167 32.834 46.5 54.501s24.666 45.834 33.999 72.501s16.833 53.334 22.5 80.001s9.66699 52.334 12 77.001s3.16602 45.667 2.49902 63zM75.002 432.995
c14 36 30.4971 66.666 49.4971 91.999s38.833 44.5 59.5 57.5s41.167 19.5 61.5 19.5s38.5 -6.66699 54.5 -20s29.167 -33.833 39.5 -61.5s15.833 -63.167 16.5 -106.5c2.66699 -40 0.333984 -80.5 -6.99902 -121.5s-17.666 -78.833 -30.999 -113.5
c-21.333 -56 -47.5 -98 -78.5 -126s-61.167 -41.5 -90.5 -40.5s-54.833 16.833 -76.5 47.5s-33.5 76.334 -35.5 137.001c-2.66699 38.667 -0.166992 78.667 7.5 120s17.834 80 30.501 116z" />
    <glyph glyph-name="one" unicode="1" horiz-adv-x="240" 
d="M244 560l-41 -127.501l-47 -147l-48 -148l-43 -130.5c-0.666992 0.666992 -3 0.5 -7 -0.5s-9 -2.16699 -15 -3.5l-18.5 -4c-6.33301 -1.33301 -11.833 -2 -16.5 -2c-10 0 -15 3 -15 9c0 2.66699 0.333008 4.66699 1 6l43 120.5l49 136l50 137.5l46 125
c-13.333 -3.33301 -26.5 -10.666 -39.5 -21.999s-23.5 -25.666 -31.5 -42.999c6.66699 27.333 17.5 48.666 32.5 63.999s31.833 25.333 50.5 30h50z" />
    <glyph glyph-name="two" unicode="2" horiz-adv-x="461" 
d="M383 48c-12.667 -24 -28.668 -40.502 -48.001 -49.502s-39.666 -13 -60.999 -12s-43 5.66699 -65 14s-42 17.5 -60 27.5c-13.333 -9.33301 -27.5 -16.5 -42.5 -21.5s-29.167 -7.5 -42.5 -7.5c-12.667 0 -24.334 3.33301 -35.001 10s-16 17.334 -16 32.001
c2.66699 14 10.334 25 23.001 33s27 12 43 12c6.66699 0 13.667 -1.66699 21 -5s14 -7.33301 20 -12c25.333 20.667 52.166 47 80.499 79s54.5 66.5 78.5 103.5s43.833 74.5 59.5 112.5s23.5 73.667 23.5 107c0 28.667 -5.66699 49.667 -17 63s-24.666 20 -39.999 20
s-31.166 -6 -47.499 -18s-29.5 -28.667 -39.5 -50c5.33301 23.333 14.333 42.5 27 57.5s26.834 25.833 42.501 32.5s32 9.16699 49 7.5s32.333 -7.16699 46 -16.5s25 -22.333 34 -39s13.5 -36.667 13.5 -60c0 -22.667 -4 -47.167 -12 -73.5s-18.667 -53.166 -32 -80.499
s-28.833 -54.333 -46.5 -81s-35.834 -52 -54.501 -76s-37.5 -45.667 -56.5 -65s-36.5 -35.333 -52.5 -48c36 -20.667 71.667 -31.667 107 -33s68.666 11 99.999 37zM99.999 56.998c-9.33301 4.66699 -18.666 7.00098 -27.999 7.00098
c-11.333 0 -20.166 -2.83301 -26.499 -8.5s-9.5 -10.834 -9.5 -15.501c0 -5.33301 3.66699 -8 11 -8c5.33301 0 12.166 1.83301 20.499 5.5s19.166 10.167 32.499 19.5z" />
    <glyph glyph-name="three" unicode="3" horiz-adv-x="413" 
d="M45 129c9.33301 -37.333 23.501 -63.167 42.501 -77.5s39.667 -20.333 62 -18s44.166 11.666 65.499 27.999s38.666 36.333 51.999 60s20.833 49.334 22.5 77.001s-6.16602 54.5 -23.499 80.5c-12 -5.33301 -25.833 -9 -41.5 -11s-30.834 -1.33301 -45.501 2
c-13.333 2.66699 -23.166 8.16699 -29.499 16.5s-9.16602 16.833 -8.49902 25.5s5.16699 16.5 13.5 23.5s20.5 10.5 36.5 10.5c13.333 0 26.166 -1.66699 38.499 -5s24.5 -7.33301 36.5 -12c30 28.667 49 56.667 57 84s9 51.833 3 73.5s-16.833 38.834 -32.5 51.501
s-32 18.667 -49 18s-33 -9.5 -48 -26.5s-24.833 -44.5 -29.5 -82.5c-4 33.333 -1.83301 59.833 6.5 79.5s21.5 34.167 39.5 43.5c23.333 12.667 45.833 17.834 67.5 15.501s40.5 -9.83301 56.5 -22.5s28.667 -29.334 38 -50.001s13.5 -43.167 12.5 -67.5
s-8.16699 -49.333 -21.5 -75s-34 -49.5 -62 -71.5c11.333 -10 20.5 -22 27.5 -36s12 -28.833 15 -44.5s4 -31.834 3 -48.501s-3.83301 -33 -8.5 -49c-6.66699 -28 -19 -51.333 -37 -70s-38.667 -32.5 -62 -41.5s-47.5 -13.167 -72.5 -12.5s-47.333 6 -67 16
s-35.167 24.667 -46.5 44s-15 43.333 -11 72zM242.001 308.999c-4 2.66699 -10.8311 5.16797 -20.498 7.50098s-19.334 3.83301 -29.001 4.5s-18.167 0.166992 -25.5 -1.5s-11 -4.83398 -11 -9.50098c0 -8.66699 3.83301 -14 11.5 -16s16.5 -2.16699 26.5 -0.5
s19.667 4.16699 29 7.5s15.666 6 18.999 8z" />
    <glyph glyph-name="four" unicode="4" horiz-adv-x="442" 
d="M428 577c-15.333 -96.667 -33.002 -191.333 -53.002 -284l-61 -281c-1.33301 -5.33301 -6.33301 -9.33301 -15 -12s-17.667 -4 -27 -4c-7.33301 0 -14 1 -20 3s-9 5.66699 -9 11v2l62 295h-33.5c-13 0 -26.333 0.333008 -40 1s-26.5 1.5 -38.5 2.5
s-21.333 2.83301 -28 5.5c-21.333 -14.667 -40.833 -25.834 -58.5 -33.501s-33.167 -11.5 -46.5 -11.5c-5.33301 0 -10.833 0.166992 -16.5 0.5s-11 1.5 -16 3.5s-9.16699 4.83301 -12.5 8.5s-5 8.83398 -5 15.501c0 10.667 5.83301 18.5 17.5 23.5
s24.834 8.66699 39.501 11s28.5 3.83301 41.5 4.5s20.5 1.66699 22.5 3c28.667 18 54 35.833 76 53.5s41.833 36 59.5 55s33.834 38.5 48.501 58.5s29 41.333 43 64c1.33301 2 4 4.33301 8 7s8.66699 5 14 7s11 3.83301 17 5.5s11.333 2.5 16 2.5
c10.667 0 16 -3.66699 16 -11c0 -1.33301 -0.166992 -2.33301 -0.5 -3s-0.5 -1.66699 -0.5 -3zM88.998 316.001c-19.333 -0.666992 -33.501 -2.50098 -42.501 -5.50098s-14.833 -6.33301 -17.5 -10s-3.33398 -7 -2.00098 -10s3 -4.5 5 -4.5
c2.66699 0 6.83398 1.33301 12.501 4s11.334 5.83398 17.001 9.50098s11.167 7 16.5 10s9 5.16699 11 6.5zM341.997 482c-18.667 -30 -40.667 -57.167 -66 -81.5s-52 -45.833 -80 -64.5c19.333 -2.66699 39 -4.16699 59 -4.5s37.667 -0.5 53 -0.5z" />
    <glyph glyph-name="five" unicode="5" horiz-adv-x="426" 
d="M362 567c-31.333 -16 -61.4971 -23.332 -90.4971 -21.999s-57.833 5.66602 -86.5 12.999l-27 -99.5c-9.33301 -33 -18 -66.5 -26 -100.5c9.33301 0.666992 18 1.16699 26 1.5s16.333 0.5 25 0.5c26.667 0 52 -2.66699 76 -8s45 -14 63 -26s32.167 -28 42.5 -48
s15.5 -44.333 15.5 -73c0 -29.333 -4.83301 -56.333 -14.5 -81s-23.5 -46 -41.5 -64s-39.5 -32.167 -64.5 -42.5s-52.5 -15.5 -82.5 -15.5c-26 0 -49.167 3.83301 -69.5 11.5s-37 18.167 -50 31.5s-22 29 -27 47s-5.5 37.667 -1.5 59
c2.66699 -40 15.834 -70.167 39.501 -90.5s51.5 -30.5 83.5 -30.5c22 0 42.667 4.83301 62 14.5s36.166 22.834 50.499 39.501s25.666 35.667 33.999 57s12.5 44 12.5 68c0 39.333 -13.667 70.666 -41 93.999s-68 35 -122 35h-78c-2.66699 -1.33301 -4.33398 -2 -5.00098 -2
c-5.33301 0 -8 2.66699 -8 8c0 2 0.333008 3.66699 1 5c2.66699 9.33301 6 21.833 10 37.5l13 51l14.5 55l14 50c4.33301 15 8.5 27.333 12.5 37s7 14.5 9 14.5c1.33301 0 2.66602 -0.666992 3.99902 -2c40 -9.33301 78.667 -17.5 116 -24.5s74.333 -7.16699 111 -0.5z" />
    <glyph glyph-name="six" unicode="6" horiz-adv-x="393" 
d="M350 553c-18.667 7.33301 -36.5 9.33203 -53.5 5.99902s-33.333 -10.166 -49 -20.499s-30.334 -23.166 -44.001 -38.499s-25.667 -31.166 -36 -47.499s-19.333 -32.166 -27 -47.499s-13.167 -28 -16.5 -38c16 4.66699 33 7 51 7c22 0 42.667 -4 62 -12
s36.333 -19.333 51 -34s26.167 -32.334 34.5 -53.001s12.5 -43.334 12.5 -68.001c0 -32.667 -5.16699 -61.834 -15.5 -87.501s-23.666 -47.167 -39.999 -64.5s-34.333 -30.666 -54 -39.999s-38.5 -14 -56.5 -14s-35.5 4 -52.5 12s-32.333 20.167 -46 36.5
s-24.5 37.166 -32.5 62.499s-12 55 -12 89c0 36 4.33301 72.333 13 109s20.5 71.167 35.5 103.5s32.833 61.333 53.5 87s43 45.5 67 59.5s49.167 21 75.5 21s52.833 -9.33301 79.5 -28zM117 338.999c-13.333 -47.333 -19.9971 -95.335 -19.9971 -144.002
c0 -16.667 2 -34.5 6 -53.5s10 -36.667 18 -53s18 -29.833 30 -40.5s26 -16 42 -16c14.667 0 29.167 5.33301 43.5 16s27.166 24.334 38.499 41.001s20.5 35.5 27.5 56.5s10.5 41.5 10.5 61.5c0 22.667 -3.83301 42.834 -11.5 60.501s-17.834 32.667 -30.501 45
s-27.167 21.833 -43.5 28.5s-33.5 10 -51.5 10c-20.667 0 -40.334 -4 -59.001 -12z" />
    <glyph glyph-name="seven" unicode="7" horiz-adv-x="413" 
d="M74 535c6.66699 23.333 16.3311 39.502 28.998 48.502s27.5 13.667 44.5 14s35.5 -2.33398 55.5 -8.00098s40.5 -10.834 61.5 -15.501s42 -7.66699 63 -9s40.833 2 59.5 10c4.66699 0 8.16699 -2.5 10.5 -7.5s1.83301 -10.5 -1.5 -16.5
c-20 -19.333 -40.167 -40.833 -60.5 -64.5s-40 -48 -59 -73s-37 -50.333 -54 -76s-31.833 -50.167 -44.5 -73.5c-19.333 -40 -35.166 -81.167 -47.499 -123.5s-19.166 -84.166 -20.499 -125.499c0 -2.66699 -3.66699 -5.5 -11 -8.5s-15.333 -5.33301 -24 -7
s-16.667 -1.83398 -24 -0.500977s-11 5 -11 11c1.33301 46 8 89.333 20 130s27 82 45 124c11.333 22.667 25 46.667 41 72s33 50.5 51 75.5l54.5 72.5c18.333 23.333 35.833 44 52.5 62c-16.667 2 -37.667 6.33301 -63 13s-50 11.5 -74 14.5s-45 2.16699 -63 -2.5
s-28 -16.667 -30 -36z" />
    <glyph glyph-name="eight" unicode="8" horiz-adv-x="378" 
d="M158 310c-22.667 -19.333 -40.1689 -43 -52.502 -71s-19.5 -55.667 -21.5 -83s1.5 -52 10.5 -74s23.5 -36.667 43.5 -44c19.333 -8.66699 39.333 -9.66699 60 -3s38.834 18 54.501 34s27.334 34.833 35.001 56.5s8.16699 43.5 1.5 65.5
c-4 17.333 -10.667 31.833 -20 43.5s-20 21.667 -32 30s-25 16 -39 23s-27.333 14.5 -40 22.5zM268.998 269c18 -18 30.666 -37.8379 37.999 -59.5049s10 -43.167 8 -64.5s-8 -41.833 -18 -61.5s-23.333 -36.167 -40 -49.5s-36.667 -22.666 -60 -27.999
s-48.666 -4.66602 -75.999 2.00098c-23.333 6 -42.333 16.833 -57 32.5s-25.667 33.667 -33 54s-10.666 42.5 -9.99902 66.5s4.66699 47.5 12 70.5s18.5 44.667 33.5 65s33.167 37.5 54.5 51.5c-22 46 -32.833 85.333 -32.5 118s7.16602 59.334 20.499 80.001
s31.5 35.167 54.5 43.5s46.333 11.333 70 9s45.5 -10.166 65.5 -23.499s34 -31.5 42 -54.5s7.83301 -50.667 -0.5 -83s-28.833 -69.166 -61.5 -110.499c25.333 32.667 40 62.5 44 89.5s1.5 49.833 -7.5 68.5s-22.5 32.667 -40.5 42s-35.833 13.333 -53.5 12
s-33.167 -8.83301 -46.5 -22.5s-20.333 -34.167 -21 -61.5c0 -16 3.16699 -32 9.5 -48s14.833 -31.833 25.5 -47.5s23 -31 37 -46z" />
    <glyph glyph-name="nine" unicode="9" horiz-adv-x="399" 
d="M110 35c26 -5.33301 49.001 -1.00391 69.001 12.9961s37.333 32.333 52 55s26.834 46.834 36.501 72.501s16.834 47.5 21.501 65.5c-28 -12 -56.5 -16.167 -85.5 -12.5s-54.5 13.834 -76.5 30.501c-18.667 14.667 -33.5 34 -44.5 58s-15.833 51 -14.5 81
c1.33301 22.667 5.83301 45.5 13.5 68.5s18.5 43.833 32.5 62.5s30.833 33.334 50.5 44.001s42.167 15 67.5 13c17.333 -1.33301 33.166 -6.33301 47.499 -15s27 -19.667 38 -33s20.333 -28.5 28 -45.5s13.5 -34.5 17.5 -52.5c7.33301 -28 10.666 -57.667 9.99902 -89
s-4.33398 -62.5 -11.001 -93.5s-15.667 -60.833 -27 -89.5s-24 -53.667 -38 -75s-29.5 -38.833 -46.5 -52.5s-34 -23 -51 -28s-33.167 -5.66699 -48.5 -2s-29 11.834 -41 24.501zM297.001 269.996c3.33301 20.667 5.49902 44.333 6.49902 71s-0.166992 53 -3.5 79
s-9.66602 50.167 -18.999 72.5s-23 39.5 -41 51.5c-20 12.667 -38.667 15.334 -56 8.00098s-32.5 -19.5 -45.5 -36.5s-23.5 -36.667 -31.5 -59s-12.667 -41.833 -14 -58.5c-1.33301 -26 2.66699 -49.167 12 -69.5s21.666 -36.833 36.999 -49.5
c10.667 -9.33301 22.667 -16.5 36 -21.5s26.833 -7.66699 40.5 -8s27.334 1.16699 41.001 4.5s26.167 8.66602 37.5 15.999z" />
    <glyph glyph-name="colon" unicode=":" horiz-adv-x="272" 
d="M111 325c9.33301 0 17.667 -2.49902 25 -7.49902s12.666 -11.333 15.999 -19s4.33301 -15.834 3 -24.501s-5.66602 -16.667 -12.999 -24c-6.66699 -6 -14.167 -9.66699 -22.5 -11s-16 -0.5 -23 2.5s-13 7.83301 -18 14.5s-7.5 14.667 -7.5 24
c0 12 4.16699 22.5 12.5 31.5s17.5 13.5 27.5 13.5zM108.001 155.001c9.33301 0 17.667 -2.49902 25 -7.49902s12.666 -11.333 15.999 -19s4.33301 -15.834 3 -24.501s-5.66602 -16.667 -12.999 -24c-6.66699 -6 -14.167 -9.66699 -22.5 -11s-16 -0.5 -23 2.5
s-13 7.83301 -18 14.5s-7.5 14.667 -7.5 24c0 12 4.16699 22.5 12.5 31.5s17.5 13.5 27.5 13.5z" />
    <glyph glyph-name="semicolon" unicode=";" horiz-adv-x="294" 
d="M110 338c9.33301 0 17.667 -2.49902 25 -7.49902s12.666 -11.333 15.999 -19s4.33301 -15.834 3 -24.501s-5.66602 -16.667 -12.999 -24c-6.66699 -6 -14.167 -9.66699 -22.5 -11s-16 -0.5 -23 2.5s-13 7.83301 -18 14.5s-7.5 14.667 -7.5 24
c0 12 4.16699 22.5 12.5 31.5s17.5 13.5 27.5 13.5zM116.001 95.001c-15.333 4.66699 -26.333 11.5 -33 20.5s-9.83398 18.167 -9.50098 27.5s3.83301 17.5 10.5 24.5s15.667 10.5 27 10.5c20 0 33.5 -7.5 40.5 -22.5s7.5 -32.333 1.5 -52s-18.167 -39.167 -36.5 -58.5
s-43.166 -33.333 -74.499 -42c-8 0 -13.667 2.66699 -17 8s-2.33301 10 3 14c7.33301 2 15.5 4.5 24.5 7.5s17.667 7.33301 26 13s15.833 12.5 22.5 20.5s11.667 17.667 15 29z" />
    <glyph glyph-name="less" unicode="&#x3c;" horiz-adv-x="450" 
d="M331 422c4.66699 0 9.49902 -0.999023 14.499 -2.99902s8.16699 -5 9.5 -9c2.66699 -4.66699 3 -8.83398 1 -12.501s-5 -6.5 -9 -8.5l-182 -100l146 -103c6.66699 -4.66699 7.33398 -11.667 2.00098 -21c-1.33301 -4 -4.66602 -7 -9.99902 -9s-10 -1.66699 -14 1
c-35.333 21.333 -71.5 41.333 -108.5 60s-73.833 38.667 -110.5 60c-6 6 -8.83301 11.5 -8.5 16.5s4.16602 10.833 11.499 17.5z" />
    <glyph glyph-name="equal" unicode="=" horiz-adv-x="466" 
d="M105 98c-3.33301 0 -7 1.66699 -11 5s-6 7.33301 -6 12c0 6 2 10.833 6 14.5s7.66699 5.5 11 5.5h216c13.333 0 20 -6.66699 20 -20c0 -4.66699 -1.83301 -8.66699 -5.5 -12s-8.5 -5 -14.5 -5h-216zM105 249c-3.33301 0 -7 1.83301 -11 5.5s-6 7.5 -6 11.5
c0 4.66699 2 8.66699 6 12s7.66699 5 11 5h216c6 0 10.833 -1.66699 14.5 -5s5.5 -7.33301 5.5 -12c0 -4 -1.83301 -7.83301 -5.5 -11.5s-8.5 -5.5 -14.5 -5.5h-216z" />
    <glyph glyph-name="greater" unicode="&#x3e;" horiz-adv-x="477" 
d="M92 152c-3.33301 -2.66699 -7.66602 -3.00098 -12.999 -1.00098s-9 5 -11 9c0 4.66699 1 9.5 3 14.5s5 8.83301 9 11.5l180 95l-141 103c-4.66699 2 -7.83398 5.5 -9.50098 10.5s-1.5 9.5 0.5 13.5c2 4.66699 5.5 7.83398 10.5 9.50098s9.5 0.166992 13.5 -4.5
c38 -18.667 74.833 -38 110.5 -58l109.5 -62c14 -10 12.667 -21.333 -4 -34z" />
    <glyph glyph-name="question" unicode="?" horiz-adv-x="491" 
d="M74 538c0 -3.33301 -1.33301 -5.83594 -4 -7.50293s-5.5 -2.5 -8.5 -2.5s-5.66699 0.833008 -8 2.5s-3.5 4.16699 -3.5 7.5c0.666992 42 10.5 77 29.5 105s42.667 49.167 71 63.5s58.833 21.833 91.5 22.5s62.667 -5.83301 90 -19.5s49.833 -34.167 67.5 -61.5
s25.5 -61.666 23.5 -102.999c-2 -31.333 -8.66699 -59.333 -20 -84s-25.666 -47.834 -42.999 -69.501s-36.166 -42.5 -56.499 -62.5s-40 -40.5 -59 -61.5s-36.333 -43.167 -52 -66.5s-27.5 -49.666 -35.5 -78.999c-2 -5.33301 -6.83301 -9.66602 -14.5 -12.999
s-15.834 -5.5 -24.501 -6.5s-16.334 -0.333008 -23.001 2s-9.33398 7.16602 -8.00098 14.499c6.66699 31.333 17.667 59.833 33 85.5s32.5 49.334 51.5 71.001s38.833 42.5 59.5 62.5s39.834 40.5 57.501 61.5s32.667 43.333 45 67s19.833 49.834 22.5 78.501
c3.33301 28 0 53.167 -10 75.5s-23.833 40.333 -41.5 54s-37.667 22.5 -60 26.5s-44.5 2 -66.5 -6c-28.667 -13.333 -53.167 -32.5 -73.5 -57.5s-30.5 -58.167 -30.5 -99.5zM109 80.9971c9.33301 0 17.667 -2.49902 25 -7.49902s12.666 -11.333 15.999 -19
s4.33301 -15.834 3 -24.501s-5.66602 -16.667 -12.999 -24c-6.66699 -6 -14.167 -9.66699 -22.5 -11s-16 -0.5 -23 2.5s-13 7.83301 -18 14.5s-7.5 14.667 -7.5 24c0 12 4.16699 22.5 12.5 31.5s17.5 13.5 27.5 13.5z" />
    <glyph glyph-name="at" unicode="@" horiz-adv-x="619" 
d="M471 416c-6 -8.66699 -13.8271 -21.832 -23.4941 -39.499l-30.5 -58.5l-31.5 -65c-10.333 -22 -18.833 -41.833 -25.5 -59.5s-10.667 -31.667 -12 -42s1.33398 -14.833 8.00098 -13.5c32 8 59.5 24.833 82.5 50.5s40.667 55 53 88s19 67.167 20 102.5
s-4.83301 66.833 -17.5 94.5s-32.334 49 -59.001 64s-61.334 18.5 -104.001 10.5c-24.667 -4.66699 -47.834 -16.5 -69.501 -35.5s-41.167 -42.5 -58.5 -70.5s-31.666 -59 -42.999 -93s-19 -67.833 -23 -101.5s-3.5 -65.834 1.5 -96.501s15.5 -56.667 31.5 -78
c9.33301 -12 20.666 -22.167 33.999 -30.5s28.666 -14 45.999 -17s36.833 -2.66699 58.5 1s45.167 11.167 70.5 22.5s49.166 26.666 71.499 45.999s41.5 41.333 57.5 66c0.666992 2.66699 2.5 4.16699 5.5 4.5s5.83301 -0.166992 8.5 -1.5s4.5 -3.5 5.5 -6.5
s0.166992 -5.83301 -2.5 -8.5c-14.667 -27.333 -33.834 -51 -57.501 -71s-49.834 -36.667 -78.501 -50c-19.333 -8.66699 -39.5 -15.5 -60.5 -20.5s-41.833 -7.33301 -62.5 -7s-40.667 4 -60 11s-37.333 17.833 -54 32.5c-25.333 22.667 -43.833 50.834 -55.5 84.501
s-17.334 69.5 -17.001 107.5s6.33301 76.167 18 114.5s28.334 73.333 50.001 105s47.834 58.167 78.501 79.5s65.334 34.333 104.001 39c36 6 67 4.5 93 -4.5s47.167 -22.833 63.5 -41.5s28.333 -41 36 -67s11.167 -53.167 10.5 -81.5s-5.16699 -56.833 -13.5 -85.5
s-20.166 -55 -35.499 -79s-33.833 -44.333 -55.5 -61s-45.834 -27.334 -72.501 -32.001c-15.333 -2.66699 -25.833 4.5 -31.5 21.5s-3.83398 42.167 5.49902 75.5c-18 -11.333 -35.333 -18.666 -52 -21.999s-31.167 -2.5 -43.5 2.5s-21.666 14.333 -27.999 28
s-8.16602 31.5 -5.49902 53.5c3.33301 22.667 11.833 44.667 25.5 66s30.167 38.833 49.5 52.5s40.666 22 63.999 25s46.666 -2.16699 69.999 -15.5c1.33301 4 2.66602 7.33301 3.99902 10zM342.006 248.002l54 136c-14 10.667 -28.333 14.667 -43 12
s-28.5 -9.16699 -41.5 -19.5s-24.833 -23.333 -35.5 -39s-19 -31.5 -25 -47.5s-9.5 -30.833 -10.5 -44.5s1.83301 -23.5 8.5 -29.5s17.5 -7 32.5 -3s35.167 15.667 60.5 35z" />
    <glyph glyph-name="A" unicode="A" horiz-adv-x="921" 
d="M873 397c-16 -14 -32.498 -24.998 -49.498 -32.998s-35.5 -14.667 -55.5 -20l-30.5 -132c-10.333 -43.333 -18.166 -82.333 -23.499 -117s-6.83301 -62.667 -4.5 -84s11.166 -32 26.499 -32c-28 -4.66699 -47.333 2.33301 -58 21s-15.667 45 -15 79
s5.16699 73.167 13.5 117.5s17.5 89.833 27.5 136.5c-19.333 -2 -39 -2.83301 -59 -2.5s-40 1.16602 -60 2.49902l-70 -127.5c-23.333 -41 -46.833 -77.667 -70.5 -110s-47.667 -59.166 -72 -80.499s-48.5 -34.666 -72.5 -39.999c-28 -6 -53.667 -6.16699 -77 -0.5
s-43.666 15.334 -60.999 29.001s-30.833 30.334 -40.5 50.001s-14.5 40.5 -14.5 62.5c0 25.333 5.5 50 16.5 74s25.667 45.167 44 63.5s39.5 33.166 63.5 44.499s49 17 75 17c34 0 59.5 -9.83301 76.5 -29.5s25.5 -42.834 25.5 -69.501
c0 -12.667 -2.16699 -25.834 -6.5 -39.501s-10.666 -26.834 -18.999 -39.501s-18.5 -24.5 -30.5 -35.5s-25.667 -20.5 -41 -28.5c-10 -5.33301 -20.833 -8.83301 -32.5 -10.5s-23 -1.16699 -34 1.5s-20.5 7.5 -28.5 14.5s-13.333 16.833 -16 29.5
c-1.33301 6.66699 1.33398 11.167 8.00098 13.5s11.667 1.16602 15 -3.50098c0.666992 -9.33301 3.66699 -16.333 9 -21s11.833 -7.83398 19.5 -9.50098s15.834 -1.83398 24.501 -0.500977s17 4 25 8c27.333 13.333 48 31.333 62 54s21 45 21 67
c0 20.667 -6.5 38.334 -19.5 53.001s-32.5 22 -58.5 22c-22 0 -43.5 -4.66699 -64.5 -14s-39.667 -21.833 -56 -37.5s-29.5 -34.167 -39.5 -55.5s-15 -44 -15 -68c0 -27.333 7.16699 -50.5 21.5 -69.5s31.833 -32.167 52.5 -39.5c32.667 -8.66699 63.5 -5.16699 92.5 10.5
s56.5 39.5 82.5 71.5s51 69.833 75 113.5s47 89.167 69 136.5l-104.5 9.5c-34.333 3 -67.333 3.66699 -99 2s-61.167 -6.66699 -88.5 -15s-51.333 -22.166 -72 -41.499c-9.33301 -5.33301 -15.333 -5.33301 -18 0s-1.33398 11 3.99902 17c22.667 22 48.834 37.5 78.501 46.5
s61.167 14.167 94.5 15.5s68.166 0 104.499 -4l108.5 -12l41.5 91.5l41 87.5c13.667 28 27.167 54.167 40.5 78.5s27 46.166 41 65.499l-34.5 2c-11.667 0.666992 -23.167 1.66699 -34.5 3l-54 4c-18 1.33301 -35.333 2 -52 2c-22 0 -43.167 -1.5 -63.5 -4.5
s-39 -8.66699 -56 -17s-32.333 -20 -46 -35s-24.834 -34.167 -33.501 -57.5c-4 -6 -8.66699 -7.83301 -14 -5.5s-7.33301 6.83301 -6 13.5c10 26.667 22.5 48.334 37.5 65.001s32 29.667 51 39s39.5 15.666 61.5 18.999s45 5 69 5c17.333 0 35.166 -0.666992 53.499 -2
l54.5 -4c13.333 -1.33301 26.666 -2.5 39.999 -3.5s26.666 -1.83301 39.999 -2.5c30 46.667 60.667 84.334 92 113.001s65.333 43 102 43c17.333 0 30.333 -5.5 39 -16.5s13 -23.167 13 -36.5c0 -6 -1.16699 -12.667 -3.5 -20s-5.83301 -14.333 -10.5 -21
c-21.333 -28.667 -47.5 -49.167 -78.5 -61.5s-63.833 -19.5 -98.5 -21.5l-5.5 -9c-1.66699 -2.66699 -3.16699 -5.66699 -4.5 -9c16 -6.66699 27.333 -19.334 34 -38.001s10.167 -41.334 10.5 -68.001s-2 -56.5 -7 -89.5s-11.167 -66.833 -18.5 -101.5
c15.333 4.66699 30.166 10.834 44.499 18.501s27.833 17.167 40.5 28.5c4.66699 4 9.5 3.83301 14.5 -0.5s5.16699 -9.16602 0.5 -14.499zM736.002 630.002l-69.499 -135l-72.5 -144c19.333 -1.33301 38.666 -2 57.999 -2s38 1 56 3c6 27.333 11.5 54.333 16.5 81
s9 52 12 76s4.66699 46.333 5 67s-1.5 38.667 -5.5 54zM899.003 835.002c-10 -0.666992 -19.834 -4.66797 -29.501 -12.001s-19.667 -17 -30 -29s-20.666 -25.833 -30.999 -41.5s-20.833 -32.5 -31.5 -50.5c30 2.66699 57.5 9.33398 82.5 20.001s46.167 28.334 63.5 53.001
c6.66699 9.33301 10 19 10 29c0 7.33301 -2.83301 14.666 -8.5 21.999s-14.167 10.333 -25.5 9z" />
    <glyph glyph-name="B" unicode="B" horiz-adv-x="874" 
d="M294 -45c-27.333 -9.33301 -52.833 -12.3291 -76.5 -8.99609s-44.834 11 -63.501 23s-34 27.333 -46 46s-19.667 39 -23 61c-4 25.333 -2 50.5 6 75.5s20.167 47.833 36.5 68.5s35.833 37.834 58.5 51.501s47 22.167 73 25.5c34 4 60.5 -2.83301 79.5 -20.5
s30.167 -39.5 33.5 -65.5c1.33301 -12.667 0.666016 -26 -2.00098 -40s-7.16699 -27.833 -13.5 -41.5s-14.833 -26.834 -25.5 -39.501s-23.334 -23.667 -38.001 -33c-9.33301 -6 -19.666 -10.5 -30.999 -13.5s-22.5 -4 -33.5 -3s-21 4.66699 -30 11s-15.5 15.5 -19.5 27.5
c-2.66699 6 -0.666992 10.667 6 14s11.667 2.66602 15 -2.00098c2 -8.66699 6 -15.167 12 -19.5s12.833 -6.83301 20.5 -7.5s15.834 0.333008 24.501 3s16.667 6.33398 24 11.001c25.333 16.667 43.666 37 54.999 61s15.666 47 12.999 69
c-2.66699 20.667 -11.334 37.5 -26.001 50.5s-35 17.833 -61 14.5c-22 -2.66699 -43 -9.83398 -63 -21.501s-37.333 -26.334 -52 -44.001s-25.5 -37.667 -32.5 -60s-8.83301 -45.5 -5.5 -69.5c2.66699 -21.333 9.83398 -39.666 21.501 -54.999s25.5 -27 41.5 -35
s33.667 -12 53 -12s38 4.66699 56 14c24.667 12.667 46.5 32.834 65.5 60.501s36.5 60.5 52.5 98.5s31.167 80 45.5 126l45 142c15.667 48.667 32.667 97.667 51 147s39.166 96.666 62.499 141.999c-11.333 -1.33301 -22.833 -2.16602 -34.5 -2.49902
s-23.167 -0.833008 -34.5 -1.5l-54 -2c-18 -0.666992 -35.333 -2 -52 -4c-22 -2.66699 -42.833 -6.83398 -62.5 -12.501s-37.5 -13.667 -53.5 -24s-29.833 -23.666 -41.5 -39.999s-20.5 -36.5 -26.5 -60.5c-3.33301 -6.66699 -7.83301 -9.16699 -13.5 -7.5
s-8.16699 6.16699 -7.5 13.5c6.66699 27.333 16.5 50.166 29.5 68.499s28.333 33.166 46 44.499s37.167 20 58.5 26s44 10.667 68 14c17.333 2 35.166 3.33301 53.499 4s36.5 1.66699 54.5 3c13.333 0.666992 26.833 1 40.5 1s27.167 0.666992 40.5 2
c23.333 50 49 91 77 123s60.333 50.333 97 55c17.333 2 30.833 -1.83301 40.5 -11.5s15.5 -21.167 17.5 -34.5c0.666992 -6 0.166992 -12.833 -1.5 -20.5s-4.5 -15.167 -8.5 -22.5c-17.333 -30.667 -40.666 -54 -69.999 -70s-61 -27 -95 -33
c32.667 -1.33301 57.334 -9 74.001 -23s26.834 -31.333 30.501 -52s1.83398 -43 -5.49902 -67s-18.666 -46.667 -33.999 -68s-33.833 -39.666 -55.5 -54.999s-44.5 -24.333 -68.5 -27c42 -7.33301 73.167 -23.5 93.5 -48.5s31.333 -53.833 33 -86.5s-5 -66.834 -20 -102.501
s-36.5 -67.834 -64.5 -96.501c-16 -16 -34.5 -30.667 -55.5 -44s-43.5 -23.833 -67.5 -31.5s-49 -11.334 -75 -11.001s-51.667 5.83301 -77 16.5c-13.333 -15.333 -27 -28.333 -41 -39s-28.667 -18.667 -44 -24zM562 410.004l-38.5 -108.502
c-13 -35.667 -26.5 -69.834 -40.5 -102.501s-28.833 -63.167 -44.5 -91.5s-31.834 -53.5 -48.501 -75.5c36 -15.333 70.667 -17.166 104 -5.49902s62.666 30.834 87.999 57.501s45.833 57.834 61.5 93.501s23.834 70 24.501 103s-7.16602 61.833 -23.499 86.5
s-43.833 39 -82.5 43zM663 696.002c-16.667 -40 -32.832 -83.3311 -48.499 -129.998l-48.5 -142c20 5.33301 39.167 15.166 57.5 29.499s34.666 30.666 48.999 48.999s26 37.833 35 58.5s13.667 40.167 14 58.5s-4 34.333 -13 48s-24.167 23.167 -45.5 28.5z
M786.002 884.004c-19.333 -4 -37.334 -19.833 -54.001 -47.5s-33.667 -60.834 -51 -99.501c29.333 6 55.666 15.833 78.999 29.5s42.333 33.834 57 60.501c6 10.667 8.33301 20.667 7 30c-1.33301 7.33301 -5.16602 14.333 -11.499 21s-15.166 8.66699 -26.499 6z" />
    <glyph glyph-name="C" unicode="C" horiz-adv-x="544" 
d="M565 350c-12 -22 -25.9922 -45.998 -41.9922 -71.998s-33.333 -52.167 -52 -78.5s-38.334 -51.833 -59.001 -76.5s-41.834 -46.334 -63.501 -65.001s-43.5 -33.334 -65.5 -44.001s-43.667 -15.334 -65 -14.001c-35.333 2 -63.166 14 -83.499 36
s-34.833 49.833 -43.5 83.5s-12 71.834 -10 114.501s8.16699 86 18.5 130s24.166 87 41.499 129s36.666 79.333 57.999 112c14.667 22 30.167 41.667 46.5 59s33.5 31.666 51.5 42.999s36.5 19.166 55.5 23.499s38.167 4.5 57.5 0.5c25.333 -4.66699 45 -14.834 59 -30.501
s23.667 -34.5 29 -56.5s7 -46 5 -72s-6.5 -51.667 -13.5 -77s-16 -49.333 -27 -72s-22.5 -41.667 -34.5 -57c-2.66699 -3.33301 -5.83398 -5 -9.50098 -5s-6.83398 1.33301 -9.50098 4s-4.33398 5.83398 -5.00098 9.50098s0.333008 7.16699 3 10.5
c13.333 18 25 37.833 35 59.5s17.667 43.667 23 66s8.5 44 9.5 65s-0.666992 40 -5 57s-11.333 31.167 -21 42.5s-22.167 18 -37.5 20c-20 2.66699 -40.833 -4.33301 -62.5 -21s-42.834 -39.667 -63.501 -69s-40.334 -63.166 -59.001 -101.499s-34.667 -78 -48 -119
s-23.333 -81.667 -30 -122s-8.66699 -76.666 -6 -108.999s10.667 -59.333 24 -81s33.666 -34.5 60.999 -38.5c16 -2.66699 33.5 1 52.5 11s38.333 24 58 42s39.5 39 59.5 63s39 48.667 57 74s34.667 50.333 50 75l40 66c2 3.33301 4.83301 5.16602 8.5 5.49902
s6.83398 -0.166992 9.50098 -1.5s4.5 -3.66602 5.5 -6.99902s0.166992 -7.33301 -2.5 -12z" />
    <glyph glyph-name="D" unicode="D" horiz-adv-x="908" 
d="M315 -45c-27.333 -9.33301 -52.8291 -12.334 -76.4961 -9.00098s-44.834 11 -63.501 23s-34 27.333 -46 46s-19.667 39 -23 61c-4 25.333 -2 50.5 6 75.5s20.167 47.833 36.5 68.5s35.833 37.834 58.5 51.501s47 22.167 73 25.5c34 4 60.5 -2.83301 79.5 -20.5
s30.167 -39.5 33.5 -65.5c1.33301 -12.667 0.666016 -26 -2.00098 -40s-7.16699 -27.833 -13.5 -41.5s-14.833 -26.834 -25.5 -39.501s-23.334 -23.667 -38.001 -33c-9.33301 -6 -19.666 -10.5 -30.999 -13.5s-22.5 -4 -33.5 -3s-21 4.66699 -30 11s-15.5 15.5 -19.5 27.5
c-2.66699 6 -0.666992 10.667 6 14s11.667 2.66602 15 -2.00098c2 -8.66699 6 -15.167 12 -19.5s12.833 -6.83301 20.5 -7.5s15.834 0.333008 24.501 3s16.667 6.33398 24 11.001c25.333 16.667 43.666 37 54.999 61s15.666 47 12.999 69
c-2.66699 20.667 -11.334 37.5 -26.001 50.5s-35 17.833 -61 14.5c-22 -2.66699 -43 -9.83398 -63 -21.501s-37.333 -26.334 -52 -44.001s-25.5 -37.667 -32.5 -60s-8.83301 -45.5 -5.5 -69.5c2.66699 -21.333 9.83398 -39.666 21.501 -54.999s25.5 -27 41.5 -35
s33.667 -12 53 -12s38 4.66699 56 14c24.667 12.667 46.5 32.834 65.5 60.501s36.5 60.5 52.5 98.5s31.167 80 45.5 126l45 142c15.667 48.667 32.667 97.667 51 147s39.166 96.666 62.499 141.999c-11.333 -1.33301 -22.833 -2.16602 -34.5 -2.49902
s-23.167 -0.833008 -34.5 -1.5l-54 -2c-18 -0.666992 -35.333 -2 -52 -4c-22 -2.66699 -42.833 -6.83398 -62.5 -12.501s-37.5 -13.667 -53.5 -24s-29.833 -23.666 -41.5 -39.999s-20.5 -36.5 -26.5 -60.5c-3.33301 -6.66699 -7.83301 -9.16699 -13.5 -7.5
s-8.16699 6.16699 -7.5 13.5c6.66699 27.333 16.5 50.166 29.5 68.499s28.333 33.166 46 44.499s37.167 20 58.5 26s44 10.667 68 14c17.333 2 35.166 3.33301 53.499 4s36.5 1.66699 54.5 3c13.333 0.666992 26.833 1 40.5 1s27.167 0.666992 40.5 2
c23.333 50 49 91 77 123s60.333 50.333 97 55c17.333 2 30.833 -1.83301 40.5 -11.5s15.5 -21.167 17.5 -34.5c0.666992 -6 0.166992 -12.833 -1.5 -20.5s-4.5 -15.167 -8.5 -22.5c-17.333 -30.667 -40.666 -54 -69.999 -70s-61 -27 -95 -33
c32 -7.33301 58.5 -21.666 79.5 -42.999s36.833 -47 47.5 -77s16.667 -63.5 18 -100.5s-1.5 -75 -8.5 -114s-17.667 -77.667 -32 -116s-31.833 -74.166 -52.5 -107.499c-30 -47.333 -65.667 -85.166 -107 -113.499s-86 -42.5 -134 -42.5c-19.333 0 -36.833 2.66699 -52.5 8
s-30.167 11.666 -43.5 18.999c-14 -17.333 -28.5 -32.166 -43.5 -44.499s-31.167 -21.5 -48.5 -27.5zM492.004 22.999c27.333 0.666992 53.8301 9.66895 79.4971 27.002s49.834 40.166 72.501 68.499s43.167 60.833 61.5 97.5s33.5 74.667 45.5 114s20.333 78.5 25 117.5
s4.83398 75.167 0.500977 108.5s-14 62.166 -29 86.499s-36.167 41.833 -63.5 52.5c-20.667 -50 -41 -105.167 -61 -165.5l-62 -180.5c-21.333 -60 -43.666 -117 -66.999 -171s-49 -100 -77 -138c20.667 -12 45.667 -17.667 75 -17zM807.001 884.001
c-19.333 -4 -37.334 -19.833 -54.001 -47.5s-33.667 -60.834 -51 -99.501c29.333 6 55.666 15.833 78.999 29.5s42.333 33.834 57 60.501c6 10.667 8.33301 20.667 7 30c-1.33301 7.33301 -5.16602 14.333 -11.499 21s-15.166 8.66699 -26.499 6z" />
    <glyph glyph-name="E" unicode="E" horiz-adv-x="675" 
d="M384 475c-29.333 -6 -57.6719 -21.001 -85.0049 -45.001s-51.166 -52.667 -71.499 -86s-36.166 -68.666 -47.499 -105.999s-15.666 -71.833 -12.999 -103.5s13.5 -58.167 32.5 -79.5s48.5 -32.333 88.5 -33c22 -0.666992 45.667 5.33301 71 18s50.833 29.167 76.5 49.5
s51 43.333 76 69s48.333 51.334 70 77.001s40.667 50 57 73s28.5 41.833 36.5 56.5c2.66699 5.33301 6.16699 8.5 10.5 9.5s7.83301 0.5 10.5 -1.5s4.33398 -5.16699 5.00098 -9.5s-1 -8.83301 -5 -13.5l-44 -61.5c-17.333 -23.667 -37 -48.5 -59 -74.5
s-45.5 -51.667 -70.5 -77s-50.833 -48.333 -77.5 -69s-53.834 -37.667 -81.501 -51s-54.5 -20.333 -80.5 -21c-40.667 -1.33301 -74.667 4.16699 -102 16.5s-48.5 29.166 -63.5 50.499s-24.5 45.833 -28.5 73.5s-3.16699 56.5 2.5 86.5s15.834 59.833 30.501 89.5
s32.667 57.167 54 82.5c16.667 20.667 35.334 38.834 56.001 54.501s43.334 28.167 68.001 37.5c-31.333 8 -55 22.167 -71 42.5s-25.667 44.166 -29 71.499l-33 -2c-10.667 -0.666992 -21 -1.66699 -31 -3c-22 -2.66699 -42.833 -6.83398 -62.5 -12.501
s-37.5 -13.667 -53.5 -24s-29.833 -23.666 -41.5 -39.999s-20.5 -36.5 -26.5 -60.5c-3.33301 -6.66699 -7.83301 -9.16699 -13.5 -7.5s-8.16699 6.16699 -7.5 13.5c6.66699 27.333 16.5 50.166 29.5 68.499s28.333 33.166 46 44.499s37.167 20 58.5 26s44 10.667 68 14
c10.667 1.33301 21.5 2.33301 32.5 3l33.5 2c0 30.667 6.83301 62.167 20.5 94.5s32.5 62.5 56.5 90.5c24.667 28 53.667 50.333 87 67s70 23.667 110 21c35.333 -2 61 -10.667 77 -26s25.167 -33.666 27.5 -54.999s-1 -43.5 -10 -66.5s-20.5 -42.5 -34.5 -58.5
c-18.667 -22 -41.667 -38.833 -69 -50.5s-55.666 -20.167 -84.999 -25.5c-30.667 -3.33301 -54.334 -5.83301 -71.001 -7.5s-30 -2.83398 -40 -3.50098c0.666992 -27.333 8.16699 -50.166 22.5 -68.499s37.5 -29.166 69.5 -32.499c5.33301 0.666992 10.166 0 14.499 -2
s7.5 -10.333 9.5 -25zM475.994 874.999c-24.667 0.666992 -48.833 -6.83398 -72.5 -22.501s-45 -35.834 -64 -60.501s-34.833 -51.667 -47.5 -81s-20.334 -57.666 -23.001 -84.999h27c8.66699 0 17.334 0.666992 26.001 2l67 9c25.333 5.33301 48.333 13.333 69 24
s38.667 25.667 54 45h2c14 17.333 24 35.833 30 55.5s7.5 37.834 4.5 54.501s-10.5 30.5 -22.5 41.5s-28.667 16.833 -50 17.5z" />
    <glyph glyph-name="F" unicode="F" horiz-adv-x="770" 
d="M746 487c-16 -1.33301 -28.3281 -2.16504 -36.9951 -2.49805s-16.667 -0.833008 -24 -1.5l-62 -2l-60 -174c-20.667 -58 -42.667 -111.167 -66 -159.5s-48.5 -89.833 -75.5 -124.5s-56.833 -57.334 -89.5 -68.001c-27.333 -9.33301 -52.833 -12.333 -76.5 -9
s-44.834 11 -63.501 23s-34 27.333 -46 46s-19.667 39 -23 61c-4 25.333 -2 50.5 6 75.5s20.167 47.833 36.5 68.5s35.833 37.834 58.5 51.501s47 22.167 73 25.5c34 4 60.5 -2.83301 79.5 -20.5s30.167 -39.5 33.5 -65.5c1.33301 -12.667 0.666016 -26 -2.00098 -40
s-7.16699 -27.833 -13.5 -41.5s-14.833 -26.834 -25.5 -39.501s-23.334 -23.667 -38.001 -33c-9.33301 -6 -19.666 -10.5 -30.999 -13.5s-22.5 -4 -33.5 -3s-21 4.66699 -30 11s-15.5 15.5 -19.5 27.5c-2.66699 6 -0.666992 10.667 6 14s11.667 2.66602 15 -2.00098
c2 -8.66699 6 -15.167 12 -19.5s12.833 -6.83301 20.5 -7.5s15.834 0.333008 24.501 3s16.667 6.33398 24 11.001c25.333 16.667 43.666 37 54.999 61s15.666 47 12.999 69c-2.66699 20.667 -11.334 37.5 -26.001 50.5s-35 17.833 -61 14.5
c-22 -2.66699 -43 -9.83398 -63 -21.501s-37.333 -26.334 -52 -44.001s-25.5 -37.667 -32.5 -60s-8.83301 -45.5 -5.5 -69.5c2.66699 -21.333 9.83398 -39.666 21.501 -54.999s25.5 -27 41.5 -35s33.667 -12 53 -12s38 4.66699 56 14c26.667 13.333 50.167 35.833 70.5 67.5
s39 69.167 56 112.5s33.5 91 49.5 143l51 159c-36 -7.33301 -67.5 -20.666 -94.5 -39.999s-45.833 -50 -56.5 -92c-3.33301 -6.66699 -7.83301 -9.16699 -13.5 -7.5s-8.16699 6.16699 -7.5 13.5c6 24.667 14.667 45.834 26 63.501s24.833 32.167 40.5 43.5
s33.167 20.333 52.5 27s39.666 12 60.999 16c12.667 36 26 71.667 40 107s29.667 69.666 47 102.999c-11.333 -1.33301 -22.833 -2.16602 -34.5 -2.49902s-23.167 -0.833008 -34.5 -1.5l-54 -2c-18 -0.666992 -35.333 -2 -52 -4
c-22 -2.66699 -42.833 -6.83398 -62.5 -12.501s-37.5 -13.667 -53.5 -24s-29.833 -23.666 -41.5 -39.999s-20.5 -36.5 -26.5 -60.5c-3.33301 -6.66699 -7.83301 -9.16699 -13.5 -7.5s-8.16699 6.16699 -7.5 13.5c6.66699 27.333 16.5 50.166 29.5 68.499
s28.333 33.166 46 44.499s37.167 20 58.5 26s44 10.667 68 14c17.333 2 35.166 3.33301 53.499 4s36.5 1.66699 54.5 3c13.333 0.666992 26.833 1 40.5 1s27.167 0.666992 40.5 2c23.333 50 49 91 77 123s60.333 50.333 97 55c17.333 2 30.833 -1.83301 40.5 -11.5
s15.5 -21.167 17.5 -34.5c0.666992 -6 0.166992 -12.833 -1.5 -20.5s-4.5 -15.167 -8.5 -22.5c-17.333 -30.667 -40.666 -54 -69.999 -70s-61 -27 -95 -33c-13.333 -31.333 -26.333 -64.833 -39 -100.5l-39 -110.5l53 3l64 2
c7.33301 -1.33301 10.666 -4.83301 9.99902 -10.5s-4.66699 -9.16699 -12 -10.5zM824.005 884.001c-19.333 -4 -37.334 -19.833 -54.001 -47.5s-33.667 -60.834 -51 -99.501c29.333 6 55.666 15.833 78.999 29.5s42.333 33.834 57 60.501c6 10.667 8.33301 20.667 7 30
c-1.33301 7.33301 -5.16602 14.333 -11.499 21s-15.166 8.66699 -26.499 6z" />
    <glyph glyph-name="G" unicode="G" horiz-adv-x="709" 
d="M670 555c-20 -37.333 -39.1592 -79.9941 -57.4922 -127.994s-36.333 -97.833 -54 -149.5l-54 -153.5c-18.333 -50.667 -37.833 -97.334 -58.5 -140.001s-42.834 -79 -66.501 -109s-49.834 -49.667 -78.501 -59c-27.333 -9.33301 -52.833 -12.333 -76.5 -9
s-44.834 11 -63.501 23s-34 27.333 -46 46s-19.667 39 -23 61c-4 25.333 -2 50.5 6 75.5s20.167 47.833 36.5 68.5s35.833 37.834 58.5 51.501s47 22.167 73 25.5c34 4 60.5 -2.83301 79.5 -20.5s30.167 -39.5 33.5 -65.5c1.33301 -12.667 0.666016 -26 -2.00098 -40
s-7.16699 -27.833 -13.5 -41.5s-14.833 -26.834 -25.5 -39.501s-23.334 -23.667 -38.001 -33c-9.33301 -6 -19.666 -10.5 -30.999 -13.5s-22.5 -4 -33.5 -3s-21 4.66699 -30 11s-15.5 15.5 -19.5 27.5c-2.66699 6 -0.666992 10.667 6 14s11.667 2.66602 15 -2.00098
c2 -8.66699 6 -15.167 12 -19.5s12.833 -6.83301 20.5 -7.5s15.834 0.333008 24.501 3s16.667 6.33398 24 11.001c25.333 16.667 43.666 37 54.999 61s15.666 47 12.999 69c-2.66699 20.667 -11.334 37.5 -26.001 50.5s-35 17.833 -61 14.5
c-22 -2.66699 -43 -9.83398 -63 -21.501s-37.333 -26.334 -52 -44.001s-25.5 -37.667 -32.5 -60s-8.83301 -45.5 -5.5 -69.5c2.66699 -21.333 9.83398 -39.666 21.501 -54.999s25.5 -27 41.5 -35s33.667 -12 53 -12s38 4.66699 56 14c18 8.66699 34.833 25.167 50.5 49.5
s31 53.333 46 87s29.5 70.5 43.5 110.5l42 121c-26.667 -15.333 -52.667 -26.166 -78 -32.499s-49.333 -5.83301 -72 1.5c-30 10 -52.333 28 -67 54s-22.834 56.667 -24.501 92s2.33301 73.666 12 114.999s23.834 82 42.501 122c-20 -3.33301 -39 -8 -57 -14
s-34.333 -14.167 -49 -24.5s-27.5 -23.333 -38.5 -39s-19.167 -34.834 -24.5 -57.501c-3.33301 -6.66699 -7.83301 -9.16699 -13.5 -7.5s-8.16699 6.16699 -7.5 13.5c6.66699 27.333 16.5 50.166 29.5 68.499s28.333 33.166 46 44.499s37.167 20 58.5 26s44 10.667 68 14
c20.667 40 44.667 77.167 72 111.5s57 62.5 89 84.5s65.5 36.333 100.5 43s70.167 2 105.5 -14c12.667 -6 23.334 -14.167 32.001 -24.5s15 -22 19 -35s5.16699 -26.5 3.5 -40.5s-5.83398 -27.667 -12.501 -41c-18 -26 -41.667 -46 -71 -60s-60 -23.333 -92 -28
c-36 -5.33301 -68 -8 -96 -8s-55 -1.66699 -81 -5c-22.667 -36 -41.334 -72.833 -56.001 -110.5s-23.834 -73 -27.501 -106s-1.16699 -62.167 7.5 -87.5s25 -43.333 49 -54c19.333 -8.66699 41.833 -8.33398 67.5 0.999023s52.5 24 80.5 44c13.333 38 27 74.5 41 109.5
s28.667 65.833 44 92.5s31.166 48 47.499 64s33.833 24 52.5 24zM674.008 683.006c7.33301 10 12.001 21.002 14.001 33.002s1.83301 23.333 -0.5 34s-6.5 20 -12.5 28s-13 13.333 -21 16c-27.333 9.33301 -53.333 10.333 -78 3s-48.167 -20.5 -70.5 -39.5
s-44 -42.333 -65 -70s-41.5 -56.5 -61.5 -86.5c29.333 3.33301 58.166 5.16602 86.499 5.49902s56.833 2.83301 85.5 7.5c25.333 4 48.333 11.667 69 23s38.667 26.666 54 45.999z" />
    <glyph glyph-name="H" unicode="H" horiz-adv-x="921" 
d="M149 311c20 19.333 42.6787 33.665 68.0117 42.998s52.5 15.166 81.5 17.499s59.167 2.5 90.5 0.5s63 -5 95 -9c18 57.333 37.167 115.333 57.5 174s44.5 115 72.5 169c-11.333 -1.33301 -22.833 -2.16602 -34.5 -2.49902s-23.167 -0.833008 -34.5 -1.5l-54 -2
c-18 -0.666992 -35.333 -2 -52 -4c-22 -2.66699 -42.833 -6.83398 -62.5 -12.501s-37.5 -13.667 -53.5 -24s-29.833 -23.666 -41.5 -39.999s-20.5 -36.5 -26.5 -60.5c-3.33301 -6.66699 -7.83301 -9.16699 -13.5 -7.5s-8.16699 6.16699 -7.5 13.5
c6.66699 27.333 16.5 50.166 29.5 68.499s28.333 33.166 46 44.499s37.167 20 58.5 26s44 10.667 68 14c17.333 2 35.166 3.33301 53.499 4s36.5 1.66699 54.5 3c13.333 0.666992 26.833 1 40.5 1s27.167 0.666992 40.5 2c23.333 50 49 91 77 123s60.333 50.333 97 55
c17.333 2 30.833 -1.83301 40.5 -11.5s15.5 -21.167 17.5 -34.5c0.666992 -6 0.166992 -12.833 -1.5 -20.5s-4.5 -15.167 -8.5 -22.5c-17.333 -30.667 -40.666 -54 -69.999 -70s-61 -27 -95 -33c-22 -51.333 -43.5 -108.333 -64.5 -171l-64.5 -188
c28.667 -2.66699 57 -4.5 85 -5.5s54.667 0.166992 80 3.5l37.5 99c12.333 32.667 23.166 63.667 32.499 93s16.5 56.333 21.5 81s6.5 45.334 4.5 62.001c24.667 3.33301 40.667 -3.33398 48 -20.001s8.66602 -40 3.99902 -70s-13.834 -64.667 -27.501 -104
s-28.834 -80.333 -45.501 -123c19.333 7.33301 37.666 17.5 54.999 30.5s33 29.167 47 48.5c6 4.66699 11.333 4.83398 16 0.500977s4.66699 -9.83301 0 -16.5c-17.333 -23.333 -36.666 -41.833 -57.999 -55.5s-44.333 -24.167 -69 -31.5l-48.5 -120.5
c-16.333 -39.667 -30.166 -75.834 -41.499 -108.501s-18.833 -60.5 -22.5 -83.5s-0.833984 -37.833 8.49902 -44.5c-26.667 -6 -43.334 -0.166992 -50.001 17.5s-7 42.834 -1 75.501s16.667 70.834 32 114.501s32 88.834 50 135.501
c-26 -2.66699 -52.833 -3.33398 -80.5 -2.00098s-55.5 3.33301 -83.5 6c-16 -45.333 -32.833 -89.166 -50.5 -131.499s-36.334 -80.5 -56.001 -114.5s-40.667 -63 -63 -87s-46.5 -40.333 -72.5 -49c-27.333 -9.33301 -52.833 -12.333 -76.5 -9s-44.834 11 -63.501 23
s-34 27.333 -46 46s-19.667 39 -23 61c-4 25.333 -2 50.5 6 75.5s20.167 47.833 36.5 68.5s35.833 37.834 58.5 51.501s47 22.167 73 25.5c34 4 60.5 -2.83301 79.5 -20.5s30.167 -39.5 33.5 -65.5c1.33301 -12.667 0.666016 -26 -2.00098 -40s-7.16699 -27.833 -13.5 -41.5
s-14.833 -26.834 -25.5 -39.501s-23.334 -23.667 -38.001 -33c-9.33301 -6 -19.666 -10.5 -30.999 -13.5s-22.5 -4 -33.5 -3s-21 4.66699 -30 11s-15.5 15.5 -19.5 27.5c-2.66699 6 -0.666992 10.667 6 14s11.667 2.66602 15 -2.00098c2 -8.66699 6 -15.167 12 -19.5
s12.833 -6.83301 20.5 -7.5s15.834 0.333008 24.501 3s16.667 6.33398 24 11.001c25.333 16.667 43.666 37 54.999 61s15.666 47 12.999 69c-2.66699 20.667 -11.334 37.5 -26.001 50.5s-35 17.833 -61 14.5c-22 -2.66699 -43 -9.83398 -63 -21.501
s-37.333 -26.334 -52 -44.001s-25.5 -37.667 -32.5 -60s-8.83301 -45.5 -5.5 -69.5c2.66699 -21.333 9.83398 -39.666 21.501 -54.999s25.5 -27 41.5 -35s33.667 -12 53 -12s38 4.66699 56 14c21.333 10.667 40.5 27.334 57.5 50.001s32.833 49.5 47.5 80.5
s28.5 65.5 41.5 103.5l39.5 119c-30.667 2.66699 -60.834 4.83398 -90.501 6.50098s-58 1.33398 -85 -0.999023s-52.333 -7.83301 -76 -16.5s-44.834 -21.334 -63.501 -38.001c-9.33301 -5.33301 -15.333 -5.33301 -18 0s-1.33398 11 3.99902 17zM797.012 883.999
c-19.333 -4 -37.334 -19.833 -54.001 -47.5s-33.667 -60.834 -51 -99.501c29.333 6 55.666 15.833 78.999 29.5s42.333 33.834 57 60.501c6 10.667 8.33301 20.667 7 30c-1.33301 7.33301 -5.16602 14.333 -11.499 21s-15.166 8.66699 -26.499 6z" />
    <glyph glyph-name="I" unicode="I" horiz-adv-x="702" 
d="M309 -45c-27.333 -9.33301 -52.8291 -12.3311 -76.4961 -8.99805s-44.834 11 -63.501 23s-34 27.333 -46 46s-19.667 39 -23 61c-4 25.333 -2 50.5 6 75.5s20.167 47.833 36.5 68.5s35.833 37.834 58.5 51.501s47 22.167 73 25.5c34 4 60.5 -2.83301 79.5 -20.5
s30.167 -39.5 33.5 -65.5c1.33301 -12.667 0.666016 -26 -2.00098 -40s-7.16699 -27.833 -13.5 -41.5s-14.833 -26.834 -25.5 -39.501s-23.334 -23.667 -38.001 -33c-9.33301 -6 -19.666 -10.5 -30.999 -13.5s-22.5 -4 -33.5 -3s-21 4.66699 -30 11s-15.5 15.5 -19.5 27.5
c-2.66699 6 -0.666992 10.667 6 14s11.667 2.66602 15 -2.00098c2 -8.66699 6 -15.167 12 -19.5s12.833 -6.83301 20.5 -7.5s15.834 0.333008 24.501 3s16.667 6.33398 24 11.001c25.333 16.667 43.666 37 54.999 61s15.666 47 12.999 69
c-2.66699 20.667 -11.334 37.5 -26.001 50.5s-35 17.833 -61 14.5c-22 -2.66699 -43 -9.83398 -63 -21.501s-37.333 -26.334 -52 -44.001s-25.5 -37.667 -32.5 -60s-8.83301 -45.5 -5.5 -69.5c2.66699 -21.333 9.83398 -39.666 21.501 -54.999s25.5 -27 41.5 -35
s33.667 -12 53 -12s38 4.66699 56 14c24.667 12.667 46.5 32.834 65.5 60.501s36.5 60.5 52.5 98.5s31.167 80 45.5 126l45 142c15.667 48.667 32.667 97.667 51 147s39.166 96.666 62.499 141.999c-11.333 -1.33301 -22.833 -2.16602 -34.5 -2.49902
s-23.167 -0.833008 -34.5 -1.5l-54 -2c-18 -0.666992 -35.333 -2 -52 -4c-22 -2.66699 -42.833 -6.83398 -62.5 -12.501s-37.5 -13.667 -53.5 -24s-29.833 -23.666 -41.5 -39.999s-20.5 -36.5 -26.5 -60.5c-3.33301 -6.66699 -7.83301 -9.16699 -13.5 -7.5
s-8.16699 6.16699 -7.5 13.5c6.66699 27.333 16.5 50.166 29.5 68.499s28.333 33.166 46 44.499s37.167 20 58.5 26s44 10.667 68 14c17.333 2 35.166 3.33301 53.499 4s36.5 1.66699 54.5 3c13.333 0.666992 26.833 1 40.5 1s27.167 0.666992 40.5 2
c23.333 50 49 91 77 123s60.333 50.333 97 55c17.333 2 30.833 -1.83301 40.5 -11.5s15.5 -21.167 17.5 -34.5c0.666992 -6 0.166992 -12.833 -1.5 -20.5s-4.5 -15.167 -8.5 -22.5c-17.333 -30.667 -40.666 -54 -69.999 -70s-61 -27 -95 -33
c-18.667 -42.667 -36.667 -89.667 -54 -141l-53 -156.5c-18 -53 -36.667 -104.833 -56 -155.5s-40 -97 -62 -139s-45.5 -77.833 -70.5 -107.5s-52.167 -49.5 -81.5 -59.5zM801.004 884.002c-19.333 -4 -37.334 -19.833 -54.001 -47.5s-33.667 -60.834 -51 -99.501
c29.333 6 55.666 15.833 78.999 29.5s42.333 33.834 57 60.501c6 10.667 8.33301 20.667 7 30c-1.33301 7.33301 -5.16602 14.333 -11.499 21s-15.166 8.66699 -26.499 6z" />
    <glyph glyph-name="J" unicode="J" horiz-adv-x="683" 
d="M313 -45c-27.333 -9.33301 -52.834 -12.335 -76.501 -9.00195s-44.834 11 -63.501 23s-34 27.333 -46 46s-19.667 39 -23 61c-4 25.333 -2 50.5 6 75.5s20.167 47.833 36.5 68.5s35.833 37.834 58.5 51.501s47 22.167 73 25.5c34 4 60.5 -2.83301 79.5 -20.5
s30.167 -39.5 33.5 -65.5c1.33301 -12.667 0.666016 -26 -2.00098 -40s-7.16699 -27.833 -13.5 -41.5s-14.833 -26.834 -25.5 -39.501s-23.334 -23.667 -38.001 -33c-9.33301 -6 -19.666 -10.5 -30.999 -13.5s-22.5 -4 -33.5 -3s-21 4.66699 -30 11s-15.5 15.5 -19.5 27.5
c-2.66699 6 -0.666992 10.667 6 14s11.667 2.66602 15 -2.00098c2 -8.66699 6 -15.167 12 -19.5s12.833 -6.83301 20.5 -7.5s15.834 0.333008 24.501 3s16.667 6.33398 24 11.001c25.333 16.667 43.666 37 54.999 61s15.666 47 12.999 69
c-2.66699 20.667 -11.334 37.5 -26.001 50.5s-35 17.833 -61 14.5c-22 -2.66699 -43 -9.83398 -63 -21.501s-37.333 -26.334 -52 -44.001s-25.5 -37.667 -32.5 -60s-8.83301 -45.5 -5.5 -69.5c2.66699 -21.333 9.83398 -39.666 21.501 -54.999s25.5 -27 41.5 -35
s33.667 -12 53 -12s38 4.66699 56 14c24.667 12.667 46.5 32.834 65.5 60.501s36.5 60.5 52.5 98.5s31.167 80 45.5 126l45 142c15.667 48.667 32.667 97.667 51 147s39.166 96.666 62.499 141.999c-22.667 -1.33301 -46.5 -0.333008 -71.5 3l-75 10.5
c-25 3.66699 -49.167 6.33398 -72.5 8.00098s-44.666 0.333984 -63.999 -3.99902s-35.666 -13.166 -48.999 -26.499s-22.333 -33.333 -27 -60c-1.33301 -3.33301 -4.66602 -5.83301 -9.99902 -7.5s-10.666 -2.5 -15.999 -2.5s-10.166 0.833008 -14.499 2.5
s-6.5 4.16699 -6.5 7.5c0 38 7 66.5 21 85.5s32.667 31.5 56 37.5s49.666 7.33301 78.999 4s59.5 -8 90.5 -14l91 -17c29.667 -5.33301 56.167 -7 79.5 -5c23.333 50 49 91 77 123s60.333 50.333 97 55c17.333 2 30.833 -1.83301 40.5 -11.5s15.5 -21.167 17.5 -34.5
c0.666992 -6 0.166992 -12.833 -1.5 -20.5s-4.5 -15.167 -8.5 -22.5c-17.333 -30.667 -40.666 -54 -69.999 -70s-61 -27 -95 -33c-18.667 -42.667 -36.667 -89.667 -54 -141l-53 -156.5c-18 -53 -36.667 -104.833 -56 -155.5s-40 -97 -62 -139s-45.5 -77.833 -70.5 -107.5
s-52.167 -49.5 -81.5 -59.5zM804.999 883.998c-19.333 -4 -37.334 -19.833 -54.001 -47.5s-33.667 -60.834 -51 -99.501c29.333 6 55.666 15.833 78.999 29.5s42.333 33.834 57 60.501c6 10.667 8.33301 20.667 7 30c-1.33301 7.33301 -5.16602 14.333 -11.499 21
s-15.166 8.66699 -26.499 6z" />
    <glyph glyph-name="K" unicode="K" horiz-adv-x="818" 
d="M309 -45c-27.333 -9.33301 -52.8311 -12.3301 -76.498 -8.99707s-44.834 11 -63.501 23s-34 27.333 -46 46s-19.667 39 -23 61c-4 25.333 -2 50.5 6 75.5s20.167 47.833 36.5 68.5s35.833 37.834 58.5 51.501s47 22.167 73 25.5c34 4 60.5 -2.83301 79.5 -20.5
s30.167 -39.5 33.5 -65.5c1.33301 -12.667 0.666016 -26 -2.00098 -40s-7.16699 -27.833 -13.5 -41.5s-14.833 -26.834 -25.5 -39.501s-23.334 -23.667 -38.001 -33c-9.33301 -6 -19.666 -10.5 -30.999 -13.5s-22.5 -4 -33.5 -3s-21 4.66699 -30 11s-15.5 15.5 -19.5 27.5
c-2.66699 6 -0.666992 10.667 6 14s11.667 2.66602 15 -2.00098c2 -8.66699 6 -15.167 12 -19.5s12.833 -6.83301 20.5 -7.5s15.834 0.333008 24.501 3s16.667 6.33398 24 11.001c25.333 16.667 43.666 37 54.999 61s15.666 47 12.999 69
c-2.66699 20.667 -11.334 37.5 -26.001 50.5s-35 17.833 -61 14.5c-22 -2.66699 -43 -9.83398 -63 -21.501s-37.333 -26.334 -52 -44.001s-25.5 -37.667 -32.5 -60s-8.83301 -45.5 -5.5 -69.5c2.66699 -21.333 9.83398 -39.666 21.501 -54.999s25.5 -27 41.5 -35
s33.667 -12 53 -12s38 4.66699 56 14c24.667 12.667 46.5 32.834 65.5 60.501s36.5 60.5 52.5 98.5s31.167 80 45.5 126l45 142c15.667 48.667 32.667 97.667 51 147s39.166 96.666 62.499 141.999c-11.333 -1.33301 -22.833 -2.16602 -34.5 -2.49902
s-23.167 -0.833008 -34.5 -1.5l-54 -2c-18 -0.666992 -35.333 -2 -52 -4c-22 -2.66699 -42.833 -6.83398 -62.5 -12.501s-37.5 -13.667 -53.5 -24s-29.833 -23.666 -41.5 -39.999s-20.5 -36.5 -26.5 -60.5c-3.33301 -6.66699 -7.83301 -9.16699 -13.5 -7.5
s-8.16699 6.16699 -7.5 13.5c6.66699 27.333 16.5 50.166 29.5 68.499s28.333 33.166 46 44.499s37.167 20 58.5 26s44 10.667 68 14c17.333 2 35.166 3.33301 53.499 4s36.5 1.66699 54.5 3c13.333 0.666992 26.833 1 40.5 1s27.167 0.666992 40.5 2
c23.333 50 49 91 77 123s60.333 50.333 97 55c17.333 2 30.833 -1.83301 40.5 -11.5s15.5 -21.167 17.5 -34.5c0.666992 -6 0.166992 -12.833 -1.5 -20.5s-4.5 -15.167 -8.5 -22.5c-17.333 -30.667 -40.666 -54 -69.999 -70s-61 -27 -95 -33
c-20 -46 -39.5 -96.833 -58.5 -152.5l-57.5 -168.5c20.667 6.66699 45.5 18.167 74.5 34.5s57.5 35 85.5 56s52.833 43 74.5 66s35.167 44.833 40.5 65.5c6 -28.667 1 -55.667 -15 -81s-37.5 -48.5 -64.5 -69.5s-56.167 -39.833 -87.5 -56.5s-59 -30.667 -83 -42
c24 -14 43.333 -34.167 58 -60.5s27.334 -54.333 38.001 -84s20 -58.834 28 -87.501s17.333 -52.167 28 -70.5s23.5 -29.5 38.5 -33.5s34.833 3.66699 59.5 23c6.66699 3.33301 12.167 3.16602 16.5 -0.500977s4.83301 -9.5 1.5 -17.5
c-22.667 -19.333 -43.334 -30.333 -62.001 -33s-35.667 0.5 -51 9.5s-29.5 22.5 -42.5 40.5s-25.167 37.833 -36.5 59.5s-22.166 44.167 -32.499 67.5s-20.5 45 -30.5 65s-20.167 36.833 -30.5 50.5s-21.166 21.834 -32.499 24.501c-16 -44 -32.667 -86 -50 -126
s-35.5 -76.333 -54.5 -109s-39.5 -60.167 -61.5 -82.5s-45.333 -37.833 -70 -46.5zM801.002 884.003c-19.333 -4 -37.334 -19.833 -54.001 -47.5s-33.667 -60.834 -51 -99.501c29.333 6 55.666 15.833 78.999 29.5s42.333 33.834 57 60.501c6 10.667 8.33301 20.667 7 30
c-1.33301 7.33301 -5.16602 14.333 -11.499 21s-15.166 8.66699 -26.499 6z" />
    <glyph glyph-name="L" unicode="L" horiz-adv-x="993" 
d="M883 75c-32 -18.667 -66.6709 -30.334 -104.004 -35.001s-75.333 -5.16699 -114 -1.5s-76.834 9.83398 -114.501 18.501l-105.5 25l-12 3c-19.333 -33.333 -39.666 -61.166 -60.999 -83.499s-44.666 -37.833 -69.999 -46.5c-36 -12 -67.167 -15.833 -93.5 -11.5
s-47.166 13.5 -62.499 27.5s-25 30.667 -29 50s-2.33301 38 5 56s20.833 33.333 40.5 46s45.834 19 78.501 19c22 0 45.833 -2.16699 71.5 -6.5s52.5 -9.83301 80.5 -16.5c18 38 34.833 81 50.5 129l48 149.5c16.333 51.667 34 104 53 157s41.167 103.5 66.5 151.5
c-11.333 -1.33301 -22.833 -2.16602 -34.5 -2.49902s-23.167 -0.833008 -34.5 -1.5l-54 -2c-18 -0.666992 -35.333 -2 -52 -4c-22 -2.66699 -42.833 -6.83398 -62.5 -12.501s-37.5 -13.667 -53.5 -24s-29.833 -23.666 -41.5 -39.999s-20.5 -36.5 -26.5 -60.5
c-3.33301 -6.66699 -7.83301 -9.16699 -13.5 -7.5s-8.16699 6.16699 -7.5 13.5c6.66699 27.333 16.5 50.166 29.5 68.499s28.333 33.166 46 44.499s37.167 20 58.5 26s44 10.667 68 14c17.333 2 35.166 3.33301 53.499 4s36.5 1.66699 54.5 3
c13.333 0.666992 26.833 1 40.5 1s27.167 0.666992 40.5 2c23.333 50 49 91 77 123s60.333 50.333 97 55c17.333 2 30.833 -1.83301 40.5 -11.5s15.5 -21.167 17.5 -34.5c0.666992 -6 0.166992 -12.833 -1.5 -20.5s-4.5 -15.167 -8.5 -22.5
c-17.333 -30.667 -40.666 -54 -69.999 -70s-61 -27 -95 -33c-19.333 -44 -38 -92.5 -56 -145.5l-55 -161c-18.667 -54.333 -38 -107.5 -58 -159.5s-41.333 -99 -64 -141c0.666992 0 1.33398 -0.166992 2.00098 -0.5s1.66699 -0.5 3 -0.5l102 -24
c36.667 -8.66699 73.834 -15 111.501 -19s74.334 -4 110.001 0s68.167 14.667 97.5 32c7.33301 2 12.666 0.5 15.999 -4.5s1.66602 -10.167 -5.00098 -15.5zM288.996 -10c18.667 9.33301 35.5 23.167 50.5 41.5s29.167 40.166 42.5 65.499
c-27.333 6 -52.833 11.333 -76.5 16s-45.167 6.33398 -64.5 5.00098c-27.333 -2 -48.5 -8.16699 -63.5 -18.5s-24.667 -22.333 -29 -36s-4 -27.667 1 -42s13.667 -26 26 -35s28.333 -13.833 48 -14.5s41.5 5.33301 65.5 18zM793.996 884.001
c-19.333 -4 -37.334 -19.833 -54.001 -47.5s-33.667 -60.834 -51 -99.501c29.333 6 55.666 15.833 78.999 29.5s42.333 33.834 57 60.501c6 10.667 8.33301 20.667 7 30c-1.33301 7.33301 -5.16602 14.333 -11.499 21s-15.166 8.66699 -26.499 6z" />
    <glyph glyph-name="M" unicode="M" horiz-adv-x="1232" 
d="M332 -45c-27.333 -9.33301 -52.8281 -12.3379 -76.4951 -9.00488s-44.834 11 -63.501 23s-34 27.333 -46 46s-19.667 39 -23 61c-4 25.333 -2 50.5 6 75.5s20.167 47.833 36.5 68.5s35.833 37.834 58.5 51.501s47 22.167 73 25.5c34 4 60.5 -2.83301 79.5 -20.5
s30.167 -39.5 33.5 -65.5c1.33301 -12.667 0.666016 -26 -2.00098 -40s-7.16699 -27.833 -13.5 -41.5s-14.833 -26.834 -25.5 -39.501s-23.334 -23.667 -38.001 -33c-9.33301 -6 -19.666 -10.5 -30.999 -13.5s-22.5 -4 -33.5 -3s-21 4.66699 -30 11s-15.5 15.5 -19.5 27.5
c-2.66699 6 -0.666992 10.667 6 14s11.667 2.66602 15 -2.00098c2 -8.66699 6 -15.167 12 -19.5s12.833 -6.83301 20.5 -7.5s15.834 0.333008 24.501 3s16.667 6.33398 24 11.001c25.333 16.667 43.666 37 54.999 61s15.666 47 12.999 69
c-2.66699 20.667 -11.334 37.5 -26.001 50.5s-35 17.833 -61 14.5c-22 -2.66699 -43 -9.83398 -63 -21.501s-37.333 -26.334 -52 -44.001s-25.5 -37.667 -32.5 -60s-8.83301 -45.5 -5.5 -69.5c2.66699 -21.333 9.83398 -39.666 21.501 -54.999s25.5 -27 41.5 -35
s33.667 -12 53 -12s38 4.66699 56 14c24.667 12.667 46.5 32.834 65.5 60.501s36.5 60.5 52.5 98.5s31.167 80 45.5 126l45 142c15.667 48.667 32.667 97.667 51 147s39.166 96.666 62.499 141.999c-11.333 -1.33301 -22.833 -2.16602 -34.5 -2.49902
s-23.167 -0.833008 -34.5 -1.5l-54 -2c-18 -0.666992 -35.333 -2 -52 -4c-22 -2.66699 -42.833 -6.83398 -62.5 -12.501s-37.5 -13.667 -53.5 -24s-29.833 -23.666 -41.5 -39.999s-20.5 -36.5 -26.5 -60.5c-3.33301 -6.66699 -7.83301 -9.16699 -13.5 -7.5
s-8.16699 6.16699 -7.5 13.5c6.66699 27.333 16.5 50.166 29.5 68.499s28.333 33.166 46 44.499s37.167 20 58.5 26s44 10.667 68 14c17.333 2 35.166 3.33301 53.499 4s36.5 1.66699 54.5 3c13.333 0.666992 26.833 1 40.5 1s27.167 0.666992 40.5 2
c23.333 50 49 91 77 123s60.333 50.333 97 55c17.333 2 30.833 -1.83301 40.5 -11.5s15.5 -21.167 17.5 -34.5c0.666992 -6 0.166992 -12.833 -1.5 -20.5s-4.5 -15.167 -8.5 -22.5c-17.333 -30.667 -40.666 -54 -69.999 -70s-61 -27 -95 -33
c-10 -22.667 -19.667 -46.5 -29 -71.5l-28 -77.5c4.66699 6.66699 9.16699 12.667 13.5 18l13.5 16c32.667 36.667 62.5 58.834 89.5 66.501s48.167 3.83398 63.5 -11.499c9.33301 -9.33301 15 -22.666 17 -39.999s1.66699 -37.333 -1 -60c17.333 26 35 50.667 53 74
c32.667 36.667 62.5 58.5 89.5 65.5s48.167 2.83301 63.5 -12.5c13.333 -14 20.166 -33.667 20.499 -59s-3.16699 -54.166 -10.5 -86.499s-17.333 -66.5 -30 -102.5l-39 -107l-37.5 -101c-11.667 -32 -19.834 -59.333 -24.501 -82c-4 -18 -6.83301 -35 -8.5 -51
s-1.83398 -29.5 -0.500977 -40.5s4.83301 -19.167 10.5 -24.5s14.167 -6.33301 25.5 -3c17.333 4.66699 37.5 18 60.5 40s46.667 49 71 81s48.833 67.167 73.5 105.5s47 76.5 67 114.5c2 2 4.5 3.33301 7.5 4s5.83301 0.333984 8.5 -0.999023s4.66699 -3.16602 6 -5.49902
s1.33301 -5.5 0 -9.5c-9.33301 -18.667 -21.166 -40.334 -35.499 -65.001s-30 -50.334 -47 -77.001s-35.167 -53 -54.5 -79s-38.666 -49.167 -57.999 -69.5s-38 -36.833 -56 -49.5s-34.333 -18.667 -49 -18c-38 1.33301 -63.167 15.833 -75.5 43.5
s-14.5 64.834 -6.5 111.501c4.66699 26.667 11.334 54.834 20.001 84.501s18 59 28 88l30 83.5l27 72c5.33301 13.333 10.5 29.333 15.5 48s8.83301 37.167 11.5 55.5s3.66699 34.833 3 49.5s-4.16699 24.667 -10.5 30s-16 4.33301 -29 -3s-30.5 -23.666 -52.5 -48.999
c-13.333 -15.333 -26.5 -33 -39.5 -53l-39.5 -63c-8 -34 -18.5 -70.5 -31.5 -109.5l-40.5 -116l-41 -110.5c-13.333 -35.333 -24.333 -66.333 -33 -93l-65 -7c9.33301 33.333 20.666 70.166 33.999 110.499l43 124.5l40.5 112.5c13 37 24.167 72.5 33.5 106.5
c6 24.667 9.5 47.334 10.5 68.001s-1.5 35.667 -7.5 45s-15.833 11.5 -29.5 6.5s-32.5 -21.167 -56.5 -48.5l-35 -49c-12 -17.333 -24 -36 -36 -56l-60 -172.5c-20.667 -57.667 -42.667 -110.5 -66 -158.5s-48.5 -89.167 -75.5 -123.5s-56.5 -56.833 -88.5 -67.5z
M824.005 883.995c-19.333 -4 -37.334 -19.833 -54.001 -47.5s-33.667 -60.834 -51 -99.501c29.333 6 55.666 15.833 78.999 29.5s42.333 33.834 57 60.501c6 10.667 8.33301 20.667 7 30c-1.33301 7.33301 -5.16602 14.333 -11.499 21s-15.166 8.66699 -26.499 6z" />
    <glyph glyph-name="N" unicode="N" horiz-adv-x="1016" 
d="M328 -45c-27.333 -9.33301 -52.8291 -12.3369 -76.4961 -9.00391s-44.834 11 -63.501 23s-34 27.333 -46 46s-19.667 39 -23 61c-4 25.333 -2 50.5 6 75.5s20.167 47.833 36.5 68.5s35.833 37.834 58.5 51.501s47 22.167 73 25.5c34 4 60.5 -2.83301 79.5 -20.5
s30.167 -39.5 33.5 -65.5c1.33301 -12.667 0.666016 -26 -2.00098 -40s-7.16699 -27.833 -13.5 -41.5s-14.833 -26.834 -25.5 -39.501s-23.334 -23.667 -38.001 -33c-9.33301 -6 -19.666 -10.5 -30.999 -13.5s-22.5 -4 -33.5 -3s-21 4.66699 -30 11s-15.5 15.5 -19.5 27.5
c-2.66699 6 -0.666992 10.667 6 14s11.667 2.66602 15 -2.00098c2 -8.66699 6 -15.167 12 -19.5s12.833 -6.83301 20.5 -7.5s15.834 0.333008 24.501 3s16.667 6.33398 24 11.001c25.333 16.667 43.666 37 54.999 61s15.666 47 12.999 69
c-2.66699 20.667 -11.334 37.5 -26.001 50.5s-35 17.833 -61 14.5c-22 -2.66699 -43 -9.83398 -63 -21.501s-37.333 -26.334 -52 -44.001s-25.5 -37.667 -32.5 -60s-8.83301 -45.5 -5.5 -69.5c2.66699 -21.333 9.83398 -39.666 21.501 -54.999s25.5 -27 41.5 -35
s33.667 -12 53 -12s38 4.66699 56 14c24.667 12.667 46.5 32.834 65.5 60.501s36.5 60.5 52.5 98.5s31.167 80 45.5 126l45 142c15.667 48.667 32.667 97.667 51 147s39.166 96.666 62.499 141.999c-11.333 -1.33301 -22.833 -2.16602 -34.5 -2.49902
s-23.167 -0.833008 -34.5 -1.5l-54 -2c-18 -0.666992 -35.333 -2 -52 -4c-22 -2.66699 -42.833 -6.83398 -62.5 -12.501s-37.5 -13.667 -53.5 -24s-29.833 -23.666 -41.5 -39.999s-20.5 -36.5 -26.5 -60.5c-3.33301 -6.66699 -7.83301 -9.16699 -13.5 -7.5
s-8.16699 6.16699 -7.5 13.5c6.66699 27.333 16.5 50.166 29.5 68.499s28.333 33.166 46 44.499s37.167 20 58.5 26s44 10.667 68 14c17.333 2 35.166 3.33301 53.499 4s36.5 1.66699 54.5 3c13.333 0.666992 26.833 1 40.5 1s27.167 0.666992 40.5 2
c23.333 50 49 91 77 123s60.333 50.333 97 55c17.333 2 30.833 -1.83301 40.5 -11.5s15.5 -21.167 17.5 -34.5c0.666992 -6 0.166992 -12.833 -1.5 -20.5s-4.5 -15.167 -8.5 -22.5c-17.333 -30.667 -40.666 -54 -69.999 -70s-61 -27 -95 -33c-16 -38 -32 -79 -48 -123l28 37
c32.667 36.667 62.5 58.5 89.5 65.5s48.167 2.83301 63.5 -12.5c13.333 -14 20.166 -33.667 20.499 -59s-3.16699 -54.166 -10.5 -86.499s-17.333 -66.5 -30 -102.5l-39 -107l-37.5 -101c-11.667 -32 -19.834 -59.333 -24.501 -82c-4 -18 -6.83301 -35 -8.5 -51
s-1.83398 -29.5 -0.500977 -40.5s4.83301 -19.167 10.5 -24.5s14.167 -6.33301 25.5 -3c17.333 4.66699 37.5 18 60.5 40s46.667 49 71 81s48.833 67.167 73.5 105.5s47 76.5 67 114.5c2 2 4.5 3.33301 7.5 4s5.83301 0.333984 8.5 -0.999023s4.66699 -3.16602 6 -5.49902
s1.33301 -5.5 0 -9.5c-9.33301 -18.667 -21.166 -40.334 -35.499 -65.001s-30 -50.334 -47 -77.001s-35.167 -53 -54.5 -79s-38.666 -49.167 -57.999 -69.5s-38 -36.833 -56 -49.5s-34.333 -18.667 -49 -18c-38 1.33301 -63.167 15.833 -75.5 43.5
s-14.5 64.834 -6.5 111.501c4.66699 26.667 11.334 54.834 20.001 84.501s18 59 28 88l30 83.5l27 72c5.33301 13.333 10.5 29.333 15.5 48s8.83301 37.167 11.5 55.5s3.66699 34.833 3 49.5s-4.16699 24.667 -10.5 30s-16 4.33301 -29 -3s-30.5 -23.666 -52.5 -48.999
c-12 -14 -23.833 -29.833 -35.5 -47.5l-35.5 -55.5l-62 -180c-21.333 -60.667 -44 -116.667 -68 -168s-50 -95.166 -78 -131.499s-58.667 -60.166 -92 -71.499zM820.004 883.996c-19.333 -4 -37.334 -19.833 -54.001 -47.5s-33.667 -60.834 -51 -99.501
c29.333 6 55.666 15.833 78.999 29.5s42.333 33.834 57 60.501c6 10.667 8.33301 20.667 7 30c-1.33301 7.33301 -5.16602 14.333 -11.499 21s-15.166 8.66699 -26.499 6z" />
    <glyph glyph-name="O" unicode="O" horiz-adv-x="621" 
d="M462 258c-18 -37.333 -36.8369 -71.4971 -56.5039 -102.497s-40.167 -57.833 -61.5 -80.5s-43.166 -40.334 -65.499 -53.001s-44.5 -19 -66.5 -19c-26.667 0 -48 7.5 -64 22.5s-28.167 34.667 -36.5 59s-13.333 51.833 -15 82.5s-1 62.167 2 94.5
s7.66699 63.666 14 93.999s13.166 57.166 20.499 80.499c8 26.667 17 51.667 27 75c16.667 38 34.667 71.833 54 101.5s40.5 53.834 63.5 72.501s48.167 31.334 75.5 38.001s57 5.66699 89 -3c4.66699 -0.666992 7.83398 -3 9.50098 -7s2.16699 -8.16699 1.5 -12.5
s-2.16699 -8.33301 -4.5 -12s-5.5 -5.5 -9.5 -5.5c-28 6.66699 -54.667 2.66699 -80 -12s-48.833 -36.167 -70.5 -64.5s-41 -61.666 -58 -99.999s-31.333 -78 -43 -119s-20.167 -81.833 -25.5 -122.5s-7.33301 -77.334 -6 -110.001s6.5 -59.5 15.5 -80.5
s22.5 -32.833 40.5 -35.5c12.667 -2 27.667 1.16699 45 9.5s35.333 20.666 54 36.999s37.334 36.833 56.001 61.5s36 52.667 52 84c-25.333 12 -44.333 29.5 -57 52.5s-20.5 48.667 -23.5 77s-1.66699 57.833 4 88.5s14.5 59.334 26.5 86.001s26.5 50 43.5 70
s35.5 33.667 55.5 41c13.333 5.33301 25.333 6.16602 36 2.49902s19.667 -10.834 27 -21.501s12.5 -24.334 15.5 -41.001s3.5 -35 1.5 -55c-5.33301 -38 -15.166 -81.167 -29.499 -129.5s-33.166 -96.166 -56.499 -143.499zM438.996 264.003
c21.333 48 39.8301 95.501 55.4971 142.501s25.5 90.5 29.5 130.5c2.66699 29.333 -0.333008 51 -9 65s-23 17.333 -43 10c-14 -4.66699 -27.167 -13.834 -39.5 -27.501s-23.333 -30.167 -33 -49.5s-17.667 -40.166 -24 -62.499s-10.166 -44.5 -11.499 -66.5
s0.333984 -42.833 5.00098 -62.5s13 -35.834 25 -48.501c6.66699 -9.33301 13.334 -15.833 20.001 -19.5s15 -7.5 25 -11.5z" />
    <glyph glyph-name="P" unicode="P" horiz-adv-x="848" 
d="M555 315c30.667 -6 59.5029 -1.50293 86.5029 13.4971s50.5 35.5 70.5 61.5s35.667 55.5 47 88.5s16.666 64.5 15.999 94.5s-7.83398 56.333 -21.501 79s-35.834 37 -66.501 43l13 19c46.667 -7.33301 80.334 -24 101.001 -50s31 -55.667 31 -89
s-8.16699 -68.166 -24.5 -104.499s-37.833 -68.666 -64.5 -96.999s-56.834 -50.166 -90.501 -65.499s-67.5 -19 -101.5 -11zM328.003 -45.0029c-27.333 -9.33301 -52.8291 -12.3311 -76.4961 -8.99805s-44.834 11 -63.501 23s-34 27.333 -46 46s-19.667 39 -23 61
c-4 25.333 -2 50.5 6 75.5s20.167 47.833 36.5 68.5s35.833 37.834 58.5 51.501s47 22.167 73 25.5c34 4 60.5 -2.83301 79.5 -20.5s30.167 -39.5 33.5 -65.5c1.33301 -12.667 0.666016 -26 -2.00098 -40s-7.16699 -27.833 -13.5 -41.5s-14.833 -26.834 -25.5 -39.501
s-23.334 -23.667 -38.001 -33c-9.33301 -6 -19.666 -10.5 -30.999 -13.5s-22.5 -4 -33.5 -3s-21 4.66699 -30 11s-15.5 15.5 -19.5 27.5c-2.66699 6 -0.666992 10.667 6 14s11.667 2.66602 15 -2.00098c2 -8.66699 6 -15.167 12 -19.5s12.833 -6.83301 20.5 -7.5
s15.834 0.333008 24.501 3s16.667 6.33398 24 11.001c25.333 16.667 43.666 37 54.999 61s15.666 47 12.999 69c-2.66699 20.667 -11.334 37.5 -26.001 50.5s-35 17.833 -61 14.5c-22 -2.66699 -43 -9.83398 -63 -21.501s-37.333 -26.334 -52 -44.001
s-25.5 -37.667 -32.5 -60s-8.83301 -45.5 -5.5 -69.5c2.66699 -21.333 9.83398 -39.666 21.501 -54.999s25.5 -27 41.5 -35s33.667 -12 53 -12s38 4.66699 56 14c24.667 12.667 46.5 32.834 65.5 60.501s36.5 60.5 52.5 98.5s31.167 80 45.5 126l45 142
c15.667 48.667 32.667 97.667 51 147s39.166 96.666 62.499 141.999c-11.333 -1.33301 -22.833 -2.16602 -34.5 -2.49902s-23.167 -0.833008 -34.5 -1.5l-54 -2c-18 -0.666992 -35.333 -2 -52 -4c-22 -2.66699 -42.833 -6.83398 -62.5 -12.501s-37.5 -13.667 -53.5 -24
s-29.833 -23.666 -41.5 -39.999s-20.5 -36.5 -26.5 -60.5c-3.33301 -6.66699 -7.83301 -9.16699 -13.5 -7.5s-8.16699 6.16699 -7.5 13.5c6.66699 27.333 16.5 50.166 29.5 68.499s28.333 33.166 46 44.499s37.167 20 58.5 26s44 10.667 68 14
c17.333 2 35.166 3.33301 53.499 4s36.5 1.66699 54.5 3c13.333 0.666992 26.833 1 40.5 1s27.167 0.666992 40.5 2c23.333 50 49 91 77 123s60.333 50.333 97 55c17.333 2 30.833 -1.83301 40.5 -11.5s15.5 -21.167 17.5 -34.5c0.666992 -6 0.166992 -12.833 -1.5 -20.5
s-4.5 -15.167 -8.5 -22.5c-17.333 -30.667 -40.666 -54 -69.999 -70s-61 -27 -95 -33c-18.667 -42.667 -36.667 -89.667 -54 -141l-53 -156.5c-18 -53 -36.667 -104.833 -56 -155.5s-40 -97 -62 -139s-45.5 -77.833 -70.5 -107.5s-52.167 -49.5 -81.5 -59.5z
M820.007 883.999c-19.333 -4 -37.334 -19.833 -54.001 -47.5s-33.667 -60.834 -51 -99.501c29.333 6 55.666 15.833 78.999 29.5s42.333 33.834 57 60.501c6 10.667 8.33301 20.667 7 30c-1.33301 7.33301 -5.16602 14.333 -11.499 21s-15.166 8.66699 -26.499 6z" />
    <glyph glyph-name="Q" unicode="Q" horiz-adv-x="604" 
d="M578 63c-19.333 -21.333 -39.998 -36.8311 -61.998 -46.498s-43.833 -14 -65.5 -13s-42.5 7.16699 -62.5 18.5s-38 27.333 -54 48c-20.667 -21.333 -41.834 -37.833 -63.501 -49.5s-43.5 -17.5 -65.5 -17.5c-30 0 -53.833 10.5 -71.5 31.5s-30 48.5 -37 82.5
s-8.83301 72.833 -5.5 116.5s11.166 88.167 23.499 133.5s29.166 89.833 50.499 133.5s46.333 82.667 75 117s60.834 62 96.501 83s74.5 31.5 116.5 31.5c4.66699 0 8.33398 -1.66699 11.001 -5s4.5 -7 5.5 -11s0.833008 -7.5 -0.5 -10.5s-4 -4.5 -8 -4.5
c-32 1.33301 -62 -6.83398 -90 -24.501s-53.833 -41.667 -77.5 -72s-44.667 -65.166 -63 -104.499s-34 -80 -47 -122s-22.667 -83.333 -29 -124s-9.16602 -77.5 -8.49902 -110.5s5.16699 -60.333 13.5 -82s20.833 -34.167 37.5 -37.5c7.33301 -1.33301 15.833 -0.5 25.5 2.5
s19.834 7.66699 30.501 14s21.5 14 32.5 23s21.833 18.5 32.5 28.5c-4 6 -9.66699 16.667 -17 32s-14.5 32.5 -21.5 51.5s-13 38.667 -18 59s-7.5 39 -7.5 56s3.5 31 10.5 42s19.167 16.5 36.5 16.5c1.33301 -35.333 6.66602 -72.333 15.999 -111s22 -74 38 -106
c8.66699 11.333 17.167 23.166 25.5 35.499s16.166 25.5 23.499 39.5c-24 10.667 -41.5 28.5 -52.5 53.5s-16.833 53.333 -17.5 85s2.83301 65 10.5 100s18.167 67.667 31.5 98s29 56.666 47 78.999s36.333 36.833 55 43.5c12.667 4.66699 24.167 5.16699 34.5 1.5
s19 -10.167 26 -19.5s12 -21.333 15 -36s3.5 -31 1.5 -49c-1.33301 -11.333 -4 -25.333 -8 -42s-8.83301 -35 -14.5 -55s-12 -40.833 -19 -62.5s-14.333 -43 -22 -64s-15.334 -40.833 -23.001 -59.5s-15.167 -35 -22.5 -49c-12 -23.333 -24.5 -45.333 -37.5 -66
s-26.5 -39.667 -40.5 -57c12 -19.333 25.167 -36.333 39.5 -51s29.5 -24.167 45.5 -28.5s33 -2 51 7s36.333 27.167 55 54.5c4 2.66699 8 3.83398 12 3.50098s7.16699 -2 9.5 -5s3.5 -6.83301 3.5 -11.5s-2 -9.33398 -6 -14.001zM423.002 236.002
c10 21.333 20.9961 47.334 32.9961 78.001s23.333 61.834 34 93.501s19.834 62 27.501 91s12.5 52.167 14.5 69.5c2.66699 26 -0.166016 45.333 -8.49902 58s-22.166 15.667 -41.499 9c-14 -5.33301 -28 -17.833 -42 -37.5s-26.5 -42.834 -37.5 -69.501
s-20 -55.334 -27 -86.001s-10.333 -60 -10 -88s4.83301 -52.667 13.5 -74s23.334 -36 44.001 -44z" />
    <glyph glyph-name="R" unicode="R" horiz-adv-x="857" 
d="M787 20c6.66699 3.33301 12.1738 3.16504 16.5068 -0.501953s4.83301 -9.5 1.5 -17.5c-24.667 -21.333 -47 -32.666 -67 -33.999s-38.167 4 -54.5 16s-31.333 28.667 -45 50s-26.334 44.333 -38.001 69l-34 74c-11 24.667 -21.833 46 -32.5 64
c-14 -35.333 -28.667 -68.666 -44 -99.999s-31.5 -59.666 -48.5 -84.999s-35 -46.666 -54 -63.999s-38.833 -29.666 -59.5 -36.999c-27.333 -9.33301 -52.833 -12.333 -76.5 -9s-44.834 11 -63.501 23s-34 27.333 -46 46s-19.667 39 -23 61c-4 25.333 -2 50.5 6 75.5
s20.167 47.833 36.5 68.5s35.833 37.834 58.5 51.501s47 22.167 73 25.5c34 4 60.5 -2.83301 79.5 -20.5s30.167 -39.5 33.5 -65.5c1.33301 -12.667 0.666016 -26 -2.00098 -40s-7.16699 -27.833 -13.5 -41.5s-14.833 -26.834 -25.5 -39.501s-23.334 -23.667 -38.001 -33
c-9.33301 -6 -19.666 -10.5 -30.999 -13.5s-22.5 -4 -33.5 -3s-21 4.66699 -30 11s-15.5 15.5 -19.5 27.5c-2.66699 6 -0.666992 10.667 6 14s11.667 2.66602 15 -2.00098c2 -8.66699 6 -15.167 12 -19.5s12.833 -6.83301 20.5 -7.5s15.834 0.333008 24.501 3
s16.667 6.33398 24 11.001c25.333 16.667 43.666 37 54.999 61s15.666 47 12.999 69c-2.66699 20.667 -11.334 37.5 -26.001 50.5s-35 17.833 -61 14.5c-22 -2.66699 -43 -9.83398 -63 -21.501s-37.333 -26.334 -52 -44.001s-25.5 -37.667 -32.5 -60
s-8.83301 -45.5 -5.5 -69.5c2.66699 -21.333 9.83398 -39.666 21.501 -54.999s25.5 -27 41.5 -35s33.667 -12 53 -12s38 4.66699 56 14c24.667 12.667 46.5 32.834 65.5 60.501s36.5 60.5 52.5 98.5s31.167 80 45.5 126l45 142c15.667 48.667 32.667 97.667 51 147
s39.166 96.666 62.499 141.999c-11.333 -1.33301 -22.833 -2.16602 -34.5 -2.49902s-23.167 -0.833008 -34.5 -1.5l-54 -2c-18 -0.666992 -35.333 -2 -52 -4c-22 -2.66699 -42.833 -6.83398 -62.5 -12.501s-37.5 -13.667 -53.5 -24s-29.833 -23.666 -41.5 -39.999
s-20.5 -36.5 -26.5 -60.5c-3.33301 -6.66699 -7.83301 -9.16699 -13.5 -7.5s-8.16699 6.16699 -7.5 13.5c6.66699 27.333 16.5 50.166 29.5 68.499s28.333 33.166 46 44.499s37.167 20 58.5 26s44 10.667 68 14c17.333 2 35.166 3.33301 53.499 4s36.5 1.66699 54.5 3
c13.333 0.666992 26.833 1 40.5 1s27.167 0.666992 40.5 2c23.333 50 49 91 77 123s60.333 50.333 97 55c17.333 2 30.833 -1.83301 40.5 -11.5s15.5 -21.167 17.5 -34.5c0.666992 -6 0.166992 -12.833 -1.5 -20.5s-4.5 -15.167 -8.5 -22.5
c-17.333 -30.667 -40.833 -54.167 -70.5 -70.5s-61.5 -27.5 -95.5 -33.5c44 -8.66699 76.333 -25.334 97 -50.001s32.334 -53 35.001 -85s-2.5 -65.333 -15.5 -100s-31.333 -66.167 -55 -94.5s-51.5 -51.333 -83.5 -69s-65.667 -25.167 -101 -22.5
c14.667 -18 27 -39.833 37 -65.5s19.167 -51.5 27.5 -77.5l24 -74c7.66699 -23.333 16.667 -42 27 -56s22.666 -21.833 36.999 -23.5s32.166 6.5 53.499 24.5zM696.007 692.999c-23.333 -58 -45.6699 -119.5 -67.0029 -184.5s-43.666 -129.5 -66.999 -193.5
c30.667 0 59.334 8.33301 86.001 25s49.5 37.667 68.5 63s33.833 53.333 44.5 84s15.834 60 15.501 88s-6.83301 52.833 -19.5 74.5s-33 36.167 -61 43.5zM820.003 883.999c-19.333 -4 -37.334 -19.833 -54.001 -47.5s-33.667 -60.834 -51 -99.501
c29.333 6 55.666 15.833 78.999 29.5s42.333 33.834 57 60.501c6 10.667 8.33301 20.667 7 30c-1.33301 7.33301 -5.16602 14.333 -11.499 21s-15.166 8.66699 -26.499 6z" />
    <glyph glyph-name="S" unicode="S" horiz-adv-x="551" 
d="M-76 563c27.333 12 57.5029 15.6748 90.5029 11.0078s67.333 -12 103 -22s71.834 -19.5 108.501 -28.5s72.667 -11.167 108 -6.5c-0.666992 9.33301 -1.16699 18 -1.5 26s-0.166016 16 0.500977 24c0 24 2 48.667 6 74s10.167 49 18.5 71s19 40.833 32 56.5
s28.833 26.167 47.5 31.5c28.667 8 51.5 4.5 68.5 -10.5s27.333 -35.333 31 -61s0.333984 -54 -9.99902 -85s-27.833 -58.833 -52.5 -83.5c-11.333 -11.333 -23 -20.833 -35 -28.5s-24 -14.167 -36 -19.5c2 -42 4.66699 -85.833 8 -131.5s3.5 -89.834 0.5 -132.501
s-10.833 -82.5 -23.5 -119.5s-34.334 -67.5 -65.001 -91.5c-26 -20.667 -51.833 -33 -77.5 -37s-48.834 -1.5 -69.501 7.5s-37.334 23.667 -50.001 44s-18.834 44.666 -18.501 72.999s8.66602 59.833 24.999 94.5s43.5 71 81.5 109c2.66699 3.33301 6 5.33301 10 6
s7.66699 0.166992 11 -1.5s5.5 -4.33398 6.5 -8.00098s-0.166992 -8.5 -3.5 -14.5c-30.667 -28.667 -53.5 -57 -68.5 -85s-24 -54.167 -27 -78.5s-1.33301 -45.5 5 -63.5s15.833 -31.833 28.5 -41.5s27.334 -13.834 44.001 -12.501s33.334 9.66602 50.001 24.999
c26.667 24 45.5 53.5 56.5 88.5s17.5 72.5 19.5 112.5s1.33301 80.833 -2 122.5l-9 116.5c-25.333 -3.33301 -50.5 -3.33301 -75.5 0s-49.667 8.16602 -74 14.499s-48.333 13 -72 20s-46.334 12.667 -68.001 17s-42.334 6.66602 -62.001 6.99902
s-37.834 -3.16699 -54.501 -10.5c-8.66699 -2 -13.667 -0.333008 -15 5s2 10.666 10 15.999zM403.003 616.008c-1.33301 -12 -1.99707 -24.668 -1.99707 -38.001s0.333008 -27 1 -41c18.667 10 36.667 24 54 42c22.667 25.333 37.667 50.833 45 76.5s9.66602 48 6.99902 67
s-8.83398 33.333 -18.501 43s-20.334 11.667 -32.001 6s-22.667 -20.667 -33 -45s-17.5 -61.166 -21.5 -110.499z" />
    <glyph glyph-name="T" unicode="T" horiz-adv-x="711" 
d="M274 679c-2.66699 -3.33301 -5.66602 -5.00098 -8.99902 -5.00098s-6.16602 0.666992 -8.49902 2s-4 3.33301 -5 6s-0.5 5.33398 1.5 8.00098c28 36.667 59.167 64.167 93.5 82.5s70.333 30.833 108 37.5s76.5 9 116.5 7s80 -5 120 -9s79.333 -7.33301 118 -10
s75.5 -1.83398 110.5 2.49902s67.5 14 97.5 29s56.333 38.5 79 70.5c6 4.66699 11.5 4.16699 16.5 -1.5s5.16699 -11.834 0.5 -18.501c-24.667 -32 -52.167 -56.167 -82.5 -72.5s-62.5 -27.166 -96.5 -32.499s-69.333 -6.83301 -106 -4.5s-74 5.5 -112 9.5
c-20 -49.333 -40 -102.5 -60 -159.5l-60.5 -172.5c-20.333 -58 -41.166 -114.5 -62.499 -169.5s-43.666 -104.833 -66.999 -149.5s-47.666 -82.5 -72.999 -113.5s-52.333 -51.167 -81 -60.5c-27.333 -9.33301 -52.833 -12.333 -76.5 -9s-44.834 11 -63.501 23
s-34 27.333 -46 46s-19.667 39 -23 61c-4 25.333 -2 50.5 6 75.5s20.167 47.833 36.5 68.5s35.833 37.834 58.5 51.501s47 22.167 73 25.5c34 4 60.5 -2.83301 79.5 -20.5s30.167 -39.5 33.5 -65.5c1.33301 -12.667 0.666016 -26 -2.00098 -40s-7.16699 -27.833 -13.5 -41.5
s-14.833 -26.834 -25.5 -39.501s-23.334 -23.667 -38.001 -33c-9.33301 -6 -19.666 -10.5 -30.999 -13.5s-22.5 -4 -33.5 -3s-21 4.66699 -30 11s-15.5 15.5 -19.5 27.5c-2.66699 6 -0.666992 10.667 6 14s11.667 2.66602 15 -2.00098c2 -8.66699 6 -15.167 12 -19.5
s12.833 -6.83301 20.5 -7.5s15.834 0.333008 24.501 3s16.667 6.33398 24 11.001c25.333 16.667 43.666 37 54.999 61s15.666 47 12.999 69c-2.66699 20.667 -11.334 37.5 -26.001 50.5s-35 17.833 -61 14.5c-22 -2.66699 -43 -9.83398 -63 -21.501
s-37.333 -26.334 -52 -44.001s-25.5 -37.667 -32.5 -60s-8.83301 -45.5 -5.5 -69.5c2.66699 -21.333 9.83398 -39.666 21.501 -54.999s25.667 -27.166 42 -35.499s34 -12.5 53 -12.5s37.5 5 55.5 15c32.667 18 62 52.167 88 102.5s52.333 111.5 79 183.5l85 239.5
c30 87.667 65 177.834 105 270.501c-35.333 3.33301 -70.5 5.5 -105.5 6.5s-68.833 -1.83301 -101.5 -8.5s-63.834 -18.167 -93.501 -34.5s-56.834 -39.833 -81.501 -70.5z" />
    <glyph glyph-name="U" unicode="U" horiz-adv-x="766" 
d="M480 155c-4 -18 -7.66992 -35.667 -11.0029 -53s-5 -32.166 -5 -44.499s2.16699 -21.833 6.5 -28.5s12.166 -8.33398 23.499 -5.00098c17.333 4.66699 37.5 18 60.5 40s46.667 49 71 81s48.833 67.167 73.5 105.5s47 76.5 67 114.5c2 2 4.5 3.33301 7.5 4
s5.83301 0.333984 8.5 -0.999023s4.66699 -3.16602 6 -5.49902s1.33301 -5.5 0 -9.5c-9.33301 -18.667 -21.166 -40.334 -35.499 -65.001s-30 -50.334 -47 -77.001s-35.167 -53 -54.5 -79s-38.666 -49.167 -57.999 -69.5s-38 -36.833 -56 -49.5s-34.333 -18.667 -49 -18
c-38 1.33301 -63.167 15.833 -75.5 43.5s-14.5 64.834 -6.5 111.501c5.33301 34 12.833 68.5 22.5 103.5s20.334 70.167 32.001 105.5l36 105l35.5 102c-9.33301 -20 -23 -46.167 -41 -78.5s-38.333 -67 -61 -104l-72 -112c-25.333 -37.667 -50 -71.834 -74 -102.501
s-46.667 -56 -68 -76s-39.333 -30.667 -54 -32c-18.667 -2 -32.5 3.83301 -41.5 17.5s-14.5 32.834 -16.5 57.501s-0.833008 53.334 3.5 86.001s10.5 67.167 18.5 103.5s17.5 73.333 28.5 111s22.333 73.5 34 107.5s23.167 65.167 34.5 93.5s21.333 51.166 30 68.499
c-11.333 -1.33301 -22.833 -2.16602 -34.5 -2.49902s-23.167 -0.833008 -34.5 -1.5l-54 -2c-18 -0.666992 -35.333 -2 -52 -4c-22 -2.66699 -42.833 -6.83398 -62.5 -12.501s-37.5 -13.667 -53.5 -24s-29.833 -23.666 -41.5 -39.999s-20.5 -36.5 -26.5 -60.5
c-3.33301 -6.66699 -7.83301 -9.16699 -13.5 -7.5s-8.16699 6.16699 -7.5 13.5c6.66699 27.333 16.5 50.166 29.5 68.499s28.333 33.166 46 44.499s37.167 20 58.5 26s44 10.667 68 14c17.333 2 35.166 3.33301 53.499 4s36.5 1.66699 54.5 3
c13.333 0.666992 26.833 1 40.5 1s27.167 0.666992 40.5 2c23.333 50 49 91 77 123s60.333 50.333 97 55c17.333 2 30.833 -1.83301 40.5 -11.5s15.5 -21.167 17.5 -34.5c0.666992 -6 0.166992 -12.833 -1.5 -20.5s-4.5 -15.167 -8.5 -22.5
c-17.333 -30.667 -39.833 -54 -67.5 -70s-58.5 -27 -92.5 -33l-66 -190c-20.667 -62 -38.334 -119.167 -53.001 -171.5s-25.334 -98 -32.001 -137s-8 -67.5 -4 -85.5c2.66699 -12.667 9.83398 -16.167 21.501 -10.5s26 18 43 37s36.5 43.5 58.5 73.5s44.833 63.333 68.5 100
l72 115.5l69.5 120.5c22 40 42.167 78.5 60.5 115.5s33.833 70.167 46.5 99.5l83 4l-52 -133c-19.333 -49.333 -38.666 -101.5 -57.999 -156.5s-38.166 -111.5 -56.499 -169.5s-34.166 -115 -47.499 -171zM440.997 884c-19.333 -4 -37.3359 -19.833 -54.0029 -47.5
s-33.667 -60.834 -51 -99.501c29.333 6 54.833 15.833 76.5 29.5s39.834 33.834 54.501 60.501c6 10.667 8.33301 20.667 7 30c-1.33301 7.33301 -5.16602 14.333 -11.499 21s-15.166 8.66699 -26.499 6h5z" />
    <glyph glyph-name="V" unicode="V" horiz-adv-x="533" 
d="M593 806l-129.495 -351.999c-37 -100.667 -71 -184.667 -102 -252s-60.333 -118.333 -88 -153s-56.5 -53.334 -86.5 -56.001c-19.333 -2 -34.833 4.33301 -46.5 19s-20.5 35 -26.5 61s-9.5 56.333 -10.5 91s-0.333008 71.334 2 110.001s6.16602 78 11.499 118
s11.166 78.167 17.499 114.5s13 69.5 20 99.5s13.5 54.667 19.5 74c-11.333 -2.66699 -22.666 -5.16699 -33.999 -7.5s-22.666 -4.5 -33.999 -6.5c-19.333 -3.33301 -38 -6.83301 -56 -10.5s-35.333 -8.16699 -52 -13.5c-21.333 -6 -41.666 -13.333 -60.999 -22
s-36.333 -19.5 -51 -32.5s-26.834 -28.667 -36.501 -47s-15.5 -39.833 -17.5 -64.5c-2 -7.33301 -6 -10.666 -12 -9.99902s-9.33301 4.66699 -10 12c2.66699 28.667 9.16699 53.167 19.5 73.5s23.5 37.666 39.5 51.999s34.5 26.333 55.5 36s43.5 17.834 67.5 24.501
c17.333 4.66699 35.166 8.66699 53.499 12s37.166 7 56.499 11c13.333 2.66699 26.833 5.16699 40.5 7.5s27.167 5.16602 40.5 8.49902c16.667 54 36.667 99.5 60 136.5s53 60.5 89 70.5c17.333 4.66699 32 2.83398 44 -5.49902s19.667 -18.833 23 -31.5
c3.33301 -14.667 1.66602 -29.667 -5.00098 -45c-12.667 -34 -31.667 -61.167 -57 -81.5s-55 -35.833 -89 -46.5l-38.5 -209.5c-12.333 -70.333 -22 -135.666 -29 -195.999s-10.667 -112.333 -11 -156s5.16699 -73.5 16.5 -89.5c8 -12 18.167 -14 30.5 -6
s26.166 23.167 41.499 45.5s31.666 50.666 48.999 84.999s35 72.5 53 114.5l54.5 133l53 139.5l48 135l40.5 120.5c2 4.66699 5.33301 8 10 10s9.16699 2.66699 13.5 2s8 -2.83398 11 -6.50098s3.83301 -8.83398 2.5 -15.501zM339.005 888.001
c-19.333 -7.33301 -35.333 -26.166 -48 -56.499s-24.667 -66.5 -36 -108.5c28 11.333 52.167 25.5 72.5 42.5s35.833 40.167 46.5 69.5c4 12 4.66699 22.333 2 31c-2 7.33301 -6.33301 13.666 -13 18.999s-14.667 6.33301 -24 3z" />
    <glyph glyph-name="W" unicode="W" horiz-adv-x="820" 
d="M525 487c-7.33301 -46.667 -13.667 -91.1689 -19 -133.502s-9 -80.833 -11 -115.5s-1.83301 -64.334 0.5 -89.001s7.16602 -42.334 14.499 -53.001c10.667 -16 24.834 -14.833 42.501 3.5s37.167 47.5 58.5 87.5s44 88.333 68 145l71.5 177.5l69 184l61.5 164.5
c2 4.66699 5.16699 8.33398 9.5 11.001s8.83301 3.83398 13.5 3.50098s8.33398 -2 11.001 -5s3.33398 -7.83301 2.00098 -14.5l-129.5 -352c-37 -100.667 -71 -184.667 -102 -252s-60.333 -118.333 -88 -153s-56.5 -53.334 -86.5 -56.001c-18 -2 -32.833 3.66699 -44.5 17
s-20.667 31.666 -27 54.999s-10.333 51 -12 83s-1.5 66 0.5 102c-40.667 -99.333 -77.5 -174 -110.5 -224s-67.833 -76.667 -104.5 -80c-19.333 -2 -34.833 4.33301 -46.5 19s-20.5 35 -26.5 61s-9.5 56.333 -10.5 91s-0.333008 71.334 2 110.001s6.16602 78 11.499 118
s11.166 78.167 17.499 114.5s13 69.5 20 99.5s13.5 54.667 19.5 74c-11.333 -2.66699 -22.666 -5.16699 -33.999 -7.5s-22.666 -4.5 -33.999 -6.5c-19.333 -3.33301 -38 -6.83301 -56 -10.5s-35.333 -8.16699 -52 -13.5c-21.333 -6 -41.666 -13.333 -60.999 -22
s-36.333 -19.5 -51 -32.5s-26.834 -28.667 -36.501 -47s-15.5 -39.833 -17.5 -64.5c-2 -7.33301 -6 -10.666 -12 -9.99902s-9.33301 4.66699 -10 12c2.66699 28.667 9.16699 53.167 19.5 73.5s23.5 37.666 39.5 51.999s34.5 26.333 55.5 36s43.5 17.834 67.5 24.501
c17.333 4.66699 35.166 8.66699 53.499 12s37.166 7 56.499 11c13.333 2.66699 26.833 5.16699 40.5 7.5s27.167 5.16602 40.5 8.49902c16.667 54 36.667 99.5 60 136.5s53 60.5 89 70.5c17.333 4.66699 32 2.83398 44 -5.49902s19.667 -18.833 23 -31.5
c3.33301 -14.667 1.66602 -29.667 -5.00098 -45c-12.667 -34 -31.667 -61.167 -57 -81.5s-55 -35.833 -89 -46.5l-38.5 -209.5c-12.333 -70.333 -22 -135.666 -29 -195.999s-10.667 -112.333 -11 -156s5.16699 -73.5 16.5 -89.5c10 -14.667 23.167 -14.5 39.5 0.5
s34.5 40.333 54.5 76s41.333 78.834 64 129.501s45.334 104.667 68.001 162l8 57zM364.999 887.998c-19.333 -7.33301 -35.333 -26.166 -48 -56.499s-24.667 -66.5 -36 -108.5c28 11.333 52.167 25.5 72.5 42.5s35.833 40.167 46.5 69.5c4 12 4.66699 22.333 2 31
c-2 7.33301 -6.33301 13.666 -13 18.999s-14.667 6.33301 -24 3z" />
    <glyph glyph-name="X" unicode="X" horiz-adv-x="810" 
d="M829 348c-54.667 -82.667 -105.331 -147.501 -151.998 -194.501s-89.334 -80.167 -128.001 -99.5s-73.5 -26.333 -104.5 -21s-58 19.166 -81 41.499s-42 51.5 -57 87.5s-26.167 75 -33.5 117c-20 -30 -41.667 -58.5 -65 -85.5s-48 -52.167 -74 -75.5
c-51.333 -44.667 -102.5 -77.5 -153.5 -98.5s-99.5 -29.333 -145.5 -25s-88.667 22 -128 53s-73 76.5 -101 136.5c-1.33301 3.33301 -1.16602 6.16602 0.500977 8.49902s4 3.83301 7 4.5s6 0.5 9 -0.5s5.16699 -2.83301 6.5 -5.5c24.667 -53.333 52.167 -93.333 82.5 -120
s62 -43 95 -49s66.667 -3.16699 101 8.5s68.166 29 101.499 52s65.333 50.5 96 82.5s59 65 85 99c17.333 23.333 34.333 49 51 77s31.167 56.833 43.5 86.5s21.833 59.334 28.5 89.001s8.66699 57.5 6 83.5c-2 16.667 -7.66699 32.334 -17 47.001
s-21.166 26.834 -35.499 36.501s-31.166 16.167 -50.499 19.5s-40.333 2 -63 -4c-24 -6.66699 -47.167 -16.834 -69.5 -30.501s-43.5 -33.5 -63.5 -59.5c-2.66699 -3.33301 -5.83398 -5.33301 -9.50098 -6s-6.66699 -0.333984 -9 0.999023s-3.83301 3.33301 -4.5 6
s0.333008 5.33398 3 8.00098c22 28 45 50 69 66s49 27.667 75 35c32.667 10 63.667 13.667 93 11s55 -10.5 77 -23.5s39.5 -30.5 52.5 -52.5s20.167 -47.333 21.5 -76c12.667 16.667 29.334 34.667 50.001 54s43.334 36.833 68.001 52.5s50.667 28.334 78 38.001
s54 13.5 80 11.5c24 -1.33301 44.833 -6.66602 62.5 -15.999s30.5 -21.166 38.5 -35.499s10.833 -30.333 8.5 -48s-11.5 -34.834 -27.5 -51.501c-2 -2.66699 -4.5 -4 -7.5 -4s-5.66699 0.833008 -8 2.5s-3.83301 3.5 -4.5 5.5s0.333008 4 3 6c16 18 23.833 36.5 23.5 55.5
s-7.5 34.167 -21.5 45.5s-33.833 17.166 -59.5 17.499s-55.167 -8.83398 -88.5 -27.501c-46.667 -26 -86.667 -56 -120 -90s-59.833 -70.667 -79.5 -110s-32.334 -80.666 -38.001 -123.999s-3.83398 -87.666 5.49902 -132.999c12 -58 30.333 -101 55 -129
s56.167 -38 94.5 -30s83.166 36 134.499 84s109.666 119 174.999 213c6 5.33301 11.833 5.66602 17.5 0.999023s6.16699 -10.667 1.5 -18z" />
    <glyph glyph-name="Y" unicode="Y" horiz-adv-x="763" 
d="M551 352c13.333 40 28.6719 80.5 46.0049 121.5l49 119.5c-8.66699 -14.667 -20.667 -33.667 -36 -57s-32.833 -48.333 -52.5 -75l-62.5 -81c-22 -27.333 -43.5 -52.166 -64.5 -74.499s-40.667 -40.666 -59 -54.999s-33.833 -22.166 -46.5 -23.499
c-21.333 -2 -35.666 6 -42.999 24s-9.66602 41.333 -6.99902 70s9 61.167 19 97.5s21.5 72 34.5 107s26.333 67.5 40 97.5s25.5 53.667 35.5 71l-60 -3c-16 0 -31.833 -0.333008 -47.5 -1s-30.5 -1.66699 -44.5 -3c-19.333 -2 -37.5 -5 -54.5 -9s-32.5 -9.83301 -46.5 -17.5
s-26 -17.334 -36 -29.001s-17.667 -26.167 -23 -43.5c-2.66699 -4.66699 -6.5 -6.5 -11.5 -5.5s-7.16699 4.16699 -6.5 9.5c5.33301 20 13.666 36.5 24.999 49.5s24.666 23.667 39.999 32s32.333 14.833 51 19.5s38.334 8 59.001 10c15.333 1.33301 31 2.33301 47 3l47 2
l70 2c20.667 36 43 65.667 67 89s52 36.666 84 39.999c15.333 1.33301 27.166 -1.5 35.499 -8.5s13.166 -15.167 14.499 -24.5c0.666992 -4.66699 0.333984 -9.66699 -0.999023 -15s-3.66602 -10.666 -6.99902 -15.999c-15.333 -22 -34.833 -38.833 -58.5 -50.5
s-50.5 -19.834 -80.5 -24.501l-57 -137.5c-18 -45 -33.333 -86.5 -46 -124.5s-22 -71 -28 -99s-7.33301 -48.667 -4 -62c3.33301 -12 13.166 -12.667 29.499 -2s36.166 28.834 59.499 54.501s49 56.667 77 93l83 113c27.333 39 52.666 77.167 75.999 114.5
s42.333 70.333 57 99l72 3l-45 -99.5l-49 -116.5c-17.333 -43.333 -34.5 -90 -51.5 -140l-51.5 -151c-17.333 -50.667 -35.333 -100.167 -54 -148.5s-38.667 -92.333 -60 -132s-44 -73.334 -68 -101.001s-50.333 -46.5 -79 -56.5c-27.333 -9.33301 -52.833 -12.333 -76.5 -9
s-44.834 11 -63.501 23s-34 27.333 -46 46s-19.667 39 -23 61c-4 25.333 -2 50.5 6 75.5s20.167 47.833 36.5 68.5s35.833 37.834 58.5 51.501s47 22.167 73 25.5c34 4 60.5 -2.83301 79.5 -20.5s30.167 -39.5 33.5 -65.5c1.33301 -12.667 0.666016 -26 -2.00098 -40
s-7.16699 -27.833 -13.5 -41.5s-14.833 -26.834 -25.5 -39.501s-23.334 -23.667 -38.001 -33c-9.33301 -6 -19.666 -10.5 -30.999 -13.5s-22.5 -4 -33.5 -3s-21 4.66699 -30 11s-15.5 15.5 -19.5 27.5c-2.66699 6 -0.666992 10.667 6 14s11.667 2.66602 15 -2.00098
c2 -8.66699 6 -15.167 12 -19.5s12.833 -6.83301 20.5 -7.5s15.834 0.333008 24.501 3s16.667 6.33398 24 11.001c25.333 16.667 43.666 37 54.999 61s15.666 47 12.999 69c-2.66699 20.667 -11.334 37.5 -26.001 50.5s-35 17.833 -61 14.5
c-22 -2.66699 -43 -9.83398 -63 -21.501s-37.333 -26.334 -52 -44.001s-25.5 -37.667 -32.5 -60s-8.83301 -45.5 -5.5 -69.5c2.66699 -21.333 9.83398 -39.666 21.501 -54.999s25.5 -27 41.5 -35s33.667 -12 53 -12s38 4.66699 56 14c28 14 52.667 37.833 74 71.5
s41 73.5 59 119.5s35.167 96.5 51.5 151.5zM567.006 823c-16.667 -3.33301 -32.332 -14.833 -46.999 -34.5s-29.334 -43.5 -44.001 -71.5c25.333 4 47.333 11 66 21s34.334 24.667 47.001 44c4.66699 8 6.66699 15.333 6 22c-0.666992 5.33301 -3.83398 10.333 -9.50098 15
s-13.5 6 -23.5 4h5z" />
    <glyph glyph-name="Z" unicode="Z" horiz-adv-x="496" 
d="M235 624c10 -14 16.0049 -30.3311 18.0049 -48.998c1.33301 -12.667 1 -26.667 -1 -42s-6.16699 -30.333 -12.5 -45s-14.833 -28 -25.5 -40s-24 -21 -40 -27c-26.667 -10.667 -48.334 -10.334 -65.001 0.999023s-28.334 28.5 -35.001 51.5s-7.83398 49.333 -3.50098 79
s14.666 57.667 30.999 84s38.833 48.833 67.5 67.5s64 28.334 106 29.001c38 0.666992 69.5 -4.16602 94.5 -14.499s44.667 -24.166 59 -41.499s23.166 -37.333 26.499 -60s2.5 -46.334 -2.5 -71.001s-14.333 -49.334 -28 -74.001s-30.5 -47.334 -50.5 -68.001
c-15.333 -16.667 -32.666 -31.5 -51.999 -44.5s-40.333 -23.167 -63 -30.5c12.667 -3.33301 23.834 -8.16602 33.501 -14.499s18.167 -14.166 25.5 -23.499l93.5 39.5l84.5 34.5c4.66699 1.33301 8.66699 1.16602 12 -0.500977s5.66602 -4.16699 6.99902 -7.5
s1.66602 -6.66602 0.999023 -9.99902s-2.66699 -6 -6 -8l-84.5 -34.5l-92.5 -38.5c9.33301 -20 14.833 -42.5 16.5 -67.5s-0.333008 -50.167 -6 -75.5s-14.5 -49.333 -26.5 -72s-26.667 -41.334 -44 -56.001c-26 -22 -51 -34.667 -75 -38s-45.167 0 -63.5 10
s-33 24.667 -44 44s-16.333 41 -16 65s7 48.333 20 73s34.167 47 63.5 67c13.333 9.33301 29.833 18.166 49.5 26.499l61.5 26.5c-6.66699 13.333 -15.334 24.333 -26.001 33s-24 13.667 -40 15c-4.66699 -0.666992 -9 -0.166992 -13 1.5s-7 8.5 -9 20.5
c34 6 65 19.333 93 40s51.5 44.834 70.5 72.501s32.833 56.667 41.5 87s10.5 58.166 5.5 83.499s-17.167 46.333 -36.5 63s-47.666 25 -84.999 25c-29.333 0 -54.666 -7.33301 -75.999 -22s-38.833 -32.834 -52.5 -54.501s-23.5 -44.834 -29.5 -69.501s-8 -47 -6 -67
s7.66699 -35.5 17 -46.5s22.333 -13.833 39 -8.5c14 4.66699 25.667 12 35 22s16.666 21.167 21.999 33.5s8.83301 25 10.5 38s1.83398 25.167 0.500977 36.5c-2 16 -7.66699 29.667 -17 41c-3.33301 6.66699 -1.83301 11.834 4.5 15.501s12.166 2.16699 17.499 -4.5z
M169.005 180.002c-21.333 -16 -36.999 -33.334 -46.999 -52.001s-15.5 -36.667 -16.5 -54s1.5 -33.333 7.5 -48s14.333 -26 25 -34s22.667 -11.833 36 -11.5s26.666 7.16602 39.999 20.499c14.667 14 27 31.333 37 52s17.667 42.334 23 65.001s8.5 44.834 9.5 66.501
s-0.5 40.5 -4.5 56.5c-22 -10 -42.5 -20.167 -61.5 -30.5s-35.167 -20.5 -48.5 -30.5z" />
    <glyph glyph-name="bracketleft" unicode="[" horiz-adv-x="370" 
d="M388 557c-44.667 -87.333 -87.499 -175.166 -128.499 -263.499l-125.5 -266.5c8.66699 -2 18 -3.83301 28 -5.5s20 -1.16699 30 1.5c3.33301 0.666992 6.16602 0.166992 8.49902 -1.5s4 -3.66699 5 -6s0.833008 -4.83301 -0.5 -7.5s-4 -4.33398 -8 -5.00098
c-12 -3.33301 -23.333 -4.5 -34 -3.5s-21 2.33301 -31 4s-19.833 3 -29.5 4s-19.5 -0.5 -29.5 -4.5c-4.66699 -2.66699 -9.33398 -1.66699 -14.001 3s-5.66699 8.66699 -3 12l43.5 89.5l43.5 89.5l90 198.5l95 194.5c2.66699 4.66699 5.66699 7.16699 9 7.5
s6.33301 -0.5 9 -2.5c14.667 -9.33301 30.167 -14.333 46.5 -15s32.166 1.33301 47.499 6c3.33301 0.666992 6.33301 0 9 -2s4.33398 -4.5 5.00098 -7.5s0.333984 -6 -0.999023 -9s-4 -4.83301 -8 -5.5c-10 -2.66699 -20 -4.16699 -30 -4.5s-19 -0.5 -27 -0.5z" />
    <glyph glyph-name="backslash" unicode="\" horiz-adv-x="392" 
d="M67 722c18.667 -50 38.167 -104.999 58.5 -164.999l61.5 -183.5l62.5 -184c21 -60.333 41.5 -115.5 61.5 -165.5c2.66699 -5.33301 2.5 -9.83301 -0.5 -13.5s-7 -6.16699 -12 -7.5s-10.333 -1.33301 -16 0s-9.5 4.66602 -11.5 9.99902l-54 161l-60.5 180l-63.5 183
l-62 171c-2.66699 6.66699 -3 12 -1 16s5.16699 6.5 9.5 7.5s9 0.833008 14 -0.5s9.5 -4.33301 13.5 -9z" />
    <glyph glyph-name="bracketright" unicode="]" horiz-adv-x="319" 
d="M-40 45l127.999 264.001l124 266c-8.66699 2.66699 -18 4.16699 -28 4.5s-20 -1.16699 -30 -4.5c-3.33301 -1.33301 -6.16602 -1 -8.49902 1s-4 4.5 -5 7.5s-0.833008 6.16699 0.5 9.5s4.33301 5.66602 9 6.99902c12.667 2.66699 24.167 3.33398 34.5 2.00098
s20.5 -2.83301 30.5 -4.5s19.667 -2.83398 29 -3.50098s19.333 1.33301 30 6c6 2 10.833 0.666992 14.5 -4s4.5 -9.33398 2.5 -14.001l-72.5 -144.5l-71 -148.5l-67.5 -145l-62 -133c-4 -6.66699 -10 -7.66699 -18 -3c-14.667 5.33301 -29.667 8.83301 -45 10.5
s-30.333 0.833984 -45 -2.49902c-4.66699 -1.33301 -8.5 -1 -11.5 1s-5 4.66699 -6 8s-0.833008 6.5 0.5 9.5s4 4.83301 8 5.5c10 2.66699 20 4.16699 30 4.5s19.667 0.5 29 0.5z" />
    <glyph glyph-name="asciicircum" unicode="^" horiz-adv-x="326" 
d="M89 453c-2 -4.66699 -5.1709 -7.83203 -9.50391 -9.49902s-8.16602 -1.5 -11.499 0.5c-6.66699 0 -11 2.16699 -13 6.5s-2 9.16602 0 14.499c12.667 29.333 24.5 59.166 35.5 89.499s21.5 61.166 31.5 92.499c4.66699 8.66699 10.834 13 18.501 13
s12.834 -4.33301 15.501 -13l70 -182c0 -5.33301 -1.16699 -10.166 -3.5 -14.499s-5.16602 -6.5 -8.49902 -6.5c-4.66699 -2 -9.5 -2.16699 -14.5 -0.5s-7.5 4.83398 -7.5 9.50098l-54 112z" />
    <glyph glyph-name="underscore" unicode="_" horiz-adv-x="620" 
d="M76 -3c-4.66699 0 -8.5 1.83301 -11.5 5.5s-4.5 7.5 -4.5 11.5c0 6 1.5 11 4.5 15s6.83301 6 11.5 6h385c6 0 11 -2 15 -6s6 -9 6 -15c0 -4 -2 -7.83301 -6 -11.5s-9 -5.5 -15 -5.5h-385z" />
    <glyph glyph-name="grave" unicode="`" horiz-adv-x="318" 
d="M56 640c0 6 2 11.5078 6 16.5078s9.33301 7.5 16 7.5c16 0 33.167 -3.33301 51.5 -10s35.333 -15.834 51 -27.501s28.5 -25.334 38.5 -41.001s15 -32.5 15 -50.5c0 -6 -1.66699 -10.833 -5 -14.5s-7.33301 -5.83398 -12 -6.50098s-9 0.166016 -13 2.49902
s-6.33301 6.16602 -7 11.499c-2 7.33301 -6.66699 13.166 -14 17.499s-16 8.16602 -26 11.499l-31.5 10c-11 3.33301 -21.5 7.83301 -31.5 13.5s-18.5 13.167 -25.5 22.5s-11.167 21.666 -12.5 36.999z" />
    <glyph glyph-name="a" unicode="a" horiz-adv-x="425" 
d="M189 436c0.666992 0 1.16797 -0.166016 1.50098 -0.499023s0.833008 -0.5 1.5 -0.5l7 20h76l-20 -45.5l-30.5 -74.5l-33.5 -89.5c-11.333 -31.667 -21.333 -61.834 -30 -90.501s-14.834 -54 -18.501 -76s-3.5 -37.5 0.5 -46.5s12.667 -10 26 -3s33 25.167 59 54.5
c20 22.667 41 49 63 79l61 86.5c18.667 27.667 34.667 52.334 48 74.001s21.666 35.5 24.999 41.5c2 3.33301 4.66699 5.33301 8 6s6.16602 0.166992 8.49902 -1.5s4 -4 5 -7s0.5 -6.5 -1.5 -10.5c-3.33301 -6 -11 -18.833 -23 -38.5l-44 -69.5
c-17.333 -26.667 -36.666 -54.5 -57.999 -83.5s-42.666 -55.667 -63.999 -80s-41.833 -44.166 -61.5 -59.499s-36.834 -22.333 -51.501 -21c-11.333 2 -20 7.66699 -26 17s-10.167 20.5 -12.5 33.5s-3.16602 27.333 -2.49902 43s2.16699 31 4.5 46s4.83301 28.833 7.5 41.5
s5 23 7 31c-8 -8.66699 -17 -16.834 -27 -24.501s-20.5 -14.334 -31.5 -20.001s-22.167 -9.5 -33.5 -11.5s-22 -1.33301 -32 2c-18 5.33301 -30.667 15.5 -38 30.5s-10.5 32.333 -9.5 52s5.83301 40.5 14.5 62.5s20.667 42.667 36 62c10.667 14 23 26.667 37 38
s29 20.5 45 27.5s33 11.167 51 12.5s36.667 -1 56 -7zM184.001 413.001c-16.667 12 -33.999 14.5 -51.999 7.5s-35.167 -19.333 -51.5 -37s-30.833 -38.5 -43.5 -62.5s-22 -46.833 -28 -68.5s-7.66699 -40 -5 -55s11 -22.5 25 -22.5c11.333 0 22.833 4 34.5 12
s22.5 17.167 32.5 27.5s18.667 20.833 26 31.5s12.666 18.667 15.999 24c8 27.333 16.167 53.5 24.5 78.5z" />
    <glyph glyph-name="b" unicode="b" horiz-adv-x="376" 
d="M-129 47c1.33301 3.33301 5.83203 16.1699 13.499 38.5029s18 50.833 31 85.5s28.5 74 46.5 118s38 89 60 135s46 91.333 72 136s53.667 85.334 83 122.001s59.833 67.667 91.5 93s64.5 41.333 98.5 48c18.667 4 34 1.66699 46 -7s20.167 -21.334 24.5 -38.001
s4.5 -36 0.5 -58s-12.333 -44.667 -25 -68c-12 -21.333 -27.5 -42.833 -46.5 -64.5s-41.333 -41.667 -67 -60s-54.834 -34.5 -87.501 -48.5s-68.667 -24.333 -108 -31c-12 -25.333 -23.833 -48.833 -35.5 -70.5s-20.167 -38.167 -25.5 -49.5
c16.667 10.667 34.334 16.167 53.001 16.5s36.167 -3.83398 52.5 -12.501s30.5 -21.334 42.5 -38.001s19.667 -37 23 -61c32 16 61.833 34.667 89.5 56s51.834 46.666 72.501 75.999c2 3.33301 4.5 5 7.5 5s5.83301 -0.666992 8.5 -2s4.66699 -3.5 6 -6.5
s1 -5.83301 -1 -8.5c-22.667 -34 -50 -62.5 -82 -85.5s-65.667 -43.167 -101 -60.5c-1.33301 -20 -6.16602 -41.167 -14.499 -63.5s-20 -43.333 -35 -63s-33.167 -36.667 -54.5 -51s-45.333 -23.166 -72 -26.499c-15.333 -2 -28.5 0.333008 -39.5 7
s-18.667 15.834 -23 27.501s-5 25 -2 40s10.833 30.167 23.5 45.5c10 12 22.667 22.5 38 31.5s30.833 16.667 46.5 23s30.334 11.5 44.001 15.5s24.167 7.33301 31.5 10c2 19.333 0.5 37.666 -4.5 54.999s-12.833 31.166 -23.5 41.499s-24.334 16 -41.001 17
s-35.334 -4.83301 -56.001 -17.5l-22 -57.5l-27 -69l-26.5 -69.5l-21.5 -58zM115.999 474.004c35.333 7.33301 67.334 17.501 96.001 30.501s54.334 28 77.001 45s42.167 35.5 58.5 55.5s29.833 40 40.5 60c8 14.667 14.167 30.834 18.5 48.501s6.16602 33.5 5.49902 47.5
s-4 24.833 -10 32.5s-15.333 9.5 -28 5.5c-20 -6.66699 -39.333 -17.834 -58 -33.501s-36.667 -33.834 -54 -54.501s-33.5 -42.667 -48.5 -66s-28.833 -46 -41.5 -68s-23.834 -42.167 -33.501 -60.5zM153 174.005c-26 -4.66699 -48.8311 -12.833 -68.498 -24.5
s-36 -24.5 -49 -38.5s-22.333 -27.833 -28 -41.5s-7.83398 -24.834 -6.50098 -33.501s6.5 -13.834 15.5 -15.501s21.833 2.83301 38.5 13.5c6 4 13.833 11 23.5 21s19.5 21.833 29.5 35.5s19.167 27.834 27.5 42.501s14.166 28.334 17.499 41.001z" />
    <glyph glyph-name="c" unicode="c" horiz-adv-x="345" 
d="M365 352c-25.333 -42.667 -52.4961 -84.6689 -81.4961 -126.002s-58.167 -78.5 -87.5 -111.5s-58 -59.833 -86 -80.5s-53.667 -32 -77 -34c-24.667 -2 -44.334 2.66699 -59.001 14s-25.5 27 -32.5 47s-10.333 43 -10 69s3.33301 52.833 9 80.5s13.667 55 24 82
s22.166 51.167 35.499 72.5c7.33301 12 16.166 23.833 26.499 35.5s21.833 21.834 34.5 30.501s26 15.334 40 20.001s28.667 6.33398 44 5.00098c20 -2 34 -9.33301 42 -22s11.667 -27.334 11 -44.001s-4.33398 -33.667 -11.001 -51s-15 -31.666 -25 -42.999
c-2 -3.33301 -4.33301 -5 -7 -5s-5 0.833008 -7 2.5s-3.16699 4 -3.5 7s0.5 5.83301 2.5 8.5c16 21.333 26 41 30 59s3.83301 32.833 -0.5 44.5s-11.833 19.5 -22.5 23.5s-22.334 2.33301 -35.001 -5c-15.333 -8.66699 -30.5 -24.834 -45.5 -48.501
s-28.333 -50.834 -40 -81.501s-21.667 -62.667 -30 -96s-13.5 -63.833 -15.5 -91.5s-0.666992 -50.5 4 -68.5s14 -27 28 -27c17.333 0 36.5 6.83301 57.5 20.5s42.333 31.334 64 53.001s43 45.667 64 72s40.667 52.333 59 78s34.5 49.5 48.5 71.5s24.667 39.333 32 52
c4.66699 4 9.83398 4.5 15.501 1.5s7.16699 -7.83301 4.5 -14.5z" />
    <glyph glyph-name="d" unicode="d" horiz-adv-x="393" 
d="M229 107c13.333 18.667 27.3379 39.3369 42.0049 62.0039l43.5 68.5l41.5 68l37 59.5c4.66699 5.33301 10 6.33301 16 3s7.33301 -8.66602 4 -15.999l-39.5 -65.5l-47.5 -77.5l-51.5 -78.5c-17.667 -25.667 -34.834 -48.5 -51.501 -68.5s-32.167 -35.833 -46.5 -47.5
s-26.5 -16.834 -36.5 -15.501c-16.667 3.33301 -28.5 12.666 -35.5 27.999s-11 33.166 -12 53.499s-0.166992 41.333 2.5 63s5.66699 40.167 9 55.5c-20.667 -19.333 -40.334 -32.166 -59.001 -38.499s-35.334 -7.5 -50.001 -3.5c-22 6 -35.5 18.167 -40.5 36.5
s-5.33301 38.5 -1 60.5s11.333 43.333 21 64s18.167 36 25.5 46c20.667 29.333 47.167 51.666 79.5 66.999s67.833 18 106.5 8c18.667 45.333 39.167 91.166 61.5 137.499s46.333 90.333 72 132s52.834 79.334 81.501 113.001s58.667 60.5 90 80.5
c36 23.333 66.5 35.166 91.5 35.499s43.667 -7.16699 56 -22.5s17.833 -36.333 16.5 -63s-10.666 -55.334 -27.999 -86.001c-12 -21.333 -27.5 -42.833 -46.5 -64.5s-41.333 -41.667 -67 -60s-54.834 -34.5 -87.501 -48.5s-68.667 -24.333 -108 -31
c-10.667 -20 -22.834 -45.833 -36.501 -77.5l-42.5 -102.5c-14.667 -36.667 -28.834 -74 -42.501 -112s-25.334 -73.333 -35.001 -106s-16.667 -61 -21 -85s-4.33301 -40 0 -48s13.5 -6.5 27.5 4.5s34.333 34.833 61 71.5zM330.005 588.003
c35.333 7.33301 67.332 17.498 95.999 30.498s54.334 28 77.001 45s42.167 35.5 58.5 55.5s29.833 40 40.5 60c10 19.333 17.667 40 23 62s6 39.667 2 53s-13.833 19.833 -29.5 19.5s-39.5 -13.166 -71.5 -38.499c-18.667 -14.667 -37.167 -33.5 -55.5 -56.5
s-36 -47.667 -53 -74s-32.833 -53.166 -47.5 -80.499zM176.004 417.001c-18 9.33301 -35.666 9.33398 -52.999 0.000976562s-33.333 -23.666 -48 -42.999s-27.334 -41.333 -38.001 -66s-18.167 -47.5 -22.5 -68.5s-4.83301 -38 -1.5 -51s11.333 -17.5 24 -13.5
c17.333 5.33301 32.333 15.166 45 29.499s24 28.166 34 41.499c11.333 29.333 21.5 58.833 30.5 88.5s18.833 57.167 29.5 82.5z" />
    <glyph glyph-name="e" unicode="e" horiz-adv-x="345" 
d="M365 352c-25.333 -42.667 -52.4961 -84.6719 -81.4961 -126.005s-58.167 -78.5 -87.5 -111.5s-58 -59.833 -86 -80.5s-53.667 -32 -77 -34c-24.667 -2 -44.334 2.66699 -59.001 14s-25.5 27 -32.5 47s-10.333 43 -10 69s3.33301 52.833 9 80.5s13.667 55 24 82
s22.166 51.167 35.499 72.5c7.33301 12 16.166 24 26.499 36s21.666 22.5 33.999 31.5s25.666 15.667 39.999 20s28.833 5.16602 43.5 2.49902c17.333 -3.33301 29 -13.166 35 -29.499s4.5 -35.166 -4.5 -56.499s-26.667 -42.666 -53 -63.999
s-62.833 -38.666 -109.5 -51.999c-8 -28 -14.333 -56.167 -19 -84.5s-7 -53.666 -7 -75.999s2.66699 -40.333 8 -54s14 -20.5 26 -20.5c17.333 0 36.5 6.83301 57.5 20.5s42.333 31.334 64 53.001s43 45.667 64 72s40.667 52.333 59 78s34.5 49.5 48.5 71.5
s24.667 39.333 32 52c4.66699 4 9.83398 4.5 15.501 1.5s7.16699 -7.83301 4.5 -14.5zM112.004 430.995c-18 -10 -35.1699 -29.499 -51.5029 -58.499s-30.166 -61.5 -41.499 -97.5c32.667 13.333 58.834 27 78.501 41s34.334 27.5 44.001 40.5s15.167 25.167 16.5 36.5
s0 20.5 -4 27.5s-10 11.667 -18 14s-16 1.16602 -24 -3.50098z" />
    <glyph glyph-name="f" unicode="f" horiz-adv-x="299" 
d="M0 365c18.667 42 39.3369 84.501 62.0039 127.501s46.167 81.667 70.5 116s49 62.333 74 84s49.5 32.5 73.5 32.5c19.333 0 35.166 -6.5 47.499 -19.5s18.5 -31.5 18.5 -55.5c0 -18 -4.16699 -37.667 -12.5 -59s-21.666 -42.333 -39.999 -63s-42.5 -40.334 -72.5 -59.001
s-67 -35 -111 -49l-36.5 -80.5l-31 -69.5l-34 -76.5l-45.5 -101.5c31.333 14 62.666 31 93.999 51s61.666 42 90.999 66s56.833 49.333 82.5 76s48.5 53.334 68.5 80.001c2.66699 4 5.83398 6.16699 9.50098 6.5s6.66699 -0.5 9 -2.5s3.83301 -4.66699 4.5 -8
s-0.333008 -6.33301 -3 -9c-49.333 -64 -105.333 -121.333 -168 -172s-129.667 -89.667 -201 -117c19.333 -20.667 32.166 -45.5 38.499 -74.5s8 -59.333 5 -91s-10.167 -62.834 -21.5 -93.501s-24.833 -58.334 -40.5 -83.001s-32.834 -44.667 -51.501 -60
s-37.334 -23 -56.001 -23c-14.667 0 -26.5 6 -35.5 18s-13.5 29.667 -13.5 53c0 22.667 3.66699 50.334 11 83.001s17 68.167 29 106.5s25.833 78.333 41.5 120l48.5 123.5l49.5 118.5zM-59.9971 36.001l-48.499 -123.5l-39.5 -106.5c-11.333 -32 -20.333 -59.333 -27 -82
s-10 -38.667 -10 -48c0 -6 2.83301 -9.5 8.5 -10.5s12.667 0.333008 21 4s17.666 9.83398 27.999 18.501s20.5 19.667 30.5 33c14 19.333 26.833 43.166 38.5 71.499s20 57.5 25 87.5s5.66699 59 2 87s-13.167 51 -28.5 69zM125.004 454.001
c36.667 12.667 67.167 27.1689 91.5 43.502s44 33.166 59 50.499s25.667 34.333 32 51s9.5 32 9.5 46c0 15.333 -3.16699 27.666 -9.5 36.999s-14.166 14 -23.499 14c-8 0 -17 -5 -27 -15s-20.333 -22.667 -31 -38s-21.334 -32.5 -32.001 -51.5s-20.5 -37.5 -29.5 -55.5
l-24 -49z" />
    <glyph glyph-name="g" unicode="g" horiz-adv-x="459" 
d="M261 455l-39.002 -142.499c-14 -49.667 -28.333 -97.167 -43 -142.5c24 9.33301 48 19.666 72 30.999s47.667 24.666 71 39.999s46.5 33.166 69.5 53.499s45.5 43.833 67.5 70.5c5.33301 6 10.833 7.16699 16.5 3.5s6.83398 -9.16699 3.50098 -16.5
c-24 -30 -49 -56.167 -75 -78.5s-52 -41.666 -78 -57.999s-52.167 -30.5 -78.5 -42.5s-51.833 -22.667 -76.5 -32c-2.66699 -5.33301 -7.5 -19.5 -14.5 -42.5s-16.333 -50.667 -28 -83s-25.667 -67.5 -42 -105.5s-35 -74.667 -56 -110s-44.333 -67.333 -70 -96
s-53.5 -50 -83.5 -64c-23.333 -10.667 -45.666 -15.5 -66.999 -14.5s-40.166 7 -56.499 18s-29 26.333 -38 46s-12.833 43 -11.5 70s8.83301 57 22.5 90s34.834 67.833 63.501 104.5c22 28 45.333 51.667 70 71s50.167 36 76.5 50s53.333 26.333 81 37l82.5 31
c2 6.66699 3.66699 12.5 5 17.5s2.66602 9.66699 3.99902 14s2.66602 9 3.99902 14s3.33301 11.167 6 18.5c-15.333 -12 -31.833 -21.5 -49.5 -28.5s-34.167 -8.83301 -49.5 -5.5c-18 3.33301 -31.167 12 -39.5 26s-12.833 30.5 -13.5 49.5s1.83301 38.833 7.5 59.5
s14.167 39.667 25.5 57c8.66699 14 19.5 26.833 32.5 38.5s27.5 21.167 43.5 28.5s33.333 11.833 52 13.5s38.667 -0.166016 60 -5.49902l4 15h69zM133.998 256.001l10.5 38.999l11.5 43l12 43l11 38c-13.333 9.33301 -27.833 10.333 -43.5 3s-30.667 -19.166 -45 -35.499
s-27.666 -35.5 -39.999 -57.5s-21.833 -43 -28.5 -63s-10 -37.333 -10 -52s4.66699 -23 14 -25c8.66699 -2 18.5 -0.5 29.5 4.5s21.833 11.333 32.5 19s20.167 15.5 28.5 23.5s14.166 14.667 17.499 20zM-130.002 -330c26.667 22.667 51.333 52.665 74 89.998s43 77 61 119
s34.167 83.833 48.5 125.5l38.5 110.5l-88.5 -35.5c-28.333 -11.667 -55.5 -25.334 -81.5 -41.001s-50.667 -34.5 -74 -56.5s-45.333 -49 -66 -81c-18 -28.667 -31.167 -55.167 -39.5 -79.5s-12.5 -47.166 -12.5 -68.499c0 -22.667 4 -42.5 12 -59.5s18.5 -29.667 31.5 -38
s27.833 -11.666 44.5 -9.99902s34 9.83398 52 24.501z" />
    <glyph glyph-name="h" unicode="h" 
d="M239 451c14 -7.33301 20.002 -23.3281 18.002 -47.9951s-8.33301 -53.334 -19 -86.001s-23.334 -66.334 -38.001 -101.001l-38 -93c-11.333 -29.333 -18.333 -52 -21 -68s-1.5 -25.667 3.5 -29s14 -0.5 27 8.5s29.167 23.5 48.5 43.5c18.667 19.333 37 41.666 55 66.999
s35.167 51 51.5 77l46 76.5l39.5 66.5c2 4 4.66699 6.33301 8 7s6.33301 0.166992 9 -1.5s4.5 -4.16699 5.5 -7.5s0.166992 -7 -2.5 -11c-5.33301 -8 -14.333 -23.833 -27 -47.5s-27.834 -50.334 -45.501 -80.001s-37.167 -59.667 -58.5 -90s-43.333 -56.5 -66 -78.5
c-25.333 -24 -47.666 -40.167 -66.999 -48.5s-34.833 -9.16602 -46.5 -2.49902s-19.167 20.167 -22.5 40.5s-1.33301 46.833 6 79.5c9.33301 46.667 22 89 38 127l50 114c7.33301 16 12.333 29.833 15 41.5s2.66699 19.5 0 23.5s-7.83398 3.83301 -15.501 -0.5
s-18.5 -14.5 -32.5 -30.5c-50 -58.667 -95.5 -122.834 -136.5 -192.501s-76.167 -138.834 -105.5 -207.501h-66l31 80l33.5 85l38 93.5l45.5 106.5c34.667 80.667 66.834 151.5 96.501 212.5s58.334 113.5 86.001 157.5s55.167 80.667 82.5 110s56.666 53 87.999 71
c25.333 14 48.5 20.167 69.5 18.5s37.667 -9.5 50 -23.5s19 -33.5 20 -58.5s-6.16699 -53.833 -21.5 -86.5c-10.667 -22 -25.334 -43.833 -44.001 -65.5s-41.167 -41.667 -67.5 -60s-56 -34.333 -89 -48s-69.167 -23.834 -108.5 -30.501c-22 -50 -45.667 -101 -71 -153
s-49 -104.333 -71 -157c10 18.667 23.333 41.334 40 68.001s35 51.5 55 74.5s40.667 40.667 62 53s42 13.5 62 3.5zM174.002 588.005c35.333 7.33301 67.332 17.501 95.999 30.501s54.334 28 77.001 45s42.167 35.5 58.5 55.5s29.833 40 40.5 60
c10 19.333 16.667 39.333 20 60s2.5 37.5 -2.5 50.5s-15 20.167 -30 21.5s-35.5 -7.33398 -61.5 -26.001c-19.333 -14 -38.333 -32.833 -57 -56.5s-36.5 -49.5 -53.5 -77.5s-32.833 -56.333 -47.5 -85z" />
    <glyph glyph-name="i" unicode="i" horiz-adv-x="261" 
d="M90 563c13.333 0.666992 23.333 -3.50098 30 -12.501s10 -19 10 -30s-3.33301 -21.167 -10 -30.5s-16.667 -14 -30 -14c-14 0 -24.5 4.33301 -31.5 13s-10.5 18.334 -10.5 29.001s3.5 20.667 10.5 30s17.5 14.333 31.5 15zM110 453.999l-16 -40.0039l-27 -70l-31 -85.5
c-10.667 -30.333 -20 -59.5 -28 -87.5s-14 -53 -18 -75s-4.5 -38.167 -1.5 -48.5s10.5 -13.333 22.5 -9s29.667 19.5 53 45.5c20.667 22.667 41.834 48.834 63.501 78.501l60.5 86.5l48 74.5c13.333 21.667 21.666 35.5 24.999 41.5c2 3.33301 4.66699 5.33301 8 6
s6.16602 0.166992 8.49902 -1.5s4 -4 5 -7s0.5 -6.5 -1.5 -10.5c-3.33301 -6 -10.833 -18.667 -22.5 -38l-43 -68c-17 -26 -35.667 -53.167 -56 -81.5s-41 -54.333 -62 -78s-41.167 -42.667 -60.5 -57s-36 -20.5 -50 -18.5c-18 2.66699 -30.667 11.834 -38 27.501
s-11.166 34.834 -11.499 57.501s2.16699 47.5 7.5 74.5s11.5 53.333 18.5 79s14 48.834 21 69.501l15.5 46l15.5 40.5l19.5 49.5z" />
    <glyph glyph-name="j" unicode="j" horiz-adv-x="286" 
d="M103 455c-6 -22 -12.6641 -45.1631 -19.9971 -69.4961l-23 -73.5l-24 -73c-8 -24 -15.333 -47 -22 -69c22.667 9.33301 45.5 19.666 68.5 30.999s46 24.666 69 39.999s45.833 33.166 68.5 53.499s44.667 43.833 66 70.5c4 4.66699 7.66699 7.16699 11 7.5
s6.16602 -0.833984 8.49902 -3.50098s3.66602 -5.66699 3.99902 -9s-0.833984 -6 -3.50098 -8c-25.333 -30 -50.5 -56.167 -75.5 -78.5s-50.167 -41.666 -75.5 -57.999s-50.833 -30.5 -76.5 -42.5s-51.167 -22.667 -76.5 -32c-14 -42.667 -30.5 -89.834 -49.5 -141.501
s-40.5 -101.5 -64.5 -149.5s-50.667 -91 -80 -129s-61.333 -65 -96 -81c-25.333 -10 -48.666 -14.833 -69.999 -14.5s-39.833 5.5 -55.5 15.5s-27.834 24.5 -36.501 43.5s-13 41.5 -13 67.5c0 52.667 12.667 100.334 38 143.001s57.5 80.167 96.5 112.5
s82 60.166 129 83.499s92.167 42 135.5 56c13.333 41.333 25 80 35 116l29 102l26 90h77zM-306.997 -326.996c25.333 20.667 49 47.3359 71 80.0029s42.5 68.667 61.5 108s36.667 80.666 53 123.999s31.5 86 45.5 128c-39.333 -12 -80.166 -28.5 -122.499 -49.5
s-81 -46.667 -116 -77s-64 -65 -87 -104s-35.167 -82.5 -36.5 -130.5c-0.666992 -22.667 2.16602 -42.334 8.49902 -59.001s15.5 -29.167 27.5 -37.5s26 -11.333 42 -9s33.667 11.166 53 26.499zM35.0029 517.006c-1.33301 13.333 2.00098 23.8359 10.001 31.5029
s17 12.167 27 13.5s19.5 -0.833984 28.5 -6.50098s14.167 -15.167 15.5 -28.5c1.33301 -15.333 -1.83398 -26.833 -9.50098 -34.5s-16.667 -11.834 -27 -12.501s-20 2.16602 -29 8.49902s-14.167 15.833 -15.5 28.5z" />
    <glyph glyph-name="k" unicode="k" horiz-adv-x="464" 
d="M-134 -2l17.0039 48.5l29.5 83.5l39.5 109.5c14.667 40.333 30.667 82.166 48 125.499c21.333 54 44.333 108.5 69 163.5s51 107 79 156s57.5 92.5 88.5 130.5s63.5 67 97.5 87c36.667 21.333 67.667 32 93 32s44 -7.33301 56 -22s17.167 -35 15.5 -61
s-11.167 -54.333 -28.5 -85c-12 -21.333 -27.5 -42.833 -46.5 -64.5s-41.333 -41.667 -67 -60s-54.834 -34.5 -87.501 -48.5s-68.667 -24.333 -108 -31l-50 -112.5l-59 -144.5c12 11.333 26.667 24 44 38s36.166 27.333 56.499 40s42 23.667 65 33s46.167 15.333 69.5 18
c17.333 2 30.666 -1.5 39.999 -10.5s11.333 -20.5 6 -34.5c-3.33301 -9.33301 -10.666 -19.833 -21.999 -31.5s-24.833 -23.5 -40.5 -35.5s-33 -23.5 -52 -34.5s-38 -21 -57 -30s-37.167 -16.5 -54.5 -22.5s-32 -9.33301 -44 -10c3.33301 -23.333 9.5 -48.333 18.5 -75
s20.333 -49.667 34 -69s29.334 -32.333 47.001 -39s36.5 -2 56.5 14c28.667 22.667 56.167 48.834 82.5 78.501s50.166 59 71.499 88s39.833 56.167 55.5 81.5s27.5 45.666 35.5 60.999c2 2.66699 4.66699 4.5 8 5.5s6.16602 0.833008 8.49902 -0.5s4 -3.5 5 -6.5
s0.5 -6.83301 -1.5 -11.5c-8 -16 -19.333 -36.333 -34 -61s-31.834 -50.667 -51.501 -78s-41.167 -54.666 -64.5 -81.999s-47.333 -51.333 -72 -72s-49.5 -36.5 -74.5 -47.5s-49.167 -14 -72.5 -9s-45.333 19.333 -66 43s-38.667 60.167 -54 109.5l-13.5 -38.5l-14.5 -43
l-13.5 -41l-10.5 -32.5zM173.004 588c35.333 7.33301 67.665 17.5 96.998 30.5s55.5 28 78.5 45s42.833 35.5 59.5 55.5s30.334 40 41.001 60c10.667 20.667 17.667 41.667 21 63s1.5 38.5 -5.5 51.5s-19.167 19.333 -36.5 19s-41 -11.5 -71 -33.5
c-19.333 -14 -37.5 -32.667 -54.5 -56s-33.167 -48.5 -48.5 -75.5s-29.666 -54.5 -42.999 -82.5zM66.0029 241c14 2 31.6689 7.8291 53.002 17.4961s43.166 21.334 65.499 35.001s43.333 27.834 63 42.501s35.167 28 46.5 40c11.333 12.667 16 23.167 14 31.5
s-10.333 10.833 -25 7.5c-18.667 -3.33301 -39 -11.666 -61 -24.999s-43.333 -28.666 -64 -45.999s-39.334 -35.333 -56.001 -54s-28.667 -35 -36 -49z" />
    <glyph glyph-name="l" unicode="l" horiz-adv-x="337" 
d="M5 28c16 2.66699 35.5078 13.1738 58.5078 31.5068s46.833 40.166 71.5 65.499s49.334 52.333 74.001 81l65.5 79l46 59c11.667 15.333 17.167 22.333 16.5 21c2 3.33301 4.66699 5.33301 8 6s6.16602 0.166992 8.49902 -1.5s4 -4 5 -7s0.5 -6.5 -1.5 -10.5
c-53.333 -72 -104.333 -134.667 -153 -188c-20.667 -22.667 -41.834 -44.5 -63.501 -65.5s-42.834 -38.833 -63.501 -53.5s-39.834 -25.334 -57.501 -32.001s-32.834 -7 -45.501 -1c-13.333 6 -22.333 17.833 -27 35.5s-6.5 38.167 -5.5 61.5s4 48.166 9 74.499
s10.667 51.5 17 75.5s12.666 45.5 18.999 64.5s10.833 32.833 13.5 41.5c18.667 54 40.167 108.167 64.5 162.5s50.666 105.5 78.999 153.5s58.666 91.333 90.999 130s65.5 69 99.5 91c36 23.333 66.5 35.166 91.5 35.499s43.667 -7.16699 56 -22.5s17.833 -36.333 16.5 -63
s-10.666 -55.334 -27.999 -86.001c-12 -21.333 -27.5 -42.833 -46.5 -64.5s-41.333 -41.667 -67 -60s-54.834 -34.5 -87.501 -48.5s-68.667 -24.333 -108 -31c-16 -32.667 -32.333 -68.834 -49 -108.501s-32.334 -79.5 -47.001 -119.5s-27.834 -78.833 -39.501 -116.5
s-20.667 -70.834 -27 -99.501s-9.16602 -51.167 -8.49902 -67.5s5.66699 -23.833 15 -22.5zM173.008 588.007c35.333 7.33301 67.3311 17.499 95.998 30.499s54.334 28 77.001 45s42.167 35.5 58.5 55.5s29.833 40 40.5 60c10 19.333 17.667 39.5 23 60.5s6 38 2 51
s-13.5 19.333 -28.5 19s-37.5 -12.166 -67.5 -35.499c-18.667 -14.667 -37.5 -33.334 -56.5 -56.001s-37.167 -47.167 -54.5 -73.5s-33.666 -53.166 -48.999 -80.499z" />
    <glyph glyph-name="m" unicode="m" horiz-adv-x="598" 
d="M118 155c14 32.667 28.8242 63.999 44.4912 93.999s28.167 55 37.5 75c7.33301 16 13.333 31 18 45s7.83398 26.167 9.50098 36.5s1.66699 17.833 0 22.5s-5.16699 5.66699 -10.5 3c-14.667 -7.33301 -30.5 -20.666 -47.5 -39.999s-33.5 -40.333 -49.5 -63
s-30.667 -44.667 -44 -66l-31 -50c-10.667 -18 -20.667 -37.5 -30 -58.5s-17.666 -41.333 -24.999 -61s-13.666 -37.834 -18.999 -54.501l-12 -38h-70c4.66699 16.667 11.334 39.334 20.001 68.001l28.5 94l32 104.5l30.5 98.5l16.5 51l12.5 39h77l-14 -41
c-6 -18 -12.833 -37.5 -20.5 -58.5l-23 -64.5l-21.5 -60l53 81c19.333 28.667 39.333 54.5 60 77.5s41.334 40.667 62.001 53s40.334 15.166 59.001 8.49902c6.66699 -2.66699 11.834 -7.5 15.501 -14.5s6 -15 7 -24s0.666992 -18.5 -1 -28.5s-4.5 -19.667 -8.5 -29
c12 16 24.5 30.833 37.5 44.5s26.167 25 39.5 34s26.333 15.167 39 18.5s24.334 3 35.001 -1c9.33301 -4 14.666 -12.333 15.999 -25s-0.166992 -28 -4.5 -46s-10.666 -38 -18.999 -60s-17.333 -44.167 -27 -66.5l-29 -65.5c-9.66699 -21.333 -17.834 -40.333 -24.501 -57
c-22.667 -54 -27.5 -85.667 -14.5 -95s39.5 5.66699 79.5 45c20 19.333 39.167 41.333 57.5 66s35.833 50 52.5 76s32.167 51.333 46.5 76l39.5 66c2 4 4.66699 6.33301 8 7s6.33301 0.166992 9 -1.5s4.5 -4.16699 5.5 -7.5s0.166992 -7 -2.5 -11
c-5.33301 -8 -14 -22.833 -26 -44.5s-26.5 -46.167 -43.5 -73.5s-35.833 -55.666 -56.5 -84.999s-41.667 -55.333 -63 -78s-42.666 -40 -63.999 -52s-41 -14.333 -59 -7c-14.667 4 -24.334 13 -29.001 27s-6 31 -4 51s6.33301 41.833 13 65.5s14.334 46.667 23.001 69
s17.167 43 25.5 62s15.166 33.833 20.499 44.5l18.5 41c5.66699 12.667 9.83398 23.5 12.501 32.5s4 16 4 21s-2 6.83301 -6 5.5c-6.66699 -1.33301 -16.167 -7.83301 -28.5 -19.5s-24.666 -24.667 -36.999 -39s-23.833 -28.5 -34.5 -42.5s-18 -24 -22 -30l-39.5 -73
c-13 -24.667 -24.833 -48.667 -35.5 -72h-69z" />
    <glyph glyph-name="n" unicode="n" horiz-adv-x="431" 
d="M133 387c10 11.333 20.6709 21.6699 32.0039 31.0029s22.5 17 33.5 23s21.5 10 31.5 12s19.333 1.33301 28 -2c9.33301 -4 14.666 -12.167 15.999 -24.5s0.166016 -27.333 -3.50098 -45s-9.66699 -37.334 -18 -59.001s-17.333 -43.834 -27 -66.501l-30 -68l-27.5 -62
c-23.333 -53.333 -28 -84 -14 -92s41 7.66699 81 47c20 19.333 39.167 41.333 57.5 66s35.833 50 52.5 76s32.167 51.333 46.5 76l39.5 66c2 4 4.66699 6.33301 8 7s6.33301 0.166992 9 -1.5s4.5 -4.16699 5.5 -7.5s0.166992 -7 -2.5 -11
c-5.33301 -8 -13.833 -22.667 -25.5 -44s-25.834 -45.5 -42.501 -72.5s-35 -55 -55 -84s-40.667 -54.833 -62 -77.5s-42.833 -40.167 -64.5 -52.5s-42.5 -15.5 -62.5 -9.5c-14.667 4 -24.167 13.333 -28.5 28s-5.66602 32 -3.99902 52s6 41.5 13 64.5s14.667 45.667 23 68
s16.666 43 24.999 62s15.166 33.833 20.499 44.5l18.5 41c5.66699 12.667 9.83398 23.5 12.501 32.5s4 16 4 21s-2 6.83301 -6 5.5c-4.66699 -0.666992 -10.334 -3.83398 -17.001 -9.50098s-13.667 -12.5 -21 -20.5s-15 -16.833 -23 -26.5s-15.333 -19.167 -22 -28.5
c-14.667 -18.667 -31.667 -42.667 -51 -72l-58.5 -93c-19.667 -32.667 -38 -65 -55 -97s-30.5 -60 -40.5 -84l-60 1l27 77.5l30 84l34 94l40 108.5l34 90h71l-18 -44l-28 -70.5l-30 -77.5l-25 -64c15.333 28 34 58.833 56 92.5s46.333 65.5 73 95.5z" />
    <glyph glyph-name="o" unicode="o" 
d="M412 365c2.66699 4 5.5 6.4873 8.5 7.4873s5.83301 0.833008 8.5 -0.5s4.33398 -3.66602 5.00098 -6.99902s0 -7.66602 -2 -12.999c-11.333 -32 -25.833 -62 -43.5 -90s-36.834 -52 -57.501 -72s-41.834 -35.167 -63.501 -45.5s-42.167 -13.5 -61.5 -9.5
c-12 -17.333 -25 -34.166 -39 -50.499s-29 -30.833 -45 -43.5s-33 -23 -51 -31s-36.667 -12 -56 -12c-24 0 -43.5 6 -58.5 18s-26 27.833 -33 47.5s-10.167 42.334 -9.5 68.001s4.5 52.167 11.5 79.5s16.833 54.333 29.5 81s27.667 51 45 73
c12.667 16.667 26.834 31.5 42.501 44.5s32.167 23.333 49.5 31s35.666 12.334 54.999 14.001s39 -0.5 59 -6.5c3.33301 -1.33301 5.66602 -3.83301 6.99902 -7.5s1.66602 -7 0.999023 -10s-2.5 -5.5 -5.5 -7.5s-7.5 -2 -13.5 0c-17.333 10 -35 12.167 -53 6.5
s-35.167 -16.5 -51.5 -32.5s-31.5 -36.167 -45.5 -60.5s-26.333 -50.166 -37 -77.499s-19.167 -54.666 -25.5 -81.999s-9.66602 -52.333 -9.99902 -75s2.5 -41.667 8.5 -57s16 -24.333 30 -27c16 -3.33301 31.833 -1.33301 47.5 6s30.667 17.333 45 30
s27.5 26.834 39.5 42.501s22.333 30.5 31 44.5c-27.333 16.667 -44.833 38.334 -52.5 65.001s-8.16699 53.334 -1.5 80.001s18.834 50.834 36.501 72.501s38.5 36.167 62.5 43.5c12.667 4 23.667 4.5 33 1.5s17.166 -8.33301 23.499 -16s10.666 -17 12.999 -28
s2.83301 -22.833 1.5 -35.5c-2.66699 -19.333 -9.5 -43.833 -20.5 -73.5s-25.833 -58.834 -44.5 -87.501c18 0 36.333 6.33301 55 19s36.334 28.834 53.001 48.501s31.834 41.334 45.501 65.001s24.834 46.834 33.501 69.501zM194 169.987
c9.33301 12.667 18.665 27.498 27.998 44.498s17.333 34.167 24 51.5s11.334 34 14.001 50s2.66699 29.333 0 40c-4.66699 15.333 -12.167 22.833 -22.5 22.5s-21.333 -5.66602 -33 -15.999s-22.5 -24.166 -32.5 -41.499s-16.667 -35.5 -20 -54.5
s-2.16602 -37.333 3.50098 -55s18.5 -31.5 38.5 -41.5z" />
    <glyph glyph-name="p" unicode="p" horiz-adv-x="435" 
d="M223 406c12 -13.333 20.5 -29.0029 25.5 -47.0029s7.33301 -36.5 7 -55.5s-3 -37.833 -8 -56.5s-10.833 -35.334 -17.5 -50.001c14.667 4.66699 31.334 13.167 50.001 25.5s37.5 26.5 56.5 42.5s37.167 32.833 54.5 50.5s32 34.167 44 49.5c6.66699 6 13 6.66699 19 2
s6 -10.667 0 -18c-16 -19.333 -33.333 -39 -52 -59s-38.334 -38.833 -59.001 -56.5s-42 -33 -64 -46s-44 -21.5 -66 -25.5c-26 -40 -51.333 -68.5 -76 -85.5s-46.667 -26.333 -66 -28s-35 2.33301 -47 12s-18 21.5 -18 35.5s7.33301 28 22 42s38.334 24.333 71.001 31l36 6
c14 21.333 24.667 43.333 32 66s11.666 43.834 12.999 63.501s-0.166992 36.834 -4.5 51.501s-11.166 25.167 -20.499 31.5s-21 7.33301 -35 3s-29.667 -15.5 -47 -33.5c-10.667 -32.667 -23.667 -70.334 -39 -113.001s-32.666 -87.334 -51.999 -134.001
s-40.5 -94 -63.5 -142s-47.5 -93.167 -73.5 -135.5s-53.333 -80.666 -82 -114.999s-58.334 -61.5 -89.001 -81.5c-36 -23.333 -66.5 -35.166 -91.5 -35.499s-43.667 7.16699 -56 22.5s-17.833 36.333 -16.5 63s10.666 55.334 27.999 86.001c12 21.333 27.5 42.833 46.5 64.5
s41.333 41.667 67 60s54.834 34.5 87.501 48.5s68.667 24.333 108 31c12 24.667 24.5 52.5 37.5 83.5l39.5 97l39.5 104l36.5 104.5l29 90h75l-13 -40l-4 -14c10.667 6.66699 22 12.5 34 17.5s24 8.16699 36 9.5s23.667 0.333008 35 -3s21.666 -9.66602 30.999 -18.999z
M-165 -50.0029c-35.333 -7.33301 -67.332 -17.6689 -95.999 -31.002s-54.334 -28.5 -77.001 -45.5s-42.167 -35.333 -58.5 -55s-29.833 -39.5 -40.5 -59.5c-10 -19.333 -17.667 -40.166 -23 -62.499s-6.33301 -40.5 -3 -54.5s12.5 -21.333 27.5 -22s37.5 10.666 67.5 33.999
c18.667 14.667 37.5 33.834 56.5 57.501s37.5 49.334 55.5 77.001s34.667 55.667 50 84zM114.001 138.994c-14.667 1.33301 -28.5 -1.16699 -41.5 -7.5s-23.5 -13.5 -31.5 -21.5s-13 -15.5 -15 -22.5s1 -10.5 9 -10.5c6.66699 0 14.167 2.5 22.5 7.5s16.333 11 24 18
s14.5 14 20.5 21s10 12.167 12 15.5z" />
    <glyph glyph-name="q" unicode="q" horiz-adv-x="356" 
d="M141 90c16 -18 28 -42.8311 36 -74.498s11.667 -64.5 11 -98.5s-6 -66 -16 -96s-25.333 -52.333 -46 -67c-20 -10.667 -35.833 -11.834 -47.5 -3.50098s-20.167 23.166 -25.5 44.499s-7.66602 47.833 -6.99902 79.5s3.33398 65.667 8.00098 102
s11.167 73.166 19.5 110.499s17.166 72.333 26.499 105c-34 -26.667 -63 -38.5 -87 -35.5s-41 14.667 -51 35s-12.333 46.5 -7 78.5s20.333 63.667 45 95c10.667 14 22.834 26.5 36.501 37.5s28.5 20 44.5 27s32.833 11.333 50.5 13s36.167 -0.5 55.5 -6.5l8 19
c12 0.666992 23.833 0.833984 35.5 0.500977s23.5 -0.5 35.5 -0.5c-26.667 -66.667 -48.834 -126.667 -66.501 -180l-47.5 -146c22 16.667 42.833 34.834 62.5 54.501s38 39.667 55 60s32.667 40.833 47 61.5s27.5 40.667 39.5 60
c1.33301 3.33301 3.66602 5.33301 6.99902 6s6.5 0.166992 9.5 -1.5s5 -4 6 -7s0.166992 -6.5 -2.5 -10.5c-15.333 -24.667 -32.5 -50.334 -51.5 -77.001s-38.833 -52 -59.5 -76s-41.5 -45.667 -62.5 -65s-41.5 -34 -61.5 -44zM178 415.002
c-14 9.33301 -28.168 12.3311 -42.501 8.99805s-28.166 -10.666 -41.499 -21.999s-25.833 -25.666 -37.5 -42.999s-21.667 -35.333 -30 -54s-14.666 -37 -18.999 -55s-5.83301 -33.167 -4.5 -45.5s5.83301 -21.166 13.5 -26.499s19.167 -4.33301 34.5 3
c13.333 5.33301 25.333 13.166 36 23.499s19.667 19.5 27 27.5l33 99c9.33301 28.667 19.666 56.667 30.999 84zM133.999 55c-9.33301 -32 -17.333 -65.333 -24 -100s-11.667 -66.334 -15 -95.001s-5 -52.167 -5 -70.5s2.33301 -27.5 7 -27.5
c20 0.666992 35.333 12.5 46 35.5s17.167 50.167 19.5 81.5s1 63.333 -4 96s-13.167 59.334 -24.5 80.001z" />
    <glyph glyph-name="r" unicode="r" horiz-adv-x="354" 
d="M41 446c-19.333 2 -32.9971 9.33496 -40.9971 22.002s-11.333 26.167 -10 40.5s6.83301 27.5 16.5 39.5s22.5 18 38.5 18c12 0 21.167 -3.5 27.5 -10.5s10.5 -15.667 12.5 -26s2 -21.333 0 -33s-5.33301 -21.834 -10 -30.501l37.5 2.5c15 1 29.667 1 44 0
s26.666 -3.83301 36.999 -8.5s16.166 -12.334 17.499 -23.001c0.666992 -12.667 -3.33301 -31.667 -12 -57s-19.667 -53.166 -33 -83.499l-42 -94c-14.667 -32.333 -27.334 -62 -38.001 -89s-18 -49.333 -22 -67s-1.66699 -27.5 7 -29.5
c12 -2.66699 26.833 3.16602 44.5 17.499s36.334 33.333 56.001 57s39.667 50 60 79s39 56.833 56 83.5l43.5 70.5c12 20.333 19.667 33.833 23 40.5c2 3.33301 4.5 5.33301 7.5 6s5.83301 0.166992 8.5 -1.5s4.5 -4 5.5 -7s0.5 -6.5 -1.5 -10.5l-19.5 -32.5l-32 -52.5
l-41.5 -64.5c-15.333 -23 -31.333 -45.333 -48 -67s-33.5 -42.167 -50.5 -61.5s-33.667 -35.166 -50 -47.499s-31.666 -20.5 -45.999 -24.5s-27.166 -2 -38.499 6c-11.333 8.66699 -17.833 22.167 -19.5 40.5s-0.333984 39.5 3.99902 63.5s11.166 49.667 20.499 77
s19.333 54.166 30 80.499l31 74.5c10 23.333 18 43 24 59c5.33301 14 7.16602 23.833 5.49902 29.5s-6 9.16699 -13 10.5s-16.167 1.5 -27.5 0.5s-24 -1.5 -38 -1.5l-23.5 -47l-21.5 -43c-1.33301 -2.66699 -3.5 -4.16699 -6.5 -4.5s-5.66699 0.166992 -8 1.5
s-4.33301 3.33301 -6 6s-1.5 6 0.5 10zM50.0029 467.002c1.33301 2 3.16699 7.83301 5.5 17.5s4 19.5 5 29.5s0.5 18.833 -1.5 26.5s-7 11.167 -15 10.5c-8 -1.33301 -14 -6.5 -18 -15.5s-5.83301 -18.833 -5.5 -29.5s2.83301 -20.167 7.5 -28.5s12 -11.833 22 -10.5z" />
    <glyph glyph-name="s" unicode="s" horiz-adv-x="300" 
d="M316 350c-15.333 -16 -32.835 -31.5029 -52.502 -46.5029s-39.667 -28.833 -60 -41.5s-39.833 -24 -58.5 -34l-48 -25c8 -40.667 10.167 -74.834 6.5 -102.501s-10.834 -50.334 -21.501 -68.001s-23.667 -31.167 -39 -40.5s-30.666 -16 -45.999 -20
c-21.333 -5.33301 -41.166 -3.66602 -59.499 5.00098s-30.666 21.834 -36.999 39.501s-5 38.334 4 62.001s30.5 47.834 64.5 72.501c10.667 8 21.667 15.167 33 21.5l35 20.5c-2 12.667 -4.83301 26.334 -8.5 41.001l-11 45c-3.66699 15.333 -7 30.333 -10 45
s-5.5 28.334 -7.5 41.001c-1.33301 9.33301 -2.33301 18.666 -3 27.999s-1 18.666 -1 27.999c0 27.333 5.33301 49.333 16 66s22.5 27.667 35.5 33s24.833 4.83301 35.5 -1.5s16 -18.833 16 -37.5c0 -15.333 -5.33301 -31 -16 -47s-21.667 -30.667 -33 -44
c2 -11.333 4.66699 -24 8 -38s7 -28.5 11 -43.5l12 -44l11 -39.5l46 24.5c18 9.66699 36.5 20.5 55.5 32.5s37.833 25 56.5 39s35 28.667 49 44c3.33301 3.33301 6.83301 5 10.5 5s6.5 -0.833008 8.5 -2.5s3 -4.16699 3 -7.5s-1.66699 -6.66602 -5 -9.99902zM45.998 416.997
c10 10 17.167 20.332 21.5 30.999s6.83301 20.5 7.5 29.5s-0.333008 16.5 -3 22.5s-5.66699 9 -9 9c-2.66699 0 -5.5 -2.33301 -8.5 -7s-5.5 -11.167 -7.5 -19.5s-3.16699 -18.166 -3.5 -29.499s0.5 -23.333 2.5 -36zM41.998 172.996
c-10.667 -5.33301 -20.835 -10.999 -30.502 -16.999s-18.5 -12 -26.5 -18l-25 -21c-8.66699 -7.33301 -16.667 -15.333 -24 -24c-10 -12.667 -15.833 -26.167 -17.5 -40.5s0 -27 5 -38s13.167 -19.333 24.5 -25s25 -6.16699 41 -1.5c12.667 4 23.334 13.333 32.001 28
s15.334 31.5 20.001 50.5s7 38.167 7 57.5s-2 35.666 -6 48.999z" />
    <glyph glyph-name="t" unicode="t" horiz-adv-x="322" 
d="M-272 562c-2.66699 -3.33301 -5.66699 -5.50293 -9 -6.50293s-6.33301 -1 -9 0s-4.66699 2.83301 -6 5.5s-1.33301 5.66699 0 9c12.667 30.667 33 53.167 61 67.5s60.5 23.5 97.5 27.5s77.167 4 120.5 0s86.666 -8.33301 129.999 -13l25 51l72 -1l-25 -59
c29.333 -3.33301 57.5 -5.5 84.5 -6.5s52 -0.166992 75 2.5s43.5 7.83398 61.5 15.501s32.333 18.834 43 33.501c1.33301 2.66699 3.66602 4.5 6.99902 5.5s6.5 1 9.5 0s5.33301 -3.16699 7 -6.5s1.16699 -7.66602 -1.5 -12.999c-12 -17.333 -28 -30.333 -48 -39
s-43 -14.5 -69 -17.5s-54.167 -3.66699 -84.5 -2s-61.5 4.16699 -93.5 7.5l-43 -99c-15.333 -34.667 -30.666 -71.167 -45.999 -109.5s-29.666 -76.333 -42.999 -114s-25.166 -73.5 -35.499 -107.5s-18.166 -63.833 -23.499 -89.5s-7.5 -45.667 -6.5 -60
s6.16699 -20.5 15.5 -18.5c8.66699 1.33301 20.167 7.5 34.5 18.5s30 24.833 47 41.5l54 55.5l56.5 62.5l53 61.5l43.5 52.5l29.5 36c7.33301 8.66699 10.666 12.667 9.99902 12c2 3.33301 4.66699 5.33301 8 6s6.16602 0.166992 8.49902 -1.5s4 -4 5 -7
s0.5 -6.5 -1.5 -10.5c-3.33301 -6 -12.5 -19 -27.5 -39s-33.833 -43.333 -56.5 -70l-74 -84c-26.667 -29.333 -53.167 -56 -79.5 -80s-51 -43.5 -74 -58.5s-41.5 -21.5 -55.5 -19.5c-18 2.66699 -29.667 14.667 -35 36s-6 49 -2 83s11.5 72.167 22.5 114.5
s24.167 85.833 39.5 130.5c16.667 49.333 34.334 97.166 53.001 143.499l51 123.5c-42 4.66699 -83.167 8.83398 -123.5 12.501s-77.5 4 -111.5 1s-63.333 -10.833 -88 -23.5s-42.334 -32.667 -53.001 -60z" />
    <glyph glyph-name="u" unicode="u" horiz-adv-x="438" 
d="M97 455c-19.333 -50 -36.3242 -96.8359 -50.9912 -140.503s-26.334 -81.5 -35.001 -113.5s-13.834 -57 -15.501 -75s0.833008 -26.333 7.5 -25c5.33301 1.33301 12.833 7.66602 22.5 18.999s20.667 26.333 33 45s25.5 39.834 39.5 63.501l42 74.5l41 78
c13.333 26 25.333 50.667 36 74h75c-6.66699 -13.333 -15.334 -32.666 -26.001 -57.999s-21.834 -53.5 -33.501 -84.5s-22.834 -62.833 -33.501 -95.5s-19.167 -62.834 -25.5 -90.501s-10 -50.834 -11 -69.501s2.66699 -29.667 11 -33s21.666 3 39.999 19
s43.833 45.333 76.5 88c17.333 22.667 34.5 46.834 51.5 72.501s32.333 49.834 46 72.501s25 42.167 34 58.5s14.5 26.5 16.5 30.5c2 2.66699 4.5 4.5 7.5 5.5s5.66699 1 8 0s4.16602 -3.16699 5.49902 -6.5s1 -7.33301 -1 -12c-2.66699 -5.33301 -9.83398 -18 -21.501 -38
s-26 -43.333 -43 -70s-36 -54.667 -57 -84s-41.833 -56 -62.5 -80s-40.667 -43.5 -60 -58.5s-36 -21.5 -50 -19.5c-12 0.666992 -21.167 5.83398 -27.5 15.501s-10.5 20.834 -12.5 33.501s-2.66699 25.834 -2 39.501s1.66699 25.5 3 35.5
c3.33301 30 9.83301 62.167 19.5 96.5s19.5 67.5 29.5 99.5c-6 -8.66699 -13 -20.334 -21 -35.001l-27 -47.5l-31 -52.5c-10.667 -18 -21.334 -34.333 -32.001 -49s-21.167 -26.834 -31.5 -36.501s-19.5 -14.834 -27.5 -15.501c-16 -1.33301 -27.667 2.66699 -35 12
s-11.833 21.833 -13.5 37.5s-1 33.834 2 54.501s6.83301 41.5 11.5 62.5s10 41.333 16 61s11 36.834 15 51.501l13.5 43.5l14.5 46.5h69z" />
    <glyph glyph-name="v" unicode="v" horiz-adv-x="358" 
d="M102 455c-8.66699 -14.667 -18.333 -35.501 -29 -62.501s-21.5 -56.5 -32.5 -88.5s-21.333 -64.667 -31 -98s-17.5 -63.833 -23.5 -91.5s-9.33301 -50.667 -10 -69s2.33301 -28.833 9 -31.5c4.66699 -2 11.167 1 19.5 9s17.333 18.5 27 31.5s19.834 27.667 30.501 44
l30.5 48.5l26 44.5l17.5 30.5c-6.66699 24 -9.5 50.833 -8.5 80.5s5.5 58.167 13.5 85.5c11.333 40 24.166 67.167 38.499 81.5s27.166 19.833 38.499 16.5c12 -2.66699 19.833 -10 23.5 -22s4.33398 -26.5 2.00098 -43.5s-6.66602 -35.5 -12.999 -55.5
s-13.5 -39.5 -21.5 -58.5s-16.167 -36.667 -24.5 -53s-15.5 -28.833 -21.5 -37.5c7.33301 -18.667 16.333 -29.334 27 -32.001s22.334 -0.166992 35.001 7.5s25.5 19.167 38.5 34.5s25.667 31.5 38 48.5s23.333 33.833 33 50.5l23.5 40c2 3.33301 4.33301 5.33301 7 6
s5.33398 0.166992 8.00098 -1.5s4.66699 -4 6 -7s1 -6.5 -1 -10.5c-7.33301 -13.333 -16.666 -29.333 -27.999 -48s-23.833 -37.167 -37.5 -55.5s-28 -35.166 -43 -50.499s-29.833 -26.666 -44.5 -33.999s-28.834 -9 -42.501 -5s-25.834 16 -36.501 36l-24 -42
c-10 -18 -21 -36.5 -33 -55.5s-24.667 -36.833 -38 -53.5s-26 -29 -38 -37s-23 -11.167 -33 -9.5s-17.667 6.16699 -23 13.5c-5.33301 6.66699 -9 15.334 -11 26.001s-3.33301 21.5 -4 32.5s-0.5 21.5 0.5 31.5s1.83301 18 2.5 24
c4.66699 41.333 12.167 82.666 22.5 123.999s21.166 80 32.499 116c5.33301 17.333 10.666 33.5 15.999 48.5l15 41.5h71zM153.001 256.999c2 3.33301 5.66797 11 11.001 23l17.5 41c6.33301 15.333 12.333 31.5 18 48.5s10.334 32.667 14.001 47s5.5 25.833 5.5 34.5
s-3 12.667 -9 12c-8.66699 -1.33301 -17 -11 -25 -29s-14.833 -38.5 -20.5 -61.5s-9.83398 -45.5 -12.501 -67.5s-2.33398 -38 0.999023 -48z" />
    <glyph glyph-name="w" unicode="w" horiz-adv-x="595" 
d="M102 455l-62.001 -167.501c-18.667 -51 -34.167 -95 -46.5 -132s-20.833 -66.5 -25.5 -88.5s-4 -34.333 2 -37c6 -3.33301 15.167 -0.166016 27.5 9.50098s26.166 23.667 41.499 42s31.666 40.166 48.999 65.499s34.333 52.333 51 81s32.334 58.167 47.001 88.5
s27.334 59.833 38.001 88.5h64l-25 -62l-28.5 -76c-9.66699 -26.667 -18.667 -53.5 -27 -80.5s-15.333 -51.667 -21 -74s-9.5 -41.166 -11.5 -56.499s-1.33301 -25 2 -29c2.66699 -3.33301 9.16699 -0.166016 19.5 9.50098s23 24 38 43s31.5 41.667 49.5 68
s35.667 54.166 53 83.499c-8.66699 18 -12.667 39.833 -12 65.5s4.66699 50.167 12 73.5s17.333 43.166 30 59.499s27 24.5 43 24.5c15.333 0 25.333 -5 30 -15s5.66699 -22.667 3 -38s-7.83398 -32.333 -15.501 -51s-15.667 -36.167 -24 -52.5
s-16.166 -30.666 -23.499 -42.999l-14 -23.5c9.33301 -14.667 20.666 -22.834 33.999 -24.501s27.666 0.833008 42.999 7.5s30.833 16.667 46.5 30s30.5 27.333 44.5 42s26.333 29.167 37 43.5s18.667 26.166 24 35.499c2 4 4.5 6.16699 7.5 6.5
s5.83301 -0.333984 8.5 -2.00098s4.5 -4.16699 5.5 -7.5s0.5 -6.66602 -1.5 -9.99902c-6.66699 -12 -16 -25.833 -28 -41.5s-25.5 -31.334 -40.5 -47.001s-31 -30.167 -48 -43.5s-34 -23.166 -51 -29.499s-33.667 -8.5 -50 -6.5s-30.833 10.667 -43.5 26
c-4 -6 -10 -15.667 -18 -29s-17.667 -28.333 -29 -45s-23.5 -33.667 -36.5 -51s-26 -32.666 -39 -45.999s-25.667 -23.833 -38 -31.5s-23.166 -9.83398 -32.499 -6.50098c-10.667 4 -17.167 15.333 -19.5 34s-2.66602 39.334 -0.999023 62.001
s4.33398 44.834 8.00098 66.501s6.5 37.167 8.5 46.5c-14.667 -26.667 -31 -53.5 -49 -80.5s-36.667 -50.167 -56 -69.5l-24 -23c-10 -9.33301 -20.333 -17.166 -31 -23.499s-21.167 -9.5 -31.5 -9.5s-18.833 6.33301 -25.5 19c-7.33301 13.333 -9.83301 34.166 -7.5 62.499
s7.16602 59 14.499 92s16 66.333 26 100l27 87.5c0.666992 4 2.33398 9.5 5.00098 16.5l8.5 23l9 26l8.5 24.5h71zM353.999 254.999c0 -0.666992 2.00098 2.99902 6.00098 10.999s8.66699 18.167 14 30.5l17.5 41c6.33301 15 11.5 29.167 15.5 42.5
c4.66699 16 6.66699 27.333 6 34s-3 10.334 -7 11.001s-8.66699 -1.33301 -14 -6s-10.333 -11 -15 -19c-6.66699 -12 -12 -24.833 -16 -38.5s-6.83301 -27 -8.5 -40s-2.33398 -25.333 -2.00098 -37s1.5 -21.5 3.5 -29.5z" />
    <glyph glyph-name="x" unicode="x" horiz-adv-x="540" 
d="M540 365c2 3.33301 4.49805 5.33691 7.49805 6.00391s5.83301 0.166992 8.5 -1.5s4.5 -4 5.5 -7s0.5 -6.5 -1.5 -10.5c-28 -51.333 -59.5 -100.833 -94.5 -148.5s-70.833 -89.5 -107.5 -125.5c-24.667 -24.667 -49.5 -44.167 -74.5 -58.5s-48.333 -20.5 -70 -18.5
s-40.667 13.667 -57 35s-28.166 55 -35.499 101c-32 -41.333 -63.667 -72.833 -95 -94.5s-60.833 -33.667 -88.5 -36s-52.834 4.83398 -75.501 21.501s-41.334 42.334 -56.001 77.001c-1.33301 3.33301 -1.16602 6.16602 0.500977 8.49902s3.83398 4.16602 6.50098 5.49902
s5.5 1.66602 8.5 0.999023s5.16699 -2.33398 6.5 -5.00098c15.333 -32 32 -54.167 50 -66.5s36.667 -17.5 56 -15.5s38.5 10.167 57.5 24.5s37.167 32.333 54.5 54s33.166 45.5 47.499 71.5s26.333 51.667 36 77s16.5 49.166 20.5 71.499s4.33301 40.833 1 55.5
c-5.33301 24 -13.833 37.5 -25.5 40.5s-24.167 0.666992 -37.5 -7s-26.166 -18.334 -38.499 -32.001s-21.5 -24.834 -27.5 -33.501c-2.66699 -4 -5.83398 -6.66699 -9.50098 -8s-6.66699 -1.33301 -9 0s-4 3.5 -5 6.5s-0.5 6.5 1.5 10.5c14.667 21.333 29.5 39 44.5 53
s29.5 24.667 43.5 32c14.667 6.66699 29.167 10.334 43.5 11.001s27.666 -1.5 39.999 -6.5s22.833 -12.667 31.5 -23s14.667 -23.5 18 -39.5c14.667 16 29.5 28.833 44.5 38.5s29.833 17 44.5 22s28.5 8.16699 41.5 9.5s24.5 1.33301 34.5 0
c17.333 -2 31.833 -7.16699 43.5 -15.5s19.834 -18.5 24.501 -30.5s5.66699 -25.333 3 -40s-10 -29.667 -22 -45c-3.33301 -3.33301 -6.5 -4.83301 -9.5 -4.5s-5.5 1.5 -7.5 3.5s-3.5 4.66699 -4.5 8s-0.5 6.66602 1.5 9.99902c14.667 19.333 21.334 36.5 20.001 51.5
s-8 26 -20 33s-28 8.83301 -48 5.5s-41 -13.833 -63 -31.5s-44.167 -43.667 -66.5 -78s-41.5 -78.833 -57.5 -133.5c-4 -14 -6 -31.167 -6 -51.5s3 -39.5 9 -57.5s15 -32.167 27 -42.5s28 -12.166 48 -5.49902c18.667 6 39.834 19.5 63.501 40.5s48 46.5 73 76.5
s50 63.333 75 100s48.5 73.667 70.5 111z" />
    <glyph glyph-name="y" unicode="y" horiz-adv-x="495" 
d="M104 454c-14 -31.333 -27.335 -63.502 -40.002 -96.502s-23.5 -63.333 -32.5 -91s-15.167 -50.334 -18.5 -68.001s-3 -26.5 1 -26.5c10 0 24.333 10 43 30s38.334 44.5 59.001 73.5s40.834 59.833 60.501 92.5s35.834 61.667 48.501 87h79
c-4 -13.333 -8.66699 -30.166 -14 -50.499l-18.5 -68l-23 -79.5c-8.33301 -28 -17.166 -55.667 -26.499 -83c48 16.667 95.167 39.334 141.5 68.001s90.166 69.667 131.499 123c3.33301 2.66699 6.66602 4 9.99902 4s6 -1 8 -3s3.16699 -4.66699 3.5 -8
s-0.833984 -6.33301 -3.50098 -9c-22.667 -28.667 -46 -53.667 -70 -75s-48.667 -40 -74 -56s-51.166 -29.833 -77.499 -41.5s-52.5 -22.167 -78.5 -31.5c-10 -30.667 -21.167 -62.167 -33.5 -94.5s-25.333 -64.5 -39 -96.5s-27.834 -63.167 -42.501 -93.5
s-30 -58.5 -46 -84.5c-32 -53.333 -65 -92 -99 -116s-64.667 -37.333 -92 -40c-31.333 -2 -57.833 6.83301 -79.5 26.5s-36.167 46 -43.5 79s-6.16602 70 3.50098 111s30.5 81.833 62.5 122.5c22.667 28.667 47 52.834 73 72.501s53.333 36.334 82 50.001
s58.5 25.334 89.5 35.001l94.5 28.5l39 128c12.667 41.333 23 77.666 31 108.999l-26.5 -42l-33.5 -49.5c-12 -17 -24.667 -33.833 -38 -50.5s-26.333 -31.334 -39 -44.001s-25 -22.834 -37 -30.501s-22.667 -11.167 -32 -10.5c-12 0.666992 -20.167 8.5 -24.5 23.5
s-6 33.167 -5 54.5s3.83301 44 8.5 68s9.33398 45.333 14.001 64c5.33301 18.667 10.666 35.834 15.999 51.501s10 28.5 14 38.5zM-10.002 -232.002c12 23.333 24.5029 49.333 37.5029 78s25.667 58.5 38 89.5s24.166 62.333 35.499 94s21.666 62.167 30.999 91.5l-86 -28
c-28 -9.33301 -55 -20.666 -81 -33.999s-50.833 -29.333 -74.5 -48s-46.5 -41.334 -68.5 -68.001c-25.333 -32 -43.333 -66 -54 -102s-13.667 -69.667 -9 -101c2 -16.667 6.83301 -32.334 14.5 -47.001s17 -26.667 28 -36s23.667 -15.166 38 -17.499
s29.666 0.166992 45.999 7.5s33.333 20.833 51 40.5s35.5 46.5 53.5 80.5z" />
    <glyph glyph-name="z" unicode="z" horiz-adv-x="403" 
d="M132 235c-4.66699 0.666992 -10 0.667969 -16 0.000976562s-11.667 -2 -17 -4s-9.83301 -5 -13.5 -9s-5.5 -9 -5.5 -15c0 -9.33301 5.16699 -10.333 15.5 -3s22.5 17.666 36.5 30.999zM403 364.001c4 6.66699 8.83594 8.16309 14.5029 4.49609
s7.16699 -8.16699 4.5 -13.5c-18 -39.333 -44.167 -75.333 -78.5 -108s-72.833 -61.667 -115.5 -87c-4.66699 -43.333 -13.834 -83 -27.501 -119s-30.5 -68.667 -50.5 -98s-42.333 -55.333 -67 -78s-50 -42 -76 -58c-34 -21.333 -66.333 -33.166 -97 -35.499
s-56.5 1.83398 -77.5 12.501s-35.833 26.667 -44.5 48s-8.66699 45.333 0 72c8 25.333 20.167 47.333 36.5 66s35.333 35.334 57 50.001s45 27.667 70 39s50 22 75 32l74 29.5c24.333 9.66699 46.166 20.167 65.499 31.5c0 10 -0.333008 20.667 -1 32s-3 22.333 -7 33
c-3.33301 -5.33301 -7.83301 -10.5 -13.5 -15.5s-11.834 -9.5 -18.501 -13.5s-13.667 -7.16699 -21 -9.5s-14 -2.83301 -20 -1.5c-8.66699 2.66699 -14.667 6.83398 -18 12.501s-5 11.667 -5 18s1.5 12.5 4.5 18.5s6.83301 11 11.5 15
c9.33301 7.33301 20.833 12.333 34.5 15s26.167 2.33398 37.5 -0.999023c16.667 21.333 28.667 43.5 36 66.5s10.5 44.167 9.5 63.5s-5.83301 35.166 -14.5 47.499s-20.667 18.5 -36 18.5s-33.666 -7.83301 -54.999 -23.5s-45.333 -41.5 -72 -77.5
c-2.66699 -2.66699 -5.66699 -4 -9 -4s-6 0.833008 -8 2.5s-3.33301 3.83398 -4 6.50098s0.333008 5.66699 3 9c28 36.667 55.833 63.667 83.5 81s52.834 26.666 75.501 27.999s41.667 -4.16699 57 -16.5s25 -29.166 29 -50.499s1.33301 -46.166 -8 -74.499
s-27.333 -57.833 -54 -88.5c10 -6.66699 19 -14.834 27 -24.501s12.667 -20.834 14 -33.501c39.333 25.333 74.166 52.5 104.499 81.5s55.166 61.5 74.499 97.5zM165.003 121.997c-23.333 -12.667 -47 -23.8311 -71 -33.498l-71.5 -27.5
c-23.667 -8.66699 -46.5 -17.667 -68.5 -27s-42.333 -20 -61 -32s-35.167 -26.333 -49.5 -43s-25.833 -36.667 -34.5 -60s-9.5 -44 -2.5 -62s19.5 -31.333 37.5 -40s40.167 -11.167 66.5 -7.5s54.5 16.167 84.5 37.5c18.667 13.333 36.667 30.166 54 50.499
s33.333 43.166 48 68.499s27.667 53 39 83s21 61 29 93z" />
    <glyph glyph-name="braceleft" unicode="{" horiz-adv-x="316" 
d="M151 36c2.66699 0.666992 5.50293 0.166016 8.50293 -1.50098s5 -4 6 -7s1.16699 -6.16699 0.5 -9.5s-3 -6 -7 -8c-13.333 -5.33301 -27.333 -8 -42 -8s-27.334 2.83301 -38.001 8.5s-18.5 14.667 -23.5 27s-4.83301 28.166 0.5 47.499
c4.66699 16 11.834 33.833 21.501 53.5l29.5 58.5c10 19.333 19.167 37.833 27.5 55.5s13.833 32.5 16.5 44.5c-4 -6 -8.66699 -9.83301 -14 -11.5s-10.166 -1.66699 -14.499 0s-7.83301 4.66699 -10.5 9s-3.33398 9.16602 -2.00098 14.499c0 8.66699 3.5 15.5 10.5 20.5
s15.5 6.16699 25.5 3.5c5.33301 14 11.666 32 18.999 54s15.666 45 24.999 69s19.833 47.167 31.5 69.5s25 40.5 40 54.5s31.833 22.333 50.5 25s39.334 -3.66602 62.001 -18.999c3.33301 -2 5.16602 -4.5 5.49902 -7.5s-0.333984 -5.83301 -2.00098 -8.5s-4 -4.5 -7 -5.5
s-6.16699 -0.5 -9.5 1.5c-16.667 10 -31.834 11.833 -45.501 5.5s-26.334 -17.666 -38.001 -33.999s-22.167 -36 -31.5 -59s-17.5 -45.5 -24.5 -67.5l-19 -60.5c-5.66699 -18.333 -10.5 -30.833 -14.5 -37.5c7.33301 -10 7.83301 -25.167 1.5 -45.5
s-15.333 -42.666 -27 -66.999l-36.5 -73c-12.667 -24.333 -21.667 -45.166 -27 -62.499s-4.66602 -29.333 2.00098 -36s23.334 -4.33398 50.001 6.99902z" />
    <glyph glyph-name="bar" unicode="|" horiz-adv-x="218" 
d="M62 714c0 10.667 7.00098 16 21.001 16c4 0 7.66699 -1.5 11 -4.5s5 -6.83301 5 -11.5v-698c0 -4 -1.66699 -7.83301 -5 -11.5s-7 -5.5 -11 -5.5c-6.66699 0 -11.834 1.83301 -15.501 5.5s-5.5 7.5 -5.5 11.5v698z" />
    <glyph glyph-name="braceright" unicode="}" horiz-adv-x="267" 
d="M112 572c-3.33301 -2 -6.16602 -2.33203 -8.49902 -0.999023s-4 3.5 -5 6.5s-1.16699 5.83301 -0.5 8.5s2.66699 4.66699 6 6c14.667 6 29.5 9.16699 44.5 9.5s28 -2.33398 39 -8.00098s18.833 -14.667 23.5 -27s4 -28.5 -2 -48.5
c-4.66699 -15.333 -11.834 -32.833 -21.501 -52.5s-19.834 -39.167 -30.501 -58.5l-29 -54.5c-8.66699 -17 -14 -30.833 -16 -41.5c10.667 10 21 12.5 31 7.5s15 -12.167 15 -21.5c-2.66699 -10 -7.5 -17 -14.5 -21s-15.833 -6 -26.5 -6c-6 -13.333 -12.333 -31 -19 -53
s-14.667 -44.833 -24 -68.5s-19.666 -46.667 -30.999 -69s-24.333 -40.5 -39 -54.5s-31.167 -22.167 -49.5 -24.5s-38.833 4.16699 -61.5 19.5c-3.33301 2 -5.16602 4.5 -5.49902 7.5s0.333984 5.66699 2.00098 8s3.83398 3.83301 6.50098 4.5s5.66699 -0.333008 9 -3
c16 -10 30.667 -11.667 44 -5s25.833 18.167 37.5 34.5s22.167 35.833 31.5 58.5s17.666 45 24.999 67s13.666 42 18.999 60s9.66602 30.667 12.999 38c-8 10.667 -8.66699 26.5 -2 47.5s16 43.667 28 68l37.5 73.5c13 24.667 22.167 45.667 27.5 63s4.5 29.333 -2.5 36
s-24.167 4.66699 -51.5 -6z" />
    <glyph glyph-name="asciitilde" unicode="~" horiz-adv-x="537" 
d="M71 152c-8 -4 -13.501 -4.66699 -16.501 -2s-4.5 5.66699 -4.5 9c11.333 36.667 25.666 62.334 42.999 77.001s36.333 23.167 57 25.5s42.667 0.666016 66 -5.00098s46.666 -10.334 69.999 -14.001s46.333 -4.33398 69 -2.00098s44 12.5 64 30.5
c1.33301 2.66699 3.33301 4 6 4s5.16699 -0.833008 7.5 -2.5s3.83301 -3.66699 4.5 -6s-0.333008 -4.83301 -3 -7.5c-17.333 -29.333 -35.666 -49.666 -54.999 -60.999s-39.5 -17.666 -60.5 -18.999s-42.167 0.166992 -63.5 4.5s-42.666 7.33301 -63.999 9
s-42.166 0.166992 -62.499 -4.5s-39.5 -16.667 -57.5 -36z" />
    <glyph glyph-name="quotesinglbase" unicode="&#x201a;" horiz-adv-x="299" 
d="M156 91c-15.333 4.66699 -26.333 11.5 -33 20.5s-9.83398 18.167 -9.50098 27.5s3.83301 17.5 10.5 24.5s15.667 10.5 27 10.5c20 0 33.5 -7.5 40.5 -22.5s7.5 -32.333 1.5 -52s-18.167 -39.167 -36.5 -58.5s-43.166 -33.333 -74.499 -42c-8 0 -13.667 2.66699 -17 8
s-2.33301 10 3 14c7.33301 2 15.5 4.5 24.5 7.5s17.667 7.33301 26 13s15.833 12.5 22.5 20.5s11.667 17.667 15 29z" />
    <glyph glyph-name="quotedblbase" unicode="&#x201e;" horiz-adv-x="378" 
d="M126 92c-15.333 4.66699 -26.333 11.5 -33 20.5s-9.83398 18.167 -9.50098 27.5s3.83301 17.5 10.5 24.5s15.667 10.5 27 10.5c20 0 33.5 -7.5 40.5 -22.5s7.5 -32.333 1.5 -52s-18.167 -39.167 -36.5 -58.5s-43.166 -33.333 -74.499 -42c-8 0 -13.667 2.66699 -17 8
s-2.33301 10 3 14c7.33301 2 15.5 4.5 24.5 7.5s17.667 7.33301 26 13s15.833 12.5 22.5 20.5s11.667 17.667 15 29zM270 92c-15.333 4.66699 -26.333 11.5 -33 20.5s-9.83398 18.167 -9.50098 27.5s3.83301 17.5 10.5 24.5s15.667 10.5 27 10.5c20 0 33.5 -7.5 40.5 -22.5
s7.5 -32.333 1.5 -52s-18.167 -39.167 -36.5 -58.5s-43.166 -33.333 -74.499 -42c-8 0 -13.667 2.66699 -17 8s-2.33301 10 3 14c7.33301 2 15.5 4.5 24.5 7.5s17.667 7.33301 26 13s15.833 12.5 22.5 20.5s11.667 17.667 15 29z" />
    <glyph glyph-name="a.001" horiz-adv-x="1899" 
d="M51 60c-2 -4 -4.66602 -5.33398 -7.99902 -4.00098s-4.33301 4.33301 -3 9c35.333 76 77 134.667 125 176s100.667 70.666 158 87.999s118.333 25.5 183 24.5s130.834 -5.83301 198.501 -14.5s135.834 -18.667 204.501 -30s136.167 -18.5 202.5 -21.5
s130.166 0.5 191.499 10.5s118.333 32.333 171 67c10.667 14 23 26.667 37 38s29 20.5 45 27.5s33 11.167 51 12.5s36.667 -1 56 -7c0.666992 0 1.16699 -0.166992 1.5 -0.5s0.833008 -0.5 1.5 -0.5l7 20h76l-20 -45.5l-30.5 -74.5l-33.5 -89.5
c-11.333 -31.667 -21.333 -61.834 -30 -90.501s-14.834 -54 -18.501 -76s-3.5 -37.5 0.5 -46.5s12.667 -10 26 -3s33 25.167 59 54.5c20 22.667 41 49 63 79l61 86.5c18.667 27.667 34.667 52.334 48 74.001s21.666 35.5 24.999 41.5c2 3.33301 4.66699 5.33301 8 6
s6.16602 0.166992 8.49902 -1.5s4 -4 5 -7s0.5 -6.5 -1.5 -10.5c-3.33301 -6 -11 -18.833 -23 -38.5l-44 -69.5c-17.333 -26.667 -36.666 -54.5 -57.999 -83.5s-42.666 -55.667 -63.999 -80s-41.833 -44.166 -61.5 -59.499s-36.834 -22.333 -51.501 -21
c-11.333 2 -20 7.66699 -26 17s-10.167 20.5 -12.5 33.5s-3.16602 27.333 -2.49902 43s2.16699 31 4.5 46s4.83301 28.833 7.5 41.5s5 23 7 31c-8 -8.66699 -17 -16.834 -27 -24.501s-20.5 -14.334 -31.5 -20.001s-22.167 -9.5 -33.5 -11.5s-22 -1.33301 -32 2
c-15.333 4.66699 -27 13.167 -35 25.5s-12.5 26.666 -13.5 42.999s1.16699 34 6.5 53s13.333 37.5 24 55.5c-49.333 -36 -103.333 -59.5 -162 -70.5s-119.834 -15.167 -183.501 -12.5s-129 9.83398 -196 21.501s-133.667 22.334 -200 32.001s-131.333 15.834 -195 18.501
s-124 -3.66602 -181 -18.999s-109.667 -42 -158 -80s-90.5 -93 -126.5 -165zM1658 412.999c-16.667 12 -33.999 14.5 -51.999 7.5s-35.167 -19.333 -51.5 -37s-30.833 -38.5 -43.5 -62.5s-22 -46.833 -28 -68.5s-7.83301 -40 -5.5 -55s10.833 -22.5 25.5 -22.5
c11.333 0 22.833 4 34.5 12s22.5 17.167 32.5 27.5s18.667 20.833 26 31.5s12.666 18.667 15.999 24c8 27.333 16.167 53.5 24.5 78.5z" />
    <glyph glyph-name="b.001" horiz-adv-x="1635" 
d="M1130 47c1.33301 3.33301 5.83203 16.502 13.499 39.502s18.334 52.5 32.001 88.5l48 121.5c18.333 45 39.166 91.167 62.499 138.5c-50 -4.66699 -102 -5 -156 -1s-108.833 9.66699 -164.5 17l-167.5 23c-56 8 -111.167 13.333 -165.5 16s-107 1.5 -158 -3.5
s-99.333 -17 -145 -36s-87.834 -46 -126.501 -81s-73 -81.167 -103 -138.5c-2 -4 -4.66699 -5.33301 -8 -4s-4.33301 4.33301 -3 9c30 64.667 64.667 117 104 157s81.833 70.5 127.5 91.5s94.334 34.167 146.001 39.5s105 6.33301 160 3s111 -9.66602 168 -18.999l171.5 -27
c57.333 -8.66699 114 -15.5 170 -20.5s110.333 -4.83301 163 0.5c22 42.667 45.5 84.334 70.5 125.001s51.167 77.5 78.5 110.5s56 60.667 86 83s60.667 36.833 92 43.5c18.667 4 34 1.66699 46 -7s20.167 -21.334 24.5 -38.001s4.5 -36 0.5 -58s-12.333 -44.667 -25 -68
c-12 -21.333 -27.5 -42.833 -46.5 -64.5s-41.333 -41.667 -67 -60s-54.834 -34.5 -87.501 -48.5s-68.667 -24.333 -108 -31c-12 -25.333 -23.833 -48.833 -35.5 -70.5s-20.167 -38.167 -25.5 -49.5c16.667 10.667 34.334 16.167 53.001 16.5s36.167 -3.83398 52.5 -12.501
s30.5 -21.334 42.5 -38.001s19.667 -37 23 -61c32 16 61.833 34.667 89.5 56s51.834 46.666 72.501 75.999c2 3.33301 4.5 5 7.5 5s5.83301 -0.666992 8.5 -2s4.66699 -3.5 6 -6.5s1 -5.83301 -1 -8.5c-22.667 -34 -50 -62.5 -82 -85.5s-65.667 -43.167 -101 -60.5
c-1.33301 -20 -6.16602 -41.167 -14.499 -63.5s-20 -43.333 -35 -63s-33.167 -36.667 -54.5 -51s-45.333 -23.166 -72 -26.499c-15.333 -2 -28.5 0.333008 -39.5 7s-18.667 15.834 -23 27.501s-5 25 -2 40s10.833 30.167 23.5 45.5c10 12 22.667 22.5 38 31.5
s30.833 16.667 46.5 23s30.334 11.5 44.001 15.5s24.167 7.33301 31.5 10c2 19.333 0.5 37.666 -4.5 54.999s-12.833 31.166 -23.5 41.499s-24.334 16 -41.001 17s-35.334 -4.83301 -56.001 -17.5l-22 -57.5l-27 -69l-26.5 -69.5l-21.5 -58zM1375 474.002
c35.333 7.33301 67.334 17.501 96.001 30.501s54.334 28 77.001 45s42.167 35.5 58.5 55.5s29.833 40 40.5 60c8 14.667 14.167 30.834 18.5 48.501s6.16602 33.5 5.49902 47.5s-4 24.833 -10 32.5s-15.333 9.5 -28 5.5c-20 -6.66699 -39.333 -17.834 -58 -33.501
s-36.667 -33.834 -54 -54.501s-33.5 -42.667 -48.5 -66s-28.833 -46 -41.5 -68s-23.834 -42.167 -33.501 -60.5zM1412 174.003c-26 -4.66699 -48.8311 -12.833 -68.498 -24.5s-36 -24.5 -49 -38.5s-22.333 -27.833 -28 -41.5s-7.83398 -24.834 -6.50098 -33.501
s6.5 -13.834 15.5 -15.501s21.833 2.83301 38.5 13.5c6 4 13.833 11 23.5 21s19.5 21.833 29.5 35.5s19.167 27.834 27.5 42.501s14.166 28.334 17.499 41.001z" />
    <glyph glyph-name="c.001" horiz-adv-x="1857" 
d="M89 60c-2 -4 -4.66504 -5.33594 -7.99805 -4.00293s-4.33301 4.33301 -3 9c35.333 76 77 134.667 125 176s100.667 70.666 158 87.999s118.333 25.5 183 24.5s130.834 -5.83301 198.501 -14.5s135.834 -18.667 204.501 -30s136.167 -18.5 202.5 -21.5
s130.166 0.5 191.499 10.5s118.333 32.333 171 67c7.33301 12 16.166 23.833 26.499 35.5s21.833 21.834 34.5 30.501s26 15.334 40 20.001s28.667 6.33398 44 5.00098c20 -2 34 -9.33301 42 -22s11.667 -27.334 11 -44.001s-4.33398 -33.667 -11.001 -51
s-15 -31.666 -25 -42.999c-2 -3.33301 -4.33301 -5 -7 -5s-5 0.833008 -7 2.5s-3.16699 4 -3.5 7s0.5 5.83301 2.5 8.5c16 21.333 26 41 30 59s3.83301 32.833 -0.5 44.5s-11.833 19.5 -22.5 23.5s-22.334 2.33301 -35.001 -5c-15.333 -8.66699 -30.5 -24.834 -45.5 -48.501
s-28.333 -50.834 -40 -81.501s-21.667 -62.667 -30 -96s-13.5 -63.833 -15.5 -91.5s-0.666992 -50.5 4 -68.5s14 -27 28 -27c17.333 0 36.5 6.83301 57.5 20.5s42.333 31.334 64 53.001s43 45.667 64 72s40.667 52.333 59 78s34.5 49.5 48.5 71.5s24.667 39.333 32 52
c4.66699 4 9.83398 4.5 15.501 1.5s7.16699 -7.83301 4.5 -14.5c-25.333 -42.667 -52.5 -84.667 -81.5 -126s-58.167 -78.5 -87.5 -111.5s-58 -59.833 -86 -80.5s-53.667 -32 -77 -34s-42.166 2 -56.499 12s-25.166 24 -32.499 42s-11.333 38.667 -12 62
s1.16602 48 5.49902 74s10.666 51.833 18.999 77.5s18.166 49.834 29.499 72.501c-49.333 -37.333 -103.333 -62 -162 -74s-120 -16.833 -184 -14.5s-129.5 9.33301 -196.5 21s-134 22.334 -201 32.001s-132.5 16 -196.5 19s-124.667 -3 -182 -18s-110.5 -41.667 -159.5 -80
s-91.5 -93.5 -127.5 -165.5z" />
    <glyph glyph-name="d.001" horiz-adv-x="393" 
d="M229 107c13.333 18.667 27.3379 39.3389 42.0049 62.0059l43.5 68.5l41.5 68l37 59.5c4.66699 5.33301 10 6.33301 16 3s7.33301 -8.66602 4 -15.999l-39.5 -65.5l-47.5 -77.5l-51.5 -78.5c-17.667 -25.667 -34.834 -48.5 -51.501 -68.5s-32.167 -35.833 -46.5 -47.5
s-26.5 -16.834 -36.5 -15.501c-16.667 3.33301 -28.5 12.666 -35.5 27.999s-11 33.166 -12 53.499s-0.166992 41.333 2.5 63s5.66699 40.167 9 55.5c-20.667 -19.333 -40.334 -32.166 -59.001 -38.499s-35.334 -7.5 -50.001 -3.5c-22 6 -35.5 18.167 -40.5 36.5
s-5.33301 38.5 -1 60.5s11.333 43.333 21 64s18.167 36 25.5 46c20.667 29.333 47.167 51.666 79.5 66.999s67.833 18 106.5 8l23 56c8 18.667 16.667 37.667 26 57c-50 -4 -101.833 -3.83301 -155.5 0.5s-108 10.166 -163 17.499l-166 22
c-55.667 7.33301 -110.334 12.166 -164.001 14.499s-105.667 0.666016 -156 -5.00098s-98 -18 -143 -37s-86.833 -46 -125.5 -81s-72.667 -80.833 -102 -137.5c-2 -4 -4.66699 -5.33301 -8 -4s-4.33301 4.33301 -3 9c30 64 64.333 115.833 103 155.5s80.667 70 126 91
s93.5 34.5 144.5 40.5s103.667 7.33301 158 4s109.833 -9.5 166.5 -18.5l170 -26.5c56.667 -8.66699 112.667 -15.667 168 -21s109.333 -5.66602 162 -0.999023c16.667 34 34.334 67.5 53.001 100.5s38.334 63.667 59.001 92s42 54 64 77s44.667 42.167 68 57.5
c36 23.333 66.5 35.166 91.5 35.499s43.667 -7.16699 56 -22.5s17.833 -36.333 16.5 -63s-10.666 -55.334 -27.999 -86.001c-12 -21.333 -27.5 -42.833 -46.5 -64.5s-41.333 -41.667 -67 -60s-54.834 -34.5 -87.501 -48.5s-68.667 -24.333 -108 -31
c-10.667 -20 -22.834 -45.833 -36.501 -77.5l-42.5 -102.5c-14.667 -36.667 -28.834 -74 -42.501 -112s-25.334 -73.333 -35.001 -106s-16.667 -61 -21 -85s-4.33301 -40 0 -48s13.5 -6.5 27.5 4.5s34.333 34.833 61 71.5zM330.005 588.005
c35.333 7.33301 67.332 17.498 95.999 30.498s54.334 28 77.001 45s42.167 35.5 58.5 55.5s29.833 40 40.5 60c10 19.333 17.667 40 23 62s6 39.667 2 53s-13.833 19.833 -29.5 19.5s-39.5 -13.166 -71.5 -38.499c-18.667 -14.667 -37.167 -33.5 -55.5 -56.5
s-36 -47.667 -53 -74s-32.833 -53.166 -47.5 -80.499zM176.004 417.003c-18 9.33301 -35.666 9.33398 -52.999 0.000976562s-33.333 -23.666 -48 -42.999s-27.334 -41.333 -38.001 -66s-18.167 -47.5 -22.5 -68.5s-4.83301 -38 -1.5 -51s11.333 -17.5 24 -13.5
c17.333 5.33301 32.333 15.166 45 29.499s24 28.166 34 41.499c11.333 29.333 21.5 58.833 30.5 88.5s18.833 57.167 29.5 82.5z" />
    <glyph glyph-name="e.001" horiz-adv-x="1883" 
d="M115 60c-2 -4 -4.66504 -5.33887 -7.99805 -4.00586s-4.33301 4.33301 -3 9c35.333 76 77 134.667 125 176s100.667 70.666 158 87.999s118.333 25.5 183 24.5s130.834 -5.83301 198.501 -14.5s135.834 -18.667 204.501 -30s136.167 -18.5 202.5 -21.5
s130.166 0.5 191.499 10.5s118.333 32.333 171 67c7.33301 12 16.166 24 26.499 36s21.666 22.5 33.999 31.5s25.666 15.667 39.999 20s28.833 5.16602 43.5 2.49902c17.333 -3.33301 29 -13.166 35 -29.499s4.5 -35.166 -4.5 -56.499s-26.667 -42.666 -53 -63.999
s-62.833 -38.666 -109.5 -51.999c-8 -28 -14.333 -56.167 -19 -84.5s-7 -53.666 -7 -75.999s2.66699 -40.333 8 -54s14 -20.5 26 -20.5c17.333 0 36.5 6.83301 57.5 20.5s42.333 31.334 64 53.001s43 45.667 64 72s40.667 52.333 59 78s34.5 49.5 48.5 71.5
s24.667 39.333 32 52c4.66699 4 9.83398 4.5 15.501 1.5s7.16699 -7.83301 4.5 -14.5c-25.333 -42.667 -52.5 -84.667 -81.5 -126s-58.167 -78.5 -87.5 -111.5s-58 -59.833 -86 -80.5s-53.667 -32 -77 -34s-42.166 2 -56.499 12s-25.166 24 -32.499 42
s-11.333 38.667 -12 62s1.16602 48 5.49902 74s10.666 51.833 18.999 77.5s18.166 49.834 29.499 72.501c-49.333 -37.333 -103.333 -62 -162 -74s-120 -16.833 -184 -14.5s-129.5 9.33301 -196.5 21s-134 22.334 -201 32.001s-132.5 16 -196.5 19s-124.667 -3 -182 -18
s-110.5 -41.667 -159.5 -80s-91.5 -93.5 -127.5 -165.5zM1650 430.994c-18 -10 -35.1699 -29.499 -51.5029 -58.499s-30.166 -61.5 -41.499 -97.5c32.667 13.333 58.834 27 78.501 41s34.334 27.5 44.001 40.5s15.167 25.167 16.5 36.5s0 20.5 -4 27.5s-10 11.667 -18 14
s-16 1.16602 -24 -3.50098z" />
    <glyph glyph-name="f.001" horiz-adv-x="1565" 
d="M1266 365l10.0029 22.999c3.33301 8 7 15.667 11 23c-50 -4 -101.833 -3.66699 -155.5 1s-108 10.834 -163 18.501l-165.5 23c-55.333 7.66699 -109.833 12.834 -163.5 15.501s-105.667 1.16699 -156 -4.5s-97.833 -17.834 -142.5 -36.501s-86.167 -45.5 -124.5 -80.5
s-72.166 -80.833 -101.499 -137.5c-2 -4 -4.66699 -5.33301 -8 -4s-4.33301 4.33301 -3 9c30 64 64.333 115.833 103 155.5s80.5 70.167 125.5 91.5s93 34.833 144 40.5s103.667 7 158 4s109.833 -9 166.5 -18l170 -27c56.667 -9 112.667 -16.167 168 -21.5
s109.333 -5.66602 162 -0.999023c18 36.667 37.167 72.167 57.5 106.5s41 64.833 62 91.5s42.167 48 63.5 64s42 24 62 24c19.333 0 35.166 -6.5 47.499 -19.5s18.5 -31.5 18.5 -55.5c0 -18 -4.16699 -37.667 -12.5 -59s-21.666 -42.333 -39.999 -63
s-42.5 -40.334 -72.5 -59.001s-67 -35 -111 -49l-36.5 -80.5l-31 -69.5l-34 -76.5l-45.5 -101.5c31.333 14 62.666 31 93.999 51s61.666 42 90.999 66s56.833 49.333 82.5 76s48.5 53.334 68.5 80.001c2.66699 4 5.83398 6.16699 9.50098 6.5s6.66699 -0.5 9 -2.5
s3.83301 -4.66699 4.5 -8s-0.333008 -6.33301 -3 -9c-49.333 -64 -105.333 -121.333 -168 -172s-129.667 -89.667 -201 -117c19.333 -20.667 32.166 -45.5 38.499 -74.5s8 -59.333 5 -91s-10.167 -62.834 -21.5 -93.501s-24.833 -58.334 -40.5 -83.001
s-32.834 -44.667 -51.501 -60s-37.334 -23 -56.001 -23c-14.667 0 -26.5 6 -35.5 18s-13.5 29.667 -13.5 53c0 22.667 3.66699 50.334 11 83.001s17 68.167 29 106.5s25.833 78.333 41.5 120l48.5 123.5l49.5 118.5zM1206 35.999l-48.499 -123.5l-39.5 -106.5
c-11.333 -32 -20.333 -59.333 -27 -82s-10 -38.667 -10 -48c0 -6 2.83301 -9.5 8.5 -10.5s12.667 0.333008 21 4s17.666 9.83398 27.999 18.501s20.5 19.667 30.5 33c14 19.333 26.833 43.166 38.5 71.499s20 57.5 25 87.5s5.66699 59 2 87s-13.167 51 -28.5 69z
M1391 453.999c36.667 12.667 67.167 27.1689 91.5 43.502s44 33.166 59 50.499s25.667 34.333 32 51s9.5 32 9.5 46c0 15.333 -3.16699 27.666 -9.5 36.999s-14.166 14 -23.499 14c-8 0 -17 -5 -27 -15s-20.333 -22.667 -31 -38s-21.334 -32.5 -32.001 -51.5
s-20.5 -37.5 -29.5 -55.5l-24 -49z" />
    <glyph glyph-name="g.001" horiz-adv-x="1987" 
d="M105 60c-2 -4 -4.6709 -5.33203 -8.00391 -3.99902s-4.33301 4.33301 -3 9c35.333 76 77 134.667 125 176s100.667 70.666 158 87.999s118.333 25.5 183 24.5s130.834 -5.83301 198.501 -14.5s135.834 -18.667 204.501 -30s136.167 -18.5 202.5 -21.5
s130.166 0.5 191.499 10.5s118.333 32.333 171 67c8.66699 14 19.5 26.833 32.5 38.5s27.5 21.167 43.5 28.5s33.333 11.833 52 13.5s38.667 -0.166016 60 -5.49902l4 15h69l-39 -142.5c-14 -49.667 -28.333 -97.167 -43 -142.5c24 9.33301 48 19.666 72 30.999
s47.667 24.666 71 39.999s46.5 33.166 69.5 53.499s45.5 43.833 67.5 70.5c5.33301 6 10.833 7.16699 16.5 3.5s6.83398 -9.16699 3.50098 -16.5c-24 -30 -49 -56.167 -75 -78.5s-52 -41.666 -78 -57.999s-52.167 -30.5 -78.5 -42.5s-51.833 -22.667 -76.5 -32
c-2.66699 -5.33301 -7.5 -19.5 -14.5 -42.5s-16.333 -50.667 -28 -83s-25.667 -67.5 -42 -105.5s-35 -74.667 -56 -110s-44.333 -67.333 -70 -96s-53.5 -50 -83.5 -64c-23.333 -10.667 -45.666 -15.5 -66.999 -14.5s-40.166 7 -56.499 18s-29 26.333 -38 46
s-12.833 43 -11.5 70s8.83301 57 22.5 90s34.834 67.833 63.501 104.5c22 28 45.333 51.667 70 71s50.167 36 76.5 50s53.333 26.333 81 37l82.5 31c2 6.66699 3.66699 12.5 5 17.5s2.66602 9.66699 3.99902 14s2.66602 9 3.99902 14s3.33301 11.167 6 18.5
c-15.333 -12 -31.833 -21.5 -49.5 -28.5s-34.167 -8.83301 -49.5 -5.5c-16 2.66699 -28.167 9.83398 -36.5 21.501s-13.5 25.5 -15.5 41.5s-1.33301 33.167 2 51.5s9 35.833 17 52.5c-49.333 -37.333 -103.333 -62 -162 -74s-120 -16.667 -184 -14s-129.667 9.66699 -197 21
s-134.333 22 -201 32s-132.167 16.333 -196.5 19s-125.166 -3.5 -182.499 -18.5s-110.5 -41.667 -159.5 -80s-91.5 -93.5 -127.5 -165.5zM1398 -329.999c26.667 22.667 51.333 52.665 74 89.998s43 77 61 119s34.167 83.833 48.5 125.5l38.5 110.5l-88.5 -35.5
c-28.333 -11.667 -55.5 -25.334 -81.5 -41.001s-50.667 -34.5 -74 -56.5s-45.333 -49 -66 -81c-18 -28.667 -31.167 -55.167 -39.5 -79.5s-12.5 -47.166 -12.5 -68.499c0 -22.667 4 -42.5 12 -59.5s18.5 -29.667 31.5 -38s27.833 -11.666 44.5 -9.99902
s34 9.83398 52 24.501zM1662 255.999l10.5 38.999l11.5 43l12 43l11 38c-13.333 9.33301 -27.833 10.333 -43.5 3s-30.667 -19.166 -45 -35.499s-27.666 -35.5 -39.999 -57.5s-21.833 -43 -28.5 -63s-10.167 -37.333 -10.5 -52s4.5 -23 14.5 -25
c8.66699 -2 18.5 -0.5 29.5 4.5s21.833 11.333 32.5 19s20.167 15.5 28.5 23.5s14.166 14.667 17.499 20z" />
    <glyph glyph-name="h.001" 
d="M239 451c14 -7.33301 20.0039 -23.3291 18.0039 -47.9961s-8.33301 -53.334 -19 -86.001s-23.334 -66.334 -38.001 -101.001l-38 -93c-11.333 -29.333 -18.333 -52 -21 -68s-1.5 -25.667 3.5 -29s14 -0.5 27 8.5s29.167 23.5 48.5 43.5
c18.667 19.333 37 41.666 55 66.999s35.167 51 51.5 77l46 76.5l39.5 66.5c2 4 4.66699 6.33301 8 7s6.33301 0.166992 9 -1.5s4.5 -4.16699 5.5 -7.5s0.166992 -7 -2.5 -11c-5.33301 -8 -14.333 -23.833 -27 -47.5s-27.834 -50.334 -45.501 -80.001
s-37.167 -59.667 -58.5 -90s-43.333 -56.5 -66 -78.5c-25.333 -24 -47.666 -40.167 -66.999 -48.5s-34.833 -9.16602 -46.5 -2.49902s-19.167 20.167 -22.5 40.5s-1.33301 46.833 6 79.5c9.33301 46.667 22 89 38 127l50 114c7.33301 16 12.333 29.833 15 41.5
s2.66699 19.5 0 23.5s-7.83398 3.83301 -15.501 -0.5s-18.5 -14.5 -32.5 -30.5c-50 -58.667 -95.5 -122.834 -136.5 -192.501s-76.167 -138.834 -105.5 -207.501h-66l31 80l33.5 85l38 93.5l45.5 106.5l43.5 99l40.5 88c-50 -4.66699 -102 -5 -156 -1
s-108.667 9.66699 -164 17l-167.5 22.5c-56.333 7.66699 -111.5 12.667 -165.5 15s-106.5 0.833008 -157.5 -4.5s-99.333 -17.5 -145 -36.5s-87.834 -46 -126.501 -81s-73 -81.167 -103 -138.5c-2 -4 -4.66699 -5.33301 -8 -4s-4.33301 4.33301 -3 9
c30 64.667 64.5 116.834 103.5 156.501s81.5 70.167 127.5 91.5s94.667 34.666 146 39.999s104.5 6.33301 159.5 3s111 -9.66602 168 -18.999l171 -27c57 -8.66699 113.333 -15.5 169 -20.5s109.834 -4.83301 162.501 0.5c22.667 46 44.5 87.167 65.5 123.5
s41.833 68.333 62.5 96s41.667 51.5 63 71.5s43.666 36.667 66.999 50c25.333 14 48.5 20.167 69.5 18.5s37.667 -9.5 50 -23.5s19 -33.5 20 -58.5s-6.16699 -53.833 -21.5 -86.5c-10.667 -22 -25.334 -43.833 -44.001 -65.5s-41.167 -41.667 -67.5 -60s-56 -34.333 -89 -48
s-69.167 -23.834 -108.5 -30.501c-22 -50 -45.667 -101 -71 -153s-49 -104.333 -71 -157c10 18.667 23.333 41.334 40 68.001s35 51.5 55 74.5s40.667 40.667 62 53s42 13.5 62 3.5zM174.004 588.004c35.333 7.33301 67.332 17.501 95.999 30.501s54.334 28 77.001 45
s42.167 35.5 58.5 55.5s29.833 40 40.5 60c10 19.333 16.667 39.333 20 60s2.5 37.5 -2.5 50.5s-15 20.167 -30 21.5s-35.5 -7.33398 -61.5 -26.001c-19.333 -14 -38.333 -32.833 -57 -56.5s-36.5 -49.5 -53.5 -77.5s-32.833 -56.333 -47.5 -85z" />
    <glyph glyph-name="i.001" horiz-adv-x="1793" 
d="M109 60c-2 -4 -4.66602 -5.33398 -7.99902 -4.00098s-4.33301 4.33301 -3 9c35.333 76 77 134.667 125 176s100.667 70.666 158 87.999s118.333 25.5 183 24.5s130.834 -5.83301 198.501 -14.5s135.834 -18.667 204.501 -30s136.167 -18.5 202.5 -21.5
s130.166 0.5 191.499 10.5s118.333 32.333 171 67l15.5 40.5l19.5 49.5l75 -1l-16 -40l-27 -70l-31 -85.5c-10.667 -30.333 -20 -59.5 -28 -87.5s-14 -53 -18 -75s-4.5 -38.167 -1.5 -48.5s10.5 -13.333 22.5 -9s29.667 19.5 53 45.5
c20.667 22.667 41.834 48.834 63.501 78.501l60.5 86.5l48 74.5c13.333 21.667 21.666 35.5 24.999 41.5c2 3.33301 4.66699 5.33301 8 6s6.16602 0.166992 8.49902 -1.5s4 -4 5 -7s0.5 -6.5 -1.5 -10.5c-3.33301 -6 -10.833 -18.667 -22.5 -38l-43 -68
c-17 -26 -35.667 -53.167 -56 -81.5s-41 -54.333 -62 -78s-41.167 -42.667 -60.5 -57s-36 -20.5 -50 -18.5c-16.667 2 -28.667 9.66699 -36 23s-11.666 30 -12.999 50s0 42.167 4 66.5s8.83301 48.5 14.5 72.5s12 46.667 19 68l17.5 54
c-39.333 -31.333 -81.833 -54 -127.5 -68s-93.334 -22.333 -143.001 -25s-100.834 -1.16699 -153.501 4.5s-106 12.834 -160 21.501l-162 26c-54 8.66699 -107 14.667 -159 18s-102.333 2.5 -151 -2.5s-94.834 -17.167 -138.501 -36.5s-84.167 -46.833 -121.5 -82.5
s-70.666 -82.5 -99.999 -140.5zM1622 562.999c13.333 0.666992 23.333 -3.50098 30 -12.501s10 -19 10 -30s-3.33301 -21.167 -10 -30.5s-16.667 -14 -30 -14c-14 0 -24.5 4.33301 -31.5 13s-10.5 18.334 -10.5 29.001s3.5 20.667 10.5 30s17.5 14.333 31.5 15z" />
    <glyph glyph-name="j.001" horiz-adv-x="1812" 
d="M103 60c-2 -4 -4.66406 -5.32812 -7.99707 -3.99512s-4.33301 4.33301 -3 9c35.333 76 77 134.667 125 176s100.667 70.666 158 87.999s118.333 25.5 183 24.5s130.834 -5.83301 198.501 -14.5s135.834 -18.667 204.501 -30s136.167 -18.5 202.5 -21.5
s130.166 0.5 191.499 10.5s118.333 32.333 171 67l26 90h77c-6 -22 -12.667 -45.167 -20 -69.5l-23 -73.5l-24 -73c-8 -24 -15.333 -47 -22 -69c22.667 9.33301 45.5 19.666 68.5 30.999s46 24.666 69 39.999s45.833 33.166 68.5 53.499s44.667 43.833 66 70.5
c4 4.66699 7.66699 7.16699 11 7.5s6.16602 -0.833984 8.49902 -3.50098s3.66602 -5.66699 3.99902 -9s-0.833984 -6 -3.50098 -8c-25.333 -30 -50.5 -56.167 -75.5 -78.5s-50.167 -41.666 -75.5 -57.999s-50.833 -30.5 -76.5 -42.5s-51.167 -22.667 -76.5 -32
c-14 -42.667 -30.5 -89.834 -49.5 -141.501s-40.5 -101.5 -64.5 -149.5s-50.667 -91 -80 -129s-61.333 -65 -96 -81c-25.333 -10 -48.666 -14.833 -69.999 -14.5s-39.833 5.5 -55.5 15.5s-27.834 24.5 -36.501 43.5s-13 41.5 -13 67.5c0 52.667 12.667 100.334 38 143.001
s57.5 80.167 96.5 112.5s82 60.166 129 83.499s92.167 42 135.5 56c12 37.333 22.667 72.333 32 105l27 94c-49.333 -39.333 -103.333 -65.5 -162 -78.5s-120.167 -18.5 -184.5 -16.5s-130.333 8.66699 -198 20l-202.5 32.5c-67.333 10.333 -133.333 17 -198 20
s-125.834 -2.83301 -183.501 -17.5s-111.167 -41.167 -160.5 -79.5s-92.333 -93.833 -129 -166.5zM1219 -326.995c25.333 20.667 49 47.3359 71 80.0029s42.5 68.667 61.5 108s36.667 80.666 53 123.999s31.5 86 45.5 128c-39.333 -12 -80.166 -28.5 -122.499 -49.5
s-81 -46.667 -116 -77s-64 -65 -87 -104s-35.167 -82.5 -36.5 -130.5c-0.666992 -22.667 2.16602 -42.334 8.49902 -59.001s15.5 -29.167 27.5 -37.5s26 -11.333 42 -9s33.667 11.166 53 26.499zM1561 517.007c-1.33301 13.333 2.00098 23.8359 10.001 31.5029
s17 12.167 27 13.5s19.5 -0.833984 28.5 -6.50098s14.167 -15.167 15.5 -28.5c1.33301 -15.333 -1.83398 -26.833 -9.50098 -34.5s-16.667 -11.834 -27 -12.501s-20 2.16602 -29 8.49902s-14.167 15.833 -15.5 28.5z" />
    <glyph glyph-name="k.001" horiz-adv-x="464" 
d="M-134 -2l17.0039 48.5049l29.5 83.5l39.5 109.5c14.667 40.333 30.667 82.166 48 125.499l38 93l42 94c-50 -4 -101.833 -3.83301 -155.5 0.5s-108.167 10.166 -163.5 17.499l-166.5 22c-55.667 7.33301 -110.5 12.166 -164.5 14.499s-106.333 0.833008 -157 -4.5
s-98.5 -17.5 -143.5 -36.5s-86.833 -46.167 -125.5 -81.5s-72.667 -81.333 -102 -138c-2 -4 -4.66699 -5.33301 -8 -4s-4.33301 4.33301 -3 9c30 64.667 64.5 116.667 103.5 156s81.167 69.666 126.5 90.999s93.5 35 144.5 41s103.667 7.33301 158 4
s109.833 -9.5 166.5 -18.5l170.5 -26.5c57 -8.66699 113.167 -15.667 168.5 -21s109.333 -5.66602 162 -0.999023c17.333 36 35.333 70.667 54 104s38.167 64.166 58.5 92.499s41.333 53.666 63 75.999s44.167 40.166 67.5 53.499c36.667 21.333 67.667 32 93 32
s44 -7.33301 56 -22s17.167 -35 15.5 -61s-11.167 -54.333 -28.5 -85c-12 -21.333 -27.5 -42.833 -46.5 -64.5s-41.333 -41.667 -67 -60s-54.834 -34.5 -87.501 -48.5s-68.667 -24.333 -108 -31l-50 -112.5l-59 -144.5c12 11.333 26.667 24 44 38s36.166 27.333 56.499 40
s42 23.667 65 33s46.167 15.333 69.5 18c17.333 2 30.666 -1.5 39.999 -10.5s11.333 -20.5 6 -34.5c-3.33301 -9.33301 -10.666 -19.833 -21.999 -31.5s-24.833 -23.5 -40.5 -35.5s-33 -23.5 -52 -34.5s-38 -21 -57 -30s-37.167 -16.5 -54.5 -22.5s-32 -9.33301 -44 -10
c3.33301 -23.333 9.5 -48.333 18.5 -75s20.333 -49.667 34 -69s29.334 -32.333 47.001 -39s36.5 -2 56.5 14c28.667 22.667 56.167 48.834 82.5 78.501s50.166 59 71.499 88s39.833 56.167 55.5 81.5s27.5 45.666 35.5 60.999c2 2.66699 4.66699 4.5 8 5.5
s6.16602 0.833008 8.49902 -0.5s4 -3.5 5 -6.5s0.5 -6.83301 -1.5 -11.5c-8 -16 -19.333 -36.333 -34 -61s-31.834 -50.667 -51.501 -78s-41.167 -54.666 -64.5 -81.999s-47.333 -51.333 -72 -72s-49.5 -36.5 -74.5 -47.5s-49.167 -14 -72.5 -9s-45.333 19.333 -66 43
s-38.667 60.167 -54 109.5l-13.5 -38.5l-14.5 -43l-13.5 -41l-10.5 -32.5zM173.004 588.005c35.333 7.33301 67.665 17.5 96.998 30.5s55.5 28 78.5 45s42.833 35.5 59.5 55.5s30.334 40 41.001 60c10.667 20.667 17.667 41.667 21 63s1.5 38.5 -5.5 51.5
s-19.167 19.333 -36.5 19s-41 -11.5 -71 -33.5c-19.333 -14 -37.5 -32.667 -54.5 -56s-33.167 -48.5 -48.5 -75.5s-29.666 -54.5 -42.999 -82.5zM66.0029 241.005c14 2 31.6689 7.8291 53.002 17.4961s43.166 21.334 65.499 35.001s43.333 27.834 63 42.501
s35.167 28 46.5 40c11.333 12.667 16 23.167 14 31.5s-10.333 10.833 -25 7.5c-18.667 -3.33301 -39 -11.666 -61 -24.999s-43.333 -28.666 -64 -45.999s-39.334 -35.333 -56.001 -54s-28.667 -35 -36 -49z" />
    <glyph glyph-name="l.001" horiz-adv-x="337" 
d="M5 28c16 2.66699 35.5049 13.1768 58.5049 31.5098s46.833 40.166 71.5 65.499s49.334 52.333 74.001 81l65.5 79l46 59c11.667 15.333 17.167 22.333 16.5 21c2 3.33301 4.66699 5.33301 8 6s6.16602 0.166992 8.49902 -1.5s4 -4 5 -7s0.5 -6.5 -1.5 -10.5
c-53.333 -72 -104.333 -134.667 -153 -188c-20.667 -22.667 -41.834 -44.5 -63.501 -65.5s-42.834 -38.833 -63.501 -53.5s-39.834 -25.334 -57.501 -32.001s-32.834 -7 -45.501 -1c-13.333 6 -22.333 17.833 -27 35.5s-6.5 38.167 -5.5 61.5s4 48.166 9 74.499
s10.667 51.5 17 75.5s12.666 45.5 18.999 64.5s10.833 32.833 13.5 41.5c21.333 62.667 46.666 125 75.999 187c-50 -4 -101.667 -3.83301 -155 0.5s-107.666 10.166 -162.999 17.499l-166 22.5c-55.333 7.66699 -109.833 12.5 -163.5 14.5s-105.667 0.166992 -156 -5.5
s-98 -18 -143 -37s-86.667 -46 -125 -81s-72.166 -80.833 -101.499 -137.5c-2 -4 -4.66699 -5.33301 -8 -4s-4.33301 4.33301 -3 9c30 64 64.333 115.833 103 155.5s80.5 70 125.5 91s93 34.5 144 40.5s103.5 7.5 157.5 4.5s109.167 -9 165.5 -18l169.5 -26.5
c56.667 -8.66699 112.667 -15.667 168 -21s109.333 -6 162 -2c17.333 35.333 35.5 69.5 54.5 102.5s39 63.667 60 92s42.5 53.666 64.5 75.999s44.667 41.166 68 56.499c36 23.333 66.5 35.166 91.5 35.499s43.667 -7.16699 56 -22.5s17.833 -36.333 16.5 -63
s-10.666 -55.334 -27.999 -86.001c-12 -21.333 -27.5 -42.833 -46.5 -64.5s-41.333 -41.667 -67 -60s-54.834 -34.5 -87.501 -48.5s-68.667 -24.333 -108 -31c-16 -32.667 -32.333 -68.834 -49 -108.501s-32.334 -79.5 -47.001 -119.5s-27.834 -78.833 -39.501 -116.5
s-20.667 -70.834 -27 -99.501s-9.16602 -51.167 -8.49902 -67.5s5.66699 -23.833 15 -22.5zM173.005 588.01c35.333 7.33301 67.3311 17.499 95.998 30.499s54.334 28 77.001 45s42.167 35.5 58.5 55.5s29.833 40 40.5 60c10 19.333 17.667 39.5 23 60.5s6 38 2 51
s-13.5 19.333 -28.5 19s-37.5 -12.166 -67.5 -35.499c-18.667 -14.667 -37.5 -33.334 -56.5 -56.001s-37.167 -47.167 -54.5 -73.5s-33.666 -53.166 -48.999 -80.499z" />
    <glyph glyph-name="m.001" horiz-adv-x="2153" 
d="M132 60c-2 -4 -4.67383 -5.33301 -8.00684 -4s-4.33301 4.33301 -3 9c35.333 76 77 134.667 125 176s100.667 70.666 158 87.999s118.333 25.5 183 24.5s130.834 -5.83301 198.501 -14.5s135.834 -18.667 204.501 -30s136.167 -18.5 202.5 -21.5
s130.166 0.5 191.499 10.5s118.333 32.333 171 67l29 90h77l-14 -41c-6 -18 -12.833 -37.5 -20.5 -58.5l-23 -64.5l-21.5 -60l53 81c19.333 28.667 39.333 54.5 60 77.5s41.334 40.667 62.001 53s40.334 15.166 59.001 8.49902c6.66699 -2.66699 11.834 -7.5 15.501 -14.5
s6 -15 7 -24s0.666992 -18.5 -1 -28.5s-4.5 -19.667 -8.5 -29c12 16 24.5 30.833 37.5 44.5s26.167 25 39.5 34s26.333 15.167 39 18.5s24.334 3 35.001 -1c9.33301 -4 14.666 -12.333 15.999 -25s-0.166992 -28 -4.5 -46s-10.666 -38 -18.999 -60
s-17.333 -44.167 -27 -66.5l-29 -65.5c-9.66699 -21.333 -17.834 -40.333 -24.501 -57c-22.667 -54 -27.5 -85.667 -14.5 -95s39.5 5.66699 79.5 45c20 19.333 39.167 41.333 57.5 66s35.833 50 52.499 76c16.667 26 32.167 51.333 46.5 76l39.5 66c2 4 4.66699 6.33301 8 7
s6.33301 0.166992 9 -1.5s4.5 -4.16699 5.5 -7.5s0.166992 -7 -2.5 -11c-5.33301 -8 -14 -22.833 -26 -44.5s-26.5 -46.167 -43.5 -73.5s-35.833 -55.666 -56.5 -84.999s-41.667 -55.333 -63 -78s-42.666 -40 -63.999 -52s-41 -14.333 -59 -7
c-14.667 4 -24.334 13 -29.001 27s-6 31 -4 51s6.33301 41.833 13 65.5s14.334 46.667 23.001 69s17.167 43 25.5 62s15.166 33.833 20.499 44.5l18.5 41c5.66699 12.667 9.83398 23.5 12.501 32.5s4 16 4 21s-2 6.83301 -6 5.5
c-6.66699 -1.33301 -16.167 -7.83301 -28.5 -19.5s-24.666 -24.667 -36.999 -39s-23.833 -28.5 -34.5 -42.5s-18 -24 -22 -30l-39.5 -73c-13 -24.667 -24.833 -48.667 -35.5 -72h-69c14 32.667 28.833 64 44.5 94s28.167 55 37.5 75c7.33301 16 13.333 31 18 45
s7.83398 26.167 9.50098 36.5s1.66699 17.833 0 22.5s-5.16699 5.66699 -10.5 3c-14.667 -7.33301 -30.5 -20.666 -47.5 -39.999s-33.5 -40.333 -49.5 -63s-30.667 -44.667 -44 -66l-31 -50c-10.667 -18 -20.667 -37.5 -30 -58.5s-17.666 -41.333 -24.999 -61
s-13.666 -37.834 -18.999 -54.501l-12 -38h-70l19 63l26 88l30 98.5l30 95.5c-39.333 -31.333 -81.833 -54 -127.5 -68s-93.334 -22.333 -143.001 -25s-101 -1.16699 -154 4.5s-106.5 12.834 -160.5 21.501l-162 26c-54 8.66699 -107 14.667 -159 18s-102.333 2.5 -151 -2.5
s-94.834 -17.167 -138.501 -36.5s-84.167 -46.833 -121.5 -82.5s-70.666 -82.5 -99.999 -140.5z" />
    <glyph glyph-name="n.001" horiz-adv-x="1967" 
d="M113 60c-2 -4 -4.66113 -5.3291 -7.99414 -3.99609s-4.33301 4.33301 -3 9c35.333 76 77 134.667 125 176s100.667 70.666 158 87.999s118.333 25.5 183 24.5s130.834 -5.83301 198.501 -14.5s135.834 -18.667 204.501 -30s136.167 -18.5 202.5 -21.5
s130.166 0.5 191.499 10.5s118.333 32.333 171 67l34 90h71l-18 -44l-28 -70.5l-30 -77.5l-25 -64c15.333 28 34 58.833 56 92.5s46.333 65.5 73 95.5c10 11.333 20.667 21.666 32 30.999s22.5 17 33.5 23s21.5 10 31.5 12s19.333 1.33301 28 -2
c9.33301 -4 14.666 -12.167 15.999 -24.5s0.166016 -27.333 -3.50098 -45s-9.66699 -37.334 -18 -59.001s-17.333 -43.834 -27 -66.501l-30 -68l-27.5 -62c-23.333 -53.333 -28 -84 -14 -92s41 7.66699 81 47c20 19.333 39.167 41.333 57.5 66s35.833 50 52.5 76
s32.167 51.333 46.5 76l39.5 66c2 4 4.66699 6.33301 8 7s6.33301 0.166992 9 -1.5s4.5 -4.16699 5.5 -7.5s0.166992 -7 -2.5 -11c-5.33301 -8 -13.833 -22.667 -25.5 -44s-25.834 -45.5 -42.501 -72.5s-35 -55 -55 -84s-40.667 -54.833 -62 -77.5
s-42.833 -40.167 -64.5 -52.5s-42.5 -15.5 -62.5 -9.5c-14.667 4 -24.167 13.333 -28.5 28s-5.66602 32 -3.99902 52s6 41.5 13 64.5s14.667 45.667 23 68s16.666 43 24.999 62s15.166 33.833 20.499 44.5l18.5 41c5.66699 12.667 9.83398 23.5 12.501 32.5s4 16 4 21
s-2 6.83301 -6 5.5c-4.66699 -0.666992 -10.334 -3.83398 -17.001 -9.50098s-13.667 -12.5 -21 -20.5s-15 -16.833 -23 -26.5s-15.333 -19.167 -22 -28.5c-14.667 -18.667 -31.667 -42.667 -51 -72l-58.5 -93c-19.667 -32.667 -38 -65 -55 -97s-30.5 -60 -40.5 -84l-60 1
l26 73.5l28 79.5l32 89l37 101c-39.333 -30.667 -81.833 -53 -127.5 -67s-93.334 -22.333 -143.001 -25s-100.834 -1.16699 -153.501 4.5s-106 12.834 -160 21.501l-162 26c-54 8.66699 -106.833 14.667 -158.5 18s-101.834 2.33301 -150.501 -3
s-94.834 -17.5 -138.501 -36.5s-84.167 -46.333 -121.5 -82s-70.666 -82.5 -99.999 -140.5z" />
    <glyph glyph-name="o.001" horiz-adv-x="1954" 
d="M119 60c-2 -4 -4.66699 -5.34375 -8 -4.01074s-4.33301 4.33301 -3 9c35.333 76 77 134.667 125 176s100.667 70.666 158 87.999s118.333 25.5 183 24.5s130.834 -5.83301 198.501 -14.5s135.834 -18.667 204.501 -30s136.167 -18.5 202.5 -21.5
s130.166 0.5 191.499 10.5s118.333 32.333 171 67c12.667 16.667 26.834 31.5 42.501 44.5s32.167 23.333 49.5 31s35.666 12.334 54.999 14.001s39 -0.5 59 -6.5c3.33301 -1.33301 5.66602 -3.83301 6.99902 -7.5s1.66602 -7 0.999023 -10s-2.5 -5.5 -5.5 -7.5
s-7.5 -2 -13.5 0c-17.333 10 -35 12.167 -53 6.5s-35.167 -16.5 -51.5 -32.5s-31.5 -36.167 -45.5 -60.5s-26.333 -50.166 -37 -77.499s-19.167 -54.666 -25.5 -81.999s-9.66602 -52.333 -9.99902 -75s2.5 -41.667 8.5 -57s16 -24.333 30 -27
c16 -3.33301 31.833 -1.33301 47.5 6s30.667 17.333 45 30s27.5 26.834 39.5 42.501s22.333 30.5 31 44.5c-27.333 16.667 -44.833 38.334 -52.5 65.001s-8.16699 53.334 -1.5 80.001s18.834 50.834 36.501 72.501s38.5 36.167 62.5 43.5c12.667 4 23.667 4.5 33 1.5
s17.166 -8.33301 23.499 -16s10.666 -17 12.999 -28s2.83301 -22.833 1.5 -35.5c-2.66699 -19.333 -9.5 -43.833 -20.5 -73.5s-25.833 -58.834 -44.5 -87.501c18 0 36.333 6.33301 55 19s36.334 28.834 53.001 48.501s31.834 41.334 45.501 65.001
s24.834 46.834 33.501 69.501c2.66699 4 5.5 6.5 8.5 7.5s5.83301 0.833008 8.5 -0.5s4.33398 -3.66602 5.00098 -6.99902s0 -7.66602 -2 -12.999c-11.333 -32 -25.833 -62 -43.5 -90s-36.834 -52 -57.501 -72s-41.834 -35.167 -63.501 -45.5s-42.167 -13.5 -61.5 -9.5
c-12 -17.333 -25 -34.166 -39 -50.499s-29 -30.833 -45 -43.5s-33 -23 -51 -31s-36.667 -12 -56 -12c-33.333 0 -58 11.167 -74 33.5s-24.667 50.333 -26 84s3.66699 70 15 109s27.666 75.5 48.999 109.5c-39.333 -28.667 -81.833 -49.167 -127.5 -61.5
s-93.167 -19.333 -142.5 -21s-100.333 0.5 -153 6.5s-105.667 13.333 -159 22l-159.5 25.5c-53 8.33301 -105.167 14 -156.5 17s-101 1.66699 -149 -4s-93.5 -18 -136.5 -37s-83 -46.333 -120 -82s-69.833 -82.167 -98.5 -139.5zM1736 169.989
c9.33301 12.667 18.665 27.498 27.998 44.498s17.333 34.167 24 51.5s11.334 34 14.001 50s2.66699 29.333 0 40c-4.66699 15.333 -12.167 22.833 -22.5 22.5s-21.333 -5.66602 -33 -15.999s-22.5 -24.166 -32.5 -41.499s-16.667 -35.5 -20 -54.5
s-2.16602 -37.333 3.50098 -55s18.5 -31.5 38.5 -41.5z" />
    <glyph glyph-name="p.001" horiz-adv-x="1963" 
d="M105 60c-2 -4 -4.66504 -5.33594 -7.99805 -4.00293s-4.33301 4.33301 -3 9c35.333 76 77 134.667 125 176s100.667 70.666 158 87.999s118.333 25.5 183 24.5s130.834 -5.83301 198.501 -14.5s135.834 -18.667 204.501 -30s136.167 -18.5 202.5 -21.5
s130.166 0.5 191.499 10.5s118.333 32.333 171 67l29 90h75l-13 -40l-4 -14c10.667 6.66699 22 12.5 34 17.5s24 8.16699 36 9.5s23.667 0.333008 35 -3s21.666 -9.66602 30.999 -18.999c12 -13.333 20.5 -29 25.5 -47s7.33301 -36.5 7 -55.5s-3 -37.833 -8 -56.5
s-10.833 -35.334 -17.5 -50.001c14.667 4.66699 31.334 13.167 50.001 25.5s37.5 26.5 56.5 42.5s37.167 32.833 54.5 50.5s32 34.167 44 49.5c6.66699 6 13 6.66699 19 2s6 -10.667 0 -18c-16 -19.333 -33.333 -39 -52 -59s-38.334 -38.833 -59.001 -56.5s-42 -33 -64 -46
s-44 -21.5 -66 -25.5c-26 -40 -51.333 -68.5 -76 -85.5s-46.667 -26.333 -66 -28s-35 2.33301 -47 12s-17.833 21.5 -17.5 35.5s7.5 28 21.5 42s37.667 24.333 71 31l36 6c14 21.333 24.667 43.333 32 66s11.666 43.834 12.999 63.501s-0.166992 36.834 -4.5 51.501
s-11.166 25.167 -20.499 31.5s-21 7.33301 -35 3s-29.667 -15.5 -47 -33.5c-10.667 -32.667 -23.667 -70.334 -39 -113.001s-32.666 -87.334 -51.999 -134.001s-40.5 -94 -63.5 -142s-47.5 -93.167 -73.5 -135.5s-53.333 -80.666 -82 -114.999s-58.334 -61.5 -89.001 -81.5
c-36 -23.333 -66.5 -35.166 -91.5 -35.499s-43.667 7.16699 -56 22.5s-17.833 36.333 -16.5 63s10.666 55.334 27.999 86.001c12 21.333 27.5 42.833 46.5 64.5s41.333 41.667 67 60s54.834 34.5 87.501 48.5s68.667 24.333 108 31c11.333 24 23.166 50.5 35.499 79.5
l38 91.5l38 98l35.5 100c-39.333 -31.333 -81.833 -54 -127.5 -68s-93.334 -22.333 -143.001 -25s-101 -1.16699 -154 4.5s-106.5 12.834 -160.5 21.501l-162 26c-54 8.66699 -107 14.667 -159 18s-102.333 2.5 -151 -2.5s-94.834 -17.167 -138.501 -36.5
s-84.167 -46.833 -121.5 -82.5s-70.666 -82.5 -99.999 -140.5zM1363 -50.0029c-35.333 -7.33301 -67.332 -17.6689 -95.999 -31.002s-54.334 -28.5 -77.001 -45.5s-42.167 -35.333 -58.5 -55s-29.833 -39.5 -40.5 -59.5c-10 -19.333 -17.667 -40.166 -23 -62.499
s-6.33301 -40.5 -3 -54.5s12.5 -21.333 27.5 -22s37.5 10.666 67.5 33.999c18.667 14.667 37.5 33.834 56.5 57.501s37.5 49.334 55.5 77.001s34.667 55.667 50 84zM1642 138.994c-14.667 1.33301 -28.5 -1.16699 -41.5 -7.5s-23.5 -13.5 -31.5 -21.5s-13 -15.5 -15 -22.5
s1 -10.5 9 -10.5c6.66699 0 14.167 2.5 22.5 7.5s16.333 11 24 18s14.5 14 20.5 21s10 12.167 12 15.5z" />
    <glyph glyph-name="q.001" horiz-adv-x="1888" 
d="M109 60c-2 -4 -4.66602 -5.33008 -7.99902 -3.99707s-4.33301 4.33301 -3 9c35.333 76 77 134.667 125 176s100.667 70.666 158 87.999s118.333 25.5 183 24.5s130.834 -5.83301 198.501 -14.5s135.834 -18.667 204.501 -30s136.167 -18.5 202.5 -21.5
s130.166 0.5 191.499 10.5s118.333 32.333 171 67c10.667 14 22.834 26.5 36.501 37.5s28.5 20 44.5 27s32.833 11.333 50.5 13s36.167 -0.5 55.5 -6.5l8 19c12 0.666992 23.833 0.833984 35.5 0.500977s23.5 -0.5 35.5 -0.5c-26.667 -66.667 -48.834 -126.667 -66.501 -180
l-47.5 -146c22 16.667 42.833 34.834 62.5 54.501s38 39.667 55 60s32.667 40.833 47 61.5s27.5 40.667 39.5 60c1.33301 3.33301 3.66602 5.33301 6.99902 6s6.5 0.166992 9.5 -1.5s5 -4 6 -7s0.166992 -6.5 -2.5 -10.5c-15.333 -24.667 -32.5 -50.334 -51.5 -77.001
s-38.833 -52 -59.5 -76s-41.5 -45.667 -62.5 -65s-41.5 -34 -61.5 -44c16 -18 28 -42.833 36 -74.5s11.667 -64.5 11 -98.5s-6 -66 -16 -96s-25.333 -52.333 -46 -67c-20 -10.667 -35.833 -11.834 -47.5 -3.50098s-20.167 23.166 -25.5 44.499
s-7.66602 47.833 -6.99902 79.5s3.33398 65.667 8.00098 102s11.167 73.166 19.5 110.499s17.166 72.333 26.499 105c-31.333 -24.667 -58.333 -36.5 -81 -35.5s-39.834 9.66699 -51.501 26s-16.834 38.5 -15.501 66.5s10.666 56.667 27.999 86
c-39.333 -28.667 -81.833 -49.334 -127.5 -62.001s-93.334 -20 -143.001 -22s-100.667 0.166992 -153 6.5s-105.166 13.666 -158.499 21.999l-160 25.5c-53.333 8.66699 -105.666 14.334 -156.999 17.001s-101 1.33398 -149 -3.99902s-93.5 -17.5 -136.5 -36.5
s-83 -46.333 -120 -82s-69.833 -82.167 -98.5 -139.5zM1710 415.003c-14 9.33301 -28.168 12.3311 -42.501 8.99805s-28.166 -10.666 -41.499 -21.999s-25.833 -25.666 -37.5 -42.999s-21.667 -35.333 -30 -54s-14.666 -37 -18.999 -55s-5.83301 -33.167 -4.5 -45.5
s5.83301 -21.166 13.5 -26.499s19.167 -4.33301 34.5 3c13.333 5.33301 25.333 13.166 36 23.499s19.667 19.5 27 27.5l33 99c9.33301 28.667 19.666 56.667 30.999 84zM1666 55.001c-9.33301 -32 -17.333 -65.333 -24 -100s-11.667 -66.334 -15 -95.001
s-5 -52.167 -5 -70.5s2.33301 -27.5 7 -27.5c20 0.666992 35.333 12.5 46 35.5s17.167 50.167 19.5 81.5s1 63.333 -4 96s-13.167 59.334 -24.5 80.001z" />
    <glyph glyph-name="r.001" horiz-adv-x="1880" 
d="M103 60c-2 -4 -4.66797 -5.33594 -8.00098 -4.00293s-4.33301 4.33301 -3 9c28 67.333 62.333 121.5 103 162.5s85.834 72.167 135.501 93.5s103 34.5 160 39.5s115.5 5.5 175.5 1.5s120.667 -10.833 182 -20.5l181 -27.5c59.333 -8.66699 116.333 -15 171 -19
s105.334 -2.16699 152.001 5.5s88.334 22.667 125.001 45s66.667 55.833 90 100.5c-19.333 2 -33 9.33301 -41 22s-11.333 26.167 -10 40.5s6.83301 27.5 16.5 39.5s22.5 18 38.5 18c12 0 21.167 -3.5 27.5 -10.5s10.5 -15.667 12.5 -26s2 -21.333 0 -33
s-5.33301 -21.834 -10 -30.501l37.5 2.5c15 1 29.667 1 44 0s26.666 -3.83301 36.999 -8.5s16.166 -12.334 17.499 -23.001c0.666992 -12.667 -3.33301 -31.667 -12 -57s-19.667 -53.166 -33 -83.499l-42 -94c-14.667 -32.333 -27.334 -62 -38.001 -89s-18 -49.333 -22 -67
s-1.66699 -27.5 7 -29.5c12 -2.66699 26.833 3.16602 44.5 17.499s36.334 33.333 56.001 57s39.667 50 60 79s39 56.833 56 83.5l43.5 70.5c12 20.333 19.667 33.833 23 40.5c2 3.33301 4.5 5.33301 7.5 6s5.83301 0.166992 8.5 -1.5s4.5 -4 5.5 -7s0.5 -6.5 -1.5 -10.5
l-19.5 -32.5l-32 -52.5l-41.5 -64.5c-15.333 -23 -31.333 -45.333 -48 -67s-33.5 -42.167 -50.5 -61.5s-33.667 -35.166 -50 -47.499s-31.666 -20.5 -45.999 -24.5s-27.166 -2 -38.499 6c-11.333 8.66699 -17.833 22.167 -19.5 40.5s-0.333984 39.5 3.99902 63.5
s11.166 49.667 20.499 77s19.333 54.166 30 80.499l31 74.5c10 23.333 18 43 24 59c5.33301 14 7.16602 23.833 5.49902 29.5s-6 9.16699 -13 10.5s-16.167 1.5 -27.5 0.5s-24 -1.5 -38 -1.5c-24 -49.333 -54.5 -87.166 -91.5 -113.499s-78.833 -44.833 -125.5 -55.5
s-97.167 -15 -151.5 -13s-110.666 6.83301 -168.999 14.5s-118 16.334 -179 26.001s-121.5 16.834 -181.5 21.501s-118.667 5.33398 -176 2.00098s-111.333 -14.166 -162 -32.499s-97.5 -46 -140.5 -83s-80.167 -86.5 -111.5 -148.5zM1576 466.997
c1.33301 2 3.16699 7.83301 5.5 17.5s4 19.5 5 29.5s0.5 18.833 -1.5 26.5s-7 11.167 -15 10.5c-8 -1.33301 -14 -6.5 -18 -15.5s-5.83301 -18.833 -5.5 -29.5s2.83301 -20.167 7.5 -28.5s12 -11.833 22 -10.5z" />
    <glyph glyph-name="s.001" horiz-adv-x="1789" 
d="M123 76c-2 -4 -4.66602 -5.32812 -7.99902 -3.99512s-4.33301 4.33301 -3 9c28 60 60.167 109.167 96.5 147.5s76 68.166 119 89.499s88.5 35.5 136.5 42.5s97.833 9.83301 149.5 8.5s104.5 -5.83301 158.5 -13.5l163 -24c54.667 -8.33301 109 -15.666 163 -21.999
s106.667 -8.83301 158 -7.5s101 7.5 149 18.5s93 29.833 135 56.5c-0.666992 7.33301 -1.16699 14.666 -1.5 21.999s-0.5 14.666 -0.5 21.999c0 27.333 5.33301 49.333 16 66s22.5 27.667 35.5 33s24.833 4.83301 35.5 -1.5s16 -18.833 16 -37.5
c0 -15.333 -5.33301 -31 -16 -47s-21.667 -30.667 -33 -44c3.33301 -22.667 8.83301 -46.167 16.5 -70.5s14.5 -48.5 20.5 -72.5c25.333 13.333 51.166 28.833 77.499 46.5s53.833 41.5 82.5 71.5c3.33301 3.33301 6.83301 5 10.5 5s6.5 -0.833008 8.5 -2.5
s3 -4.16699 3 -7.5s-1.66699 -6.66602 -5 -9.99902c-30 -32.667 -59.5 -58.334 -88.5 -77.001s-56.833 -34.667 -83.5 -48c8 -40.667 10.167 -74.834 6.5 -102.501s-10.834 -50.334 -21.501 -68.001s-23.667 -31.167 -39 -40.5s-30.666 -16 -45.999 -20
c-21.333 -5.33301 -41.166 -3.66602 -59.499 5.00098s-30.666 21.834 -36.999 39.501s-5 38.334 4 62.001s30.5 47.834 64.5 72.501c10.667 8 21.667 15.167 33 21.5l35 20.5c-4.66699 23.333 -10 46.666 -16 69.999s-11 46.666 -15 69.999
c-42.667 -28 -87.834 -48 -135.501 -60s-96.834 -18.833 -147.501 -20.5s-102.667 0.5 -156 6.5s-106.833 13.167 -160.5 21.5l-160.5 25c-53.333 8.33301 -105.5 13.666 -156.5 15.999s-100.5 0.666016 -148.5 -5.00098s-93.5 -18.334 -136.5 -38.001
s-82.833 -47.5 -119.5 -83.5s-69.667 -83 -99 -141zM1579 195.005c-10.667 -5.33301 -20.835 -10.999 -30.502 -16.999s-18.5 -12 -26.5 -18l-25 -21c-8.66699 -7.33301 -16.667 -15.333 -24 -24c-10 -12.667 -15.833 -26.167 -17.5 -40.5s0 -27 5 -38
s13.167 -19.333 24.5 -25s25 -6.16699 41 -1.5c12.667 4 23.334 13.333 32.001 28s15.334 31.5 20.001 50.5s7 38.167 7 57.5s-2 35.666 -6 48.999zM1588 417.006c10 10 17.167 20.332 21.5 30.999s6.83301 20.5 7.5 29.5s-0.333008 16.5 -3 22.5s-5.66699 9 -9 9
c-2.66699 0 -5.5 -2.33301 -8.5 -7s-5.5 -11.167 -7.5 -19.5s-3.16699 -18.166 -3.5 -29.499s0.5 -23.333 2.5 -36z" />
    <glyph glyph-name="t.001" horiz-adv-x="322" 
d="M713 697c3.33301 2 6.33203 1.50293 8.99902 -1.49707s2 -6.16699 -2 -9.5c-37.333 -30 -77.333 -52.167 -120 -66.5s-87.334 -23.5 -134.001 -27.5s-94.834 -3.83301 -144.501 0.5s-99.834 10.5 -150.501 18.5l-38 -87c-15.333 -34.667 -30.666 -71.167 -45.999 -109.5
s-29.666 -76.333 -42.999 -114s-25.166 -73.5 -35.499 -107.5s-18.166 -63.833 -23.499 -89.5s-7.5 -45.667 -6.5 -60s6.16699 -20.5 15.5 -18.5c8.66699 1.33301 20.167 7.5 34.5 18.5s30 24.833 47 41.5l54 55.5l56.5 62.5l53 61.5l43.5 52.5l29.5 36
c7.33301 8.66699 10.666 12.667 9.99902 12c2 3.33301 4.66699 5.33301 8 6s6.16602 0.166992 8.49902 -1.5s4 -4 5 -7s0.5 -6.5 -1.5 -10.5c-3.33301 -6 -12.5 -19 -27.5 -39s-33.833 -43.333 -56.5 -70l-74 -84c-26.667 -29.333 -53.167 -56 -79.5 -80
s-51 -43.5 -74 -58.5s-41.5 -21.5 -55.5 -19.5c-18 2.66699 -29.667 14.667 -35 36s-6 49 -2 83s11.5 72.167 22.5 114.5s24.167 85.833 39.5 130.5c13.333 39.333 28 79.5 44 120.5s35 86.5 57 136.5c-52 8.66699 -104 16.834 -156 24.501s-103 12.667 -153 15
s-98.333 0.5 -145 -5.5s-91 -18.667 -133 -38s-81 -46.666 -117 -81.999s-68 -81 -96 -137c-2 -4 -4.66699 -5.33301 -8 -4s-4.33301 4.33301 -3 9c28 60.667 60.167 110 96.5 148s76 67.667 119 89s88.833 35.666 137.5 42.999s98.834 10.166 150.501 8.49902
s104.667 -6.33398 159 -14.001l163.5 -23.5l22 48l72 -1l-25 -58c48 -6.66699 95.333 -11.834 142 -15.501s92.334 -4.33398 137.001 -2.00098s88 9 130 20s81.667 27.833 119 50.5z" />
    <glyph glyph-name="u.001" horiz-adv-x="1956" 
d="M95 60c-2 -4 -4.6582 -5.33301 -7.99121 -4s-4.33301 4.33301 -3 9c35.333 76 77 134.667 125 176s100.667 70.666 158 87.999s118.333 25.5 183 24.5s130.834 -5.83301 198.501 -14.5s135.834 -18.667 204.501 -30s136.167 -18.5 202.5 -21.5s130.166 0.5 191.499 10.5
s118.333 32.333 171 67l13.5 43.5l14.5 46.5h69c-19.333 -50 -36.333 -96.833 -51 -140.5s-26.334 -81.5 -35.001 -113.5s-13.834 -57 -15.501 -75s0.833008 -26.333 7.5 -25c5.33301 1.33301 12.833 7.66602 22.5 18.999s20.667 26.333 33 45s25.5 39.834 39.5 63.501
l42 74.5l41 78c13.333 26 25.333 50.667 36 74h75c-6.66699 -13.333 -15.334 -32.666 -26.001 -57.999s-21.834 -53.5 -33.501 -84.5s-22.834 -62.833 -33.501 -95.5s-19.167 -62.834 -25.5 -90.501s-10 -50.834 -11 -69.501s2.66699 -29.667 11 -33s21.666 3 39.999 19
s43.833 45.333 76.5 88c17.333 22.667 34.5 46.834 51.5 72.501s32.333 49.834 46 72.501s25 42.167 34 58.5s14.5 26.5 16.5 30.5c2 2.66699 4.5 4.5 7.5 5.5s5.66699 1 8 0s4.16602 -3.16699 5.49902 -6.5s1 -7.33301 -1 -12c-2.66699 -5.33301 -9.83398 -18 -21.501 -38
s-26 -43.333 -43 -70s-36 -54.667 -57 -84s-41.833 -56 -62.5 -80s-40.667 -43.5 -60 -58.5s-36 -21.5 -50 -19.5c-12 0.666992 -21.167 5.83398 -27.5 15.501s-10.5 20.834 -12.5 33.501s-2.66699 25.834 -2 39.501s1.66699 25.5 3 35.5
c3.33301 30 9.83301 62.167 19.5 96.5s19.5 67.5 29.5 99.5c-6 -8.66699 -13 -20.334 -21 -35.001l-27 -47.5l-31 -52.5c-10.667 -18 -21.334 -34.333 -32.001 -49s-21.167 -26.834 -31.5 -36.501s-19.5 -14.834 -27.5 -15.501c-14.667 -1.33301 -25.667 2 -33 10
s-12.166 19 -14.499 33s-2.5 30.167 -0.5 48.5s5.16699 37.5 9.5 57.5s9.16602 39.5 14.499 58.5l15 52.5c-49.333 -39.333 -103.333 -65.5 -162 -78.5s-120.167 -18.5 -184.5 -16.5s-130.333 8.66699 -198 20l-202.5 32.5c-67.333 10.333 -133.333 17 -198 20
s-125.834 -2.83301 -183.501 -17.5s-111.167 -41.167 -160.5 -79.5s-92.333 -93.833 -129 -166.5z" />
    <glyph glyph-name="v.001" horiz-adv-x="1886" 
d="M105 60c-2 -4 -4.66895 -5.33398 -8.00195 -4.00098s-4.33301 4.33301 -3 9c35.333 76 77 134.667 125 176s100.667 70.666 158 87.999s118.333 25.5 183 24.5s130.834 -5.83301 198.501 -14.5s135.834 -18.667 204.501 -30s136.167 -18.5 202.5 -21.5
s130.166 0.5 191.499 10.5s118.333 32.333 171 67c5.33301 17.333 10.666 33.5 15.999 48.5l15 41.5h71c-8.66699 -14.667 -18.334 -35.5 -29.001 -62.5s-21.5 -56.5 -32.5 -88.5s-21.333 -64.667 -31 -98s-17.5 -63.833 -23.5 -91.5s-9.33301 -50.667 -10 -69
s2.33301 -28.833 9 -31.5c4.66699 -2 11.167 1 19.5 9s17.333 18.5 27 31.5s19.834 27.667 30.501 44l30.5 48.5l26 44.5l17.5 30.5c-6.66699 24 -9.5 50.833 -8.5 80.5s5.5 58.167 13.5 85.5c11.333 40 24.166 67.167 38.499 81.5s27.166 19.833 38.499 16.5
c12 -2.66699 19.833 -10 23.5 -22s4.33398 -26.5 2.00098 -43.5s-6.66602 -35.5 -12.999 -55.5s-13.5 -39.5 -21.5 -58.5s-16.167 -36.667 -24.5 -53s-15.5 -28.833 -21.5 -37.5c7.33301 -18.667 16.333 -29.334 27 -32.001s22.334 -0.166992 35.001 7.5
s25.5 19.167 38.5 34.5s25.667 31.5 38 48.5s23.333 33.833 33 50.5l23.5 40c2 3.33301 4.33301 5.33301 7 6s5.33398 0.166992 8.00098 -1.5s4.66699 -4 6 -7s1 -6.5 -1 -10.5c-7.33301 -13.333 -16.666 -29.333 -27.999 -48s-23.833 -37.167 -37.5 -55.5
s-28 -35.166 -43 -50.499s-29.833 -26.666 -44.5 -33.999s-28.834 -9 -42.501 -5s-25.834 16 -36.501 36l-24 -42c-10 -18 -21 -36.5 -33 -55.5s-24.667 -36.833 -38 -53.5s-26 -29 -38 -37s-23 -11.167 -33 -9.5s-17.667 6.16699 -23 13.5
c-5.33301 6.66699 -9 15.334 -11 26.001s-3.33301 21.5 -4 32.5s-0.5 21.5 0.5 31.5s1.83301 18 2.5 24c4 38 10.5 75.667 19.5 113s18.833 73 29.5 107c-49.333 -38.667 -103.333 -64.5 -162 -77.5s-120.167 -18.5 -184.5 -16.5s-130.333 8.83301 -198 20.5
s-135.167 22.5 -202.5 32.5s-133.166 16.5 -197.499 19.5s-125.5 -2.83301 -183.5 -17.5s-111.5 -41.167 -160.5 -79.5s-91.833 -93.833 -128.5 -166.5zM1681 256.999c2 3.33301 5.66797 11 11.001 23l17.5 41c6.33301 15.333 12.333 31.5 18 48.5s10.334 32.667 14.001 47
s5.5 25.833 5.5 34.5s-3 12.667 -9 12c-8.66699 -1.33301 -17 -11 -25 -29s-14.833 -38.5 -20.5 -61.5s-9.83398 -45.5 -12.501 -67.5s-2.33398 -38 0.999023 -48z" />
    <glyph glyph-name="w.001" horiz-adv-x="2111" 
d="M93 60c-2 -4 -4.66797 -5.33496 -8.00098 -4.00195s-4.33301 4.33301 -3 9c35.333 76 77 134.667 125 176s100.667 70.666 158 87.999s118.333 25.5 183 24.5s130.834 -5.83301 198.501 -14.5s135.834 -18.667 204.501 -30s136.167 -18.5 202.5 -21.5
s130.166 0.5 191.499 10.5s118.333 32.333 171 67c0.666992 4 2.33398 9.5 5.00098 16.5l8.5 23l9 26l8.5 24.5h71l-62 -167.5c-18.667 -51 -34.167 -95 -46.5 -132s-20.833 -66.5 -25.5 -88.5s-4 -34.333 2 -37c6 -3.33301 15.167 -0.166016 27.5 9.50098
s26.166 23.667 41.499 42s31.666 40.166 48.999 65.499s34.333 52.333 51 81s32.334 58.167 47.001 88.5s27.334 59.833 38.001 88.5h64l-25 -62l-28.5 -76c-9.66699 -26.667 -18.667 -53.5 -27 -80.5s-15.333 -51.667 -21 -74s-9.5 -41.166 -11.5 -56.499
s-1.33301 -25 2 -29c2.66699 -3.33301 9.16699 -0.166016 19.5 9.50098s23 24 38 43s31.5 41.667 49.5 68s35.667 54.166 53 83.499c-8.66699 18 -12.667 39.833 -12 65.5s4.66699 50.167 12 73.5s17.333 43.166 30 59.499s27 24.5 43 24.5c15.333 0 25.333 -5 30 -15
s5.66699 -22.667 3 -38s-7.83398 -32.333 -15.501 -51s-15.667 -36.167 -24 -52.5s-16.166 -30.666 -23.499 -42.999l-14 -23.5c9.33301 -14.667 20.666 -22.834 33.999 -24.501s27.666 0.833008 42.999 7.5s30.833 16.667 46.5 30s30.5 27.333 44.5 42
s26.333 29.167 37 43.5s18.667 26.166 24 35.499c2 4 4.5 6.16699 7.5 6.5s5.83301 -0.333984 8.5 -2.00098s4.5 -4.16699 5.5 -7.5s0.5 -6.66602 -1.5 -9.99902c-6.66699 -12 -16 -25.833 -28 -41.5s-25.5 -31.334 -40.5 -47.001s-31 -30.167 -48 -43.5
s-34 -23.166 -51 -29.499s-33.667 -8.5 -50 -6.5s-30.833 10.667 -43.5 26c-4 -6 -10 -15.667 -18 -29s-17.667 -28.333 -29 -45s-23.5 -33.667 -36.5 -51s-26 -32.666 -39 -45.999s-25.667 -23.833 -38 -31.5s-23.166 -9.83398 -32.499 -6.50098
c-10.667 4 -17.167 15.333 -19.5 34s-2.66602 39.334 -0.999023 62.001s4.33398 44.834 8.00098 66.501s6.5 37.167 8.5 46.5c-14.667 -26.667 -31 -53.5 -49 -80.5s-36.667 -50.167 -56 -69.5l-24 -23c-10 -9.33301 -20.333 -17.166 -31 -23.499s-21.167 -9.5 -31.5 -9.5
s-18.833 6.33301 -25.5 19s-9.16699 31.667 -7.5 57s5.66699 53.5 12 84.5s14.166 62.5 23.499 94.5l26 86c-39.333 -31.333 -81.833 -54 -127.5 -68s-93.334 -22.333 -143.001 -25s-101 -1.16699 -154 4.5s-106.5 12.834 -160.5 21.501l-162 26
c-54 8.66699 -107 14.667 -159 18s-102.333 2.5 -151 -2.5s-94.834 -17.167 -138.501 -36.5s-84.167 -46.833 -121.5 -82.5s-70.666 -82.5 -99.999 -140.5zM1870 254.998c0 -0.666992 2.00098 2.99902 6.00098 10.999s8.66699 18.167 14 30.5l17.5 41
c6.33301 15 11.5 29.167 15.5 42.5c4.66699 16 6.66699 27.333 6 34s-3 10.334 -7 11.001s-8.66699 -1.33301 -14 -6s-10.333 -11 -15 -19c-6.66699 -12 -12 -24.833 -16 -38.5s-6.83301 -27 -8.5 -40s-2.33398 -25.333 -2.00098 -37s1.5 -21.5 3.5 -29.5z" />
    <glyph glyph-name="x.001" horiz-adv-x="2068" 
d="M105 60c-2 -4 -4.66895 -5.33008 -8.00195 -3.99707s-4.33301 4.33301 -3 9c28 60.667 60.833 109.667 98.5 147s79 66 124 86s92.833 32.833 143.5 38.5s103 7 157 4s109 -9 165 -18l167.5 -26.5c55.667 -8.66699 110.334 -16 164.001 -22s105.334 -7.5 155.001 -4.5
s96.334 11.667 140.001 26s83.5 37.5 119.5 69.5c19.333 17.333 35.333 33.833 48 49.5s26 27.167 40 34.5s28.333 11.333 43 12s28.167 -1.5 40.5 -6.5s22.833 -12.833 31.5 -23.5s14.667 -24 18 -40c14.667 16 29.5 28.833 44.5 38.5s29.833 17 44.5 22
s28.5 8.16699 41.5 9.5s24.5 1.33301 34.5 0c17.333 -2 31.833 -7.16699 43.5 -15.5s19.834 -18.5 24.501 -30.5s5.66699 -25.333 3 -40s-10 -29.667 -22 -45c-3.33301 -3.33301 -6.5 -4.83301 -9.5 -4.5s-5.5 1.5 -7.5 3.5s-3.5 4.66699 -4.5 8s-0.5 6.66602 1.5 9.99902
c14.667 19.333 21.334 36.5 20.001 51.5s-8 26 -20 33s-28 8.83301 -48 5.5s-41 -13.833 -63 -31.5s-44.167 -43.667 -66.5 -78s-41.5 -78.833 -57.5 -133.5c-4 -14 -6 -31.167 -6 -51.5s3 -39.5 9 -57.5s15 -32.167 27 -42.5s28 -12.166 48 -5.49902
c18.667 6 39.834 19.5 63.501 40.5s48 46.5 73 76.5s50 63.333 75 100s48.5 73.667 70.5 111c2 3.33301 4.5 5.33301 7.5 6s5.83301 0.166992 8.5 -1.5s4.5 -4 5.5 -7s0.5 -6.5 -1.5 -10.5c-28 -51.333 -59.5 -100.833 -94.5 -148.5s-70.833 -89.5 -107.5 -125.5
c-24.667 -24.667 -49.5 -44.167 -74.5 -58.5s-48.333 -20.5 -70 -18.5s-40.667 13.667 -57 35s-28.166 55 -35.499 101c-32 -41.333 -63.667 -72.833 -95 -94.5s-60.833 -33.667 -88.5 -36s-52.834 4.83398 -75.501 21.501s-41.334 42.334 -56.001 77.001
c-1.33301 3.33301 -1.16602 6.16602 0.500977 8.49902s3.83398 4.16602 6.50098 5.49902s5.5 1.66602 8.5 0.999023s5.16699 -2.33398 6.5 -5.00098c15.333 -32 32.166 -54.167 50.499 -66.5s37.166 -17.5 56.499 -15.5s38.666 10.333 57.999 25s37.666 32.667 54.999 54
s33.166 45 47.499 71s26.333 51.667 36 77s16.334 49.333 20.001 72s3.5 41 -0.5 55c-4.66699 16 -11 26.5 -19 31.5s-16.667 6.5 -26 4.5s-19 -6.66699 -29 -14s-19.5 -15.166 -28.5 -23.499s-16.833 -16.333 -23.5 -24s-11.667 -12.834 -15 -15.501
c-40.667 -34 -84.334 -59.167 -131.001 -75.5s-95.334 -26.5 -146.001 -30.5s-103 -3.33301 -157 2s-108.333 12.5 -163 21.5l-163.5 27.5c-54.333 9.33301 -107.666 16.166 -159.999 20.499s-103 4.5 -152 0.5s-95.5 -15.167 -139.5 -33.5s-84.667 -44.833 -122 -79.5
s-70.333 -81 -99 -139z" />
    <glyph glyph-name="y.001" horiz-adv-x="2015" 
d="M97 60c-2 -4 -4.6709 -5.33496 -8.00391 -4.00195s-4.33301 4.33301 -3 9c35.333 76 77 134.667 125 176s100.667 70.666 158 87.999s118.333 25.5 183 24.5s130.834 -5.83301 198.501 -14.5s135.834 -18.667 204.501 -30s136.167 -18.5 202.5 -21.5
s130.166 0.5 191.499 10.5s118.333 32.333 171 67c5.33301 18.667 10.666 35.834 15.999 51.501s10 28.5 14 38.5l74 -1c-14 -31.333 -27.333 -63.5 -40 -96.5s-23.5 -63.333 -32.5 -91s-15.167 -50.334 -18.5 -68.001s-3 -26.5 1 -26.5c10 0 24.333 10 43 30
s38.334 44.5 59.001 73.5s40.834 59.833 60.501 92.5s35.834 61.667 48.501 87h79c-4 -13.333 -8.66699 -30.166 -14 -50.499l-18.5 -68l-23 -79.5c-8.33301 -28 -17.166 -55.667 -26.499 -83c48 16.667 95.167 39.334 141.5 68.001s90.166 69.667 131.499 123
c3.33301 2.66699 6.66602 4 9.99902 4s6 -1 8 -3s3.16699 -4.66699 3.5 -8s-0.833984 -6.33301 -3.50098 -9c-22.667 -28.667 -46 -53.667 -70 -75s-48.667 -40 -74 -56s-51.166 -29.833 -77.499 -41.5s-52.5 -22.167 -78.5 -31.5c-10 -30.667 -21.167 -62.167 -33.5 -94.5
s-25.333 -64.5 -39 -96.5s-27.834 -63.167 -42.501 -93.5s-30 -58.5 -46 -84.5c-32 -53.333 -65 -92 -99 -116s-64.667 -37.333 -92 -40c-31.333 -2 -57.833 6.83301 -79.5 26.5s-36.167 46 -43.5 79s-6.16602 70 3.50098 111s30.5 81.833 62.5 122.5
c22.667 28.667 47 52.834 73 72.501s53.333 36.334 82 50.001s58.5 25.334 89.5 35.001l94.5 28.5l39 128c12.667 41.333 23 77.666 31 108.999l-26.5 -42l-33.5 -49.5c-12 -17 -24.667 -33.833 -38 -50.5s-26.333 -31.334 -39 -44.001s-25 -22.834 -37 -30.501
s-22.667 -11.167 -32 -10.5c-11.333 0.666992 -19.166 7.5 -23.499 20.5s-6.33301 29 -6 48s2.33301 39.5 6 61.5s7.83398 42.667 12.501 62c-49.333 -39.333 -103.333 -65.666 -162 -78.999s-120.167 -19 -184.5 -17s-130.333 8.66699 -198 20l-202.5 32.5
c-67.333 10.333 -133.333 17 -198 20s-126 -2.83301 -184 -17.5s-111.667 -41.167 -161 -79.5s-92.333 -93.833 -129 -166.5zM1510 -232.002c12 23.333 24.5029 49.333 37.5029 78s25.667 58.5 38 89.5s24.166 62.333 35.499 94s21.666 62.167 30.999 91.5l-86 -28
c-28 -9.33301 -55 -20.666 -81 -33.999s-50.833 -29.333 -74.5 -48s-46.5 -41.334 -68.5 -68.001c-25.333 -32 -43.333 -66 -54 -102s-13.667 -69.667 -9 -101c2 -16.667 6.83301 -32.334 14.5 -47.001s17 -26.667 28 -36s23.667 -15.166 38 -17.499
s29.666 0.166992 45.999 7.5s33.333 20.833 51 40.5s35.5 46.5 53.5 80.5z" />
    <glyph glyph-name="z.001" horiz-adv-x="1978" 
d="M152 60c-2 -4 -4.65918 -5.33887 -7.99219 -4.00586s-4.33301 4.33301 -3 9c32.667 68 69.334 122.333 110.001 163s84.334 71.5 131.001 92.5s95.667 33.5 147 37.5s104.166 3.16699 158.499 -2.5s109.166 -14.667 164.499 -27l164.5 -36
c54.333 -11.667 107.5 -21.5 159.5 -29.5s102 -10.667 150 -8s93 12.334 135 29.001s80 43.667 114 81c22 24.667 42.167 45.334 60.5 62.001s36.5 28.667 54.5 36c29.333 12 55.166 14 77.499 6s38 -22.667 47 -44s9.5 -48 1.5 -80s-27.333 -66 -58 -102
c10 -6.66699 19 -14.834 27 -24.501s12.667 -20.834 14 -33.501c39.333 25.333 74.166 52.5 104.499 81.5s55.166 61.5 74.499 97.5c4 6.66699 8.83301 8.16699 14.5 4.5s7.16699 -8.16699 4.5 -13.5c-18 -39.333 -44.167 -75.333 -78.5 -108s-72.833 -61.667 -115.5 -87
c-4.66699 -43.333 -13.834 -83 -27.501 -119s-30.5 -68.667 -50.5 -98s-42.333 -55.333 -67 -78s-50 -42 -76 -58c-34 -21.333 -66.333 -33.166 -97 -35.499s-56.5 1.83398 -77.5 12.501s-35.833 26.667 -44.5 48s-8.66699 45.333 0 72c8 25.333 20.167 47.333 36.5 66
s35.333 35.334 57 50.001s45 27.667 70 39s50 22 75 32l73.5 29.5c24 9.66699 46 20.167 66 31.5c0 10 -0.333008 20.667 -1 32s-3 22.333 -7 33c-3.33301 -5.33301 -7.83301 -10.5 -13.5 -15.5s-11.834 -9.5 -18.501 -13.5s-13.667 -7.16699 -21 -9.5
s-14 -2.83301 -20 -1.5c-8.66699 2.66699 -14.667 6.83398 -18 12.501s-5 11.667 -5 18s1.5 12.5 4.5 18.5s6.83301 11 11.5 15c9.33301 7.33301 20.833 12.333 34.5 15s26.167 2.33398 37.5 -0.999023c18 24 30.667 48.833 38 74.5s9.5 48.334 6.5 68.001
s-10.5 34.667 -22.5 45s-28 11.833 -48 4.5c-14 -5.33301 -29.333 -16 -46 -32s-36.667 -37.667 -60 -65c-34 -40 -72.333 -69.667 -115 -89s-88.334 -31.5 -137.001 -36.5s-99.5 -4.5 -152.5 1.5s-107.167 14.333 -162.5 25l-167 33.5c-56 11.667 -111.333 20.5 -166 26.5
s-107.834 7.83301 -159.501 5.5s-100.667 -12.333 -147 -30s-89.333 -44.5 -129 -80.5s-74.834 -84.667 -105.501 -146zM1740.01 121.994c-23.333 -12.667 -47 -23.8311 -71 -33.498l-71.5 -27.5c-23.667 -8.66699 -46.5 -17.667 -68.5 -27s-42.333 -20 -61 -32
s-35.167 -26.333 -49.5 -43s-25.833 -36.667 -34.5 -60s-9.5 -44 -2.5 -62s19.5 -31.333 37.5 -40s40.167 -11.167 66.5 -7.5s54.5 16.167 84.5 37.5c18.667 13.333 36.667 30.166 54 50.499s33.333 43.166 48 68.499s27.667 53 39 83s21 61 29 93zM1707.01 234.997
c-4.66699 0.666992 -10 0.667969 -16 0.000976562s-11.667 -2 -17 -4s-9.83301 -5 -13.5 -9s-5.5 -9 -5.5 -15c0 -9.33301 5.16699 -10.333 15.5 -3s22.5 17.666 36.5 30.999z" />
    </font>
</defs>
</svg>
