<?xml version="1.0" standalone="no"?>
<!DOCTYPE svg PUBLIC "-//W3C//DTD SVG 1.1//EN" "http://www.w3.org/Graphics/SVG/1.1/DTD/svg11.dtd" >
<svg>
<metadata>
Created by FontForge 20090914 at Tue Nov  4 23:31:55 2014
 By www-data
Copyright (c) 2014 Caveras / Cliff Modes
</metadata>
<defs>
<font id="Arcology" horiz-adv-x="1024" >
  <font-face 
    font-family="Arcology"
    font-weight="400"
    font-stretch="normal"
    units-per-em="1024"
    panose-1="0 0 4 0 0 0 0 0 0 0"
    ascent="896"
    descent="-128"
    x-height="640"
    cap-height="896"
    bbox="0 -128 1024 1024"
    underline-thickness="51"
    underline-position="126"
    unicode-range="U+0020-U+2B1A"
  />
<missing-glyph 
d="M0 0v1024h1024v-1024h-1024z" />
    <glyph glyph-name=".notdef" 
d="M0 0v1024h1024v-1024h-1024z" />
    <glyph glyph-name="space" unicode=" " 
 />
    <glyph glyph-name="exclam" unicode="!" 
d="M256 0v128h256v-128h-256zM256 256v640h256v-640h-256z" />
    <glyph glyph-name="quotedbl" unicode="&#x22;" 
d="M0 384v128h128v-128h-128zM512 384v128h128v-128h-128zM128 512v384h256v-256h-128v-128h-128zM640 512v384h256v-256h-128v-128h-128z" />
    <glyph glyph-name="numbersign" unicode="#" 
d="M512 384v128h-128v-128h128zM128 128v128h-128v128h128v128h-128v128h128v128h256v-128h128v128h256v-128h128v-128h-128v-128h128v-128h-128v-128h-256v128h-128v-128h-256z" />
    <glyph glyph-name="dollar" unicode="$" 
d="M640 128v256h-128v-256h128zM384 512v128h-128v-128h128zM384 -128v128h-256v128h256v256h-256v128h-128v128h128v128h256v128h128v-128h256v-128h-256v-128h256v-128h128v-256h-128v-128h-256v-128h-128z" />
    <glyph glyph-name="percent" unicode="%" 
d="M640 0v256h256v-256h-256zM0 512v256h256v-256h-256zM0 0v128h128v128h128v128h128v128h128v128h128v128h256v-128h-128v-128h-128v-128h-128v-128h-128v-128h-128v-128h-256z" />
    <glyph glyph-name="ampersand" unicode="&#x26;" 
d="M512 640v128h-128v-128h128zM128 0v128h-128v256h128v128h128v128h-128v128h128v128h384v-128h128v-128h-128v-128h-128v-128h128v-128h128v-128h128v-128h-256v128h-128v128h-128v128h-128v-256h256v-128h-384z" />
    <glyph glyph-name="quotesingle" unicode="'" 
d="M256 384v128h128v-128h-128zM384 512v384h256v-256h-128v-128h-128z" />
    <glyph glyph-name="parenleft" unicode="(" 
d="M384 0v128h-128v640h128v128h256v-128h-128v-128h-128v-384h128v-128h128v-128h-256z" />
    <glyph glyph-name="parenright" unicode=")" 
d="M384 0v128h128v128h128v384h-128v128h-128v128h256v-128h128v-640h-128v-128h-256z" />
    <glyph glyph-name="asterisk" unicode="*" 
d="M0 128v128h256v-128h-256zM640 128v128h256v-128h-256zM0 640v128h256v-128h-256zM384 128v128h-128v128h-256v128h256v128h128v128h128v-128h128v-128h256v-128h-256v-128h-128v-128h-128zM640 640v128h256v-128h-256z" />
    <glyph glyph-name="plus" unicode="+" 
d="M384 128v256h-256v128h256v256h256v-256h256v-128h-256v-256h-256z" />
    <glyph glyph-name="comma" unicode="," 
d="M256 -128v128h128v256h256v-256h-128v-128h-256z" />
    <glyph glyph-name="hyphen" unicode="-" 
d="M128 384v128h768v-128h-768z" />
    <glyph glyph-name="period" unicode="." 
d="M384 0v256h256v-256h-256z" />
    <glyph glyph-name="slash" unicode="/" 
d="M128 0v256h128v128h128v128h128v128h128v128h128v128h128v-256h-128v-128h-128v-128h-128v-128h-128v-128h-128v-128h-128z" />
    <glyph glyph-name="zero" unicode="0" 
d="M640 128v640h-384v-640h384zM128 0v128h-128v640h128v128h640v-128h128v-640h-128v-128h-640z" />
    <glyph glyph-name="one" unicode="1" 
d="M384 0v640h-128v128h128v128h256v-896h-256z" />
    <glyph glyph-name="two" unicode="2" 
d="M0 0v256h128v128h128v128h384v256h-512v128h640v-128h128v-256h-128v-128h-384v-128h-128v-128h640v-128h-896z" />
    <glyph glyph-name="three" unicode="3" 
d="M256 -128v128h128v128h128v128h128v128h-384v128h128v128h128v128h-512v128h896v-128h-128v-128h-128v-128h128v-128h128v-128h-128v-128h-128v-128h-128v-128h-256z" />
    <glyph glyph-name="four" unicode="4" 
d="M640 256v384h-128v-128h-128v-128h-128v-128h384zM640 0v128h-640v256h128v128h128v128h128v128h128v128h384v-896h-256z" />
    <glyph glyph-name="five" unicode="5" 
d="M128 -128v128h128v128h128v128h128v128h128v128h-640v384h896v-128h-640v-128h512v-128h128v-128h-128v-128h-128v-128h-128v-128h-128v-128h-256z" />
    <glyph glyph-name="six" unicode="6" 
d="M640 128v256h-384v-256h384zM128 0v128h-128v256h128v128h128v128h128v128h128v128h256v-128h-128v-128h-128v-128h256v-128h128v-256h-128v-128h-640z" />
    <glyph glyph-name="seven" unicode="7" 
d="M0 0v128h128v128h128v128h128v128h128v128h128v128h-640v128h896v-256h-128v-128h-128v-128h-128v-128h-128v-128h-128v-128h-256z" />
    <glyph glyph-name="eight" unicode="8" 
d="M640 128v256h-384v-256h384zM640 512v256h-384v-256h384zM128 0v128h-128v256h128v128h-128v256h128v128h640v-128h128v-256h-128v-128h128v-256h-128v-128h-640z" />
    <glyph glyph-name="nine" unicode="9" 
d="M640 512v256h-384v-256h384zM0 -128v128h128v128h128v128h128v128h-256v128h-128v256h128v128h640v-128h128v-256h-128v-128h-128v-128h-128v-128h-128v-128h-128v-128h-256z" />
    <glyph glyph-name="colon" unicode=":" 
d="M384 0v256h256v-256h-256zM384 384v256h256v-256h-256z" />
    <glyph glyph-name="semicolon" unicode=";" 
d="M256 -128v128h128v256h256v-256h-128v-128h-256zM384 384v256h256v-256h-256z" />
    <glyph glyph-name="less" unicode="&#x3c;" 
d="M512 0v128h-128v128h-128v128h-128v128h128v128h128v128h128v128h256v-128h-128v-128h-128v-128h-128v-128h128v-128h128v-128h128v-128h-256z" />
    <glyph glyph-name="equal" unicode="=" 
d="M128 128v128h768v-128h-768zM128 384v128h768v-128h-768z" />
    <glyph glyph-name="greater" unicode="&#x3e;" 
d="M256 0v128h128v128h128v128h128v128h-128v128h-128v128h-128v128h256v-128h128v-128h128v-128h128v-128h-128v-128h-128v-128h-128v-128h-256z" />
    <glyph glyph-name="question" unicode="?" 
d="M256 0v128h256v-128h-256zM256 256v256h128v128h256v128h-640v128h768v-128h128v-128h-128v-128h-256v-256h-256z" />
    <glyph glyph-name="at" unicode="@" 
d="M128 0v128h-128v640h128v128h640v-128h128v-512h-384v384h128v128h-384v-640h512v-128h-640z" />
    <glyph glyph-name="A" unicode="A" 
d="M640 256v256h-128v128h-128v-128h-128v-256h384zM0 0v512h128v128h128v128h128v128h128v-128h128v-128h128v-128h128v-512h-256v128h-384v-128h-256z" />
    <glyph glyph-name="B" unicode="B" 
d="M640 128v256h-256v128h128v256h-256v-640h384zM0 0v896h640v-128h128v-128h-128v-128h128v-128h128v-256h-128v-128h-768z" />
    <glyph glyph-name="C" unicode="C" 
d="M128 0v128h-128v640h128v128h768v-128h-640v-640h640v-128h-768z" />
    <glyph glyph-name="D" unicode="D" 
d="M384 128v128h128v128h128v384h-384v-640h128zM0 0v896h768v-128h128v-384h-128v-128h-128v-128h-128v-128h-512z" />
    <glyph glyph-name="E" unicode="E" 
d="M512 384v128h384v-128h-384zM0 0v896h896v-128h-640v-640h640v-128h-896z" />
    <glyph glyph-name="F" unicode="F" 
d="M512 384v128h384v-128h-384zM0 0v896h896v-128h-640v-768h-256z" />
    <glyph glyph-name="G" unicode="G" 
d="M128 0v128h-128v640h128v128h640v-128h-512v-640h384v256h-128v128h384v-512h-768z" />
    <glyph glyph-name="H" unicode="H" 
d="M0 0v896h256v-512h384v512h256v-896h-256v256h-384v-256h-256z" />
    <glyph glyph-name="I" unicode="I" 
d="M256 0v128h128v640h-128v128h512v-128h-128v-640h128v-128h-512z" />
    <glyph glyph-name="J" unicode="J" 
d="M0 0v128h640v768h256v-768h-128v-128h-768z" />
    <glyph glyph-name="K" unicode="K" 
d="M0 0v896h256v-384h256v128h128v256h256v-256h-128v-128h-128v-128h128v-128h128v-256h-256v256h-128v128h-256v-384h-256z" />
    <glyph glyph-name="L" unicode="L" 
d="M0 0v896h256v-768h640v-128h-896z" />
    <glyph glyph-name="M" unicode="M" 
d="M0 0v896h128v-128h128v-128h128v-128h128v128h128v128h128v128h128v-896h-256v384h-128v-128h-128v128h-128v-384h-256z" />
    <glyph glyph-name="N" unicode="N" 
d="M0 0v896h128v-128h128v-128h128v-128h128v-128h128v512h256v-896h-256v128h-128v128h-128v128h-128v-384h-256z" />
    <glyph glyph-name="O" unicode="O" 
d="M640 128v640h-384v-640h384zM128 0v128h-128v640h128v128h640v-128h128v-640h-128v-128h-640z" />
    <glyph glyph-name="P" unicode="P" 
d="M512 384v128h128v256h-384v-384h256zM0 0v896h768v-128h128v-256h-128v-128h-128v-128h-384v-256h-256z" />
    <glyph glyph-name="Q" unicode="Q" 
d="M512 128v128h128v512h-384v-640h256zM512 -128v128h-384v128h-128v640h128v128h640v-128h128v-512h-128v-128h-128v-128h256v-128h-384z" />
    <glyph glyph-name="R" unicode="R" 
d="M512 384v128h128v256h-384v-384h256zM0 0v896h768v-128h128v-256h-128v-128h-128v-128h128v-128h128v-128h-256v128h-128v128h-256v-256h-256z" />
    <glyph glyph-name="S" unicode="S" 
d="M384 0v128h128v128h128v256h-512v128h-128v128h128v128h768v-128h-640v-128h512v-128h128v-256h-128v-128h-128v-128h-256z" />
    <glyph glyph-name="T" unicode="T" 
d="M256 0v768h-256v128h768v-128h-256v-768h-256z" />
    <glyph glyph-name="U" unicode="U" 
d="M128 0v128h-128v768h256v-768h384v768h256v-768h-128v-128h-640z" />
    <glyph glyph-name="V" unicode="V" 
d="M384 0v128h-128v128h-128v128h-128v512h256v-512h128v-128h128v128h128v512h256v-512h-128v-128h-128v-128h-128v-128h-128z" />
    <glyph glyph-name="W" unicode="W" 
d="M0 0v896h256v-384h128v128h128v-128h128v384h256v-896h-128v128h-128v128h-128v128h-128v-128h-128v-128h-128v-128h-128z" />
    <glyph glyph-name="X" unicode="X" 
d="M0 0v256h128v128h128v256h-128v128h-128v128h256v-128h128v-128h128v128h128v128h256v-128h-128v-128h-128v-256h128v-128h128v-256h-256v256h-128v128h-128v-128h-128v-256h-256z" />
    <glyph glyph-name="Y" unicode="Y" 
d="M384 0v384h-256v128h-128v384h256v-384h384v384h256v-384h-128v-128h-128v-384h-256z" />
    <glyph glyph-name="Z" unicode="Z" 
d="M0 0v128h128v128h128v128h128v128h128v128h128v128h-512v128h768v-256h-128v-128h-128v-128h-128v-128h-128v-128h512v-128h-896z" />
    <glyph glyph-name="bracketleft" unicode="[" 
d="M256 0v896h384v-128h-128v-128h-128v-384h128v-128h128v-128h-384z" />
    <glyph glyph-name="backslash" unicode="\" 
d="M768 0v128h-128v128h-128v128h-128v128h-128v128h-128v256h128v-128h128v-128h128v-128h128v-128h128v-128h128v-256h-128z" />
    <glyph glyph-name="bracketright" unicode="]" 
d="M384 0v128h128v128h128v384h-128v128h-128v128h384v-896h-384z" />
    <glyph glyph-name="asciicircum" unicode="^" 
d="M128 384v256h128v128h128v128h128v-128h128v-128h128v-256h-128v128h-128v128h-128v-128h-128v-128h-128z" />
    <glyph glyph-name="underscore" unicode="_" 
d="M0 0v128h896v-128h-896z" />
    <glyph glyph-name="grave" unicode="`" 
d="M384 640v128h128v-128h-128zM128 768v128h256v-128h-256z" />
    <glyph glyph-name="a" unicode="a" 
d="M128 0v128h-128v128h128v128h384v-128h-256v-128h384v384h-512v128h640v-128h128v-512h-768z" />
    <glyph glyph-name="b" unicode="b" 
d="M0 0v896h256v-768h384v384h-256v128h384v-128h128v-384h-128v-128h-768z" />
    <glyph glyph-name="c" unicode="c" 
d="M128 0v128h-128v384h128v128h768v-128h-640v-384h640v-128h-768z" />
    <glyph glyph-name="d" unicode="d" 
d="M128 0v128h-128v384h128v128h384v-128h-256v-384h384v768h256v-896h-768z" />
    <glyph glyph-name="e" unicode="e" 
d="M128 0v128h-128v384h128v128h640v-128h128v-256h-512v128h256v128h-384v-384h512v-128h-640z" />
    <glyph glyph-name="f" unicode="f" 
d="M512 384v128h256v-128h-256zM128 0v768h128v128h512v-128h-384v-768h-256z" />
    <glyph glyph-name="g" unicode="g" 
d="M128 -128v128h512v512h-384v-256h256v-128h-384v128h-128v256h128v128h768v-640h-128v-128h-640z" />
    <glyph glyph-name="h" unicode="h" 
d="M640 0v512h-256v128h384v-128h128v-512h-256zM0 0v896h256v-896h-256z" />
    <glyph glyph-name="i" unicode="i" 
d="M256 0v640h256v-640h-256zM256 768v128h256v-128h-256z" />
    <glyph glyph-name="j" unicode="j" 
d="M0 -128v128h384v640h256v-640h-128v-128h-512zM384 768v128h256v-128h-256z" />
    <glyph glyph-name="k" unicode="k" 
d="M0 0v896h256v-384h256v128h256v-128h-128v-128h128v-128h128v-256h-256v256h-128v128h-256v-384h-256z" />
    <glyph glyph-name="l" unicode="l" 
d="M384 0v768h-128v128h384v-896h-256z" />
    <glyph glyph-name="m" unicode="m" 
d="M0 0v640h256v-128h384v128h256v-640h-256v384h-128v-128h-128v128h-128v-384h-256z" />
    <glyph glyph-name="n" unicode="n" 
d="M0 0v640h768v-128h128v-512h-256v512h-384v-512h-256z" />
    <glyph glyph-name="o" unicode="o" 
d="M640 128v384h-384v-384h384zM128 0v128h-128v384h128v128h640v-128h128v-384h-128v-128h-640z" />
    <glyph glyph-name="p" unicode="p" 
d="M0 -128v768h768v-128h128v-384h-128v-128h-384v128h256v384h-384v-640h-256z" />
    <glyph glyph-name="q" unicode="q" 
d="M640 -128v640h-384v-384h256v-128h-384v128h-128v384h128v128h768v-768h-256z" />
    <glyph glyph-name="r" unicode="r" 
d="M128 0v640h768v-128h-512v-512h-256z" />
    <glyph glyph-name="s" unicode="s" 
d="M256 0v128h384v128h-512v128h-128v128h128v128h768v-128h-640v-128h512v-128h128v-128h-128v-128h-512z" />
    <glyph glyph-name="t" unicode="t" 
d="M384 0v128h-128v384h-256v128h256v128h256v-128h256v-128h-256v-384h256v-128h-384z" />
    <glyph glyph-name="u" unicode="u" 
d="M128 0v128h-128v512h256v-512h384v512h256v-640h-768z" />
    <glyph glyph-name="v" unicode="v" 
d="M384 0v128h-128v128h-128v128h-128v256h256v-256h128v-128h128v128h128v256h256v-256h-128v-128h-128v-128h-128v-128h-128z" />
    <glyph glyph-name="w" unicode="w" 
d="M0 0v640h256v-384h128v128h128v-128h128v384h256v-640h-256v128h-384v-128h-256z" />
    <glyph glyph-name="x" unicode="x" 
d="M0 0v128h128v128h128v128h-128v128h-128v128h256v-128h128v-128h128v128h128v128h256v-128h-128v-128h-128v-128h128v-128h128v-128h-256v128h-128v128h-128v-128h-128v-128h-256z" />
    <glyph glyph-name="y" unicode="y" 
d="M128 128v128h-128v384h256v-384h256v-128h-384zM128 -128v128h384v128h128v512h256v-512h-128v-128h-128v-128h-512z" />
    <glyph glyph-name="z" unicode="z" 
d="M0 0v128h128v128h128v128h256v128h-512v128h896v-128h-128v-128h-128v-128h-256v-128h512v-128h-896z" />
    <glyph glyph-name="braceleft" unicode="{" 
d="M512 0v128h-128v256h-128v128h128v256h128v128h256v-128h-128v-128h-128v-384h128v-128h128v-128h-256z" />
    <glyph glyph-name="bar" unicode="|" 
d="M256 -128v1024h256v-1024h-256z" />
    <glyph glyph-name="braceright" unicode="}" 
d="M256 0v128h128v128h128v384h-128v128h-128v128h256v-128h128v-256h128v-128h-128v-256h-128v-128h-256z" />
    <glyph glyph-name="asciitilde" unicode="~" 
d="M0 640v128h128v128h384v-128h128v128h256v-128h-128v-128h-384v128h-128v-128h-256z" />
    <glyph glyph-name="uni007F" 
d="M0 0v1024h1024v-1024h-1024z" />
    <glyph glyph-name="uni00A0" unicode="&#xa0;" 
 />
    <glyph glyph-name="exclamdown" unicode="&#xa1;" 
d="M256 0v640h256v-640h-256zM256 768v128h256v-128h-256z" />
    <glyph glyph-name="cent" unicode="&#xa2;" 
d="M384 256v384h-128v-384h128zM384 0v128h-256v128h-128v384h128v128h256v128h128v-128h384v-128h-384v-384h384v-128h-384v-128h-128z" />
    <glyph glyph-name="yen" unicode="&#xa5;" 
d="M384 0v128h-256v128h256v128h-256v128h-128v384h256v-384h384v384h256v-384h-128v-128h-128v-128h128v-128h-128v-128h-256z" />
    <glyph glyph-name="brokenbar" unicode="&#xa6;" 
d="M256 -128v384h256v-384h-256zM256 512v384h256v-384h-256z" />
    <glyph glyph-name="dieresis" unicode="&#xa8;" 
d="M0 768v128h256v-128h-256zM384 768v128h256v-128h-256z" />
    <glyph glyph-name="copyright" unicode="&#xa9;" 
d="M256 -128v128h512v-128h-512zM128 0v128h128v-128h-128zM768 0v128h128v-128h-128zM384 128v128h256v-128h-256zM256 256v256h128v-256h-128zM0 128v512h128v-512h-128zM384 512v128h256v-128h-256zM896 128v512h128v-512h-128zM128 640v128h128v-128h-128zM768 640v128
h128v-128h-128zM256 768v128h512v-128h-512z" />
    <glyph glyph-name="guillemotleft" unicode="&#xab;" 
d="M384 128v128h128v-128h-128zM768 128v128h128v-128h-128zM256 256v128h128v-128h-128zM640 256v128h128v-128h-128zM128 384v128h128v-128h-128zM512 384v128h128v-128h-128zM256 512v128h128v-128h-128zM640 512v128h128v-128h-128zM384 640v128h128v-128h-128zM768 640
v128h128v-128h-128z" />
    <glyph glyph-name="logicalnot" unicode="&#xac;" 
d="M768 128v128h-640v128h768v-256h-128z" />
    <glyph glyph-name="uni00AD" unicode="&#xad;" 
d="M128 384v128h768v-128h-768z" />
    <glyph glyph-name="registered" unicode="&#xae;" 
d="M128 -128v128h768v-128h-768zM640 128v128h128v-128h-128zM640 384v128h128v-128h-128zM256 128v512h384v-128h-256v-128h256v-128h-256v-128h-128zM0 0v768h128v-768h-128zM896 0v768h128v-768h-128zM128 768v128h768v-128h-768z" />
    <glyph glyph-name="macron" unicode="&#xaf;" 
d="M0 768v128h640v-128h-640z" />
    <glyph glyph-name="degree" unicode="&#xb0;" 
d="M256 640v128h-128v-128h128zM0 512v384h384v-384h-384z" />
    <glyph glyph-name="plusminus" unicode="&#xb1;" 
d="M128 0v128h256v256h-256v128h256v256h256v-256h256v-128h-256v-256h256v-128h-768z" />
    <glyph glyph-name="acute" unicode="&#xb4;" 
d="M384 640v128h128v-128h-128zM512 768v128h256v-128h-256z" />
    <glyph glyph-name="mu" unicode="&#xb5;" 
d="M0 -128v768h256v-768h-256zM384 128v128h256v384h256v-384h-128v-128h-384z" />
    <glyph glyph-name="paragraph" unicode="&#xb6;" 
d="M256 0v384h-128v128h-128v256h128v128h768v-896h-256v768h-128v-768h-256z" />
    <glyph glyph-name="periodcentered" unicode="&#xb7;" 
d="M384 256v256h256v-256h-256z" />
    <glyph glyph-name="cedilla" unicode="&#xb8;" 
d="M0 -128v128h256v-128h-256zM256 0v128h128v-128h-128z" />
    <glyph glyph-name="guillemotright" unicode="&#xbb;" 
d="M128 128v128h128v-128h-128zM512 128v128h128v-128h-128zM256 256v128h128v-128h-128zM640 256v128h128v-128h-128zM384 384v128h128v-128h-128zM768 384v128h128v-128h-128zM256 512v128h128v-128h-128zM640 512v128h128v-128h-128zM128 640v128h128v-128h-128zM512 640
v128h128v-128h-128z" />
    <glyph glyph-name="questiondown" unicode="&#xbf;" 
d="M128 0v128h-128v128h128v128h256v256h256v-256h-128v-128h-256v-128h640v-128h-768zM384 768v128h256v-128h-256z" />
    <glyph glyph-name="Agrave" unicode="&#xc0;" 
d="M640 256v256h-384v-256h384zM0 0v512h128v128h256v128h128v-128h256v-128h128v-512h-256v128h-384v-128h-256zM128 768v128h256v-128h-256z" />
    <glyph glyph-name="Aacute" unicode="&#xc1;" 
d="M640 256v256h-384v-256h384zM0 0v512h128v128h256v128h128v-128h256v-128h128v-512h-256v128h-384v-128h-256zM512 768v128h256v-128h-256z" />
    <glyph glyph-name="Acircumflex" unicode="&#xc2;" 
d="M640 256v256h-384v-256h384zM0 0v512h128v128h128v128h128v-128h128v128h128v-128h128v-128h128v-512h-256v128h-384v-128h-256zM384 768v128h128v-128h-128z" />
    <glyph glyph-name="Atilde" unicode="&#xc3;" 
d="M640 256v256h-384v-256h384zM384 640v128h-128v-128h128zM0 0v512h128v128h-128v128h128v128h384v-128h128v128h256v-128h-128v-256h128v-512h-256v128h-384v-128h-256z" />
    <glyph glyph-name="Adieresis" unicode="&#xc4;" 
d="M640 256v256h-384v-256h384zM0 0v512h128v128h640v-128h128v-512h-256v128h-384v-128h-256zM128 768v128h256v-128h-256zM512 768v128h256v-128h-256z" />
    <glyph glyph-name="Aring" unicode="&#xc5;" 
d="M640 256v256h-384v-256h384zM0 0v512h128v128h640v-128h128v-512h-256v128h-384v-128h-256zM384 768v128h128v-128h-128z" />
    <glyph glyph-name="Ccedilla" unicode="&#xc7;" 
d="M256 -128v128h256v-128h-256zM512 0v128h-384v128h-128v512h128v128h768v-128h-640v-512h640v-128h-256v-128h-128z" />
    <glyph glyph-name="Egrave" unicode="&#xc8;" 
d="M512 256v128h384v-128h-384zM0 0v640h384v128h128v-128h384v-128h-640v-384h640v-128h-896zM128 768v128h256v-128h-256z" />
    <glyph glyph-name="Eacute" unicode="&#xc9;" 
d="M512 256v128h384v-128h-384zM0 0v640h384v128h128v-128h384v-128h-640v-384h640v-128h-896zM512 768v128h256v-128h-256z" />
    <glyph glyph-name="Ecircumflex" unicode="&#xca;" 
d="M512 256v128h384v-128h-384zM0 0v640h256v128h128v-128h128v128h128v-128h256v-128h-640v-384h640v-128h-896zM384 768v128h128v-128h-128z" />
    <glyph glyph-name="Edieresis" unicode="&#xcb;" 
d="M512 256v128h384v-128h-384zM0 0v640h896v-128h-640v-384h640v-128h-896zM128 768v128h256v-128h-256zM512 768v128h256v-128h-256z" />
    <glyph glyph-name="Igrave" unicode="&#xcc;" 
d="M256 0v128h128v384h-128v128h128v128h128v-128h256v-128h-128v-384h128v-128h-512zM128 768v128h256v-128h-256z" />
    <glyph glyph-name="Iacute" unicode="&#xcd;" 
d="M256 0v128h128v384h-128v128h128v128h128v-128h256v-128h-128v-384h128v-128h-512zM512 768v128h256v-128h-256z" />
    <glyph glyph-name="Icircumflex" unicode="&#xce;" 
d="M256 0v128h128v384h-128v256h128v-128h256v128h128v-256h-128v-384h128v-128h-512zM384 768v128h256v-128h-256z" />
    <glyph glyph-name="Idieresis" unicode="&#xcf;" 
d="M256 0v128h128v384h-128v128h512v-128h-128v-384h128v-128h-512zM128 768v128h256v-128h-256zM640 768v128h256v-128h-256z" />
    <glyph glyph-name="Eth" unicode="&#xd0;" 
d="M512 128v128h128v512h-256v-128h128v-128h-128v-384h128zM128 0v512h-128v128h128v256h640v-128h128v-512h-128v-128h-128v-128h-512z" />
    <glyph glyph-name="Ntilde" unicode="&#xd1;" 
d="M640 256v384h-256v128h-128v-256h128v-128h128v-128h128zM0 0v768h128v128h384v-128h128v128h256v-128h-128v-128h128v-640h-384v128h-128v128h-128v-256h-256z" />
    <glyph glyph-name="Ograve" unicode="&#xd2;" 
d="M640 128v384h-384v-384h384zM128 0v128h-128v384h128v128h256v128h128v-128h256v-128h128v-384h-128v-128h-640zM128 768v128h256v-128h-256z" />
    <glyph glyph-name="Oacute" unicode="&#xd3;" 
d="M640 128v384h-384v-384h384zM128 0v128h-128v384h128v128h256v128h128v-128h256v-128h128v-384h-128v-128h-640zM512 768v128h256v-128h-256z" />
    <glyph glyph-name="Ocircumflex" unicode="&#xd4;" 
d="M640 128v384h-384v-384h384zM128 0v128h-128v384h128v128h128v128h128v-128h128v128h128v-128h128v-128h128v-384h-128v-128h-640zM384 768v128h128v-128h-128z" />
    <glyph glyph-name="Otilde" unicode="&#xd5;" 
d="M640 128v384h-384v-384h384zM384 640v128h-128v-128h128zM128 0v128h-128v384h128v128h-128v128h128v128h384v-128h128v128h256v-128h-128v-256h128v-384h-128v-128h-640z" />
    <glyph glyph-name="Odieresis" unicode="&#xd6;" 
d="M640 128v384h-384v-384h384zM128 0v128h-128v384h128v128h640v-128h128v-384h-128v-128h-640zM128 768v128h256v-128h-256zM512 768v128h256v-128h-256z" />
    <glyph glyph-name="multiply" unicode="&#xd7;" 
d="M128 128v128h128v128h128v128h-128v128h-128v128h256v-128h128v128h256v-128h-128v-128h-128v-128h128v-128h128v-128h-256v128h-128v-128h-256z" />
    <glyph glyph-name="Ugrave" unicode="&#xd9;" 
d="M128 0v128h-128v512h256v-512h384v512h256v-512h-128v-128h-640zM384 640v128h128v-128h-128zM128 768v128h256v-128h-256z" />
    <glyph glyph-name="Uacute" unicode="&#xda;" 
d="M128 0v128h-128v512h256v-512h384v512h256v-512h-128v-128h-640zM384 640v128h128v-128h-128zM512 768v128h256v-128h-256z" />
    <glyph glyph-name="Ucircumflex" unicode="&#xdb;" 
d="M128 0v128h-128v512h256v-512h384v512h256v-512h-128v-128h-640zM256 640v128h128v-128h-128zM512 640v128h128v-128h-128zM384 768v128h128v-128h-128z" />
    <glyph glyph-name="Udieresis" unicode="&#xdc;" 
d="M128 0v128h-128v512h256v-512h384v512h256v-512h-128v-128h-640zM0 768v128h256v-128h-256zM640 768v128h256v-128h-256z" />
    <glyph glyph-name="Yacute" unicode="&#xdd;" 
d="M384 0v256h-256v128h-128v256h256v-256h384v256h256v-256h-128v-128h-128v-256h-256zM384 640v128h128v-128h-128zM512 768v128h256v-128h-256z" />
    <glyph glyph-name="Thorn" unicode="&#xde;" 
d="M384 128v128h256v384h-256v128h384v-128h128v-384h-128v-128h-384zM0 0v896h256v-896h-256z" />
    <glyph glyph-name="germandbls" unicode="&#xdf;" 
d="M0 -128v1024h640v-128h128v-128h-128v-128h128v-128h128v-256h-128v-128h-384v128h256v256h-256v128h128v256h-256v-896h-256z" />
    <glyph glyph-name="agrave" unicode="&#xe0;" 
d="M128 0v128h-128v128h128v128h384v-128h-256v-128h384v384h-512v128h256v128h128v-128h256v-128h128v-512h-768zM128 768v128h256v-128h-256z" />
    <glyph glyph-name="aacute" unicode="&#xe1;" 
d="M128 0v128h-128v128h128v128h384v-128h-256v-128h384v384h-512v128h256v128h128v-128h256v-128h128v-512h-768zM512 768v128h256v-128h-256z" />
    <glyph glyph-name="acircumflex" unicode="&#xe2;" 
d="M128 0v128h-128v128h128v128h384v-128h-256v-128h384v384h-512v128h128v128h128v-128h128v128h128v-128h128v-128h128v-512h-768zM384 768v128h128v-128h-128z" />
    <glyph glyph-name="atilde" unicode="&#xe3;" 
d="M384 640v128h-128v-128h128zM128 0v128h-128v128h128v128h384v-128h-256v-128h384v384h-512v128h-128v128h128v128h384v-128h128v128h256v-128h-128v-256h128v-512h-768z" />
    <glyph glyph-name="adieresis" unicode="&#xe4;" 
d="M128 0v128h-128v128h128v128h384v-128h-256v-128h384v384h-512v128h640v-128h128v-512h-768zM128 768v128h256v-128h-256zM640 768v128h256v-128h-256z" />
    <glyph glyph-name="aring" unicode="&#xe5;" 
d="M128 0v128h-128v128h128v128h384v-128h-256v-128h384v384h-512v128h640v-128h128v-512h-768zM384 768v128h128v-128h-128z" />
    <glyph glyph-name="ccedilla" unicode="&#xe7;" 
d="M256 -128v128h256v-128h-256zM512 0v128h-384v128h-128v384h128v128h768v-128h-640v-384h640v-128h-256v-128h-128z" />
    <glyph glyph-name="egrave" unicode="&#xe8;" 
d="M128 0v128h-128v384h128v128h256v128h128v-128h256v-128h128v-256h-512v128h256v128h-384v-384h512v-128h-640zM128 768v128h256v-128h-256z" />
    <glyph glyph-name="eacute" unicode="&#xe9;" 
d="M128 0v128h-128v384h128v128h256v128h128v-128h256v-128h128v-256h-512v128h256v128h-384v-384h512v-128h-640zM512 768v128h256v-128h-256z" />
    <glyph glyph-name="ecircumflex" unicode="&#xea;" 
d="M128 0v128h-128v384h128v128h128v128h128v-128h128v128h128v-128h128v-128h128v-256h-512v128h256v128h-384v-384h512v-128h-640zM384 768v128h128v-128h-128z" />
    <glyph glyph-name="edieresis" unicode="&#xeb;" 
d="M128 0v128h-128v384h128v128h640v-128h128v-256h-512v128h256v128h-384v-384h512v-128h-640zM128 768v128h256v-128h-256zM512 768v128h256v-128h-256z" />
    <glyph glyph-name="igrave" unicode="&#xec;" 
d="M256 0v640h128v128h128v-768h-256zM128 768v128h256v-128h-256z" />
    <glyph glyph-name="iacute" unicode="&#xed;" 
d="M256 0v768h128v-128h128v-640h-256zM384 768v128h256v-128h-256z" />
    <glyph glyph-name="icircumflex" unicode="&#xee;" 
d="M256 0v640h256v-640h-256zM128 640v128h128v-128h-128zM512 640v128h128v-128h-128zM256 768v128h256v-128h-256z" />
    <glyph glyph-name="idieresis" unicode="&#xef;" 
d="M256 0v640h256v-640h-256zM0 768v128h256v-128h-256zM512 768v128h256v-128h-256z" />
    <glyph glyph-name="ntilde" unicode="&#xf1;" 
d="M384 640v128h-128v-128h128zM0 0v768h128v128h384v-128h128v128h256v-128h-128v-256h128v-512h-256v512h-384v-512h-256z" />
    <glyph glyph-name="ograve" unicode="&#xf2;" 
d="M640 128v384h-384v-384h384zM128 0v128h-128v384h128v128h256v128h128v-128h256v-128h128v-384h-128v-128h-640zM128 768v128h256v-128h-256z" />
    <glyph glyph-name="oacute" unicode="&#xf3;" 
d="M640 128v384h-384v-384h384zM128 0v128h-128v384h128v128h256v128h128v-128h256v-128h128v-384h-128v-128h-640zM512 768v128h256v-128h-256z" />
    <glyph glyph-name="ocircumflex" unicode="&#xf4;" 
d="M640 128v384h-384v-384h384zM128 0v128h-128v384h128v128h128v128h128v-128h128v128h128v-128h128v-128h128v-384h-128v-128h-640zM384 768v128h128v-128h-128z" />
    <glyph glyph-name="otilde" unicode="&#xf5;" 
d="M640 128v384h-384v-384h384zM384 640v128h-128v-128h128zM128 0v128h-128v384h128v128h-128v128h128v128h384v-128h128v128h256v-128h-128v-256h128v-384h-128v-128h-640z" />
    <glyph glyph-name="odieresis" unicode="&#xf6;" 
d="M640 128v384h-384v-384h384zM128 0v128h-128v384h128v128h640v-128h128v-384h-128v-128h-640zM128 768v128h256v-128h-256zM512 768v128h256v-128h-256z" />
    <glyph glyph-name="divide" unicode="&#xf7;" 
d="M384 128v128h256v-128h-256zM128 384v128h768v-128h-768zM384 640v128h256v-128h-256z" />
    <glyph glyph-name="ugrave" unicode="&#xf9;" 
d="M128 0v128h-128v512h256v-512h384v512h256v-640h-768zM384 640v128h128v-128h-128zM128 768v128h256v-128h-256z" />
    <glyph glyph-name="uacute" unicode="&#xfa;" 
d="M128 0v128h-128v512h256v-512h384v512h256v-640h-768zM384 640v128h128v-128h-128zM512 768v128h256v-128h-256z" />
    <glyph glyph-name="ucircumflex" unicode="&#xfb;" 
d="M128 0v128h-128v512h256v-512h384v512h256v-640h-768zM256 640v128h128v-128h-128zM512 640v128h128v-128h-128zM384 768v128h128v-128h-128z" />
    <glyph glyph-name="udieresis" unicode="&#xfc;" 
d="M128 0v128h-128v512h256v-512h384v512h256v-640h-768zM0 768v128h256v-128h-256zM640 768v128h256v-128h-256z" />
    <glyph glyph-name="yacute" unicode="&#xfd;" 
d="M128 128v128h-128v384h256v-384h256v-128h-384zM128 -128v128h384v128h128v512h256v-512h-128v-128h-128v-128h-512zM384 640v128h128v-128h-128zM512 768v128h256v-128h-256z" />
    <glyph glyph-name="thorn" unicode="&#xfe;" 
d="M384 128v128h256v256h-256v128h384v-128h128v-256h-128v-128h-384zM0 -128v1024h256v-1024h-256z" />
    <glyph glyph-name="ydieresis" unicode="&#xff;" 
d="M128 128v128h-128v384h256v-384h256v-128h-384zM128 -128v128h384v128h128v512h256v-512h-128v-128h-128v-128h-512zM0 768v128h256v-128h-256zM640 768v128h256v-128h-256z" />
    <glyph glyph-name="Amacron" unicode="&#x100;" 
d="M640 256v256h-384v-256h384zM0 0v512h128v128h640v-128h128v-512h-256v128h-384v-128h-256zM128 768v128h640v-128h-640z" />
    <glyph glyph-name="amacron" unicode="&#x101;" 
d="M128 0v128h-128v128h128v128h384v-128h-256v-128h384v384h-512v128h640v-128h128v-512h-768zM128 768v128h640v-128h-640z" />
    <glyph glyph-name="Abreve" unicode="&#x102;" 
d="M640 256v256h-384v-256h384zM0 0v512h128v128h640v-128h128v-512h-256v128h-384v-128h-256zM256 768v128h128v-128h-128zM512 768v128h128v-128h-128z" />
    <glyph glyph-name="abreve" unicode="&#x103;" 
d="M128 0v128h-128v128h128v128h384v-128h-256v-128h384v384h-512v128h640v-128h128v-512h-768zM256 768v128h128v-128h-128zM512 768v128h128v-128h-128z" />
    <glyph glyph-name="Cacute" unicode="&#x106;" 
d="M128 0v128h-128v384h128v128h256v128h128v-128h384v-128h-640v-384h640v-128h-768zM512 768v128h256v-128h-256z" />
    <glyph glyph-name="cacute" unicode="&#x107;" 
d="M128 0v128h-128v384h128v128h256v128h128v-128h384v-128h-640v-384h640v-128h-768zM512 768v128h256v-128h-256z" />
    <glyph glyph-name="Ccircumflex" unicode="&#x108;" 
d="M128 0v128h-128v384h128v128h128v128h128v-128h128v128h128v-128h256v-128h-640v-384h640v-128h-768zM384 768v128h128v-128h-128z" />
    <glyph glyph-name="ccircumflex" unicode="&#x109;" 
d="M128 0v128h-128v384h128v128h128v128h128v-128h128v128h128v-128h256v-128h-640v-384h640v-128h-768zM384 768v128h128v-128h-128z" />
    <glyph glyph-name="Cdotaccent" unicode="&#x10a;" 
d="M128 0v128h-128v384h128v128h768v-128h-640v-384h640v-128h-768zM384 768v128h128v-128h-128z" />
    <glyph glyph-name="cdotaccent" unicode="&#x10b;" 
d="M128 0v128h-128v384h128v128h768v-128h-640v-384h640v-128h-768zM384 768v128h128v-128h-128z" />
    <glyph glyph-name="Ccaron" unicode="&#x10c;" 
d="M128 0v128h-128v384h128v128h256v128h128v-128h384v-128h-640v-384h640v-128h-768zM256 768v128h128v-128h-128zM512 768v128h128v-128h-128z" />
    <glyph glyph-name="ccaron" unicode="&#x10d;" 
d="M128 0v128h-128v384h128v128h256v128h128v-128h384v-128h-640v-384h640v-128h-768zM256 768v128h128v-128h-128zM512 768v128h128v-128h-128z" />
    <glyph glyph-name="Dcroat" unicode="&#x110;" 
d="M512 128v128h128v512h-256v-128h128v-128h-128v-384h128zM128 0v512h-128v128h128v256h640v-128h128v-512h-128v-128h-128v-128h-512z" />
    <glyph glyph-name="Emacron" unicode="&#x112;" 
d="M512 256v128h384v-128h-384zM0 0v640h896v-128h-640v-384h640v-128h-896zM128 768v128h640v-128h-640z" />
    <glyph glyph-name="emacron" unicode="&#x113;" 
d="M128 0v128h-128v384h128v128h640v-128h128v-256h-512v128h256v128h-384v-384h512v-128h-640zM128 768v128h640v-128h-640z" />
    <glyph glyph-name="Ebreve" unicode="&#x114;" 
d="M512 256v128h384v-128h-384zM0 0v640h896v-128h-640v-384h640v-128h-896zM256 768v128h128v-128h-128zM512 768v128h128v-128h-128z" />
    <glyph glyph-name="ebreve" unicode="&#x115;" 
d="M128 0v128h-128v384h128v128h640v-128h128v-256h-512v128h256v128h-384v-384h512v-128h-640zM256 768v128h128v-128h-128zM512 768v128h128v-128h-128z" />
    <glyph glyph-name="Edotaccent" unicode="&#x116;" 
d="M512 256v128h384v-128h-384zM0 0v640h896v-128h-640v-384h640v-128h-896zM384 768v128h128v-128h-128z" />
    <glyph glyph-name="edotaccent" unicode="&#x117;" 
d="M128 0v128h-128v384h128v128h640v-128h128v-256h-512v128h256v128h-384v-384h512v-128h-640zM384 768v128h128v-128h-128z" />
    <glyph glyph-name="Ecaron" unicode="&#x11a;" 
d="M512 256v128h384v-128h-384zM0 0v640h384v128h128v-128h384v-128h-640v-384h640v-128h-896zM256 768v128h128v-128h-128zM512 768v128h128v-128h-128z" />
    <glyph glyph-name="ecaron" unicode="&#x11b;" 
d="M128 0v128h-128v384h128v128h256v128h128v-128h256v-128h128v-256h-512v128h256v128h-384v-384h512v-128h-640zM256 768v128h128v-128h-128zM512 768v128h128v-128h-128z" />
    <glyph glyph-name="Itilde" unicode="&#x128;" 
d="M256 0v128h128v384h-128v128h128v128h-128v-128h-256v128h128v128h384v-128h128v128h256v-128h-128v-256h-128v-384h128v-128h-512z" />
    <glyph glyph-name="itilde" unicode="&#x129;" 
d="M256 0v640h128v128h-128v-128h-256v128h128v128h384v-128h128v128h256v-128h-128v-128h-256v-640h-256z" />
    <glyph glyph-name="Imacron" unicode="&#x12a;" 
d="M256 0v128h128v384h-128v128h512v-128h-128v-384h128v-128h-512zM256 768v128h512v-128h-512z" />
    <glyph glyph-name="imacron" unicode="&#x12b;" 
d="M256 0v640h256v-640h-256zM128 768v128h512v-128h-512z" />
    <glyph glyph-name="Ibreve" unicode="&#x12c;" 
d="M256 0v128h128v384h-128v128h512v-128h-128v-384h128v-128h-512zM256 768v128h128v-128h-128zM640 768v128h128v-128h-128z" />
    <glyph glyph-name="ibreve" unicode="&#x12d;" 
d="M256 0v640h256v-640h-256zM128 768v128h128v-128h-128zM512 768v128h128v-128h-128z" />
    <glyph glyph-name="Idotaccent" unicode="&#x130;" 
d="M256 0v128h128v384h-128v128h512v-128h-128v-384h128v-128h-512zM384 768v128h256v-128h-256z" />
    <glyph glyph-name="dotlessi" unicode="&#x131;" 
d="M256 0v640h256v-640h-256z" />
    <glyph glyph-name="Nacute" unicode="&#x143;" 
d="M0 0v640h256v-128h128v-128h128v-128h128v384h256v-640h-384v128h-128v128h-128v-256h-256zM384 640v128h128v-128h-128zM512 768v128h256v-128h-256z" />
    <glyph glyph-name="nacute" unicode="&#x144;" 
d="M0 0v640h384v128h128v-128h256v-128h128v-512h-256v512h-384v-512h-256zM512 768v128h256v-128h-256z" />
    <glyph glyph-name="Ncaron" unicode="&#x147;" 
d="M0 0v640h256v-128h128v-128h128v-128h128v384h256v-640h-384v128h-128v128h-128v-256h-256zM384 640v128h128v-128h-128zM256 768v128h128v-128h-128zM512 768v128h128v-128h-128z" />
    <glyph glyph-name="ncaron" unicode="&#x148;" 
d="M0 0v640h384v128h128v-128h256v-128h128v-512h-256v512h-384v-512h-256zM256 768v128h128v-128h-128zM512 768v128h128v-128h-128z" />
    <glyph glyph-name="Omacron" unicode="&#x14c;" 
d="M640 128v384h-384v-384h384zM128 0v128h-128v384h128v128h640v-128h128v-384h-128v-128h-640zM128 768v128h640v-128h-640z" />
    <glyph glyph-name="omacron" unicode="&#x14d;" 
d="M640 128v384h-384v-384h384zM128 0v128h-128v384h128v128h640v-128h128v-384h-128v-128h-640zM128 768v128h640v-128h-640z" />
    <glyph glyph-name="Obreve" unicode="&#x14e;" 
d="M640 128v384h-384v-384h384zM128 0v128h-128v384h128v128h640v-128h128v-384h-128v-128h-640zM256 768v128h128v-128h-128zM512 768v128h128v-128h-128z" />
    <glyph glyph-name="obreve" unicode="&#x14f;" 
d="M640 128v384h-384v-384h384zM128 0v128h-128v384h128v128h640v-128h128v-384h-128v-128h-640zM256 768v128h128v-128h-128zM512 768v128h128v-128h-128z" />
    <glyph glyph-name="Sacute" unicode="&#x15a;" 
d="M384 0v128h256v128h-512v128h-128v128h128v128h256v128h128v-128h384v-128h-640v-128h512v-128h128v-128h-128v-128h-384zM512 768v128h256v-128h-256z" />
    <glyph glyph-name="sacute" unicode="&#x15b;" 
d="M256 0v128h384v128h-512v128h-128v128h128v128h256v128h128v-128h384v-128h-640v-128h512v-128h128v-128h-128v-128h-512zM512 768v128h256v-128h-256z" />
    <glyph glyph-name="Scircumflex" unicode="&#x15c;" 
d="M256 0v128h384v128h-512v128h-128v128h128v128h128v128h128v-128h128v128h128v-128h256v-128h-640v-128h512v-128h128v-128h-128v-128h-512zM384 768v128h128v-128h-128z" />
    <glyph glyph-name="scircumflex" unicode="&#x15d;" 
d="M256 0v128h384v128h-512v128h-128v128h128v128h128v128h128v-128h128v128h128v-128h256v-128h-640v-128h512v-128h128v-128h-128v-128h-512zM384 768v128h128v-128h-128z" />
    <glyph glyph-name="Scedilla" unicode="&#x15e;" 
d="M128 -128v128h256v-128h-256zM384 0v128h-128v128h256v128h128v128h-512v128h-128v128h128v128h768v-128h-640v-128h512v-128h128v-128h-128v-128h-128v-128h-128v-128h-128z" />
    <glyph glyph-name="scedilla" unicode="&#x15f;" 
d="M256 -128v128h256v-128h-256zM512 0v128h-256v128h384v128h-512v128h-128v128h128v128h768v-128h-640v-128h512v-128h128v-128h-128v-128h-128v-128h-128z" />
    <glyph glyph-name="Scaron" unicode="&#x160;" 
d="M256 0v128h384v128h-512v128h-128v128h128v128h256v128h128v-128h384v-128h-640v-128h512v-128h128v-128h-128v-128h-512zM256 768v128h128v-128h-128zM512 768v128h128v-128h-128z" />
    <glyph glyph-name="scaron" unicode="&#x161;" 
d="M256 0v128h384v128h-512v128h-128v128h128v128h256v128h128v-128h384v-128h-640v-128h512v-128h128v-128h-128v-128h-512zM256 768v128h128v-128h-128zM512 768v128h128v-128h-128z" />
    <glyph glyph-name="Utilde" unicode="&#x168;" 
d="M640 128v512h-256v128h-128v-640h384zM128 0v128h-128v640h128v128h384v-128h128v128h256v-128h-128v-128h128v-512h-128v-128h-640z" />
    <glyph glyph-name="utilde" unicode="&#x169;" 
d="M640 128v512h-256v128h-128v-640h384zM128 0v128h-128v640h128v128h384v-128h128v128h256v-128h-128v-128h128v-640h-768z" />
    <glyph glyph-name="Umacron" unicode="&#x16a;" 
d="M128 0v128h-128v512h256v-512h384v512h256v-512h-128v-128h-640zM128 768v128h640v-128h-640z" />
    <glyph glyph-name="umacron" unicode="&#x16b;" 
d="M128 0v128h-128v512h256v-512h384v512h256v-640h-768zM128 768v128h640v-128h-640z" />
    <glyph glyph-name="Ubreve" unicode="&#x16c;" 
d="M128 0v128h-128v512h256v-512h384v512h256v-512h-128v-128h-640zM256 768v128h128v-128h-128zM512 768v128h128v-128h-128z" />
    <glyph glyph-name="ubreve" unicode="&#x16d;" 
d="M128 0v128h-128v512h256v-512h384v512h256v-640h-768zM256 768v128h128v-128h-128zM512 768v128h128v-128h-128z" />
    <glyph glyph-name="Uring" unicode="&#x16e;" 
d="M128 0v128h-128v512h256v-512h384v512h256v-512h-128v-128h-640zM384 768v128h128v-128h-128z" />
    <glyph glyph-name="uring" unicode="&#x16f;" 
d="M128 0v128h-128v512h256v-512h384v512h256v-640h-768zM384 768v128h128v-128h-128z" />
    <glyph glyph-name="Ycircumflex" unicode="&#x176;" 
d="M384 0v256h-256v128h-128v256h256v-256h384v256h256v-256h-128v-128h-128v-256h-256zM256 640v128h128v-128h-128zM512 640v128h128v-128h-128zM384 768v128h128v-128h-128z" />
    <glyph glyph-name="ycircumflex" unicode="&#x177;" 
d="M128 128v128h-128v384h256v-384h256v-128h-384zM128 -128v128h384v128h128v512h256v-512h-128v-128h-128v-128h-512zM256 640v128h128v-128h-128zM512 640v128h128v-128h-128zM384 768v128h128v-128h-128z" />
    <glyph glyph-name="Ydieresis" unicode="&#x178;" 
d="M384 0v256h-256v128h-128v256h256v-256h384v256h256v-256h-128v-128h-128v-256h-256zM0 768v128h256v-128h-256zM640 768v128h256v-128h-256z" />
    <glyph glyph-name="Zacute" unicode="&#x179;" 
d="M0 0v128h128v128h128v128h256v128h-384v128h256v128h128v-128h384v-128h-128v-128h-128v-128h-256v-128h512v-128h-896zM512 768v128h256v-128h-256z" />
    <glyph glyph-name="zacute" unicode="&#x17a;" 
d="M0 0v128h128v128h128v128h256v128h-512v128h384v128h128v-128h384v-128h-128v-128h-128v-128h-256v-128h512v-128h-896zM512 768v128h256v-128h-256z" />
    <glyph glyph-name="Zdotaccent" unicode="&#x17b;" 
d="M0 0v128h128v128h128v128h256v128h-384v128h768v-128h-128v-128h-128v-128h-256v-128h512v-128h-896zM384 768v128h128v-128h-128z" />
    <glyph glyph-name="zdotaccent" unicode="&#x17c;" 
d="M0 0v128h128v128h128v128h256v128h-512v128h896v-128h-128v-128h-128v-128h-256v-128h512v-128h-896zM384 768v128h128v-128h-128z" />
    <glyph glyph-name="Zcaron" unicode="&#x17d;" 
d="M0 0v128h128v128h128v128h256v128h-384v128h256v128h128v-128h384v-128h-128v-128h-128v-128h-256v-128h512v-128h-896zM256 768v128h128v-128h-128zM512 768v128h128v-128h-128z" />
    <glyph glyph-name="zcaron" unicode="&#x17e;" 
d="M0 0v128h128v128h128v128h256v128h-512v128h384v128h128v-128h384v-128h-128v-128h-128v-128h-256v-128h512v-128h-896zM256 768v128h128v-128h-128zM512 768v128h128v-128h-128z" />
    <glyph glyph-name="uni01DD" unicode="&#x1dd;" 
d="M128 0v128h-128v256h512v-128h-256v-128h384v384h-512v128h640v-128h128v-384h-128v-128h-640z" />
    <glyph glyph-name="uni01F8" unicode="&#x1f8;" 
d="M0 0v640h256v-128h128v-128h128v-128h128v384h256v-640h-384v128h-128v128h-128v-256h-256zM384 640v128h128v-128h-128zM128 768v128h256v-128h-256z" />
    <glyph glyph-name="uni01F9" unicode="&#x1f9;" 
d="M0 0v640h384v128h128v-128h256v-128h128v-512h-256v512h-384v-512h-256zM128 768v128h256v-128h-256z" />
    <glyph glyph-name="uni0226" unicode="&#x226;" 
d="M640 256v256h-384v-256h384zM0 0v512h128v128h640v-128h128v-512h-256v128h-384v-128h-256zM384 768v128h128v-128h-128z" />
    <glyph glyph-name="uni0227" unicode="&#x227;" 
d="M128 0v128h-128v128h128v128h384v-128h-256v-128h384v384h-512v128h640v-128h128v-512h-768zM384 768v128h128v-128h-128z" />
    <glyph glyph-name="uni0228" unicode="&#x228;" 
d="M256 -128v128h256v-128h-256zM512 384v128h384v-128h-384zM512 0v128h-512v640h896v-128h-640v-384h640v-128h-256v-128h-128z" />
    <glyph glyph-name="uni0229" unicode="&#x229;" 
d="M256 -128v128h256v-128h-256zM512 0v128h-384v128h-128v384h128v128h640v-128h128v-256h-512v128h256v128h-384v-384h512v-128h-128v-128h-128z" />
    <glyph glyph-name="uni022E" unicode="&#x22e;" 
d="M640 128v384h-384v-384h384zM128 0v128h-128v384h128v128h640v-128h128v-384h-128v-128h-640zM384 768v128h128v-128h-128z" />
    <glyph glyph-name="uni022F" unicode="&#x22f;" 
d="M640 128v384h-384v-384h384zM128 0v128h-128v384h128v128h640v-128h128v-384h-128v-128h-640zM384 768v128h128v-128h-128z" />
    <glyph glyph-name="uni0232" unicode="&#x232;" 
d="M384 0v256h-256v128h-128v256h256v-256h384v256h256v-256h-128v-128h-128v-256h-256zM128 768v128h640v-128h-640z" />
    <glyph glyph-name="uni0233" unicode="&#x233;" 
d="M128 128v128h-128v384h256v-384h256v-128h-384zM128 -128v128h384v128h128v512h256v-512h-128v-128h-128v-128h-512zM128 768v128h640v-128h-640z" />
    <glyph glyph-name="tilde" unicode="&#x2dc;" 
d="M0 640v128h128v128h384v-128h128v128h256v-128h-128v-128h-384v128h-128v-128h-256z" />
    <glyph glyph-name="Pi" unicode="&#x3a0;" 
d="M128 0v768h-128v128h896v-128h-128v-768h-256v768h-128v-768h-256z" />
    <glyph glyph-name="uni03BC" unicode="&#x3bc;" 
d="M0 -128v768h256v-768h-256zM384 128v128h256v384h256v-384h-128v-128h-384z" />
    <glyph glyph-name="pi" unicode="&#x3c0;" 
d="M128 0v512h-128v128h896v-128h-128v-512h-256v512h-128v-512h-256z" />
    <glyph glyph-name="uni0418" unicode="&#x418;" 
d="M0 0v896h256v-512h128v128h128v128h128v128h128v128h128v-896h-256v384h-128v-128h-128v-128h-128v-128h-256z" />
    <glyph glyph-name="uni042F" unicode="&#x42f;" 
d="M640 384v384h-384v-256h128v-128h256zM0 0v128h128v128h128v128h-128v128h-128v256h128v128h768v-896h-256v256h-256v-128h-128v-128h-256z" />
    <glyph glyph-name="uni1E60" unicode="&#x1e60;" 
d="M256 0v128h384v128h-512v128h-128v128h128v128h768v-128h-640v-128h512v-128h128v-128h-128v-128h-512zM384 768v128h128v-128h-128z" />
    <glyph glyph-name="uni1E61" unicode="&#x1e61;" 
d="M256 0v128h384v128h-512v128h-128v128h128v128h768v-128h-640v-128h512v-128h128v-128h-128v-128h-512zM384 768v128h128v-128h-128z" />
    <glyph glyph-name="uni1E8E" unicode="&#x1e8e;" 
d="M384 0v256h-256v128h-128v256h256v-256h384v256h256v-256h-128v-128h-128v-256h-256zM384 768v128h128v-128h-128z" />
    <glyph glyph-name="uni1E8F" unicode="&#x1e8f;" 
d="M128 128v128h-128v384h256v-384h256v-128h-384zM128 -128v128h384v128h128v512h256v-512h-128v-128h-128v-128h-512zM384 768v128h128v-128h-128z" />
    <glyph glyph-name="uni1E90" unicode="&#x1e90;" 
d="M0 0v128h128v128h128v128h256v128h-384v128h128v128h128v-128h128v128h128v-128h256v-128h-128v-128h-128v-128h-256v-128h512v-128h-896zM384 768v128h128v-128h-128z" />
    <glyph glyph-name="uni1E91" unicode="&#x1e91;" 
d="M0 0v128h128v128h128v128h256v128h-512v128h256v128h128v-128h128v128h128v-128h256v-128h-128v-128h-128v-128h-256v-128h512v-128h-896zM384 768v128h128v-128h-128z" />
    <glyph glyph-name="uni1E99" unicode="&#x1e99;" 
d="M128 128v128h-128v384h256v-384h256v-128h-384zM128 -128v128h384v128h128v512h256v-512h-128v-128h-128v-128h-512zM384 768v128h128v-128h-128z" />
    <glyph glyph-name="uni1EBC" unicode="&#x1ebc;" 
d="M512 256v128h384v-128h-384zM384 640v128h-128v-128h128zM0 0v768h128v128h384v-128h128v128h256v-128h-128v-128h128v-128h-640v-384h640v-128h-896z" />
    <glyph glyph-name="uni1EBD" unicode="&#x1ebd;" 
d="M384 640v128h-128v-128h128zM128 0v128h-128v384h128v128h-128v128h128v128h384v-128h128v128h256v-128h-128v-256h128v-256h-512v128h256v128h-384v-384h512v-128h-640z" />
    <glyph glyph-name="Ygrave" unicode="&#x1ef2;" 
d="M384 0v256h-256v128h-128v256h256v-256h384v256h256v-256h-128v-128h-128v-256h-256zM384 640v128h128v-128h-128zM128 768v128h256v-128h-256z" />
    <glyph glyph-name="ygrave" unicode="&#x1ef3;" 
d="M128 128v128h-128v384h256v-384h256v-128h-384zM128 -128v128h384v128h128v512h256v-512h-128v-128h-128v-128h-512zM384 640v128h128v-128h-128zM128 768v128h256v-128h-256z" />
    <glyph glyph-name="uni1EF8" unicode="&#x1ef8;" 
d="M640 384v256h-256v128h-128v-384h384zM384 0v256h-256v128h-128v384h128v128h384v-128h128v128h256v-128h-128v-128h128v-256h-128v-128h-128v-256h-256z" />
    <glyph glyph-name="uni1EF9" unicode="&#x1ef9;" 
d="M128 -128v128h384v128h128v512h-256v128h-128v-512h256v-128h-384v128h-128v512h128v128h384v-128h128v128h256v-128h-128v-128h128v-512h-128v-128h-128v-128h-512z" />
    <glyph glyph-name="uni2010" unicode="&#x2010;" 
d="M128 384v128h768v-128h-768z" />
    <glyph glyph-name="uni2011" unicode="&#x2011;" 
d="M128 384v128h768v-128h-768z" />
    <glyph glyph-name="figuredash" unicode="&#x2012;" 
d="M128 384v128h768v-128h-768z" />
    <glyph glyph-name="endash" unicode="&#x2013;" 
d="M128 384v128h768v-128h-768z" />
    <glyph glyph-name="emdash" unicode="&#x2014;" 
d="M0 384v128h896v-128h-896z" />
    <glyph glyph-name="quoteleft" unicode="&#x2018;" 
d="M256 384v256h128v128h128v-384h-256zM512 768v128h128v-128h-128z" />
    <glyph glyph-name="quoteright" unicode="&#x2019;" 
d="M256 384v128h128v-128h-128zM384 512v384h256v-256h-128v-128h-128z" />
    <glyph glyph-name="quotesinglbase" unicode="&#x201a;" 
d="M256 -128v128h128v-128h-128zM384 0v384h256v-256h-128v-128h-128z" />
    <glyph glyph-name="quotereversed" unicode="&#x201b;" 
d="M512 384v128h128v-128h-128zM384 512v128h-128v256h256v-384h-128z" />
    <glyph glyph-name="quotedblleft" unicode="&#x201c;" 
d="M0 384v256h128v128h128v-384h-256zM512 384v256h128v128h128v-384h-256zM256 768v128h128v-128h-128zM768 768v128h128v-128h-128z" />
    <glyph glyph-name="quotedblright" unicode="&#x201d;" 
d="M0 384v128h128v-128h-128zM512 384v128h128v-128h-128zM128 512v384h256v-256h-128v-128h-128zM640 512v384h256v-256h-128v-128h-128z" />
    <glyph glyph-name="quotedblbase" unicode="&#x201e;" 
d="M0 -128v128h128v-128h-128zM512 -128v128h128v-128h-128zM128 0v384h256v-256h-128v-128h-128zM640 0v384h256v-256h-128v-128h-128z" />
    <glyph glyph-name="uni201F" unicode="&#x201f;" 
d="M256 384v128h128v-128h-128zM768 384v128h128v-128h-128zM128 512v128h-128v256h256v-384h-128zM640 512v128h-128v256h256v-384h-128z" />
    <glyph glyph-name="dagger" unicode="&#x2020;" 
d="M384 -128v640h-256v128h256v256h256v-256h256v-128h-256v-640h-256z" />
    <glyph glyph-name="daggerdbl" unicode="&#x2021;" 
d="M384 -128v256h-256v128h256v256h-256v128h256v256h256v-256h256v-128h-256v-256h256v-128h-256v-256h-256z" />
    <glyph glyph-name="bullet" unicode="&#x2022;" 
d="M384 256v256h256v-256h-256z" />
    <glyph glyph-name="uni2027" unicode="&#x2027;" 
d="M384 256v256h256v-256h-256z" />
    <glyph glyph-name="uni2038" unicode="&#x2038;" 
d="M128 0v256h128v128h128v128h128v-128h128v-128h128v-256h-128v128h-128v128h-128v-128h-128v-128h-128z" />
    <glyph glyph-name="guilsinglleft" unicode="&#x2039;" 
d="M512 128v128h-128v128h-128v128h128v128h128v128h256v-128h-128v-128h-128v-128h128v-128h128v-128h-256z" />
    <glyph glyph-name="guilsinglright" unicode="&#x203a;" 
d="M256 128v128h128v128h128v128h-128v128h-128v128h256v-128h128v-128h128v-128h-128v-128h-128v-128h-256z" />
    <glyph glyph-name="uni203E" unicode="&#x203e;" 
d="M0 768v128h896v-128h-896z" />
    <glyph glyph-name="uni2043" unicode="&#x2043;" 
d="M128 384v128h640v-128h-640z" />
    <glyph glyph-name="uni204B" unicode="&#x204b;" 
d="M0 0v896h768v-128h128v-256h-128v-128h-128v-384h-256v768h-128v-768h-256z" />
    <glyph glyph-name="uni204F" unicode="&#x204f;" 
d="M384 -128v128h-128v256h256v-256h128v-128h-256zM256 384v256h256v-256h-256z" />
    <glyph glyph-name="uni2053" unicode="&#x2053;" 
d="M0 256v128h128v128h384v-128h128v128h256v-128h-128v-128h-384v128h-128v-128h-256z" />
    <glyph glyph-name="Euro" unicode="&#x20ac;" 
d="M512 256v128h256v-128h-256zM512 512v128h256v-128h-256zM256 0v128h-128v128h-128v128h128v128h-128v128h128v128h128v128h640v-128h-512v-640h512v-128h-640z" />
    <glyph glyph-name="trademark" unicode="&#x2122;" 
d="M128 512v256h-128v128h384v-128h-128v-256h-128zM512 512v384h128v-128h256v128h128v-384h-128v128h-256v-128h-128z" />
    <glyph glyph-name="arrowleft" unicode="&#x2190;" 
d="M384 0v128h-128v128h-128v128h-128v128h128v128h128v128h128v128h128v-256h512v-128h-128v-128h128v-128h-512v-256h-128z" />
    <glyph glyph-name="arrowup" unicode="&#x2191;" 
d="M256 -128v512h-256v128h128v128h128v128h128v128h128v-128h128v-128h128v-128h128v-128h-256v-512h-128v128h-128v-128h-128z" />
    <glyph glyph-name="arrowright" unicode="&#x2192;" 
d="M512 0v256h-512v128h128v128h-128v128h512v256h128v-128h128v-128h128v-128h128v-128h-128v-128h-128v-128h-128v-128h-128z" />
    <glyph glyph-name="arrowdown" unicode="&#x2193;" 
d="M384 -128v128h-128v128h-128v128h-128v128h256v512h128v-128h128v128h128v-512h256v-128h-128v-128h-128v-128h-128v-128h-128z" />
    <glyph glyph-name="uni2196" unicode="&#x2196;" 
d="M512 0v128h-128v128h-128v128h-128v-128h-128v640h640v-128h-128v-128h128v-128h128v-128h128v-128h-256v-256h-128z" />
    <glyph glyph-name="uni2197" unicode="&#x2197;" 
d="M256 0v256h-256v128h128v128h128v128h128v128h-128v128h640v-640h-128v128h-128v-128h-128v-128h-128v-128h-128z" />
    <glyph glyph-name="uni2198" unicode="&#x2198;" 
d="M256 0v128h128v128h-128v128h-128v128h-128v128h256v256h128v-128h128v-128h128v-128h128v128h128v-640h-640z" />
    <glyph glyph-name="uni2199" unicode="&#x2199;" 
d="M0 0v640h128v-128h128v128h128v128h128v128h128v-256h256v-128h-128v-128h-128v-128h-128v-128h128v-128h-640z" />
    <glyph glyph-name="arrowdblleft" unicode="&#x21d0;" 
d="M384 0v128h-128v128h-128v128h-128v128h128v128h128v128h128v128h128v-256h512v-128h-768v-128h768v-128h-512v-256h-128z" />
    <glyph glyph-name="arrowdblup" unicode="&#x21d1;" 
d="M256 -128v512h-256v128h128v128h128v128h128v128h128v-128h128v-128h128v-128h128v-128h-256v-512h-128v768h-128v-768h-128z" />
    <glyph glyph-name="arrowdblright" unicode="&#x21d2;" 
d="M512 0v256h-512v128h768v128h-768v128h512v256h128v-128h128v-128h128v-128h128v-128h-128v-128h-128v-128h-128v-128h-128z" />
    <glyph glyph-name="arrowdbldown" unicode="&#x21d3;" 
d="M384 -128v128h-128v128h-128v128h-128v128h256v512h128v-768h128v768h128v-512h256v-128h-128v-128h-128v-128h-128v-128h-128z" />
    <glyph glyph-name="uni21D6" unicode="&#x21d6;" 
d="M512 0v128h-128v128h-128v128h-128v-128h-128v640h640v-128h-128v-128h128v-128h128v-128h128v-128h-256v128h-128v128h-128v128h-128v-128h128v-128h128v-128h128v-256h-128z" />
    <glyph glyph-name="uni21D7" unicode="&#x21d7;" 
d="M256 0v256h128v128h128v128h128v128h-128v-128h-128v-128h-128v-128h-256v128h128v128h128v128h128v128h-128v128h640v-640h-128v128h-128v-128h-128v-128h-128v-128h-128z" />
    <glyph glyph-name="uni21D8" unicode="&#x21d8;" 
d="M256 0v128h128v128h-128v128h-128v128h-128v128h256v-128h128v-128h128v-128h128v128h-128v128h-128v128h-128v256h128v-128h128v-128h128v-128h128v128h128v-640h-640z" />
    <glyph glyph-name="uni21D9" unicode="&#x21d9;" 
d="M0 0v640h128v-128h128v128h128v128h128v128h128v-256h-128v-128h-128v-128h-128v-128h128v128h128v128h128v128h256v-128h-128v-128h-128v-128h-128v-128h128v-128h-640z" />
    <glyph glyph-name="upblock" unicode="&#x2580;" 
d="M0 512v512h1024v-512h-1024z" />
    <glyph glyph-name="uni2581" unicode="&#x2581;" 
d="M0 0v128h1024v-128h-1024z" />
    <glyph glyph-name="uni2582" unicode="&#x2582;" 
d="M0 0v256h1024v-256h-1024z" />
    <glyph glyph-name="uni2583" unicode="&#x2583;" 
d="M0 0v384h1024v-384h-1024z" />
    <glyph glyph-name="dnblock" unicode="&#x2584;" 
d="M0 0v512h1024v-512h-1024z" />
    <glyph glyph-name="uni2585" unicode="&#x2585;" 
d="M0 0v640h1024v-640h-1024z" />
    <glyph glyph-name="uni2586" unicode="&#x2586;" 
d="M0 0v768h1024v-768h-1024z" />
    <glyph glyph-name="uni2587" unicode="&#x2587;" 
d="M0 0v896h1024v-896h-1024z" />
    <glyph glyph-name="block" unicode="&#x2588;" 
d="M0 0v1024h1024v-1024h-1024z" />
    <glyph glyph-name="uni2589" unicode="&#x2589;" 
d="M0 0v1024h896v-1024h-896z" />
    <glyph glyph-name="uni258A" unicode="&#x258a;" 
d="M0 0v1024h768v-1024h-768z" />
    <glyph glyph-name="uni258B" unicode="&#x258b;" 
d="M0 0v1024h640v-1024h-640z" />
    <glyph glyph-name="lfblock" unicode="&#x258c;" 
d="M0 0v1024h512v-1024h-512z" />
    <glyph glyph-name="uni258D" unicode="&#x258d;" 
d="M0 0v1024h384v-1024h-384z" />
    <glyph glyph-name="uni258E" unicode="&#x258e;" 
d="M0 0v1024h256v-1024h-256z" />
    <glyph glyph-name="uni258F" unicode="&#x258f;" 
d="M0 0v1024h128v-1024h-128z" />
    <glyph glyph-name="rtblock" unicode="&#x2590;" 
d="M512 0v1024h512v-1024h-512z" />
    <glyph glyph-name="uni2594" unicode="&#x2594;" 
d="M0 896v128h1024v-128h-1024z" />
    <glyph glyph-name="uni2595" unicode="&#x2595;" 
d="M896 0v1024h128v-1024h-128z" />
    <glyph glyph-name="uni2596" unicode="&#x2596;" 
d="M0 0v512h512v-512h-512z" />
    <glyph glyph-name="uni2597" unicode="&#x2597;" 
d="M512 0v512h512v-512h-512z" />
    <glyph glyph-name="uni2598" unicode="&#x2598;" 
d="M0 512v512h512v-512h-512z" />
    <glyph glyph-name="uni2599" unicode="&#x2599;" 
d="M0 0v1024h512v-512h512v-512h-1024z" />
    <glyph glyph-name="uni259A" unicode="&#x259a;" 
d="M512 0v512h512v-512h-512zM0 512v512h512v-512h-512z" />
    <glyph glyph-name="uni259B" unicode="&#x259b;" 
d="M0 0v1024h1024v-512h-512v-512h-512z" />
    <glyph glyph-name="uni259C" unicode="&#x259c;" 
d="M512 0v512h-512v512h1024v-1024h-512z" />
    <glyph glyph-name="uni259D" unicode="&#x259d;" 
d="M512 512v512h512v-512h-512z" />
    <glyph glyph-name="uni259E" unicode="&#x259e;" 
d="M0 0v512h512v-512h-512zM512 512v512h512v-512h-512z" />
    <glyph glyph-name="uni259F" unicode="&#x259f;" 
d="M0 0v512h512v512h512v-1024h-1024z" />
    <glyph glyph-name="filledbox" unicode="&#x25a0;" 
d="M0 0v1024h1024v-1024h-1024z" />
    <glyph glyph-name="H22073" unicode="&#x25a1;" 
d="M896 128v768h-768v-768h768zM0 0v1024h1024v-1024h-1024z" />
    <glyph glyph-name="uni25A2" unicode="&#x25a2;" 
d="M128 0v128h768v-128h-768zM0 128v768h128v-768h-128zM896 128v768h128v-768h-128zM128 896v128h768v-128h-768z" />
    <glyph glyph-name="uni25A3" unicode="&#x25a3;" 
d="M256 256v512h512v-512h-512zM896 128v768h-768v-768h768zM0 0v1024h1024v-1024h-1024z" />
    <glyph glyph-name="uni25A4" unicode="&#x25a4;" 
d="M896 128v128h-768v-128h768zM896 384v256h-768v-256h768zM896 768v128h-768v-128h768zM0 0v1024h1024v-1024h-1024z" />
    <glyph glyph-name="uni25A5" unicode="&#x25a5;" 
d="M256 128v768h-128v-768h128zM640 128v768h-256v-768h256zM896 128v768h-128v-768h128zM0 0v1024h1024v-1024h-1024z" />
    <glyph glyph-name="uni25A6" unicode="&#x25a6;" 
d="M256 128v128h-128v-128h128zM640 128v128h-256v-128h256zM896 128v128h-128v-128h128zM256 384v256h-128v-256h128zM640 384v256h-256v-256h256zM896 384v256h-128v-256h128zM256 768v128h-128v-128h128zM640 768v128h-256v-128h256zM896 768v128h-128v-128h128zM0 0
v1024h1024v-1024h-1024z" />
    <glyph glyph-name="uni25A7" unicode="&#x25a7;" 
d="M512 256v128h128v-128h-128zM384 384v128h128v-128h-128zM640 384v128h128v-128h-128zM256 512v128h128v-128h-128zM512 512v128h128v-128h-128zM384 640v128h128v-128h-128zM896 128v128h-128v128h128v256h-128v128h128v128h-128v-128h-128v128h-256v-128h-128v128h-128
v-128h128v-128h-128v-256h128v-128h-128v-128h128v128h128v-128h256v128h128v-128h128zM0 0v1024h1024v-1024h-1024z" />
    <glyph glyph-name="uni25A8" unicode="&#x25a8;" 
d="M384 256v128h128v-128h-128zM256 384v128h128v-128h-128zM512 384v128h128v-128h-128zM384 512v128h128v-128h-128zM640 512v128h128v-128h-128zM512 640v128h128v-128h-128zM896 128v128h-128v128h128v256h-128v128h128v128h-128v-128h-128v128h-256v-128h-128v128h-128
v-128h128v-128h-128v-256h128v-128h-128v-128h128v128h128v-128h256v128h128v-128h128zM0 0v1024h1024v-1024h-1024z" />
    <glyph glyph-name="uni25A9" unicode="&#x25a9;" 
d="M384 256v256h128v-256h-128zM640 384v128h128v-128h-128zM256 512v128h128v-128h-128zM512 512v256h128v-256h-128zM896 128v128h-128v128h128v256h-128v128h128v128h-128v-128h-128v128h-256v-128h-128v128h-128v-128h128v-128h-128v-256h128v-128h-128v-128h128v128
h128v-128h256v128h128v-128h128zM0 0v1024h1024v-1024h-1024z" />
    <glyph glyph-name="H18543" unicode="&#x25aa;" 
d="M256 256v512h512v-512h-512z" />
    <glyph glyph-name="H18551" unicode="&#x25ab;" 
d="M640 384v256h-256v-256h256zM256 256v512h512v-512h-512z" />
    <glyph glyph-name="uni25C6" unicode="&#x25c6;" 
d="M384 0v128h-128v128h-128v128h-128v256h128v128h128v128h128v128h256v-128h128v-128h128v-128h128v-256h-128v-128h-128v-128h-128v-128h-256z" />
    <glyph glyph-name="uni25C7" unicode="&#x25c7;" 
d="M384 0v128h256v-128h-256zM256 128v128h128v-128h-128zM640 128v128h128v-128h-128zM128 256v128h128v-128h-128zM768 256v128h128v-128h-128zM0 384v256h128v-256h-128zM896 384v256h128v-256h-128zM128 640v128h128v-128h-128zM768 640v128h128v-128h-128zM256 768v128
h128v-128h-128zM640 768v128h128v-128h-128zM384 896v128h256v-128h-256z" />
    <glyph glyph-name="uni25C8" unicode="&#x25c8;" 
d="M384 0v128h256v-128h-256zM256 128v128h128v-128h-128zM640 128v128h128v-128h-128zM128 256v128h128v-128h-128zM768 256v128h128v-128h-128zM0 384v256h128v-256h-128zM896 384v256h128v-256h-128zM128 640v128h128v-128h-128zM384 256v128h-128v256h128v128h256v-128
h128v-256h-128v-128h-256zM768 640v128h128v-128h-128zM256 768v128h128v-128h-128zM640 768v128h128v-128h-128zM384 896v128h256v-128h-256z" />
    <glyph glyph-name="circle" unicode="&#x25cb;" 
d="M256 0v128h512v-128h-512zM128 128v128h128v-128h-128zM768 128v128h128v-128h-128zM0 256v512h128v-512h-128zM896 256v512h128v-512h-128zM128 768v128h128v-128h-128zM768 768v128h128v-128h-128zM256 896v128h512v-128h-512z" />
    <glyph glyph-name="H18533" unicode="&#x25cf;" 
d="M256 0v128h-128v128h-128v512h128v128h128v128h512v-128h128v-128h128v-512h-128v-128h-128v-128h-512z" />
    <glyph glyph-name="uni25E2" unicode="&#x25e2;" 
d="M512 0v128h128v128h128v128h128v128h128v-512h-512z" />
    <glyph glyph-name="uni25E3" unicode="&#x25e3;" 
d="M0 0v512h128v-128h128v-128h128v-128h128v-128h-512z" />
    <glyph glyph-name="uni25E4" unicode="&#x25e4;" 
d="M0 512v512h512v-128h-128v-128h-128v-128h-128v-128h-128z" />
    <glyph glyph-name="uni25E5" unicode="&#x25e5;" 
d="M896 512v128h-128v128h-128v128h-128v128h512v-512h-128z" />
    <glyph glyph-name="uni25EF" unicode="&#x25ef;" 
d="M256 0v128h512v-128h-512zM128 128v128h128v-128h-128zM768 128v128h128v-128h-128zM0 256v512h128v-512h-128zM896 256v512h128v-512h-128zM128 768v128h128v-128h-128zM768 768v128h128v-128h-128zM256 896v128h512v-128h-512z" />
    <glyph glyph-name="uni2625" unicode="&#x2625;" 
d="M512 512v256h-256v-256h256zM256 0v256h-256v128h128v128h-128v256h128v128h512v-128h128v-256h-128v-128h128v-128h-256v-256h-256z" />
    <glyph glyph-name="female" unicode="&#x2640;" 
d="M512 512v256h-256v-256h256zM256 0v128h-256v128h256v128h-128v128h-128v256h128v128h512v-128h128v-256h-128v-128h-128v-128h256v-128h-256v-128h-256z" />
    <glyph glyph-name="male" unicode="&#x2642;" 
d="M384 128v256h-128v-256h128zM128 0v128h-128v256h128v128h256v128h128v128h-128v128h512v-512h-128v128h-128v-384h-128v-128h-384z" />
    <glyph glyph-name="uni2B05" unicode="&#x2b05;" 
d="M384 0v128h-128v128h-128v128h-128v128h128v128h128v128h128v128h128v-256h512v-384h-512v-256h-128z" />
    <glyph glyph-name="uni2B06" unicode="&#x2b06;" 
d="M256 -128v512h-256v128h128v128h128v128h128v128h128v-128h128v-128h128v-128h128v-128h-256v-512h-384z" />
    <glyph glyph-name="uni2B07" unicode="&#x2b07;" 
d="M384 -128v128h-128v128h-128v128h-128v128h256v512h384v-512h256v-128h-128v-128h-128v-128h-128v-128h-128z" />
    <glyph glyph-name="uni2B08" unicode="&#x2b08;" 
d="M256 0v128h-128v128h-128v128h128v128h128v128h128v128h-128v128h640v-640h-128v128h-128v-128h-128v-128h-128v-128h-128z" />
    <glyph glyph-name="uni2B09" unicode="&#x2b09;" 
d="M512 0v128h-128v128h-128v128h-128v-128h-128v640h640v-128h-128v-128h128v-128h128v-128h128v-128h-128v-128h-128v-128h-128z" />
    <glyph glyph-name="uni2B0A" unicode="&#x2b0a;" 
d="M256 0v128h128v128h-128v128h-128v128h-128v128h128v128h128v128h128v-128h128v-128h128v-128h128v128h128v-640h-640z" />
    <glyph glyph-name="uni2B0B" unicode="&#x2b0b;" 
d="M0 0v640h128v-128h128v128h128v128h128v128h128v-128h128v-128h128v-128h-128v-128h-128v-128h-128v-128h128v-128h-640z" />
    <glyph glyph-name="uni2B12" unicode="&#x2b12;" 
d="M896 128v384h-768v-384h768zM0 0v1024h1024v-1024h-1024z" />
    <glyph glyph-name="uni2B13" unicode="&#x2b13;" 
d="M896 512v384h-768v-384h768zM0 0v1024h1024v-1024h-1024z" />
    <glyph glyph-name="uni2B14" unicode="&#x2b14;" 
d="M768 128v128h-128v128h-128v128h-128v128h-128v128h-128v-640h640zM0 0v1024h1024v-1024h-1024z" />
    <glyph glyph-name="uni2B15" unicode="&#x2b15;" 
d="M896 256v640h-640v-128h128v-128h128v-128h128v-128h128v-128h128zM0 0v1024h1024v-1024h-1024z" />
    <glyph glyph-name="uni2B1A" unicode="&#x2b1a;" 
d="M384 0v128h256v-128h-256zM0 0v256h128v-128h128v-128h-256zM768 0v128h128v128h128v-256h-256zM0 384v256h128v-256h-128zM896 384v256h128v-256h-128zM0 768v256h256v-128h-128v-128h-128zM384 896v128h256v-128h-256zM896 768v128h-128v128h256v-256h-128z" />
    <glyph glyph-name="NULL" 
 />
    <glyph glyph-name="nonmarkingreturn" horiz-adv-x="384" 
 />
  </font>
</defs>
</svg>
