<?xml version="1.0" standalone="no"?>
<!DOCTYPE svg PUBLIC "-//W3C//DTD SVG 1.1//EN" "http://www.w3.org/Graphics/SVG/1.1/DTD/svg11.dtd" >
<svg xmlns="http://www.w3.org/2000/svg" xmlns:xlink="http://www.w3.org/1999/xlink" version="1.1">
<metadata></metadata>
<defs>
<font id="armedregular" horiz-adv-x="1064" >
<font-face units-per-em="2048" ascent="1638" descent="-410" />
<missing-glyph horiz-adv-x="409" />
<glyph horiz-adv-x="0" />
<glyph horiz-adv-x="0" />
<glyph unicode="&#xd;" horiz-adv-x="1024" />
<glyph unicode=" "  horiz-adv-x="409" />
<glyph unicode="&#x09;" horiz-adv-x="409" />
<glyph unicode="&#xa0;" horiz-adv-x="409" />
<glyph unicode="!" horiz-adv-x="522" d="M57 137q0 20 2 37q16 55 50 86q33 33 84 57q12 6 22 15q10 6 27 8q66 0 141 -43q78 -43 74 -117q-4 -12 -11 -24q-8 -12 -14 -25q-14 -37 -31 -78q-16 -41 -55 -59q-55 -18 -106 12q-51 31 -93 62q-23 10 -45 12q-23 0 -36 22q-8 16 -9 35zM92 1430q10 72 74 73 q63 2 121 -4q27 2 55 2q29 -2 43 -28q6 -18 2 -37q-4 -18 -2 -37q6 -72 10 -146q-4 68 -4 56q2 -14 4 -56q6 -59 11 -118q4 -59 6 -119q2 -100 2 -203q0 -100 8 -201q10 -70 6 -147q-6 -80 -88 -103q-41 -8 -111 -4q-72 4 -96 41q-8 18 -2 35q8 16 14 33q6 23 5 47 q-2 23 -5 45q-6 82 -10 166q-4 82 -2 164q2 78 8 155q6 78 -2 156q-2 31 -6 64q-2 33 2 63q2 12 6 29q6 14 4 26q-6 14 -24 25q-18 12 -29 23z" />
<glyph unicode="&#x22;" horiz-adv-x="878" d="M143 1346q14 51 56 84q39 31 92 10q23 -12 37 -29q14 -18 32 -31q16 -8 15 -4q0 6 16 -10q12 -14 12 -35q2 -18 5 -37q10 -39 18 -77q10 -41 4 -82q-6 -43 -24 -88q-18 -47 -52 -76q-27 -23 -59 -15q-33 8 -39 45q-2 20 10 35q10 16 21 31q14 25 26 80q10 55 2 80 q-4 6 -10 6q6 -2 4 0h-4q-23 -4 -43 -14t-45 -7q-43 10 -57 54q-16 41 -17 80zM471 1368q29 61 90 59q63 -4 109 -45q39 -41 51 -96q10 -57 8 -110q0 -35 -4 -74t-23 -70q-16 -23 -45 -24q-29 0 -47 24q-18 37 -2 82q16 43 2 80q-10 14 -28 20q-20 6 -35 15q-72 51 -76 139 q18 -74 12 -61q-8 12 -12 61z" />
<glyph unicode="#" horiz-adv-x="1583" d="M12 313q2 10 11 29q6 16 8 27q-2 16 -11 30q-8 12 3 37q6 14 16 15q8 2 16 8q4 6 4 14q2 8 4 14q12 31 21 64q6 31 18 61q10 35 21 76q10 43 49 55q57 10 64 -26q6 -35 20 -53q27 -14 63 -15q37 -2 66 -4q12 -2 37 -10t35 0q8 14 14 59t8 66q2 8 2 22q2 14 -6 21 q-14 6 -37 0q-23 -8 -37 -12q-31 -6 -67 -13q-37 -4 -68 2q-16 6 -24 23q-8 16 -23 20q-35 6 -57 17q-23 10 -19 55q4 29 13 57q10 27 20 56q8 25 12 49q4 27 17 49q12 20 31 31q18 8 43 4q23 -10 24 -33q2 -23 21 -33q23 -6 69 -2q47 2 72 6q10 0 24 2q12 2 21 9 q18 25 31 81q12 55 18 89q2 10 10 28t9 27q-4 4 -21 2q-14 -4 -20 -6q-23 -4 -41 6q-20 8 -27 33q-8 72 74 84q84 14 135 14q18 2 41 6q23 6 43 2q29 -10 29 -39t-7 -51v-29q2 -12 0 -26q-4 -35 -12 -70t-12 -70q-4 -14 -12 -45t2 -39q14 -4 32 -2q18 4 35 5h55q39 -2 52 4 q8 10 8 30q-2 20 0 35q4 33 8 68q4 33 2 67q-2 16 -6 33q-2 16 -2 33q2 14 14 31q10 16 27 20q29 6 61 6q33 -2 62 -2q23 0 45 2q20 2 43 2q43 2 86 -12q45 -14 24 -72q-10 -16 -26 -20q-18 -4 -29 -17q-8 -16 -10 -61q-2 -47 -4 -70q-2 -14 -8 -47q-6 -35 -5 -45 q8 -6 27 -4q16 0 25 2h129q-59 0 -49 0h49q10 -2 24 -2t23 8q14 29 6 66t12 61q23 23 51 19q29 -2 43 -33q12 -31 9 -62q-2 -31 -9 -61l-8 -90q-2 -45 -14 -90q-4 -20 -14 -45q-12 -25 -29 -39q-29 -14 -45 6q-18 20 -39 31q-10 4 -25 4h-26q-33 -4 -66 -10q-33 -4 -65 -5 q-14 0 -33 3q-18 2 -29 -7q-12 -14 -20 -45t-13 -51q-4 -8 -10 -29q-6 -18 -4 -28q6 -8 45 -6t53 4q61 0 121 6q-57 -4 -45 -4t45 4q16 0 33 -4q18 -4 33 -2q18 4 28 16q12 12 33 12q23 -4 37 -20q14 -18 14 -39q-2 -18 -12 -33q-8 -14 -16 -30q-51 -102 -105 -207 q49 98 39 78q-10 -18 -39 -78q-8 -18 -24 -31q-16 -14 -37 -16q-29 2 -35 22q-4 18 -20 33q-10 6 -25 4h-27q-31 0 -69 2q-41 4 -70 -10q-20 -14 -27 -51q-4 -35 -8 -60q-4 -27 -12 -55q-8 -27 -6 -55q4 -18 16 -33q10 -14 6 -35q-16 -45 -65 -45q-51 2 -88 8q-18 2 -41 2 t-41 6q-53 27 -29 62q23 35 39 61q6 23 8 47q4 25 6 47q4 20 9 50q2 29 -23 32q-20 2 -72 2q-53 0 -67 -8q-23 -23 -31 -57q-6 -35 -10 -66q-2 -16 -6 -30q4 14 2 12q0 -4 -2 -12l-11 -11q-4 -4 -2 -8q4 -4 17 -4h16q35 -10 43 -41q8 -33 -16 -59q-18 -16 -45 -17h-49 q-49 0 -97 -2q-49 -2 -98 2q-18 2 -43 6q-27 2 -41 21q-25 39 -6 55q18 14 35 39q12 27 20 53q10 27 21 52q8 14 22 36q16 23 4 35q-10 4 -26 4q-14 -2 -25 -2q-49 6 -82 6q-31 0 -80 -6q-10 0 -24 2t-23 -8q-12 -27 -16 -53q-4 -27 -39 -39q-27 -4 -47 12q-18 18 -25 43z M686 653q18 -25 49 -24q29 0 58 2q18 -2 45 -6q25 -4 43 2q16 12 20 63q6 49 8 72q2 8 6 22q6 14 5 21q-4 10 -21 10q-18 0 -27 -2q-27 -2 -84 -6q-57 -2 -69 -23q-6 -33 -10 -67q-4 -35 -23 -64zM1204 954q12 -2 27 -4q12 -2 24 -2q6 0 15 2q10 4 6 4q-16 4 -35 2 q-20 0 -37 -2z" />
<glyph unicode="$" horiz-adv-x="1234" d="M102 1034q0 119 41 201t106.5 134t145.5 75.5t160 25.5v181h123v-187q104 -12 177 -40.5t120 -57.5q31 -18 52.5 -35.5t37.5 -32.5l-176 -176q-51 53 -111 84q-49 23 -100 35v-395q41 -12 111.5 -42t144.5 -79q199 -131 199 -309q0 -98 -32 -178t-91.5 -137.5t-143.5 -88 t-188 -32.5v-181h-123v187q-129 16 -233.5 65t-176.5 107l170 170q33 -31 71 -54.5t79 -40.5q49 -18 90 -24v395q-47 16 -121 46t-145 77q-186 125 -187 307zM354 1065q0 -55 37 -94q14 -16 31.5 -30t42.5 -26q47 -23 90 -34v364q-31 -4 -59.5 -13t-51.5 -22 q-90 -55 -90 -145zM678 203q80 8 133 47q70 51 70 135q0 51 -37 92q-29 33 -74 53q-41 23 -92 37v-364z" />
<glyph unicode="%" horiz-adv-x="2082" d="M82 1049q0 86 32.5 160.5t88 130t130.5 87t161 31.5q84 0 158.5 -31.5t130 -87t88 -130t32.5 -160.5t-32.5 -161t-88 -130.5t-130 -88t-158.5 -32.5q-86 0 -161 32.5t-130.5 88t-88 130.5t-32.5 161zM287 1049q0 -41 15 -79t44 -67q61 -61 148 -61q84 0 145 61 q59 59 59 146q0 86 -59 145q-29 29 -66.5 44t-78.5 15q-88 0 -148 -59q-29 -29 -44 -66.5t-15 -78.5zM389 -4l1049 1434h254l-1049 -1434h-254zM1180 377q0 86 32.5 160.5t88 130t130 88t160.5 32.5q84 0 159 -32.5t130 -88t88 -130t33 -160.5q0 -84 -33 -159t-88 -130 t-130 -88t-159 -33q-86 0 -160.5 33t-130 88t-88 130t-32.5 159zM1384 377q0 -41 15.5 -79t44.5 -67q59 -59 147 -59q41 0 79 15t67 44t44 67t15 79q0 88 -59 147q-29 29 -67 44.5t-79 15.5q-88 0 -147 -60q-29 -29 -44.5 -67.5t-15.5 -79.5z" />
<glyph unicode="&#x26;" horiz-adv-x="1605" d="M129 453q12 66 27 133q12 70 49 127q18 25 49 43q29 20 43 47q4 18 -12 41q-18 23 -31 35q-31 39 -47 88t-23 98q-10 80 19 162q27 82 88 135q33 27 71 41q39 14 76 31q55 25 111 41q57 16 117 2q45 -12 96 -31q53 -20 86 -53q12 -12 22 -29q8 -16 21 -29q20 -20 41 -37 q23 -18 37 -41q10 -20 16 -43q4 -23 12 -43q16 -27 37 -65q20 -41 2 -70q-16 -14 -41 -20t-45 -8q-55 -14 -108 -19q-51 -6 -109 -4h-45q-25 2 -41 21q-16 25 -6 51q10 29 39 37q12 2 27 2q14 -2 26 0q14 2 17 6q4 4 -7 16q-82 74 -204 47q-125 -25 -78 -168q18 -39 55 -59 q37 -18 70 -41q57 -47 90 -86t108 -70q10 -6 21 -18q8 -10 20 -10q12 4 21 18q10 14 14 25q16 29 35 53q18 25 43 47q23 23 47 43q25 18 53 35q12 4 35 12q23 6 31 19q6 10 0 24q-8 14 -8 27q4 33 32 39q29 6 56 -6q35 -20 39 -68q6 -45 8 -82q6 -35 12 -74t23 -69 q16 -18 28 -31q14 -10 -4 -43q-27 -37 -49 -25q-23 14 -47 7q-18 -14 -59 -68q-43 -51 -58 -74q-8 -10 -14 -22q-8 -14 -6 -29q6 -12 18 -16q12 -6 19 -19q8 -16 12 -35q4 -16 16 -30q10 -10 23 -17q12 -6 22 -14q14 -12 27 -27q10 -14 23 -28q16 -25 32 -56q18 -33 41 -49 q12 -8 25 -2q12 6 24 15q33 16 80 14q49 -2 54 -49q0 -33 -23 -47t-51 -21q-51 -18 -103 -41q-51 -23 -96 -51q-20 -16 -45 -31q-27 -16 -53 -6q-20 10 -29 33q-8 25 0 45q2 4 6 6q4 4 4 8q0 16 -28 43q-29 25 -41 39q-8 10 -17 23q-6 14 -22 12q-16 -6 -33 -29 q-16 -25 -29 -37q-37 -33 -84 -55q-45 -23 -92 -39q-80 -27 -190 -26q-111 0 -187 36q-111 61 -170 185q-59 123 -61 248zM387 440q14 -57 41 -100q29 -43 80 -76q14 -8 31 -18q16 -8 34 -10q45 2 93 36q47 37 79 68q12 8 29 22q16 14 14 31q-8 18 -45 43q-37 23 -55 37 q-51 51 -121 105q-72 53 -133 -19q-14 -23 -24 -49q10 25 8 20q-2 -6 -8 -20q-14 -33 -23 -70q8 35 8 27q-2 -6 -8 -27z" />
<glyph unicode="'" horiz-adv-x="432" d="M49 1354q68 145 193 106q125 -41 141 -190q0 -43 -6 -92t-25 -91q-8 -16 -18 -22q-8 -8 -15 -27q-12 -33 -49 -39q-35 -4 -57 23q-14 29 -4 63q10 33 16 62q2 12 2 29q0 14 -12 22q-14 8 -35 8q-20 -2 -39 2q-47 14 -67 56q-23 43 -25 90z" />
<glyph unicode="(" horiz-adv-x="804" d="M86 762q2 82 20 164q16 80 37 159q12 47 21 99q8 49 24 96q27 78 58 154q33 78 67 149q8 12 19 23q8 10 14 22q8 16 -2 25q-10 8 -20 18q-10 14 -11 33q-2 20 9 35q20 29 47 22q27 -4 49 -22q31 -20 63 -35q33 -14 66 -33q18 -12 35 -29q14 -18 30 -32q23 -16 50 -27 q27 -10 36 -37q16 -57 -18 -63q-37 -8 -66 -25q-20 -18 -36 -41q-18 -23 -35 -45q-27 -37 -56 -72q-29 -37 -49 -75q-45 -84 -65 -181q-20 -96 -27 -190q-8 -147 31 -299q39 -150 106 -283q25 -47 56 -94q31 -45 53 -94q6 -18 10 -35q4 -18 10 -37q16 -20 58 -14 q39 4 47 -51q2 -23 -12 -41q-16 -20 -31 -35l-70 -86q-33 -43 -78 -78q-23 -16 -49 -22q-27 -6 -49 14q-25 29 -12 57q14 27 6 39q-10 8 -25 12q-12 4 -24 13q-31 27 -47 65q-18 39 -35 76q-10 16 -21 31q-12 14 -22 28q-23 37 -41 82q-18 43 -31 86q-6 33 -4 64t-6 61 q-29 111 -53 224q-25 111 -27 225z" />
<glyph unicode=")" horiz-adv-x="657" d="M-2 -63q-10 55 33 63q41 8 80 -12q8 -6 22 -15q14 -8 23 4q4 8 4 19v18q14 53 33 105q-16 -49 -15 -39q4 10 15 39q20 61 43 121q23 61 38 122q16 70 25 144q8 74 14 145q2 51 -4 101q-6 49 -12 100q-12 113 -35 225q-23 113 -69 215q-39 76 -97 135q51 -59 41 -47 t-41 47q-8 10 -14 23q-6 12 -19 20q-31 16 -47 19q-16 2 -18 51q25 49 72 80q49 31 92 59q14 10 26 25q12 14 29 25q18 12 43 10q25 0 41 -17q12 -16 14 -32q0 -18 -12 -35q-8 -6 -20 -19q-12 -10 -2 -22q6 -6 16 -8q8 -2 16 -7q41 -25 68 -61q-29 33 -23 27q8 -6 23 -27 q23 -31 37 -63q14 -33 31 -66q25 -45 51 -86q29 -43 47 -88q25 -66 35 -133q10 -68 20 -135q23 -127 33 -254q10 -129 -2 -256q-8 -96 -33 -199q-25 -102 -74 -186q-8 -12 -18 -23q-8 -8 -16 -20q-25 -33 -46 -70q-20 -35 -43 -70q-10 -12 -24 -26q-16 -16 -21 -31 q-2 -16 13 -20q14 -4 26 -11q23 -16 27 -45q2 -29 -16 -51q-25 -20 -52 -12t-49 22q-53 37 -102 78q-49 39 -105 72q-29 12 -59 26q-33 14 -43 46z" />
<glyph unicode="*" horiz-adv-x="720" d="M59 1196q2 31 19 51q14 18 49 19q10 0 37 -6q29 -4 35 4q-2 2 -13 14q-10 12 -12 14q-8 10 -14 23q-6 12 -6 26q4 31 28 45q25 12 54 3q25 -12 40 -35q18 -23 35 -43q8 -10 19 -21q12 -8 26 -6q10 4 21 14q12 12 18 23q25 29 45 57q18 31 35 66q12 27 35 41q20 16 51 4 q45 -25 29 -76q-16 -49 -41 -84q-10 -12 -25 -26q-14 -14 -22 -29q0 -4 4 -6l-2 2q0 -2 2 -2q41 -4 94 2q51 4 57 -56q-4 -53 -63 -61t-105 -4q-8 0 -26 2q-20 4 -27 -4q-2 -8 10 -27q10 -16 15 -22q20 -31 45 -72t10 -78q-12 -16 -29 -22q14 8 13 6q-4 -2 -13 -6 q-43 -14 -65 14q-25 31 -37 66l-12 24t-19 21q-12 -2 -24 -25t-17 -33q-16 -35 -43 -73q-25 -39 -67 -37q-70 18 -43 80q29 61 57 98q6 8 23 31q14 23 12 28q-4 -2 -33 -8t-39 -6q-43 0 -78 24q-35 23 -43 66z" />
<glyph unicode="+" horiz-adv-x="1185" d="M102 702v246h367v367h246v-367h368v-246h-368v-368h-246v368h-367z" />
<glyph unicode="," horiz-adv-x="530" d="M104 66q6 47 7 112q0 63 22 105q16 18 39 18q25 0 47 2q29 8 62 16t63 5q53 -14 68 -66q14 -53 12 -100q2 -86 -16 -174t-66 -160q-37 -55 -74 -68q-37 -14 -88 27q-6 4 -14 10q-10 6 -14 12q-20 33 2 68q25 35 43 61q4 10 10 27q6 16 -2 27q-8 8 -27 6q-16 -2 -26 0 q-25 6 -35 26t-13 46z" />
<glyph unicode="-" d="M72 770q10 33 28 43q20 10 52 16q12 6 24 11q12 6 27 6q20 -4 37 -4q16 -2 36 2q180 27 363 26q-170 -6 -137 -2q35 2 137 2q53 0 111 -6q57 -4 108 8q23 8 33 29q8 23 31 31q31 6 51 -17q18 -20 18 -49q2 -45 -6 -90t-14 -90q-2 -23 -4 -47q0 -23 -17 -41 q-16 -16 -41 -16q-25 -2 -41 14q-6 8 -10 16t-12 15q-12 4 -27 0q-16 -2 -26 -4q-47 -6 -93 -5q-45 4 -92 3q-53 -2 -108 -5q-53 -4 -109 -2q-37 4 -74 9q-37 6 -71 4q-29 -6 -47 -27q-16 -20 -49 -14q-45 20 -35 57q10 39 0 72q-12 16 -23 20q-10 4 -20 35zM838 754l20 -4z " />
<glyph unicode="." horiz-adv-x="522" d="M104 266q10 37 23 39q12 2 37 19q12 10 18 20q8 12 23 14q23 4 45 -6q23 -10 43 -16q23 -6 47 -10q23 -4 41 -17q31 -29 33 -84q4 -53 0 -92q-6 -82 -56 -108q-49 -29 -122 -25q-23 -2 -48 2q-23 2 -41 16q-25 18 -28 45q-2 27 -2 56q-2 37 -6 74t-7 73z" />
<glyph unicode="/" horiz-adv-x="1386" d="M12 -182q2 23 17 41q12 16 37 22q4 0 20 2h16q6 6 0 17q-6 8 -8 16q-4 27 10 51q-10 -23 -8 -18q2 6 8 18q10 16 23 31q12 14 23 29q37 61 71 127q33 66 62 133q25 61 49 127q25 63 59 123q25 49 53 96q-25 -45 -20 -37q4 10 20 37q18 25 37 51q20 27 33 55q8 29 -6 47 q-12 20 2 56q23 41 53 76q29 33 55 69q29 47 52 98t47 99q6 12 14 22q10 10 17 23q47 98 96 196q49 100 90 201q10 29 8 64q-4 33 12 59q18 20 41 20t45 3q18 4 29 18q10 12 31 16q37 2 71 -4q37 -8 74 -8q23 2 45 8q23 4 45 -2q16 -8 27 -24q8 -16 8 -35q-6 -37 -29 -41 q-23 -6 -30 -21q-4 -12 0 -24q6 -12 -2 -27q-12 -20 -29 -35q-18 -14 -31 -32q-25 -39 -43 -82q-18 -41 -41 -82q-25 -39 -53 -74q-27 -37 -49 -76q-68 -121 -125 -243q-57 -125 -121 -246q-25 -39 -53 -74q-31 -35 -53 -74q-16 -29 -33 -57q-16 -27 -27 -55q-8 -23 -14 -45 q-6 -23 -16 -41q-61 -102 -113 -209q51 98 39 80q-10 -20 -39 -80q-31 -61 -66 -121q-35 -57 -65 -119q-4 -12 -12 -26q-6 -14 -15 -23q-8 -4 -18 -8q-10 -2 -8 -8q6 -4 26 0q18 2 29 2q27 -6 43 -31q14 -25 4 -53q-12 -20 -35 -27q-23 -6 -45 -6q-49 -4 -100 -4 q-49 0 -101 -4q-20 -2 -45 -8q-23 -4 -45 -3q-20 4 -28 19q-10 16 -15 35z" />
<glyph unicode="0" horiz-adv-x="1189" d="M96 686q0 41 6 82t9 82q2 45 2 90q-2 47 8 92q12 43 31 86q18 41 36 84q18 45 43 92q23 45 62 78q35 29 82 39q45 10 88 21l82 20q39 10 82 4q27 -4 49 -18q25 -16 47 -29q35 -14 70 -27q33 -14 61 -39q35 -31 59 -69q23 -39 45 -78q18 -33 39 -63q20 -31 37 -64 q25 -57 39 -149q14 -90 17 -156q0 -96 -15 -193q-12 -94 -35 -188q-10 -49 -26 -98q-14 -47 -41 -90q-78 -115 -203 -166t-260 -47q-63 0 -125 18q-61 18 -111 66q-104 113 -141 290q-35 178 -37 330zM373 784q-4 -129 14 -268q16 -139 98 -242q12 -14 27 -26q14 -14 31 -21 q23 -6 43 2q23 8 43 19q45 16 94 39q47 23 78 63q20 33 28 78q8 43 15 82q10 90 8 182q0 90 -8 182q-4 53 -13 101q-8 47 -40 90q-57 72 -156 115q-98 43 -180 -23q-14 -16 -23 -41q-6 -23 -14 -43q-23 -70 -27 -143q-4 -74 -18 -146z" />
<glyph unicode="1" horiz-adv-x="804" d="M-23 1094q14 41 35 41q20 -2 49 14q18 14 35 31q16 14 35 28q37 29 74 56t69 57q8 6 27 25q18 18 12 28q-8 4 -18 4t-19 4q-18 12 -24 37q-4 25 8 43q16 23 45 29t55 4q74 0 146 4q74 2 147 6q29 4 64 2q37 -2 53 -30q12 -31 -4 -54q-14 -23 -43 -30q-10 -2 -27 -2 q-18 0 -22 -11q-2 -10 2 -26t6 -29q4 -45 4 -90t4 -92q4 -49 10 -101q6 -49 9 -100q2 -63 -2 -127q-2 -66 -5 -129q-2 -109 5 -219q-4 102 -5 82q0 -20 5 -82q2 -37 6 -74q4 -35 2 -71q-2 -74 -15 -146q10 68 9 53q-2 -14 -9 -53q-4 -14 -10 -26q-4 -12 -8 -27 q-2 -16 12 -19q14 0 25 -4q20 -12 26 -37q8 -25 -4 -45q-10 -16 -28 -20q-18 -6 -35 -6q-47 -2 -92 -6t-92 -4q-16 -2 -35 0q-20 0 -35 8q-51 39 -25 63q29 25 45 53q8 23 7 48q-2 25 -2 45q-4 88 2 174q4 86 6 174q-2 78 -8 153q-6 78 -7 156v92q-2 45 -8 90q-2 10 -4 29 q-2 20 -8 27q-12 4 -29 -17q-16 -20 -22 -28q-16 -23 -37 -41q18 18 14 14q-2 -4 -14 -14q-10 -8 -25 -15q-12 -6 -20 -16q-14 -23 -13 -49q0 -27 -40 -37q-33 -4 -58 20q-25 27 -43 50q-43 35 -94 53q-53 18 -64 80z" />
<glyph unicode="2" horiz-adv-x="1056" d="M0 1010q18 33 51 45q35 14 58 45q41 78 75 166q35 88 115 139q150 82 356 74q205 -8 316 -154q41 -72 49 -164q8 -94 6 -176q-2 -72 -18 -143q-16 -72 -58 -133q-47 -68 -108 -123t-113 -121q-25 -33 -53 -62q-27 -31 -55 -59l-27 -27q-16 -16 -19 -30q4 -23 35 -23t47 2 q41 -2 82 -6t80 -10q23 -2 47 -6q25 -2 43 10q33 27 27 74q-8 45 33 67q29 10 51 -6q23 -16 29 -45q8 -45 -5 -90q-12 -45 -16 -90q0 -31 4 -64q6 -33 -2 -63q-6 -31 -37 -35q23 10 21 6q-4 -2 -21 -6q-23 -2 -45 6q-23 6 -43 10q-25 2 -47 -2q-23 -2 -45 -2q-123 -4 -246 0 t-245 -4q-55 -8 -121 -14t-115 22q-25 16 -27 43q-4 29 -6 56q-4 45 -12 90t-14 90q-4 23 -2 45q2 25 18 41q61 41 78 -10q16 -53 33 -86q18 -20 49 -23q31 0 51 17q27 31 41 75q14 47 45 82q51 53 98 111q45 55 92 110q23 25 48 46q25 20 47 40q16 18 24 39q10 20 23 39 q20 27 43 49q20 23 39 50q37 57 34 120q-2 63 -55 111q-80 59 -182 29q-102 -31 -154 -111q-14 -29 -18 -61q-4 -33 -31 -54q-27 -16 -61 -14q-35 2 -64 2q-70 -6 -129 -6q-59 2 -94 72z" />
<glyph unicode="3" horiz-adv-x="1062" d="M2 430q12 31 35 39q20 10 51 10q55 6 111 8q55 2 108 9q27 6 55 8q29 4 52 -15q18 -14 18 -38q2 -25 -12 -43q-8 -6 -25 -13q-14 -6 -14 -16q4 -14 20 -31q18 -16 29 -26q68 -66 166 -56q96 10 160 78q25 31 24 57q0 29 -10 64q-20 74 -61 119q-41 47 -117 63 q-12 4 -27 10q-14 4 -26 7q-8 -2 -13 -11q-4 -8 -6 -14q-10 -14 -26 -23q-18 -8 -37 -4q-29 10 -39 37q-8 27 -10 53q-2 59 6 119q8 57 16 117q0 25 8 45q6 20 29 33q45 18 59 -8q12 -25 21 -37q2 -2 6 0t6 4q33 39 62 80t59 80q6 8 18 22q10 14 7 25q-4 2 -19 4h-18 q-31 -2 -64 -8q-31 -4 -63 -7q-63 -2 -127 0q-63 4 -129 3h-45q-35 0 -41 -3q-10 -20 -6 -43q2 -23 -23 -38q-27 -12 -53 -3q-27 12 -37 41q-4 27 2 56q8 27 6 53q-2 16 -10 23q-6 4 -10 20q-8 37 -11 92q-2 55 29 80q37 23 53 6q14 -16 35 -37q10 -10 25 -10h28 q127 6 254 16q127 12 256 13q72 0 146 -2q-68 2 -56 2q14 -2 56 -2q12 0 28 2q16 0 25 10q10 20 6 47t29 51q23 10 43 4q23 -8 33 -30q14 -33 12 -72t-4 -74q-2 -49 0 -100t0 -100q0 -25 -4 -56q-2 -31 -21 -49q-16 -10 -35 -8q-18 4 -37 -4q-23 -16 -40 -47 q-18 -31 -35 -56q-20 -20 -49 -43q-27 -23 -41 -49q-4 -18 10 -30q16 -14 28 -25q37 -33 72 -68q35 -37 58 -82q57 -133 40 -288q-16 -156 -106 -269q-35 -39 -82 -57q-45 -18 -94 -31q-133 -41 -270 -24q-137 18 -244 114q-43 45 -68 107q-25 61 -47 119q-25 39 -51 39 q-29 2 -37 61z" />
<glyph unicode="4" horiz-adv-x="1251" d="M0 338q16 59 23 117q8 55 12 118q0 27 -4 56q-4 31 10 53q37 43 68 18q29 -25 55 -8q51 57 88 127t78 135q33 49 73 93q41 43 74 92q29 47 53 96q27 51 60 94q8 8 24 27q16 18 11 33q-12 8 -33 18q-20 8 -17 47q8 33 41 47q31 12 64 10q18 -2 33 -12q14 -10 30 -16 q45 -6 103 2q59 10 88 -33q12 -29 4 -43q-10 -16 -29 -35q-6 -10 -6 -24t-6 -27q-18 -31 -49 -53q-29 -25 -55 -47q-35 -33 -50 -76q-14 -43 -34 -84q-39 -61 -86 -117q-49 -57 -93 -115q-45 -70 -90 -137q41 63 35 51q-8 -12 -35 -51q-4 -8 -18 -22q-12 -16 -14 -23 q4 -12 30 -10q29 2 37 2q100 -4 201 -6q-94 2 -74 2q18 -2 74 -2q14 -2 39 -4q23 -2 33 10q8 16 2 61q-6 43 -11 66q2 16 6 47q6 31 5 37q-18 8 -41 2t-45 14q-25 29 -17 60q10 31 45 39q27 6 56 4q29 -4 55 -4q41 0 82 2t82 -2q23 -2 43 -15q20 -10 26 -34q0 -27 -20 -39 q-20 -14 -35 -31q-12 -33 -4 -96q8 -66 12 -103q0 -10 2 -28q0 -18 6 -27q4 -2 19 0q12 2 14 2q20 0 57 2q35 4 46 20q6 25 2 46q-4 23 16 43q43 31 70 -11q27 -39 28 -78q2 -57 0 -118q-2 -59 -6 -119q-2 -25 -12 -43t-37 -27q-31 -4 -39 15q-10 18 -31 30q-16 2 -63 2 t-66 -4q-12 -2 -16 -8q-4 -4 -6 -16q-12 -39 -8 -80q4 -43 4 -82q0 -12 -2 -29q-2 -16 8 -24q6 -4 18 0q12 2 19 2q35 -2 55 -29t2 -59q-12 -20 -37 -25q-23 -6 -45 -6q-53 -6 -108 -10t-109 -13q-27 -4 -55 -10q-29 -4 -51 15q-18 18 -19 49q0 31 25 45q12 6 26 6t23 10 q16 31 14 88t-4 94v27q-2 16 -8 27q-8 10 -25 10h-26q-55 -2 -111 2q51 -2 43 -2q-10 0 -43 2q-145 12 -291 12q137 -2 109 -2q-27 0 -109 2q-31 0 -65 2q-33 0 -64 -6q-27 -12 -33 -39q-8 -27 -36 -35q-33 -4 -50 17q-18 23 -20 49z" />
<glyph unicode="5" horiz-adv-x="1071" d="M0 905q6 16 18 31q10 12 31 16q16 -2 27 -6q10 -6 20 8q12 18 19 43q8 23 14 43q25 63 45 129q18 66 43 131q10 33 25 70q14 37 45 53q33 10 71 4q39 -6 74 -10q156 -10 309 -4q-145 -2 -114 -2q29 0 114 2q55 4 111 0q-51 2 -41 2t41 -2q18 -2 37 -6q18 -6 35 -6 q20 2 18 12q-2 12 6 27q14 18 39 22q25 6 45 -8q18 -14 23 -37q4 -25 6 -47q10 -109 0 -217q6 102 6 82t-6 -82q0 -18 2 -37q0 -18 -4 -37q-12 -33 -45 -39q-35 -8 -60 17q-14 27 -8 67q8 39 -8 52q-20 6 -45 4q-27 -4 -47 -4q-145 14 -291 14q137 -4 109 -2q-27 0 -109 2 h-57t-54 -6q-6 -8 -6 -27q-2 -18 -2 -27q-2 -29 -4 -55q-4 -27 -12 -53q-6 -18 -23 -61q-14 -43 0 -52q20 -2 60 6q39 6 67 7q88 -4 181 -29q92 -25 172 -64q37 -20 59 -53q25 -35 43 -71q45 -88 63 -189q18 -100 -4 -201q-8 -37 -28 -75q-20 -37 -39 -72q-35 -59 -90 -90 q-53 -31 -117 -47q-53 -16 -105 -33q-51 -16 -108 -14q-45 4 -86 26q-41 23 -82 43q-16 6 -35 8q-18 2 -35 9q-12 6 -22 14q-10 10 -23 16q-12 4 -26 6q-14 4 -27 11q-31 23 -47 65q-16 41 -37 74q-12 14 -25 27q-12 14 -24 26q-4 8 -8 19q-2 8 -6 16q-18 16 -39 21 q-23 4 -27 34q-2 39 27 54q29 14 61 16q59 4 119 6q59 2 119 8q39 4 82 9q41 4 82 -7q39 -16 38 -55q0 -37 -38 -55q-16 -4 -37 0q-20 4 -35 -2q-12 -8 -4 -15q6 -8 12 -10q51 -37 145 -59q92 -25 150 6q14 12 16 29q2 18 9 34q16 29 20 52q6 23 -2 53q-12 45 -39 94 q-27 47 -70 72q-59 27 -125 20q-63 -6 -124 -20q-23 -2 -48 0t-45 -4q-16 -8 -28 -21q-10 -12 -33 -14q-31 4 -53 31q-23 27 -41 49q-53 51 -105 104q-49 53 -55 131z" />
<glyph unicode="6" horiz-adv-x="1044" d="M39 422q6 33 10 63q4 33 14 62q39 102 101 196q59 92 117 185q39 68 75 137q35 70 72 137q25 43 53 86q27 41 54 84q6 6 8 14q4 8 -2 17q-18 16 -54 39q-35 25 0 71q25 25 50 17q25 -10 51 -17q29 -2 55 3q29 4 55 6q27 2 56 0h53h55q29 -2 45 -27q16 -31 -2 -70 q-16 -37 -37 -63q-23 -33 -53 -62q-31 -29 -55 -61q-33 -45 -55 -94l-50 -98q-12 -20 -39 -66q-29 -43 -22 -61q8 -10 24 -15q16 -6 27 -10q35 -12 66 -31q33 -18 63 -37q115 -74 174 -182q57 -109 43 -248q-6 -63 -28 -135q-25 -72 -64 -121q-86 -92 -246 -137 q-158 -47 -278 -8q-109 43 -193 135q-84 94 -125 203q-8 20 -12 43q-2 23 -6 45zM362 399q2 -39 25 -67q41 -43 115 -60q74 -14 129 7q25 12 43 34q16 25 31 47q10 14 20 29q10 16 12 35q2 70 -39 133q-43 61 -108 82q-43 10 -101 -10q-55 -23 -88 -54q-18 -20 -24 -47 q-8 -29 -12 -55q-2 -35 -3 -74z" />
<glyph unicode="7" horiz-adv-x="1107" d="M-16 1233v182q0 -86 0 -67v67q2 45 8 103q8 57 63 63q43 -2 51 -41t0 -74q-4 -14 -4 -26q-2 -12 17 -17q29 -6 63 0q33 4 64 7q92 2 182 4l184 4q37 -2 95 -11q55 -6 88 3q14 8 6 20q-8 14 -13 25q-4 23 9 43q12 20 34 26q18 4 37 -2q18 -4 29 -20q4 -8 6 -19l4 -16 q8 -23 23 -41q14 -16 31 -33q27 -25 69 -61q45 -37 55 -70q4 -23 -10 -43q-12 -20 -37 -25q-8 0 -18 3q-8 4 -19 2q-10 -2 -14 -9l-8 -16q-18 -43 -33 -84q-16 -43 -39 -84q-47 -84 -98 -164q-53 -80 -96 -166q-35 -74 -66 -151q-33 -76 -74 -146q-23 -35 -51 -65 q-29 -29 -51 -64q-20 -31 -33 -65q-14 -35 -28 -68l-4 -8t0 -8q6 -8 24 -6q18 4 27 4q35 -10 49 -41q12 -29 -12 -58q-25 -20 -60 -22q-35 0 -63 2q-63 -2 -129 -6q-63 -4 -127 -10q-27 -2 -56 -2t-49 20q-12 14 -12 33q2 -16 2 -15q-2 4 -2 15q0 57 47 55q47 -4 76 21 q10 16 24 61q14 47 27 74q27 49 57 94q29 45 60 92q23 39 43 80t43 80q20 31 43 61q23 29 41 60q31 57 55 114q25 59 51 117q27 51 49 98q25 49 43 101q4 6 15 26q10 18 12 23q-4 4 -33 2t-39 -2l-200 -4q94 2 75 2q-18 0 -75 -2q-90 -4 -183 -6q86 2 70 2q-18 -2 -70 -2 q-27 0 -55 2q-27 2 -53 0q-31 -8 -47 -39q-16 -29 -56 -10q-25 16 -30 43q-6 27 -4 55z" />
<glyph unicode="8" horiz-adv-x="1114" d="M86 492q29 117 92 219q-51 -100 -43 -80t43 80q16 23 41 49q27 25 31 55q0 25 -27 62t-39 65q-31 90 -24 191q8 98 69 176q20 23 47 41l54 36q109 74 217 91q109 14 221 -70q29 -23 45 -55q16 -33 39 -62q27 -31 55 -63q27 -31 41 -70q16 -66 4 -137q-14 -70 -32 -133 q-8 -23 -21 -51q-14 -29 -12 -54q6 -27 37 -49q29 -23 45 -45q35 -57 47 -129q12 -70 0 -137q-6 -31 -21 -60q-14 -29 -28 -57q-25 -57 -54 -117q-29 -61 -77 -102q-20 -14 -48 -25q-27 -8 -51 -20q-27 -16 -53 -35q-27 -18 -57 -26q-33 -4 -66 0q-31 4 -63 6 q-78 -2 -144 12q-66 16 -127 70q-76 78 -108 196q-31 121 -33 228zM375 467q0 -49 18 -90q18 -43 66 -64q72 -20 164 23q90 45 102 121q4 63 -37 123q-39 59 -104 69q-18 0 -35 -8q-18 -8 -37 -10q-23 -2 -45 -6q-23 -4 -41 -21q-27 -27 -35 -65q-10 -37 -16 -72zM424 1083 q0 -20 6 -36q23 -35 82 -54q61 -16 94 13q35 47 29 116q-6 68 -72 78q-47 2 -76 -24q-31 -27 -61 -56q-2 -18 -2 -37z" />
<glyph unicode="9" horiz-adv-x="1069" d="M68 1004q29 121 86 231q59 111 174 168q233 96 452 -19q217 -115 221 -378q-4 -82 -24 -164q-18 -84 -51 -158q-12 -25 -31 -45q-16 -23 -31 -45q-45 -78 -96 -156q-49 -78 -86 -162q-12 -25 -20 -51q-10 -25 -21 -51q-6 -8 -10 -14q-6 -8 -8 -17q-4 -16 10 -20t24 -10 q18 -18 17 -43q-2 -25 -19 -41q-20 -18 -49 -23q-31 -2 -57 -2q-127 -6 -254 -20q121 12 96 10t-96 -10q-25 -4 -55 -2q-29 0 -47 22q-14 20 -13 43q2 25 25 37q16 8 37 6q18 -2 34 6q14 12 33 51q18 41 29 62q25 47 59 90q35 45 70 86q20 27 31 55q12 29 24 60l8 16t5 19 q-6 6 -25 6q-20 0 -29 -2q-41 4 -82 16q-39 14 -75 31q-119 61 -185 174q-68 113 -71 244zM360 1022q2 -47 21 -90q-14 41 -12 33t12 -33q84 -150 217 -107q131 43 156 201q2 100 -90 145q-90 47 -181 21q-55 -20 -82 -68q-29 -49 -41 -102z" />
<glyph unicode=":" horiz-adv-x="503" d="M72 772q20 82 28 166q-10 -78 -8 -64q4 16 8 64v37q0 18 9 35q10 16 28 22t35 10q47 20 127 41q80 23 115 -26q18 -45 10 -119q-8 -72 -18 -121q-2 -16 -9 -35q-6 -20 -22 -30q-4 0 -19 -2q-14 -2 -18 -5q-4 -4 -12 -14q-6 -10 -11 -14q-25 -18 -59 -25q-37 -4 -66 -4 q-47 -4 -79 17q-33 20 -39 67zM109 47q8 41 16 80l12 82q2 18 8 37q4 18 17 33q55 47 160 36q106 -8 110 -112q-2 -39 -12 -92t-37 -82q-59 -45 -150 -52q-90 -4 -124 70z" />
<glyph unicode=";" horiz-adv-x="524" d="M86 57q8 31 16 64q6 31 11 61q2 33 6 66t31 53q20 12 43 12h47q35 6 84 11q47 6 77 -15q27 -25 31 -65q6 -41 4 -74q0 -31 -2 -66t-14 -63q-18 -35 -68 -109q-51 -72 -80 -100q-23 -23 -61 -43q-39 -18 -68 2q-45 41 -6 78q37 35 62 68q4 6 14 24t8 27q-4 4 -24 0 q-20 -6 -29 -6q-37 -2 -57 18q-20 23 -25 57zM109 791q0 43 6 83l8 82q0 18 2 37q2 16 14 33q16 14 41 18t45 9q80 25 135 10q55 -12 66 -109q6 -43 4 -112q-2 -68 -27 -105q-16 -20 -38 -16q-25 4 -46 6h-120q-61 2 -90 64z" />
<glyph unicode="&#x3c;" horiz-adv-x="935" d="M102 643v281l752 325v-280l-498 -185l498 -184v-281z" />
<glyph unicode="=" horiz-adv-x="1245" d="M82 340v246h1081v-246h-1081zM82 778v246h1081v-246h-1081z" />
<glyph unicode="&#x3e;" horiz-adv-x="935" d="M82 319v281l498 184l-498 185v280l752 -325v-281z" />
<glyph unicode="?" horiz-adv-x="1005" d="M2 963q6 12 14 22t15 25q10 39 12 80t14 81q14 43 39 80q27 39 58 72q80 80 180 123q102 41 215 27q41 -6 80 -21q39 -14 76 -31q43 -16 83 -37q41 -20 74 -53q70 -74 107 -180q35 -104 32 -207q-4 -51 -22 -98q-18 -45 -37 -92q-6 -16 -10 -35q-4 -18 -17 -31 q-41 -37 -94 -55q-55 -18 -84 -68q-10 -18 -18 -61q-10 -43 -2 -62q14 -12 26 -22t11 -35q-6 -37 -37 -49q-31 -10 -64 -10q-27 -2 -53 -9q-27 -4 -53 -8q-41 -4 -82 -4t-82 -2q-31 -4 -66 -2q-33 2 -51 31q-31 51 8 63q37 12 58 39q6 12 8 27q0 14 2 26q10 39 27 80 q16 39 39 72q61 74 139 131q80 55 135 133q33 53 23 115q-10 59 -60 98q-57 41 -129 45q-70 2 -123 -47q-8 -10 -31 -37q-25 -27 -26 -30q4 -8 14 -11q12 -2 21 -8q20 -18 16 -49q-6 -29 -29 -45q-51 -25 -114 -25q-66 -2 -121 -4q-23 -4 -45 -8q-23 -4 -43 4q-18 10 -25 27 q-6 16 -8 35zM291 84q2 23 10 45q6 20 10 43q2 18 0 37q-2 18 11 33q14 18 36 26q23 8 45 13q49 8 99 16q51 6 100 12q23 2 45 0q25 -2 43 -14q35 -29 37 -82q2 -51 -2 -92q0 -23 -4 -45q-4 -25 -19 -43q-37 -35 -116 -37q-80 0 -131 2q-61 -2 -109 2q-47 6 -55 84z" />
<glyph unicode="@" horiz-adv-x="1775" d="M176 705q14 72 33 157q18 84 70 142q55 53 118 94q63 39 135 69q41 18 80 39q37 23 78 41q72 29 160 31q90 4 166 -6q33 -2 69 -6q35 -6 68 -19q49 -20 90 -53q43 -35 78 -72q16 -14 39 -24q20 -10 39 -25q27 -27 57 -53q29 -27 51 -57q45 -74 68 -199q20 -127 12 -213 q-2 -27 -10 -53q-8 -27 -10 -54q-4 -27 2 -16q4 10 8 -12q2 -23 -8 -43q-8 -23 -17 -41q-16 -29 -57 -56q-41 -25 -72 -36q-33 -16 -65 -31q-33 -16 -74 -12q-84 14 -166 92q-80 80 -114 155q-16 47 -21 101q-6 53 -41 92q-33 33 -72 39q-41 4 -86 -2q-68 -14 -77 -92 q-12 -78 26 -127q18 -16 45 -25q27 -8 51 0q18 10 41 25q23 14 45 0q37 -27 68 -95q33 -66 39 -108q4 -20 2 -45t-25 -37q-18 -8 -41 -4t-38 20q-6 10 -9 27q0 18 -20 16q-106 -16 -2 -6q106 10 -23 -4q-45 -6 -92 0q-47 4 -88 21q-14 8 -27 18q-12 10 -24 23q-23 20 -49 41 q-27 20 -41 49q-33 72 -43 159q-12 88 16 162q27 59 90 117q63 55 129 65q20 2 41 -2q18 -2 39 0q16 2 31 7q16 4 33 4q66 -8 118 -45q-53 29 -41 24q10 -4 41 -24q8 -4 19 -13q10 -6 18 2q8 10 2 21q-6 8 -16 12q-35 12 -70 33q-37 20 0 61q41 35 121 31q78 -2 127 -14 q25 -8 35 -37q8 -27 -4 -47q-6 -8 -17 -13q-8 -4 -14 -14q-8 -23 -4 -51q2 -27 4 -51q2 -27 0 -53q-4 -25 -2 -52q6 -66 14 -133q-8 63 -6 51t6 -51q2 -16 9 -41q8 -25 20 -39q47 -45 111 -49q63 -4 98 62q31 78 23 165q-6 90 -27 170q-6 29 -14 64q-8 33 -31 55 q-41 41 -84 82q41 -39 33 -31q-8 6 -33 31q-10 8 -23 12q-12 6 -24 13q-14 10 -29 26q-12 14 -24 29q-23 20 -54 41q-29 18 -57 31q-61 25 -129 24q-70 0 -133 -10q-31 -2 -64 -6q-31 -2 -61 -14q-43 -20 -84 -45q-41 -23 -84 -43q-43 -18 -84 -39q-41 -23 -76 -56 q-29 -31 -45 -67q-16 -39 -31 -76q-10 -25 -14 -53q-2 -29 -4 -56q-12 -96 -2 -192q10 -94 49 -184q12 -33 18 -70t25 -68q20 -27 55 -47q33 -20 62 -37q84 -61 155 -96q70 -33 185 -20q66 8 125 32q59 23 118 52q20 6 43 12q20 4 41 12q25 12 60 37q37 27 57 29 q47 -8 74 -78q29 -70 18 -109q-14 -27 -47 -28q-31 0 -51 18q-6 8 -16 23q-10 16 -17 16q-18 -2 -65 -20q-45 -20 -68 -29q-68 -33 -137 -64q63 31 51 25t-51 -25q-61 -25 -131 -22q-70 0 -131 8q-27 2 -55 8q-27 4 -52 15q-43 20 -78 51t-75 51q-53 20 -103 57 q-51 37 -75 93q-55 131 -80 270q-23 141 -23 285z" />
<glyph unicode="A" horiz-adv-x="1624" d="M0 57q4 14 10 25q6 12 19 20q12 6 26 7q12 0 21 12q2 4 2 8q-2 6 0 10q8 18 24 37q16 18 27 39q37 76 66 160q31 82 59 164q8 25 14 51q8 27 19 53q16 37 37 72q23 35 43 71q82 152 151 312q-56 -120 -56 -123q0 -1 3 4q14 31 53 119q14 39 31 76q16 39 35 75 q10 18 22 39q10 20 15 43q2 20 -9 33q-12 14 -12 35q4 25 21 39q18 14 41 20q57 12 118 12h119q27 2 55 0q27 0 50 -20q25 -31 4 -49q-18 -18 -21 -45q2 -12 10 -27q8 -12 13 -24q23 -59 45 -119q-20 55 -17 45q4 -12 17 -45q20 -51 49 -99q27 -47 55 -94q57 -104 105 -213 q-39 82 -39 83l2 -3q8 -20 37 -80q35 -86 59 -172q25 -88 57 -174q27 -66 58 -133q33 -70 69 -129q6 -12 15 -35q8 -20 16 -31q10 -6 27 -4q14 0 26 -6q23 -12 27 -35q6 -23 -4 -45q-12 -23 -35 -24q-23 -4 -45 -4q-51 2 -100 2q-51 2 -101 2q-25 -2 -47 2q-23 2 -39 20 q-16 23 -6 43q12 18 12 41q-4 35 -20 70q-18 37 -33 68q-18 41 -43 79q-25 39 -45 80q-23 49 -43 101q-18 51 -43 100q-10 20 -22 39q-12 18 -23 41q-18 47 -29 96q-10 49 -26 96q-23 51 -56 95q-33 43 -59 92q-4 10 -16 35q-12 23 -19 24q-2 -2 -8 -18q-6 -14 -6 -17 q-16 -43 -35 -84q16 39 14 31q-4 -8 -14 -31q-25 -49 -49 -98q-27 -49 -45 -100q-14 -39 -25 -78q-8 -41 -24 -80q-20 -49 -45 -98q23 47 18 37q-6 -8 -18 -37q-2 -4 -9 -17q-4 -12 -4 -18q6 -6 27 -6h27q37 2 73 6q12 1 24 1q24 0 48 -3q10 0 29 -4q18 -2 26 4q6 10 2 26 q-6 16 -8 27q-4 35 17 59q20 27 57 15q31 -14 39 -49q8 -33 16 -62q23 -66 60 -123q35 -59 63 -121q10 -25 18 -53q6 -29 -6 -53q-8 -16 -24 -27q14 12 12 9q-4 -2 -12 -9q-21 -9 -36 -9q-34 0 -44 44q-12 63 -33 94q-12 6 -57 -2q-47 -6 -68 -8q-37 0 -71 2q-12 1 -25 1 l-49 -3q-37 -2 -72 -10q-37 -6 -74 -10q-16 -2 -36 2q-18 2 -35 -2q-25 -8 -31 -41q-6 -31 -14 -54q-4 -8 -13 -14q-6 -8 -6 -16q2 -4 15 -8q12 -4 16 -7q25 -14 22 -45q-2 -31 -24 -47q-23 -14 -51 -12q-29 0 -56 2q-45 -2 -92 -6q-30 -3 -60 -3l-30 1q-18 0 -37 2 q-20 2 -33 14q-10 10 -14 23q-4 14 -6 26z" />
<glyph unicode="B" horiz-adv-x="1269" d="M0 29q8 16 18 28q12 14 19 33q18 73 18 147v15q-4 84 -4 166q6 254 6 509v128v-250v10v240l-4 274l2 -107v5q0 25 -2 102q0 25 -4 55q-2 31 12 52q14 18 39 22q25 6 43 -8q4 -6 11 -16q6 -10 12 -15q14 -4 33 8q20 12 34 17q19 4 38 4q13 0 26 -2q33 -6 63 -6 q59 2 117 12q59 12 119 12q33 -2 63 -10q29 -10 62 -16q72 -10 143 -27q72 -18 133 -59q23 -16 39 -39q16 -20 35 -41q18 -20 35 -41q18 -23 33 -45q37 -63 45 -139q2 -17 2 -34q0 -56 -25 -108q-12 -20 -41 -53t-30 -51q2 -12 14 -23q14 -8 22 -14q25 -14 48 -31 q20 -16 34 -43q37 -78 49 -174q6 -48 6 -93.5t-6 -88.5q-4 -23 -12 -45q-8 -20 -12 -43q-8 -41 -16 -80q-10 -41 -41 -72q-43 -37 -105 -51q-61 -14 -119 -20q-49 -6 -98 -13q-51 -4 -100 -6q-33 0 -64 4q-16 1 -32.5 1t-32.5 -1q-27 -2 -54 -10q-27 -6 -53 -10q-18 0 -39 6 q-20 8 -28 8q-4 -2 -9 -6q-2 -6 -6 -6q-6 -2 -8 6v16q0 25 -2 47q-2 20 -4 45q0 33 14 52q12 18 27 45q9 31 9 67q0 12 -1 25v12q0 45 27 72q29 23 59 8q31 -14 37 -49q0 -14 -2 -35q-4 -23 12 -29q18 -2 37 2q20 6 37 7q59 -4 119 -11h14q51 0 100 25q57 40 57 97 q0 32 -18 69q-49 102 -129 141q-43 14 -90 16t-92 3q-27 0 -53 2q-29 2 -56 2q-27 -2 -55 -9q-27 -4 -53 -4q-12 2 -37 4t-33 -10q-4 -8 0 -18q2 -8 4 -19q4 -63 4 -127q0 59 0 47v-47q-2 -72 -10 -145q-8 -74 -18 -145q-4 -18 -10 -35q-6 -16 -11 -35q-4 -23 -2 -45 q4 -25 4 -47q2 -4 2 -15q0 -12 -6 -16q-16 -6 -45 -4q-29 4 -47 4q-34 -4 -75 -4q-27 0 -56 2q-72 2 -86 72zM152 86h12h-12zM324 958q0 -25 10 -34q10 -4 41 -9q31 -6 47 -10q14 -6 24 -14t23 -12q23 -6 47 -7q23 2 45 0q68 -12 158 -14h7q83 0 134 47q34 41 34 94 q0 20 -5 43q-16 82 -74 125q-49 27 -123 31q-49 3 -90 3q-20 0 -39 -1q-59 0 -119 -4q-59 -4 -116 -18v-183v71v-3v-68q-2 -14 -4 -37z" />
<glyph unicode="C" horiz-adv-x="1505" d="M18 803q16 70 35 141q18 72 51 137q18 33 43 58q25 27 50 55q25 31 47 68q23 35 53 61q14 10 31 18q18 8 32 17q100 59 183 84q82 23 196 33q27 2 56 4q27 4 55 2q72 -8 139 -41q66 -33 133 -60q20 -8 43 -14t43 -16q8 -6 23 -15q14 -10 26 -8q6 4 11 14q4 12 6 19 q18 29 53 33q33 4 49 -31q6 -16 6 -33q0 -19 -8 -39q-16 -35 -33 -65q-16 -33 -28 -68q-14 -33 -31 -65q-18 -33 -39 -62q-20 -31 -39 -63q-14 -29 -37 -64q-21 -27 -50 -27q-6 0 -13 1q-12 4 -23 14q-12 8 -18 20q-6 16 -6 30q0 30 26 52q30 27 30 61q0 10 -3 21 q-14 29 -43 43q-31 16 -59 25q-70 27 -142 37q-41 6 -81 6q-32 0 -64 -4q-37 -4 -70 -19q-35 -14 -67 -30q-119 -53 -195 -148q-76 -94 -82 -225v-20q0 -41 6 -81q8 -51 23 -98q20 -70 67 -106q47 -37 105 -70q12 -8 20 -18q10 -8 23 -17q74 -37 162 -61q68 -19 133 -18 q21 0 41 1q31 6 84 29q53 25 82 41q8 4 16 10q6 6 8 17q-2 14 -16 20q-14 8 -23 17q-20 23 -14 51q6 29 33 41q33 10 61 -9q29 -18 49 -40q33 -27 64 -54q31 -25 59 -55q25 -27 47 -55q20 -31 47 -58q25 -23 60 -41q35 -20 39 -59q-2 -29 -25 -47q-23 -16 -51 -8 q-12 6 -23 14q-12 8 -24 14q-27 10 -53 2q25 4 20 4q-6 -2 -20 -4q-43 -12 -84 -34q-39 -25 -82 -41q-86 -27 -160 -35q-56 -4 -120 -4h-44q-59 2 -117 16q-57 12 -116 25q-39 6 -82 10q-41 6 -78 24q-20 10 -37 27q-16 16 -35 29q-29 16 -55 33q-29 16 -53 36 q-63 61 -115 142q-49 82 -78 166q-25 74 -28 151q-4 78 -5 156z" />
<glyph unicode="D" horiz-adv-x="1409" d="M-4 1470q18 43 47 43q8 0 18 -4q45 -14 89 -24q28 -2 55 -2l55 2q28 2 55 2t54 -2q55 -4 108 -19q53 -14 107 -24q111 -16 213 -51q102 -33 204 -78q41 -16 86 -31q43 -16 80 -43q94 -74 138 -190q43 -119 59 -232q6 -23 14 -43t15 -43q6 -37 6 -76t-6 -80 q-10 -82 -39 -151q-27 -66 -78 -133q-51 -70 -113 -109q-29 -14 -57 -26q-31 -10 -57 -25q-16 -10 -31 -22q-14 -10 -31 -19q-27 -8 -53 -14q-27 -4 -53 -13q-45 -14 -76 -26q-33 -14 -82 -14q-43 0 -90 -5q-47 -4 -90 -18q-16 -6 -31 -16q-16 -10 -35 -11q-25 2 -41 21 q-16 16 -16 41q4 35 29 65q23 33 40 62q31 57 54 117q23 59 53 114q14 27 35 43q20 18 51 8q33 -14 31 -49t-17 -61q-8 -12 -14 -23q-6 -12 10 -22q25 -10 53 2q27 14 52 20q14 2 26 2q14 0 29 2q16 4 33 15q16 10 30 18q25 10 52 21q27 10 47 26q35 31 76 92q39 61 53 107 q4 27 2 55q-2 29 -4 56q0 55 -8 108q-10 55 -39 102q-23 31 -54 52q-31 20 -57 43q-16 14 -33 32q-14 18 -32 31q-18 14 -41 23q-20 6 -43 14q-63 29 -127 49q-63 20 -136 21q-41 0 -82 -6t-81 -11q-16 0 -37 2q-20 0 -31 -16q-8 -14 -4 -35q4 -20 6 -37q1 -50 1 -100 t-1 -100l2 78v-3q-2 -20 -2 -75q-2 -59 -8 -119q-8 -59 -10 -119q-4 -119 -7 -236q-2 -119 -8 -237q-2 -18 0 -37q0 -18 6 -37q6 -16 17 -31q12 -16 10 -34q-4 -18 -23 -29q-16 -10 -32 -12q-13 -2 -26 -2q-19 0 -38 4q-33 4 -63 6q-31 -2 -66 -6q-33 -4 -61 12 q-18 12 -25 37q-8 25 8 43q12 10 23 14q10 4 16 21q10 27 11 55q-2 29 -3 55q6 72 15 146q8 72 8 145q0 100 -12 201q-12 98 -19 198v18q0 57 11 109q12 63 18 127q0 41 -8 84q-8 34 -8 67v13q2 10 6 17q4 8 6 18q-2 23 -21 27q-18 6 -34 12q-18 10 -23 27q-6 16 -6 36z" />
<glyph unicode="E" horiz-adv-x="1163" d="M43 788q8 45 8 91v92q4 53 8 108q2 28 2 55.5t-2 55.5q-6 53 -14 129q-2 21 -2 40q0 48 14 85q22 32 58 32q6 0 12 -1q45 -6 82 -7q109 8 219 11q109 2 219 6q55 0 111 2q53 0 108 -4q18 -2 47 -8q27 -8 43 -2q16 8 11 28q-6 23 -9 37q6 35 37 47q31 14 60 -8 q20 -18 24 -49q6 -29 8 -55q15 -127 15 -257v-16l-2 107v-4q2 -27 2 -103q-2 -29 -12 -53q-10 -27 -39 -35q-23 -4 -45 8q-20 14 -25 37q0 16 4 27q4 10 -16 14q-23 4 -48 4q-17 0 -34 -2q-43 -2 -82 -4h-166t-164 -6q-55 -2 -108 -2q51 0 41 0h-41q-6 0 -19 -2 q-12 0 -18 -4q-8 -10 -6 -27q2 -16 4 -27q-2 -51 -11 -100q-3 -26 -3 -51t3 -49q8 -29 45 -27q39 0 68 2h127q63 0 127 -2q23 -2 47 -10q23 -6 43 -6q18 2 12 16q-4 12 -6 25q0 27 19 41q16 16 41 14q27 -2 39 -20q14 -18 20 -41q14 -53 29 -107q16 -51 37 -102 q12 -29 26 -60q16 -31 17 -59q-4 -31 -29 -45q-27 -14 -53 -6q-20 12 -27 37q-6 23 -27 32q-29 8 -63 2q-37 -6 -66 -8q-72 -2 -145 -2q-25 1 -49 1q-49 0 -96 -3q-23 0 -70 2q-45 2 -59 -4q-10 -10 -9 -35q2 -23 4 -37q4 -49 5 -100q0 -49 -7 -98q-2 -14 -4 -37t11 -33 q10 -6 26 -2q16 2 29 4q53 6 108 6q-51 0 -41 0h41h35q69 0 140 -6l172 -16q33 -4 73 -11q13 -1 24 -1q27 0 50 6q14 8 8 20t-10 25q-10 25 -10 53q0 29 26 45q17 7 32 7q25 0 42 -21q25 -35 33 -76q10 -47 16 -98t6 -101q2 -23 0 -47q-2 -23 -16 -41q-18 -20 -39 -16 q-23 2 -45 6q-23 3 -48 3q-12 0 -24 -1q-39 -4 -73 -4q-147 2 -293 6h-59q-117 0 -232 -6q-47 -4 -113 -12q-18 -2 -34 -2q-41 0 -70 14q-31 28 -31 85v13q2 70 6 115q2 58 2 116q0 87 -4 175q-6 145 -8 292z" />
<glyph unicode="F" horiz-adv-x="1103" d="M2 20q0 14 4 29q2 12 12 23q16 14 31 18q12 2 17 27q3 31 3 62q0 15 -1 30q-2 45 -2 92q0 23 2 45q2 23 2 45q-4 27 -11 53q-4 29 -6 56q4 31 21 49q16 18 20 47q2 20 2 41t-2 41q-4 41 -4 82q2 70 4 137q1 23 1 46q0 46 -3 91q-10 109 -20 219l8 -85q0 -1 -8 85 q0 18 4 37q4 16 4 35q-6 31 -25 59q-16 29 4 60q22 23 56 23q8 0 18 -1q49 -6 84 -8q71 5 142 5q53 0 106 -3q121 -6 246 -18q68 -4 136 -5q23 0 46 1q-73 0 -73 -1l3 -1q18 0 70 2q10 0 27 -4q18 -2 26 0q10 6 6 22q-2 16 -6 25q-3 14 -3 28q0 19 5 37q10 31 49 35 q37 0 52 -31q14 -29 16 -61q6 -49 8 -100q4 -49 10 -101q6 -39 13 -80q4 -26 4 -51q0 -17 -2 -33q-8 -39 -43 -53q-10 -4 -20 -4q-25 0 -44 27q-8 16 -6 34t-4 37q-4 8 -12 13q-8 2 -19 4q-18 2 -37 0h-36q-86 4 -172 4h-43q-65 0 -132 -4q-63 -6 -127 -6q59 0 48 0h-48h-26 q-16 2 -25 -11q-6 -14 -6 -35q2 -23 2 -36q4 -47 6 -93q2 -22 2 -44.5t-2 -45.5q-2 -14 -6 -37q-2 -23 14 -26h10q19 0 58 4q49 4 78 6q55 -4 141 -14q54 -6 91 -6q23 0 40 2q16 6 13 18q-4 14 -9 27q-5 20 -5 40.5t5 41.5q8 36 45 36q8 0 17 -2q20 -4 33 -16q12 -12 16 -33 q2 -12 2 -26t2 -27q6 -45 21 -90q14 -43 34 -84q18 -33 47 -68q27 -37 27 -75q-4 -29 -29 -45q-27 -16 -53 -9q-27 14 -35 43t-28 43q-19 6 -43 6q-14 0 -31 -2q-41 -6 -74 -10q-51 -4 -103 -4h-34q-68 0 -137 -4h-66q-47 0 -59 -6q-14 -16 -14 -53t2 -58q6 -109 8 -217 q-3 68 -3 82q0 4 0.5 3.5t0.5 -3.5q2 -20 2 -82q-2 -33 -4 -65q-1 -11 -1 -22q0 -22 5 -42q16 -37 59 -53q32 -14 32 -45q0 -9 -3 -19q-14 -33 -47 -38q-31 -4 -64 -5q-100 -8 -200 -8l78 2h-3q-18 -2 -75 -2q-35 0 -64 8q-27 10 -43 43z" />
<glyph unicode="G" horiz-adv-x="1613" d="M35 715q27 106 47 213l-17 -83l1 3l16 80q0 20 -4 37q-4 16 2 34q6 12 16 23q10 10 17 22q12 18 22 39q10 20 23 39q84 119 198 201q117 80 256 119q47 14 97 24q45 7 89 7h11q55 -4 106 -23q51 -20 103 -41q35 -12 69 -23q35 -8 70 -18q35 -12 90 -39q53 -27 80 -29 q35 8 70 46q17 16 33 16q19 0 36 -21q12 -18 13 -43q2 -25 -11 -43q-18 -27 -49 -41t-55 -32q-37 -35 -66 -76t-61 -80l-33 -33q-18 -14 -41 -16q-47 4 -53 51q-4 47 -16 82q-18 33 -54 51q-35 18 -69 25q-53 10 -110 10t-118 -10q-119 -18 -217 -64q-41 -18 -82 -45 q-39 -25 -63 -63q-23 -35 -29 -76q-8 -41 -10 -82q-6 -45 -6 -92q0 -54 8 -109q12 -100 59 -190q59 -102 179 -166q115 -61 230 -61h7q47 2 90 14q43 14 86 31q25 8 54 14q27 4 51 20q33 25 49 64q18 39 35 76q18 29 45 57q24 26 24 59v7q-2 23 -20 24q-18 2 -37 0h-145 q68 0 55 0h-55q-59 0 -119 -4q-59 -2 -119 -2q-31 2 -63 6q-12 2 -23 2q-22 0 -41 -8q-27 -20 -31 -55q-6 -33 -41 -43q-37 -4 -53 26q-14 26 -14 55v7q2 51 28 94q25 45 46 90q12 39 14 80q2 43 16 80q10 23 29 37q16 14 43 12q41 -13 41 -48q0 -8 -2 -18q-5 -20 -5 -36 q0 -25 11 -39q10 -8 27 -6q14 2 26 4q33 4 64 6q33 0 63 2q122 6 243 6l195 -4q-170 3 -170 4h7q41 0 163 -4q45 0 93 -10q45 -12 67 -56q17 -45 17 -94q0 -46 -15 -94q-31 -102 -73 -180q-12 -25 -19 -52q-6 -27 -16 -51q-16 -27 -39 -49q-25 -23 -45 -47q-29 -35 -56 -74 q-27 -37 -63 -63q-49 -33 -109 -47q-59 -14 -116 -23q-72 -12 -146 -20q-72 -10 -145 -11q-68 2 -125 23q-55 20 -117 49q-59 27 -121 64q-61 37 -104 90q-12 18 -21 39q-8 23 -18 43q-37 51 -70 94t-57 104q-20 55 -31 115q-10 59 -22 117z" />
<glyph unicode="H" horiz-adv-x="1298" d="M-2 8q-10 39 20 53q31 14 39 45q4 55 4 109q0 55 5 111q2 41 8 82q4 41 4 81q2 119 12 236q8 119 12 238q0 45 -4 92q-4 45 -6 90v182v-70v3v67v39q2 27 0 35q-4 8 -20 12t-27 6q-23 12 -35 31q-10 16 -12 41q6 20 16 33q10 14 31 16q23 0 43 -12q23 -10 43 -15 q19 -1 37 -1q32 0 63 4q51 6 101 6q25 0 45 -9q23 -8 31 -30q12 -39 -11 -51q-20 -12 -41 -33q-8 -12 -8 -35v-37q0 -82 10 -164q8 -82 11 -164q2 -55 8 -108q-4 51 -4 41q2 -10 4 -41q0 -10 -2 -21q-2 -10 2 -16q6 -6 14 -4q10 4 19 4q27 4 55 4q18 0 37 -2q-45 2 -35 2 q8 0 35 -2q31 -4 61 -12q31 -10 62 -13h18l64 5q41 8 81 10q12 0 27 -2q14 -2 29 0q16 4 20 14q2 12 2 27q1 12 1 25q0 24 -3 48q-2 37 -2 74q0 61 2 127q0 66 6 127q4 23 13 55q8 33 2 56q-10 14 -33 16q-23 4 -35 35q-8 31 8 51t47 25q44 3 91 3q23 0 47 -1q72 -4 135 -17 q27 -6 53 -14q29 -10 41 -37q8 -25 -8 -41q-14 -16 -25 -37q-14 -41 -20 -88q-6 -49 -10 -92q-6 -81 -6 -160q0 -30 1 -59q1 -56 1 -110.5t-1 -108.5q-4 -74 -18 -146q-12 -72 -16 -145q-1 -23 -1 -45q0 -45 3 -90q4 -68 6 -137v-47q0 -31 10 -41q21 -7 50 -7q15 0 32 2h6 q43 0 43 -55q-2 -20 -14 -35q8 14 8 13q-2 -4 -8 -13q-20 -18 -49 -22t-54 -6q-63 -4 -129 -4q-32 1 -63.5 1t-63.5 -1q-27 -2 -55 6q-27 8 -37 39q-4 27 19 47q23 18 30 43q2 18 2 36.5t-2 37.5q-6 37 -10 73q-4 53 -4 109q2 55 2 108q2 14 2 60q0 43 -2 51q-8 2 -51 0 q-45 -2 -59 -4h-238h94h-4h-90q-27 2 -53 4q-29 2 -56 -2q-27 -10 -26 -66q-2 -53 -2 -84q-8 -137 -11 -274q3 103 3 107q0 140 -3 -107q-2 -14 -6 -45q-4 -33 4 -43q10 -8 23 -6q14 2 25 -13q14 -20 10 -43q-2 -25 -21 -38q-18 -14 -43 -17q-23 -4 -45 -6q-49 -4 -98 -4 q-61 0 -121 6q85 -5 85 -6h-3q-20 0 -82 6q-29 2 -55 12q-25 8 -37 37zM250 84z" />
<glyph unicode="I" horiz-adv-x="464" d="M0 1507q6 16 16 31q12 14 33 16q23 2 45 -6q23 -8 43 -14q72 -16 144 -23q-68 8 -54 7q12 -2 54 -7q31 -2 65 -4q35 -4 47 -37q6 -18 2 -36t-22 -29q-6 -4 -17 -6q-8 -4 -10 -15q-2 -18 8 -43q12 -27 19 -45q8 -39 10 -82q2 -41 2 -81q1 -20 1 -39q0 -40 -3 -80 q-4 -59 -6 -119q-4 -96 -4 -193q2 -96 2 -192q0 -68 2 -135q3 -47 3 -92q0 -23 -1 -45q-2 -27 -6 -56q-6 -31 0 -55q12 -23 41 -29q31 -6 43 -32q6 -25 -6 -46q-12 -20 -35 -28q-22 -4 -47 -4h-17q-33 4 -63 4q-51 -2 -101 -6q-51 -6 -100 -6q-25 2 -45 10q-23 8 -33 30 q-12 31 6 52q18 20 47 24q10 2 29 0q16 -2 27 4q8 12 -4 41q-10 31 -15 45v16q0 24 4 48q4 33 5 63q-6 96 -17 193q-10 81 -10 164v28q2 45 6 90t6 93v118v119q2 72 4 148v18q0 64 -12 127q-4 23 -23 25q-16 2 -34 8q-18 10 -25 26q-4 16 -4 37zM250 123q8 -18 8 -19z" />
<glyph unicode="J" horiz-adv-x="1232" d="M-8 193q27 41 57 81q31 41 68 76q20 16 43 31q23 16 43 33q27 27 61 43q10 4 20 4q24 0 46 -23q20 -33 2 -59q-18 -27 -45 -47q-6 -4 -21 -17q-16 -10 -16 -20q6 -6 24 -6q18 -2 27 -6q12 -6 21 -17q8 -12 20 -18q48 -19 95 -19q20 0 40 4q66 12 129 46q18 10 60 40 q43 33 57 48q8 12 10 24q4 12 12 25q8 10 15 12q4 2 10 14q18 35 23 78q4 45 10 82q20 135 24 272v34q0 120 -12 241l-8 82t-6 82q2 20 4 45q4 27 -4 45q-8 12 -23 12q-14 0 -26 2q-33 6 -60 27q-27 20 -26 55q4 33 30 41q27 8 56 2q35 -8 71 -14q35 -6 72 -6q18 0 37 2 q18 2 37 2q27 -4 53 -8q27 -6 53 -9q31 0 66 -2q33 -2 57 -24q14 -18 14 -35q0 -16 -12 -31q-22 -29 -53 -29q-5 0 -10 1q-8 2 -27 6q-18 4 -27 -4q-2 -4 0 -19q4 -12 4 -18q4 -23 5 -45q0 -23 2 -45q21 -180 21 -363q0 -69 -3 -139q-10 -252 -123 -481q-31 -66 -65 -131 q-33 -66 -99 -105q-86 -45 -186 -78q-76 -24 -153 -24q-22 0 -44 2q-70 6 -133 28q-66 23 -127 50q-68 25 -125 59q-57 33 -65 111z" />
<glyph unicode="K" horiz-adv-x="1310" d="M-4 53q4 14 10 27q6 12 19 18l16 4q10 2 14 9q8 18 4 45q-4 29 -6 47v200v-78v3v75q0 123 -2 246q0 123 6 246q4 70 11 137q4 68 4 137q1 18 1 36q0 36 -3 73q-4 57 -21 108q-12 27 -33 56q-20 27 -14 57q6 18 21 29q16 10 34 12h16q24 0 48 -4q33 -6 63 -8q16 -1 32 -1 t32 1q33 2 63 4q23 2 47 0q23 0 39 -19q18 -23 15 -51q-4 -29 -33 -41q-8 -4 -17 -4q-10 2 -18 -2q-8 -6 -10 -14q-4 -10 -4 -19q-6 -31 -4 -63q2 -33 2 -64q0 -51 -4 -100q-2 -51 -2 -100q-2 -55 -3 -111q0 51 0 41v-41v-18v-19q4 2 17 21q12 18 14 22q39 39 84 70 q-41 -31 -33 -25t33 25q66 49 115 117q49 66 104 125q41 37 90 65q47 29 84 70q4 2 7 6q4 4 4 8q-2 6 -15 12q-12 4 -14 7q-29 23 -21 55q8 35 39 47q27 6 56 2t55 -8q117 -10 236 -23l-93 10h4q20 -2 89 -10q27 -2 53 -10q27 -8 35 -39q8 -37 -19 -55q-25 -18 -59 -13 q-10 2 -27 7q-18 4 -27 0q-8 -6 -14 -23q-8 -14 -16 -24l-66 -62t-61 -65q-45 -53 -92 -103q-47 -51 -97 -96q-27 -25 -55 -49q-29 -23 -55 -47q-66 -63 -133 -125l53 48l-2 -1q-12 -12 -51 -47q-6 -6 -21 -19q-14 -12 -12 -22q4 -8 20 -17q16 -8 25 -14q20 -16 39 -39 q18 -23 33 -43q20 -31 37 -63q16 -33 38 -62q35 -47 76 -92q39 -47 84 -82q27 -18 55 -35q27 -16 54 -35q29 -23 53 -49q27 -27 55 -49q18 -12 39 -20q23 -8 41 -21q12 -8 21 -18q10 -8 24 -13q35 -6 70 -14q22 -5 22 -28q0 -14 -8 -35q-10 -25 -33 -31t-45 -6q-45 0 -90 2 t-92 2q-39 -4 -92 -12q-20 -4 -37 -4q-28 0 -51 10q-20 14 -21 30q0 16 -10 33q-4 8 -12 13q-8 4 -15 10q-16 18 -28 37q-12 18 -27 37q-53 61 -119 112q-68 51 -125 107q-57 59 -108 123q41 -49 41 -50l-2 2q-10 12 -39 48q-6 8 -16 24q-12 14 -21 19q-10 2 -12 -11 q-2 -10 0 -14q-1 -16 -1 -32t1 -32q2 -33 4 -65q4 -41 4 -82q1 -20 1 -40.5t-1 -41.5q-2 -23 -8 -45q-6 -25 -2 -45q6 -23 24 -21q20 2 37 3q31 -2 47 -25t8 -51q-10 -37 -43 -39t-65 -2q-59 -2 -117 -8q-39 -3 -79 -3q-20 0 -40 1q-41 2 -71 14q-31 14 -35 57z" />
<glyph unicode="L" horiz-adv-x="935" d="M0 1518q6 18 16 30q12 12 33 15q29 4 55 -2q27 -6 54 -11h17q47 0 91 9q11 2 23 2q40 0 80 -27q16 -10 28 -23q17 -15 17 -35q0 -51 -40 -51h-1q-41 2 -51 -28q-1 -18 -1 -37q0 -37 3 -74q2 -55 4 -108q2 -152 6 -301q2 -152 4 -302v-102q-1 -16 -1 -33q0 -33 3 -67 q0 -12 -2 -37t4 -35q10 -6 51 -8q41 -4 58 -4q70 -8 137 -13q25 -1 50 -1q44 0 87 4q12 2 27 4q14 2 26 2q6 -2 10 -4t9 0q6 4 4 16t-4 16q-4 16 -2 35q2 18 14 35q18 23 47 18q29 -2 45 -28q14 -31 19 -86q4 -55 6 -94q7 -51 7 -104q0 -21 -1 -42q0 68 2 55q0 -14 -2 -55 q0 -31 -12 -53q-10 -23 -43 -27q-18 -2 -36 -2q-27 0 -55 4q-47 8 -92 8q-104 -2 -211 -8q-52 -2 -104.5 -2t-104.5 2q-39 0 -104 -2h-9q-56 0 -81 25q-14 23 -10 53q6 31 6 55q-8 78 -13 156q-1 38 -1 76.5t1 77.5q6 219 23 438l-12 -171v7q4 41 12 164l8 90q6 45 6 92 q0 41 -4 82l-8 82q-6 90 -12 182q4 -64 4 -71v-1v3q0 18 -4 69q0 12 2 27q2 16 -2 29q-8 14 -21 16q-12 2 -26 6q-18 10 -25 27q-4 18 -4 37z" />
<glyph unicode="M" horiz-adv-x="1660" d="M2 1411q4 12 8 16q4 6 17 11q12 2 26 0q14 0 27 -2q33 2 65 4q31 2 64 2h65q43 -2 60 -10q16 -14 28 -35q12 -23 23 -41q29 -41 57 -82q31 -39 56 -84q14 -18 28 -35q16 -16 31 -35q29 -39 55 -82q27 -43 56 -84q51 -76 106 -149q-42 58 -43 58l2 -3q10 -14 41 -55 q4 -6 14 -23q12 -14 23 -12q8 4 16 23q8 16 15 24q35 63 71 127q-35 -59 -28 -47q8 12 28 47q12 20 23 41q10 20 22 39q18 20 39 39q18 18 35 41q37 53 68 108q31 57 57 115q23 51 55 107q33 53 88 73q59 18 127 19q68 0 129 -6q27 -2 54 -13q27 -8 39 -34q4 -8 6 -19l-2 8 q0 -2 2 -8v-9q0 -47 -38 -47q-4 0 -9 1q-19 3 -34 3q-27 0 -46 -9q-6 -8 -4 -19q2 -8 0 -16q-2 -4 -6 -8q-4 -2 -7 -7q-10 -18 -12 -43t0 -47q1 -27 1 -55q0 -54 -3 -108q-4 -82 -6 -164v-56t6 -53q4 -18 10 -35q6 -16 9 -37q8 -145 10 -290v-59q0 -117 -6 -234 q4 -37 32 -62q21 -19 21 -44q0 -10 -4 -21q-14 -25 -43 -33q-29 -6 -53 -6q-33 -4 -66 -4q-22 0 -45 2q-55 2 -111 8q-29 2 -51 12q-25 8 -33 41v8q0 38 33 48q37 12 45 49q1 38 1 76q0 76 -5 151q-4 51 -4 102q0 64 6 127q4 59 4 117q-1 30 -1 59.5t1 59.5q2 12 4 47 q0 35 -16 31q-8 -6 -16 -23q-8 -14 -15 -24q-29 -45 -61 -90q31 43 24 32l-24 -32q-25 -33 -53 -62q-29 -31 -56 -61q-82 -98 -160 -201q61 79 62 79l-2 -3q-14 -18 -60 -76q-18 -25 -36 -51q-18 -25 -37 -51q-6 -8 -17 -21q-8 -12 -22 -6q-18 16 -39 59q-20 41 -35 66 q-57 88 -113 178q-55 90 -112 178q-18 25 -39 49q-23 23 -43 48q-4 6 -16 22q-10 16 -19 16q-8 -6 -8 -26q-2 -18 -2 -29q-2 -37 -2 -74t-2 -71q-10 -123 -19 -246q-8 -123 -8 -246q0 -29 -2 -55q-2 -29 0 -55q2 -18 14 -17q12 2 27 0q31 -8 41 -35t-6 -53q-14 -20 -35 -24 q-23 -6 -45 -7q-33 -2 -66 -2q-31 0 -63 -4q-27 -4 -53 -10q-27 -8 -54 -6q-20 0 -34 10q-16 8 -23 27q-8 31 19 43q29 14 38 39q2 18 -2 37q-2 18 -2 36q6 41 15 80q8 39 8 82q-2 41 -8 82t-6 82q0 76 8 154q6 78 10 155q1 18 1 37q0 36 -3 72q-4 55 -4 110q2 68 14 138 q7 38 7 75q0 31 -5 60q-8 29 -28 33t-41 16q-10 8 -17 20q-4 14 -8 27z" />
<glyph unicode="N" horiz-adv-x="1265" d="M-4 1495q12 31 35 39q23 6 53 6q23 0 45 2q23 2 47 0q27 -4 53 -8q27 -6 56 -6q29 2 63 4q35 0 55 -27q12 -20 7 -45q-6 -23 -27 -35q-14 -4 -27 -8q-12 -4 -2 -22q6 -10 19 -21q10 -8 20 -18q23 -23 41 -49q20 -25 37 -52q29 -43 51 -86q23 -45 47 -88l70 -118t61 -123 q37 -78 86 -148q51 -70 97 -145q16 -33 35 -64q-16 31 -13 25q2 -6 13 -25q2 -2 8 -12q8 -12 16 -8q8 8 2 35q-4 25 -8 37q-2 49 -2 100v100q-4 291 -4 584v-228v9v219v27q0 16 -6 26t-15 10q-8 2 -18 4q-25 8 -31 31q-8 20 2 45q10 20 31 31q23 8 45 12q43 12 88 23 q45 8 90 10h10q34 0 52 -12t24 -53q2 -6 2 -19q2 -12 0 -18q-8 -20 -26 -17q-18 4 -31 -12q-6 -16 -2 -37q4 -20 6 -37q16 -90 27 -180q-8 71 -9 71v-3q2 -16 9 -68q4 -44 4 -89v-30q-2 -59 -4 -119q0 -68 -2 -137q0 -68 -5 -135v-74q1 -18 1 -36.5t-1 -36.5q0 -27 -4 -54 q-2 -29 -2 -55q0 -18 6 -35q4 -18 7 -37q0 -31 -9 -63q-5 -23 -5 -48q0 -8 1 -16q4 -23 6 -16q2 4 11 -16q8 -23 2 -17q-8 6 -6 -18q2 -8 10 -12l-6 4q2 -2 6 -4q14 -2 35 8q20 10 30 -6q5 -15 5 -43q0 -10 -1 -21q-4 -45 -20 -55q-20 -4 -45 0t-47 4q-41 0 -82 -4l-82 -4 h-45t-43 10q-14 12 -19 31q-4 18 -10 34q-10 16 -20 31q-12 14 -21 31q-16 33 -26 68q-12 35 -27 67q-23 41 -57 74q-33 31 -58 67q-43 72 -84 144q-39 72 -84 139q-33 45 -65 88q-35 43 -60 90q-8 16 -22 43q-12 29 -29 33q-10 -2 -8 -29t2 -35q6 -119 10 -237q-3 92 -4 92 v-4q2 -23 4 -88l4 -164t3 -164q-2 -39 -7 -84v-14q0 -37 9 -68q14 -24 47 -24q13 0 28 4q7 1 12 1q41 0 44 -61q0 -18 -13 -32q8 14 9 12q-2 -4 -9 -12q-18 -20 -47 -25q-29 -2 -55 -2q-63 0 -127 -10q-63 -12 -127 -14q-27 0 -53 10q-27 8 -35 39v9q0 35 29 42q33 8 55 29 q12 20 12 53t-2 55q-2 74 -12 145q-10 74 -14 146q0 80 10 156t12 153q0 47 -6 92t-10 90q-6 59 -9 119q-2 59 -4 117v14q0 59 15 113q-10 -59 -11 -47q2 12 11 47q4 12 10 27q6 14 6 26q-4 12 -27 12q-20 2 -34 7q-16 10 -23 26q-6 16 -10 35z" />
<glyph unicode="O" horiz-adv-x="1576" d="M14 795q2 23 4 45q2 25 9 45q31 90 82 174q53 82 114 153q29 35 62 70q33 33 69 57q37 18 78 29q41 10 78 23q70 29 137 49q65 22 138 22h6q135 -6 268 -57t235 -139q35 -31 62 -66q29 -37 59 -72q61 -70 107 -159q36 -73 36 -153q0 -17 -2 -34q-2 -23 -8 -43 q-6 -23 -8 -45q-4 -41 -6 -82q-2 -43 -16 -82q-14 -37 -37 -73q-20 -35 -39 -72q-8 -20 -12 -43q-4 -25 -17 -41q-20 -25 -47 -43q-29 -16 -53 -37q-84 -76 -176 -145q-92 -72 -203 -101q-41 -8 -82 -8l-82 8q-84 16 -160 43q-53 18 -102 41q-49 20 -98 47q-20 10 -43 17 q-23 8 -39 22q-25 20 -45 45q-18 27 -39 52q-35 37 -72 71q-35 35 -63 76q-55 88 -76 197q-19 101 -19 199v10zM338 766q0 -51 4 -102q4 -49 23 -99q37 -94 122 -180q86 -88 181 -125q53 -20 116 -29q39 -6 76 -6q22 0 43 2q29 4 51 19q25 16 47 28q88 43 160 107 q74 66 90 166q4 35 4 69q0 188 -108 353q-127 193 -367 205q-31 2 -63 -3q-33 -2 -64 -12q-72 -27 -135 -78q-61 -51 -110 -108q-35 -45 -48 -101q-12 -53 -22 -106z" />
<glyph unicode="P" horiz-adv-x="1144" d="M16 18q4 16 13 33q8 16 28 23h29q16 -2 25 8q4 12 -5 35q-10 23 -14 35q-4 41 -4 81q-2 41 -2 84q2 178 6 355q1 59 1 119q0 119 -5 237q-8 111 -8 219q1 -51 1 -71v-14l-1 3v82q0 20 4 47q4 25 -2 45q-12 25 -35 39q-20 16 -4 49q18 29 45 29h55q23 0 43 6q23 6 45 6 q18 1 37 1q37 0 74 -3q55 -4 109 -4q37 0 73 2q12 1 25 1l49 -3q45 -6 90 -18q43 -10 88 -19q51 -6 98 -20q49 -12 89 -47q74 -80 108 -178q35 -98 45 -205q6 -41 8 -82q1 -12 1 -23q0 -29 -7 -59q-18 -59 -55 -115q-35 -57 -74 -104q-25 -31 -51 -66q-29 -33 -61 -55 q-29 -16 -64 -35q-37 -18 -70 -26q-26 -4 -53 -4h-18q-18 1 -37 1l-37 -1q-35 -6 -72 -15q-23 -6 -46 -6q-14 0 -27 2q-41 13 -41 48q0 42 14 75q31 74 57 145q29 72 68 140q10 18 22 41q10 20 29 32q16 8 32 8t30 -8q31 -18 28 -53q-4 -29 -22 -51q-18 -20 -31 -45 q-4 -6 -12 -23q-8 -16 2 -20q12 -4 37 2q23 8 34 12q68 14 115 53t59 109q4 22 4 43q0 43 -16 84q14 -59 15 -47q-2 12 -15 47q-10 31 -22 59q-14 29 -37 52q-80 68 -209 79q-50 4 -96 4q-74 0 -136 -10q-25 -6 -24 -28q2 -25 4 -48l8 -200q-3 63 -3 76q0 3 0.5 3t0.5 -3 q0 -18 2 -76q2 -109 8 -219q4 -82 4 -164v-55q-4 -127 -14 -256l8 100v-4q-2 -25 -8 -96q0 -16 -4 -37q-4 -18 -4 -35q2 -25 20 -25t37 -6q16 -8 25 -24q10 -16 10 -35q-6 -43 -45 -47q-27 -3 -52 -3q-12 0 -24 1q-45 -2 -90 -7l-90 -12q-18 -2 -37 -4q-18 -2 -37 2 q-18 8 -26 23q-8 14 -15 34z" />
<glyph unicode="Q" horiz-adv-x="1720" d="M51 750q0 23 6 45q6 23 6 45q-2 14 -6 26q-2 14 -6 27q31 113 92 197t150 157q72 66 147 123q76 57 168 92q43 12 90 17q45 2 90 2q170 -4 302 -68q129 -63 243 -186q78 -80 105 -150t51 -174q8 -27 22 -49q12 -23 21 -49q9 -38 9 -79q0 -23 -3 -48q-8 -68 -20 -127 q-16 -82 -56 -156q26 60 27 60t0 -2q-6 -14 -27 -58q-10 -14 -26 -39q-16 -23 -17 -41q2 -8 11 -14q10 -4 16 -8q18 -14 31 -33q14 -18 28 -37q2 -4 13 -12q8 -10 14 -10q6 2 12 12q8 12 10 16q16 25 43 31q27 4 50 -18q12 -20 12 -42q0 -10 -2 -20q-8 -33 -15 -61 q-16 -109 -30 -217q11 79 11 85q0 1 -1 -3q-2 -20 -10 -82q-4 -31 -6 -64q-4 -35 -19 -61q-18 -31 -53 -49q-14 -7 -28 -7q-21 0 -40 17q-17 24 -17 50q0 21 11 44q15 33 15 64q0 17 -5 34q-10 16 -24 29q-16 10 -29 23q-35 31 -65 63q-31 35 -64 68q-78 76 -158 149 q-82 74 -163 148q-23 23 -56 63q-35 41 -59 53q-14 4 -21 -10q-4 -14 -10 -24q-18 -25 -47 -21t-45 27q-16 29 -8 61q6 33 12 64q8 72 8 145v145q-2 29 -2 68q2 37 33 49q39 8 51 -22q10 -31 33 -54q18 -14 23 -26q2 -12 14 -31q51 -68 108 -133q59 -66 121 -125 q45 -47 84 -96q-37 45 -30 37q8 -10 30 -37l13 -13q6 -8 12 -4q10 14 14 43t8 47q15 59 15 125q0 23 -2 47q-6 92 -39 168q-6 12 -15 25q-8 10 -14 23q-4 14 -4 26t-10 25q-8 10 -21 16q-12 6 -24 14q-20 18 -41 37q-18 18 -45 31q-37 18 -78 25q-41 6 -82 10 q-52 6 -104.5 6t-104.5 -6q-106 -12 -192 -76q-43 -33 -50 -57q-6 -25 -28 -64q-8 -12 -21 -16q-12 -4 -24 -12q-23 -20 -35 -54q-12 -33 -19 -61q-9 -56 -9 -114q0 -69 13 -142q27 -133 121 -221q25 -20 54 -31q31 -12 59 -27q43 -23 109 -49q53 -20 94 -20q12 0 22 2 q4 0 8 2t7 6q-2 8 -17 20q-16 10 -22 17q-23 25 -17 59q4 35 41 43q25 0 47 -22l39 -39q18 -14 37 -29q16 -14 31 -35q8 -14 14 -32q6 -16 19 -31q20 -25 45 -45t49 -41q23 -18 37 -41q14 -25 0 -53q-18 -31 -52 -25q-31 8 -63 10q-45 -4 -88 -18q-45 -12 -90 -19h-13 q-30 0 -59 7q-37 6 -72 14q-74 8 -145 16q-74 8 -139 41q-51 25 -109 84q-59 57 -84 109q-10 29 -18 57q-8 31 -23 61q-27 53 -51 109q-23 57 -27 115q-2 18 0 37q2 18 3 36q-4 23 -9 46q-6 23 -6 45z" />
<glyph unicode="R" horiz-adv-x="1234" d="M0 37q16 29 39 20q20 -10 35 6q6 16 2 37q-6 20 -13 35q-8 35 -10 74q-1 18 -1 36.5t1 35.5q4 27 10 55q4 27 5 53q-2 27 -7 55q-6 27 -4 54q0 33 4 63q4 33 5 66q-2 45 -11 90q-6 45 -10 90q-1 25 -1 49q0 49 3 96q6 74 14 146q5 60 5 118v19q-4 68 -9 137q-2 23 4 45 q6 20 31 31q23 6 45 6q25 -2 47 -2q100 2 201 2h-79h3q9 1 28 1t48 -1q96 0 190 -10q94 -12 189 -39q39 -10 80 -21q39 -12 74 -32q37 -23 61 -56q25 -31 49 -65q20 -25 43 -47q20 -25 37 -54q16 -33 18 -69q2 -37 2 -72q4 -41 9 -82q2 -20 2 -41.5t-2 -42.5 q-12 -74 -70 -153q-59 -80 -113 -131q-20 -18 -61 -47q-39 -31 -41 -50q10 -29 33 -55q23 -27 41 -49q10 -14 20 -31q8 -16 19 -31q25 -33 51 -63q29 -31 53 -63q8 -10 16 -23q8 -12 19 -21q25 -16 51 -10q29 8 53 -4q25 -16 25 -47q2 -29 -21 -49q-37 -27 -94 -27t-102 6 q-47 0 -113 -6q-18 -2 -34 -2q-42 0 -70 15q-20 18 -21 49q2 29 -6 55q-14 33 -39 59q-27 29 -45 60q-16 31 -31 65q-14 33 -36 64q-25 29 -62 35q-25 3 -49 3l-25 -1h-34q-18 0 -23 22q0 31 14 62t27 59q12 25 18 51q8 27 17 51q16 39 33 76l36 74q12 35 27 70q14 33 55 43 h8q38 0 46 -35q3 -13 3 -25q0 -24 -10 -47q-4 -6 -14 -22q-10 -18 -2 -27q8 -2 16 4q8 4 19 8q25 6 53 13q27 8 49 22q37 29 45 76q4 22 4 42q0 26 -6 50q-18 88 -80 152q-59 63 -151 73q-24 3 -47 3q-31 0 -62 -5q-55 -6 -108 -8q-20 0 -47 2t-39 -18q-6 -18 -2 -45 q6 -25 8 -45q0 -55 -2 -109q-1 -28 -1 -55.5t1 -55.5q0 -33 -6 -63q-4 -31 -6 -64q0 -45 8 -90t8 -92q-2 -37 -12 -72q-12 -35 -15 -71q2 -23 13 -43q8 -18 10 -43q0 -37 -8 -74q-6 -35 -9 -72q0 -18 13 -20q10 0 24 -6q20 -12 31 -35q8 -23 -2 -45q-16 -31 -51 -33 q-35 0 -64 -2q-45 -4 -90 -14t-90 -15q-18 -2 -37 -2q-20 2 -33 15q-10 10 -14 24q-4 12 -6 27z" />
<glyph unicode="S" horiz-adv-x="1173" d="M16 186q25 51 93 119t114 109q18 18 47 30q27 12 54 2q20 -8 28 -32q10 -23 0 -45q-8 -10 -35 -29q-25 -18 -12 -27q31 -10 19 0q-10 8 16 -6q29 -16 53 -33q27 -18 58 -30q39 -14 79 -21q39 -6 80 -12q14 -4 27 -8q14 -4 27 -4q39 4 79 24q41 20 64 51q22 34 22 74 q0 31 -14 66q-31 78 -92 110q-100 43 -211 60q-109 18 -207 65q-53 31 -84 72t-63 86q-43 51 -78 100q-35 51 -35 121q2 37 14 72q10 35 25 69q8 16 10 35q4 16 12 33q25 41 76 92t92 76q72 41 156 47q36 3 71 2q47 0 93 -4q96 -10 172 -23q76 -14 168 -45q33 -12 61 -8 q29 2 62 15q20 8 45 12q23 2 39 -17q16 -18 14 -41q0 -25 -16 -43q-23 -23 -54 -32q-33 -10 -57 -29q-45 -37 -82 -84q-39 -47 -72 -96q-14 -23 -36 -41q-20 -20 -50 -19q-39 6 -45 37q-1 7 -1 15q0 24 14 47q6 10 16 20q12 10 14 23q2 12 -4 18q-4 6 -12 12q-78 55 -201 66 q-13 1 -26 1q-102 0 -158 -71q-10 -16 -16 -32q-4 -18 -9 -37l-12 -54q-4 -29 4 -55q20 -45 103 -78q80 -33 131 -51q41 -18 82 -41q39 -20 82 -39q35 -10 69 -18q37 -8 70 -25q16 -10 29 -22q12 -12 26 -25q16 -14 35 -28q18 -14 35 -31q49 -61 67 -150q9 -49 9 -95 q0 -34 -5 -67q-8 -39 -22 -79q-12 -43 -33 -76q-90 -129 -272 -166q-103 -20 -195 -20q-71 0 -135 12q-33 4 -61 16q-31 10 -62 19q-29 10 -61 16q-31 8 -60 25q-18 12 -34 26q-18 14 -39 25q-35 10 -62 20q-27 8 -33 49z" />
<glyph unicode="T" horiz-adv-x="1210" d="M0 1532q12 33 41 47q10 5 20 5q19 0 39 -17q18 -23 13 -51q-8 -31 6 -54q18 -16 51 -12t55 4q74 -4 146 -12q74 -8 145 -15q22 -2 43 -2t41 2q39 2 82 5q127 0 254 12q-100 -7 -100 -8h4q25 2 96 8q16 1 32 1t33 -1h16q24 0 48 4q16 4 12 18q-4 12 -6 25q-2 29 10 53 q14 25 45 25q43 -4 56 -41q10 -32 10 -63v-11q2 -23 8 -45q6 -20 8 -45q0 -18 -6 -35q-6 -18 -6 -37q0 -53 2 -108q-2 51 -2 41t2 -41t8 -64q4 -33 0 -63q-10 -35 -41 -47q-10 -4 -19 -4q-21 0 -40 18q-22 29 -22 68q0 9 1 18q3 21 3 38q0 22 -5 36q-10 12 -41 10 q-31 -4 -45 -4q-100 0 -200 -2q77 0 77 1l-4 1q-18 0 -73 -2h-56q25 0 21 0h-21q-6 2 -10 4t-8 0q-10 -8 -4 -35q4 -25 6 -37q2 -23 0 -45q-2 -23 -2 -45q2 -25 8 -45q6 -23 6 -45q-8 -178 -20 -356q-7 -97 -7 -194q0 -81 5 -163q0 -31 -4 -63q-4 -20 -4 -40q0 -13 2 -26 q2 -12 6 -14t18 -2h13q27 0 61 -6q41 -8 45 -49q0 -12 -6 -27q-8 -12 -19 -20q-23 -16 -51 -15q-31 0 -55 2q-68 -2 -139 -4q-18 -1 -35 -1q-52 0 -101 5q-25 4 -40 19q-16 14 -21 41q0 39 29 39q31 2 53 16q8 10 8 35q2 23 2 37q17 145 17 290q0 51 -2 101q-8 197 -31 391 q-7 66 -7 130q0 26 1 52v-70v3q-1 8 -1 24.5t1 42.5q2 10 4 29q2 18 -4 27q-10 8 -35 6q-23 -4 -37 -6q-90 -2 -182 -3h70h-3q-8 -1 -25 -1t-42 1q-14 0 -37 3q-23 2 -35 -7q-16 -25 -8 -61q3 -12 3 -24q0 -22 -11 -40q-16 -16 -41 -16q-27 2 -43 16q-21 25 -21 62v6 q0 43 2 76q-2 86 -6 172q-4 88 -4 174z" />
<glyph unicode="U" horiz-adv-x="1363" d="M0 1415q14 41 47 49t72 9q45 6 92 8q22 2 45 2l45 -2q29 -2 53 -15q25 -10 33 -41q4 -33 -18 -41q-23 -6 -31 -26q-2 -12 2 -43q4 -33 6 -49q4 -63 10 -127q6 -63 6 -127q-6 -125 -24 -277q-4 -39 -4 -76q0 -107 35 -192q18 -31 45 -57q27 -25 55 -48q47 -45 106 -67 q-53 27 -43 20q10 -8 43 -20q39 -14 80 -21q43 -8 82 -8q80 2 127 60q49 57 84 120q37 59 58 142q20 84 22 155q-2 31 -8 62q-6 33 -6 63q0 47 2 93q1 22 1 44.5t-1 45.5l-4 82q-3 29 -3 56q0 14 1 28q2 12 8 24t6 27q0 8 -4 18t-6 17v20q0 14 -2 16q-8 14 -29 17 q-23 2 -37 10q-23 18 -16 47q6 29 33 41q46 16 96 16q24 0 49 -4q78 -8 145 -16q33 -2 66 -8q33 -4 41 -41q4 -23 -10 -43q-12 -20 -35 -25h-29q-14 2 -20 -10q-6 -14 -2 -37q2 -20 4 -37l16 -180q-6 67 -6 70q0 13 6 -70q8 -110 8 -219q0 -164 -18 -328q13 213 16 213v-8 q0 -51 -16 -205q-8 -72 -27 -145q-16 -72 -57 -133q-27 -39 -62 -68q-33 -31 -69 -59l-66 -62q-35 -31 -75 -49q-119 -48 -240 -48q-96 0 -193 30q-217 66 -331 266q-49 94 -68 197q-20 104 -25 208q-2 48 -2 96.5t2 96.5q2 96 2 190l-4 74q-4 37 -4 74q0 33 4 74 q1 22 1 39.5t-1 31.5q-4 16 -16 19q-12 2 -25 12q-10 10 -14 23q-4 12 -4 26z" />
<glyph unicode="V" horiz-adv-x="1505" d="M0 1452q10 31 33 39q20 10 53 10q33 4 66 4q22 0 43 -2q55 -4 110 -10q27 -2 53 -10q27 -8 39 -35q12 -43 -16 -53q-27 -10 -29 -31q4 -20 15 -43q12 -20 18 -41q18 -72 39 -141q23 -70 49 -138q12 -31 29 -57q14 -29 26 -57q4 -10 7 -19q2 -6 4 -16t2 -21q0 10 0 9v-9 q0 -2 2 -8q0 -4 -2 -2v10t-4 9q-2 0 -5 -9q-2 -10 3 -24q12 -35 34 -72q23 -37 37 -76q20 -59 43 -120q23 -59 43 -119q2 -12 8 -37q6 -27 17 -33q6 0 14 10t10 15q27 37 39 82q-14 -41 -10 -33q2 8 10 33q12 39 21 80q8 39 18 77q18 53 39 105q20 51 39 102q39 117 90 230 q49 113 92 229q4 14 13 35q6 18 18 31q8 4 18 6q12 0 15 8q0 8 -13 6q-12 0 -20 2q-27 12 -37 39q-10 29 8 53q14 18 39 23q25 2 45 2q68 0 138 -8q70 -6 135 -23q33 -8 49 -37q7 -13 7 -25q0 -18 -15 -34q-17 -13 -40 -13q-11 0 -24 3q-39 10 -53 -9q-6 -16 -8 -34 q-4 -20 -8 -37q-27 -96 -60 -193l26 75l-1 -3q-6 -18 -25 -72q-25 -72 -53 -145q-29 -74 -59 -144q-16 -33 -37 -63q-18 -31 -37 -64q-35 -68 -60 -143q-23 -74 -47 -147q-23 -63 -47 -129q-25 -66 -39 -131q-2 -25 23 -23q27 0 45 -12q14 -18 14 -36q0 -12 -6 -24 q-14 -31 -45 -41q-55 -16 -114 -16h-13q-68 2 -129 6q-25 -2 -55 -2q-31 0 -52 16q-16 14 -18 41q-4 27 10 43q4 2 11 5q4 0 8 4q2 10 -11 24l-18 21q-14 29 -20 59q-6 33 -17 64q-20 55 -53 104q-33 51 -57 104q-25 57 -50 119q-23 59 -43 119q-12 45 -26 88q-12 45 -29 86 q-18 47 -33 96q-14 47 -32 95q-20 55 -47 108q-27 55 -56 105q-12 20 -31 34q-16 16 -30 35q-18 27 -27 58q-6 31 -6 63zM455 668q2 -6 10 -31q6 -23 12 -25q6 6 -6 27q-12 23 -16 29z" />
<glyph unicode="W" horiz-adv-x="2041" d="M-25 1473q12 27 33 26q20 -2 45 -8q49 -6 101 -12q49 -4 100 -6q27 2 53 0q29 -2 47 -25q18 -27 6 -41q-12 -16 -24 -37q-6 -16 -4 -37q4 -18 10 -35q31 -111 72 -217q41 -104 86 -211q25 -59 47 -118q23 -59 39 -121q8 -37 16 -72q-8 33 -6 27t6 -27q2 -4 6 -24 q6 -20 8 -23q4 4 7 25q4 20 4 28q8 41 20 78q12 39 27 78q29 68 57 135q29 68 51 137q18 61 31 125q12 61 27 125q2 12 6 27q2 14 8 24q6 8 12 15q8 6 11 14q4 12 2 18t-2 19q18 213 18.5 213t-10.5 -141q-10 -134 -10 -163q0 -8 1 -7q3 0 17 122q0 14 -16 17q-18 4 -29 8 q-29 18 -31 53q0 35 33 49q20 8 45 5q23 -4 45 -9q59 -4 119 -6q59 0 119 -10q23 -4 43 -12q20 -10 30 -33q8 -16 4 -35q-4 -18 -20 -31q-10 -4 -27 -6q-16 -4 -22 -14q-2 -10 16 -47t25 -53q27 -82 47 -166q23 -84 47 -168q27 -84 57 -164q31 -80 70 -158q23 -41 41 -82 q-18 39 -14 31t14 -31q2 -8 8 -14q4 -8 10 -4q4 6 6 26q2 18 5 27q8 82 30 162q-15 -61 -15 -62l1 2q2 14 14 60q14 49 23 98q8 49 22 98q8 31 23 60q12 29 22 59q12 39 19 80q8 41 18 80t27 78q16 39 20 80q-2 51 -43 61q-43 10 -75 33q-20 23 -11 51q10 29 37 39 q19 6 34 6q18 0 30 -8q25 -12 51 -33q20 -10 43 -14q25 -6 47 -8q31 -4 63 2q31 4 64 8q12 0 27 -2q14 0 22 -12q4 -12 4 -27v-29q2 -23 2 -47q0 -23 -4 -45q-8 -23 -22 -39q-16 -16 -29 -37q-10 -20 -16 -41q-8 -23 -15 -45q-10 -33 -24 -67q-12 -35 -23 -70 q-8 -31 -14 -63q-6 -31 -15 -62q-12 -35 -24 -69q-12 -33 -23 -68q-16 -63 -28 -125q-12 -63 -31 -125q-16 -53 -37 -102q-20 -51 -41 -103q-12 -39 -18 -80t-17 -79q-6 -14 -14 -35q-10 -20 -8 -35q4 -14 20 -14q16 -2 27 -2q35 -10 45 -41q4 -10 4 -20q0 -21 -18 -40 q-23 -14 -54 -12q-29 2 -55 2h-309h122h-5h-117q-29 0 -55 8q-27 8 -33 39q-6 41 18 57q25 13 57 13h5q10 0 26 -2q18 -2 25 10q4 10 -4 26q-6 16 -10 25q-12 31 -19 62q-6 31 -14 63q-35 131 -78 262q-45 129 -80 262q-18 80 -41 158l17 -62l-1 3q-4 14 -16 59q0 2 -4 18 t-6 19q-8 0 -10 -10q-2 -12 -4 -21q-12 -45 -27 -88q12 41 10 33t-10 -33q-23 -63 -47 -129q-27 -63 -51 -127q-6 -16 -15 -33q-6 -18 -12 -35q-4 -27 -6 -55q-2 -27 -12 -53q-25 -53 -54 -105q-29 -51 -49 -108q-6 -20 -14 -43t-19 -41q-6 -8 -14 -14q-6 -8 -2 -17 q6 -6 25 -4q20 0 28 2q23 4 49 4q17 0 35 -2q45 -6 47 -55q-2 -39 -28 -53q-29 -12 -64 -13q-41 0 -82 2q-41 4 -82 5q-49 -2 -100 -9q-49 -4 -100 -4q-7 -1 -15 -1q-23 0 -49 5q-37 6 -53 33q-6 17 -6 30q0 23 20 34q32 16 65 16h7h18t19 2q4 4 0 10q2 -6 2 -4t-2 4 q-10 18 -27 37q-14 16 -20 39q-2 14 -2 29q2 12 0 26q-6 35 -17 72l-20 70q-16 57 -33 114q-18 57 -41 111q-14 35 -33 66q-16 33 -28 67q-16 47 -25 96q-10 49 -23 99q-16 61 -36 123q-20 61 -41 120q-14 47 -31 97q-18 49 -41 92q-16 31 -39 55q-20 25 -27 62z" />
<glyph unicode="X" horiz-adv-x="1576" d="M-25 53q8 25 23 39q16 14 43 12q12 -2 27 -4q14 -4 26 6q4 4 8 17q4 12 9 16q10 14 24 25q14 12 27 26q20 29 35 64q14 33 34 63q47 68 101 129q55 63 104 129q18 25 39 52q18 25 39 49q8 8 18 20q12 12 13 25q-2 10 -13 22q-10 12 -18 23q-20 29 -41 59q-20 31 -43 60 q-37 47 -76 90q-41 45 -73 94q-14 20 -17 41q-4 20 -14 41q-25 47 -64 90q-37 41 -75 80q-41 35 -97 102q-30 37 -30 70q0 26 20 49q20 16 43 10t43 -14q27 -6 55 -6q29 0 56 2q35 6 71 16q23 6 45 6q13 0 27 -2q29 -10 39 -36q10 -27 -2 -54q-10 -14 -25 -18q-16 -4 -20 -8 q0 -4 16 -27q18 -23 23 -29q35 -45 69 -86q37 -41 72 -82q43 -53 78 -112q33 -61 70 -119q10 -14 22 -29q10 -14 19 -30q2 -4 4 -11q0 -4 4 -6q6 0 30 27q25 25 33 35q82 109 156 223q-58 -86 -58 -89q0 -1 3 3q14 23 55 86q23 33 47 68q23 35 47 65q12 12 29 25 q16 12 24 26q6 16 -16 21q-20 6 -33 14q-12 14 -12 33q0 20 10 35q18 27 45 26q27 2 53 -4q119 -12 236 -24q-83 9 -91 9h-1l4 -1q23 -2 88 -8q27 -2 55 -4q31 -4 53 -19q20 -18 19 -49q-2 -29 -27 -45q-20 -8 -45 -2q-27 6 -41 -6q-14 -20 -24 -47q-8 -27 -27 -50 q-18 -16 -39 -22q-23 -8 -41 -21q-31 -27 -53 -61q-25 -37 -47 -68q-33 -39 -74 -69q-41 -31 -72 -70q-10 -18 -8 -35q2 -16 -4 -35q-18 -33 -55 -63q-37 -29 -41 -70q2 -12 12 -24q8 -12 17 -21q18 -29 32 -55q16 -27 37 -51q18 -27 33 -55q14 -29 35 -54q39 -45 82 -84 t75 -92q23 -45 54 -106q31 -63 69 -95q30 -10 77 -10q20 0 44 2h8q66 0 66 -58v-7q-8 -29 -35 -41q-25 -10 -53 -10q-16 -2 -33 -2l-49 4q-39 4 -80 8q-25 0 -47 -2q-23 -4 -45 -6q-25 -4 -55 -5q-31 0 -50 19q-12 16 -8 35q6 18 2 37q-12 20 -49 49q-37 27 -59 47 q-14 18 -25 39q-12 18 -24 39q-49 66 -103 129q41 -49 41 -50l-2 1q-10 12 -39 49q-16 20 -31 45q-14 23 -32 43q-4 6 -11 12q-8 8 -18 4q-10 -6 -22 -26q-10 -20 -19 -33q-55 -84 -121 -160q49 60 50 60l-1 -3q-12 -14 -49 -57q-23 -29 -49 -55q-27 -25 -53 -49 q-2 -4 -12 -15q-8 -10 -9 -16q4 -2 27 -4h27q35 -10 41 -45q6 -33 -21 -56q-29 -20 -70 -20q-39 2 -73 4q-72 -2 -146 -10q-58 -6 -116 -6h-29q-41 0 -70 12q-31 14 -37 57z" />
<glyph unicode="Y" horiz-adv-x="1527" d="M23 1397q2 16 6 37q4 18 16 32q18 18 49 19h56q68 8 147 14q11 1 21 1q66 0 112 -44q16 -18 16 -43q0 -23 -14 -41q-6 -6 -14 -12q-10 -4 -19 -6h-16q-10 2 -8 -4q2 -4 6 -7q6 -2 10 -4q16 -14 29 -34q12 -18 24 -37q92 -127 177 -256q-66 100 -67 100l3 -4 q16 -25 64 -96q31 -47 63 -90q-31 41 -25 32q6 -8 25 -32q6 -8 10 -17q2 -10 11 -14q8 0 14 12q8 10 8 12q16 29 37 54q18 25 37 51q59 82 117 164l-46 -65l2 3q10 14 44 62q14 23 28 47q12 25 31 45q23 27 55 49q33 23 49 51q8 27 0 54t17 49q18 12 43 14q25 0 47 -2 q59 0 117 -6l118 -12q31 -4 52 -17q23 -12 26 -45q0 -57 -33 -57q-6 0 -14 2q-30 9 -54 9q-14 0 -26 -3q-8 -8 -10 -25q-2 -16 -4 -28q-8 -29 -23 -58q-16 -31 -34 -55l-58 -70q-31 -33 -55 -71q-37 -59 -70 -119q-33 -59 -71 -117q-25 -33 -56 -59q-31 -29 -53 -64 q-10 -16 -12 -32t-8 -35q-10 -20 -25 -39q-14 -18 -21 -39q-6 -27 -6 -55q0 -17 2 -35q4 -37 4 -70v-22q-2 -45 -6 -93q-3 -22 -3 -45t3 -45q4 -18 13 -34q10 -14 14 -33q0 -8 -2 -19v-18q12 -27 29 -55q3 -7 3 -13q0 -21 -36 -37q-16 -6 -35 -6h-39q-23 -3 -55.5 -3 t-73.5 3q-82 6 -111 47q-16 33 5 50q20 16 26 45q2 18 -2 37l-4 36q-3 27 -3 55q0 13 1 27v82q2 25 4 56q4 29 -4 53q-14 37 -37 71q-20 37 -37 74q-12 33 -22 70q-10 39 -29 67q-8 12 -18 21q-8 10 -17 22q-20 41 -32 84q-12 45 -33 86q-25 43 -56 84t-57 82q-16 23 -27 47 q-12 25 -26 50q-8 16 -25 51q-14 35 -24 45q-25 15 -56 15q-7 0 -14 -1q-5 -1 -11 -1q-32 0 -48 34q-4 10 -4 18q-2 8 -2 19zM1198 1360l16 14z" />
<glyph unicode="Z" horiz-adv-x="1214" d="M-4 313q6 33 31 66q13 18 30 18q15 0 33 -12q10 -10 19 -37q8 -25 10 -29q6 2 18 19q14 16 19 22q29 37 53 74q27 39 51 76q53 76 117 141q61 66 123 135q43 53 80 111q37 57 79 111q27 33 56 61q27 31 53 64q6 8 16 22q8 14 7 27q-4 6 -17 8h-16q-55 0 -111 -2 q53 2 41 2q-10 -2 -41 -2q-48 -2 -95.5 -2t-94.5 2q-96 2 -193 2q-45 -2 -90 -2q41 0 33 0h-33q-10 2 -18 4q-10 2 -17 -2q-2 -4 0 -19q2 -14 2 -18q0 -37 -20 -70q-15 -20 -37 -20q-12 0 -27 6q-33 18 -34 51q-1 11 -1 22q0 22 3 44v20q0 74 -13 146q-14 82 -14 161 q2 25 16 41t41 17q60 -2 61 -51q0 -4 -1 -9q-1 -9 -1 -18q0 -42 17 -63q14 -8 37 -7q20 0 37 2q33 4 63 2q31 0 64 -2q114 -7 228 -7q46 0 91 1q160 6 320 6q23 0 57 -4q35 -6 53 -4q14 6 15 21q2 14 4 26q16 33 51 31t51 -33q8 -20 8 -45v-45q-2 -51 -6 -100 q-4 -51 -4 -101q0 -27 -2 -55q-4 -29 -27 -45q-29 -14 -53 -2q-27 12 -33 43v25q-2 18 -14 16q-16 -10 -43 -55q-25 -43 -41 -64q-29 -37 -55 -73q-25 -37 -53 -74q-47 -55 -97 -111l-94 -110q-35 -43 -67 -86q-35 -45 -64 -91q-14 -29 -29 -57q-12 -31 -30 -55 q-14 -18 -31 -35q-18 -14 -33 -33q-2 -4 -10 -14q-6 -10 -6 -19q6 -6 26 -4q20 0 29 2q49 4 98 11q51 4 101 6q70 0 137 -2q68 -2 137 -2h55q27 0 54 4q8 2 18 6t14 10q4 8 5 19q0 10 2 18q6 29 32 41q25 14 54 0q20 -12 24 -35q4 -25 2 -47q0 -45 -2 -90q-2 -47 -2 -92 q2 -27 4 -55q2 -27 -2 -54q-4 -25 -20 -41q-18 -14 -43 -12q-25 6 -37 25q-12 18 -37 24q-23 2 -45 0q-23 0 -45 -2h-111q-55 0 -108 6q-50 4 -100 4q-33 0 -66 -2q-80 -4 -164 -6q-22 -1 -45 -1l-45 1q-15 1 -30 1q-30 0 -62 -3q-31 -4 -64 -8q-33 -2 -63 4q-8 2 -17 6 q-8 4 -16 6q-20 0 -37 -2q-16 -4 -33 13q-16 18 -16 41q-2 25 0 47q0 49 -2 100q-2 49 -2 100zM117 145q4 -20 8 -18t-8 18zM1065 178h18h-18z" />
<glyph unicode="[" horiz-adv-x="804" d="M137 -98q4 43 8 82q10 111 9 221q-2 -104 0 -84v84q-4 57 -9 117q-4 59 -6 118q0 111 4 219q4 109 4 220q-2 109 -4 219q-4 109 -4 219q12 57 17 117q2 59 2 118q-2 33 0 66t28 53q45 29 105 23q59 -6 110 -15q20 -2 45 -6t48 0q16 6 30 15q16 8 35 2q23 -10 33 -33 q10 -20 18 -43q23 -55 33 -123q12 -68 2 -127q-8 -39 -43 -55t-63 20q-6 14 -7 37q0 25 -10 33q-6 4 -18 0t-17 -6q-27 -4 -63 -9q-37 -6 -51 -32q-14 -55 -13 -144q2 -90 5 -149q8 -164 26 -328q16 -164 21 -328q4 -119 -4 -237q4 111 4 88q0 -20 -4 -88q-4 -29 -11 -64 q-6 -37 4 -63q8 -10 50 -10q41 0 53 4q8 8 4 24t-4 27q8 29 35 41t51 -2q18 -14 26 -37q10 -23 15 -43q14 -63 24 -137t-4 -135q-6 -23 -22 -41q-14 -18 -39 -23q-16 0 -25 8q-10 8 -24 13q-16 4 -37 4h-37q-82 6 -164 4q78 0 62 0q-14 2 -62 0h-55q-29 0 -53 12 q-18 10 -31 31q-12 20 -19 43q-10 39 -8 80z" />
<glyph unicode="\" horiz-adv-x="1390" d="M61 1733h234l1034 -1921h-233z" />
<glyph unicode="]" horiz-adv-x="595" d="M-8 1386q0 59 4 119q4 59 2 119v45t16 43q18 14 43 12q25 0 43 -14q35 -33 11 -14q-25 18 2 -19q6 -6 16 -2q10 2 16 4q23 2 45 0q23 -2 48 -2q53 2 108 9q53 6 109 6q23 2 47 -4q23 -6 37 -25q10 -18 12 -43t4 -47q8 -63 12 -127q4 -63 6 -127q14 -285 -8 -567 q-23 -283 -22 -566q4 -129 18 -256q-12 119 -10 97q2 -25 10 -97q4 -25 12 -53q8 -31 7 -55q-4 -23 -27 -47q-23 -23 -45 -31q-18 -4 -37 -4q-18 2 -37 0q-145 -8 -293 -6q137 0 111 0h-111q-29 -2 -63 -6q-35 -4 -60 16q-20 27 -16 84q4 59 4 94q-4 39 -10 84q-4 45 12 80 q16 27 45 29t47 -23q8 -12 9 -26q2 -12 16 -21q20 -6 45 0t45 8h37q20 0 31 17q8 18 4 45q-2 25 -4 47q0 100 -2 200q2 -94 0 -75v75q-2 82 -5 164q-4 82 -2 166q4 104 13 209q6 104 8 211v219q0 -104 0 -82v82q0 18 4 47q2 29 -6 45q-6 6 -17 7h-18q-23 2 -76 8 q-51 6 -69 -2q-12 -12 -11 -35q2 -20 -2 -37q-20 -51 -57 -39q-39 14 -51 61zM127 -139q14 -10 14 -11z" />
<glyph unicode="^" horiz-adv-x="1136" d="M102 846l326 588h281l325 -588h-280l-185 334l-184 -334h-283z" />
<glyph unicode="_" horiz-adv-x="1476" d="M102 -121h1272v-246h-1272v246z" />
<glyph unicode="`" horiz-adv-x="645" d="M123 1495h246l153 -358h-170z" />
<glyph unicode="a" horiz-adv-x="1275" d="M39 436q2 37 8 74q6 35 10 72q4 47 6 90q4 45 21 90q63 158 201 225q135 68 301 68q45 0 90 -11q45 -10 86 -26q16 -8 43 -23q27 -14 43 -10q6 4 12 35q8 29 21 43q36 23 99 23q12 0 24 -1q78 -4 131 -6q20 2 45 -2q23 -2 41 -18q16 -23 6 -51q-10 -29 -35 -39 q-12 -4 -27 -4q-14 0 -22 -15q-8 -14 -6 -35v-36q-10 -90 -15 -183q4 64 4 72v1v-3q-2 -18 -4 -70q0 -135 11 -272l16 -274q6 -31 29 -54q25 -25 16 -57q-8 -25 -31 -31q-20 -8 -45 -8q-53 -10 -129 -14h-6q-71 0 -106 45q-18 33 -18 75q0 11 1 23q4 55 8 100q2 42 2 87 q0 68 -4 145q-4 127 -61 217q-16 20 -39 35q-25 16 -45 32q-35 27 -72 37q-28 7 -58 7q-12 0 -24 -1q-78 -8 -145 -49q-70 -43 -92 -121q-6 -28 -6 -58v-15q2 -37 6 -74q4 -31 10 -61q6 -33 27 -58q35 -37 114 -45q29 -3 54 -3q44 0 75 9q25 12 41 35q16 20 49 8 q23 -10 29 -34q8 -23 10 -46q4 -35 15 -71q8 -35 24 -68q25 -33 56 -74q18 -23 18 -45q0 -19 -12 -38q-19 -24 -38 -24q-9 0 -18 5q-27 16 -55 27q-23 4 -45 2q-25 0 -47 -2q-19 -1 -39 -1q-69 0 -143 11q-94 14 -172 55q-104 57 -172 162q-68 104 -72 221z" />
<glyph unicode="b" horiz-adv-x="1177" d="M8 37q39 53 39 82q-2 29 -2 88q4 92 4 182v-70v3v67q2 33 4 64q4 33 4 65q0 53 -4 109q-2 55 -2 108l4 66q4 31 6 63q0 25 -4 45q-4 23 -6 45q0 55 8 111q8 53 17 109q6 37 12 81q3 16 3 31q0 26 -9 49q-16 27 -39 51q-20 25 12 56q28 21 63 21q7 0 15 -1q45 -6 82 -10 q25 0 47 2q23 4 45 6q31 -2 47 -22t13 -54q-6 -23 -21 -28q-16 -4 -29 -21q-6 -14 -2 -35q4 -20 9 -36q1 -22 1 -45.5t-1 -47.5q-4 -45 -7 -90v-59t2 -51q6 0 29 14q23 16 31 21q41 20 84 36q45 16 90 23q22 2 42 2q63 0 120 -18q76 -27 147 -70q27 -14 60 -29 q31 -14 55 -28q37 -29 67 -76q29 -47 48 -90q29 -72 51 -158q17 -60 16 -118q0 -22 -2 -44q-4 -29 -18 -51q-14 -23 -25 -49q-33 -94 -96 -164t-154 -115q-25 -12 -51 -18q-27 -6 -51 -16q-23 -8 -43 -21q-18 -10 -43 -14q-23 0 -45 4q-23 4 -45 4q-33 -2 -62 -14 q-26 -12 -52 -12q-6 0 -11 1q-31 8 -39 35q-6 25 2 53q14 43 37 84q25 41 33 86q2 25 0 56q-2 29 14 51q4 6 12 12q10 6 17 8q16 6 28 6q26 0 31 -28q8 -43 27 -68q10 -4 24 -4q25 0 62 14q59 25 82 48q83 91 83 222v15q-4 141 -137 193q-32 10 -63 10l-27 -2 q-43 -8 -86 -27q-35 -12 -69 -26q-33 -16 -62 -39q-111 -104 -123 -248q-6 -70 -6 -141t6 -142q8 -53 45 -59q30 -6 30 -43q0 -11 -3 -25q-12 -31 -47 -37q-25 -3 -46 -3q-11 0 -20 1q-70 -6 -147 -10h-8q-72 0 -103 74z" />
<glyph unicode="c" horiz-adv-x="1077" d="M20 434q10 53 11 109q0 55 16 108q31 88 94 178q61 90 142 144q100 63 223 76q40 4 79 4q81 0 156 -17q27 -6 56 -10t53 -14q25 -8 51 -21q25 -12 51 -16h56q29 2 41 -29q6 -23 -5 -45q-10 -23 -22 -41q-37 -51 -84 -96q-45 -43 -92 -88q-18 -18 -43 -35q-23 -16 -51 -14 q-29 6 -43 32q-12 27 0 54q6 8 22 18q14 8 17 19q0 4 -5 8q-4 2 -8 6q-67 57 -141 57q-34 0 -70 -12q-113 -37 -172 -143q-14 -31 -20 -62q-4 -31 -6 -63v-13q0 -82 45 -151q47 -74 127 -117q27 -14 57 -27q23 -9 47 -9q8 0 16 1q20 4 60 25q41 23 53 37q6 12 0 16t-10 12 q-4 18 6 37q8 18 23 29q23 10 45 2q20 -10 36 -27q43 -41 82 -88q37 -45 80 -88q16 -12 35 -28q20 -14 27 -37q2 -23 -13 -43q-14 -20 -36 -25q-18 0 -35 8q-14 8 -35 4q-23 -8 -41 -20q-20 -12 -41 -21q-39 -14 -80 -22q-41 -6 -82 -10q-76 -11 -153 -11q-51 0 -103 5 q-129 14 -229 104q-33 33 -55 72q-23 41 -48 80q-33 45 -55 92q-25 49 -29 106z" />
<glyph unicode="d" horiz-adv-x="1212" d="M4 483q2 41 2 82q10 43 19 90q8 45 28 86q18 31 43 60q27 27 51 53q27 31 54 61q27 33 59 58q55 39 125 55t135 21q25 2 48 1q57 0 100 -10q59 -16 139 -36q14 -4 43 -15q31 -8 41 2q6 12 4 35q-4 23 -6 39q-2 57 -6 117q-4 59 -4 118q0 16 4 48q2 31 -9 43q-8 6 -24 6 q-18 0 -29 4q-29 12 -37 39t13 51q20 23 49 20q27 -4 53 -10q49 -8 100 -8t101 2q23 2 47 4q25 0 37 -20q20 -43 -6 -54q-25 -10 -41 -28q-2 -10 2 -27q4 -16 6 -29q3 -23 3 -47q0 -12 -1 -24q-2 -37 -2 -74q0 -82 -4 -164t-6 -164q0 -51 6 -100q6 -51 8 -100 q-2 -92 -10 -185q-10 -90 -19 -180q-4 -31 -4 -94q0 -66 8 -90q18 -20 52 -25q23 -4 23 -30q0 -12 -5 -29q-10 -25 -31 -33q-20 -8 -45 -8q-53 -4 -108 -4q-57 0 -111 6q-23 2 -45 12q-20 8 -29 33q-6 25 9 41q16 16 20 39q6 74 8 147q0 74 6 146q4 45 11 92q4 21 4 41 q0 25 -6 49q-23 78 -105 123q-75 39 -147 39h-13q-63 -4 -133 -31q-70 -29 -110 -80q-43 -57 -45 -137q0 -80 32 -141q25 -47 68 -72q43 -27 94 -31q12 -2 29 -4q18 -2 26 2q12 10 7 33q-6 23 -9 37q6 35 35 49q12 5 23 5l39 -13q25 -27 28 -66q6 -41 13 -73q16 -61 47 -119 q33 -55 65 -109q12 -20 17 -43q4 -23 -13 -43q-23 -20 -49 -16q-29 2 -45 26q-6 12 -12 25q-6 14 -19 20q-20 6 -45 0t-47 -6q-14 2 -24 9q-10 8 -25 12q-11 1 -21 1q-26 0 -51 -7q-19 -6 -40 -6q-16 0 -33 4q-117 33 -185 94q-70 59 -133 162q-27 37 -49 75q-23 41 -35 86 q-8 39 -8 82z" />
<glyph unicode="e" horiz-adv-x="1193" d="M45 575q18 43 23 89q6 45 20 88q45 102 133 184q90 82 195 119q52 17 104 16q33 0 66 -6q86 -14 168 -47q43 -14 86 -29q43 -12 82 -41q14 -12 22 -26q10 -14 21 -31q25 -27 49 -53q25 -27 45 -58q41 -72 63 -182q13 -63 13 -116q0 -39 -7 -74q-14 -39 -51 -46 q-14 -1 -28 -1q-24 0 -45 4q-113 18 -226 32q-105 13 -212 13h-15q-63 -4 -127 -11q59 6 47 4q-12 0 -47 -4q-12 0 -27 -4q-16 -4 -18 -18q0 -16 12 -35q14 -16 27 -27q39 -33 94 -57q55 -23 104 -27q31 0 23 35q-1 7 -1 13q0 28 28 47q18 6 36 2q16 -4 35 -11 q78 -23 148 -67q-56 31 -56 32l2 -1q14 -6 54 -31q20 -12 39 -25q18 -12 41 -20q29 -10 61 -21q31 -10 55 -30q16 -14 21 -39q4 -25 -10 -43q-20 -23 -50 -15q-31 8 -55 11q-20 -4 -43 -15q-23 -12 -41 -22q-25 -10 -49 -23q-25 -12 -51 -20q-27 -8 -53 -8q-29 0 -56 -3 q-63 -8 -127 -10q-11 -1 -23 -1q-54 0 -104 16q-123 39 -215 133q-92 92 -143 209q-25 61 -25 125q-2 63 -12 126zM340 668q90 -18 182 -19q92 2 185 4h45h47q2 -2 16 -4q16 -2 19 -2q2 8 -19 27q-18 20 -29 26q-39 25 -81 37q-45 10 -87 31q-12 6 -22 16q-8 10 -25 11h-10 q-27 0 -61 -9q-43 -10 -68 -28q-27 -20 -47 -45q-18 -25 -45 -45z" />
<glyph unicode="f" horiz-adv-x="667" d="M-18 37q4 23 16 41t18 41q6 33 7 71q0 37 2 74q6 76 14 154t10 153q2 25 2 47q-2 25 -6 46q-4 14 -12 24t-13 25q-2 23 11 43q10 20 12 43q-2 41 -2 81q0 60 4 119q8 98 55 193q47 84 125 156q78 74 170 104q23 6 47 6q23 -2 45 6q18 20 21 82q3 43 37 43q13 0 30 -6 q33 -14 39 -47q8 -31 7 -63q-1 -21 -1 -42q0 -42 3 -85q4 -63 10 -127q4 -31 10 -64q6 -35 2 -63q-6 -31 -31 -45q-23 -12 -49 6q-20 14 -28 34t-11 46q2 4 0 14q0 10 -10 12q-27 -4 -67 -45q-41 -39 -56 -61q-6 -6 -20 -29t-6 -31q14 -6 34 0t37 0q45 -29 70 -102 q25 -74 41 -123q10 -20 18 -43q6 -25 -6 -45q-20 -27 -47 -14q-27 12 -51 18q-27 4 -55 -2q-27 -6 -54 -8h-18q-12 -2 -19 -4q-8 -12 -4 -60q2 -47 4 -65q2 -70 7 -137q4 -41 4 -82q0 -28 -2 -56q-4 -31 -11 -73q-2 -13 -2 -25q0 -26 9 -47q8 -16 28 -14q20 4 37 2 q23 -10 31 -33q6 -25 -2 -47q-12 -23 -43 -27q-31 -2 -56 -2q-17 -1 -34 -1q-33 0 -66 3q-25 3 -50 3t-50 -3q-25 -6 -54 -12q-29 -8 -55 -2q-14 6 -18 18q-6 12 -8 27z" />
<glyph unicode="g" horiz-adv-x="1249" d="M49 500q2 37 2 71q10 41 19 82q10 39 26 78q18 41 49 76t64 65q72 78 153 129q76 48 179 48h12q63 -4 125 -19q63 -14 125 -33q10 -4 45 -14q35 -12 43 -12q16 8 4 16q-10 6 -14 8q-14 2 -27 2q-14 -2 -27 4q-27 14 -34 43q-6 27 12 52q16 14 41 16t45 2q92 12 182 16 q-63 -4 -69 -4h-1h3q16 2 67 4h47q25 0 43 -10q23 -12 27 -35q6 -23 -6 -45q-14 -18 -33 -18q-16 0 -31 -10q-10 -10 -4 -27q4 -14 8 -24q2 -15 2 -30q0 -22 -4 -44q-8 -37 -8 -72q2 -86 8 -174q6 -86 8 -172q0 -29 -2 -55q-2 -27 -2 -56q2 -45 2 -87q0 -84 -8 -156 q-10 -111 -69 -236q-12 -25 -25 -49q-10 -27 -27 -47q-49 -68 -129 -133q-78 -63 -161 -80q-12 -1 -24 -1q-25 0 -48 5q-35 10 -70 18q-18 4 -37 2q-16 0 -34 3q-37 8 -66 30q-29 23 -59 41q-8 4 -19 6q-10 2 -18 -2q-16 -6 -29 -20q-10 -16 -24 -27q-16 -8 -30 -8 q-17 0 -32 10q-27 18 -24 54q2 25 20 40q16 14 33 31q33 39 88 96t104 70q37 0 41 -29q4 -27 25 -45q12 -4 29 -6q14 0 26 -2q15 -1 29 -1q46 0 88 15q51 23 96 68q86 92 98 209q9 71 9 144q0 47 -4 94v81q0 41 -7 82q-8 63 -30 125q-20 59 -82 92q-61 31 -129 46 q-35 7 -69 7t-68 -7q-102 -29 -164 -123q-44 -67 -44 -142q0 -29 7 -59q27 -88 84 -137q57 -51 143 -74q16 -6 55 -18q37 -14 52 -11q6 8 2 27q-6 16 -9 25q-7 25 -7 49q0 16 3 32q5 34 41 34q10 0 23 -3q47 -20 55 -84q10 -66 23 -110q12 -25 26 -50q16 -23 25 -47 q6 -18 2 -37q-4 -18 -16 -30q-12 -10 -27 -13q-12 -2 -27 -6q-43 -14 -88 -20q-43 -6 -90 -6q-70 2 -164 26q-92 27 -149 66q-68 57 -123 160q-55 100 -70 186q-6 37 -6 74z" />
<glyph unicode="h" horiz-adv-x="1193" d="M2 1489q6 16 14 33q10 14 29 20q8 1 16 1q24 0 48 -9q33 -14 61 -21q11 -1 21 -1q40 0 79 12q51 12 101 12q25 0 45 -8q20 -10 28 -35q6 -35 -22 -53q-29 -20 -60 -21q-12 0 -26 2q-16 2 -25 -8q-6 -18 -6 -45q2 -29 1 -47q-2 -55 -3 -111q0 -53 -2 -108q-2 -33 -6 -64 q-4 -33 -4 -65q-2 -6 0 -25q0 -18 8 -20q2 0 14 10t15 12q35 31 75 51q-37 -23 -30 -16q8 4 30 16q57 29 119 46q63 16 127 16q258 -20 334 -258q69 -214 69 -413q0 -21 -1 -42q-2 -45 -4 -92q-3 -36 -3 -73v-19q0 -12 5 -27q2 -14 14 -22q31 -6 80 -6q49 -2 47 -60 q-8 -41 -49 -49q33 16 26 10q-4 -4 -26 -10q-49 -10 -125 -10h-131h-45q-25 2 -41 16q-20 20 -15 41q6 23 13 45q4 23 4 45q-2 25 -2 45q-2 78 -6 156q-6 78 -9 156q2 45 4 92v12q0 41 -12 78q-25 55 -82 96t-119 43q-57 -4 -96 -47t-69 -86q-31 -39 -58 -82t-41 -92 q-7 -35 -7 -71q0 -14 1 -29q4 -49 8 -101q0 -49 -2 -100q-1 -26 -1 -50.5t1 -49.5v-11q0 -4 4 -8q8 -8 25 -4q16 2 27 0q35 -14 34 -49q2 -35 -24 -55q-20 -10 -45 -13h-45q-51 -2 -101 -6h-17q-42 0 -83 8q-18 4 -35 13q-16 8 -22 26q-4 14 -4 25q0 26 20 35q27 14 35 41 q2 31 -2 63q-2 33 -2 64q0 51 2 100q4 51 6 100q0 37 -8 74q-8 35 -13 72q-1 11 -1 21q0 26 4 52q4 37 4 72q-2 59 -11 119q-8 59 -8 119q2 147 17 293q-8 -115 -10 -115l-1 4q2 29 11 111q4 35 10 71q4 27 4 55v19q-4 23 -23 25q-16 2 -32 12q-12 8 -19 20q-4 10 -6 27z " />
<glyph unicode="i" horiz-adv-x="391" d="M2 1024q4 14 10 27q6 12 19 20q31 14 79 13q16 0 35 -1q76 -8 123 -10q12 1 25 1l49 -3q35 -2 45 -47q2 -33 -20 -45q-20 -12 -23 -43q2 -30 2 -59q0 -44 -4 -89q-6 -72 -8 -145q0 -74 4 -147q4 -54 4 -109v-37q-2 -51 -10 -100t-13 -100q-2 -12 -2 -27q0 -14 9 -25 q20 -14 39 -22q20 -8 18 -39q-4 -25 -25 -39q-20 -12 -43 -14q-100 -10 -200 -11l78 2h-3q-18 -2 -75 -2q-23 0 -47 2q-23 2 -39 21q-16 25 -9 53q8 27 37 37q6 2 19 2q12 2 18 4q6 10 2 27q-2 18 -6 28q-4 31 -4 64q2 33 0 63q-4 111 -4 220v221q2 49 6 100q3 22 3 43 q0 29 -5 57q-12 39 -43 54q-33 14 -41 55zM72 1255q10 25 22 50t23 51q12 43 28 88q14 43 62 63q31 10 51 -6t33 -43q18 -49 39 -125q10 -44 10 -79q0 -27 -6 -48q-12 -25 -35 -28q-23 -4 -45 -7q-40 -9 -77 -9q-21 0 -42 3q-55 10 -63 90z" />
<glyph unicode="j" horiz-adv-x="573" d="M-178 -371q6 33 8 64q-2 145 -4 293l2 -115v4q-2 27 -2 111q25 14 51 18q27 4 43 -24q6 -23 10 -58t33 -24q45 27 86 94q39 68 49 119q10 57 11 116q0 61 -3 121q-2 182 -4 365l2 -144v6q0 35 -2 138q1 50 1 100t-1 100q0 -78 1 -78t1 3q0 18 -2 75q2 10 2 37q2 25 -2 33 q-10 4 -28 0t-27 -4q-37 -2 -57 20q-17 17 -17 42q0 8 2 18q8 25 31 31t45 8q25 1 50.5 1t50.5 -1q26 -2 51 -2t49 2q27 2 55 6q29 4 53 -8q14 -10 23 -29q8 -18 4 -37q-8 -23 -27 -24q-16 -4 -30 -17q-8 -12 -4 -35q2 -23 4 -36q2 -92 4 -183l-2 71v-3q0 -16 2 -68 q6 -195 10 -424v-12q0 -223 -76 -395q-23 -41 -57 -70q-35 -31 -66 -65q-18 -27 -32 -54q-16 -29 -41 -49q-27 -18 -60 -26q-33 -10 -57 -27q-10 -10 -12 -25q-4 -12 -11 -24q-18 -23 -49 -21q-29 2 -47 25q-18 27 -14 61zM2 1171q31 51 57 113q29 61 52 119q8 25 14 53 q6 27 25 47q20 16 47 16q7 0 14 -1q35 -6 55 -29q23 -29 43 -96q23 -68 35 -107q8 -18 8 -37q0 -18 -10 -35q-31 -43 -92 -55q-59 -12 -111 -12q-23 -3 -48 -3q-12 0 -25 1q-37 0 -64 26z" />
<glyph unicode="k" horiz-adv-x="1093" d="M0 1462q2 14 8 27q6 12 19 20q18 10 43 11q25 -2 47 -2q45 2 90 6t92 6q27 0 53 -6q29 -8 37 -37q1 -10 1 -19q0 -41 -32 -45q-41 -6 -55 -32q-5 -26 -5 -54q0 -14 1 -28q4 -43 6 -82q1 -43 1 -86.5t-1 -87.5q-1 -22 -1 -43q0 -64 5 -129q2 -29 0 -56t0 -55q0 -4 2 -16 q2 -14 8 -17q8 -2 23 13q14 12 20 18q57 47 107 100q-47 -49 -37 -39q10 8 37 39q29 35 59 70q-27 -33 -22 -27q6 8 22 27q10 8 23 16q14 8 20 19q8 23 -2 47q-12 23 27 47q20 10 45 10q23 -2 45 0q91 7 182 7q37 0 74 -1l-100 2h4q25 0 96 -2q27 0 53 -10q27 -8 37 -39 q8 -41 -22 -51q-31 -10 -58 -27q-14 -10 -28 -24q-12 -12 -27 -25q-78 -57 -149 -119q-72 -63 -136 -137q-16 -18 -43 -49q-25 -29 -28 -55q2 -18 39 -55q37 -35 53 -54q25 -33 47 -67q23 -35 49 -66q47 -51 100 -94q51 -43 107 -84q39 -18 98 -25q56 -4 56 -57v-6 q-16 -51 -93 -59q-74 -8 -120 -11q-45 -4 -93 -6q-10 -1 -22 -1l-68 5q-18 0 -37 4q-18 6 -30 19q-12 18 -6 37q4 16 2 34q-6 20 -29 33q-25 12 -41 25q-43 41 -80 84q-37 45 -90 76q-8 4 -25 16q-14 12 -22 14q-12 -2 -12 -20v-27v-63q0 -33 -2 -66q-2 -8 -7 -27 q-4 -18 0 -26q4 -4 19 -4h16q31 -4 45 -27t6 -51q-6 -20 -20 -29q-14 -10 -35 -10q-53 0 -108 4t-111 4q-23 -2 -45 0q-25 0 -41 17q-18 20 -14 51t30 43q8 2 17 2q10 0 16 8q6 12 4 37q-4 23 -6 37v20q0 31 4 62q6 31 6 65v17q-4 63 -8 127q-2 63 -8 127q-6 68 -14 137 q-8 68 -9 135q2 55 9 111q8 53 16 108q6 57 6 117q0 59 4 119q4 18 6 47q2 27 -8 43q-8 10 -24 10q-14 -2 -27 0q-20 8 -29 23q-8 14 -12 32z" />
<glyph unicode="l" horiz-adv-x="405" d="M0 1452q2 14 6 27q4 12 17 20q20 10 45 8h45q92 0 182 -6q-71 3 -71 4h3q16 0 68 -4q33 0 63 -6q33 -6 39 -47q0 -20 -14 -31q-14 -8 -23 -26q-6 -16 -4 -37q2 -20 4 -37q3 -55 3 -109q0 -27 -1 -55v63v-2q2 -14 0 -61q-4 -119 -12 -238t-12 -235q-1 -25 -1 -49 q0 -49 3 -99v-29q0 -59 -6 -116q-2 -14 -8 -25q-8 -12 -13 -24q-4 -20 -4 -40t4 -42q10 -43 13 -82q-2 -10 -7 -39q-2 -29 -2 -35q8 -8 35 -10q27 0 41 -27q12 -31 -2 -53q-14 -23 -45 -28q-38 -7 -78 -7q-20 0 -41 2q-59 6 -118 9q-23 -2 -46 2q-23 2 -36 22q-14 20 -9 45 q6 23 27 35q12 6 27 8q16 0 22 13q8 18 2 45q-8 27 -10 45q-3 33 -3 66q0 17 1 34q2 49 2 100q0 45 -4 91q-2 47 -4 92q0 27 6 55q4 27 4 53q-6 229 -10 457q3 -179 4 -179v7q-2 43 -4 172v82t6 82q4 12 10 35q6 25 -2 36q-8 8 -24 9q-18 0 -29 4q-20 6 -27 20q-8 16 -12 35 z" />
<glyph unicode="m" horiz-adv-x="1595" d="M2 1042q16 39 49 48q35 10 72 14q82 12 158 45l-60 -23h2q14 6 58 23q27 10 53 18q27 6 51 -10q23 -18 23 -47q-2 -29 -27 -45q-12 -6 -27 -10q-14 -4 -24 -13q-6 -6 -6 -12q0 -4 -11 -10q-10 -4 -18 -2q-6 2 -12 -12q-2 -10 2 -27q4 -16 8 -27v-10q0 -4 4 -4q8 4 10 12 q4 10 10 19q25 27 56 47q-29 -20 -23 -17q4 6 23 17q51 31 119 43q35 6 67.5 6t61.5 -6q41 -10 81 -39q39 -29 66 -64l18 -30q10 -20 27 -17q16 10 35 37q18 27 39 43q70 45 151 60q41 7 82 7l82 -7q18 -2 37 -5q18 0 35 -6q37 -14 69 -43q33 -29 58 -59q121 -152 123 -326 q1 -87 1 -176t-1 -180q0 -23 2 -76q0 -53 4 -69q16 -23 39 -35t10 -49q-10 -23 -33 -31q-23 -6 -45 -8q-49 -6 -100 -6q-49 -2 -101 -7q-25 -4 -45 2q-20 4 -34 27q-16 37 6 49q23 12 35 39v19q-2 14 -2 18q-4 182 -7 365l2 -143v5q-2 35 -2 138q0 45 7 92q1 11 1 22 q0 35 -10 68q-20 53 -71 80q-35 17 -73 17q-17 0 -34 -3q-37 -8 -67 -29q31 16 24 15q-6 -4 -24 -15q-31 -16 -60 -43q-29 -25 -43 -59q-11 -35 -10 -86q0 -34 4 -74q12 -98 18 -166q2 -24 2 -47q0 -40 -6 -80q6 59 7 47q0 -12 -7 -47q-2 -12 -4 -28q-4 -14 0 -27 q8 -14 29 -16q20 -2 35 -9q23 -18 23 -41q0 -8 -3 -16q-10 -33 -41 -45q-53 -18 -125 -20q-36 -1 -68.5 -1t-60.5 1q-25 -2 -45 4q-23 6 -35 28q-16 35 13 56q27 20 28 51q-4 33 -8 63q-4 33 -6 64q-3 49 -3 98q0 24 1 49q2 72 2 146q1 10 1 22q0 57 -17 135q-18 92 -95 109 h-6q-44 0 -80 -29q-37 -31 -63 -65q-61 -92 -74 -203q-8 -92 -8 -183v-36q-2 -63 -2 -127q0 59 0 47v-47v-19q2 -14 2 -18q8 -10 25 -8q18 2 28 2q29 -6 43 -31q14 -23 2 -51q-12 -20 -34 -31q-23 -8 -43 -12q-53 -10 -111 -10q-55 0 -111 6q-25 0 -53 8q-29 6 -41 31 q-10 23 -2 45q6 25 29 33q12 4 26 4q14 -2 19 14q5 26 5 64q0 19 -1 40q-1 33 -1 62t1 53q3 43 3 86t-3 86q-4 53 -4 105q0 35 2 69q4 55 6 109v27q0 41 -4 83v27q2 16 -2 29q-6 12 -21 12q-14 -2 -26 2q-18 10 -25 27q-6 16 -6 34z" />
<glyph unicode="n" horiz-adv-x="1116" d="M2 1022q27 31 57 41q33 8 70 22q37 16 72 37q37 23 73 39q25 14 50 25q27 10 53 -2q8 -6 12 -13q6 -6 10 -16q12 -39 -10 -57q-23 -20 -55 -33q-4 -2 -17 -8q-12 -4 -14 -10q0 -4 8 -25q8 -20 11 -25q4 2 16 9q12 8 14 10q47 27 101 39q-49 -14 -39 -11q10 4 39 11 q54 13 106 12q93 0 180 -39q-109 31 -109 35q0 1 3 0h2q27 -4 104 -35q215 -111 267 -356q36 -174 36 -336q0 -67 -6 -131q-2 -20 -4 -45q-2 -27 4 -45q16 -25 47 -39q16 -7 16 -23q0 -15 -14 -37q-34 -34 -102 -34h-4q-37 1 -68 1t-55 -1q-18 -4 -35 -9q-18 -4 -37 -2 q-41 8 -47 49q14 -33 11 -26q-6 4 -11 26q-4 45 21 52q25 6 39 26q6 25 6 68v22q0 59 -2 95v26q0 81 -10 185q-12 121 -58 198q-12 18 -31 33q-20 12 -38 27q-20 16 -43 30q-25 14 -52 21h-14q-83 0 -152 -64q-72 -70 -96 -153q-6 -33 -6 -69t6 -75q12 -80 12 -147 q-2 -41 -6 -84q-4 -25 -4 -49q0 -16 2 -33q0 -12 4 -16q6 -4 19 -7q35 -4 74 -8q37 -6 45 -49q2 -20 -11 -35q8 14 9 13q-2 -4 -9 -13q-18 -25 -47 -24q-27 -2 -53 2h-30q-44 0 -89 -4q-59 -8 -119 -13q-23 -2 -45 5q-23 6 -34 28q-10 20 -5 45q6 23 29 35q14 4 27 4 q12 0 12 19q0 14 -6 26q-4 14 -6 27q-4 41 -4 82q2 41 4 84q1 14 1 27q0 27 -3 55q-4 41 -6 82q0 41 6 81q6 39 8 80q2 29 -2 56q-2 27 -2 55q2 37 6 72q3 25 3 49q0 12 -1 24q0 4 -2 19q0 14 -2 18q-6 8 -16 6t-17 -4q-27 4 -37 27q-8 23 -10 45z" />
<glyph unicode="o" horiz-adv-x="1142" d="M20 481q10 45 15 90q6 45 20 91q35 100 109 190q74 88 168 141q72 41 153 54q30 4 60 4l104 -13q23 -6 43 -14q23 -10 45 -16q31 -8 62 -13q33 -6 61 -18q78 -39 141 -117q61 -78 95 -158q23 -64 22 -135v-26q-2 -86 -14 -164q-14 -104 -76 -197q-61 -90 -156 -137 q-31 -12 -61 -16q-33 -4 -63 -11q-27 -8 -52 -18q-27 -12 -53 -18q-35 -7 -72 -7h-10q-41 0 -82 7q-49 6 -98 20q-51 14 -90 43q-23 16 -41 37q-18 20 -39 39q-12 8 -25 16q-10 6 -20 17q-16 23 -29 47q-12 25 -26 47q-39 57 -64 110q-25 55 -27 125zM375 532v-24 q0 -47 6 -94q8 -59 57 -101q56 -39 113 -39q12 0 24 2q68 10 138 46q53 20 80 40t34 82v13q0 57 -32 121q-35 70 -99 90q-20 4 -40 4t-40 -4q-43 -6 -81 -13q-33 0 -74 -4q-43 -4 -66 -30q-10 -18 -14 -43q-2 -25 -6 -46z" />
<glyph unicode="p" horiz-adv-x="1198" d="M0 1018q16 39 49 47t72 16q47 12 94 31q47 20 90 45q23 14 49 27q27 10 52 -2q16 -12 24 -29q-10 14 -8 12q4 -4 8 -12q4 -14 4 -25q0 -24 -20 -32q-31 -12 -47 -39q-2 -8 2 -17q4 -8 6 -16l-6 -18q-4 -10 4 -17q10 -6 33 8q23 12 34 17q49 20 105 33q38 7 77 7 q15 0 31 -1q76 -8 152 -31q78 -25 139 -70q129 -96 191 -264q34 -90 34 -175q0 -75 -26 -146q-27 -66 -82 -154q-57 -90 -115 -129q-45 -27 -100 -43q-53 -18 -105 -33q-43 -14 -88 -26q-45 -10 -90 -15q-29 -2 -55 0q27 -2 20 -2q-4 0 -20 2q-12 2 -23 2l-10 2q10 2 25 2 q16 -2 10 0q-25 6 -33 -6q-8 -14 -22 -28q-18 -14 -43 -9q-25 6 -39 23q-16 25 -8 53q8 27 24 49q33 53 62 113q29 57 34 121q0 27 4 55q4 29 31 43q29 10 53 -4q25 -14 31 -45q0 -8 -2 -19q-2 -8 0 -18q6 -12 21 -14q16 0 26 2q51 4 107 28q57 25 86 68q16 29 18 61 q1 16 1 32t-1 32q0 37 -4 74q-4 35 -20 69q-31 57 -99 90q-49 23 -96 23q-20 0 -39 -4q-63 -20 -156 -80q-90 -59 -129 -115q-15 -30 -15 -81q0 -11 1 -23q4 -68 4 -113q-2 -41 -6 -82q-2 -41 -2 -82q2 -37 6 -73q6 -35 6 -72q-2 -33 -4 -64q-2 -33 -4 -63q0 -47 2 -92 q1 -22 1 -45t-1 -47q-2 -12 -6 -27q-4 -14 -4 -27q2 -14 18 -10q14 4 25 6q12 2 25 2l57 -10q27 -11 27 -38q0 -14 -7 -32q-10 -20 -34 -26q-23 -8 -44 -10q-63 -13 -128 -13h-9q-70 4 -137 11q-27 0 -51 16q-25 16 -27 45q2 47 39 51q39 4 47 45q2 27 0 56q-2 27 -2 55 q2 69 2 138q0 104 -4 208q2 -135 3 -135l1 6q0 31 -4 129q0 31 6 53q8 23 8 53q-2 70 -8 138t-8 137q0 94 10 190q5 64 5 128q0 33 -1 65q-2 25 -20 18q-16 -4 -37 -4q-25 6 -35 25q-12 20 -12 45z" />
<glyph unicode="q" horiz-adv-x="1234" d="M16 471q6 20 13 43q6 23 8 45q2 33 2 64q0 33 12 63q33 84 111 178q76 94 160 135q61 25 131 37q70 10 135 21q42 8 89 8h19q59 0 111 -10q10 -4 33 -19q23 -12 32 -10q12 12 -2 25q-14 14 -20 18q-27 20 -37 53q-8 31 23 54q27 16 53 6q25 -10 47 -29q41 -29 84 -51 q45 -25 90 -43q31 -12 57 -31q29 -18 41 -49q10 -31 -6 -41q-18 -10 -35 -27q-6 -10 -6 -26q2 -14 2 -27q0 -63 -6 -127q4 59 4 47t-4 -47q-4 -59 -4 -119q-2 -59 -6 -118q-10 -123 -23 -246q-12 -123 -20 -246q-4 -66 -6 -158v-20q0 -77 14 -133q4 -18 16 -17h27 q29 -4 43 -30q14 -25 2 -52q-12 -23 -35 -28q-23 -4 -45 -6q-49 -6 -100 -13q-49 -8 -100 -10q-23 -2 -46 6q-20 6 -30 31q-6 16 0 37q4 18 16 31q12 6 27 8q14 2 18 16q2 14 -4 35q-6 20 -8 37l-12 254q5 -89 5 -98h-0.5t-0.5 4q0 23 -4 94q-1 9 -1 17q0 25 5 48q6 31 8 62 q2 28 2 56q0 41 -4 81q-4 70 -12 137q-4 49 -9 101q-2 51 -20 98q-25 55 -82 96q-57 39 -117 51q-31 6 -64 6q-43 0 -91 -10q-84 -16 -136 -69q-31 -37 -43 -82q-10 -45 -12 -90q0 -27 2 -56q0 -27 10 -53q31 -63 80 -80q51 -14 117 -16q14 -2 37 -4q25 -4 35 6q6 10 2 26 q-2 16 0 29q10 29 39 37q27 8 51 -8q25 -23 29 -56q2 -35 8 -65q10 -33 26 -68q16 -33 37 -61q10 -14 25 -29q12 -14 20 -31q6 -16 0 -34t-20 -31q-16 -10 -35 -8q-18 4 -35 6q-22 3 -44 3q-10 0 -21 -1q-31 -4 -64 -6q-22 -1 -45 -1t-47 1q-45 2 -90 10q-27 6 -51 18 q-25 10 -52 19q-23 4 -45 6q-23 2 -43 14q-27 18 -43 47t-36 54q-59 68 -97 143q-35 76 -39 168zM969 598z" />
<glyph unicode="r" horiz-adv-x="894" d="M2 1032q6 12 12 25q8 10 21 18q20 8 43 8q25 0 47 4q20 8 43 17q20 8 41 16q18 6 37 8q18 4 35 11q20 8 43 14q23 8 45 -2q33 -16 30 -51q-2 -33 -30 -53q-10 -4 -27 -7q-16 -4 -20 -14q-2 -6 2 -16q6 -10 14 -13q10 0 22 13q14 12 23 18q18 10 41 19q20 8 43 14 q55 16 127 20q20 2 38 2q49 0 91 -12q8 -2 14 -8q8 -4 17 -6q18 -4 28 14t23 29q16 9 30 9q16 0 31 -11q27 -20 27 -56q-4 -37 -31 -63q-29 -29 -51 -53q-27 -33 -41 -72q-16 -39 -31 -76q-8 -23 -18 -43q-12 -18 -37 -22t-45 10t-23 39q0 4 2 16t-2 17q-10 6 -34 -2 q-25 -10 -37 -15q-61 -20 -111 -59q-49 -41 -82 -98q-41 -84 -43 -177q-2 -92 -6 -182q-2 -29 -8 -84q-2 -28 -2 -48t2 -32q6 -16 20 -14t27 2q29 -6 45 -29t4 -53q-10 -23 -33 -29t-45 -6q-59 -2 -118 -8q-59 -8 -119 -10q-18 0 -35 8q-16 8 -25 25q-10 27 -2 55 q8 27 11 53q4 82 18 164q14 80 25 162q2 23 2 45q0 33 -4 65q-4 53 -9 109q-1 26 -1 50.5t1 49.5q2 51 4 101v17q0 38 7 75q-4 -43 -5 -35q0 8 5 35q2 4 4 16q4 10 0 17q-8 6 -19 6q-8 0 -18 2q-16 10 -25 26q-6 14 -8 35z" />
<glyph unicode="s" horiz-adv-x="921" d="M2 127q14 35 41 59q27 25 51 54q27 35 53 73q27 39 62 68q16 10 35 12q18 0 37 -8q31 -20 18 -53q-10 -31 12 -58q39 -35 86 -51q49 -14 101 -14q29 2 53 12q25 12 33 41q1 7 1 13q0 64 -75 79q-84 18 -139 25q-20 6 -33 18q-10 12 -29 23q-29 12 -59 22q-31 8 -60 25 q-84 47 -135 133q-38 60 -38 129q0 27 6 55q39 127 188 209q143 80 269 80h12q53 -4 106 -20q53 -14 104 -35q45 -12 121 -27q76 -14 92 -53v-6q0 -42 -51 -82q-53 -41 -90 -66q-23 -23 -55 -69q-33 -45 -51 -51q-8 2 -41 20t-39 23q-4 12 4 24q8 10 0 27q-14 20 -41 35 q-27 16 -49 24q-39 17 -81 17q-23 0 -48 -5q-57 -12 -57 -77q0 -10 1 -21q2 -18 11 -45q6 -27 16 -39q33 -29 84 -35t92 -16q68 -27 127 -70q61 -43 117 -90q20 -16 43 -30q25 -14 39 -37q14 -25 18 -54q2 -29 0 -55q-20 -129 -94 -182q-76 -51 -195 -70q-27 -6 -53 -12 q-27 -8 -55 -10q-11 -1 -22 -1q-51 0 -105 15q-63 16 -121 39q-20 8 -43 16q-23 6 -43 15q-4 2 -14 8q-8 6 -15 4q-50 -15 -50 -16v-1q4 0 34 7q29 5 34 5h1q0 -2 -49 -14q-33 -6 -51 15q-16 20 -21 49z" />
<glyph unicode="t" horiz-adv-x="663" d="M0 1243q27 51 92 55q68 4 121 15q31 10 59 22q31 14 62 21q23 6 45 0q20 -6 33 -31q5 -16 5 -28q0 -30 -28 -40q-41 -14 -59 -28q-6 -10 -6 -27v-28q-2 -27 -5 -76q-1 -14 -1 -26q0 -30 4 -46q0 -4 4 -6q2 -4 4 -4q16 2 35 10q18 8 49 -22q37 -49 47 -115q12 -68 43 -123 q18 -23 37 -51q15 -22 15 -47q0 -7 -1 -15q-6 -23 -27 -37q-20 -12 -45 -6q-12 4 -20 17q-6 10 -21 14q-5 1 -13 1q-18 0 -52 -3q-53 -4 -64 -8q-8 -12 -6 -43t2 -47q-2 -57 -6 -119q-1 -17 -1 -35q0 -43 7 -84q12 -29 58 -31q45 -2 75 -2h17q12 -2 18 0q20 14 29 33 q8 20 41 16q53 -16 63 -79q12 -63 25 -109q8 -20 18 -43q10 -20 11 -45q-5 -51 -36 -51q-9 0 -20 4q-51 18 -90 24q-78 -12 -149 -12q-40 0 -78 4q-104 8 -180 123q-47 84 -52 174q-1 31 -1 61q0 62 5 124q2 49 3 100q-1 24 -1 49t1 51q2 63 8 127q6 63 6 129v103 q0 57 -10 98q-8 20 -25 25q-16 4 -31 16q-10 10 -12 25q-2 14 -2 26z" />
<glyph unicode="u" horiz-adv-x="1155" d="M0 1036q14 37 39 45q25 6 63 6q39 3 79 3h20q51 -2 100 -5q9 1 17 1l49 -5q31 -6 39 -45q2 -25 -13 -43q-14 -18 -39 -22q-16 0 -35 2q-18 2 -26 -19q-7 -28 -7 -58q0 -12 1 -24q2 -45 4 -84q2 -59 8 -118t10 -119q0 -23 -4 -45q-4 -23 -2 -43q2 -27 16 -53 q12 -27 25 -52q23 -57 62 -98t106 -45h10q31 0 70 10q47 12 76 35q39 31 71 84q33 53 45 100q14 61 14 127q0 18 -1 37q-8 84 -15 164q-3 42 -3 85q0 22 1 44q-2 -61 -2 -49t2 49q0 10 4 29q4 16 0 26q-4 8 -14 9q-10 0 -16 -2q-18 0 -37 4q-16 6 -29 20q-20 25 -10 51 q8 27 35 37q23 6 45 6q25 -2 47 -2q49 2 100 4q16 1 33 1q33 0 68 -3q27 -2 55 -8q27 -8 39 -35q6 -25 -4 -45q-10 -23 -35 -30h-17q-14 -2 -16 -9q-2 -4 2 -6q4 -4 6 -8v-18q0 8 0 6v-6q-1 -32 -1 -64t1 -65q-2 61 -2 49t2 -49q0 -104 2 -209q4 -106 4 -211q2 -100 7 -201 q-3 63 -3 76q0 3 0.5 3t0.5 -3q0 -18 2 -76q0 -12 -2 -27q-2 -14 0 -28q14 -25 61 -39q26 -9 26 -31q0 -17 -16 -43q-16 -18 -39 -22q-25 -2 -47 0q-55 -2 -129 -11q-18 -1 -35 -1q-53 0 -90 14q-14 8 -18 20q-6 10 -8 25q0 10 2 20q0 10 -6 12q-4 0 -9 -4q-2 -4 -6 -6 q-18 -12 -41 -22q-20 -12 -41 -19q-59 -23 -125 -30q-20 -2 -39 -2q-45 0 -88 10q-43 8 -90 22t-82 37q-66 47 -116 119q-51 72 -62 149q-1 14 -1 27q0 27 3 55q4 43 4 84q-4 35 -8 72t-6 74q0 41 2 82l4 82q0 31 6 86q4 33 4 54q0 14 -2 23q-4 16 -18 19q-12 2 -23 10 q-10 10 -12 25q-2 14 -2 28zM819 98z" />
<glyph unicode="v" horiz-adv-x="1275" d="M-4 1028q32 59 114 59h5q86 -2 149 -10q27 -2 53 -4q29 -4 45 -29q12 -20 7 -45q-6 -25 -27 -34q-10 -2 -18 -2q-6 0 -7 -15q2 -27 25 -67q20 -41 35 -66q88 -172 188 -334l-76 128l3 -5q18 -31 73 -123q16 -23 29 -47q14 -23 22 -49q0 -2 7 -16q4 -16 8 -19q4 0 4 4 q2 6 4 8q16 35 33 66q-14 -31 -13 -22q2 6 13 22q63 111 123 225q-46 -89 -47 -89l2 3q12 23 45 86q37 68 71 138q35 72 56 145q4 35 -15 57q-18 25 2 58q14 18 39 20t45 2q55 6 111 6h18q46 0 90 -8q29 -6 45 -29q14 -25 -4 -51q-6 -10 -14 -12q-6 -2 -14 -10 q-12 -16 -19 -39q-6 -25 -16 -45q-20 -35 -49 -66q-27 -31 -47 -65q-18 -37 -33 -76q-12 -39 -29 -78q-41 -98 -88 -190t-106 -181q-37 -51 -72 -106q33 51 27 41t-27 -41q-2 -2 -8 -14q-8 -14 -10 -17q4 -10 22 -14l27 -6q33 -18 28 -52q-4 -33 -37 -49q-40 -13 -85 -13 q-15 0 -31 1q-63 6 -119 8q-25 -2 -47 0q-23 2 -41 19q-18 25 -8 51q10 25 4 53q-16 41 -47 86q-29 47 -52 88q-41 88 -77 176q-35 90 -70 178q-20 55 -41 113q-20 55 -53 105q-14 18 -29 34q-16 16 -29 37q-6 12 -10 25q-4 14 -10 24q-16 23 -31 33q-14 10 -16 39z" />
<glyph unicode="w" horiz-adv-x="1906" d="M-117 1032q18 49 56 49q39 -2 81 -8q14 -2 27 0q14 2 29 2q20 1 41 1l41 -1l82 -4q29 2 63 0q37 -2 57 -24q12 -18 13 -46q0 -25 -21 -38q-10 -4 -24 -7q-14 0 -17 -14q0 -20 13 -43q10 -25 18 -43q16 -53 33 -104q18 -51 41 -103q16 -41 33 -84q18 -43 36 -84 q2 -6 11 -24q10 -16 20 -15q4 4 6 19q2 12 4 16q4 23 13 45q6 20 12 43q18 66 39 131q20 66 47 129q14 43 37 82q-18 -37 -15 -28q2 8 15 28q6 8 14 15q6 8 8 16q-2 14 -20 16q-16 2 -27 4q-27 14 -26 46q-2 31 20 47q18 12 41 16q25 2 47 4q38 2 75 2q63 0 126 -6 q-79 5 -79 6h3q20 0 76 -6q20 0 45 -8q25 -6 35 -27q10 -25 -6 -43q-14 -20 -19 -41q0 -16 8 -35q8 -20 13 -34q16 -61 39 -123q23 -59 45 -119q33 -94 65 -191q-25 73 -25 75l1 -3l24 -72l8 -24q6 -20 17 -21q10 4 14 31t6 39q12 57 29 115q16 57 33 112q16 49 36 95 q23 45 43 90q6 10 19 32q10 25 8 35q-8 6 -27 4q-18 -2 -28 -2q-29 4 -47 27q-20 20 -11 49q16 33 50 37q33 6 63 4q70 0 137 2q68 4 138 4q27 2 55 4q29 0 53 -8q25 -14 31 -43q6 -31 -17 -51q-23 -14 -51 -12q-31 4 -53 -11q-37 -37 -47 -88q-8 -51 -17 -100 q-6 -27 -16 -51q-12 -25 -18 -51q-18 -88 -47 -177q-27 -90 -66 -170q-27 -49 -53 -96q-27 -47 -35 -102q0 -23 20 -21h37q29 -6 39 -35t-4 -53q-18 -27 -53 -26q-37 0 -66 2q-109 -2 -219 -17q85 10 85 11h-1h-2q-20 -2 -82 -11q-27 -2 -53 -8q-29 -4 -55 -2q-31 4 -45 27 q-14 20 -2 51q16 25 47 33q31 10 34 20q-4 25 -20 51q-18 25 -29 49q-6 16 -10 35q-4 16 -8 35q-18 61 -41 121q-20 61 -37 123q-6 31 -18 61q-10 29 -21 60q0 4 -4 18q-2 14 -4 16q-4 4 -8 -4q-4 -6 -6 -14q-12 -43 -25 -88q12 41 10 33t-10 -33q-16 -61 -33 -123 q-14 -63 -30 -125q-23 -68 -52 -135q25 63 21 51q-6 -14 -21 -51q-8 -14 -18 -33q-10 -20 -10 -35q4 -14 16 -22t19 -21q4 -16 -3 -36q-8 -18 -20 -31q-20 -14 -43 -10q-23 2 -45 4q-55 -2 -109 -11q-44 -8 -90 -8h-18q-31 0 -51 17q-20 18 -17 51q2 18 15 22q12 6 18 17 q0 6 -8 18q-8 10 -10 12q-8 16 -13 35q-2 18 -8 37q-23 82 -53 164q-31 82 -53 164q-20 90 -45 188q-25 96 -78 174q-10 14 -25 27q-14 12 -24 27q-6 8 -9 16q-2 10 -8 16q-12 12 -33 13q-23 0 -38 2q-25 8 -35 24q-12 16 -19 41z" />
<glyph unicode="x" horiz-adv-x="1294" d="M-10 14q20 49 51 49h5q29 0 58 23q51 43 101 94q47 51 88 105q16 20 31 45q12 25 28 47q16 18 45 47q29 27 31 53q-6 29 -43 68q-35 39 -57 63q-33 37 -66 76q-31 39 -55 82q-20 37 -39 74q-18 37 -45 67l-27 27q-12 14 -28 20q-16 8 -17 7q-2 -4 -18 2q-27 14 -33 43 q-4 29 14 51q16 14 39 20q25 4 45 6q44 4 90 5q15 0 31 -1q59 0 119 -6q25 0 55 -4q29 -2 49 -20q31 -37 11 -53q-20 -18 -33 -37q-6 -18 6 -43q14 -27 23 -43q18 -37 45 -68q25 -33 49 -65q8 -14 18 -31q10 -18 29 -15q16 4 31 21q12 16 24 29q63 66 127 129l-49 -49l2 2 q12 10 47 47q8 8 27 28q20 20 22 27q-2 8 -12 12q-8 4 -14 10q-12 14 -11 35q0 20 11 35q23 25 57 25q35 2 63 2q68 8 138 12q35 2 69 2t68 -2q33 0 61 -14q29 -12 33 -52q-2 -37 -37 -43q-35 -4 -59 -20q-82 -74 -162 -150q-80 -74 -158 -151q-20 -18 -61 -59t-39 -62 q12 -29 39 -51q27 -23 47 -45q51 -74 102 -152q53 -76 125 -131q14 -10 29 -22q14 -12 31 -21q35 -12 69 -20q30 -7 30 -40q0 -7 -1 -16q-10 -31 -35 -41t-53 -10q-147 -4 -293 -4h115h-4h-111q-29 -2 -63 -4h-8q-32 0 -54 14q-23 18 -20 50q0 31 22 47q10 4 35 6t25 12 q-6 8 -19 21q-12 10 -20 18q-55 49 -103 102q45 -49 37 -39q-10 8 -37 39q-10 12 -22 31q-12 20 -25 27q-14 2 -28 -17q-16 -20 -23 -30q-20 -25 -39 -52q-18 -27 -39 -51q-10 -12 -26 -26q-14 -14 -21 -29q-4 -12 10 -21q12 -6 21 -14q10 -16 6 -35q-6 -18 -18 -32 q-27 -23 -63 -23q-19 0 -40 6q-61 16 -106 25q-20 2 -35 -6q-14 -8 -33 -15q-48 -16 -99 -16h-12q-57 2 -71 63z" />
<glyph unicode="y" horiz-adv-x="1372" d="M-41 1024q2 14 6 27q4 12 17 22q20 12 45 12h45q37 4 71 7q37 4 74 6q27 2 55 0q29 0 47 -21q13 -20 13 -36q0 -14 -10 -25q-14 -16 -14 -44q0 -13 3 -28q14 -45 35 -86q18 -41 37 -84q25 -63 49 -125q27 -63 66 -121q45 -70 82 -143q-30 56 -30 57l1 -2q8 -12 29 -55 q8 -14 12 -35q6 -18 16 -33l4 -4q4 -2 6 -2q8 8 11 25q2 16 10 26q27 25 47 54q23 29 35 63q6 14 6 27q0 14 4 26q16 61 51 146q35 86 64 143q14 29 33 56q16 27 30 55q13 35 13 73v5q-2 41 16 59q33 20 96 23q63 0 103 -2q35 0 84 2h10q40 0 67 -15q18 -12 27 -39 q6 -25 -8 -43q-20 -20 -51 -16t-54 -8q-6 -10 -16 -56q-10 -45 -18 -65q-20 -43 -48 -80q-27 -35 -53 -74q-23 -33 -41 -71q-18 -37 -35 -74q-10 -27 -16 -53q-4 -27 -14 -52q-12 -25 -27 -49q-14 -23 -24 -47q-12 -31 -23 -61q-8 -31 -20 -60q-10 -27 -23 -49 q-14 -25 -25 -49q-6 -20 -4 -37q2 -16 -2 -35q-6 -20 -22 -39q-14 -18 -25 -38q-57 -119 -143 -211q-84 -92 -203 -152q-39 -18 -76 -29q-39 -10 -82 -10q-18 2 -47 6q-31 6 -43 4q-14 -6 -16 -20t-8 -25q-14 -12 -33 -16q-20 -4 -37 4q-27 14 -29 43q-4 29 7 53 q10 27 24 49q12 25 25 50q27 51 47 108q18 57 31 115q4 31 8 63q2 35 30 54q29 12 54 0t32 -41q3 -13 3 -27q0 -18 -5 -37q-6 -33 -12 -63q-4 -10 -10 -27q-4 -18 0 -27q10 -8 33 2q23 12 32 19q29 16 74 57t49 74q-4 18 -20 41q-16 20 -29 37q-51 74 -94 155q35 -60 35 -61 t-2 2q-10 14 -33 59q-63 137 -102 283q-41 145 -105 283q-20 41 -45 80t-55 71q-23 20 -41 35q-20 12 -31 41z" />
<glyph unicode="z" horiz-adv-x="999" d="M-25 33q2 49 13 98q8 49 14 100v56q2 29 18 49q16 16 41 18t41 -14q4 -8 11 -23q6 -16 16 -14q16 8 35 31q16 20 29 35q86 82 163 172q-62 -70 -62 -71l3 3q16 16 59 68q41 49 80 98l78 102q6 8 25 29q16 23 18 27q-6 6 -27 4q-18 -4 -28 -6q-63 -4 -127 -11q59 4 49 4 q-12 0 -49 -4q-33 -4 -67 -4h-23q43 0 34 0q-10 -2 -34 0q-14 2 -27 4q-14 4 -29 4q-14 -2 -24 -10t-25 -12q-10 -2 -10 6q-2 6 -18 -8q-11 -18 -11 -60q0 -34 -45 -40q-25 0 -43 16q-18 14 -22 39q-6 43 -8 90v92q-3 30 -3 64v18q0 45 17 80q12 20 35 29q23 8 43 -7 q45 -27 12 -12q-33 16 12 -12q14 -8 27 -4q12 2 27 0q14 -6 22 -15q10 -6 27 -8q57 0 116 10t119 15q39 1 78 1l78 -1q26 -1 52 -1q52 0 103 3q51 10 109 24q9 2 17 2q43 0 57 -55q4 -33 -6 -63q-12 -29 -23 -60q-6 -23 -6 -45q2 -23 0 -45q0 -31 -25 -47q16 18 15 14 q0 -4 -15 -14q-29 -12 -51 2q-23 14 -47 -6q-78 -78 -141 -168t-127 -178q-45 -57 -88 -117q41 55 32 43q-8 -10 -32 -43q-6 -10 -17 -22q-12 -10 -14 -23q-2 -10 8 -10h15q22 1 45.5 1t46.5 -1q-45 0 -35 0q8 2 35 0q49 -2 110 -8q26 -3 50 -3q31 0 57 5q37 16 37 57v8 q-1 5 -1 10q0 38 42 52q27 2 43 -13q18 -14 24 -39q7 -32 7 -68q0 -14 -1 -30q-2 -53 -4 -102q2 -27 2 -56q2 -29 -6 -53q-6 -23 -27 -35q-20 -14 -45 -4q-12 6 -18 19q-6 12 -18 20q-16 6 -45 0q-29 -4 -48 -6q-101 -4 -204 -4h-68h-39q-117 0 -233 -10q-49 -6 -103 -6 q-55 2 -78 49z" />
<glyph unicode="{" horiz-adv-x="595" d="M102 532v246q27 0 54.5 5t40.5 24q16 20 16 78.5t-35 156.5q-43 129 -43 238q0 127 66 217q16 25 42.5 49.5t64.5 45t89.5 33.5t116.5 13v-245q-29 0 -63.5 -7.5t-51.5 -31.5q-18 -25 -18 -78q0 -63 29 -154q23 -63 34 -121.5t13 -111.5q6 -135 -60 -225q-2 -2 -3 -4.5 t-3 -4.5q2 -4 6 -8q66 -94 60 -227q-2 -53 -13.5 -110.5t-33.5 -123.5q-29 -90 -29 -153q0 -51 18 -76q16 -25 51 -32t64 -7v-246q-66 0 -117 13.5t-89 33t-64.5 45t-42.5 50.5q-66 90 -66 217q0 109 43 235q35 98 35 157.5t-16 80.5q-12 16 -40 22t-55 6z" />
<glyph unicode="|" horiz-adv-x="450" d="M123 -270v1921h205v-1921h-205z" />
<glyph unicode="}" horiz-adv-x="595" d="M82 -82q29 0 63.5 7t51.5 32q18 25 18 76q0 63 -29 153q-23 66 -34 123.5t-13 110.5q-6 133 60 227q4 4 6 8q-2 2 -3 4.5t-3 4.5q-66 90 -60 225q2 53 13.5 111.5t33.5 121.5q29 90 29 154q0 53 -18 78q-16 25 -51 32t-64 7v245q66 0 117 -13t89 -33.5t64.5 -45 t42.5 -49.5q66 -90 66 -217q0 -109 -43 -238q-35 -98 -35 -156.5t16 -78.5q12 -18 40 -23.5t55 -5.5v-246q-27 0 -54.5 -6t-40.5 -22q-16 -20 -16 -79.5t35 -158.5q43 -127 43 -235q0 -127 -66 -217q-16 -25 -42.5 -50.5t-64.5 -45t-89.5 -33t-116.5 -13.5v246z" />
<glyph unicode="~" horiz-adv-x="1269" d="M82 668q0 104 37 182q41 86 119 129q90 51 209.5 36.5t250.5 -91.5q86 -51 142.5 -58.5t77.5 2.5q16 10 20 40t4 46h246q0 -96 -35 -176q-41 -84 -115 -123q-71 -41 -159 -41q-70 0 -148 25t-160 74q-37 23 -73.5 37t-69.5 20q-23 4 -41 3t-29 -7q-20 -12 -25 -46t-5 -52 h-246z" />
<glyph unicode="&#xa1;" horiz-adv-x="450" d="M102 -406h246v1024h-246v-1024zM102 782h246v246h-246v-246z" />
<glyph unicode="&#xa2;" horiz-adv-x="1107" d="M82 520q0 113 43 211t116.5 172t172 116t209.5 42q41 0 77 -6l80 188h138l-95 -221q102 -39 183 -119l-175 -174q-43 45 -102 68l-229 -545q63 -27 123 -27q123 0 208 86l175 -172q-74 -74 -172.5 -116.5t-210.5 -42.5q-115 0 -220 47l-96 -228h-135l123 293 q-98 74 -155.5 185.5t-57.5 242.5zM328 520q0 -106 69 -188l203 483q-109 -10 -184 -86q-88 -84 -88 -209z" />
<glyph unicode="&#xa3;" horiz-adv-x="1419" d="M102 0v246h179v266h-179v246h179v174q0 111 42 207t113.5 167.5t167.5 112.5t205 41q133 0 244.5 -59.5t183.5 -157.5l-170 -192q-20 43 -57 82q-82 82 -201 81q-117 0 -199 -81q-41 -41 -62.5 -92.5t-21.5 -108.5v-174h387v-246h-387v-266h432h125h9h245v-246h-254h-802 h-179z" />
<glyph unicode="&#xa5;" horiz-adv-x="1519" d="M61 1434h291l408 -650l407 650h291l-459 -732h203v-194h-319v-23v-129h319v-194h-319v-162h-246v162h-320v194h320v152h-320v194h203z" />
<glyph unicode="&#xa7;" horiz-adv-x="935" d="M-4 -129q37 57 74 117q37 57 84 106q16 23 34 43q20 23 50 23q33 -4 41 -31q6 -27 28 -45q57 -33 119 -41q63 -8 125 14q12 4 37 13q25 8 30 16q4 14 -12 25q-14 8 -22 14q-70 43 -146 76q70 -33 56 -27q-14 8 -56 27q-137 53 -260 135t-139 242q-4 41 6 81q10 41 37 74 q16 14 43 37t31 43q0 18 -19 41q-16 23 -26 39q-14 39 -19 80q-4 41 4 82q51 182 223 225q174 45 338 0q31 -8 60 -25q29 -14 57 -26q45 -12 66 16q23 29 63 4q29 -25 23 -57q-8 -33 -25 -59q-29 -43 -67 -72q-39 -29 -78 -64q-20 -23 -45 -47q-25 -23 -58 -28q-23 0 -41 14 q-18 16 -18 41q0 8 4 16q4 10 4 19q-2 20 -24 37q-23 16 -39 24q-49 25 -119 12q-70 -12 -84 -71q-4 -47 24 -76q31 -29 70 -45q90 -37 180 -62q88 -25 168 -94q66 -61 76 -149q10 -90 -35 -168q-10 -20 -26 -37q-14 -18 -33 -31q-6 -4 -17 -10q-10 -6 -10 -14q2 -6 29 -31 q25 -25 33 -35q37 -47 55 -106q18 -57 -4 -115q-16 -39 -41 -72t-53 -63q-70 -82 -142 -113q-70 -31 -178 -26q-31 2 -63 4q-33 2 -62 12q-35 10 -65 29q-33 20 -58 47q-6 8 -16 22q-12 12 -25 13q-25 -16 -43 -66q-18 -49 -73 -18q-14 10 -23 26q10 -14 6 -12l-6 12 q-6 10 -6 17q-2 8 -2 18zM385 561q10 -27 31 -45q-16 18 -15 14q2 -4 15 -14q20 -20 47 -29q-25 10 -21 9q6 -4 21 -9q55 -6 72 41q16 45 -43 62q-18 2 -37 -2q16 2 14 2q-4 0 -14 -2q-18 -4 -35 -13q-16 -8 -35 -14z" />
<glyph unicode="&#xa9;" horiz-adv-x="1587" d="M82 668q0 147 55.5 276t152.5 226.5t226.5 152.5t276.5 55t277 -55t226.5 -152.5t152.5 -226.5t56 -276t-56 -277.5t-152.5 -226.5t-226.5 -152.5t-277 -56.5t-276.5 56.5t-226.5 152.5t-152.5 226t-55.5 278zM164 668q0 -129 49 -246q47 -115 135 -201q84 -84 199 -135 q117 -49 246 -49t245 49q111 47 201 135q86 86 135 201q49 117 49 246t-49 245q-51 115 -135 199q-90 90 -201 135q-117 49 -245 49q-129 0 -246 -49q-115 -47 -199 -135q-88 -84 -135 -199q-49 -117 -49 -245zM352 668q0 92 35 172t94.5 139t139 94t172.5 35q92 0 173 -35 t140 -94l-143 -141q-70 70 -170 69q-100 0 -170 -69q-70 -70 -70 -170t70 -170q35 -35 79 -53.5t91 -18.5q102 0 170 72l143 -144q-59 -59 -140 -94t-173 -35t-172 35t-139.5 95.5t-94.5 140t-35 172.5z" />
<glyph unicode="&#xad;" d="M72 770q10 33 28 43q20 10 52 16q12 6 24 11q12 6 27 6q20 -4 37 -4q16 -2 36 2q180 27 363 26q-170 -6 -137 -2q35 2 137 2q53 0 111 -6q57 -4 108 8q23 8 33 29q8 23 31 31q31 6 51 -17q18 -20 18 -49q2 -45 -6 -90t-14 -90q-2 -23 -4 -47q0 -23 -17 -41 q-16 -16 -41 -16q-25 -2 -41 14q-6 8 -10 16t-12 15q-12 4 -27 0q-16 -2 -26 -4q-47 -6 -93 -5q-45 4 -92 3q-53 -2 -108 -5q-53 -4 -109 -2q-37 4 -74 9q-37 6 -71 4q-29 -6 -47 -27q-16 -20 -49 -14q-45 20 -35 57q10 39 0 72q-12 16 -23 20q-10 4 -20 35zM838 754l20 -4z " />
<glyph unicode="&#xae;" horiz-adv-x="862" d="M123 1128q0 63 24.5 120t66.5 97.5t98.5 65.5t119.5 25t119.5 -25t97.5 -65.5t65.5 -97t24.5 -120.5q0 -63 -24.5 -119.5t-65.5 -98.5t-97 -66.5t-120 -24.5q-63 0 -119.5 24.5t-98.5 66.5t-66.5 98.5t-24.5 119.5zM158 1128q0 -55 22 -106q23 -51 60 -88q35 -35 86 -57 q51 -23 106 -23q51 0 107 23q51 22 86 57q39 43 59 88q20 47 21 106q0 57 -21 107q-20 47 -59 86t-86 59q-49 20 -107 21q-59 0 -106 -21q-47 -20 -86 -59q-37 -33 -60 -86q-23 -55 -22 -107zM311 952v101v157v93h131q53 0 89 -36t36 -89q0 -39 -19.5 -69t-51.5 -44l71 -113 h-71l-64 101h-41l25 59h26q27 0 45 18q20 20 21 48q0 25 -21 45q-20 20 -45 20h-71v-33v-98v-59v-101h-60z" />
<glyph unicode="&#x2000;" horiz-adv-x="903" />
<glyph unicode="&#x2001;" horiz-adv-x="1806" />
<glyph unicode="&#x2002;" horiz-adv-x="903" />
<glyph unicode="&#x2003;" horiz-adv-x="1806" />
<glyph unicode="&#x2004;" horiz-adv-x="602" />
<glyph unicode="&#x2005;" horiz-adv-x="451" />
<glyph unicode="&#x2006;" horiz-adv-x="301" />
<glyph unicode="&#x2007;" horiz-adv-x="301" />
<glyph unicode="&#x2008;" horiz-adv-x="225" />
<glyph unicode="&#x2009;" horiz-adv-x="361" />
<glyph unicode="&#x200a;" horiz-adv-x="100" />
<glyph unicode="&#x2010;" d="M72 770q10 33 28 43q20 10 52 16q12 6 24 11q12 6 27 6q20 -4 37 -4q16 -2 36 2q180 27 363 26q-170 -6 -137 -2q35 2 137 2q53 0 111 -6q57 -4 108 8q23 8 33 29q8 23 31 31q31 6 51 -17q18 -20 18 -49q2 -45 -6 -90t-14 -90q-2 -23 -4 -47q0 -23 -17 -41 q-16 -16 -41 -16q-25 -2 -41 14q-6 8 -10 16t-12 15q-12 4 -27 0q-16 -2 -26 -4q-47 -6 -93 -5q-45 4 -92 3q-53 -2 -108 -5q-53 -4 -109 -2q-37 4 -74 9q-37 6 -71 4q-29 -6 -47 -27q-16 -20 -49 -14q-45 20 -35 57q10 39 0 72q-12 16 -23 20q-10 4 -20 35zM838 754l20 -4z " />
<glyph unicode="&#x2011;" d="M72 770q10 33 28 43q20 10 52 16q12 6 24 11q12 6 27 6q20 -4 37 -4q16 -2 36 2q180 27 363 26q-170 -6 -137 -2q35 2 137 2q53 0 111 -6q57 -4 108 8q23 8 33 29q8 23 31 31q31 6 51 -17q18 -20 18 -49q2 -45 -6 -90t-14 -90q-2 -23 -4 -47q0 -23 -17 -41 q-16 -16 -41 -16q-25 -2 -41 14q-6 8 -10 16t-12 15q-12 4 -27 0q-16 -2 -26 -4q-47 -6 -93 -5q-45 4 -92 3q-53 -2 -108 -5q-53 -4 -109 -2q-37 4 -74 9q-37 6 -71 4q-29 -6 -47 -27q-16 -20 -49 -14q-45 20 -35 57q10 39 0 72q-12 16 -23 20q-10 4 -20 35zM838 754l20 -4z " />
<glyph unicode="&#x2012;" d="M72 770q10 33 28 43q20 10 52 16q12 6 24 11q12 6 27 6q20 -4 37 -4q16 -2 36 2q180 27 363 26q-170 -6 -137 -2q35 2 137 2q53 0 111 -6q57 -4 108 8q23 8 33 29q8 23 31 31q31 6 51 -17q18 -20 18 -49q2 -45 -6 -90t-14 -90q-2 -23 -4 -47q0 -23 -17 -41 q-16 -16 -41 -16q-25 -2 -41 14q-6 8 -10 16t-12 15q-12 4 -27 0q-16 -2 -26 -4q-47 -6 -93 -5q-45 4 -92 3q-53 -2 -108 -5q-53 -4 -109 -2q-37 4 -74 9q-37 6 -71 4q-29 -6 -47 -27q-16 -20 -49 -14q-45 20 -35 57q10 39 0 72q-12 16 -23 20q-10 4 -20 35zM838 754l20 -4z " />
<glyph unicode="&#x2013;" horiz-adv-x="1095" d="M143 420q2 59 50 67q47 8 96 5q113 0 225 -3q115 0 227 -2q39 4 99 7q61 2 84 -35q25 -70 -31 -78q-57 -10 -105 -10q-31 -2 -63 0h-63q-86 2 -173 2q-86 2 -172 2q-57 -4 -98 -2q-43 0 -76 47z" />
<glyph unicode="&#x2014;" horiz-adv-x="1130" d="M-55 430q4 6 4 12q2 8 6 13q8 12 25 16q14 4 26 6q41 10 84 10t84 5q63 6 127 12q63 4 127 10q39 4 82 2q41 -2 82 -2q131 0 260 14q-121 -10 -96 -10q25 2 96 10q43 4 96 9q53 4 94 -13q20 -10 27 -32q6 -23 0 -43q-12 -23 -35 -29t-43 -4q-88 0 -176 -8q82 6 66 6 t-66 -6q-131 -12 -262 -11q123 0 98 0h-98q-33 0 -66 2q-33 0 -63 -2q-72 -8 -143 -12l-144 -12q-12 -2 -26 0q-14 0 -27 -2q-49 -8 -92 -9q-45 0 -47 68z" />
<glyph unicode="&#x2018;" horiz-adv-x="1032" d="M387 862v49q16 63 62 152q45 88 92 137q35 29 67 12q33 -16 31 -61q-2 -18 -16 -37q-12 -18 -25 -33q-23 -37 -47 -73q-23 -39 -39 -78q-10 -31 -4 -64q4 -35 -12 -61q-20 -20 -52 -19q-31 2 -45 27q-10 23 -12 49z" />
<glyph unicode="&#x2019;" horiz-adv-x="935" d="M344 817q33 47 70 98q37 53 51 109q4 37 -8 78t12 72q29 27 59 12q31 -14 41 -47q18 -51 15 -107q-4 -55 -29 -104q-20 -41 -49 -86t-60 -80q-41 -37 -71 -17q-29 20 -31 72z" />
<glyph unicode="&#x201c;" horiz-adv-x="1009" d="M223 791q2 25 2 45q8 37 13 75q6 39 16 78q14 41 31 80q18 37 34 76q25 45 70 39t47 -62q-2 -23 -16 -45q-12 -23 -23 -43q-12 -31 -24 -61q-12 -31 -21 -62q-6 -37 -6 -88q2 -51 -8 -82q-18 -35 -55 -32q-37 4 -54 39q-8 18 -6 43zM543 850q6 27 8 55q4 27 10 56 q14 53 45 98q29 43 64 86q33 37 75 24q43 -14 35 -67q-4 -14 -18 -29q-12 -12 -23 -22q-20 -25 -39 -58q-16 -31 -26 -61q-8 -33 -8 -80q-2 -49 -21 -74q-14 -16 -35 -20q16 6 15 4q-4 0 -15 -4q-43 -8 -57 24q-12 33 -10 68z" />
<glyph unicode="&#x201d;" horiz-adv-x="956" d="M223 864q12 39 29 74q16 37 22 78q0 35 -8 76q-10 39 0 73q20 39 58 35q35 -4 53 -41q12 -35 14 -90q0 -55 -4 -92q-4 -35 -25 -90q-20 -55 -45 -80q-37 -29 -63 -6q-29 25 -31 63zM522 803q18 61 45 123q27 59 35 125q2 27 2 59q0 33 10 57q16 33 56 35q39 4 53 -35 q6 -25 4 -51q0 -27 -4 -51q-8 -66 -29 -129q-23 -63 -47 -123q-4 -10 -6 -22q-2 -10 -6 -21q-25 -47 -66 -33q-43 12 -47 66z" />
<glyph unicode="&#x2026;" horiz-adv-x="997" d="M49 119q39 96 148 98q106 4 108 -113q-4 -20 -26 -63q-23 -41 -39 -53q-12 -4 -25 -4q-14 0 -27 2q-63 0 -100 34q-37 35 -39 99zM346 131q16 57 70 88q51 29 108 6q20 -12 31 -35q12 -25 20 -45q10 -18 23 -32q12 -12 10 -37q-6 -33 -37 -49t-61 -21q-72 -10 -117 21 q-45 29 -47 104zM684 90q18 68 70 105q53 39 120 0q23 -14 33 -35q10 -20 19 -43q8 -14 16 -25q6 -10 6 -29q-6 -35 -30 -45q-27 -10 -58 -16q-57 -12 -108 8q-49 20 -68 80z" />
<glyph unicode="&#x202f;" horiz-adv-x="361" />
<glyph unicode="&#x205f;" horiz-adv-x="451" />
<glyph unicode="&#x25fc;" horiz-adv-x="1085" d="M0 0v1085h1085v-1085h-1085z" />
</font>
</defs>
</svg>
