<?xml version="1.0" standalone="no"?>
<!DOCTYPE svg PUBLIC "-//W3C//DTD SVG 1.1//EN" "http://www.w3.org/Graphics/SVG/1.1/DTD/svg11.dtd" >
<svg>
<metadata>
Created by FontForge 20090914 at Mon Jan 28 08:35:14 2019
 By www-data
Copyright (c) 2019 by Creative LAB. All rights reserved.
</metadata>
<defs>
<font id="AselineScript" horiz-adv-x="334" >
  <font-face 
    font-family="Aseline Script"
    font-weight="400"
    font-stretch="normal"
    units-per-em="1000"
    panose-1="2 0 5 3 4 0 0 2 0 3"
    ascent="750"
    descent="-250"
    x-height="454.496"
    cap-height="732"
    bbox="-836.176 -399.515 1255.07 940.383"
    underline-thickness="50"
    underline-position="-50"
    unicode-range="U+000D-U+E09B"
  />
<missing-glyph horiz-adv-x="170" 
 />
    <glyph glyph-name=".notdef" horiz-adv-x="170" 
 />
    <glyph glyph-name="NULL" horiz-adv-x="0" 
 />
    <glyph glyph-name="NULL" horiz-adv-x="0" 
 />
    <glyph glyph-name="nonmarkingreturn" unicode="&#xd;" horiz-adv-x="170" 
 />
    <glyph glyph-name="space" unicode=" " horiz-adv-x="170" 
 />
    <glyph glyph-name="exclam" unicode="!" horiz-adv-x="384" 
d="M107 87c8.66699 0 16.5 -2.5 23.5 -7.5s12.167 -11.167 15.5 -18.5s4.33301 -15 3 -23s-5.66602 -15.333 -12.999 -22c-6.66699 -7.33301 -14 -11.5 -22 -12.5s-15.667 0 -23 3s-13.5 8 -18.5 15s-7.5 15.5 -7.5 25.5c0 12 3.66699 21.667 11 29s17.666 11 30.999 11z
M330 638l-3.99902 -10.5l-4 -11.5c-6.66699 -18.667 -14.667 -42.667 -24 -72l-30 -95l-32.5 -104l-30 -97.5l-23.5 -76c-6.66699 -21 -10.667 -34.167 -12 -39.5s-6.33301 -9.5 -15 -12.5s-17.834 -4.5 -27.501 -4.5s-17.667 1.5 -24 4.5s-7.83301 8.5 -4.5 16.5
l42.5 121.5l46 130.5l47.5 130.5c16 43 32 83.167 48 120.5z" />
    <glyph glyph-name="quotedbl" unicode="&#x22;" horiz-adv-x="461" 
d="M264 488c-16 4.66699 -27.168 11.5 -33.501 20.5s-9 18.167 -8 27.5s5.16699 17.5 12.5 24.5s17 10.5 29 10.5c19.333 0 32.166 -7.5 38.499 -22.5s6.33301 -32.333 0 -52s-18.666 -39.167 -36.999 -58.5s-42.5 -33.333 -72.5 -42c-8 0 -13.667 2.66699 -17 8
s-1.66602 10 5.00098 14c6.66699 2 14.5 4.5 23.5 7.5s17.5 7.33301 25.5 13s15.167 12.5 21.5 20.5s10.5 17.667 12.5 29zM146.999 488c-16 4.66699 -27.168 11.5 -33.501 20.5s-9 18.167 -8 27.5s5.16699 17.5 12.5 24.5s17 10.5 29 10.5
c19.333 0 32.166 -7.5 38.499 -22.5s6.33301 -32.333 0 -52s-18.666 -39.167 -36.999 -58.5s-42.5 -33.333 -72.5 -42c-8 0 -13.667 2.66699 -17 8s-1.66602 10 5.00098 14c6.66699 2 14.5 4.5 23.5 7.5s17.5 7.33301 25.5 13s15.167 12.5 21.5 20.5s10.5 17.667 12.5 29z
" />
    <glyph glyph-name="numbersign" unicode="#" horiz-adv-x="583" 
d="M481 350c6 0 10.3281 -2 12.9951 -6s3.83398 -8.5 3.50098 -13.5s-2 -9.5 -5 -13.5s-6.83301 -6 -11.5 -6c-16.667 2.66699 -32.667 5 -48 7s-31 3 -47 3c-4 -14.667 -8.83301 -28.5 -14.5 -41.5s-10.5 -26.833 -14.5 -41.5c21.333 -2.66699 42 -4.33398 62 -5.00098
s40.667 -2 62 -4c6 0 10.333 -2 13 -6s3.83398 -8.16699 3.50098 -12.5s-2 -8.5 -5 -12.5s-6.83301 -6 -11.5 -6c-23.333 2.66699 -46.333 5 -69 7s-45 3.66699 -67 5l-37 -102c-2.66699 -5.33301 -6.33398 -8.66602 -11.001 -9.99902s-9 -1.33301 -13 0s-7.16699 4 -9.5 8
s-2.5 8.66699 -0.5 14l34 95c-14.667 0 -28.667 0.666992 -42 2s-27.333 3.33301 -42 6l-42 -115c-2 -5.33301 -5.16699 -8.66602 -9.5 -9.99902s-8.5 -1.33301 -12.5 0s-7.16699 4 -9.5 8s-2.5 8.66699 -0.5 14l37 103l-88 9c-5.33301 0.666992 -9 3 -11 7
s-2.66699 8.16699 -2 12.5s2.5 8.16602 5.5 11.499s7.16699 5 12.5 5l95 -7c6 12.667 11.333 25.834 16 39.501s9.33398 26.5 14.001 38.5l-130 12c-5.33301 1.33301 -9 4 -11 8s-2.66699 8.16699 -2 12.5s2.5 8.16602 5.5 11.499s7.16699 5 12.5 5l136 -12l19 49.5
c6 16.333 12.667 33.166 20 50.499c2 6 5.16699 9.83301 9.5 11.5s8.5 1.83398 12.5 0.500977s7.16699 -3.83301 9.5 -7.5s2.5 -7.83398 0.5 -12.501c-6.66699 -17.333 -12.167 -34.166 -16.5 -50.499s-9.5 -31.166 -15.5 -44.499
c14.667 -2.66699 28.834 -4.33398 42.501 -5.00098s26.834 -2 39.501 -4c8.66699 18 16 36.333 22 55s12.667 37.667 20 57c2 6 5.16699 9.83301 9.5 11.5s8.5 1.83398 12.5 0.500977s7.16699 -3.83301 9.5 -7.5s2.5 -7.83398 0.5 -12.501
c-6 -19.333 -12.167 -37.5 -18.5 -54.5s-12.166 -35.167 -17.499 -54.5c14.667 0 29 -0.5 43 -1.5s27 -1.5 39 -1.5zM349.995 324c-13.333 0 -27.1631 1.00195 -41.4961 3.00195l-43.5 6c-3.33301 -14.667 -7.83301 -29 -13.5 -43s-10.167 -27 -13.5 -39
c13.333 -2.66699 26.666 -4.33398 39.999 -5.00098s26.666 -2.33398 39.999 -5.00098c7.33301 15.333 13.166 29.5 17.499 42.5s9.16602 26.5 14.499 40.5z" />
    <glyph glyph-name="dollar" unicode="$" horiz-adv-x="459" 
d="M112 187c7.33301 6 12.835 6.16406 16.502 0.49707s3.5 -11.5 -0.5 -17.5c-13.333 -12 -22 -25.5 -26 -40.5s-4.83301 -29.5 -2.5 -43.5s7.33301 -26.333 15 -37s16.667 -17.5 27 -20.5s21.666 -1.16699 33.999 5.5s24.5 20.334 36.5 41.001
c13.333 21.333 19.666 44.833 18.999 70.5s-4.33398 53.5 -11.001 83.5l-3 -13l-26.5 -75c-8.33301 -24.667 -17.833 -50.667 -28.5 -78c-4.66699 -8.66699 -11.667 -13 -21 -13c-4 2 -7 5 -9 9s-1.66699 7.66699 1 11l58 159c2 8 5 16.667 9 26l12 27
c-6.66699 24.667 -12.334 49.334 -17.001 74.001s-7 48.667 -7 72s3.33301 43.166 10 59.499s15.5 29.333 26.5 39s23.333 16.5 37 20.5s27.5 5.33301 41.5 4c2.66699 4 4.83398 8.83301 6.50098 14.5s3.83398 11.834 6.50098 18.501c1.33301 4.66699 3.83301 8 7.5 10
s7.83398 1.66699 12.501 -1c4.66699 0 7.66699 -1.83301 9 -5.5s1.33301 -7.5 0 -11.5c-2.66699 -6 -5 -12 -7 -18s-4 -11.333 -6 -16c10.667 -6 19.667 -13.167 27 -21.5s12.333 -17.5 15 -27.5c4 -17.333 2.16699 -36.666 -5.5 -57.999s-24.167 -44.666 -49.5 -69.999
c-2 -3.33301 -4.33301 -4.83301 -7 -4.5s-5 1.5 -7 3.5s-3.33301 4.5 -4 7.5s0 6.16699 2 9.5c22.667 21.333 37.5 40.833 44.5 58.5s8.83301 33.167 5.5 46.5c-2.66699 7.33301 -6.66699 13.833 -12 19.5s-11 9.83398 -17 12.501l-32 -95
c-10.667 -32.667 -22.334 -64.334 -35.001 -95.001c6 -28 11.833 -57.333 17.5 -88s8.16699 -60.334 7.5 -89.001s-5.5 -55.5 -14.5 -80.5s-24.833 -45.833 -47.5 -62.5c-16 -12.667 -35.333 -17.167 -58 -13.5s-42 14.167 -58 31.5c-10 10.667 -17.333 23.167 -22 37.5
s-6.66699 29 -6 44s4 29.5 10 43.5s14.667 26 26 36zM295.002 512.997c-14.667 -3.33301 -26.499 -12.6689 -35.499 -28.002s-13.5 -33.666 -13.5 -54.999v-20.5c0 -8.33301 0.666992 -16.166 2 -23.499l22 64.5c7.33301 21 15.666 41.833 24.999 62.5z" />
    <glyph glyph-name="percent" unicode="%" horiz-adv-x="599" 
d="M375 569c2.66699 4.66699 6.17383 8.6709 10.5068 12.0039s9.16602 4 14.499 2c4.66699 -1.33301 7.83398 -4.33301 9.50098 -9s1.16699 -9 -1.5 -13l-104 -304l-99 -272c-2 -4 -5.33301 -6.5 -10 -7.5s-9 -0.833008 -13 0.5s-7.16699 3.66602 -9.5 6.99902
s-2.5 7.33301 -0.5 12c29.333 74 57.166 150.5 83.499 229.5s53.5 155.833 81.5 230.5c-7.33301 -6.66699 -14.333 -12 -21 -16s-14.334 -8.33301 -23.001 -13c-10.667 -4 -20.834 -6.33301 -30.501 -7s-18.834 -1 -27.501 -1c-17.333 -20.667 -35.333 -35 -54 -43
s-35 -10.167 -49 -6.5s-24.5 12.834 -31.5 27.501s-7.83301 34.334 -2.5 59.001c3.33301 16.667 9 33.167 17 49.5s18 30.166 30 41.499s25.667 19.666 41 24.999s31.666 5.66602 48.999 0.999023c5.33301 -3.33301 7.33301 -7.5 6 -12.5s-3.33301 -9.16699 -6 -12.5
c-14.667 -6 -28.334 -15.833 -41.001 -29.5s-23.167 -28 -31.5 -43s-14.333 -29.333 -18 -43s-4 -23.834 -1 -30.501s9.83301 -8.16699 20.5 -4.5s26 15.167 46 34.5c-12 10.667 -17.5 23.334 -16.5 38.001s5.5 28.167 13.5 40.5s17.667 21.833 29 28.5s21.666 7 30.999 1
c8 -5.33301 12.167 -12.333 12.5 -21s-1 -17.834 -4 -27.501s-7 -19 -12 -28l-11.5 -20.5c18 0 36.5 6.16699 55.5 18.5s34.833 27.166 47.5 44.499c9.33301 20 16 40.667 20 62zM478.007 194.004c-0.666992 -3.33301 -2.1582 -5.49316 -4.49121 -6.49316
s-5.83301 -2.16699 -10.5 -3.5s-10.334 -3.66602 -17.001 -6.99902s-14.667 -9 -24 -17c-16.667 -14.667 -28.834 -29.334 -36.501 -44.001s-12.167 -27.834 -13.5 -39.501s-0.333008 -21.334 3 -29.001s7.66602 -11.834 12.999 -12.501c6 -2 14.167 -0.666992 24.5 4
s20.833 11.834 31.5 21.501s20.5 21.167 29.5 34.5s15.167 27.666 18.5 42.999c1.33301 6.66699 1.66602 12 0.999023 16s-4 6 -10 6c-8.66699 -2.66699 -15.334 -7.5 -20.001 -14.5s-9.33398 -13.5 -14.001 -19.5c-0.666992 -3.33301 -2.33398 -5.33301 -5.00098 -6
s-5.16699 -0.5 -7.5 0.5s-4.5 2.66699 -6.5 5s-2.33301 4.83301 -1 7.5c4 11.333 10.167 22 18.5 32s18.5 15 30.5 15c17.333 2 28.5 -2 33.5 -12s6.5 -21.667 4.5 -35c-2.66699 -12.667 -8.33398 -26.5 -17.001 -41.5s-19.167 -28.833 -31.5 -41.5
s-25.666 -23.167 -39.999 -31.5s-28.833 -12.5 -43.5 -12.5c-18 0 -31.167 5.83301 -39.5 17.5s-12.833 26 -13.5 43s2.5 35.167 9.5 54.5s17 36.666 30 51.999s28.333 27.166 46 35.499s37.5 10.166 59.5 5.49902c1.33301 -2.66699 2.66602 -5.83398 3.99902 -9.50098
s0.666016 -7.16699 -2.00098 -10.5zM225.016 449.011c3.33301 4 7 9.16699 11 15.5s7.5 13 10.5 20s5.33301 13.667 7 20s1.83398 11.5 0.500977 15.5c-0.666992 4.66699 -4.16699 5 -10.5 1s-12.333 -10.167 -18 -18.5s-9.33398 -17.5 -11.001 -27.5
s1.83301 -18.667 10.5 -26z" />
    <glyph glyph-name="ampersand" unicode="&#x26;" horiz-adv-x="674" 
d="M388 166c-16 -2.66699 -31.665 -1.66895 -46.998 2.99805s-29.5 11.834 -42.5 21.501s-24.833 21 -35.5 34s-19.667 26.5 -27 40.5c-25.333 -12 -44.5 -25.833 -57.5 -41.5s-21.333 -31.834 -25 -48.501s-3.33398 -33.5 0.999023 -50.5s11.666 -32.333 21.999 -46
s23.166 -25.167 38.499 -34.5s31.666 -15.333 48.999 -18c22.667 -2 43.667 1.83301 63 11.5s36.333 22.5 51 38.5s26.334 34 35.001 54s13.5 40 14.5 60s-2.16699 38.5 -9.5 55.5s-20 30.167 -38 39.5c-1.33301 0 -2.83301 1.5 -4.5 4.5s-1.16699 7.16699 1.5 12.5
c1.33301 2 3.33301 3.66699 6 5s5.66699 1 9 -1c23.333 -10.667 40.833 -27.667 52.5 -51s15.834 -47.333 12.501 -72c-4.66699 -31.333 -13.167 -58.666 -25.5 -81.999s-27.166 -42.666 -44.499 -57.999s-37 -26.666 -59 -33.999s-44.667 -10.333 -68 -9
c-23.333 0.666992 -45 5.33398 -65 14.001s-37.333 20.167 -52 34.5s-26.334 31 -35.001 50s-13 39.833 -13 62.5c0 20.667 3 38.667 9 54s14.333 29.166 25 41.499s23 23.5 37 33.5s28.667 19.667 44 29c-10 29.333 -17.167 61 -21.5 95s-2.16602 65.667 6.50098 95
c6 22 16.5 40.167 31.5 54.5s31.5 24.166 49.5 29.499s36.333 5.33301 55 0s35 -16.666 49 -33.999c20 -24.667 30.5 -51 31.5 -79s-4.83301 -55 -17.5 -81s-31.167 -49.833 -55.5 -71.5s-51.833 -38.5 -82.5 -50.5c6.66699 -12 14.667 -24.333 24 -37
s19.666 -24.334 30.999 -35.001s23.5 -19.667 36.5 -27s26.5 -11.333 40.5 -12zM210.002 412.998c2 -14.667 4.83008 -28.998 8.49707 -42.998s7.83398 -27 12.501 -39c24.667 12 48.5 25.833 71.5 41.5s40.833 35.167 53.5 58.5c8 15.333 13 32.666 15 51.999
s-1.66699 37.666 -11 54.999c-10 20 -24.667 31.667 -44 35s-37.666 -0.666992 -54.999 -12s-31.666 -29.5 -42.999 -54.5s-14 -56.167 -8 -93.5z" />
    <glyph glyph-name="quotesingle" unicode="'" horiz-adv-x="356" 
d="M190 483c-15.333 4.66699 -26.333 11.5 -33 20.5s-9.83398 18.167 -9.50098 27.5s3.83301 17.5 10.5 24.5s15.667 10.5 27 10.5c20 0 33.5 -7.5 40.5 -22.5s7.5 -32.333 1.5 -52s-18.167 -39.167 -36.5 -58.5s-43.166 -33.333 -74.499 -42c-8 0 -13.667 2.66699 -17 8
s-2.33301 10 3 14c7.33301 2 15.5 4.5 24.5 7.5s17.667 7.33301 26 13s15.833 12.5 22.5 20.5s11.667 17.667 15 29z" />
    <glyph glyph-name="parenleft" unicode="(" horiz-adv-x="259" 
d="M205 22c3.33301 0 5.99707 -0.996094 7.99707 -2.99609s3 -4.33301 3 -7s-1 -5.16699 -3 -7.5s-5.33301 -3.83301 -10 -4.5c-28.667 -0.666992 -51.334 9 -68.001 29s-28.5 46 -35.5 78s-9.66699 68.5 -8 109.5s6.33398 82.167 14.001 123.5s18.167 81 31.5 119
s28 70.667 44 98s33.167 47 51.5 59s36.5 12.667 54.5 2c5.33301 -3.33301 7.33301 -8.5 6 -15.5s-6.66602 -9.16699 -15.999 -6.5c-10.667 1.33301 -22 -5.83398 -34 -21.501s-23.667 -36.5 -35 -62.5s-22 -56 -32 -90s-18.167 -68.833 -24.5 -104.5
s-10.666 -70.834 -12.999 -105.501s-1.66602 -65.834 2.00098 -93.501s10.667 -50.334 21 -68.001s24.833 -27.167 43.5 -28.5z" />
    <glyph glyph-name="parenright" unicode=")" horiz-adv-x="223" 
d="M34 603c-3.33301 0 -5.99902 0.996094 -7.99902 2.99609s-3 4.33301 -3 7s1 5.16699 3 7.5s5.33301 3.83301 10 4.5c28.667 0.666992 51.334 -9 68.001 -29s28.5 -46 35.5 -78s9.66699 -68.5 8 -109.5s-6.33398 -82.167 -14.001 -123.5s-18.167 -81 -31.5 -119
s-28 -70.667 -44 -98s-33.167 -47 -51.5 -59s-36.5 -12.667 -54.5 -2c-5.33301 3.33301 -7.33301 8.5 -6 15.5s6.66602 9.16699 15.999 6.5c10.667 -1.33301 22 5.83398 34 21.501s23.667 36.5 35 62.5s21.833 56 31.5 90s17.834 68.833 24.501 104.5
s11.167 70.834 13.5 105.501s1.66602 65.834 -2.00098 93.501s-10.667 50.334 -21 68.001s-24.833 27.167 -43.5 28.5z" />
    <glyph glyph-name="asterisk" unicode="*" horiz-adv-x="294" 
d="M185 545c2 3.33301 4.16895 4.99902 6.50195 4.99902s4.5 -1 6.5 -3s3.33301 -4.66699 4 -8s0 -6.66602 -2 -9.99902l-29 -24h38c4 0 7.16699 -1.33301 9.5 -4s3.5 -5.5 3.5 -8.5s-1.16699 -5.83301 -3.5 -8.5s-5.5 -4 -9.5 -4h-38l29 -25
c2 -3.33301 2.66699 -6.5 2 -9.5s-2 -5.66699 -4 -8s-4.16699 -3.66602 -6.5 -3.99902s-4.5 1.16699 -6.5 4.5l-29 25v-37c0 -4 -1.33301 -7.16699 -4 -9.5s-5.66699 -3.5 -9 -3.5s-6.33301 1.16699 -9 3.5s-4 5.5 -4 9.5v37l-24 -25c-6.66699 -6 -12.667 -6.16699 -18 -0.5
s-5.33301 11.5 0 17.5l26 25h-37c-4.66699 0 -8.16699 1.33301 -10.5 4s-3.5 5.5 -3.5 8.5s1.16699 5.83301 3.5 8.5s5.83301 4 10.5 4h37l-26 24c-2.66699 3.33301 -3.83398 6.66602 -3.50098 9.99902s1.5 6 3.5 8s4.66699 3 8 3s6.66602 -1.66699 9.99902 -5l24 -24v37
c0 4 1.33301 7 4 9s5.66699 3 9 3s6.33301 -1 9 -3s4 -5 4 -9v-37z" />
    <glyph glyph-name="plus" unicode="+" horiz-adv-x="410" 
d="M186 368c0 5.33301 1.5 10 4.5 14s6.83301 6 11.5 6c4 0 7.83301 -2 11.5 -6s5.5 -8.66699 5.5 -14v-92h91c6 0 10.667 -1.16699 14 -3.5s5 -7.16602 5 -14.499c0 -3.33301 -1.66699 -6.66602 -5 -9.99902s-8 -5 -14 -5h-91v-92c0 -3.33301 -1.83301 -6.83301 -5.5 -10.5
s-7.5 -5.5 -11.5 -5.5c-4.66699 0 -8.5 1.83301 -11.5 5.5s-4.5 7.16699 -4.5 10.5v92h-92c-4 0 -7.5 1.66699 -10.5 5s-4.5 6.66602 -4.5 9.99902c0 7.33301 1.5 12.166 4.5 14.499s6.5 3.5 10.5 3.5h92v92z" />
    <glyph glyph-name="comma" unicode="," horiz-adv-x="285" 
d="M155 91c-16 4.66699 -27.1699 11.501 -33.5029 20.501s-9.16602 18.167 -8.49902 27.5s4.33398 17.5 11.001 24.5s15.334 10.5 26.001 10.5c19.333 0 32.5 -7.5 39.5 -22.5s7.5 -32.333 1.5 -52s-18.333 -39.167 -37 -58.5s-43.667 -33.333 -75 -42
c-6 0 -11 2.66699 -15 8s-3 10 3 14c16 3.33301 32.833 10.166 50.5 20.499s30.167 26.833 37.5 49.5z" />
    <glyph glyph-name="hyphen" unicode="-" horiz-adv-x="475" 
d="M91 240c-4 0 -7.83301 1.66699 -11.5 5s-5.5 6.66602 -5.5 9.99902c0 7.33301 1.83301 12.166 5.5 14.499s7.5 3.5 11.5 3.5h219c4.66699 0 8.5 -1.16699 11.5 -3.5s4.5 -7.16602 4.5 -14.499c0 -3.33301 -1.5 -6.66602 -4.5 -9.99902s-6.83301 -5 -11.5 -5h-219z" />
    <glyph glyph-name="period" unicode="." horiz-adv-x="402" 
d="M179 86c8.66699 0 16.333 -2.50098 23 -7.50098s11.334 -11 14.001 -18s3.5 -14.667 2.5 -23s-4.5 -15.5 -10.5 -21.5c-6.66699 -7.33301 -14.167 -11.666 -22.5 -12.999s-16 -0.5 -23 2.5s-13 8 -18 15s-7.5 15.167 -7.5 24.5c0 12.667 3.66699 22.667 11 30
s17.666 11 30.999 11z" />
    <glyph glyph-name="slash" unicode="/" horiz-adv-x="415" 
d="M394 725c4 4 8.66699 6.50195 14 7.50195s10 0.5 14 -1.5s6.83301 -5 8.5 -9s0.833984 -9 -2.49902 -15l-84.5 -168.5l-91 -186.5l-87.5 -183.5l-75 -159.5c-2.66699 -5.33301 -6.83398 -8.5 -12.501 -9.5s-11.167 -0.833008 -16.5 0.5s-9.5 3.83301 -12.5 7.5
s-2.83301 8.16699 0.5 13.5c17.333 31.333 35.5 66.166 54.5 104.499l59 120l61 127.5l60.5 127.5l57.5 120c18.333 38.333 35.833 73.166 52.5 104.499z" />
    <glyph glyph-name="zero" unicode="0" horiz-adv-x="380" 
d="M339 414c-4 57.333 -13.665 97.6611 -28.998 120.994s-33 33 -53 29s-41.167 -19.833 -63.5 -47.5s-42.5 -63.5 -60.5 -107.5c-8 -17.333 -15.167 -38.833 -21.5 -64.5s-11.5 -52.5 -15.5 -80.5s-6.33301 -55.833 -7 -83.5s1.33301 -52.167 6 -73.5
s12.5 -38.166 23.5 -50.499s25.5 -17.5 43.5 -15.5c22 2.66699 41.833 11.334 59.5 26.001s33.167 32.834 46.5 54.501s24.666 45.834 33.999 72.501s16.833 53.334 22.5 80.001s9.66699 52.334 12 77.001s3.16602 45.667 2.49902 63zM75.002 432.995
c14 36 30.4971 66.666 49.4971 91.999s38.833 44.5 59.5 57.5s41.167 19.5 61.5 19.5s38.5 -6.66699 54.5 -20s29.167 -33.833 39.5 -61.5s15.833 -63.167 16.5 -106.5c2.66699 -40 0.333984 -80.5 -6.99902 -121.5s-17.666 -78.833 -30.999 -113.5
c-21.333 -56 -47.5 -98 -78.5 -126s-61.167 -41.5 -90.5 -40.5s-54.833 16.833 -76.5 47.5s-33.5 76.334 -35.5 137.001c-2.66699 38.667 -0.166992 78.667 7.5 120s17.834 80 30.501 116z" />
    <glyph glyph-name="one" unicode="1" horiz-adv-x="240" 
d="M244 560l-40.999 -127.499l-47 -147l-48 -148l-43 -130.5c0 0.666992 -2 0.666992 -6 0s-9 -1.83398 -15 -3.50098s-12.333 -3.16699 -19 -4.5s-12.334 -2 -17.001 -2c-10 0 -15 3 -15 9c0 2.66699 0.333008 4.66699 1 6l46.5 128.5l52.5 146l53 145.5l47 128h51z" />
    <glyph glyph-name="two" unicode="2" horiz-adv-x="461" 
d="M424 91c2.66699 1.33301 5.33594 1.99805 8.00293 1.99805c3.33301 0 6.5 -1.5 9.5 -4.5s4.5 -6.16699 4.5 -9.5c0 -1.33301 -0.666992 -3.33301 -2 -6c-28 -33.333 -55.333 -56.333 -82 -69s-52.667 -19 -78 -19s-49.333 4.5 -72 13.5s-43.667 18.833 -63 29.5
c-13.333 -9.33301 -27.5 -16.5 -42.5 -21.5s-29.167 -7.5 -42.5 -7.5c-12.667 0 -24.334 3.33301 -35.001 10s-16 17.334 -16 32.001c2.66699 14 10.334 25 23.001 33s27 12 43 12c6.66699 0 13.667 -1.66699 21 -5s14 -7.33301 20 -12c25.333 20.667 52.166 47 80.499 79
s54.5 66.5 78.5 103.5s43.833 74.5 59.5 112.5s23.5 73.667 23.5 107c0 27.333 -6 48.333 -18 63s-26.333 22 -43 22c-18.667 0 -37.5 -9.83301 -56.5 -29.5s-34.167 -50.5 -45.5 -92.5c-2 -6 -6 -9 -12 -9c-10 0 -15 5.33301 -15 16c6.66699 24.667 15.667 46 27 64
s23.833 33 37.5 45s28 20.833 43 26.5s29.833 8.5 44.5 8.5c28.667 0 53.5 -10 74.5 -30s31.5 -49 31.5 -87c0 -22.667 -4 -47.167 -12 -73.5s-18.667 -53.166 -32 -80.499s-28.833 -54.333 -46.5 -81s-35.834 -52 -54.501 -76s-37.5 -45.667 -56.5 -65
s-36.5 -35.333 -52.5 -48c15.333 -9.33301 32.166 -17.5 50.499 -24.5s37.5 -10.5 57.5 -10.5c22 0 44.833 5.83301 68.5 17.5s47.5 33.167 71.5 64.5zM100.002 56.998c-9.33301 4.66699 -18.666 7.00098 -27.999 7.00098c-11.333 0 -20.166 -2.83301 -26.499 -8.5
s-9.5 -10.834 -9.5 -15.501c0 -5.33301 3.66699 -8 11 -8c5.33301 0 12.166 1.83301 20.499 5.5s19.166 10.167 32.499 19.5z" />
    <glyph glyph-name="three" unicode="3" horiz-adv-x="413" 
d="M166 411c2.66699 -3.33301 2.83203 -6.32715 0.499023 -8.99414s-4.83301 -4 -7.5 -4c-4.66699 0 -8 1.16699 -10 3.5s-3 4.83301 -3 7.5c-4.66699 40.667 0 74.5 14 101.5s31.667 46.833 53 59.5c24.667 14.667 48 21.167 70 19.5s41 -8.83398 57 -21.501
s28.5 -29.667 37.5 -51s12.833 -44.5 11.5 -69.5s-8.83301 -50.5 -22.5 -76.5s-34.5 -50 -62.5 -72c11.333 -10 20.5 -22 27.5 -36s12 -28.833 15 -44.5s4 -31.834 3 -48.501s-3.83301 -33 -8.5 -49c-9.33301 -32 -24.833 -57.833 -46.5 -77.5s-45.834 -33 -72.501 -40
s-53.5 -8 -80.5 -3s-50.167 16.5 -69.5 34.5c-21.333 17.333 -36.666 40.333 -45.999 69s-8 64 4 106c0 1.33301 1.5 2.83301 4.5 4.5s5.83301 2.5 8.5 2.5c4.66699 -2 7.66699 -4 9 -6s1.33301 -5.66699 0 -11c-8.66699 -33.333 -10 -62.833 -4 -88.5
s19.333 -45.834 40 -60.501c20.667 -14 41 -20.667 61 -20s38.5 6.5 55.5 17.5s31.833 25.667 44.5 44s22 38.166 28 59.499s8.5 43.166 7.5 65.499s-7.16699 42.833 -18.5 61.5c-12 -5.33301 -25.833 -9 -41.5 -11s-30.834 -1.33301 -45.501 2
c-13.333 2 -23.166 7.16699 -29.499 15.5s-9.16602 17 -8.49902 26s5.16699 17 13.5 24s20.5 10.5 36.5 10.5c13.333 0 26.166 -1.66699 38.499 -5s24.5 -7.33301 36.5 -12c20 17.333 34.833 35.833 44.5 55.5s15.334 39.167 17.001 58.5s0 37.166 -5 53.499
s-12.333 29.833 -22 40.5s-21 17.5 -34 20.5s-26.833 0.5 -41.5 -7.5c-18.667 -11.333 -33.5 -28.333 -44.5 -51s-15.833 -52 -14.5 -88zM241.998 309.006c-4 2.66699 -10.333 5.16797 -19 7.50098s-17.167 3.66602 -25.5 3.99902s-15.833 -0.333984 -22.5 -2.00098
s-10.334 -4.83398 -11.001 -9.50098c0 -5.33301 2.83301 -9.66602 8.5 -12.999s10.834 -5 15.501 -5c12.667 -1.33301 22.667 -0.166016 30 3.50098s15.333 8.5 24 14.5z" />
    <glyph glyph-name="four" unicode="4" horiz-adv-x="442" 
d="M428 577c-15.333 -96.667 -33.002 -191.333 -53.002 -284l-61 -281c-1.33301 -5.33301 -6.33301 -9.33301 -15 -12s-17.667 -4 -27 -4c-7.33301 0 -14 1 -20 3s-9 5.66699 -9 11v2l62 295c-14 0 -28.667 0.666992 -44 2s-31 2 -47 2c-9.33301 0 -18 0.166992 -26 0.5
s-15.667 1.83301 -23 4.5c-21.333 -14.667 -40.833 -25.834 -58.5 -33.501s-33.167 -11.5 -46.5 -11.5c-5.33301 0 -10.833 0.166992 -16.5 0.5s-11 1.5 -16 3.5s-9.16699 4.83301 -12.5 8.5s-5 8.83398 -5 15.501c0 10.667 5.83301 18.5 17.5 23.5
s24.834 8.66699 39.501 11s28.5 3.83301 41.5 4.5s20.5 1.66699 22.5 3c28.667 18 54 35.833 76 53.5s41.833 36 59.5 55s33.834 38.5 48.501 58.5s29 41.333 43 64c1.33301 2 4 4.33301 8 7s8.66699 5 14 7s11 3.83301 17 5.5s11.333 2.5 16 2.5
c10.667 0 16 -3.66699 16 -11c0 -1.33301 -0.166992 -2.33301 -0.5 -3s-0.5 -1.66699 -0.5 -3zM88.998 316.001c-4 0 -9 -0.333008 -15 -1s-11.833 -1.5 -17.5 -2.5s-10.5 -2.16699 -14.5 -3.5s-6 -3 -6 -5c0 -4.66699 2.33301 -7 7 -7c6 0 14 2.66699 24 8s17.333 9 22 11z
M341.998 482.001c-18.667 -30 -40.667 -57.167 -66 -81.5s-52 -45.833 -80 -64.5c19.333 -2.66699 39 -4.16699 59 -4.5s37.667 -0.5 53 -0.5z" />
    <glyph glyph-name="five" unicode="5" horiz-adv-x="426" 
d="M20 242c2 4 4.33398 6.33301 7.00098 7s5.66699 1 9 1c4.66699 0 7 -3 7 -9c0 -2 -0.666992 -4.33301 -2 -7c-8 -27.333 -12 -51 -12 -71c0 -22 3.33301 -41.167 10 -57.5s15.5 -30.166 26.5 -41.499s24 -19.833 39 -25.5s30.833 -8.5 47.5 -8.5
c22 0 42.667 4.83301 62 14.5s36.166 22.834 50.499 39.501s25.666 35.667 33.999 57s12.5 44 12.5 68c0 39.333 -13.667 70.666 -41 93.999s-68 35 -122 35h-78c-2.66699 -1.33301 -4.33398 -2 -5.00098 -2c-5.33301 0 -8 2.66699 -8 8c0 2 0.333008 3.66699 1 5
c2.66699 9.33301 6 21.833 10 37.5l13 51l14.5 55l14 50c4.33301 15 8.5 27.333 12.5 37s7 14.5 9 14.5c1.33301 0 2.66602 -0.666992 3.99902 -2l88.5 -19c31 -6.66699 61.833 -10 92.5 -10c13.333 0 26.5 0.833008 39.5 2.5s25.167 4.83398 36.5 9.50098
c1.33301 1.33301 2.66602 2 3.99902 2c3.33301 0 5.83301 -1.66699 7.5 -5s2.5 -6 2.5 -8c0 -4.66699 -3.66699 -8.5 -11 -11.5s-16.166 -5.5 -26.499 -7.5s-20.833 -3.33301 -31.5 -4s-19 -1 -25 -1c-21.333 0 -42.666 1.66699 -63.999 5s-42.333 7.66602 -63 12.999
l-27 -99.5c-9.33301 -33 -18 -66.5 -26 -100.5c9.33301 0.666992 18 1.16699 26 1.5s16.333 0.5 25 0.5c26.667 0 52 -2.66699 76 -8s45 -14 63 -26s32.167 -28 42.5 -48s15.5 -44.333 15.5 -73c0 -29.333 -4.83301 -56.333 -14.5 -81s-23.5 -46 -41.5 -64
s-39.5 -32.167 -64.5 -42.5s-52.5 -15.5 -82.5 -15.5c-27.333 0 -51.666 4.16699 -72.999 12.5s-39.166 19.666 -53.499 33.999s-25.333 31 -33 50s-11.5 39.167 -11.5 60.5c0 26 4.66699 53.667 14 83z" />
    <glyph glyph-name="six" unicode="6" horiz-adv-x="393" 
d="M386 410c-2 -8.66699 -6.99805 -12.9951 -14.998 -12.9951c-5.33301 3.33301 -8 8.33301 -8 15c0 3.33301 0.166992 6.66602 0.5 9.99902s0.5 6.66602 0.5 9.99902c0 39.333 -7.33301 68.5 -22 87.5s-32.667 28.5 -54 28.5c-12.667 0 -26.667 -4.33301 -42 -13
s-30.5 -20.834 -45.5 -36.501s-29.333 -34.667 -43 -57s-24.834 -47.166 -33.501 -74.499c16 4.66699 33 7 51 7c22 0 42.667 -4 62 -12s36.333 -19.333 51 -34s26.167 -32.334 34.5 -53.001s12.5 -43.334 12.5 -68.001c0 -32.667 -5.16699 -61.834 -15.5 -87.501
s-23.666 -47.167 -39.999 -64.5s-34.333 -30.666 -54 -39.999s-38.5 -14 -56.5 -14s-35.5 4 -52.5 12s-32.333 20.167 -46 36.5s-24.5 37.166 -32.5 62.499s-12 55 -12 89c0 47.333 7.16699 94 21.5 140s33.166 87 56.499 123s49.666 65 78.999 87s59 33 89 33
c16 0 31 -3 45 -9s26.333 -14.833 37 -26.5s19.167 -26.167 25.5 -43.5s9.5 -37 9.5 -59c0 -12 -1 -24 -3 -36zM117.002 339.005c-13.333 -47.333 -19.9971 -95.335 -19.9971 -144.002c0 -16.667 2 -34.5 6 -53.5s10 -36.667 18 -53s18 -29.833 30 -40.5s26 -16 42 -16
c14.667 0 29.167 5.33301 43.5 16s27.166 24.334 38.499 41.001s20.5 35.5 27.5 56.5s10.5 41.5 10.5 61.5c0 22.667 -3.83301 42.834 -11.5 60.501s-17.834 32.667 -30.501 45s-27.167 21.833 -43.5 28.5s-33.5 10 -51.5 10c-20.667 0 -40.334 -4 -59.001 -12z" />
    <glyph glyph-name="seven" unicode="7" horiz-adv-x="413" 
d="M110 497c8 0 11.998 -3.50293 11.998 -10.5029s-4 -10.5 -12 -10.5c-20 0 -35 5.83301 -45 17.5s-15.167 25 -15.5 40s4.16699 29.333 13.5 43s23.333 22.167 42 25.5c8 0 19.833 -1.16699 35.5 -3.5s32.834 -5.83301 51.501 -10.5c30 -6.66699 62.167 -12 96.5 -16
s67.166 -3 98.499 3c4.66699 0 8.16699 -2.5 10.5 -7.5s1.83301 -10.5 -1.5 -16.5c-20 -19.333 -40.167 -40.833 -60.5 -64.5s-40 -48 -59 -73s-37 -50.333 -54 -76s-31.833 -50.167 -44.5 -73.5c-19.333 -40 -35.166 -81.167 -47.499 -123.5
s-19.166 -84.166 -20.499 -125.499c0 -2.66699 -3.66699 -5.5 -11 -8.5s-15.333 -5.33301 -24 -7s-16.667 -1.83398 -24 -0.500977s-11 5 -11 11c1.33301 46 8 89.333 20 130s27 82 45 124c11.333 22.667 25 46.667 41 72s33 50.5 51 75.5l54.5 72.5
c18.333 23.333 35.833 44 52.5 62c-21.333 2.66699 -42 5.83398 -62 9.50098s-37.667 7.83398 -53 12.501c-19.333 2.66699 -36 5.16699 -50 7.5s-23.667 2.16602 -29 -0.500977c-12 -2 -21 -7.16699 -27 -15.5s-9 -17.166 -9 -26.499s3 -17.666 9 -24.999s15 -11 27 -11z
" />
    <glyph glyph-name="eight" unicode="8" horiz-adv-x="378" 
d="M154 455c0 -16 3.16504 -31.833 9.49805 -47.5s14.333 -30.667 24 -45s20.334 -27.666 32.001 -39.999s22.834 -23.5 33.501 -33.5c9.33301 10 18.333 23.167 27 39.5s16.667 33.166 24 50.499c14 34 20.167 63.333 18.5 88s-8 44.5 -19 59.5s-25 24.833 -42 29.5
s-33.5 4.16699 -49.5 -1.5s-29.667 -16.667 -41 -33s-17 -38.5 -17 -66.5zM157.998 310c-22.667 -19.333 -40.1689 -43 -52.502 -71s-19.5 -55.667 -21.5 -83s1.5 -52 10.5 -74s23.5 -36.667 43.5 -44c19.333 -8.66699 39.333 -9.66699 60 -3s38.834 18 54.501 34
s27.334 34.833 35.001 56.5s8.16699 43.5 1.5 65.5c-4 17.333 -10.667 31.833 -20 43.5s-20 21.667 -32 30s-25 16 -39 23s-27.333 14.5 -40 22.5zM268.996 269c19.333 -16 33.001 -34.3301 41.001 -54.9971s11.167 -41.834 9.5 -63.501s-7.83398 -42.5 -18.501 -62.5
s-24.667 -37 -42 -51s-37.833 -24 -61.5 -30s-49.167 -5.66699 -76.5 1c-23.333 6 -42.333 16.833 -57 32.5s-25.667 33.667 -33 54s-10.666 42.5 -9.99902 66.5s4.66699 47.5 12 70.5s18.5 44.667 33.5 65s33.167 37.5 54.5 51.5c-21.333 35.333 -32.5 67.333 -33.5 96
s4.33301 53.5 16 74.5s27.834 38 48.501 51s42.667 21.167 66 24.5s45.833 1.66602 67.5 -5.00098s39.167 -18.834 52.5 -36.501s20.666 -41.5 21.999 -71.5s-7 -66.333 -25 -109c-8 -19.333 -17.333 -37.5 -28 -54.5s-23.334 -33.167 -38.001 -48.5z" />
    <glyph glyph-name="nine" unicode="9" horiz-adv-x="399" 
d="M23 172c2.66699 8.66699 7.50195 12.1641 14.502 10.4971s10.5 -6.5 10.5 -14.5c-2 -20.667 -0.5 -41.167 4.5 -61.5s13.333 -37 25 -50s26.167 -20.833 43.5 -23.5s37.333 3.33301 60 18c14.667 8.66699 27.667 20.334 39 35.001s21.333 30.5 30 47.5
s16.167 34.833 22.5 53.5s11.833 36.667 16.5 54c-28 -12 -56.5 -16.167 -85.5 -12.5s-54.5 13.834 -76.5 30.501c-18.667 14.667 -33.5 34 -44.5 58s-15.833 51 -14.5 81c1.33301 22.667 5.83301 45.5 13.5 68.5s18.5 43.833 32.5 62.5s30.833 33.334 50.5 44.001
s42.167 15 67.5 13c17.333 -1.33301 33.166 -6.33301 47.499 -15s27 -19.667 38 -33s20.333 -28.5 28 -45.5s13.5 -34.5 17.5 -52.5c7.33301 -28 10.666 -57.667 9.99902 -89s-4.33398 -62.5 -11.001 -93.5s-15.667 -60.833 -27 -89.5s-24 -53.667 -38 -75
c-17.333 -26 -36.666 -46.333 -57.999 -61s-42.666 -24.167 -63.999 -28.5s-41.833 -3.83301 -61.5 1.5s-36.834 15.333 -51.501 30s-25.667 33.5 -33 56.5s-9.33301 49.833 -6 80.5zM297.002 269.997c3.33301 20.667 5.49902 44.333 6.49902 71s-0.166992 53 -3.5 79
s-9.66602 50.167 -18.999 72.5s-23 39.5 -41 51.5c-20 12.667 -38.667 15.334 -56 8.00098s-32.5 -19.5 -45.5 -36.5s-23.5 -36.667 -31.5 -59s-12.667 -41.833 -14 -58.5c-1.33301 -26 2.66699 -49.167 12 -69.5s21.666 -36.833 36.999 -49.5
c10.667 -9.33301 22.667 -16.5 36 -21.5s26.833 -7.66699 40.5 -8s27.334 1.16699 41.001 4.5s26.167 8.66602 37.5 15.999z" />
    <glyph glyph-name="colon" unicode=":" horiz-adv-x="272" 
d="M111 325c9.33301 0 17.667 -2.49902 25 -7.49902s12.666 -11.333 15.999 -19s4.33301 -15.834 3 -24.501s-5.66602 -16.667 -12.999 -24c-6.66699 -6 -14.167 -9.66699 -22.5 -11s-16 -0.5 -23 2.5s-13 7.83301 -18 14.5s-7.5 14.667 -7.5 24
c0 12 4.16699 22.5 12.5 31.5s17.5 13.5 27.5 13.5zM108.001 155.001c9.33301 0 17.667 -2.49902 25 -7.49902s12.666 -11.333 15.999 -19s4.33301 -15.834 3 -24.501s-5.66602 -16.667 -12.999 -24c-6.66699 -6 -14.167 -9.66699 -22.5 -11s-16 -0.5 -23 2.5
s-13 7.83301 -18 14.5s-7.5 14.667 -7.5 24c0 12 4.16699 22.5 12.5 31.5s17.5 13.5 27.5 13.5z" />
    <glyph glyph-name="semicolon" unicode=";" horiz-adv-x="294" 
d="M110 338c9.33301 0 17.667 -2.49902 25 -7.49902s12.666 -11.333 15.999 -19s4.33301 -15.834 3 -24.501s-5.66602 -16.667 -12.999 -24c-6.66699 -6 -14.167 -9.66699 -22.5 -11s-16 -0.5 -23 2.5s-13 7.83301 -18 14.5s-7.5 14.667 -7.5 24
c0 12 4.16699 22.5 12.5 31.5s17.5 13.5 27.5 13.5zM116.001 95.001c-15.333 4.66699 -26.333 11.5 -33 20.5s-9.83398 18.167 -9.50098 27.5s3.83301 17.5 10.5 24.5s15.667 10.5 27 10.5c20 0 33.5 -7.5 40.5 -22.5s7.5 -32.333 1.5 -52s-18.167 -39.167 -36.5 -58.5
s-43.166 -33.333 -74.499 -42c-8 0 -13.667 2.66699 -17 8s-2.33301 10 3 14c7.33301 2 15.5 4.5 24.5 7.5s17.667 7.33301 26 13s15.833 12.5 22.5 20.5s11.667 17.667 15 29z" />
    <glyph glyph-name="less" unicode="&#x3c;" horiz-adv-x="450" 
d="M331 422c4.66699 0 9.49902 -0.999023 14.499 -2.99902s8.16699 -5 9.5 -9c2.66699 -4.66699 3 -8.83398 1 -12.501s-5 -6.5 -9 -8.5l-182 -100l146 -103c6.66699 -4.66699 7.33398 -11.667 2.00098 -21c-1.33301 -4 -4.66602 -7 -9.99902 -9s-10 -1.66699 -14 1
c-35.333 21.333 -71.5 41.333 -108.5 60s-73.833 38.667 -110.5 60c-6 6 -8.83301 11.5 -8.5 16.5s4.16602 10.833 11.499 17.5z" />
    <glyph glyph-name="equal" unicode="=" horiz-adv-x="466" 
d="M105 98c-3.33301 0 -7 1.66699 -11 5s-6 7.33301 -6 12c0 6 2 10.833 6 14.5s7.66699 5.5 11 5.5h216c13.333 0 20 -6.66699 20 -20c0 -4.66699 -1.83301 -8.66699 -5.5 -12s-8.5 -5 -14.5 -5h-216zM105 249c-3.33301 0 -7 1.83301 -11 5.5s-6 7.5 -6 11.5
c0 4.66699 2 8.66699 6 12s7.66699 5 11 5h216c6 0 10.833 -1.66699 14.5 -5s5.5 -7.33301 5.5 -12c0 -4 -1.83301 -7.83301 -5.5 -11.5s-8.5 -5.5 -14.5 -5.5h-216z" />
    <glyph glyph-name="greater" unicode="&#x3e;" horiz-adv-x="477" 
d="M92 152c-3.33301 -2.66699 -7.66602 -3.00098 -12.999 -1.00098s-9 5 -11 9c0 4.66699 1 9.5 3 14.5s5 8.83301 9 11.5l180 95l-141 103c-4.66699 2 -7.83398 5.5 -9.50098 10.5s-1.5 9.5 0.5 13.5c2 4.66699 5.5 7.83398 10.5 9.50098s9.5 0.166992 13.5 -4.5
c38 -18.667 74.833 -38 110.5 -58l109.5 -62c14 -10 12.667 -21.333 -4 -34z" />
    <glyph glyph-name="question" unicode="?" horiz-adv-x="491" 
d="M74 538c0 -3.33301 -1.33301 -5.83594 -4 -7.50293s-5.5 -2.5 -8.5 -2.5s-5.66699 0.833008 -8 2.5s-3.5 4.16699 -3.5 7.5c0.666992 42 10.5 77 29.5 105s42.667 49.167 71 63.5s58.833 21.833 91.5 22.5s62.667 -5.83301 90 -19.5s49.833 -34.167 67.5 -61.5
s25.5 -61.666 23.5 -102.999c-2 -31.333 -8.66699 -59.333 -20 -84s-25.666 -47.834 -42.999 -69.501s-36.166 -42.5 -56.499 -62.5s-40 -40.5 -59 -61.5s-36.333 -43.167 -52 -66.5s-27.5 -49.666 -35.5 -78.999c-2 -5.33301 -6.83301 -9.66602 -14.5 -12.999
s-15.834 -5.5 -24.501 -6.5s-16.334 -0.333008 -23.001 2s-9.33398 7.16602 -8.00098 14.499c6.66699 31.333 17.667 59.833 33 85.5s32.5 49.334 51.5 71.001s38.833 42.5 59.5 62.5s39.834 40.5 57.501 61.5s32.667 43.333 45 67s19.833 49.834 22.5 78.501
c3.33301 28 0 53.167 -10 75.5s-23.833 40.333 -41.5 54s-37.667 22.5 -60 26.5s-44.5 2 -66.5 -6c-28.667 -13.333 -53.167 -32.5 -73.5 -57.5s-30.5 -58.167 -30.5 -99.5zM109 80.9971c9.33301 0 17.667 -2.49902 25 -7.49902s12.666 -11.333 15.999 -19
s4.33301 -15.834 3 -24.501s-5.66602 -16.667 -12.999 -24c-6.66699 -6 -14.167 -9.66699 -22.5 -11s-16 -0.5 -23 2.5s-13 7.83301 -18 14.5s-7.5 14.667 -7.5 24c0 12 4.16699 22.5 12.5 31.5s17.5 13.5 27.5 13.5z" />
    <glyph glyph-name="at" unicode="@" horiz-adv-x="582" 
d="M491 220c0.666992 2.66699 2.50488 4.15918 5.50488 4.49219s5.83301 -0.166992 8.5 -1.5s4.5 -3.5 5.5 -6.5s0.166992 -5.83301 -2.5 -8.5c-14.667 -27.333 -33.834 -51 -57.501 -71s-49.834 -36.667 -78.501 -50c-19.333 -8.66699 -39.5 -15.5 -60.5 -20.5
s-41.833 -7.33301 -62.5 -7s-40.667 4 -60 11s-37.333 17.833 -54 32.5c-25.333 22.667 -43.833 51.167 -55.5 85.5s-17.5 70.666 -17.5 108.999s6 76.833 18 115.5s28.667 73.834 50 105.501s47.5 58 78.5 79s65.833 32.833 104.5 35.5c29.333 2 55.5 -1.83301 78.5 -11.5
s42.167 -23.667 57.5 -42s26.666 -40 33.999 -65s10.5 -51.5 9.5 -79.5s-6.5 -56.5 -16.5 -85.5s-24.667 -56.833 -44 -83.5c-21.333 -29.333 -41 -50.666 -59 -63.999s-32.833 -19.166 -44.5 -17.499s-19.167 10.334 -22.5 26.001s-1 38.167 7 67.5
c-18 -11.333 -35.333 -18.666 -52 -21.999s-31.167 -2.5 -43.5 2.5s-21.666 14.333 -27.999 28s-8.16602 31.5 -5.49902 53.5c3.33301 22.667 11.833 44.667 25.5 66s30.167 38.833 49.5 52.5s40.666 22 63.999 25s46.666 -2.16699 69.999 -15.5
c0.666992 6 4.83398 10.167 12.501 12.5s15.334 2.83301 23.001 1.5s13.667 -4.16602 18 -8.49902s4.16602 -10.166 -0.500977 -17.499s-12.167 -21.166 -22.5 -41.499s-20.833 -42.666 -31.5 -66.999s-20.167 -47.666 -28.5 -69.999s-12.833 -39 -13.5 -50s4 -13.5 14 -7.5
s27.667 25.333 53 58c16 20.667 28.667 43.834 38 69.501s15.166 51.334 17.499 77.001s1 50.5 -4 74.5s-14 44.5 -27 61.5s-30.167 29.5 -51.5 37.5s-47 9.33301 -77 4c-24.667 -4.66699 -47.667 -16 -69 -34s-40.333 -40.5 -57 -67.5s-30.334 -56.667 -41.001 -89
s-17.667 -64.666 -21 -96.999s-2.33301 -63.333 3 -93s16 -55.167 32 -76.5c9.33301 -12 20.333 -22.833 33 -32.5s27.167 -16.834 43.5 -21.501s35 -5.83398 56 -3.50098s44.167 9.16602 69.5 20.499s49.166 26.666 71.499 45.999s41.5 41.333 57.5 66zM325.005 306.992
l54 136c-14 10.667 -28.333 14.667 -43 12s-28.5 -9.16699 -41.5 -19.5s-24.833 -23.333 -35.5 -39s-19 -31.5 -25 -47.5s-9.5 -30.833 -10.5 -44.5s1.83301 -23.5 8.5 -29.5s17.5 -7 32.5 -3s35.167 15.667 60.5 35z" />
    <glyph glyph-name="A" unicode="A" horiz-adv-x="555" 
d="M459 291c-12.667 20 -30.1699 34 -52.5029 42s-48.166 12 -77.499 12c-5.33301 0 -11 -0.166992 -17 -0.5s-12 -0.833008 -18 -1.5c-10.667 -36.667 -19.834 -72 -27.501 -106s-13 -64.5 -16 -91.5s-3.33301 -49.333 -1 -67s8.33301 -28.5 18 -32.5
s23.5 -0.166992 41.5 11.5s41.333 33.5 70 65.5c32 36 62.333 74.5 91 115.5l85 126.5c3.33301 3.33301 7.83301 3.83301 13.5 1.5s6.83398 -7.16602 3.50098 -14.499c-25.333 -39.333 -53.166 -80.166 -83.499 -122.499s-60.5 -80.833 -90.5 -115.5
s-58.667 -62.834 -86 -84.501s-51.333 -31.5 -72 -29.5c-17.333 2 -30 10.167 -38 24.5s-13.167 32.333 -15.5 54s-2.33301 45.5 0 71.5s5.83301 52 10.5 78c2.66699 15.333 6 32 10 50s8.66699 36.667 14 56c-23.333 -4.66699 -47.166 -9.83398 -71.499 -15.501
l-73.5 -17.5l-26 -7c-0.666992 -0.666992 -1 -1.33398 -1 -2.00098c-24 -50 -45 -100.5 -63 -151.5s-32 -97.833 -42 -140.5l-60 1c10 40.667 23.667 85 41 133s37.333 96.333 60 145c-25.333 -5.33301 -50 -9.83301 -74 -13.5s-46.667 -5.5 -68 -5.5
c-28 0 -51.667 4.33301 -71 13c-24 10.667 -42 26.167 -54 46.5s-18 41.833 -18 64.5c0 14 2.5 27.833 7.5 41.5s12.333 25.667 22 36s21.667 18.666 36 24.999s31.166 9.5 50.499 9.5c11.333 0 23.5 -2.16699 36.5 -6.5s25.5 -14.166 37.5 -29.499
c-27.333 10.667 -52 16 -74 16c-16 0 -29.667 -2.66699 -41 -8s-20.833 -12.166 -28.5 -20.499s-13.167 -18 -16.5 -29s-5 -22.5 -5 -34.5c0 -19.333 4.16699 -37.333 12.5 -54s22.5 -29.667 42.5 -39c18 -7.33301 39 -11 63 -11c21.333 0 45 2 71 6s53 9.33301 81 16
c12 26.667 26.333 55.5 43 86.5s34.667 61.5 54 91.5s39.5 58.5 60.5 85.5s42.167 50.5 63.5 70.5s42.333 35.333 63 46s40 14.334 58 11.001l88 38c-6 -14.667 -13.833 -35 -23.5 -61l-32 -88c-11.667 -32.667 -23.5 -67.834 -35.5 -105.501s-23.333 -75.167 -34 -112.5
c5.33301 0 10.333 0.166992 15 0.5s9.33398 0.5 14.001 0.5c32 0 59.833 -5 83.5 -15s39.167 -29.667 46.5 -59zM328.997 668c-13.333 -3.33301 -27.668 -11.168 -43.001 -23.501s-31 -27.666 -47 -45.999s-32.167 -39 -48.5 -62s-32.166 -46.833 -47.499 -71.5
s-30 -49.667 -44 -75s-26.667 -49.333 -38 -72l12 3c25.333 6.66699 51 13 77 19s51.667 11 77 15l25.5 86.5l27 85.5l26.5 77.5z" />
    <glyph glyph-name="B" unicode="B" horiz-adv-x="588" 
d="M220 635c19.333 22.667 38.4951 39.1699 57.4951 49.5029s38.5 17.833 58.5 22.5c4.66699 14 7.66699 22.333 9 25h68c-1.33301 -2.66699 -2.66602 -5.5 -3.99902 -8.5s-2.66602 -6.83301 -3.99902 -11.5c40.667 -2 70.834 -11.333 90.501 -28s31 -36.667 34 -60
s-1.5 -48.166 -13.5 -74.499s-29.667 -50.5 -53 -72.5c-14.667 -13.333 -31 -25 -49 -35s-37.667 -17.667 -59 -23c42 -7.33301 73 -23.333 93 -48s30.833 -53.334 32.5 -86.001s-5 -66.834 -20 -102.501s-36.167 -68.167 -63.5 -97.5c-27.333 -28 -59 -50 -95 -66
s-76 -22.333 -120 -19c-28 2 -50.167 7.83301 -66.5 17.5s-28.166 21.667 -35.499 36s-10.833 30 -10.5 47s3.5 33.5 9.5 49.5c0 -14.667 1.5 -29.334 4.5 -44.001s8.16699 -27.834 15.5 -39.501s17.5 -21.334 30.5 -29.001s29.5 -11.5 49.5 -11.5c24 0 47 5 69 15
s42.5 23.5 61.5 40.5s35.833 36.333 50.5 58s26.167 44 34.5 67s13.5 45.667 15.5 68s-0.5 42.5 -7.5 60.5s-18.667 32.833 -35 44.5s-38.5 18.5 -66.5 20.5l-104 -331l-67 1l55.5 173l57 178.5l50.5 158c15.333 47.667 27.666 84.834 36.999 111.501
c-19.333 -5.33301 -38.166 -13 -56.499 -23s-36.166 -21 -53.499 -33zM310.995 431.003c20.667 4.66699 40.665 14 59.998 28s36.333 30.167 51 48.5s26.334 37.666 35.001 57.999s12.834 39.5 12.501 57.5s-6 33.667 -17 47s-28.833 22 -53.5 26
c-10 -27.333 -22.667 -64.166 -38 -110.499z" />
    <glyph glyph-name="C" unicode="C" horiz-adv-x="586" 
d="M498 453c1.33301 28 0.999023 56.4951 -1.00098 85.4951s-6.66699 55.333 -14 79s-18 43.167 -32 58.5s-32 23.333 -54 24c-23.333 0.666992 -46.333 -8.16602 -69 -26.499s-44 -42.833 -64 -73.5s-38 -65.667 -54 -105s-28.833 -79.666 -38.5 -120.999
s-15.667 -81.833 -18 -121.5s0.166992 -75.334 7.5 -107.001s20.333 -57.334 39 -77.001s43.667 -30.167 75 -31.5c19.333 -0.666992 38.833 3.83301 58.5 13.5s39.167 23 58.5 40s38.333 36.667 57 59s36.334 45.833 53.001 70.5s32 49.5 46 74.5l38 70.5
c2 3.33301 4.83301 5.5 8.5 6.5s7.16699 0.833008 10.5 -0.5s5.83301 -3.66602 7.5 -6.99902s1.5 -7.66602 -0.5 -12.999c-18 -37.333 -39.167 -76.166 -63.5 -116.499s-51 -77.666 -80 -111.999s-60.5 -63 -94.5 -86s-69.333 -35.167 -106 -36.5
c-40.667 -2 -74.667 6 -102 24s-48.5 42.333 -63.5 73s-24.5 66.167 -28.5 106.5s-3.16699 82.333 2.5 126s15.834 87.334 30.501 131.001s32.667 84.167 54 121.5c14.667 24.667 30.5 47 47.5 67s35.333 37 55 51s40.167 24.5 61.5 31.5s43.666 9.5 66.999 7.5
c34 -2.66699 60.333 -13.5 79 -32.5s31.5 -42.167 38.5 -69.5s9.16699 -57.333 6.5 -90s-8.66699 -64 -18 -94z" />
    <glyph glyph-name="D" unicode="D" horiz-adv-x="708" 
d="M99 210c6.66699 -19.333 14.666 -39.5049 23.999 -60.5049s21.333 -40 36 -57s32.167 -31 52.5 -42s44.5 -15.833 72.5 -14.5c27.333 0.666992 53.666 9.33398 78.999 26.001s48.833 38.5 70.5 65.5s40.834 58 57.501 93s30.334 71.167 41.001 108.5
s17.667 74.333 21 111s2 70.5 -4 101.5s-16.833 57.833 -32.5 80.5s-37.167 38.334 -64.5 47.001l-38.5 -117l-47.5 -149.5l-51 -163l-49 -156.5l-67 1l52 162.5l52.5 166l47.5 149l37 112.5c-29.333 -4.66699 -58.5 -18 -87.5 -40s-56.833 -48.667 -83.5 -80
c26.667 52 55.334 89.833 86.001 113.5s63 37.834 97 42.501c2 5.33301 3.5 10 4.5 14s2.16699 6.66699 3.5 8h68c-1.33301 -2.66699 -2.83301 -6 -4.5 -10s-3.16699 -8.33301 -4.5 -13c34 -6 62 -19.333 84 -40s38.667 -46.167 50 -76.5s17.833 -64.166 19.5 -101.499
s-0.833008 -75.666 -7.5 -114.999s-17.334 -78.5 -32.001 -117.5s-32.334 -75.5 -53.001 -109.5c-30 -47.333 -65.333 -84.333 -106 -111s-85 -40 -133 -40c-35.333 0 -65.166 6.16699 -89.499 18.5s-44 28.5 -59 48.5s-25.833 42.667 -32.5 68s-9.66699 51 -9 77z" />
    <glyph glyph-name="E" unicode="E" horiz-adv-x="538" 
d="M318 387c-27.333 -4.66699 -53.6748 -17.002 -79.0078 -37.002s-47.5 -43.5 -66.5 -70.5s-33.667 -55.833 -44 -86.5s-14.333 -59 -12 -85s12.333 -47.667 30 -65s45.167 -26.333 82.5 -27c30 -0.666992 60.833 6.5 92.5 21.5s61.5 33.333 89.5 55s53.167 44.667 75.5 69
s39.5 45.833 51.5 64.5c2.66699 4.66699 5.83398 7.33398 9.50098 8.00098s6.83398 0.166992 9.50098 -1.5s4.33398 -4.16699 5.00098 -7.5s-1 -7 -5 -11c-16 -21.333 -35.5 -44.333 -58.5 -69s-48.667 -48 -77 -70s-59.166 -40.5 -92.499 -55.5s-68.333 -23.167 -105 -24.5
c-38 -0.666992 -69.5 4 -94.5 14s-44.667 23.667 -59 41s-23.166 37.333 -26.499 60s-2.5 46.167 2.5 70.5s14.333 48.833 28 73.5s30.5 47.334 50.5 68.001c15.333 16.667 32.666 31.5 51.999 44.5s40.333 23.167 63 30.5c-32 7.33301 -55.333 21 -70 41
s-22.334 42.667 -23.001 68s5.33301 51.666 18 78.999s30.334 52.333 53.001 75s49.5 40.834 80.5 54.501s64.833 19.5 101.5 17.5c34.667 -1.33301 59.5 -9.16602 74.5 -23.499s22.833 -30.833 23.5 -49.5s-4.16602 -37.834 -14.499 -57.501s-22.833 -35.5 -37.5 -47.5
c-4.66699 -3.33301 -10.334 -3.66602 -17.001 -0.999023s-8 6 -4 10c16.667 14 28.834 29.833 36.501 47.5s10.834 34.167 9.50098 49.5s-7.66602 28.166 -18.999 38.499s-27.666 15.833 -48.999 16.5c-24 0 -47.5 -7 -70.5 -21s-43.667 -32 -62 -54s-33 -45.833 -44 -71.5
s-16.333 -50 -16 -73s7 -42.5 20 -58.5s34.833 -25.333 65.5 -28c4.66699 0.666992 9.16699 1.16699 13.5 1.5s8.83301 0.5 13.5 0.5z" />
    <glyph glyph-name="F" unicode="F" horiz-adv-x="422" 
d="M548 502c-12 -18 -26.8291 -32.167 -44.4961 -42.5s-36.834 -18 -57.501 -23s-42.5 -7.83301 -65.5 -8.5s-46.167 -0.333984 -69.5 0.999023l-136 -428l-67 1l32 99l35 109l36 113l35 110c-20 2 -39.5 3.5 -58.5 4.5s-36.333 1.16699 -52 0.5
s-29.667 -2.83398 -42 -6.50098s-22.166 -9.5 -29.499 -17.5c9.33301 14 21 25.333 35 34s29.667 15.5 47 20.5s35.833 8.33301 55.5 10s39.834 2.5 60.501 2.5l58 180c-18 1.33301 -35.167 1.66602 -51.5 0.999023s-31.166 -3 -44.499 -7s-25 -10 -35 -18
s-17.667 -18.667 -23 -32c6 20 14.5 36.833 25.5 50.5s24 24.5 39 32.5s31.5 13.833 49.5 17.5s37 5.83398 57 6.50098l8 20h68l-9 -22c26.667 -2 53 -4.66699 79 -8s50.5 -5.5 73.5 -6.5s43.667 -0.166992 62 2.5s32.833 8.66699 43.5 18
c-14.667 -21.333 -32.334 -37 -53.001 -47s-43.334 -16.5 -68.001 -19.5s-50.334 -3.66699 -77.001 -2s-53.334 3.83398 -80.001 6.50098l-57 -174c23.333 -1.33301 46.166 -2.5 68.499 -3.5s43.166 -1 62.499 0s36.833 3.33301 52.5 7s28.167 9.83398 37.5 18.501z
M52.0039 391c3.33301 8.66699 7.33301 16.333 12 23c-6 -6 -10 -13.667 -12 -23z" />
    <glyph glyph-name="G" unicode="G" horiz-adv-x="523" 
d="M489 608c0.666992 14.667 -1.99609 28.5039 -7.99609 41.5039s-14 24.333 -24 34s-21.333 17.334 -34 23.001s-25.334 8.5 -38.001 8.5c-22 0.666992 -43.833 -5.16602 -65.5 -17.499s-41.834 -28.833 -60.501 -49.5s-35.667 -44.334 -51 -71.001
s-27.5 -53.834 -36.5 -81.501s-14.667 -54.834 -17 -81.501s0 -50.667 7 -72s19.167 -38.666 36.5 -51.999s41 -20.333 71 -21c7.33301 0 14.333 0.333008 21 1s13.667 2 21 4c18 48 35 97 51 147l46 145l76 -1l-31 -104c-11.333 -37.333 -23.666 -75 -36.999 -113
s-27.5 -75.667 -42.5 -113s-30.833 -72.333 -47.5 -105s-34.334 -62.167 -53.001 -88.5s-37.667 -47.166 -57 -62.499c-22 -17.333 -43.667 -27.833 -65 -31.5s-40.833 -2.33398 -58.5 3.99902s-33 16.666 -46 30.999s-22.167 30.666 -27.5 48.999
s-6.16602 37.666 -2.49902 57.999s13.334 39.5 29.001 57.5s38.167 34.167 67.5 48.5s66.666 24.5 111.999 30.5c-48 -16 -84.833 -34.5 -110.5 -55.5s-43 -42 -52 -63s-11.167 -40.667 -6.5 -59s13 -32.666 25 -42.999s26.333 -15.333 43 -15s32.667 8.83301 48 25.5
c23.333 25.333 45.666 58.333 66.999 99s41.666 85 60.999 133c-6 -1.33301 -12 -2.33301 -18 -3s-12.333 -1 -19 -1c-38.667 -1.33301 -70.834 4 -96.501 16s-45.667 28.333 -60 49s-23.333 44.667 -27 72s-2.83398 55.666 2.49902 84.999s14.833 58.666 28.5 87.999
s30.834 56.666 51.501 81.999c27.333 33.333 59.5 60 96.5 80s77.5 28.667 121.5 26c24.667 -1.33301 44.667 -6 60 -14s27 -18.167 35 -30.5s13 -26.166 15 -41.499s1.66699 -31.333 -1 -48z" />
    <glyph glyph-name="H" unicode="H" horiz-adv-x="553" 
d="M142 732l68.999 -0.00585938c-4.66699 -7.33301 -14.334 -25.666 -29.001 -54.999l-50.5 -105.5l-60 -132l-58.5 -133.5c10 2 20 4.33301 30 7l30 8l74 18c24.667 6 49.334 11 74.001 15l50 105l51 102.5l48 93l42 77.5h72l-94 -182l-91 -186
c5.33301 0 10.333 0.166992 15 0.5s9.66699 0.5 15 0.5c32 0 59.833 -5 83.5 -15s39.167 -29.667 46.5 -59c-12.667 20 -30.167 34 -52.5 42s-48.166 12 -77.499 12c-6.66699 0 -13.167 -0.166992 -19.5 -0.5s-13.166 -0.833008 -20.499 -1.5l-71 -155
c-20 -45.333 -34.333 -79.666 -43 -102.999c-14 -38 -20.667 -65.333 -20 -82s6 -26.167 16 -28.5s23.333 1.16699 40 10.5s34 21 52 35s35.167 29 51.5 45s29.5 29.333 39.5 40c36 40 71.167 82.833 105.5 128.5s65.5 89.5 93.5 131.5c5.33301 4.66699 10.833 5.5 16.5 2.5
s6.83398 -8.5 3.50098 -16.5c-28 -42 -59.167 -86.167 -93.5 -132.5s-69.5 -89.166 -105.5 -128.499c-20 -22 -39.667 -42.167 -59 -60.5s-38.166 -34.166 -56.499 -47.499s-36.166 -23.833 -53.499 -31.5s-34 -11.5 -50 -11.5c-24.667 0 -41.834 8.33301 -51.501 25
s-13.5 36 -11.5 58c1.33301 21.333 11.666 56.833 30.999 106.5s45 109.834 77 180.501l10 23l-66 -15l-68 -16l-37 -9.5c-12 -3 -24 -5.83301 -36 -8.5l-62 -150l-55 -133l-69 1l55 134l55 133c-15.333 -2.66699 -29.833 -4.66699 -43.5 -6s-27.167 -2 -40.5 -2
c-28 0 -51.667 4.33301 -71 13c-24 10.667 -42 26.167 -54 46.5s-18 41.833 -18 64.5c0 14 2.5 27.833 7.5 41.5s12.333 25.667 22 36s21.667 18.666 36 24.999s31.166 9.5 50.499 9.5c11.333 0 23.5 -2.16699 36.5 -6.5s25.5 -14.166 37.5 -29.499
c-27.333 10.667 -52 16 -74 16c-16 0 -30.167 -2.66699 -42.5 -8s-22.5 -12.166 -30.5 -20.499s-14.167 -18 -18.5 -29s-6.5 -22.5 -6.5 -34.5c0 -19.333 5.33301 -37.333 16 -54s26 -29.667 46 -39c18 -7.33301 39 -11 63 -11c14 0 28.667 0.833008 44 2.5
s31.666 4.16699 48.999 7.5l44.5 102.5l47 105.5l53 112z" />
    <glyph glyph-name="I" unicode="I" horiz-adv-x="492" 
d="M352 732l70.998 -0.000976562l-89.5 -175.5l-79.5 -167.5l-63 -142c-18 -42 -31.333 -75 -40 -99c-14 -38 -20.667 -65.333 -20 -82s6 -26.167 16 -28.5s23.333 1.16699 40 10.5s34 21 52 35s35.167 29 51.5 45s29.5 29.333 39.5 40l77.5 91l84.5 106
c4.66699 4.66699 9.83398 5 15.501 1s6.16699 -10.333 1.5 -19l-83 -105l-76 -89c-20 -22 -39.667 -42.167 -59 -60.5s-38.166 -34.166 -56.499 -47.499s-36.166 -23.833 -53.499 -31.5s-34 -11.5 -50 -11.5c-24.667 0 -41.834 8.33301 -51.501 25s-13.5 36 -11.5 58
c1.33301 15.333 6 36.5 14 63.5s18.833 58 32.5 93s29.5 72.833 47.5 113.5l58 125.5l64.5 129c22.333 43 44.833 83.833 67.5 122.5z" />
    <glyph glyph-name="J" unicode="J" horiz-adv-x="283" 
d="M69 616c9.33301 40 28.3311 69.5 56.998 88.5s66 28.5 112 28.5h74c-3.33301 -13.333 -8.66602 -32.5 -15.999 -57.5l-26.5 -86.5c-10.333 -32.667 -22.333 -67.834 -36 -105.501s-28.5 -75.834 -44.5 -114.501c-28 -66 -54 -122.167 -78 -168.5
s-46.5 -84.166 -67.5 -113.499s-40.833 -51 -59.5 -65s-36.667 -21.333 -54 -22c-27.333 -1.33301 -49.333 3.83398 -66 15.501s-29 27.667 -37 48s-12.167 43.166 -12.5 68.499s2 51 7 77s12.333 50.667 22 74s20.167 43 31.5 59c2.66699 3.33301 5.83398 5 9.50098 5
s7 -1 10 -3s5.16699 -4.66699 6.5 -8s1 -7 -1 -11c-19.333 -27.333 -33.666 -57.333 -42.999 -90s-13.166 -63.167 -11.499 -91.5s9 -52.166 22 -71.499s32.167 -29.333 57.5 -30c14.667 -0.666992 30.667 10.333 48 33s35.166 52.667 53.499 90s36.833 79.5 55.5 126.5
s36.667 94.667 54 143l48.5 140l39.5 117.5c-36.667 4 -67.334 -1.33301 -92.001 -16s-45.667 -34.667 -63 -60z" />
    <glyph glyph-name="K" unicode="K" horiz-adv-x="511" 
d="M94 648c12 18 23.6689 32.4971 35.002 43.4971s22.833 19.667 34.5 26s23.667 10.5 36 12.5s25.166 3 38.499 3h74c-3.33301 -13.333 -8.83301 -32.5 -16.5 -57.5l-27 -86c-10.333 -32.333 -22.333 -67.5 -36 -105.5s-28.167 -76.333 -43.5 -115
c14 16 31.167 30.833 51.5 44.5s41.833 23.834 64.5 30.501s45.5 9 68.5 7s44.167 -10.667 63.5 -26c-22 4 -45.167 3 -69.5 -3s-48 -15.167 -71 -27.5s-44.833 -26.666 -65.5 -42.999s-38.334 -32.833 -53.001 -49.5c3.33301 -28 9.16602 -56.5 17.499 -85.5
s18.333 -56.167 30 -81.5s25 -47.333 40 -66s31.333 -31.667 49 -39s36.5 -7.66602 56.5 -0.999023s40.667 23 62 49c6.66699 3.33301 12.167 3.16602 16.5 -0.500977s4.83301 -9.5 1.5 -17.5c-30 -32 -60.833 -51.167 -92.5 -57.5s-61.834 -1.33301 -90.501 15
s-54.834 43.5 -78.501 81.5s-42.5 85.667 -56.5 143c-16 -33.333 -32.333 -64.5 -49 -93.5s-33.5 -54.333 -50.5 -76s-34.167 -39 -51.5 -52s-34.666 -19.833 -51.999 -20.5c-27.333 -1.33301 -49.333 3.83398 -66 15.501s-29 27.667 -37 48s-12.167 43.166 -12.5 68.499
s2 51 7 77s12.333 50.667 22 74s20.167 43 31.5 59c2.66699 3.33301 5.83398 5 9.50098 5s7 -1 10 -3s5.16699 -4.66699 6.5 -8s1 -7 -1 -11c-19.333 -27.333 -33.666 -57.333 -42.999 -90s-13.166 -63.167 -11.499 -91.5s9 -52.166 22 -71.499s32.167 -29.333 57.5 -30
c14.667 -0.666992 30.667 10.333 48 33s35.166 52.667 53.499 90s36.833 79.5 55.5 126.5s36.667 94.667 54 143l48.5 140l39.5 117.5c-28.667 3.33301 -53.5 0.833008 -74.5 -7.5s-39.5 -20.5 -55.5 -36.5z" />
    <glyph glyph-name="L" unicode="L" horiz-adv-x="329" 
d="M130 657c20 20.667 39.0029 36.001 57.0029 46.001s36.167 17.167 54.5 21.5s37.833 6.5 58.5 6.5s43.667 0.333008 69 1c-12.667 -19.333 -26.834 -43.833 -42.501 -73.5s-31.667 -62.334 -48 -98.001s-32.5 -73.167 -48.5 -112.5s-30.833 -78 -44.5 -116
s-25.667 -74.167 -36 -108.5s-17.833 -64.666 -22.5 -90.999s-6 -47 -4 -62s8.33301 -22.5 19 -22.5c11.333 0 25.166 6.83301 41.499 20.5s33.166 30 50.499 49l51.5 58.5l43.5 50c4.66699 5.33301 10.334 6.16602 17.001 2.49902s8.33398 -8.83398 5.00098 -15.501
l-25.5 -31l-37.5 -44.5l-44 -49.5c-15.333 -16.667 -30.833 -31.667 -46.5 -45s-30.834 -24 -45.501 -32s-27.667 -11 -39 -9c-18.667 2.66699 -32.334 12.334 -41.001 29.001s-13.334 38 -14.001 64s2 55.667 8 89s14.333 68.5 25 105.5s23.167 74.833 37.5 113.5
s29 75.667 44 111s30.167 68.333 45.5 99s29.666 57 42.999 79c-23.333 1.33301 -46.166 -1.16699 -68.499 -7.5s-43.166 -15.5 -62.499 -27.5z" />
    <glyph glyph-name="M" unicode="M" horiz-adv-x="834" 
d="M162 610c16 18 31.1709 31.6621 45.5039 40.9951s27.166 15.333 38.499 18s21.5 2.33398 30.5 -0.999023s16.5 -8.66602 22.5 -15.999c7.33301 -9.33301 9.83301 -25 7.5 -47s-8.16602 -48 -17.499 -78l38.5 43c12.333 13.333 24.833 25.333 37.5 36
c36.667 31.333 69 48.833 97 52.5s48.667 -2.83301 62 -19.5c8 -10 12 -23.333 12 -40s-2.66699 -35.667 -8 -57l31.5 34c10.333 10.667 20.5 20.667 30.5 30c36.667 31.333 69 48.833 97 52.5s48.667 -2.83301 62 -19.5c12 -14.667 16.833 -34.167 14.5 -58.5
s-9 -51.333 -20 -81s-25 -61.167 -42 -94.5l-52 -98l-49 -91c-15 -28.667 -26.167 -53.667 -33.5 -75c-6 -17.333 -10.333 -32.833 -13 -46.5s-3.33398 -25.334 -2.00098 -35.001s5 -16.834 11 -21.501s14.667 -6.33398 26 -5.00098
c17.333 2.66699 40.666 14.834 69.999 36.501s66.666 56.834 111.999 105.501c10.667 11.333 21.167 23.166 31.5 35.499l31.5 37.5c4 3.33301 8.66699 3.66602 14 0.999023s6.33301 -7.66699 3 -15l-63 -75l-47 -50.5c-17.333 -18.333 -35.833 -35.5 -55.5 -51.5
s-40.167 -29.5 -61.5 -40.5s-42.666 -16.5 -63.999 -16.5c-18.667 0 -33.167 4 -43.5 12s-17.333 19 -21 33s-4.5 30.333 -2.5 49s6.33301 39 13 61c7.33301 24.667 17 50.667 29 78s24.833 54.333 38.5 81l40.5 76l35 64c6.66699 12 13.667 26.667 21 44
s13.333 34.5 18 51.5s7.5 32.667 8.5 47s-1.33301 24.333 -7 30s-15.5 6 -29.5 1s-33.333 -18.5 -58 -40.5c-15.333 -13.333 -30.666 -28.666 -45.999 -45.999s-30.666 -35.666 -45.999 -54.999c-12 -31.333 -26.833 -64.833 -44.5 -100.5l-54 -106l-53.5 -100.5
c-17.333 -32 -32 -60.333 -44 -85l-66 1c13.333 31.333 29.166 65.333 47.499 102l56.5 113l53.5 103c17 34 32.167 66.333 45.5 97c9.33301 22.667 15.666 43.667 18.999 63s2.66602 34 -2.00098 44s-14.334 13.333 -29.001 10s-35.334 -16.666 -62.001 -39.999
c-17.333 -15.333 -34.833 -33.166 -52.5 -53.499s-35.5 -42.166 -53.5 -65.499c-12.667 -31.333 -27 -64.333 -43 -99l-49 -103.5l-48.5 -98.5l-42.5 -83.5l-31 -59c-8 -15 -12.333 -23.167 -13 -24.5h-70l61.5 125l67.5 135.5l65.5 135.5
c21 44.667 39.5 86.334 55.5 125.001c8.66699 22 14.834 42.667 18.501 62s3.5 34.166 -0.5 44.499s-12.333 14.833 -25 13.5s-31 -11.666 -55 -30.999z" />
    <glyph glyph-name="N" unicode="N" horiz-adv-x="605" 
d="M186 627c28 26.667 51.333 40.5029 70 41.5029s33 -4.5 43 -16.5c7.33301 -9.33301 10 -24.333 8 -45s-7.33301 -45.334 -16 -74.001c24 28 47.333 52.333 70 73c36.667 31.333 69 48.833 97 52.5s48.667 -2.83301 62 -19.5c12 -14.667 16.833 -34.167 14.5 -58.5
s-9 -51.333 -20 -81s-25 -61.167 -42 -94.5l-52 -98l-49 -91c-15 -28.667 -26.167 -53.667 -33.5 -75c-6 -17.333 -10.333 -32.833 -13 -46.5s-3.33398 -25.334 -2.00098 -35.001s5 -16.834 11 -21.501s14.667 -6.33398 26 -5.00098
c17.333 2.66699 40.666 14.834 69.999 36.501s66.666 56.834 111.999 105.501c10.667 11.333 21.167 23.166 31.5 35.499l31.5 37.5c4 3.33301 8.66699 3.66602 14 0.999023s6.33301 -7.66699 3 -15l-63 -75l-47 -50.5c-17.333 -18.333 -35.833 -35.5 -55.5 -51.5
s-40.167 -29.5 -61.5 -40.5s-42.666 -16.5 -63.999 -16.5c-18.667 0 -33.167 4 -43.5 12s-17.333 19 -21 33s-4.5 30.333 -2.5 49s6.33301 39 13 61c7.33301 24.667 17 50.667 29 78s24.833 54.333 38.5 81l40.5 76l35 64c6.66699 12 13.667 26.667 21 44
s13.333 34.5 18 51.5s7.5 32.667 8.5 47s-1.33301 24.333 -7 30s-15.5 6 -29.5 1s-33.333 -18.5 -58 -40.5c-17.333 -15.333 -34.166 -32.5 -50.499 -51.5l-50.5 -60.5c-12 -32 -25.833 -65.833 -41.5 -101.5l-48.5 -106l-49 -100l-43.5 -84l-32 -59
c-8.33301 -15 -12.833 -23.167 -13.5 -24.5h-70l61.5 125l67.5 135.5l65.5 135.5c21 44.667 39.5 86.334 55.5 125.001c8 20 14 39 18 57s4.83301 32.5 2.5 43.5s-8.16602 17.5 -17.499 19.5s-23 -2.66699 -41 -14z" />
    <glyph glyph-name="O" unicode="O" horiz-adv-x="448" 
d="M319 231c-17.333 -33.333 -35.5049 -63.8398 -54.5049 -91.5068s-38.833 -51.667 -59.5 -72s-41.667 -36.166 -63 -47.499s-42.666 -17 -63.999 -17c-25.333 0 -45.833 6.66699 -61.5 20s-27.5 30.833 -35.5 52.5s-12.667 46.334 -14 74.001
s-0.666016 55.834 2.00098 84.501s7.16699 56.667 13.5 84s12.833 51.333 19.5 72l12 34.5c4 11 8.66699 21.833 14 32.5c16 34 33.333 64.333 52 91s39 48.334 61 65.001s46 27.834 72 33.501s54.667 4.83398 86 -2.49902c4.66699 -0.666992 7.83398 -2.66699 9.50098 -6
s2.16699 -7 1.5 -11s-2.16699 -7.66699 -4.5 -11s-5.5 -5 -9.5 -5c-27.333 5.33301 -53.166 1.5 -77.499 -11.5s-46.666 -32 -66.999 -57s-38.833 -54.667 -55.5 -89s-30.5 -70 -41.5 -107s-19.167 -73.5 -24.5 -109.5s-7.33301 -68.667 -6 -98s6.33301 -53.5 15 -72.5
s21.667 -29.5 39 -31.5c12.667 -1.33301 27.334 1.5 44.001 8.5s34 18 52 33s35.833 33.5 53.5 55.5s34.167 47 49.5 75c-24 10.667 -42.167 26.334 -54.5 47.001s-19.833 43.667 -22.5 69s-1.33398 51.5 3.99902 78.5s13.666 52.5 24.999 76.5s25.333 45 42 63
s34.334 30.333 53.001 37c12.667 4.66699 24.167 5.16699 34.5 1.5s19 -10.167 26 -19.5s12 -21.333 15 -36s3.5 -31 1.5 -49c-4.66699 -34 -14 -72.667 -28 -116s-32 -86 -54 -128zM295.995 235.993c20.667 42.667 38.666 85.168 53.999 127.501
s24.666 81.166 27.999 116.499c2.66699 26 -0.166016 45.333 -8.49902 58s-22.166 15.667 -41.499 9c-13.333 -4 -26 -12.167 -38 -24.5s-22.667 -27 -32 -44s-17 -35.5 -23 -55.5s-9.66699 -39.833 -11 -59.5s0.333984 -38.334 5.00098 -56.001s12.667 -32.167 24 -43.5
c6.66699 -8.66699 13.167 -14.667 19.5 -18s14.166 -6.66602 23.499 -9.99902z" />
    <glyph glyph-name="P" unicode="P" horiz-adv-x="522" 
d="M140 450c1.33301 -22.667 7.99707 -44.0029 19.9971 -64.0029s31.667 -33.333 59 -40l33.5 105.5l31 96.5l26.5 81.5l20 61.5c-29.333 -4.66699 -58.333 -14.667 -87 -30s-55.834 -32.666 -81.501 -51.999s-48.5 -39.333 -68.5 -60s-36 -38.334 -48 -53.001
c-2 -2 -4.66699 -3.33301 -8 -4s-6.66602 -0.666992 -9.99902 0s-5.83301 1.83398 -7.5 3.50098s-1.83398 3.5 -0.500977 5.5c14.667 18 32.834 38.167 54.501 60.5s46 43.666 73 63.999s56.5 38.333 88.5 54s66 25.834 102 30.501l8 22h68
c-1.33301 -2.66699 -2.66602 -5.5 -3.99902 -8.5s-2.66602 -6.83301 -3.99902 -11.5c48.667 -4 85 -17 109 -39s37.667 -48.167 41 -78.5s-2.66699 -62.5 -18 -96.5s-37.666 -65 -66.999 -93c-24.667 -23.333 -53.334 -42.666 -86.001 -57.999
s-68.334 -23.666 -107.001 -24.999l-54 -169.5l-48 -152.5h-67l104 326c-20 4 -35.833 10.333 -47.5 19s-20.167 18.667 -25.5 30s-7.66602 23.333 -6.99902 36s3.33398 25.667 8.00098 39zM396.997 688.997l-21.499 -62.499l-27 -81l-30.5 -95l-33 -102.5
c25.333 6.66699 49.666 18.834 72.999 36.501s44 38.167 62 61.5s32.333 48.166 43 74.499s15.834 51 15.501 74s-6.83301 43.167 -19.5 60.5s-33.334 28.666 -62.001 33.999z" />
    <glyph glyph-name="Q" unicode="Q" horiz-adv-x="477" 
d="M451 63c-19.333 -21.333 -39.9932 -36.8311 -61.9932 -46.498s-43.833 -14 -65.5 -13s-42.5 7.16699 -62.5 18.5s-38 27.333 -54 48c-20.667 -21.333 -41.834 -37.833 -63.501 -49.5s-43.5 -17.5 -65.5 -17.5c-30 0 -53.833 10.5 -71.5 31.5s-30 48.5 -37 82.5
s-8.83301 72.833 -5.5 116.5s11.166 88.167 23.499 133.5s29.166 89.833 50.499 133.5s46.333 82.667 75 117s60.834 62 96.501 83s74.5 31.5 116.5 31.5c4.66699 0 8.33398 -1.66699 11.001 -5s4.5 -7 5.5 -11s0.833008 -7.5 -0.5 -10.5s-4 -4.5 -8 -4.5
c-32 1.33301 -61.667 -6.83398 -89 -24.501s-52.333 -41.5 -75 -71.5s-42.834 -64.667 -60.501 -104s-32.334 -79.666 -44.001 -120.999s-20.5 -82.166 -26.5 -122.499s-8.5 -76.5 -7.5 -108.5s5.16699 -58.333 12.5 -79s18.666 -32.334 33.999 -35.001
c14.667 -2.66699 31.834 1.16602 51.501 11.499s40.167 25.5 61.5 45.5c-12 20 -23 42.833 -33 68.5s-18.667 54.834 -26 87.501c-8.66699 36 -9.33398 62.167 -2.00098 78.5s22 23.833 44 22.5c1.33301 -35.333 6.66602 -72.333 15.999 -111s22 -74 38 -106
c8.66699 11.333 17.167 23.166 25.5 35.499s16.166 25.5 23.499 39.5c-24 10.667 -41.5 28.5 -52.5 53.5s-16.833 53.333 -17.5 85s2.83301 65 10.5 100s18.167 67.667 31.5 98s29 56.666 47 78.999s36.333 36.833 55 43.5c12.667 4.66699 24.167 5.16699 34.5 1.5
s19 -10.167 26 -19.5s12 -21.333 15 -36s3.5 -31 1.5 -49c-1.33301 -11.333 -4 -25.333 -8 -42s-8.83301 -35 -14.5 -55s-12 -40.833 -19 -62.5s-14.333 -43 -22 -64s-15.334 -40.833 -23.001 -59.5s-15.167 -35 -22.5 -49c-12 -23.333 -24.5 -45.333 -37.5 -66
s-26.5 -39.667 -40.5 -57c12 -19.333 25 -35.5 39 -48.5s29.167 -21 45.5 -24s33.333 -0.5 51 7.5s36.167 23.667 55.5 47c4 2.66699 8 3.83398 12 3.50098s7.16699 -2 9.5 -5s3.5 -6.83301 3.5 -11.5s-2 -9.33398 -6 -14.001zM296.007 236.002
c10 21.333 20.9961 47.334 32.9961 78.001s23.333 61.834 34 93.501s19.834 62 27.501 91s12.5 52.167 14.5 69.5c2.66699 26 -0.166016 45.333 -8.49902 58s-22.166 15.667 -41.499 9c-14 -5.33301 -28 -17.833 -42 -37.5s-26.5 -42.834 -37.5 -69.501
s-20 -55.334 -27 -86.001s-10.333 -60 -10 -88s4.83301 -52.667 13.5 -74s23.334 -36 44.001 -44z" />
    <glyph glyph-name="R" unicode="R" horiz-adv-x="489" 
d="M-176 220c1.33301 -20 3.83789 -40.5049 7.50488 -61.5049s9.33398 -40 17.001 -57s17.667 -31 30 -42s27.833 -16.833 46.5 -17.5c14.667 -0.666992 30.667 10.333 48 33s35.166 52.334 53.499 89.001s36.666 78.5 54.999 125.5l53.5 142.5l48.5 139.5l39.5 117.5
c-28 -6 -55.833 -16.667 -83.5 -32s-53.5 -32.5 -77.5 -51.5s-45.667 -38.167 -65 -57.5s-34.666 -36.333 -45.999 -51c-2 -2 -4.66699 -3.33301 -8 -4s-6.66602 -0.666992 -9.99902 0s-5.83301 1.83398 -7.5 3.50098s-1.83398 3.5 -0.500977 5.5
c14.667 17.333 32.334 36.833 53.001 58.5s44 42.5 70 62.5s54.333 37.833 85 53.5s63 26.5 97 32.5l8 24h74l-6 -20c50 -3.33301 87.5 -16 112.5 -38s39.167 -48.167 42.5 -78.5s-2.5 -62.666 -17.5 -96.999s-37.5 -65.5 -67.5 -93.5c-25.333 -24 -55 -43.667 -89 -59
s-71.333 -23.666 -112 -24.999c2.66699 -28.667 7.5 -58 14.5 -88s16.333 -58.167 28 -84.5s25 -49.666 40 -69.999s31.667 -34.833 50 -43.5s38.166 -10 59.499 -4s43.666 21.667 66.999 47c7.33301 5.33301 13.166 5.16602 17.499 -0.500977s2.83301 -12.5 -4.5 -20.5
c-28.667 -28 -58.5 -44.833 -89.5 -50.5s-60.833 -0.833984 -89.5 14.499s-54.834 41.5 -78.501 78.5s-42.5 84.167 -56.5 141.5c-16 -33.333 -32.333 -64.5 -49 -93.5s-33.5 -54.333 -50.5 -76s-34.167 -39 -51.5 -52s-34.666 -19.833 -51.999 -20.5
c-28.667 -1.33301 -51.334 4.33398 -68.001 17.001s-28.834 29.667 -36.501 51s-11.334 45.333 -11.001 72s3.5 53.334 9.5 80.001zM179.005 345.995c26.667 4.66699 52.334 15.667 77.001 33s46.5 37.833 65.5 61.5s34.167 49 45.5 76s17.166 52.5 17.499 76.5
s-6.16699 45 -19.5 63s-35 29.667 -65 35l-21 -67.5c-8 -25.667 -17.167 -53.667 -27.5 -84l-33.5 -95c-12 -33 -25 -65.833 -39 -98.5z" />
    <glyph glyph-name="S" unicode="S" horiz-adv-x="380" 
d="M94 297c-29.333 -47.333 -46.167 -89.998 -50.5 -127.998s-1.33301 -67.833 9 -89.5s25.333 -33.334 45 -35.001s39.167 9.83301 58.5 34.5c14.667 20 24.667 41.5 30 64.5s7.33301 46.667 6 71s-5.16602 49.166 -11.499 74.499s-13.333 50.166 -21 74.499l-23 70.5
c-7.66699 22.667 -13.5 44 -17.5 64s-6.66699 40.333 -8 61s-0.333008 40.5 3 59.5s9.5 36.667 18.5 53s22.167 30.166 39.5 41.499c20 12.667 40.667 18.834 62 18.501s40.333 -5.83301 57 -16.5s29.5 -26 38.5 -46s10.833 -44 5.5 -72
c-2 -10.667 -5.5 -21.167 -10.5 -31.5s-11.167 -20.166 -18.5 -29.499c-6.66699 -4 -11.667 -3.83301 -15 0.5s-3.33301 9.5 0 15.5c16.667 24.667 24.667 47.5 24 68.5s-6.16699 38.167 -16.5 51.5s-23.5 22 -39.5 26s-31.167 2 -45.5 -6s-25.666 -23.167 -33.999 -45.5
s-9.83301 -53.166 -4.5 -92.499c3.33301 -24.667 9.16602 -51.334 17.499 -80.001l26.5 -88c9.33301 -30 17.666 -60.167 24.999 -90.5s11.833 -60 13.5 -89s-0.833008 -56.5 -7.5 -82.5s-19.667 -49.333 -39 -70s-40 -33.667 -62 -39s-42.667 -4.83301 -62 1.5
s-36 18 -50 35s-22 38 -24 63s3 53 15 84s34 63.833 66 98.5z" />
    <glyph glyph-name="T" unicode="T" horiz-adv-x="401" 
d="M78 1c6.66699 22 17.165 50.9971 31.498 86.9971l49.5 119l61 136.5l65.5 139l62.5 126l52 99.5c-37.333 6 -74.333 11.667 -111 17s-72.334 9 -107.001 11c15.333 12.667 37.833 19.834 67.5 21.501s63.334 0.833984 101.001 -2.49902s78 -7.66602 121 -12.999
s85.833 -8.83301 128.5 -10.5s83.5 0 122.5 5s73.5 16.167 103.5 33.5c-17.333 -26 -38.666 -45.333 -63.999 -58s-53.666 -21 -84.999 -25s-65 -4.5 -101 -1.5s-72.667 7.16699 -110 12.5l-62.5 -123l-65 -134l-63 -135l-56 -125.5l-45 -105.5
c-13 -31.333 -22.833 -56.333 -29.5 -75z" />
    <glyph glyph-name="U" unicode="U" horiz-adv-x="541" 
d="M149 732c-8.66699 -21.333 -18.834 -48.832 -30.501 -82.499l-36.5 -110c-12.667 -39.667 -24.834 -80.334 -36.501 -122.001s-22 -81 -31 -118s-15.5 -70.167 -19.5 -99.5s-4.66699 -51 -2 -65c4 -19.333 14 -23.5 30 -12.5s35.667 32 59 63s49 69.333 77 115
l83.5 142.5l78.5 145.5l63 124.5l83 1l-51.5 -150c-18.333 -53.333 -35.166 -106.333 -50.499 -159s-28 -103 -38 -151s-14.667 -90 -14 -126c0.666992 -18.667 2.5 -33.834 5.5 -45.501s6.83301 -20.5 11.5 -26.5c10 -12.667 23.333 -14.834 40 -6.50098s34.667 22 54 41
s39.166 41 59.499 66l57.5 69.5c4 4 8.83301 3.83301 14.5 -0.5s5.83398 -9.83301 0.500977 -16.5l-56 -71c-20 -25.333 -40.333 -48.5 -61 -69.5s-41.167 -38 -61.5 -51s-39.5 -18.5 -57.5 -16.5c-26 2.66699 -44.833 14.834 -56.5 36.501s-18.667 48.5 -21 80.5
s-0.666016 67.5 5.00098 106.5s12.834 77.167 21.501 114.5s17.834 72 27.501 104s18.167 57.333 25.5 76l-36.5 -68l-47.5 -87l-55 -93.5c-19.333 -31.667 -38.5 -60.667 -57.5 -87s-37.333 -48.666 -55 -66.999s-33.834 -29.833 -48.501 -34.5
c-32 -10 -55.667 -3.66699 -71 19c-11.333 16 -17.833 38.5 -19.5 67.5s-0.166992 61.5 4.5 97.5s11.5 74 20.5 114s19 79.333 30 118s22 74.667 33 108l28.5 85c-1.33301 0 -1.83301 0.333008 -1.5 1s3.5 2.16699 9.5 4.5l30.5 12c14.333 5.66699 35.166 13.5 62.499 23.5z
" />
    <glyph glyph-name="V" unicode="V" horiz-adv-x="388" 
d="M157 725c-17.333 -41.333 -34.502 -85.3252 -51.502 -131.992s-33 -93.167 -48 -139.5s-28.5 -91.333 -40.5 -135s-21.5 -83.334 -28.5 -119.001s-10.833 -65.834 -11.5 -90.501s2.5 -41.667 9.5 -51s18.5 -9.33301 34.5 0s37.667 30.666 65 63.999
c32.667 40 64.834 85.333 96.501 136s62 102.5 91 155.5s56.167 105.5 81.5 157.5l69 143h29l-72.5 -152c-27 -54.667 -55.5 -109.334 -85.5 -164.001s-61 -107.334 -93 -158.001s-63.333 -95.334 -94 -134.001c-28 -34.667 -55.167 -60.834 -81.5 -78.501
s-49.166 -25 -68.499 -22s-34 17.167 -44 42.5s-12.667 63.666 -8 114.999c3.33301 34.667 10.5 74.167 21.5 118.5s24 89.833 39 136.5s30.667 92.667 47 138s31.833 86.333 46.5 123z" />
    <glyph glyph-name="W" unicode="W" horiz-adv-x="696" 
d="M147 727l-34.502 -98.4922l-40.5 -119l-41.5 -128c-13.667 -43.667 -26 -85.834 -37 -126.501s-20 -78.667 -27 -114s-10.833 -65.333 -11.5 -90c-0.666992 -33.333 4.33301 -52.833 15 -58.5s24.667 -2 42 11s37 33 59 60s44 56.667 66 89s43 65.166 63 98.499
s36.667 62.666 50 87.999c6 23.333 12.667 46.5 20 69.5l22 69.5h78c-13.333 -42 -26 -84.667 -38 -128s-21.667 -84 -29 -122s-12 -71.5 -14 -100.5s0.333008 -49.667 7 -62s18.167 -14.666 34.5 -6.99902s38.833 28.834 67.5 63.501c32.667 40 65.334 85.333 98.001 136
s63.834 102.5 93.501 155.5s57.5 105.5 83.5 157.5l70 143h29c-21.333 -46.667 -45.833 -97.334 -73.5 -152.001s-57 -109.334 -88 -164.001s-62.833 -107.334 -95.5 -158.001s-64.334 -95.334 -95.001 -134.001c-28 -34.667 -55.167 -60.834 -81.5 -78.501
s-49.166 -25 -68.499 -22s-34 17.167 -44 42.5s-12.667 63.666 -8 114.999c1.33301 14 3 28.167 5 42.5s4.66699 29.166 8 44.499c-15.333 -28 -32.5 -57 -51.5 -87s-38.833 -58.5 -59.5 -85.5s-42.167 -51 -64.5 -72s-44.833 -36.5 -67.5 -46.5
c-19.333 -8 -35 -10.167 -47 -6.5s-21.5 10.5 -28.5 20.5s-11.833 22.167 -14.5 36.5s-4 28.166 -4 41.499c0 28 5 66.5 15 115.5s22.833 102.667 38.5 161s33 118.333 52 180s37.5 118.834 55.5 171.501z" />
    <glyph glyph-name="X" unicode="X" horiz-adv-x="769" 
d="M786 205c-39.333 -57.333 -78.333 -101.171 -117 -131.504s-75.667 -49.666 -111 -57.999s-68.833 -7.33301 -100.5 3s-59.834 27.833 -84.501 52.5s-45.667 55 -63 91s-29.666 75 -36.999 117c-20 -30 -41.667 -58.5 -65 -85.5s-48 -52.167 -74 -75.5
c-51.333 -44.667 -102.5 -77.5 -153.5 -98.5s-99.5 -29.333 -145.5 -25s-88.667 22 -128 53s-73 76.5 -101 136.5c-1.33301 3.33301 -1.16602 6.16602 0.500977 8.49902s4 3.83301 7 4.5s6 0.5 9 -0.5s5.16699 -2.83301 6.5 -5.5c24.667 -53.333 52.167 -93.333 82.5 -120
s62 -43 95 -49s66.667 -3.16699 101 8.5s68.166 29 101.499 52s65.333 50.5 96 82.5s59 65 85 99c17.333 23.333 34.333 49 51 77s31.167 56.833 43.5 86.5s21.833 59.334 28.5 89.001s8.66699 57.5 6 83.5c-2 16.667 -7.66699 32.334 -17 47.001
s-21.166 26.834 -35.499 36.501s-31.166 16.167 -50.499 19.5s-40.333 2 -63 -4c-24 -6.66699 -47.167 -16.834 -69.5 -30.501s-43.5 -33.5 -63.5 -59.5c-2.66699 -3.33301 -5.83398 -5.33301 -9.50098 -6s-6.66699 -0.333984 -9 0.999023s-3.83301 3.33301 -4.5 6
s0.333008 5.33398 3 8.00098c22 28 45 50 69 66s49 27.667 75 35c32.667 10 63.667 13.667 93 11s55 -10.5 77 -23.5s39.5 -30.5 52.5 -52.5s20.167 -47.333 21.5 -76c12.667 16.667 29.334 34.667 50.001 54s43.334 36.833 68.001 52.5s50.667 28.334 78 38.001
s54 13.5 80 11.5c24 -1.33301 44.833 -6.66602 62.5 -15.999s30.5 -21.166 38.5 -35.499s10.833 -30.333 8.5 -48s-11.5 -34.834 -27.5 -51.501c-2 -2.66699 -4.5 -4 -7.5 -4s-5.66699 0.833008 -8 2.5s-3.83301 3.5 -4.5 5.5s0.333008 4 3 6c16 18 23.833 36.5 23.5 55.5
s-7.5 34.167 -21.5 45.5s-33.833 17.166 -59.5 17.499s-55.167 -8.83398 -88.5 -27.501c-46.667 -26 -86.667 -56 -120 -90s-59.833 -70.667 -79.5 -110s-32.334 -80.666 -38.001 -123.999s-3.83398 -87.666 5.49902 -132.999c12 -58 32.667 -102.5 62 -133.5
s63.5 -47.333 102.5 -49s80.667 12.333 125 42s87.166 76.167 128.499 139.5c6 5.33301 11.5 5 16.5 -1s5.16699 -12.667 0.5 -20z" />
    <glyph glyph-name="Y" unicode="Y" horiz-adv-x="604" 
d="M377 722c-17.333 -25.333 -33.1738 -54.6699 -47.5068 -88.0029s-26.333 -66.333 -36 -99s-16.334 -62.5 -20.001 -89.5s-3.83398 -46.5 -0.500977 -58.5c3.33301 -11.333 11.333 -15 24 -11s28.334 13.167 47.001 27.5s39.334 33 62.001 56s45.334 47.5 68.001 73.5
l33 107.5l30 92.5h74c-1.33301 -4 -4.5 -15.833 -9.5 -35.5s-11.833 -45 -20.5 -76l-30 -104.5c-11.333 -38.667 -24.166 -79 -38.499 -121s-29.833 -84 -46.5 -126s-34.334 -81.667 -53.001 -119s-38.167 -71 -58.5 -101s-41.166 -53.667 -62.499 -71
c-35.333 -28 -66 -41 -92 -39c-23.333 1.33301 -42.666 8.66602 -57.999 21.999s-27.333 29.833 -36 49.5s-14.167 41.667 -16.5 66s-1.83301 48.333 1.5 72s9.33301 46 18 67s19.334 38.167 32.001 51.5c2.66699 2.66699 7.83398 3.83398 15.501 3.50098
s15.334 -1.66602 23.001 -3.99902s13.834 -5.33301 18.501 -9s6 -7.5 4 -11.5c-20.667 -19.333 -36 -40.833 -46 -64.5s-16 -46.834 -18 -69.501s-0.333008 -43.667 5 -63s13.166 -34.333 23.499 -45s22.5 -15.834 36.5 -15.501s29 9.16602 45 26.499
c20.667 22.667 40.667 51.334 60 86.001s37.666 72.5 54.999 113.5s34 84.333 50 130s31 90.834 45 135.501c-14 -16 -28.333 -31.5 -43 -46.5s-29.167 -28.667 -43.5 -41s-28 -22.666 -41 -30.999s-24.833 -13.5 -35.5 -15.5c-27.333 -6 -48.333 -2.33301 -63 11
c-9.33301 8.66699 -15.666 20.834 -18.999 36.501s-4.5 33.167 -3.5 52.5s3.66699 40 8 62s9.5 43.833 15.5 65.5s12.833 42.334 20.5 62.001s14.834 37.167 21.501 52.5z" />
    <glyph glyph-name="Z" unicode="Z" horiz-adv-x="496" 
d="M136 540c-7.33301 26.667 -10.4941 51.499 -9.49414 74.499s7 43.167 18 60.5s27.167 31 48.5 41s48.666 15.667 81.999 17c38 0.666992 69.5 -4 94.5 -14s44.667 -23.667 59 -41s23.166 -37.5 26.499 -60.5s2.5 -46.833 -2.5 -71.5s-14.333 -49.334 -28 -74.001
s-30.5 -47.334 -50.5 -68.001c-15.333 -16.667 -32.666 -31.5 -51.999 -44.5s-40.333 -23.167 -63 -30.5c12.667 -3.33301 23.834 -8.16602 33.501 -14.499s18.167 -14.166 25.5 -23.499l93.5 39.5l84.5 34.5c4.66699 1.33301 8.66699 1.16602 12 -0.500977
s5.66602 -4.16699 6.99902 -7.5s1.66602 -6.66602 0.999023 -9.99902s-2.66699 -6 -6 -8l-84.5 -34.5l-92.5 -38.5c9.33301 -20 14.833 -42.5 16.5 -67.5s-0.333008 -50.167 -6 -75.5s-14.5 -49.333 -26.5 -72s-26.667 -41.334 -44 -56.001
c-26 -22 -51.5 -34.167 -76.5 -36.5s-47.167 1.83398 -66.5 12.501s-34.833 26.167 -46.5 46.5s-17.334 42.5 -17.001 66.5s7.5 47.833 21.5 71.5s37.333 43.834 70 60.501l50.5 25c19 9.33301 39.167 18.666 60.5 27.999c-6.66699 13.333 -15.334 24.333 -26.001 33
s-24 13.667 -40 15c-4.66699 -0.666992 -9.16699 -1.16699 -13.5 -1.5s-8.83301 -0.5 -13.5 -0.5l5 24c27.333 4.66699 53.666 17 78.999 37s47.5 43.833 66.5 71.5s33.667 56.834 44 87.501s14.333 59 12 85s-12.333 47.5 -30 64.5s-45.167 25.5 -82.5 25.5
c-40.667 0 -72.334 -15.667 -95.001 -47s-35.667 -72.333 -39 -123zM169.006 179.999c-21.333 -16 -36.333 -32.333 -45 -49s-12.834 -32.5 -12.501 -47.5s4.5 -28.167 12.5 -39.5s17.667 -19.833 29 -25.5s23.833 -7.33398 37.5 -5.00098s26.167 9.83301 37.5 22.5
c11.333 12 21 26.333 29 43s14.333 34.334 19 53.001s7.33398 37.5 8.00098 56.5s-1 36.5 -5 52.5c-22 -10 -42.5 -20.167 -61.5 -30.5s-35.167 -20.5 -48.5 -30.5z" />
    <glyph glyph-name="bracketleft" unicode="[" horiz-adv-x="370" 
d="M388 557c-44.667 -87.333 -87.499 -175.166 -128.499 -263.499l-125.5 -266.5c8.66699 -2 18 -3.83301 28 -5.5s20 -1.16699 30 1.5c3.33301 0.666992 6.16602 0.166992 8.49902 -1.5s4 -3.66699 5 -6s0.833008 -4.83301 -0.5 -7.5s-4 -4.33398 -8 -5.00098
c-12 -3.33301 -23.333 -4.5 -34 -3.5s-21 2.33301 -31 4s-19.833 3 -29.5 4s-19.5 -0.5 -29.5 -4.5c-4.66699 -2.66699 -9.33398 -1.66699 -14.001 3s-5.66699 8.66699 -3 12l43.5 89.5l43.5 89.5l90 198.5l95 194.5c2.66699 4.66699 5.66699 7.16699 9 7.5
s6.33301 -0.5 9 -2.5c14.667 -9.33301 30.167 -14.333 46.5 -15s32.166 1.33301 47.499 6c3.33301 0.666992 6.33301 0 9 -2s4.33398 -4.5 5.00098 -7.5s0.333984 -6 -0.999023 -9s-4 -4.83301 -8 -5.5c-10 -2.66699 -20 -4.16699 -30 -4.5s-19 -0.5 -27 -0.5z" />
    <glyph glyph-name="backslash" unicode="\" horiz-adv-x="392" 
d="M67 722c18.667 -50 38.167 -104.999 58.5 -164.999l61.5 -183.5l62.5 -184c21 -60.333 41.5 -115.5 61.5 -165.5c2.66699 -5.33301 2.5 -9.83301 -0.5 -13.5s-7 -6.16699 -12 -7.5s-10.333 -1.33301 -16 0s-9.5 4.66602 -11.5 9.99902l-54 161l-60.5 180l-63.5 183
l-62 171c-2.66699 6.66699 -3 12 -1 16s5.16699 6.5 9.5 7.5s9 0.833008 14 -0.5s9.5 -4.33301 13.5 -9z" />
    <glyph glyph-name="bracketright" unicode="]" horiz-adv-x="319" 
d="M-40 45l127.999 264.001l124 266c-8.66699 2.66699 -18 4.16699 -28 4.5s-20 -1.16699 -30 -4.5c-3.33301 -1.33301 -6.16602 -1 -8.49902 1s-4 4.5 -5 7.5s-0.833008 6.16699 0.5 9.5s4.33301 5.66602 9 6.99902c12.667 2.66699 24.167 3.33398 34.5 2.00098
s20.5 -2.83301 30.5 -4.5s19.667 -2.83398 29 -3.50098s19.333 1.33301 30 6c6 2 10.833 0.666992 14.5 -4s4.5 -9.33398 2.5 -14.001l-72.5 -144.5l-71 -148.5l-67.5 -145l-62 -133c-4 -6.66699 -10 -7.66699 -18 -3c-14.667 5.33301 -29.667 8.83301 -45 10.5
s-30.333 0.833984 -45 -2.49902c-4.66699 -1.33301 -8.5 -1 -11.5 1s-5 4.66699 -6 8s-0.833008 6.5 0.5 9.5s4 4.83301 8 5.5c10 2.66699 20 4.16699 30 4.5s19.667 0.5 29 0.5z" />
    <glyph glyph-name="asciicircum" unicode="^" horiz-adv-x="326" 
d="M89 453c-2 -4.66699 -5.1709 -7.83203 -9.50391 -9.49902s-8.16602 -1.5 -11.499 0.5c-6.66699 0 -11 2.16699 -13 6.5s-2 9.16602 0 14.499c12.667 29.333 24.5 59.166 35.5 89.499s21.5 61.166 31.5 92.499c4.66699 8.66699 10.834 13 18.501 13
s12.834 -4.33301 15.501 -13l70 -182c0 -5.33301 -1.16699 -10.166 -3.5 -14.499s-5.16602 -6.5 -8.49902 -6.5c-4.66699 -2 -9.5 -2.16699 -14.5 -0.5s-7.5 4.83398 -7.5 9.50098l-54 112z" />
    <glyph glyph-name="underscore" unicode="_" horiz-adv-x="620" 
d="M76 -3c-4.66699 0 -8.5 1.83301 -11.5 5.5s-4.5 7.5 -4.5 11.5c0 6 1.5 11 4.5 15s6.83301 6 11.5 6h385c6 0 11 -2 15 -6s6 -9 6 -15c0 -4 -2 -7.83301 -6 -11.5s-9 -5.5 -15 -5.5h-385z" />
    <glyph glyph-name="grave" unicode="`" horiz-adv-x="318" 
d="M56 640c0 6 2 11.5078 6 16.5078s9.33301 7.5 16 7.5c16 0 33.167 -3.33301 51.5 -10s35.333 -15.834 51 -27.501s28.5 -25.334 38.5 -41.001s15 -32.5 15 -50.5c0 -6 -1.66699 -10.833 -5 -14.5s-7.33301 -5.83398 -12 -6.50098s-9 0.166016 -13 2.49902
s-6.33301 6.16602 -7 11.499c-2 7.33301 -6.66699 13.166 -14 17.499s-16 8.16602 -26 11.499l-31.5 10c-11 3.33301 -21.5 7.83301 -31.5 13.5s-18.5 13.167 -25.5 22.5s-11.167 21.666 -12.5 36.999z" />
    <glyph glyph-name="a" unicode="a" horiz-adv-x="425" 
d="M189 436c0.666992 0 1.16699 -0.166992 1.5 -0.5s0.833008 -0.5 1.5 -0.5l7 20l75 -1l-16 -39.5l-26.5 -68.5c-9.66699 -26 -19.5 -54 -29.5 -84s-18.833 -58.667 -26.5 -86s-13.5 -52 -17.5 -74s-4.5 -38.333 -1.5 -49s10 -14.167 21 -10.5s27.833 17.5 50.5 41.5
c20.667 22.667 42 48.834 64 78.501s42.167 58.5 60.5 86.5l47.5 74.5c13.333 21.667 21.666 35.5 24.999 41.5c2 3.33301 4.66699 5.33301 8 6s6.16602 0.166992 8.49902 -1.5s4 -4 5 -7s0.5 -6.5 -1.5 -10.5c-3.33301 -6 -11 -18.833 -23 -38.5l-44 -69.5
c-17.333 -26.667 -36.666 -54.5 -57.999 -83.5s-42.666 -55.667 -63.999 -80s-41.833 -44.166 -61.5 -59.499s-36.834 -22.333 -51.501 -21c-11.333 2 -20 7.66699 -26 17s-10.167 20.5 -12.5 33.5s-3.16602 27.333 -2.49902 43s2.16699 31 4.5 46s4.83301 28.833 7.5 41.5
s5 23 7 31c-8 -8.66699 -17 -16.834 -27 -24.501s-20.5 -14.334 -31.5 -20.001s-22.167 -9.5 -33.5 -11.5s-22 -1.33301 -32 2c-18 5.33301 -30.667 15.5 -38 30.5s-10.5 32.333 -9.5 52s5.83301 40.5 14.5 62.5s20.667 42.667 36 62c10.667 14 23 26.667 37 38
s29 20.5 45 27.5s33 11.167 51 12.5s36.667 -1 56 -7zM178 415c-19.333 6 -37.667 4.83301 -55 -3.5s-32.833 -20.333 -46.5 -36s-25 -33.5 -34 -53.5s-14.833 -38.833 -17.5 -56.5s-1.5 -32.667 3.5 -45s14.5 -18.5 28.5 -18.5c11.333 0 21.333 2.5 30 7.5
s16.334 11.167 23.001 18.5s12.167 14.833 16.5 22.5s8.16602 14.167 11.499 19.5c8 27.333 16.167 53.5 24.5 78.5l21.5 64.5z" />
    <glyph glyph-name="b" unicode="b" horiz-adv-x="376" 
d="M-119 47l21.498 60.0107l28 76l33 87l36.5 95c16.667 43.333 35.167 86.166 55.5 128.499s42 82.333 65 120s47.667 71.5 74 101.5s53.833 54.333 82.5 73c36 23.333 66.5 35.166 91.5 35.499s43.667 -7.16699 56 -22.5s17.833 -36.333 16.5 -63
s-10.666 -55.334 -27.999 -86.001c-12 -21.333 -27.5 -42.833 -46.5 -64.5s-41.333 -41.667 -67 -60s-54.834 -34.5 -87.501 -48.5s-68.667 -24.333 -108 -31c-6 -12.667 -11.167 -23.167 -15.5 -31.5s-8.33301 -16.5 -12 -24.5l-12 -26.5
c-4.33301 -9.66699 -9.5 -22.167 -15.5 -37.5c16.667 10.667 34 16.167 52 16.5s34.833 -3.83398 50.5 -12.501s29.167 -21.334 40.5 -38.001s18.666 -37 21.999 -61c32 16 61.833 34.5 89.5 55.5s51.834 46.167 72.501 75.5c2 3.33301 4.5 5.16602 7.5 5.49902
s5.83301 -0.333984 8.5 -2.00098s4.66699 -3.83398 6 -6.50098s1 -5.33398 -1 -8.00098c-22.667 -34 -50 -62.5 -82 -85.5s-65.667 -43.167 -101 -60.5c-1.33301 -20 -6.16602 -41.167 -14.499 -63.5s-20 -43.333 -35 -63s-33.167 -36.667 -54.5 -51
s-45.333 -23.166 -72 -26.499c-15.333 -2 -28.5 0.333008 -39.5 7s-18.667 15.834 -23 27.501s-5 25 -2 40s10.833 30.167 23.5 45.5c10 12 22 22.167 36 30.5s28.167 15.333 42.5 21s27.833 10.167 40.5 13.5s22.667 6.33301 30 9c2 19.333 -0.166992 37.166 -6.5 53.499
s-15.166 29.166 -26.499 38.499s-24 14.666 -38 15.999s-27.333 -3.33398 -40 -14.001l-21.5 -56.5l-26 -66.5l-25.5 -66.5l-21 -56.5zM115.998 474.011c35.333 7.33301 67.334 17.499 96.001 30.499s54.334 28 77.001 45s42.167 35.5 58.5 55.5s29.833 40 40.5 60
c10 19.333 17.333 39.166 22 59.499s4.66699 36.333 0 48s-14.834 16.834 -30.501 15.501s-38.5 -13.666 -68.5 -36.999c-18.667 -14.667 -37.167 -32.834 -55.5 -54.501s-35.833 -45.167 -52.5 -70.5s-32.334 -51.166 -47.001 -77.499zM141.999 168.01
c-26 -4.66699 -48.5039 -12 -67.5039 -22s-34.167 -20.667 -45.5 -32s-19.166 -22.333 -23.499 -33s-5.16602 -19 -2.49902 -25s8.83398 -9 18.501 -9s22.834 5.33301 39.501 16c5.33301 3.33301 12 8.33301 20 15s15.833 14.5 23.5 23.5s15 19.167 22 30.5
s12.167 23.333 15.5 36z" />
    <glyph glyph-name="c" unicode="c" 
d="M352 351c-25.333 -42.667 -52.333 -84.6709 -81 -126.004s-57.5 -78.166 -86.5 -110.499s-57.167 -58.833 -84.5 -79.5s-52.666 -32 -75.999 -34c-24.667 -2 -43.834 3 -57.501 15s-23.167 28.167 -28.5 48.5s-7.16602 43.833 -5.49902 70.5s5.66699 53.667 12 81
s14.5 54 24.5 80s20.333 48.667 31 68l8.5 14c2.33301 4 5.16602 8 8.49902 12c14 18 30.833 34 50.5 48s41.834 20 66.501 18c11.333 -1.33301 22.666 -5.66602 33.999 -12.999s18.666 -18 21.999 -32c3.33301 -14.667 2.33301 -32.167 -3 -52.5
s-17.333 -41.166 -36 -62.499c-2 -3.33301 -4.33301 -5 -7 -5s-5 0.833008 -7 2.5s-3.16699 4 -3.5 7s0.5 5.83301 2.5 8.5c16 21.333 26.167 39.833 30.5 55.5s4.83301 27.834 1.5 36.501s-10.166 13.667 -20.499 15s-21.833 -1.66699 -34.5 -9
c-15.333 -8.66699 -30.166 -24 -44.499 -46s-27 -47 -38 -75s-20.167 -57 -27.5 -87s-11.833 -57.667 -13.5 -83s0.166016 -46 5.49902 -62s14.666 -24 27.999 -24c15.333 0 32.666 6.5 51.999 19.5s39.333 29.833 60 50.5s41.334 43.667 62.001 69s39.834 50.333 57.501 75
l47.5 69c14 21.333 24.667 38.333 32 51c4.66699 4 9.5 4.5 14.5 1.5s6.16699 -7.83301 3.5 -14.5z" />
    <glyph glyph-name="d" unicode="d" horiz-adv-x="393" 
d="M229 107l42.0039 61.5068l43.5 68.5l41.5 68l37 59c4.66699 5.33301 10 6.66602 16 3.99902s7.33301 -7.66699 4 -15l-39.5 -65.5l-47.5 -78c-16.667 -27 -33.834 -53.333 -51.501 -79s-34.834 -48.5 -51.501 -68.5s-32.167 -35.833 -46.5 -47.5
s-26.5 -16.834 -36.5 -15.501c-16.667 3.33301 -28.5 12.666 -35.5 27.999s-11 33.166 -12 53.499s-0.166992 41.333 2.5 63s5.66699 40.167 9 55.5c-20.667 -19.333 -40.334 -32.166 -59.001 -38.499s-35.334 -7.5 -50.001 -3.5c-22 6 -35.5 18.167 -40.5 36.5
s-5.33301 38.5 -1 60.5s11.333 43.333 21 64s18.167 36 25.5 46c20.667 29.333 47.167 51.666 79.5 66.999s67.833 18 106.5 8c18.667 45.333 39.167 91.166 61.5 137.499s46.333 90.333 72 132s52.834 79.334 81.501 113.001s58.667 60.5 90 80.5
c36 23.333 66.5 35.166 91.5 35.499s43.667 -7.16699 56 -22.5s17.833 -36.333 16.5 -63s-10.666 -55.334 -27.999 -86.001c-12 -21.333 -27.5 -42.833 -46.5 -64.5s-41.333 -41.667 -67 -60s-54.834 -34.5 -87.501 -48.5s-68.667 -24.333 -108 -31
c-10 -17.333 -21.5 -40.5 -34.5 -69.5s-26.167 -60.833 -39.5 -95.5s-26.333 -70.334 -39 -107.001s-23.334 -71 -32.001 -103s-15 -60.167 -19 -84.5s-4.33301 -41.5 -1 -51.5s11 -11.167 23 -3.5s29.667 27.5 53 59.5zM330.004 588.007
c35.333 7.33301 67.334 17.499 96.001 30.499s54.334 28 77.001 45s42.167 35.5 58.5 55.5s29.833 40 40.5 60c10 19.333 17.333 39.166 22 59.499s4.66699 36.333 0 48s-14.834 16.834 -30.501 15.501s-38.5 -13.666 -68.5 -36.999
c-18.667 -14.667 -37.167 -32.834 -55.5 -54.501s-35.833 -45.167 -52.5 -70.5s-32.334 -51.166 -47.001 -77.499zM176.005 417.006c-19.333 5.33301 -37.665 2.66797 -54.998 -7.99902s-32.5 -25.167 -45.5 -43.5s-23.833 -38.666 -32.5 -60.999
s-14.334 -42.833 -17.001 -61.5s-1.83398 -33.334 2.49902 -44.001s12.833 -13.334 25.5 -8.00098c10.667 4 21.167 10.833 31.5 20.5s20.5 21.167 30.5 34.5c11.333 29.333 21.5 58.833 30.5 88.5s18.833 57.167 29.5 82.5z" />
    <glyph glyph-name="e" unicode="e" 
d="M352 351c-25.333 -42.667 -52.3379 -84.668 -81.0049 -126.001s-57.5 -78.166 -86.5 -110.499s-57.167 -58.833 -84.5 -79.5s-52.666 -32 -75.999 -34c-24.667 -2 -43.834 3 -57.501 15s-23.167 28.167 -28.5 48.5s-7.16602 43.833 -5.49902 70.5s5.66699 53.667 12 81
s14.5 54 24.5 80s20.333 48.667 31 68l8.5 14c2.33301 4 5.16602 8 8.49902 12c14 18 30.833 34 50.5 48s41.834 20 66.501 18c20 -3.33301 34 -9.33301 42 -18s12 -18.5 12 -29.5s-3.5 -22.5 -10.5 -34.5s-15.5 -23.333 -25.5 -34
c-13.333 -13.333 -30.333 -24.666 -51 -33.999s-43.334 -17.333 -68.001 -24c-11.333 -28 -20.666 -56.833 -27.999 -86.5s-11.666 -56.834 -12.999 -81.501s0.333984 -44.834 5.00098 -60.501s13.334 -23.5 26.001 -23.5c15.333 0 32.666 6.5 51.999 19.5
s39.333 29.667 60 50s41.334 43.333 62.001 69s39.834 50.834 57.501 75.501l47.5 69c14 21.333 24.667 38.333 32 51c4.66699 4 9.5 4.5 14.5 1.5s6.16699 -7.83301 3.5 -14.5zM131.995 350.999c9.33301 8.66699 16.666 17.3311 21.999 25.998s8.33301 16.334 9 23.001
s-1 11.667 -5 15s-10.333 4 -19 2c-17.333 -5.33301 -33.833 -17.833 -49.5 -37.5s-30.167 -43.167 -43.5 -70.5c14.667 2 29.834 6.83301 45.501 14.5s29.167 16.834 40.5 27.501z" />
    <glyph glyph-name="f" unicode="f" horiz-adv-x="294" 
d="M0 364c18.667 42 39.0039 84.5 61.0039 127.5s45 81.833 69 116.5s48.167 62.834 72.5 84.501s48.5 32.5 72.5 32.5c19.333 0 35.166 -6.5 47.499 -19.5s18.5 -31.5 18.5 -55.5c0 -18 -4.16699 -37.667 -12.5 -59s-21.666 -42.333 -39.999 -63
s-42.5 -40.334 -72.5 -59.001s-67 -35 -111 -49l-37.5 -72.5c-10.333 -20.333 -20.5 -41.666 -30.5 -63.999s-21 -48.333 -33 -78l-46 -113.5c31.333 14 62.666 31 93.999 51s61.666 42 90.999 66s56.833 49.333 82.5 76s48.5 53.334 68.5 80.001
c2.66699 4 5.66699 6.16699 9 6.5s6.33301 -0.333984 9 -2.00098s4.16699 -4.16699 4.5 -7.5s-0.833984 -6.33301 -3.50098 -9c-49.333 -64 -105.166 -121.5 -167.499 -172.5s-129.166 -90.167 -200.499 -117.5c19.333 -20.667 32.166 -45.5 38.499 -74.5s8 -59.333 5 -91
s-10.167 -62.834 -21.5 -93.501s-24.833 -58.334 -40.5 -83.001s-32.834 -44.667 -51.501 -60s-37.334 -23 -56.001 -23c-14.667 0 -26.5 6 -35.5 18s-13.5 29.667 -13.5 53c0 22.667 3.83301 50.334 11.5 83.001s17.667 68 30 106s26.5 77.833 42.5 119.5l49.5 124
l50.5 118.5zM-64.9961 36c-17.333 -43.333 -32.332 -83.666 -44.999 -120.999s-23.334 -70.833 -32.001 -100.5s-15 -54.834 -19 -75.501s-6 -35.667 -6 -45c0 -11.333 2.66699 -17 8 -17c11.333 1.33301 23.5 9 36.5 23s25.167 31.5 36.5 52.5s21.5 44.667 30.5 71
s15 52.5 18 78.5s2.66699 50.833 -1 74.5s-12.5 43.5 -26.5 59.5zM120.005 454c36.667 12.667 67.167 27.1689 91.5 43.502s44 33.166 59 50.499s25.667 34.333 32 51s9.5 32 9.5 46c0 15.333 -3.16699 27.666 -9.5 36.999s-14.166 14 -23.499 14c-8 0 -17 -5 -27 -15
s-20.333 -22.667 -31 -38s-21.334 -32.5 -32.001 -51.5s-20.5 -37.5 -29.5 -55.5l-24 -49z" />
    <glyph glyph-name="g" unicode="g" horiz-adv-x="459" 
d="M261 455l-38.9971 -142.497c-14 -49.667 -28.333 -97.167 -43 -142.5c24 9.33301 48 19.666 72 30.999s47.667 24.666 71 39.999s46.5 33 69.5 53s45.5 43.333 67.5 70c5.33301 6 10.166 7.5 14.499 4.5s4.83301 -8.16699 1.5 -15.5c-24 -30 -48.667 -56.167 -74 -78.5
s-50.833 -41.833 -76.5 -58.5s-51.5 -31 -77.5 -43s-51.333 -22.667 -76 -32l-64 -177c-22 -58 -48 -116.333 -78 -175c-18 -36 -40.333 -66.667 -67 -92s-55 -44.333 -85 -57c-35.333 -15.333 -68 -18 -98 -8s-51.333 29.667 -64 59s-14.167 66.666 -4.5 111.999
s36.167 95.666 79.5 150.999c22 28 45.333 51.667 70 71s50.167 36 76.5 50s53.333 26.333 81 37l82.5 31c2 6.66699 3.66699 12.5 5 17.5s2.66602 9.66699 3.99902 14s2.66602 9 3.99902 14s3.33301 11.167 6 18.5c-15.333 -12 -31.833 -21.5 -49.5 -28.5
s-34.167 -8.83301 -49.5 -5.5c-18 3.33301 -31.167 12 -39.5 26s-12.833 30.333 -13.5 49s1.83301 38.334 7.5 59.001s14.167 39.667 25.5 57c8.66699 14 19.5 26.833 32.5 38.5s27.5 21.167 43.5 28.5s33.333 12 52 14s38.667 0.333008 60 -5l4 15h69zM134.003 256.003
l10.501 39.001l11.5 43l12 43l11 38c-16 4 -31.5 2 -46.5 -6s-28.833 -19.333 -41.5 -34s-23.834 -31.334 -33.501 -50.001s-16.667 -36.5 -21 -53.5s-5.66602 -31.833 -3.99902 -44.5s7.16699 -20 16.5 -22c4.66699 -1.33301 11.334 -0.5 20.001 2.5s17.167 7 25.5 12
s16.166 10.333 23.499 16s12.666 11.167 15.999 16.5zM-130.996 -306.996c26.667 22.667 51.334 51.335 74.001 86.002s43.167 71.667 61.5 111s34.666 78.666 48.999 117.999l38.5 107l-88.5 -35.5c-28.333 -11.667 -55.5 -25.334 -81.5 -41.001s-50.667 -34.5 -74 -56.5
s-45.333 -49 -66 -81c-18 -28.667 -31.167 -55.167 -39.5 -79.5s-12.5 -47.166 -12.5 -68.499c0 -22.667 3.83301 -41.334 11.5 -56.001s18 -24.667 31 -30s27.833 -6 44.5 -2s34 13.333 52 28z" />
    <glyph glyph-name="h" unicode="h" horiz-adv-x="407" 
d="M234 451c10.667 -5.33301 16.498 -16.0039 17.498 -32.0039s-1.33301 -35.167 -7 -57.5s-13.5 -46.5 -23.5 -72.5l-31 -77.5l-30.5 -72.5c-9.66699 -22.667 -16.834 -41.667 -21.501 -57c-5.33301 -16.667 -5.66602 -29.667 -0.999023 -39s11.667 -11 21 -5
c23.333 14.667 46.833 35.667 70.5 63s46.334 56.5 68.001 87.5s42 62.167 61 93.5l49.5 82c2 4 4.83301 6.33301 8.5 7s7 0.166992 10 -1.5s5 -4.16699 6 -7.5s0.166992 -7 -2.5 -11c-5.33301 -8 -13.833 -22.667 -25.5 -44s-25.834 -45.666 -42.501 -72.999
s-35.167 -55.666 -55.5 -84.999s-41.666 -55.666 -63.999 -78.999s-45.166 -41.833 -68.499 -55.5s-46 -18.5 -68 -14.5c-12 2 -19.5 10.167 -22.5 24.5s-3.16699 31.833 -0.5 52.5s7.5 43.5 14.5 68.5s14.667 49.333 23 73s16.666 45.667 24.999 66l19.5 46.5
c8 18 14.167 34.167 18.5 48.5s5 23.833 2 28.5s-10.333 2.33398 -22 -6.99902s-29.167 -28.666 -52.5 -57.999c-14 -17.333 -30 -40.5 -48 -69.5s-36 -59.833 -54 -92.5s-35 -65 -51 -97s-29 -60 -39 -84h-68l31.5 80l34.5 85l38.5 93.5l45.5 106.5
c34.667 80.667 66.834 150.334 96.501 209.001s58 109 85 151s54 77.167 81 105.5s55.5 52.166 85.5 71.499c36 23.333 65.5 35.166 88.5 35.499s39.667 -7.16699 50 -22.5s13.833 -36.333 10.5 -63s-13.666 -55.334 -30.999 -86.001c-12 -21.333 -27.5 -42.833 -46.5 -64.5
s-41.333 -41.667 -67 -60s-54.834 -34.5 -87.501 -48.5s-68.667 -24.333 -108 -31c-22 -50 -45.667 -101 -71 -153s-49 -104.333 -71 -157c10 18.667 23.333 41.334 40 68.001s35 51.5 55 74.5s40.667 40.667 62 53s42 13.5 62 3.5zM168.998 587.996
c35.333 7.33301 67.334 17.499 96.001 30.499s54.334 28 77.001 45s42.167 35.5 58.5 55.5s29.833 40 40.5 60c10 19.333 17.333 39.166 22 59.499s4.66699 36.333 0 48s-14.834 16.834 -30.501 15.501s-38.5 -13.666 -68.5 -36.999
c-18.667 -14.667 -37.167 -32.834 -55.5 -54.501s-35.833 -45.167 -52.5 -70.5s-32.334 -51.166 -47.001 -77.499z" />
    <glyph glyph-name="i" unicode="i" horiz-adv-x="258" 
d="M87 563c13.333 0 23.333 -4.5 30 -13.5s10 -19 10 -30s-3.33301 -21 -10 -30s-16.667 -13.5 -30 -13.5c-15.333 0 -27 4.5 -35 13.5s-12 19 -12 30s4 21 12 30s19.667 13.5 35 13.5zM32 455l74.998 -0.998047l-15 -38.5l-25 -66.5
c-9.33301 -25.333 -18.666 -52.333 -27.999 -81s-17.666 -56.334 -24.999 -83.001s-12.833 -50.834 -16.5 -72.501s-4.16699 -38.167 -1.5 -49.5s9 -16 19 -14s25.333 13.667 46 35c21.333 22 42.833 47.833 64.5 77.5l60.5 86.5c18.667 28 34.5 52.833 47.5 74.5
s21.167 35.5 24.5 41.5c2 3.33301 4.66699 5.33301 8 6s6.16602 0.333984 8.49902 -0.999023s4 -3.5 5 -6.5s0.5 -6.5 -1.5 -10.5c-3.33301 -6 -11 -18.833 -23 -38.5l-44 -69.5c-17.333 -26.667 -36.666 -54.5 -57.999 -83.5s-42.666 -55.667 -63.999 -80
s-41.833 -44.166 -61.5 -59.499s-36.834 -22.333 -51.501 -21c-11.333 2 -20 8 -26 18s-10 22.167 -12 36.5s-2.5 29.666 -1.5 45.999s2.5 32.166 4.5 47.499c5.33301 36 13 71 23 105s22 71 36 111c5.33301 14 10.5 28.5 15.5 43.5z" />
    <glyph glyph-name="j" unicode="j" horiz-adv-x="286" 
d="M95 455l-38.999 -142.999c-14 -50.667 -28 -98 -42 -142c22.667 9.33301 45.5 19.666 68.5 30.999s46 24.666 69 39.999s45.833 33 68.5 53s44.667 43.333 66 70c4 4.66699 7.83301 7.16699 11.5 7.5s6.66699 -0.5 9 -2.5s3.83301 -4.66699 4.5 -8s-0.333008 -6 -3 -8
c-25.333 -30 -50.666 -56.167 -75.999 -78.5s-50.833 -41.833 -76.5 -58.5s-51.334 -31 -77.001 -43s-51.167 -22.667 -76.5 -32c-18.667 -60 -39 -119 -61 -177s-48 -116.333 -78 -175c-18 -36 -40.333 -66.833 -67 -92.5s-54.667 -44.5 -84 -56.5
c-25.333 -10 -48.666 -14.833 -69.999 -14.5s-39.833 5.5 -55.5 15.5s-27.834 24.5 -36.501 43.5s-13 41.5 -13 67.5c0 52.667 12.5 100 37.5 142s57 78.833 96 110.5s82 58.834 129 81.501s92.167 41 135.5 55c13.333 41.333 25.166 80.833 35.499 118.5l29.5 104.5l26 91
h69zM-296.999 -306.999c25.333 20.667 48.502 46.3369 69.502 77.0039s40.333 64.5 58 101.5s34.167 76 49.5 117s30 82.5 44 124.5c-38.667 -14 -79 -31.667 -121 -53s-80.5 -46.833 -115.5 -76.5s-64.333 -63.667 -88 -102s-36.167 -81.5 -37.5 -129.5
c-0.666992 -22.667 2.66602 -41.334 9.99902 -56.001s17.5 -24.834 30.5 -30.501s28.167 -6.33398 45.5 -2.00098s35.666 14.166 54.999 29.499zM35.0029 517.004c-1.33301 13.333 2.00098 23.8359 10.001 31.5029s17 12.167 27 13.5s19.5 -0.833984 28.5 -6.50098
s14.167 -15.167 15.5 -28.5c1.33301 -15.333 -1.83398 -26.833 -9.50098 -34.5s-16.667 -11.834 -27 -12.501s-20 2.16602 -29 8.49902s-14.167 15.833 -15.5 28.5z" />
    <glyph glyph-name="k" unicode="k" horiz-adv-x="464" 
d="M-134 -2l17.001 48.502l29.5 83.5l39.5 109.5c14.667 40.333 30.667 82.166 48 125.499c21.333 54 44.333 108.5 69 163.5s51 107 79 156s57.5 92.5 88.5 130.5s63.5 67 97.5 87c36.667 21.333 67.667 32 93 32s44 -7.33301 56 -22s17.167 -35 15.5 -61
s-11.167 -54.333 -28.5 -85c-12 -21.333 -27.5 -42.833 -46.5 -64.5s-41.333 -41.667 -67 -60s-54.834 -34.5 -87.501 -48.5s-68.667 -24.333 -108 -31l-50 -112.5l-59 -144.5c12 11.333 26.667 24.166 44 38.499s36.166 27.833 56.499 40.5s42 23.667 65 33
s46.167 15 69.5 17c15.333 1.33301 28.166 -2.33398 38.499 -11.001s12.833 -20 7.5 -34c-3.33301 -9.33301 -10.666 -19.833 -21.999 -31.5s-24.833 -23.5 -40.5 -35.5s-33 -23.5 -52 -34.5s-38 -21 -57 -30s-37.167 -16.5 -54.5 -22.5s-32 -9.33301 -44 -10
c-3.33301 -12 -5.16602 -26.167 -5.49902 -42.5s1.33398 -32.666 5.00098 -48.999s9.5 -31.666 17.5 -45.999s18.5 -25 31.5 -32s28.833 -9.33301 47.5 -7s40.334 11.5 65.001 27.5c27.333 18 53.666 40.333 78.999 67s48.666 54 69.999 82s39.833 54.5 55.5 79.5
s27.5 45.167 35.5 60.5c4 5.33301 7.66699 8.66602 11 9.99902s6.33301 1.16602 9 -0.500977s4.16699 -4.16699 4.5 -7.5s-0.5 -7.33301 -2.5 -12c-8 -16 -19.333 -36.333 -34 -61s-31.834 -50.834 -51.501 -78.501s-41.167 -55.167 -64.5 -82.5s-47.5 -51.333 -72.5 -72
s-50.167 -36.667 -75.5 -48s-49.666 -14.666 -72.999 -9.99902s-45.333 18.834 -66 42.501s-38.667 60.167 -54 109.5l-13.5 -38.5l-14.5 -43l-13.5 -41l-10.5 -32.5zM173.001 588.002c35.333 7.33301 67.334 17.499 96.001 30.499s54.334 28 77.001 45
s42.167 35.5 58.5 55.5s29.833 40 40.5 60c10 19.333 17.333 39.166 22 59.499s4.66699 36.333 0 48s-14.834 16.834 -30.501 15.501s-38.5 -13.666 -68.5 -36.999c-18.667 -14.667 -37.167 -32.834 -55.5 -54.501s-35.833 -45.167 -52.5 -70.5
s-32.334 -51.166 -47.001 -77.499zM69.002 254.001c14 2 31.5 7.16699 52.5 15.5s42.5 18.5 64.5 30.5s42.667 24.667 62 38s34.666 26 45.999 38c11.333 12.667 15 21.5 11 26.5s-13.333 5.83301 -28 2.5c-18.667 -3.33301 -38.667 -10.5 -60 -21.5
s-41.666 -23.833 -60.999 -38.5s-36.833 -30 -52.5 -46s-27.167 -31 -34.5 -45z" />
    <glyph glyph-name="l" unicode="l" horiz-adv-x="337" 
d="M15 41c11.333 2 27.5029 11.667 48.5029 29s43.5 38.166 67.5 62.499s48.333 50.333 73 78l67 76.5l48.5 57c12.333 14.667 18.166 21.334 17.499 20.001c2 3.33301 4.66699 5.33301 8 6s6.16602 0.333984 8.49902 -0.999023s4 -3.5 5 -6.5s0.5 -6.5 -1.5 -10.5
c-2.66699 -5.33301 -10.334 -16.166 -23.001 -32.499s-28.5 -35.666 -47.5 -57.999l-64 -72.5c-23.667 -26 -47.667 -50.833 -72 -74.5s-48.166 -44.834 -71.499 -63.501s-44.333 -32.334 -63 -41.001c-26.667 -12 -46 -13 -58 -3s-19.167 26.5 -21.5 49.5s-1 50.167 4 81.5
s11.333 62 19 92s15.5 57.333 23.5 82l17 52l7 20c17.333 48.667 37.666 99 60.999 151s49 101.5 77 148.5s58 89.667 90 128s65 68.5 99 90.5c36 23.333 66.5 35.166 91.5 35.499s43.667 -7.16699 56 -22.5s17.833 -36.333 16.5 -63s-10.666 -55.334 -27.999 -86.001
c-12 -21.333 -27.5 -42.833 -46.5 -64.5s-41.333 -41.667 -67 -60s-54.834 -34.5 -87.501 -48.5s-68.667 -24.333 -108 -31c-13.333 -28 -26.666 -57.833 -39.999 -89.5l-40 -98.5l-25.5 -68.5c-9 -25 -17.5 -50.167 -25.5 -75.5s-15 -49.666 -21 -72.999
s-10 -43.833 -12 -61.5s-1.83301 -31.5 0.5 -41.5s8.16602 -14.333 17.499 -13zM173.003 588c35.333 7.33301 67.334 17.499 96.001 30.499s54.334 28 77.001 45s42.167 35.5 58.5 55.5s29.833 40 40.5 60c10 19.333 17.333 39.166 22 59.499s4.66699 36.333 0 48
s-14.834 16.834 -30.501 15.501s-38.5 -13.666 -68.5 -36.999c-18.667 -14.667 -37.167 -32.834 -55.5 -54.501s-35.833 -45.167 -52.5 -70.5s-32.334 -51.166 -47.001 -77.499z" />
    <glyph glyph-name="m" unicode="m" horiz-adv-x="593" 
d="M109 155l41.9893 97.001l35 79c8 18 14.5 34.167 19.5 48.5s7 24.5 6 30.5s-5.66699 6.5 -14 1.5s-21.833 -17.833 -40.5 -38.5c-26.667 -29.333 -48.5 -56.5 -65.5 -81.5l-51.5 -79.5c-10.667 -18 -20.667 -37.5 -30 -58.5s-17.666 -41.333 -24.999 -61
s-13.666 -37.834 -18.999 -54.501l-12 -38h-70l22 68.5l30 94.5l33 104l31 98l16.5 51l12.5 39h67c-3.33301 -8 -7.66602 -20.833 -12.999 -38.5l-18.5 -59l-21.5 -66c-7.33301 -22.333 -14.333 -42.5 -21 -60.5l53 81c19.333 28.667 39.333 54.5 60 77.5
s41.334 40.667 62.001 53s40.334 15.166 59.001 8.49902c13.333 -5.33301 21.833 -15.333 25.5 -30s3.83398 -32 0.500977 -52c11.333 14 22.833 26.833 34.5 38.5s23.334 21.5 35.001 29.5s23.334 13.333 35.001 16s22.834 2 33.501 -2
c10.667 -4.66699 16.334 -15.334 17.001 -32.001s-1.83301 -36.667 -7.5 -60s-13.667 -48.666 -24 -75.999s-21 -53.833 -32 -79.5l-31 -71.5c-9.66699 -22 -16.834 -39 -21.501 -51c-6 -16 -6 -28.667 0 -38s13.667 -11 23 -5c24.667 15.333 48.834 36.5 72.501 63.5
s46.167 56 67.5 87s41.333 62.167 60 93.5l49 82c2 4 4.83301 6.33301 8.5 7s7 0.166992 10 -1.5s5 -4.16699 6 -7.5s0.166992 -7 -2.5 -11c-5.33301 -8 -13.666 -22.5 -24.999 -43.5s-25.166 -45 -41.499 -72s-34.666 -55 -54.999 -84s-41.5 -55.167 -63.5 -78.5
s-44.5 -41.666 -67.5 -54.999s-45.5 -18.333 -67.5 -15c-13.333 2 -22 10.167 -26 24.5s-4.66699 31.833 -2 52.5s7.5 43.167 14.5 67.5s14.667 48.333 23 72s16.666 45.5 24.999 65.5s15.166 35.333 20.499 46c8 18 14.5 34.167 19.5 48.5s7 24.5 6 30.5
s-5.66699 6.5 -14 1.5s-21.833 -17.833 -40.5 -38.5c-12.667 -14 -23.334 -26.667 -32.001 -38s-16.667 -22.333 -24 -33c-13.333 -24 -26.166 -48.667 -38.499 -74l-34.5 -73h-83z" />
    <glyph glyph-name="n" unicode="n" horiz-adv-x="427" 
d="M136 391c20 22.667 40.166 40.3301 60.499 52.9971s39.5 15 57.5 7c10.667 -4.66699 16.834 -15.167 18.501 -31.5s0.166992 -36 -4.5 -59s-11.334 -48 -20.001 -75s-18 -53.667 -28 -80l-28 -74.5c-8.66699 -23.333 -15.334 -42.666 -20.001 -57.999
c-5.33301 -16.667 -4.66602 -27.667 2.00098 -33s14.667 -5 24 1c23.333 14.667 45.833 35.5 67.5 62.5s42 55.833 61 86.5s37 61.5 54 92.5l46.5 81.5c2 4 4.83301 6.33301 8.5 7s7 0.166992 10 -1.5s5 -4.16699 6 -7.5s0.166992 -7 -2.5 -11
c-5.33301 -8 -13.5 -22.667 -24.5 -44l-39.5 -73.5c-15.333 -27.667 -32.666 -56.167 -51.999 -85.5s-39.666 -55.666 -60.999 -78.999s-43.166 -41.333 -65.499 -54s-44.5 -16.334 -66.5 -11.001c-12 2.66699 -20 11.167 -24 25.5s-5.16699 31.833 -3.5 52.5
s5.33398 43.167 11.001 67.5s12.167 48.166 19.5 71.499s14.666 44.833 21.999 64.5s13.666 34.834 18.999 45.501c8 18 14.167 34.167 18.5 48.5s5 23.833 2 28.5s-10.333 2.33398 -22 -6.99902s-29.167 -28.666 -52.5 -57.999c-14 -17.333 -30.5 -40.5 -49.5 -69.5
s-38 -59.833 -57 -92.5l-54 -97c-17 -32 -30.5 -60 -40.5 -84l-60 1l27 77.5l30 84l34 94l40 108.5l16.5 44l17.5 46h71l-18 -44l-28 -70.5l-30 -77.5l-25 -64c16 28.667 35.167 60.167 57.5 94.5s47.166 66.833 74.499 97.5z" />
    <glyph glyph-name="o" unicode="o" horiz-adv-x="412" 
d="M412 365c2.66699 4 5.83203 6.16113 9.49902 6.49414s7 -0.333984 10 -2.00098s5 -4.5 6 -8.5s0.5 -8.66699 -1.5 -14c-11.333 -32 -25.5 -61.5 -42.5 -88.5s-35.833 -50.167 -56.5 -69.5s-42.167 -33.833 -64.5 -43.5s-44.5 -13.167 -66.5 -10.5
c-12 -17.333 -25 -34.166 -39 -50.499s-29 -30.833 -45 -43.5s-33 -23 -51 -31s-36.667 -12 -56 -12c-24 0 -43.5 6 -58.5 18s-26 27.833 -33 47.5s-10.167 42.334 -9.5 68.001s4.5 52.167 11.5 79.5s16.833 54.333 29.5 81s27.667 51 45 73
c12.667 16.667 26.834 31.5 42.501 44.5s32.167 23.333 49.5 31s35.666 12.334 54.999 14.001s39 -0.5 59 -6.5c3.33301 -1.33301 5.66602 -3.83301 6.99902 -7.5s1.5 -7.33398 0.5 -11.001s-3 -6.5 -6 -8.5s-7.5 -2 -13.5 0c-30 5.33301 -57.667 0.5 -83 -14.5
s-47.333 -35.667 -66 -62s-33.667 -56 -45 -89s-18.333 -64.5 -21 -94.5s-0.5 -56.5 6.5 -79.5s19.5 -37.5 37.5 -43.5c10 -3.33301 22 -2.5 36 2.5s28 12.667 42 23s27.5 22.333 40.5 36s23.833 27.5 32.5 41.5c-27.333 16.667 -44.833 38.334 -52.5 65.001
s-8.16699 53.334 -1.5 80.001s18.834 50.834 36.501 72.501s38.5 36.167 62.5 43.5c12.667 4 23.667 4.5 33 1.5s17.166 -8.33301 23.499 -16s10.666 -17 12.999 -28s2.83301 -22.833 1.5 -35.5c-2.66699 -19.333 -9.5 -43.833 -20.5 -73.5s-25.833 -58.834 -44.5 -87.501
c18 0 36.333 6.33301 55 19s36.334 28.834 53.001 48.501s31.834 41.334 45.501 65.001s24.834 46.834 33.501 69.501zM193.998 169.994c9.33301 12.667 18.665 27.498 27.998 44.498s17.333 34.167 24 51.5s11.334 34 14.001 50s2.66699 29.333 0 40
c-4.66699 15.333 -12.167 22.833 -22.5 22.5s-21.333 -5.66602 -33 -15.999s-22.5 -24.166 -32.5 -41.499s-16.667 -35.5 -20 -54.5s-2.16602 -37.333 3.50098 -55s18.5 -31.5 38.5 -41.5z" />
    <glyph glyph-name="p" unicode="p" horiz-adv-x="435" 
d="M223 406c12 -13.333 20.5 -29.0029 25.5 -47.0029s7.33301 -36.5 7 -55.5s-3 -37.833 -8 -56.5s-10.833 -35.334 -17.5 -50.001c14.667 4.66699 31.334 13.167 50.001 25.5s37.5 26.5 56.5 42.5s37.167 32.833 54.5 50.5s32 34.167 44 49.5
c3.33301 2.66699 6.66602 3.83398 9.99902 3.50098s6.16602 -1.83301 8.49902 -4.5s3.66602 -6 3.99902 -10s-0.833984 -7.66699 -3.50098 -11c-16 -19.333 -33.5 -39 -52.5 -59s-39.167 -38.667 -60.5 -56s-43.166 -32.5 -65.499 -45.5s-44.5 -21.5 -66.5 -25.5
c-26 -40 -51.167 -68.333 -75.5 -85s-46.166 -25.667 -65.499 -27s-34.666 3 -45.999 13s-16.833 22.167 -16.5 36.5s7.83301 28.666 22.5 42.999s38.334 24.833 71.001 31.5l36 6c14 21.333 24.667 43.333 32 66s11.666 43.834 12.999 63.501s-0.166992 36.834 -4.5 51.501
s-11.166 25.167 -20.499 31.5s-21 7.33301 -35 3s-29.667 -15.5 -47 -33.5c-10.667 -32.667 -23.667 -70.334 -39 -113.001s-32.666 -87.334 -51.999 -134.001s-40.5 -94 -63.5 -142s-47.5 -93.167 -73.5 -135.5s-53.333 -80.666 -82 -114.999s-58.334 -61.5 -89.001 -81.5
c-36 -23.333 -66.5 -35.166 -91.5 -35.499s-43.667 7.16699 -56 22.5s-17.833 36.333 -16.5 63s10.666 55.334 27.999 86.001c12 21.333 27.5 42.833 46.5 64.5s41.333 41.667 67 60s54.834 34.5 87.501 48.5s68.667 24.333 108 31c12 24.667 24.5 52.5 37.5 83.5l39.5 97
l39.5 104l36.5 104.5l29 90h75l-13 -40l-4 -14c10.667 6.66699 22 12.5 34 17.5s24 8.16699 36 9.5s23.667 0.333008 35 -3s21.666 -9.66602 30.999 -18.999zM-165 -50.0029c-35.333 -7.33301 -67.334 -17.666 -96.001 -30.999s-54.334 -28.5 -77.001 -45.5
s-42.167 -35.333 -58.5 -55s-29.833 -39.5 -40.5 -59.5c-10 -19.333 -17.333 -39.166 -22 -59.499s-4.66699 -36.333 0 -48s14.834 -16.834 30.501 -15.501s38.5 13.666 68.5 36.999c18.667 14.667 37.167 32.834 55.5 54.501s35.833 45.167 52.5 70.5
s32.334 51.166 47.001 77.499zM108.999 134.997c-14.667 1.33301 -27.998 -0.500977 -39.998 -5.50098s-21.333 -10.833 -28 -17.5s-10.334 -13 -11.001 -19s3 -9 11 -9c6 0 12 1.83301 18 5.5s11.833 8.33398 17.5 14.001l16.5 17c5.33301 5.66699 10.666 10.5 15.999 14.5
z" />
    <glyph glyph-name="q" unicode="q" horiz-adv-x="356" 
d="M195 455l70.9971 0.00390625c-26.667 -66.667 -48.834 -126.667 -66.501 -180l-47.5 -146c22 16.667 42.833 34.667 62.5 54s38 39.333 55 60s32.667 41.167 47 61.5s27.5 40.166 39.5 59.499c1.33301 3.33301 3.83301 5.16602 7.5 5.49902s7 -0.333984 10 -2.00098
s5 -4 6 -7s0.166992 -6.5 -2.5 -10.5c-10 -16.667 -22 -34.5 -36 -53.5s-29.167 -38.5 -45.5 -58.5s-33.5 -39.833 -51.5 -59.5s-36.333 -38.167 -55 -55.5l-24.5 -21.5c-7.66699 -7 -16.167 -13.833 -25.5 -20.5c-3.33301 -8 -6.33301 -16.833 -9 -26.5
s-4.66699 -19.834 -6 -30.501c22 -21.333 37.833 -43.833 47.5 -67.5s14.5 -47.167 14.5 -70.5c0 -30.667 -6.16699 -57.667 -18.5 -81s-26.166 -40.333 -41.499 -51c-9.33301 -6 -18.666 -9.66699 -27.999 -11s-18 0.333984 -26 5.00098s-15.167 12.5 -21.5 23.5
s-10.833 25.833 -13.5 44.5c-3.33301 28.667 -3.66602 59.5 -0.999023 92.5s7.16699 66 13.5 99s14 65.333 23 97s18.167 60.834 27.5 87.501c-15.333 -12.667 -32.333 -22.834 -51 -30.501s-36 -8.83398 -52 -3.50098c-18 5.33301 -30.667 15.5 -38 30.5
s-10.5 32.333 -9.5 52s5.83301 40.5 14.5 62.5s20.667 42.667 36 62c10.667 14 22.834 26.5 36.501 37.5s28.5 20 44.5 27s32.833 11.333 50.5 13s36.167 -0.5 55.5 -6.5zM177.997 415.004c-19.333 6 -37.666 4.83301 -54.999 -3.5s-32.833 -20.333 -46.5 -36
s-25 -33.5 -34 -53.5s-14.833 -38.833 -17.5 -56.5s-1.5 -32.667 3.5 -45s14.5 -18.5 28.5 -18.5c12.667 0 23.5 3 32.5 9s17.167 13 24.5 21l33 99c9.33301 28.667 19.666 56.667 30.999 84zM118.997 -1.99609c-13.333 -66 -18.666 -114.666 -15.999 -145.999
s8.16699 -49.5 16.5 -54.5s17.166 1 26.499 18s14 40.5 14 70.5c0 17.333 -3.16699 35.666 -9.5 54.999s-16.833 38.333 -31.5 57z" />
    <glyph glyph-name="r" unicode="r" horiz-adv-x="354" 
d="M41 446c-19.333 2 -32.9922 9.16895 -40.9922 21.502s-11.333 25.5 -10 39.5s6.5 27 15.5 39s20.833 18.333 35.5 19c16 0.666992 27.667 -2.33301 35 -9s11.666 -15.167 12.999 -25.5s0.5 -21.5 -2.5 -33.5s-6.83301 -22.333 -11.5 -31l37.5 2.5c15 1 29.667 1 44 0
s26.666 -3.83301 36.999 -8.5s16.166 -12.334 17.499 -23.001c0.666992 -12.667 -2.83301 -30.834 -10.5 -54.501s-17.167 -49.667 -28.5 -78l-36 -87c-12.667 -29.667 -23.5 -57 -32.5 -82s-15 -46 -18 -63s-0.5 -27.167 7.5 -30.5
c9.33301 -3.33301 21.666 1.33398 36.999 14.001s32.166 30 50.499 52s37 46.333 56 73s36.667 52.667 53 78l42 67c11.667 19.333 19.167 32.333 22.5 39c2 3.33301 4.5 5.5 7.5 6.5s5.83301 0.833008 8.5 -0.5s4.5 -3.5 5.5 -6.5s0.5 -6.5 -1.5 -10.5l-29 -48.5
c-14 -23.667 -30.5 -50.167 -49.5 -79.5s-39.833 -59.166 -62.5 -89.499s-45.167 -56.833 -67.5 -79.5s-43.833 -39.334 -64.5 -50.001s-38.334 -10.334 -53.001 0.999023c-11.333 8.66699 -17.833 22.167 -19.5 40.5s-0.333984 39.5 3.99902 63.5s11.166 49.667 20.499 77
s19.333 54.166 30 80.499l31 74.5c10 23.333 18 43 24 59c5.33301 14 7.16602 23.833 5.49902 29.5s-6 9.16699 -13 10.5s-16.167 1.5 -27.5 0.5s-24 -1.5 -38 -1.5c-4.66699 -9.33301 -8.66699 -17.666 -12 -24.999s-6.66602 -14.166 -9.99902 -20.499l-10 -19.5l-11 -22
c-1.33301 -2.66699 -3.5 -4.33398 -6.5 -5.00098s-6 -0.5 -9 0.5s-5.33301 2.66699 -7 5s-1.5 5.5 0.5 9.5zM50.0078 467.002c5.33301 9.33301 9.83203 20.5029 13.499 33.5029s2.83398 23.167 -2.49902 30.5c-4 5.33301 -10.167 8.16602 -18.5 8.49902
s-15.5 -4.83398 -21.5 -15.501c-8 -14.667 -9.33301 -27.834 -4 -39.501s16.333 -17.5 33 -17.5z" />
    <glyph glyph-name="s" unicode="s" horiz-adv-x="250" 
d="M267 350c-30.667 -34 -60.498 -60.6689 -89.498 -80.002s-57.167 -36 -84.5 -50c8 -42.667 10.167 -78.667 6.5 -108s-10.834 -53.333 -21.501 -72s-23.667 -32.667 -39 -42s-31 -15.333 -47 -18c-21.333 -3.33301 -41.166 -0.166016 -59.499 9.50098
s-30.833 23.167 -37.5 40.5s-5.33398 37.833 3.99902 61.5s31 48.5 65 74.5c10.667 8 21.667 15.333 33 22l35 21c-4.66699 26 -10.334 52 -17.001 78s-11.667 52 -15 78c-1.33301 9.33301 -2.33301 19 -3 29s-1 19.667 -1 29c0 28 5.33301 50.667 16 68
s22.5 28.666 35.5 33.999s25 4.83301 36 -1.5s16.5 -19.166 16.5 -38.499c0 -16 -5.33301 -32.167 -16 -48.5s-22 -31.5 -34 -45.5c4 -23.333 9.83301 -47.666 17.5 -72.999s14.5 -50.666 20.5 -75.999c25.333 13.333 51.333 29.333 78 48s54.667 43.667 84 75
c3.33301 3.33301 6.83301 5.16602 10.5 5.49902s6.5 -0.5 8.5 -2.5s3 -4.5 3 -7.5s-1.66699 -6.5 -5 -10.5zM46.002 418.998c8 11.333 14.999 22.5 20.999 33.5s9 21.833 9 32.5c0 12.667 -2.16699 20 -6.5 22s-8.66602 -0.333008 -12.999 -7s-8 -17 -11 -31
s-2.83301 -30.667 0.5 -50zM37.001 187.998c-10.667 -5.33301 -20.832 -11.1699 -30.499 -17.5029s-18.5 -12.5 -26.5 -18.5c-10 -7.33301 -19.667 -15.666 -29 -24.999s-17.333 -19.166 -24 -29.499s-11 -21 -13 -32s-1 -21.833 3 -32.5
c4.66699 -11.333 13.167 -20.166 25.5 -26.499s25.833 -7.16602 40.5 -2.49902c12.667 4 23.5 13.333 32.5 28s15.667 31.167 20 49.5s6.66602 37.166 6.99902 56.499s-1.5 36 -5.5 50z" />
    <glyph glyph-name="t" unicode="t" horiz-adv-x="330" 
d="M246 756c-6.66699 -12 -13.3301 -24.6689 -19.9971 -38.002l-15 -30c45.333 -5.33301 89.666 -8.66602 132.999 -9.99902s83.333 1.5 120 8.5s68.667 19.667 96 38s47.666 45.166 60.999 80.499c0.666992 4 2.66699 6.83301 6 8.5s6.5 2 9.5 1s5.33301 -3 7 -6
s1.16699 -7.5 -1.5 -13.5c-15.333 -40 -37.666 -70.333 -66.999 -91s-63.5 -34.834 -102.5 -42.501s-81.667 -10.167 -128 -7.5s-93.833 7.33398 -142.5 14.001c-3.33301 -6 -11.333 -22.167 -24 -48.5l-43.5 -95l-51 -119c-17.667 -42.333 -32.834 -82.833 -45.501 -121.5
c-10 -29.333 -19.167 -59 -27.5 -89s-14.5 -56.667 -18.5 -80s-5 -42 -3 -56s8.33301 -20 19 -18c11.333 2 27.5 11.667 48.5 29s43.5 38.166 67.5 62.499s48.333 50.333 73 78l67 76.5l48.5 57c12.333 14.667 18.166 21.334 17.499 20.001c2 3.33301 4.66699 5.33301 8 6
s6.16602 0.333984 8.49902 -0.999023s4 -3.5 5 -6.5s0.5 -6.5 -1.5 -10.5c-3.33301 -6 -12.833 -19 -28.5 -39s-35.167 -43.333 -58.5 -70s-49.166 -54.667 -77.499 -84s-56 -56.166 -83 -80.499s-52.333 -44 -76 -59s-42.5 -21.5 -56.5 -19.5
c-16 2 -26.833 11.167 -32.5 27.5s-8 36.5 -7 60.5s4.66699 50.333 11 79s13.333 56 21 82s15 49.5 22 70.5s12.167 35.833 15.5 44.5c19.333 56 40.333 109.333 63 160l68 151c-17.333 2 -39.333 5 -66 9s-55.5 7.33301 -86.5 10s-62.667 4.16699 -95 4.5
s-62.833 -1.66699 -91.5 -6s-54 -11.833 -76 -22.5s-38 -25.667 -48 -45c-2 -2.66699 -4.66699 -4 -8 -4s-6.33301 0.666992 -9 2s-4.66699 3.5 -6 6.5s-1 6.16699 1 9.5c12 21.333 29.667 37.833 53 49.5s50.166 20.167 80.499 25.5s62.333 7.83301 96 7.5s67 -2 100 -5
s63.833 -6.66699 92.5 -11s53 -7.83301 73 -10.5l12.5 25c5.66699 11.333 11.834 23 18.501 35z" />
    <glyph glyph-name="u" unicode="u" horiz-adv-x="438" 
d="M97 455c-24 -66 -40.167 -117.003 -48.5 -153.003s-10.833 -60.167 -7.5 -72.5s11.166 -14.5 23.499 -6.5s27 23 44 45s35.167 49.333 54.5 82s37.333 67.667 54 105h75c-6 -11.333 -13.833 -29 -23.5 -53s-19.667 -50.5 -30 -79.5s-20.5 -59.167 -30.5 -90.5
s-18 -60.5 -24 -87.5s-9.5 -50 -10.5 -69s2.16699 -30.667 9.5 -35s19.5 0.166992 36.5 13.5s40.5 39 70.5 77c18 22.667 35.5 46.834 52.5 72.501s32.167 49.667 45.5 72l33.5 58c9 16.333 14.5 26.5 16.5 30.5c2 2.66699 4.5 4.5 7.5 5.5s5.83301 0.833008 8.5 -0.5
s4.66699 -3.66602 6 -6.99902s1 -7.33301 -1 -12c-2.66699 -5.33301 -9.83398 -18 -21.501 -38s-26.167 -43.167 -43.5 -69.5l-57 -83.5c-20.667 -29.333 -41.5 -55.833 -62.5 -79.5s-41.167 -43 -60.5 -58s-36 -21.5 -50 -19.5c-12 0.666992 -21.167 5.83398 -27.5 15.501
s-10.5 20.834 -12.5 33.501s-2.66699 25.834 -2 39.501s1.66699 25.5 3 35.5c3.33301 30 9.83301 62.167 19.5 96.5s19.5 67.5 29.5 99.5c-8.66699 -12.667 -18.167 -27.334 -28.5 -44.001s-21.333 -32.5 -33 -47.5s-23.5 -28.167 -35.5 -39.5s-23.667 -17.666 -35 -18.999
c-22 -2.66699 -37.667 1.66602 -47 12.999s-14.666 26.666 -15.999 45.999s0.333984 40.833 5.00098 64.5s10 46.5 16 68.5l13.5 44l14.5 47h69z" />
    <glyph glyph-name="v" unicode="v" horiz-adv-x="357" 
d="M102 455c-8 -13.333 -16.832 -31.833 -26.499 -55.5s-19.334 -49.5 -29.001 -77.5s-18.667 -56.833 -27 -86.5s-15.166 -57 -20.499 -82s-8.33301 -46.5 -9 -64.5s1.83301 -29.333 7.5 -34s15 -1.5 28 9.5s30.833 33.167 53.5 66.5c10.667 15.333 20.667 31 30 47
s18.333 30.667 27 44c-6.66699 24 -9.5 50.833 -8.5 80.5s5.5 58.167 13.5 85.5c12 42.667 26 71.334 42 86.001s29.667 18.5 41 11.5s18.666 -22.667 21.999 -47s-1.66699 -53.833 -15 -88.5c-3.33301 -8.66699 -7.83301 -18.667 -13.5 -30l-18 -35l-19.5 -36
c-6.66699 -12 -12.334 -23 -17.001 -33c7.33301 -18.667 16.333 -29.334 27 -32.001s22.334 -0.166992 35.001 7.5s25.5 19.167 38.5 34.5s25.667 31.5 38 48.5s23.333 33.833 33 50.5l23.5 40c2 3.33301 4.5 5.5 7.5 6.5s6 0.833008 9 -0.5s5.33301 -3.5 7 -6.5
s1.5 -6.5 -0.5 -10.5c-7.33301 -13.333 -16.666 -29.333 -27.999 -48s-24 -37.167 -38 -55.5s-28.667 -35.333 -44 -51s-30.333 -27.167 -45 -34.5s-29 -9.16602 -43 -5.49902s-26.333 15.5 -37 35.5l-34.5 -56.5c-12.333 -20.333 -24.166 -38.833 -35.499 -55.5
c-14 -20 -29.5 -36.333 -46.5 -49s-32.5 -18.834 -46.5 -18.501s-24.833 8.83301 -32.5 25.5s-9.5 44.667 -5.5 84c3.33301 30.667 8.33301 61.5 15 92.5s14.167 61 22.5 90s16.666 56 24.999 81s16.166 47.167 23.499 66.5h71zM153.001 257
c8.66699 14 17.999 30.3379 27.999 49.0049s18.667 37.667 26 57c8.66699 23.333 13.334 42.666 14.001 57.999s-1.33301 24.666 -6 27.999s-11.5 -0.333984 -20.5 -11.001s-18.5 -30.334 -28.5 -59.001c-6.66699 -19.333 -11 -39.833 -13 -61.5s-2 -41.834 0 -60.501z" />
    <glyph glyph-name="w" unicode="w" horiz-adv-x="595" 
d="M102 455l-60.0078 -165.494c-17.333 -49.667 -31.166 -92.334 -41.499 -128.001s-17 -63.834 -20 -84.501s-1.5 -32.334 4.5 -35.001c6 -3.33301 14.833 -0.5 26.5 8.5s24.5 22.167 38.5 39.5s29.167 38.166 45.5 62.499s32.166 50.5 47.499 78.5s30.166 57 44.499 87
s26.5 59 36.5 87h64c-8.66699 -20 -17.667 -42.167 -27 -66.5s-18.166 -48.833 -26.499 -73.5s-15.666 -48.167 -21.999 -70.5s-10.666 -41.5 -12.999 -57.5s-2.16602 -27.667 0.500977 -35s8.83398 -8 18.501 -2s23.334 19.667 41.001 41s40.167 52.666 67.5 93.999
c-8.66699 18 -12.167 39.667 -10.5 65s6.83398 49.333 15.501 72s19.834 42 33.501 58s28.5 24 44.5 24c15.333 0 25 -5 29 -15s4.33301 -22.5 1 -37.5s-9.16602 -31.5 -17.499 -49.5s-17.166 -35.167 -26.499 -51.5s-17.833 -30.5 -25.5 -42.5s-12.5 -19.667 -14.5 -23
c9.33301 -14.667 21 -23 35 -25s29 0.333008 45 7s32.167 16.167 48.5 28.5s31.833 25.833 46.5 40.5s27.667 29 39 43s19.666 25.667 24.999 35c2 4 4.5 6.33301 7.5 7s5.66699 0.166992 8 -1.5s4 -4 5 -7s0.5 -6.16699 -1.5 -9.5
c-6.66699 -12 -16.167 -25.833 -28.5 -41.5s-26.333 -31.167 -42 -46.5s-32.5 -29.5 -50.5 -42.5s-35.833 -22.667 -53.5 -29s-34.834 -8.33301 -51.501 -6s-31.334 11.166 -44.001 26.499l-38.5 -49.5l-36.5 -46.5c-17.333 -21.333 -34.666 -38.5 -51.999 -51.5
s-33.333 -16.833 -48 -11.5c-10.667 4 -17.667 12.5 -21 25.5s-4.66602 27.5 -3.99902 43.5s2.5 32 5.5 48s5.5 28.667 7.5 38c-14.667 -26.667 -31 -53.5 -49 -80.5s-36.667 -50.167 -56 -69.5c-6 -6 -13.833 -13 -23.5 -21s-19.834 -14.333 -30.501 -19
s-21.167 -6.33398 -31.5 -5.00098s-18.833 8.33301 -25.5 21c-7.33301 13.333 -9.83301 33.333 -7.5 60s7 55.834 14 87.501s15.5 63.5 25.5 95.5l27 85c0.666992 4 2.33398 9.5 5.00098 16.5s5.5 14.833 8.5 23.5l9 26.5l8.5 24.5h71zM343.992 259.006l9.49902 15.5029
l14.5 24.5c5.33301 9.33301 10.833 19.5 16.5 30.5s11.167 22.5 16.5 34.5c8 16 13.5 30.833 16.5 44.5s0.5 20.5 -7.5 20.5c-6.66699 0 -13.167 -2.83301 -19.5 -8.5s-12.166 -12.5 -17.499 -20.5c-5.33301 -9.33301 -10.333 -19.833 -15 -31.5s-8.5 -23.834 -11.5 -36.501
s-4.83301 -25.334 -5.5 -38.001s0.333008 -24.334 3 -35.001z" />
    <glyph glyph-name="x" unicode="x" horiz-adv-x="540" 
d="M540 364c2 3.33301 4.50098 5.1748 7.50098 5.50781s5.83301 -0.166992 8.5 -1.5s4.66699 -3.33301 6 -6s1 -5 -1 -7c-24 -41.333 -50.5 -79 -79.5 -113s-59 -63.667 -90 -89s-62 -45.833 -93 -61.5s-60.833 -26.167 -89.5 -31.5c-18.667 -3.33301 -38 -2.83301 -58 1.5
s-35.667 15.166 -47 32.499c-24.667 -30.667 -51.334 -53.834 -80.001 -69.501s-56.834 -23.334 -84.501 -23.001s-53.167 9 -76.5 26s-42.333 42.833 -57 77.5c-1.33301 3.33301 -1.16602 6.16602 0.500977 8.49902s3.83398 4.16602 6.50098 5.49902
s5.5 1.66602 8.5 0.999023s5.16699 -2.33398 6.5 -5.00098c15.333 -32 32 -54.167 50 -66.5s36.667 -17.5 56 -15.5s38.5 10.167 57.5 24.5s37.167 32.333 54.5 54s33.166 45.5 47.499 71.5s26.333 51.667 36 77s16.5 49.166 20.5 71.499s4.33301 40.833 1 55.5
c-5.33301 24 -13.833 37.5 -25.5 40.5s-24.167 0.666992 -37.5 -7s-26.166 -18.334 -38.499 -32.001s-21.5 -24.834 -27.5 -33.501c-2.66699 -4 -5.83398 -6.66699 -9.50098 -8s-6.66699 -1.33301 -9 0s-4 3.5 -5 6.5s-0.5 6.5 1.5 10.5c14.667 21.333 29.5 39 44.5 53
s29.5 24.667 43.5 32c14.667 6.66699 29.167 10.334 43.5 11.001s27.666 -1.5 39.999 -6.5s22.833 -12.667 31.5 -23s14.667 -23.5 18 -39.5c29.333 32 57 54 83 66s49.333 16.667 70 14c17.333 -2 32.5 -7.66699 45.5 -17s22.667 -20.666 29 -33.999
s8.66602 -27.833 6.99902 -43.5s-8.5 -31.167 -20.5 -46.5c-3.33301 -3.33301 -6.5 -4.83301 -9.5 -4.5s-5.5 1.5 -7.5 3.5s-3.5 4.66699 -4.5 8s-0.5 6.66602 1.5 9.99902c14.667 19.333 21.334 36.5 20.001 51.5s-8 26 -20 33s-28 8.83301 -48 5.5s-41 -13.833 -63 -31.5
s-44.167 -43.667 -66.5 -78s-41.5 -78.833 -57.5 -133.5c-4 -14 -7 -28.5 -9 -43.5s-1.33301 -28 2 -39s10 -19 20 -24s25 -4.5 45 1.5c22.667 6.66699 47 17.834 73 33.501s52.333 35.167 79 58.5s52.834 50.333 78.501 81s49.5 64.667 71.5 102z" />
    <glyph glyph-name="y" unicode="y" horiz-adv-x="495" 
d="M104 454c-28 -62 -46.165 -112.332 -54.498 -150.999s-8.5 -59.667 -0.5 -63c4.66699 -2 14.167 3.33301 28.5 16s30.333 29.5 48 50.5s35.5 44.667 53.5 71s33.333 52.166 46 77.499h79c-4 -13.333 -8.66699 -30.166 -14 -50.499l-18.5 -68l-23 -79.5
c-8.33301 -28 -17.166 -55.667 -26.499 -83c48 16.667 95.167 39.167 141.5 67.5s90.166 69.166 131.499 122.499c3.33301 2.66699 6.66602 4 9.99902 4s6 -1 8 -3s3 -4.66699 3 -8s-1.33301 -6.33301 -4 -9c-22.667 -28.667 -46 -53.667 -70 -75s-48.667 -39.833 -74 -55.5
s-51 -29.334 -77 -41.001s-52 -22.167 -78 -31.5c-10 -30.667 -21.167 -62.167 -33.5 -94.5s-25.333 -64.5 -39 -96.5s-27.834 -63.167 -42.501 -93.5s-30 -58.5 -46 -84.5c-32 -53.333 -65 -92 -99 -116s-64.667 -37.333 -92 -40c-31.333 -2 -57.833 6.83301 -79.5 26.5
s-36.167 46 -43.5 79s-6.16602 70 3.50098 111s30.5 81.833 62.5 122.5c22.667 28.667 47 52.834 73 72.501s53.333 36.334 82 50.001s58.5 25.334 89.5 35.001l94.5 28.5l39 128c12.667 41.333 23 77.666 31 108.999c-11.333 -18 -25 -37.833 -41 -59.5
s-32.833 -41.834 -50.5 -60.501s-35.5 -34.167 -53.5 -46.5s-34 -17.833 -48 -16.5c-12 0.666992 -20.833 6.16699 -26.5 16.5s-8.66699 23.333 -9 39s1 33.167 4 52.5s6.83301 38.333 11.5 57c5.33301 18.667 10.666 36 15.999 52s10 29 14 39zM-12.998 -209.999
c24.667 47.333 50.168 99.667 76.501 157s49.166 115.333 68.499 174l-86 -28c-28 -9.33301 -55 -20.666 -81 -33.999s-50.833 -29.333 -74.5 -48s-46.5 -41.334 -68.5 -68.001c-25.333 -32 -43.333 -66 -54 -102s-13.667 -69.667 -9 -101
c3.33301 -25.333 12.166 -46.5 26.499 -63.5s32 -25.667 53 -26s44.333 10 70 31s51.834 57.167 78.501 108.5z" />
    <glyph glyph-name="z" unicode="z" horiz-adv-x="403" 
d="M132 235c-4.66699 0.666992 -10 0.667969 -16 0.000976562s-11.667 -2 -17 -4s-9.83301 -5 -13.5 -9s-5.5 -9 -5.5 -15c0 -9.33301 5.16699 -10.333 15.5 -3s22.5 17.666 36.5 30.999zM403 364.001c4 6.66699 8.83203 8.16406 14.499 4.49707s7.16699 -8.16699 4.5 -13.5
c-18 -39.333 -44.167 -75.333 -78.5 -108s-72.833 -61.667 -115.5 -87c-6 -54.667 -19.333 -104 -40 -148s-45.334 -82.333 -74.001 -115s-60.167 -60.167 -94.5 -82.5s-68.166 -39.166 -101.499 -50.499s-64.666 -17.5 -93.999 -18.5s-53.833 3.33301 -73.5 13
s-32.667 24.334 -39 44.001s-3.16602 44.5 9.50098 74.5c10.667 24 26 45.833 46 65.5s43 37.667 69 54s53.833 31.333 83.5 45s59.334 26.667 89.001 39l85.5 35.5c27.333 11.333 51.333 23.333 72 36c0 10 -0.333008 20.667 -1 32s-3 22.333 -7 33
c-3.33301 -5.33301 -7.83301 -10.5 -13.5 -15.5s-11.834 -9.5 -18.501 -13.5s-13.667 -7.16699 -21 -9.5s-14 -2.83301 -20 -1.5c-8.66699 2.66699 -14.667 6.83398 -18 12.501s-5 11.667 -5 18s1.5 12.5 4.5 18.5s6.83301 11 11.5 15
c9.33301 7.33301 20.833 12.333 34.5 15s26.167 2.33398 37.5 -0.999023c16 19.333 27.5 39.666 34.5 60.999s10 41 9 59s-5.83301 33 -14.5 45s-20.667 18.167 -36 18.5s-33.5 -6.16699 -54.5 -19.5s-44.5 -36.333 -70.5 -69c-2.66699 -2.66699 -5.66699 -4 -9 -4
s-6 0.833008 -8 2.5s-3.33301 3.83398 -4 6.50098s0.333008 5.66699 3 9c28 36.667 55.833 63.667 83.5 81s52.834 26.666 75.501 27.999s41.667 -4.16699 57 -16.5s25 -29.166 29 -50.499s1.33301 -46.166 -8 -74.499s-27.333 -57.833 -54 -88.5
c10 -6.66699 19 -14.834 27 -24.501s12.667 -20.834 14 -33.501c39.333 25.333 74.166 52.5 104.499 81.5s55.166 61.5 74.499 97.5zM164.999 121.998c-20 -10 -43.166 -20.4971 -69.499 -31.4971l-82.5 -35c-28.667 -12.333 -57.334 -25.333 -86.001 -39
s-55.334 -28.334 -80.001 -44.001s-46.167 -32 -64.5 -49s-31.5 -34.833 -39.5 -53.5c-9.33301 -21.333 -11.833 -39.333 -7.5 -54s13.833 -25.5 28.5 -32.5s33.167 -10 55.5 -9s46.333 6.16699 72 15.5s52.334 23.166 80.001 41.499s53.834 41.166 78.501 68.499
s47.167 59.333 67.5 96s36.166 78.667 47.499 126z" />
    <glyph glyph-name="braceleft" unicode="{" horiz-adv-x="316" 
d="M151 36c2.66699 0.666992 5.50293 0.166016 8.50293 -1.50098s5 -4 6 -7s1.16699 -6.16699 0.5 -9.5s-3 -6 -7 -8c-13.333 -5.33301 -27.333 -8 -42 -8s-27.334 2.83301 -38.001 8.5s-18.5 14.667 -23.5 27s-4.83301 28.166 0.5 47.499
c4.66699 16 11.834 33.833 21.501 53.5l29.5 58.5c10 19.333 19.167 37.833 27.5 55.5s13.833 32.5 16.5 44.5c-4 -6 -8.66699 -9.83301 -14 -11.5s-10.166 -1.66699 -14.499 0s-7.83301 4.66699 -10.5 9s-3.33398 9.16602 -2.00098 14.499c0 8.66699 3.5 15.5 10.5 20.5
s15.5 6.16699 25.5 3.5c5.33301 14 11.666 32 18.999 54s15.666 45 24.999 69s19.833 47.167 31.5 69.5s25 40.5 40 54.5s31.833 22.333 50.5 25s39.334 -3.66602 62.001 -18.999c3.33301 -2 5.16602 -4.5 5.49902 -7.5s-0.333984 -5.83301 -2.00098 -8.5s-4 -4.5 -7 -5.5
s-6.16699 -0.5 -9.5 1.5c-16.667 10 -31.834 11.833 -45.501 5.5s-26.334 -17.666 -38.001 -33.999s-22.167 -36 -31.5 -59s-17.5 -45.5 -24.5 -67.5l-19 -60.5c-5.66699 -18.333 -10.5 -30.833 -14.5 -37.5c7.33301 -10 7.83301 -25.167 1.5 -45.5
s-15.333 -42.666 -27 -66.999l-36.5 -73c-12.667 -24.333 -21.667 -45.166 -27 -62.499s-4.66602 -29.333 2.00098 -36s23.334 -4.33398 50.001 6.99902z" />
    <glyph glyph-name="bar" unicode="|" horiz-adv-x="218" 
d="M62 714c0 10.667 7.00098 16 21.001 16c4 0 7.66699 -1.5 11 -4.5s5 -6.83301 5 -11.5v-698c0 -4 -1.66699 -7.83301 -5 -11.5s-7 -5.5 -11 -5.5c-6.66699 0 -11.834 1.83301 -15.501 5.5s-5.5 7.5 -5.5 11.5v698z" />
    <glyph glyph-name="braceright" unicode="}" horiz-adv-x="267" 
d="M112 572c-3.33301 -2 -6.16602 -2.33203 -8.49902 -0.999023s-4 3.5 -5 6.5s-1.16699 5.83301 -0.5 8.5s2.66699 4.66699 6 6c14.667 6 29.5 9.16699 44.5 9.5s28 -2.33398 39 -8.00098s18.833 -14.667 23.5 -27s4 -28.5 -2 -48.5
c-4.66699 -15.333 -11.834 -32.833 -21.501 -52.5s-19.834 -39.167 -30.501 -58.5l-29 -54.5c-8.66699 -17 -14 -30.833 -16 -41.5c10.667 10 21 12.5 31 7.5s15 -12.167 15 -21.5c-2.66699 -10 -7.5 -17 -14.5 -21s-15.833 -6 -26.5 -6c-6 -13.333 -12.333 -31 -19 -53
s-14.667 -44.833 -24 -68.5s-19.666 -46.667 -30.999 -69s-24.333 -40.5 -39 -54.5s-31.167 -22.167 -49.5 -24.5s-38.833 4.16699 -61.5 19.5c-3.33301 2 -5.16602 4.5 -5.49902 7.5s0.333984 5.66699 2.00098 8s3.83398 3.83301 6.50098 4.5s5.66699 -0.333008 9 -3
c16 -10 30.667 -11.667 44 -5s25.833 18.167 37.5 34.5s22.167 35.833 31.5 58.5s17.666 45 24.999 67s13.666 42 18.999 60s9.66602 30.667 12.999 38c-8 10.667 -8.66699 26.5 -2 47.5s16 43.667 28 68l37.5 73.5c13 24.667 22.167 45.667 27.5 63s4.5 29.333 -2.5 36
s-24.167 4.66699 -51.5 -6z" />
    <glyph glyph-name="asciitilde" unicode="~" horiz-adv-x="537" 
d="M71 152c-8 -4 -13.501 -4.66699 -16.501 -2s-4.5 5.66699 -4.5 9c11.333 36.667 25.666 62.334 42.999 77.001s36.333 23.167 57 25.5s42.667 0.666016 66 -5.00098s46.666 -10.334 69.999 -14.001s46.333 -4.33398 69 -2.00098s44 12.5 64 30.5
c1.33301 2.66699 3.33301 4 6 4s5.16699 -0.833008 7.5 -2.5s3.83301 -3.66699 4.5 -6s-0.333008 -4.83301 -3 -7.5c-17.333 -29.333 -35.666 -49.666 -54.999 -60.999s-39.5 -17.666 -60.5 -18.999s-42.167 0.166992 -63.5 4.5s-42.666 7.33301 -63.999 9
s-42.166 0.166992 -62.499 -4.5s-39.5 -16.667 -57.5 -36z" />
    <glyph glyph-name="quotesinglbase" unicode="&#x201a;" horiz-adv-x="299" 
d="M156 91c-15.333 4.66699 -26.333 11.5 -33 20.5s-9.83398 18.167 -9.50098 27.5s3.83301 17.5 10.5 24.5s15.667 10.5 27 10.5c20 0 33.5 -7.5 40.5 -22.5s7.5 -32.333 1.5 -52s-18.167 -39.167 -36.5 -58.5s-43.166 -33.333 -74.499 -42c-8 0 -13.667 2.66699 -17 8
s-2.33301 10 3 14c7.33301 2 15.5 4.5 24.5 7.5s17.667 7.33301 26 13s15.833 12.5 22.5 20.5s11.667 17.667 15 29z" />
    <glyph glyph-name="quotedblbase" unicode="&#x201e;" horiz-adv-x="378" 
d="M126 92c-15.333 4.66699 -26.333 11.5 -33 20.5s-9.83398 18.167 -9.50098 27.5s3.83301 17.5 10.5 24.5s15.667 10.5 27 10.5c20 0 33.5 -7.5 40.5 -22.5s7.5 -32.333 1.5 -52s-18.167 -39.167 -36.5 -58.5s-43.166 -33.333 -74.499 -42c-8 0 -13.667 2.66699 -17 8
s-2.33301 10 3 14c7.33301 2 15.5 4.5 24.5 7.5s17.667 7.33301 26 13s15.833 12.5 22.5 20.5s11.667 17.667 15 29zM270 92c-15.333 4.66699 -26.333 11.5 -33 20.5s-9.83398 18.167 -9.50098 27.5s3.83301 17.5 10.5 24.5s15.667 10.5 27 10.5c20 0 33.5 -7.5 40.5 -22.5
s7.5 -32.333 1.5 -52s-18.167 -39.167 -36.5 -58.5s-43.166 -33.333 -74.499 -42c-8 0 -13.667 2.66699 -17 8s-2.33301 10 3 14c7.33301 2 15.5 4.5 24.5 7.5s17.667 7.33301 26 13s15.833 12.5 22.5 20.5s11.667 17.667 15 29z" />
    <glyph glyph-name="a.003" unicode="&#xe034;" horiz-adv-x="425" 
d="M189 436c0.666992 0 1.16895 -0.164062 1.50195 -0.49707s0.833008 -0.5 1.5 -0.5l7 20l75 -1l-16 -39.5l-26.5 -68.5c-9.66699 -26 -19.5 -54 -29.5 -84s-18.833 -58.667 -26.5 -86s-13.5 -52 -17.5 -74s-4.5 -38.333 -1.5 -49s10 -14.167 21 -10.5
s27.833 17.5 50.5 41.5c20.667 22.667 42 48.834 64 78.501s42.167 58.5 60.5 86.5l47.5 74.5c13.333 21.667 21.666 35.5 24.999 41.5c2 3.33301 4.66699 5.33301 8 6s6.16602 0.166992 8.49902 -1.5s4 -4 5 -7s0.5 -6.5 -1.5 -10.5c-3.33301 -6 -11 -18.833 -23 -38.5
l-44 -69.5c-17.333 -26.667 -36.666 -54.5 -57.999 -83.5s-42.666 -55.667 -63.999 -80s-41.833 -44.166 -61.5 -59.499s-36.834 -22.333 -51.501 -21c-11.333 2 -20 7.66699 -26 17s-10.167 20.5 -12.5 33.5s-3.16602 27.333 -2.49902 43s2.16699 31 4.5 46
s4.83301 28.833 7.5 41.5s5 23 7 31c-8 -8.66699 -17 -16.834 -27 -24.501s-20.5 -14.334 -31.5 -20.001s-22.167 -9.5 -33.5 -11.5s-22 -1.33301 -32 2c-12.667 4 -22.667 10.5 -30 19.5s-12.333 19.833 -15 32.5s-3.16699 26.5 -1.5 41.5s5.5 30.167 11.5 45.5
c-38 -32.667 -78 -61.667 -120 -87s-84.167 -46.666 -126.5 -63.999s-84.166 -30.166 -125.499 -38.499s-80.333 -11.833 -117 -10.5c-48 2 -86.667 14 -116 36s-51 48.333 -65 79c-3.33301 -0.666992 -6.5 -1 -9.5 -1h-9.5c-16.667 0 -32.334 2.83301 -47.001 8.5
s-27 14.5 -37 26.5s-17.167 27.333 -21.5 46s-4.83301 40.667 -1.5 66c0 4 1.33301 6.83301 4 8.5s5.5 2.5 8.5 2.5s5.5 -1 7.5 -3s2.66699 -5.33301 2 -10c-2.66699 -21.333 -2.33398 -39.833 0.999023 -55.5s9 -28.5 17 -38.5s17.833 -17.333 29.5 -22s24.167 -7 37.5 -7
h11c-5.33301 14 -8.83301 28 -10.5 42s-2.5 28 -2.5 42c0.666992 29.333 5.83398 54.666 15.501 75.999s21.5 38.666 35.5 51.999s29.167 22.333 45.5 27s31.666 4.5 45.999 -0.5s26.166 -14.833 35.499 -29.5s14 -34.334 14 -59.001c0 -18.667 -4 -36.834 -12 -54.501
s-18.667 -34 -32 -49s-29 -28 -47 -39s-36.667 -18.833 -56 -23.5c13.333 -28 32.833 -51.167 58.5 -69.5s59.5 -27.5 101.5 -27.5s86.167 5.66699 132.5 17s92.333 27.666 138 48.999s90.167 47 133.5 77s83.333 64 120 102c10.667 14 23 26.667 37 38s29 20.5 45 27.5
s33 11.167 51 12.5s36.667 -1 56 -7zM-559.998 383.003c0 29.333 -7.50195 48.834 -22.502 58.501s-31.667 11 -50 4s-35 -21.5 -50 -43.5s-22.5 -50.333 -22.5 -85c0 -13.333 1 -26.833 3 -40.5s5.33301 -26.834 10 -39.501c16 4 31.833 10.667 47.5 20
s29.834 20.5 42.501 33.5s22.834 27.333 30.501 43s11.5 32.167 11.5 49.5zM178 415.004c-19.333 6 -37.667 4.83301 -55 -3.5s-32.833 -20.333 -46.5 -36s-25 -33.5 -34 -53.5s-14.833 -38.833 -17.5 -56.5s-1.5 -32.667 3.5 -45s14.5 -18.5 28.5 -18.5
c11.333 0 21.333 2.5 30 7.5s16.334 11.167 23.001 18.5s12.167 14.833 16.5 22.5s8.16602 14.167 11.499 19.5c8 27.333 16.167 53.5 24.5 78.5l21.5 64.5z" />
    <glyph glyph-name="b.003" unicode="&#xe035;" horiz-adv-x="376" 
d="M-119 47l21.501 60.0137l28 76l33 87l36.5 95l16.5 42c5.66699 14 11.5 27.667 17.5 41c-46 3.33301 -83.167 15.833 -111.5 37.5s-49.5 47.5 -63.5 77.5c-3.33301 -0.666992 -6.5 -1 -9.5 -1h-9.5c-16.667 0 -32.334 2.83301 -47.001 8.5s-27 14.5 -37 26.5
s-17.167 27.333 -21.5 46s-4.83301 40.667 -1.5 66c0 4 1.33301 6.83301 4 8.5s5.5 2.5 8.5 2.5s5.5 -1 7.5 -3s2.66699 -5.33301 2 -10c-2.66699 -21.333 -2.33398 -39.833 0.999023 -55.5s9 -28.5 17 -38.5s17.833 -17.333 29.5 -22s24.167 -7 37.5 -7h11
c-5.33301 14 -8.83301 28 -10.5 42s-2.5 28 -2.5 42c0.666992 29.333 5.83398 54.666 15.501 75.999s21.5 38.666 35.5 51.999s29.167 22.333 45.5 27s31.666 4.5 45.999 -0.5s26.166 -14.833 35.499 -29.5s14 -34.334 14 -59.001c0 -18.667 -4 -36.834 -12 -54.501
s-18.667 -34 -32 -49s-29 -28 -47 -39s-36.667 -18.833 -56 -23.5c13.333 -28 32.833 -51.167 58.5 -69.5s59.5 -27.5 101.5 -27.5h1c31.333 68 66.5 130.333 105.5 187s81.5 100 127.5 130c36 23.333 66.5 35.166 91.5 35.499s43.667 -7.16699 56 -22.5
s17.833 -36.333 16.5 -63s-10.666 -55.334 -27.999 -86.001c-12 -21.333 -27.5 -42.833 -46.5 -64.5s-41.333 -41.667 -67 -60s-54.834 -34.5 -87.501 -48.5s-68.667 -24.333 -108 -31c-6 -12.667 -11.167 -23.167 -15.5 -31.5s-8.33301 -16.5 -12 -24.5l-12 -26.5
c-4.33301 -9.66699 -9.5 -22.167 -15.5 -37.5c16.667 10.667 34 16.167 52 16.5s34.833 -3.83398 50.5 -12.501s29.167 -21.334 40.5 -38.001s18.666 -37 21.999 -61c32 16 61.833 34.5 89.5 55.5s51.834 46.167 72.501 75.5c2 3.33301 4.5 5.16602 7.5 5.49902
s5.83301 -0.333984 8.5 -2.00098s4.66699 -3.83398 6 -6.50098s1 -5.33398 -1 -8.00098c-22.667 -34 -50 -62.5 -82 -85.5s-65.667 -43.167 -101 -60.5c-1.33301 -20 -6.16602 -41.167 -14.499 -63.5s-20 -43.333 -35 -63s-33.167 -36.667 -54.5 -51
s-45.333 -23.166 -72 -26.499c-15.333 -2 -28.5 0.333008 -39.5 7s-18.667 15.834 -23 27.501s-5 25 -2 40s10.833 30.167 23.5 45.5c10 12 22 22.167 36 30.5s28.167 15.333 42.5 21s27.833 10.167 40.5 13.5s22.667 6.33301 30 9c2 19.333 -0.166992 37.166 -6.5 53.499
s-15.166 29.166 -26.499 38.499s-24 14.666 -38 15.999s-27.333 -3.33398 -40 -14.001l-21.5 -56.5l-26 -66.5l-25.5 -66.5l-21 -56.5zM116.001 474.014c35.333 7.33301 67.334 17.499 96.001 30.499s54.334 28 77.001 45s42.167 35.5 58.5 55.5s29.833 40 40.5 60
c10 19.333 17.333 39.166 22 59.499s4.66699 36.333 0 48s-14.834 16.834 -30.501 15.501s-38.5 -13.666 -68.5 -36.999c-18.667 -14.667 -37.167 -32.834 -55.5 -54.501s-35.833 -45.167 -52.5 -70.5s-32.334 -51.166 -47.001 -77.499zM7.00195 734.013
c0 29.333 -7.50195 48.834 -22.502 58.501s-31.667 11 -50 4s-35 -21.5 -50 -43.5s-22.5 -50.333 -22.5 -85c0 -13.333 1 -26.833 3 -40.5s5.33301 -26.834 10 -39.501c16 4 31.833 10.667 47.5 20s29.834 20.5 42.501 33.5s22.834 27.333 30.501 43s11.5 32.167 11.5 49.5z
M142 168.014c-26 -4.66699 -48.5039 -12 -67.5039 -22s-34.167 -20.667 -45.5 -32s-19.166 -22.333 -23.499 -33s-5.16602 -19 -2.49902 -25s8.83398 -9 18.501 -9s22.834 5.33301 39.501 16c5.33301 3.33301 12 8.33301 20 15s15.833 14.5 23.5 23.5s15 19.167 22 30.5
s12.167 23.333 15.5 36z" />
    <glyph glyph-name="c.003" unicode="&#xe036;" 
d="M352 351c-25.333 -42.667 -52.3271 -84.666 -80.9941 -125.999s-57.5 -78.166 -86.5 -110.499s-57.167 -58.833 -84.5 -79.5s-52.666 -32 -75.999 -34c-31.333 -2 -54 6.83301 -68 26.5s-21.833 45 -23.5 76s1.66602 64.833 9.99902 101.5s18.833 71 31.5 103
c-38 -34 -78.5 -64.5 -121.5 -91.5s-86.333 -49.667 -130 -68s-86.834 -32 -129.501 -41s-82.667 -12.5 -120 -10.5c-48 2 -86.667 14 -116 36s-51 48.333 -65 79c-3.33301 -0.666992 -6.5 -1 -9.5 -1h-9.5c-16.667 0 -32.334 2.83301 -47.001 8.5s-27 14.5 -37 26.5
s-17.167 27.333 -21.5 46s-4.83301 40.667 -1.5 66c0 4 1.33301 6.83301 4 8.5s5.5 2.5 8.5 2.5s5.5 -1 7.5 -3s2.66699 -5.33301 2 -10c-2.66699 -21.333 -2.33398 -39.833 0.999023 -55.5s9 -28.5 17 -38.5s17.833 -17.333 29.5 -22s24.167 -7 37.5 -7h11
c-5.33301 14 -8.83301 28 -10.5 42s-2.5 28 -2.5 42c0.666992 29.333 5.83398 54.666 15.501 75.999s21.5 38.666 35.5 51.999s29.167 22.333 45.5 27s31.666 4.5 45.999 -0.5s26.166 -14.833 35.499 -29.5s14 -34.334 14 -59.001c0 -18.667 -4 -36.834 -12 -54.501
s-18.667 -34 -32 -49s-29 -28 -47 -39s-36.667 -18.833 -56 -23.5c13.333 -28 32.833 -51.167 58.5 -69.5s59.5 -27.5 101.5 -27.5s86.167 5.66699 132.5 17s92.333 27.666 138 48.999s90.167 47 133.5 77s83.333 64 120 102c3.33301 4.66699 6.16602 9 8.49902 13
s5.16602 8 8.49902 12c14 18 30.833 34 50.5 48s41.834 20 66.501 18c11.333 -1.33301 22.666 -5.66602 33.999 -12.999s18.666 -18 21.999 -32c3.33301 -14.667 2.33301 -32.167 -3 -52.5s-17.333 -41.166 -36 -62.499c-2 -3.33301 -4.33301 -5 -7 -5s-5 0.833008 -7 2.5
s-3.16699 4 -3.5 7s0.5 5.83301 2.5 8.5c16 21.333 26.167 39.833 30.5 55.5s4.83301 27.834 1.5 36.501s-10.166 13.667 -20.499 15s-21.833 -1.66699 -34.5 -9c-15.333 -8.66699 -30.166 -24 -44.499 -46s-27 -47 -38 -75s-20.167 -57 -27.5 -87
s-11.833 -57.667 -13.5 -83s0.166016 -46 5.49902 -62s14.666 -24 27.999 -24c15.333 0 32.666 6.5 51.999 19.5s39.333 29.833 60 50.5s41.334 43.667 62.001 69s39.834 50.333 57.501 75l47.5 69c14 21.333 24.667 38.333 32 51c4.66699 4 9.5 4.5 14.5 1.5
s6.16699 -7.83301 3.5 -14.5zM-559.994 383.001c0 29.333 -7.50195 48.834 -22.502 58.501s-31.667 11 -50 4s-35 -21.5 -50 -43.5s-22.5 -50.333 -22.5 -85c0 -13.333 1 -26.833 3 -40.5s5.33301 -26.834 10 -39.501c16 4 31.833 10.667 47.5 20s29.834 20.5 42.501 33.5
s22.834 27.333 30.501 43s11.5 32.167 11.5 49.5z" />
    <glyph glyph-name="d.003" unicode="&#xe037;" horiz-adv-x="393" 
d="M229 107l42.0049 61.5098l43.5 68.5l41.5 68l37 59c4.66699 5.33301 10 6.66602 16 3.99902s7.33301 -7.66699 4 -15l-39.5 -65.5l-47.5 -78c-16.667 -27 -33.834 -53.333 -51.501 -79s-34.834 -48.5 -51.501 -68.5s-32.167 -35.833 -46.5 -47.5
s-26.5 -16.834 -36.5 -15.501c-16.667 3.33301 -28.5 12.666 -35.5 27.999s-11 33.166 -12 53.499s-0.166992 41.333 2.5 63s5.66699 40.167 9 55.5c-20.667 -19.333 -40.334 -32.166 -59.001 -38.499s-35.334 -7.5 -50.001 -3.5c-22 6 -35.5 18.167 -40.5 36.5
s-5.33301 38.5 -1 60.5s11.333 43.333 21 64s18.167 36 25.5 46c20.667 29.333 47.167 51.666 79.5 66.999s67.833 18 106.5 8l26.5 62l28.5 63c-41.333 5.33301 -74.666 18.5 -99.999 39.5s-44.333 45.5 -57 73.5c-3.33301 -0.666992 -6.5 -1 -9.5 -1h-9.5
c-16.667 0 -32.334 2.83301 -47.001 8.5s-27 14.5 -37 26.5s-17.167 27.333 -21.5 46s-4.83301 40.667 -1.5 66c0 4 1.33301 6.83301 4 8.5s5.5 2.5 8.5 2.5s5.5 -1 7.5 -3s2.66699 -5.33301 2 -10c-2.66699 -21.333 -2.33398 -39.833 0.999023 -55.5s9 -28.5 17 -38.5
s17.833 -17.333 29.5 -22s24.167 -7 37.5 -7h10c-9.33301 28 -13.333 56 -12 84c0.666992 29.333 5.83398 54.666 15.501 75.999s21.5 38.666 35.5 51.999s29.167 22.333 45.5 27s31.666 4.5 45.999 -0.5s26.166 -14.833 35.499 -29.5s14 -34.334 14 -59.001
c0 -18.667 -4 -36.834 -12 -54.501s-18.667 -34 -32 -49s-29 -28 -47 -39s-36.667 -18.833 -56 -23.5c12 -26 29.667 -48 53 -66s53.333 -28.333 90 -31c16.667 33.333 34.334 65.833 53.001 97.5s38 61.334 58 89.001s40.833 52.667 62.5 75s43.834 40.833 66.501 55.5
c36 23.333 66.5 35.166 91.5 35.499s43.667 -7.16699 56 -22.5s17.833 -36.333 16.5 -63s-10.666 -55.334 -27.999 -86.001c-12 -21.333 -27.5 -42.833 -46.5 -64.5s-41.333 -41.667 -67 -60s-54.834 -34.5 -87.501 -48.5s-68.667 -24.333 -108 -31
c-10 -17.333 -21.5 -40.5 -34.5 -69.5s-26.167 -60.833 -39.5 -95.5s-26.333 -70.334 -39 -107.001s-23.334 -71 -32.001 -103s-15 -60.167 -19 -84.5s-4.33301 -41.5 -1 -51.5s11 -11.167 23 -3.5s29.667 27.5 53 59.5zM330.005 588.01
c35.333 7.33301 67.334 17.499 96.001 30.499s54.334 28 77.001 45s42.167 35.5 58.5 55.5s29.833 40 40.5 60c10 19.333 17.333 39.166 22 59.499s4.66699 36.333 0 48s-14.834 16.834 -30.501 15.501s-38.5 -13.666 -68.5 -36.999
c-18.667 -14.667 -37.167 -32.834 -55.5 -54.501s-35.833 -45.167 -52.5 -70.5s-32.334 -51.166 -47.001 -77.499zM232.006 848.009c0 29.333 -7.50098 48.834 -22.501 58.501s-31.667 11 -50 4s-35 -21.5 -50 -43.5s-22.5 -50.333 -22.5 -85
c0 -28.667 4 -55.334 12 -80.001c16 4 32 10.667 48 20s30.333 20.5 43 33.5s22.834 27.333 30.501 43s11.5 32.167 11.5 49.5zM176.005 417.01c-19.333 5.33301 -37.665 2.66797 -54.998 -7.99902s-32.5 -25.167 -45.5 -43.5s-23.833 -38.666 -32.5 -60.999
s-14.334 -42.833 -17.001 -61.5s-1.83398 -33.334 2.49902 -44.001s12.833 -13.334 25.5 -8.00098c10.667 4 21.167 10.833 31.5 20.5s20.5 21.167 30.5 34.5c11.333 29.333 21.5 58.833 30.5 88.5s18.833 57.167 29.5 82.5z" />
    <glyph glyph-name="e.003" unicode="&#xe038;" 
d="M352 351c-25.333 -42.667 -52.333 -84.6631 -81 -125.996s-57.5 -78.166 -86.5 -110.499s-57.167 -58.833 -84.5 -79.5s-52.666 -32 -75.999 -34c-31.333 -2 -54 6.83301 -68 26.5s-21.833 45 -23.5 76s1.66602 64.833 9.99902 101.5s18.833 71 31.5 103
c-38 -34 -78.5 -64.5 -121.5 -91.5s-86.333 -49.667 -130 -68s-86.834 -32 -129.501 -41s-82.667 -12.5 -120 -10.5c-48 2 -86.667 14 -116 36s-51 48.333 -65 79c-3.33301 -0.666992 -6.5 -1 -9.5 -1h-9.5c-16.667 0 -32.334 2.83301 -47.001 8.5s-27 14.5 -37 26.5
s-17.167 27.333 -21.5 46s-4.83301 40.667 -1.5 66c0 4 1.33301 6.83301 4 8.5s5.5 2.5 8.5 2.5s5.5 -1 7.5 -3s2.66699 -5.33301 2 -10c-2.66699 -21.333 -2.33398 -39.833 0.999023 -55.5s9 -28.5 17 -38.5s17.833 -17.333 29.5 -22s24.167 -7 37.5 -7h11
c-5.33301 14 -8.83301 28 -10.5 42s-2.5 28 -2.5 42c0.666992 29.333 5.83398 54.666 15.501 75.999s21.5 38.666 35.5 51.999s29.167 22.333 45.5 27s31.666 4.5 45.999 -0.5s26.166 -14.833 35.499 -29.5s14 -34.334 14 -59.001c0 -18.667 -4 -36.834 -12 -54.501
s-18.667 -34 -32 -49s-29 -28 -47 -39s-36.667 -18.833 -56 -23.5c13.333 -28 32.833 -51.167 58.5 -69.5s59.5 -27.5 101.5 -27.5s86.167 5.66699 132.5 17s92.333 27.666 138 48.999s90.167 47 133.5 77s83.333 64 120 102v-1l8.5 14c2.33301 4 5.16602 8 8.49902 12
c14 18 30.833 34 50.5 48s41.834 20 66.501 18c20 -3.33301 34 -9.33301 42 -18s12 -18.5 12 -29.5s-3.5 -22.5 -10.5 -34.5s-15.5 -23.333 -25.5 -34c-13.333 -13.333 -30.333 -24.666 -51 -33.999s-43.334 -17.333 -68.001 -24c-11.333 -28 -20.666 -56.833 -27.999 -86.5
s-11.666 -56.834 -12.999 -81.501s0.333984 -44.834 5.00098 -60.501s13.334 -23.5 26.001 -23.5c15.333 0 32.666 6.5 51.999 19.5s39.333 29.667 60 50s41.334 43.333 62.001 69s39.834 50.834 57.501 75.501l47.5 69c14 21.333 24.667 38.333 32 51
c4.66699 4 9.5 4.5 14.5 1.5s6.16699 -7.83301 3.5 -14.5zM-560 383.004c0 29.333 -7.50195 48.834 -22.502 58.501s-31.667 11 -50 4s-35 -21.5 -50 -43.5s-22.5 -50.333 -22.5 -85c0 -13.333 1 -26.833 3 -40.5s5.33301 -26.834 10 -39.501c16 4 31.833 10.667 47.5 20
s29.834 20.5 42.501 33.5s22.834 27.333 30.501 43s11.5 32.167 11.5 49.5zM131.998 351.005c9.33301 8.66699 16.666 17.3311 21.999 25.998s8.33301 16.334 9 23.001s-1 11.667 -5 15s-10.333 4 -19 2c-17.333 -5.33301 -33.833 -17.833 -49.5 -37.5
s-30.167 -43.167 -43.5 -70.5c14.667 2 29.834 6.83301 45.501 14.5s29.167 16.834 40.5 27.501z" />
    <glyph glyph-name="f.003" unicode="&#xe039;" horiz-adv-x="294" 
d="M0 364l18.002 39.9971c-36 -2.66699 -67.5 2.5 -94.5 15.5s-49.833 30.167 -68.5 51.5l-18 -6c-16 -4.66699 -31.833 -6.33398 -47.5 -5.00098s-30 6.33301 -43 15s-24.167 21.334 -33.5 38.001s-16 37.667 -20 63c-0.666992 3.33301 0 6.33301 2 9
s4.33301 4.33398 7 5.00098s5.16699 0.333984 7.5 -0.999023s3.83301 -4.33301 4.5 -9c3.33301 -21.333 8.83301 -39 16.5 -53s16.834 -24.667 27.501 -32s22.167 -11.666 34.5 -12.999s24.833 0 37.5 4l11 3c-16.667 24 -28.667 49.667 -36 77c-8 28 -10.333 53.667 -7 77
s10 43.333 20 60s22.167 29.5 36.5 38.5s29 13.167 44 12.5s29 -6.66699 42 -18s23.167 -29 30.5 -53c5.33301 -18 6.66602 -36.667 3.99902 -56s-8.5 -38 -17.5 -56s-20.5 -34.833 -34.5 -50.5s-29.667 -28.5 -47 -38.5c18 -20.667 39.833 -36.167 65.5 -46.5
s54.834 -12.833 87.501 -7.5c18 37.333 37 73.833 57 109.5s40.5 67.334 61.5 95.001s42.333 50 64 67s42.834 25.5 63.501 25.5c19.333 0 35.166 -6.5 47.499 -19.5s18.5 -31.5 18.5 -55.5c0 -18 -4.16699 -37.667 -12.5 -59s-21.666 -42.333 -39.999 -63
s-42.5 -40.334 -72.5 -59.001s-67 -35 -111 -49l-37.5 -72.5c-10.333 -20.333 -20.5 -41.666 -30.5 -63.999s-21 -48.333 -33 -78l-46 -113.5c31.333 14 62.666 31 93.999 51s61.666 42 90.999 66s56.833 49.333 82.5 76s48.5 53.334 68.5 80.001
c2.66699 4 5.66699 6.16699 9 6.5s6.33301 -0.333984 9 -2.00098s4.16699 -4.16699 4.5 -7.5s-0.833984 -6.33301 -3.50098 -9c-49.333 -64 -105.166 -121.5 -167.499 -172.5s-129.166 -90.167 -200.499 -117.5c19.333 -20.667 32.166 -45.5 38.499 -74.5s8 -59.333 5 -91
s-10.167 -62.834 -21.5 -93.501s-24.833 -58.334 -40.5 -83.001s-32.834 -44.667 -51.501 -60s-37.334 -23 -56.001 -23c-14.667 0 -26.5 6 -35.5 18s-13.5 29.667 -13.5 53c0 22.667 3.83301 50.334 11.5 83.001s17.667 68 30 106s26.5 77.833 42.5 119.5l49.5 124
l50.5 118.5zM-64.998 35.9971c-17.333 -43.333 -32.332 -83.666 -44.999 -120.999s-23.334 -70.833 -32.001 -100.5s-15 -54.834 -19 -75.501s-6 -35.667 -6 -45c0 -11.333 2.66699 -17 8 -17c11.333 1.33301 23.5 9 36.5 23s25.167 31.5 36.5 52.5s21.5 44.667 30.5 71
s15 52.5 18 78.5s2.66699 50.833 -1 74.5s-12.5 43.5 -26.5 59.5zM-50.9971 675.997c-5.33301 18.667 -13.001 32.167 -23.001 40.5s-20.5 12.333 -31.5 12s-22 -4.5 -33 -12.5s-20 -19 -27 -33s-11.5 -30.5 -13.5 -49.5s0.333008 -39.5 7 -61.5
c4 -13.333 8.83301 -26 14.5 -38s12.167 -23.333 19.5 -34c14.667 8.66699 28.334 19.667 41.001 33s23.167 27.833 31.5 43.5s14 32.167 17 49.5s2.16699 34 -2.5 50zM120.002 453.997c36.667 12.667 67.167 27.1689 91.5 43.502s44 33.166 59 50.499s25.667 34.333 32 51
s9.5 32 9.5 46c0 15.333 -3.16699 27.666 -9.5 36.999s-14.166 14 -23.499 14c-8 0 -17 -5 -27 -15s-20.333 -22.667 -31 -38s-21.334 -32.5 -32.001 -51.5s-20.5 -37.5 -29.5 -55.5l-24 -49z" />
    <glyph glyph-name="g.003" unicode="&#xe03a;" horiz-adv-x="459" 
d="M261 455l-38.9941 -142.493c-14 -49.667 -28.333 -97.167 -43 -142.5c24 9.33301 48 19.666 72 30.999s47.667 24.666 71 39.999s46.5 33 69.5 53s45.5 43.333 67.5 70c5.33301 6 10.166 7.5 14.499 4.5s4.83301 -8.16699 1.5 -15.5c-24 -30 -48.667 -56.167 -74 -78.5
s-50.833 -41.833 -76.5 -58.5s-51.5 -31 -77.5 -43s-51.333 -22.667 -76 -32l-64 -177c-22 -58 -48 -116.333 -78 -175c-18 -36 -40.333 -66.667 -67 -92s-55 -44.333 -85 -57c-35.333 -15.333 -68 -18 -98 -8s-51.333 29.667 -64 59s-14.167 66.666 -4.5 111.999
s36.167 95.666 79.5 150.999c22 28 45.333 51.667 70 71s50.167 36 76.5 50s53.333 26.333 81 37l82.5 31c2 6.66699 3.66699 12.5 5 17.5s2.66602 9.66699 3.99902 14s2.66602 9 3.99902 14s3.33301 11.167 6 18.5c-15.333 -12 -31.833 -21.5 -49.5 -28.5
s-34.167 -8.83301 -49.5 -5.5c-13.333 2.66699 -24 8.33398 -32 17.001s-13.833 19.334 -17.5 32.001s-5 26.5 -4 41.5s3.83301 30.167 8.5 45.5c-38 -34 -78.5 -64.5 -121.5 -91.5s-86.5 -49.833 -130.5 -68.5s-87.333 -32.5 -130 -41.5s-82.667 -12.5 -120 -10.5
c-48 2 -86.667 14 -116 36s-51 48.333 -65 79c-3.33301 -0.666992 -6.5 -1 -9.5 -1h-9.5c-16.667 0 -32.334 2.83301 -47.001 8.5s-27 14.5 -37 26.5s-17.167 27.333 -21.5 46s-4.83301 40.667 -1.5 66c0 4 1.33301 6.83301 4 8.5s5.5 2.5 8.5 2.5s5.5 -1 7.5 -3
s2.66699 -5.33301 2 -10c-2.66699 -21.333 -2.33398 -39.833 0.999023 -55.5s9 -28.5 17 -38.5s17.833 -17.333 29.5 -22s24.167 -7 37.5 -7h11c-5.33301 14 -8.83301 28 -10.5 42s-2.5 28 -2.5 42c0.666992 29.333 5.83398 54.666 15.501 75.999s21.5 38.666 35.5 51.999
s29.167 22.333 45.5 27s31.666 4.5 45.999 -0.5s26.166 -14.833 35.499 -29.5s14 -34.334 14 -59.001c0 -18.667 -4 -36.834 -12 -54.501s-18.667 -34 -32 -49s-29 -28 -47 -39s-36.667 -18.833 -56 -23.5c13.333 -28 32.833 -51.167 58.5 -69.5s59.5 -27.5 101.5 -27.5
s86.167 5.66699 132.5 17s92.333 27.666 138 48.999s90.167 47 133.5 77s83.333 64 120 102v-1c8.66699 14 19.5 26.833 32.5 38.5s27.5 21.167 43.5 28.5s33.333 12 52 14s38.667 0.333008 60 -5l4 15h69zM-130.994 -306.993c26.667 22.667 51.334 51.335 74.001 86.002
s43.167 71.667 61.5 111s34.666 78.666 48.999 117.999l38.5 107l-88.5 -35.5c-28.333 -11.667 -55.5 -25.334 -81.5 -41.001s-50.667 -34.5 -74 -56.5s-45.333 -49 -66 -81c-18 -28.667 -31.167 -55.167 -39.5 -79.5s-12.5 -47.166 -12.5 -68.499
c0 -22.667 3.83301 -41.334 11.5 -56.001s18 -24.667 31 -30s27.833 -6 44.5 -2s34 13.333 52 28zM-559.994 383.008c0 29.333 -7.50195 48.834 -22.502 58.501s-31.667 11 -50 4s-35 -21.5 -50 -43.5s-22.5 -50.333 -22.5 -85c0 -13.333 1 -26.833 3 -40.5
s5.33301 -26.834 10 -39.501c16 4 31.833 10.667 47.5 20s29.834 20.5 42.501 33.5s22.834 27.333 30.501 43s11.5 32.167 11.5 49.5zM134.004 256.009l10.501 39.001l11.5 43l12 43l11 38c-16 4 -31.5 2 -46.5 -6s-28.833 -19.333 -41.5 -34
s-23.834 -31.334 -33.501 -50.001s-16.667 -36.5 -21 -53.5s-5.66602 -31.833 -3.99902 -44.5s7.16699 -20 16.5 -22c4.66699 -1.33301 11.334 -0.5 20.001 2.5s17.167 7 25.5 12s16.166 10.333 23.499 16s12.666 11.167 15.999 16.5z" />
    <glyph glyph-name="h.003" unicode="&#xe03b;" horiz-adv-x="407" 
d="M234 451c10.667 -5.33301 16.5 -15.999 17.5 -31.999s-1.33301 -35.167 -7 -57.5s-13.5 -46.5 -23.5 -72.5l-31 -77.5l-30.5 -72.5c-9.66699 -22.667 -16.834 -41.667 -21.501 -57c-5.33301 -16.667 -5.66602 -29.667 -0.999023 -39s11.667 -11 21 -5
c23.333 14.667 46.833 35.667 70.5 63s46.334 56.5 68.001 87.5s42 62.167 61 93.5l49.5 82c2 4 4.83301 6.33301 8.5 7s7 0.166992 10 -1.5s5 -4.16699 6 -7.5s0.166992 -7 -2.5 -11c-5.33301 -8 -13.833 -22.667 -25.5 -44s-25.834 -45.666 -42.501 -72.999
s-35.167 -55.666 -55.5 -84.999s-41.666 -55.666 -63.999 -78.999s-45.166 -41.833 -68.499 -55.5s-46 -18.5 -68 -14.5c-12 2 -19.5 10.167 -22.5 24.5s-3.16699 31.833 -0.5 52.5s7.5 43.5 14.5 68.5s14.667 49.333 23 73s16.666 45.667 24.999 66l19.5 46.5
c8 18 14.167 34.167 18.5 48.5s5 23.833 2 28.5s-10.333 2.33398 -22 -6.99902s-29.167 -28.666 -52.5 -57.999c-14 -17.333 -30 -40.5 -48 -69.5s-36 -59.833 -54 -92.5s-35 -65 -51 -97s-29 -60 -39 -84h-68l31.5 80l34.5 85l38.5 93.5l45.5 106.5l46 104l43 90
c-44 4.66699 -79.167 17.5 -105.5 38.5s-46.166 46.167 -59.499 75.5c-3.33301 -0.666992 -6.5 -1 -9.5 -1h-9.5c-16.667 0 -32.334 2.83301 -47.001 8.5s-27 14.5 -37 26.5s-17.167 27.333 -21.5 46s-4.83301 40.667 -1.5 66c0 4 1.33301 6.83301 4 8.5s5.5 2.5 8.5 2.5
s5.5 -1 7.5 -3s2.66699 -5.33301 2 -10c-2.66699 -21.333 -2.33398 -39.833 0.999023 -55.5s9 -28.5 17 -38.5s17.833 -17.333 29.5 -22s24.167 -7 37.5 -7h11c-5.33301 14 -8.83301 28 -10.5 42s-2.5 28 -2.5 42c0.666992 29.333 5.83398 54.666 15.501 75.999
s21.5 38.666 35.5 51.999s29.167 22.333 45.5 27s31.666 4.5 45.999 -0.5s26.166 -14.833 35.499 -29.5s14 -34.334 14 -59.001c0 -18.667 -4 -36.834 -12 -54.501s-18.667 -34 -32 -49s-29 -28 -47 -39s-36.667 -18.833 -56 -23.5c12.667 -27.333 31.334 -50 56.001 -68
s56.667 -27.667 96 -29c22 43.333 43.167 81.666 63.5 114.999s40.5 62.833 60.5 88.5s40.167 48 60.5 67s41.5 35.833 63.5 50.5c36 23.333 65.5 35.166 88.5 35.499s39.667 -7.16699 50 -22.5s13.833 -36.333 10.5 -63s-13.666 -55.334 -30.999 -86.001
c-12 -21.333 -27.5 -42.833 -46.5 -64.5s-41.333 -41.667 -67 -60s-54.834 -34.5 -87.501 -48.5s-68.667 -24.333 -108 -31c-22 -50 -45.667 -101 -71 -153s-49 -104.333 -71 -157c10 18.667 23.333 41.334 40 68.001s35 51.5 55 74.5s40.667 40.667 62 53s42 13.5 62 3.5z
M169 588.001c35.333 7.33301 67.334 17.499 96.001 30.499s54.334 28 77.001 45s42.167 35.5 58.5 55.5s29.833 40 40.5 60c10 19.333 17.333 39.166 22 59.499s4.66699 36.333 0 48s-14.834 16.834 -30.501 15.501s-38.5 -13.666 -68.5 -36.999
c-18.667 -14.667 -37.167 -32.834 -55.5 -54.501s-35.833 -45.167 -52.5 -70.5s-32.334 -51.166 -47.001 -77.499zM72.001 844c0 29.333 -7.50195 48.834 -22.502 58.501s-31.667 11 -50 4s-35 -21.5 -50 -43.5s-22.5 -50.333 -22.5 -85c0 -13.333 1 -26.833 3 -40.5
s5.33301 -26.834 10 -39.501c16 4 31.833 10.667 47.5 20s29.834 20.5 42.501 33.5s22.834 27.333 30.501 43s11.5 32.167 11.5 49.5z" />
    <glyph glyph-name="i.003" unicode="&#xe03c;" horiz-adv-x="258" 
d="M107 454l-14.9971 -38.4932l-25 -66.5c-9.33301 -25.333 -18.666 -52.333 -27.999 -81s-17.666 -56.334 -24.999 -83.001s-12.833 -50.834 -16.5 -72.501s-4.16699 -38.167 -1.5 -49.5s9 -16 19 -14s25.333 13.667 46 35c21.333 22 42.833 47.833 64.5 77.5l60.5 86.5
c18.667 28 34.5 52.833 47.5 74.5s21.167 35.5 24.5 41.5c2 3.33301 4.66699 5.33301 8 6s6.16602 0.333984 8.49902 -0.999023s4 -3.5 5 -6.5s0.5 -6.5 -1.5 -10.5c-3.33301 -6 -11 -18.833 -23 -38.5l-44 -69.5c-17.333 -26.667 -36.666 -54.5 -57.999 -83.5
s-42.666 -55.667 -63.999 -80s-41.833 -44.166 -61.5 -59.499s-36.834 -22.333 -51.501 -21c-11.333 2 -20 8 -26 18s-10 22.167 -12 36.5s-2.5 29.666 -1.5 45.999s2.5 32.166 4.5 47.499c5.33301 36 13 71 23 105s22 71 36 111l15 43c-38 -35.333 -78.833 -67 -122.5 -95
s-87.834 -51.5 -132.501 -70.5s-88.834 -33.333 -132.501 -43s-84.5 -13.5 -122.5 -11.5c-48 2 -86.667 14 -116 36s-51 48.333 -65 79c-3.33301 -0.666992 -6.5 -1 -9.5 -1h-9.5c-16.667 0 -32.334 2.83301 -47.001 8.5s-27 14.5 -37 26.5s-17.167 27.333 -21.5 46
s-4.83301 40.667 -1.5 66c0 4 1.33301 6.83301 4 8.5s5.5 2.5 8.5 2.5s5.5 -1 7.5 -3s2.66699 -5.33301 2 -10c-2.66699 -21.333 -2.33398 -39.833 0.999023 -55.5s9 -28.5 17 -38.5s17.833 -17.333 29.5 -22s24.167 -7 37.5 -7h11c-5.33301 14 -8.83301 28 -10.5 42
s-2.5 28 -2.5 42c0.666992 29.333 5.83398 54.666 15.501 75.999s21.5 38.666 35.5 51.999s29.167 22.333 45.5 27s31.666 4.5 45.999 -0.5s26.166 -14.833 35.499 -29.5s14 -34.334 14 -59.001c0 -18.667 -4 -36.834 -12 -54.501s-18.667 -34 -32 -49s-29 -28 -47 -39
s-36.667 -18.833 -56 -23.5c13.333 -28 32.833 -51.167 58.5 -69.5s59.5 -27.5 101.5 -27.5s86.167 5.66699 132.5 17s92.333 27.666 138 48.999s90.167 47 133.5 77s83.333 64 120 102zM-527.997 473.007c0 29.333 -7.50195 48.834 -22.502 58.501s-31.667 11 -50 4
s-35 -21.5 -50 -43.5s-22.5 -50.333 -22.5 -85c0 -13.333 1 -26.833 3 -40.5s5.33301 -26.834 10 -39.501c16 4 31.833 10.667 47.5 20s29.834 20.5 42.501 33.5s22.834 27.333 30.501 43s11.5 32.167 11.5 49.5zM87.001 563.008c13.333 0 23.333 -4.5 30 -13.5
s10 -19 10 -30s-3.33301 -21 -10 -30s-16.667 -13.5 -30 -13.5c-15.333 0 -27 4.5 -35 13.5s-12 19 -12 30s4 21 12 30s19.667 13.5 35 13.5z" />
    <glyph glyph-name="j.003" unicode="&#xe03d;" horiz-adv-x="286" 
d="M95 455l-38.998 -142.992c-14 -50.667 -28 -98 -42 -142c22.667 9.33301 45.5 19.666 68.5 30.999s46 24.666 69 39.999s45.833 33 68.5 53s44.667 43.333 66 70c4 4.66699 7.83301 7.16699 11.5 7.5s6.66699 -0.5 9 -2.5s3.83301 -4.66699 4.5 -8s-0.333008 -6 -3 -8
c-25.333 -30 -50.666 -56.167 -75.999 -78.5s-50.833 -41.833 -76.5 -58.5s-51.334 -31 -77.001 -43s-51.167 -22.667 -76.5 -32c-18.667 -60 -39 -119 -61 -177s-48 -116.333 -78 -175c-18 -36 -40.333 -66.833 -67 -92.5s-54.667 -44.5 -84 -56.5
c-25.333 -10 -48.666 -14.833 -69.999 -14.5s-39.833 5.5 -55.5 15.5s-27.834 24.5 -36.501 43.5s-13 41.5 -13 67.5c0 52.667 12.5 100 37.5 142s57 78.833 96 110.5s82 58.834 129 81.501s92.167 41 135.5 55c10.667 32 20.334 63.333 29.001 94l24 87
c-38.667 -36 -80 -68.333 -124 -97s-88.5 -52.834 -133.5 -72.501s-89.5 -34.334 -133.5 -44.001s-85.333 -13.5 -124 -11.5c-48 2 -86.667 14 -116 36s-51 48.333 -65 79c-3.33301 -0.666992 -6.5 -1 -9.5 -1h-9.5c-16.667 0 -32.334 2.83301 -47.001 8.5
s-27 14.5 -37 26.5s-17.167 27.333 -21.5 46s-4.83301 40.667 -1.5 66c0 4 1.33301 6.83301 4 8.5s5.5 2.5 8.5 2.5s5.5 -1 7.5 -3s2.66699 -5.33301 2 -10c-2.66699 -21.333 -2.33398 -39.833 0.999023 -55.5s9 -28.5 17 -38.5s17.833 -17.333 29.5 -22s24.167 -7 37.5 -7
h11c-5.33301 14 -8.83301 28 -10.5 42s-2.5 28 -2.5 42c0.666992 29.333 5.83398 54.666 15.501 75.999s21.5 38.666 35.5 51.999s29.167 22.333 45.5 27s31.666 4.5 45.999 -0.5s26.166 -14.833 35.499 -29.5s14 -34.334 14 -59.001c0 -18.667 -4 -36.834 -12 -54.501
s-18.667 -34 -32 -49s-29 -28 -47 -39s-36.667 -18.833 -56 -23.5c13.333 -28 32.833 -51.167 58.5 -69.5s59.5 -27.5 101.5 -27.5s86.167 5.66699 132.5 17s92.333 27.666 138 48.999s90.167 47 133.5 77s83.333 64 120 102l26 90h69zM-296.998 -306.992
c25.333 20.667 48.502 46.3369 69.502 77.0039s40.333 64.5 58 101.5s34.167 76 49.5 117s30 82.5 44 124.5c-38.667 -14 -79 -31.667 -121 -53s-80.5 -46.833 -115.5 -76.5s-64.333 -63.667 -88 -102s-36.167 -81.5 -37.5 -129.5
c-0.666992 -22.667 2.66602 -41.334 9.99902 -56.001s17.5 -24.834 30.5 -30.501s28.167 -6.33398 45.5 -2.00098s35.666 14.166 54.999 29.499zM-559.996 383.011c0 29.333 -7.50195 48.834 -22.502 58.501s-31.667 11 -50 4s-35 -21.5 -50 -43.5s-22.5 -50.333 -22.5 -85
c0 -13.333 1 -26.833 3 -40.5s5.33301 -26.834 10 -39.501c16 4 31.833 10.667 47.5 20s29.834 20.5 42.501 33.5s22.834 27.333 30.501 43s11.5 32.167 11.5 49.5zM35.002 517.012c-1.33301 13.333 2.00098 23.8359 10.001 31.5029s17 12.167 27 13.5
s19.5 -0.833984 28.5 -6.50098s14.167 -15.167 15.5 -28.5c1.33301 -15.333 -1.83398 -26.833 -9.50098 -34.5s-16.667 -11.834 -27 -12.501s-20 2.16602 -29 8.49902s-14.167 15.833 -15.5 28.5z" />
    <glyph glyph-name="k.003" unicode="&#xe03e;" horiz-adv-x="464" 
d="M-134 -2l17.0039 48.5039l29.5 83.5l39.5 109.5c14.667 40.333 30.667 82.166 48 125.499l40 98.5c14 33 28.667 65.833 44 98.5c-40.667 5.33301 -73.5 18.5 -98.5 39.5s-44.167 45.5 -57.5 73.5c-3.33301 -0.666992 -6.5 -1 -9.5 -1h-9.5
c-16.667 0 -32.334 2.83301 -47.001 8.5s-27 14.5 -37 26.5s-17.167 27.333 -21.5 46s-4.83301 40.667 -1.5 66c0 4 1.33301 6.83301 4 8.5s5.5 2.5 8.5 2.5s5.5 -1 7.5 -3s2.66699 -5.33301 2 -10c-2.66699 -21.333 -2.33398 -39.833 0.999023 -55.5s9 -28.5 17 -38.5
s17.833 -17.333 29.5 -22s24.167 -7 37.5 -7h11c-5.33301 14 -8.83301 28 -10.5 42s-2.5 28 -2.5 42c0.666992 29.333 5.83398 54.666 15.501 75.999s21.5 38.666 35.5 51.999s29.167 22.333 45.5 27s31.666 4.5 45.999 -0.5s26.166 -14.833 35.499 -29.5
s14 -34.334 14 -59.001c0 -18.667 -4 -36.834 -12 -54.501s-18.667 -34 -32 -49s-29 -28 -47 -39s-36.667 -18.833 -56 -23.5c12 -26 29.667 -47.833 53 -65.5s53 -28.167 89 -31.5c17.333 35.333 35.333 69.333 54 102s38 62.834 58 90.501s40.667 52.334 62 74.001
s43.333 39.167 66 52.5c36.667 21.333 67.667 32 93 32s44 -7.33301 56 -22s17.167 -35 15.5 -61s-11.167 -54.333 -28.5 -85c-12 -21.333 -27.5 -42.833 -46.5 -64.5s-41.333 -41.667 -67 -60s-54.834 -34.5 -87.501 -48.5s-68.667 -24.333 -108 -31l-50 -112.5l-59 -144.5
c12 11.333 26.667 24.166 44 38.499s36.166 27.833 56.499 40.5s42 23.667 65 33s46.167 15 69.5 17c15.333 1.33301 28.166 -2.33398 38.499 -11.001s12.833 -20 7.5 -34c-3.33301 -9.33301 -10.666 -19.833 -21.999 -31.5s-24.833 -23.5 -40.5 -35.5s-33 -23.5 -52 -34.5
s-38 -21 -57 -30s-37.167 -16.5 -54.5 -22.5s-32 -9.33301 -44 -10c-3.33301 -12 -5.16602 -26.167 -5.49902 -42.5s1.33398 -32.666 5.00098 -48.999s9.5 -31.666 17.5 -45.999s18.5 -25 31.5 -32s28.833 -9.33301 47.5 -7s40.334 11.5 65.001 27.5
c27.333 18 53.666 40.333 78.999 67s48.666 54 69.999 82s39.833 54.5 55.5 79.5s27.5 45.167 35.5 60.5c4 5.33301 7.66699 8.66602 11 9.99902s6.33301 1.16602 9 -0.500977s4.16699 -4.16699 4.5 -7.5s-0.5 -7.33301 -2.5 -12c-8 -16 -19.333 -36.333 -34 -61
s-31.834 -50.834 -51.501 -78.501s-41.167 -55.167 -64.5 -82.5s-47.5 -51.333 -72.5 -72s-50.167 -36.667 -75.5 -48s-49.666 -14.666 -72.999 -9.99902s-45.333 18.834 -66 42.501s-38.667 60.167 -54 109.5l-13.5 -38.5l-14.5 -43l-13.5 -41l-10.5 -32.5z
M173.004 588.004c35.333 7.33301 67.334 17.499 96.001 30.499s54.334 28 77.001 45s42.167 35.5 58.5 55.5s29.833 40 40.5 60c10 19.333 17.333 39.166 22 59.499s4.66699 36.333 0 48s-14.834 16.834 -30.501 15.501s-38.5 -13.666 -68.5 -36.999
c-18.667 -14.667 -37.167 -32.834 -55.5 -54.501s-35.833 -45.167 -52.5 -70.5s-32.334 -51.166 -47.001 -77.499zM76.0049 846.003c0 29.333 -7.50195 48.834 -22.502 58.501s-31.667 11 -50 4s-35 -21.5 -50 -43.5s-22.5 -50.333 -22.5 -85c0 -13.333 1 -26.833 3 -40.5
s5.33301 -26.834 10 -39.501c16 4 31.833 10.667 47.5 20s29.834 20.5 42.501 33.5s22.834 27.333 30.501 43s11.5 32.167 11.5 49.5zM69.0029 254.004c14 2 31.5 7.16699 52.5 15.5s42.5 18.5 64.5 30.5s42.667 24.667 62 38s34.666 26 45.999 38
c11.333 12.667 15 21.5 11 26.5s-13.333 5.83301 -28 2.5c-18.667 -3.33301 -38.667 -10.5 -60 -21.5s-41.666 -23.833 -60.999 -38.5s-36.833 -30 -52.5 -46s-27.167 -31 -34.5 -45z" />
    <glyph glyph-name="l.003" unicode="&#xe03f;" horiz-adv-x="337" 
d="M15 41c11.333 2 27.5049 11.6709 48.5049 29.0039s43.5 38.166 67.5 62.499s48.333 50.333 73 78l67 76.5l48.5 57c12.333 14.667 18.166 21.334 17.499 20.001c2 3.33301 4.66699 5.33301 8 6s6.16602 0.333984 8.49902 -0.999023s4 -3.5 5 -6.5s0.5 -6.5 -1.5 -10.5
c-2.66699 -5.33301 -10.334 -16.166 -23.001 -32.499s-28.5 -35.666 -47.5 -57.999l-64 -72.5c-23.667 -26 -47.667 -50.833 -72 -74.5s-48.166 -44.834 -71.499 -63.501s-44.333 -32.334 -63 -41.001c-26.667 -12 -46 -13 -58 -3s-19.167 26.5 -21.5 49.5s-1 50.167 4 81.5
s11.333 62 19 92s15.5 57.333 23.5 82l17 52l7 20c10 29.333 21.167 59 33.5 89s25.833 60 40.5 90c-40 6 -74.833 19.167 -104.5 39.5s-50.834 44.5 -63.501 72.5c-3.33301 -0.666992 -6.5 -1 -9.5 -1h-9.5c-16.667 0 -32.334 2.83301 -47.001 8.5s-27 14.5 -37 26.5
s-17.167 27.333 -21.5 46s-4.83301 40.667 -1.5 66c0 4 1.33301 6.83301 4 8.5s5.5 2.5 8.5 2.5s5.5 -1 7.5 -3s2.66699 -5.33301 2 -10c-2.66699 -21.333 -2.33398 -39.833 0.999023 -55.5s9 -28.5 17 -38.5s17.833 -17.333 29.5 -22s24.167 -7 37.5 -7h11
c-5.33301 14 -8.83301 28 -10.5 42s-2.5 28 -2.5 42c0.666992 29.333 5.83398 54.666 15.501 75.999s21.5 38.666 35.5 51.999s29.167 22.333 45.5 27s31.666 4.5 45.999 -0.5s26.166 -14.833 35.499 -29.5s14 -34.334 14 -59.001c0 -18.667 -4 -36.834 -12 -54.501
s-18.667 -34 -32 -49s-29 -28 -47 -39s-36.667 -18.833 -56 -23.5c12 -25.333 31.833 -46.833 59.5 -64.5s59.167 -28.167 94.5 -31.5c16.667 33.333 34.334 65.833 53.001 97.5s38.167 61.334 58.5 89.001s41.5 52.667 63.5 75s44.667 41.166 68 56.499
c36 23.333 66.5 35.166 91.5 35.499s43.667 -7.16699 56 -22.5s17.833 -36.333 16.5 -63s-10.666 -55.334 -27.999 -86.001c-12 -21.333 -27.5 -42.833 -46.5 -64.5s-41.333 -41.667 -67 -60s-54.834 -34.5 -87.501 -48.5s-68.667 -24.333 -108 -31
c-13.333 -28 -26.666 -57.833 -39.999 -89.5l-40 -98.5l-25.5 -68.5c-9 -25 -17.5 -50.167 -25.5 -75.5s-15 -49.666 -21 -72.999s-10 -43.833 -12 -61.5s-1.83301 -31.5 0.5 -41.5s8.16602 -14.333 17.499 -13zM173.005 588.004
c35.333 7.33301 67.334 17.499 96.001 30.499s54.334 28 77.001 45s42.167 35.5 58.5 55.5s29.833 40 40.5 60c10 19.333 17.333 39.166 22 59.499s4.66699 36.333 0 48s-14.834 16.834 -30.501 15.501s-38.5 -13.666 -68.5 -36.999
c-18.667 -14.667 -37.167 -32.834 -55.5 -54.501s-35.833 -45.167 -52.5 -70.5s-32.334 -51.166 -47.001 -77.499zM61.0059 846.003c0 29.333 -7.50195 48.834 -22.502 58.501s-31.667 11 -50 4s-35 -21.5 -50 -43.5s-22.5 -50.333 -22.5 -85c0 -13.333 1 -26.833 3 -40.5
s5.33301 -26.834 10 -39.501c16 4 31.833 10.667 47.5 20s29.834 20.5 42.501 33.5s22.834 27.333 30.501 43s11.5 32.167 11.5 49.5z" />
    <glyph glyph-name="m.003" unicode="&#xe040;" horiz-adv-x="593" 
d="M109 155l76.9922 176.005c8 18 14.5 34.167 19.5 48.5s7 24.5 6 30.5s-5.66699 6.5 -14 1.5s-21.833 -17.833 -40.5 -38.5c-26.667 -29.333 -48.5 -56.5 -65.5 -81.5l-51.5 -79.5c-10.667 -18 -20.667 -37.5 -30 -58.5s-17.666 -41.333 -24.999 -61
s-13.666 -37.834 -18.999 -54.501l-12 -38h-70l116 365l13 41c-38 -35.333 -78.667 -67 -122 -95s-87.333 -51.5 -132 -70.5s-88.834 -33.167 -132.501 -42.5s-84.5 -13 -122.5 -11c-48 2 -86.667 14 -116 36s-51 48.333 -65 79c-3.33301 -0.666992 -6.5 -1 -9.5 -1h-9.5
c-16.667 0 -32.334 2.83301 -47.001 8.5s-27 14.5 -37 26.5s-17.167 27.333 -21.5 46s-4.83301 40.667 -1.5 66c0 4 1.33301 6.83301 4 8.5s5.5 2.5 8.5 2.5s5.5 -1 7.5 -3s2.66699 -5.33301 2 -10c-2.66699 -21.333 -2.33398 -39.833 0.999023 -55.5s9 -28.5 17 -38.5
s17.833 -17.333 29.5 -22s24.167 -7 37.5 -7h11c-5.33301 14 -8.83301 28 -10.5 42s-2.5 28 -2.5 42c0.666992 29.333 5.83398 54.666 15.501 75.999s21.5 38.666 35.5 51.999s29.167 22.333 45.5 27s31.666 4.5 45.999 -0.5s26.166 -14.833 35.499 -29.5
s14 -34.334 14 -59.001c0 -18.667 -4 -36.834 -12 -54.501s-18.667 -34 -32 -49s-29 -28 -47 -39s-36.667 -18.833 -56 -23.5c13.333 -28 32.833 -51.167 58.5 -69.5s59.5 -27.5 101.5 -27.5s85.833 5.66699 131.5 17s91.334 27.5 137.001 48.5s90 46.333 133 76
s82.833 63.167 119.5 100.5c0 1.33301 0.333008 2.33301 1 3h67c-3.33301 -8 -7.66602 -20.833 -12.999 -38.5l-18.5 -59l-21.5 -66c-7.33301 -22.333 -14.333 -42.5 -21 -60.5l53 81c19.333 28.667 39.333 54.5 60 77.5s41.334 40.667 62.001 53
s40.334 15.166 59.001 8.49902c13.333 -5.33301 21.833 -15.333 25.5 -30s3.83398 -32 0.500977 -52c11.333 14 22.833 26.833 34.5 38.5s23.334 21.5 35.001 29.5s23.334 13.333 35.001 16s22.834 2 33.501 -2c10.667 -4.66699 16.334 -15.334 17.001 -32.001
s-1.83301 -36.667 -7.5 -60s-13.667 -48.666 -24 -75.999s-21 -53.833 -32 -79.5l-31 -71.5c-9.66699 -22 -16.834 -39 -21.501 -51c-6 -16 -6 -28.667 0 -38s13.667 -11 23 -5c24.667 15.333 48.834 36.5 72.501 63.5s46.167 56 67.5 87s41.333 62.167 60 93.5l49 82
c2 4 4.83301 6.33301 8.5 7s7 0.166992 10 -1.5s5 -4.16699 6 -7.5s0.166992 -7 -2.5 -11c-5.33301 -8 -13.666 -22.5 -24.999 -43.5s-25.166 -45 -41.499 -72s-34.666 -55 -54.999 -84s-41.5 -55.167 -63.5 -78.5s-44.5 -41.666 -67.5 -54.999s-45.5 -18.333 -67.5 -15
c-13.333 2 -22 10.167 -26 24.5s-4.66699 31.833 -2 52.5s7.5 43.167 14.5 67.5s14.667 48.333 23 72s16.666 45.5 24.999 65.5s15.166 35.333 20.499 46c8 18 14.5 34.167 19.5 48.5s7 24.5 6 30.5s-5.66699 6.5 -14 1.5s-21.833 -17.833 -40.5 -38.5
c-12.667 -14 -23.334 -26.667 -32.001 -38s-16.667 -22.333 -24 -33c-13.333 -24 -26.166 -48.667 -38.499 -74l-34.5 -73h-83zM-529.008 473.005c0 29.333 -7.50195 48.834 -22.502 58.501s-31.667 11 -50 4s-35 -21.5 -50 -43.5s-22.5 -50.333 -22.5 -85
c0 -13.333 1 -26.833 3 -40.5s5.33301 -26.834 10 -39.501c16 4 31.833 10.667 47.5 20s29.834 20.5 42.501 33.5s22.834 27.333 30.501 43s11.5 32.167 11.5 49.5z" />
    <glyph glyph-name="n.003" unicode="&#xe041;" horiz-adv-x="427" 
d="M136 391c20 22.667 40.1689 40.3291 60.502 52.9961s39.5 15 57.5 7c10.667 -4.66699 16.334 -15.334 17.001 -32.001s-2 -36.5 -8 -59.5s-14.333 -48.167 -25 -75.5l-33 -81l-31.5 -75c-9.66699 -23.333 -16.834 -42.666 -21.501 -57.999
c-5.33301 -16.667 -4.66602 -27.667 2.00098 -33s14.667 -5 24 1c23.333 14.667 46.833 35.667 70.5 63s46.334 56.5 68.001 87.5s42 62.167 61 93.5l49.5 82c2 4 4.83301 6.33301 8.5 7s7 0.166992 10 -1.5s5 -4.16699 6 -7.5s0.166992 -7 -2.5 -11
c-5.33301 -8 -14 -22.667 -26 -44s-26.5 -45.833 -43.5 -73.5s-36 -56.167 -57 -85.5s-42.833 -55.666 -65.5 -78.999s-45.667 -41.666 -69 -54.999s-46 -17.666 -68 -12.999c-12 2.66699 -19.5 11.167 -22.5 25.5s-2.83301 31.833 0.5 52.5s8.66602 43.334 15.999 68.001
s15.333 48.834 24 72.501s17.334 45.5 26.001 65.5l20 46c8 18 14.167 34.167 18.5 48.5s5 23.833 2 28.5s-10.333 2.33398 -22 -6.99902s-29.167 -28.666 -52.5 -57.999c-14 -17.333 -30.5 -40.5 -49.5 -69.5s-38 -59.833 -57 -92.5l-54 -97c-17 -32 -30.5 -60 -40.5 -84
l-60 1l27 77.5l30 84l34 94l40 108.5l15 39c-38 -35.333 -78.667 -66.666 -122 -93.999s-87.166 -50.5 -131.499 -69.5s-88.166 -33.167 -131.499 -42.5s-84 -13 -122 -11c-48 2 -86.667 14 -116 36s-51 48.333 -65 79c-3.33301 -0.666992 -6.5 -1 -9.5 -1h-9.5
c-16.667 0 -32.334 2.83301 -47.001 8.5s-27 14.5 -37 26.5s-17.167 27.333 -21.5 46s-4.83301 40.667 -1.5 66c0 4 1.33301 6.83301 4 8.5s5.5 2.5 8.5 2.5s5.5 -1 7.5 -3s2.66699 -5.33301 2 -10c-2.66699 -21.333 -2.33398 -39.833 0.999023 -55.5s9 -28.5 17 -38.5
s17.833 -17.333 29.5 -22s24.167 -7 37.5 -7h11c-5.33301 14 -8.83301 28 -10.5 42s-2.5 28 -2.5 42c0.666992 29.333 5.83398 54.666 15.501 75.999s21.5 38.666 35.5 51.999s29.167 22.333 45.5 27s31.666 4.5 45.999 -0.5s26.166 -14.833 35.499 -29.5
s14 -34.334 14 -59.001c0 -18.667 -4 -36.834 -12 -54.501s-18.667 -34 -32 -49s-29 -28 -47 -39s-36.667 -18.833 -56 -23.5c13.333 -28 32.833 -51.167 58.5 -69.5s59.5 -27.5 101.5 -27.5s86.167 5.66699 132.5 17s92.166 27.5 137.499 48.5s89.666 46.5 132.999 76.5
s83 63.667 119 101c0 0.666992 0.166992 1 0.5 1s0.5 0.333008 0.5 1h71l-18 -44l-28 -70.5l-30 -77.5l-25 -64c16 28.667 35.167 60.167 57.5 94.5s47.166 66.833 74.499 97.5zM-524.998 472.995c0 29.333 -7.50195 48.834 -22.502 58.501s-31.667 11 -50 4
s-35 -21.5 -50 -43.5s-22.5 -50.333 -22.5 -85c0 -13.333 1 -26.833 3 -40.5s5.33301 -26.834 10 -39.501c16 4 31.833 10.667 47.5 20s29.834 20.5 42.501 33.5s22.834 27.333 30.501 43s11.5 32.167 11.5 49.5z" />
    <glyph glyph-name="o.003" unicode="&#xe042;" horiz-adv-x="412" 
d="M412 365c2.66699 4 5.83398 6.16504 9.50098 6.49805s7 -0.333984 10 -2.00098s5 -4.5 6 -8.5s0.5 -8.66699 -1.5 -14c-11.333 -32 -25.5 -61.5 -42.5 -88.5s-35.833 -50.167 -56.5 -69.5s-42.167 -33.833 -64.5 -43.5s-44.5 -13.167 -66.5 -10.5
c-12 -17.333 -25 -34.166 -39 -50.499s-29 -30.833 -45 -43.5s-33 -23 -51 -31s-36.667 -12 -56 -12c-30 0 -53 9.16699 -69 27.5s-26 41.833 -30 70.5s-2.5 60.334 4.5 95.001s18.5 68.334 34.5 101.001c-37.333 -32 -76.666 -60.333 -117.999 -85s-83 -45.5 -125 -62.5
s-83.333 -29.5 -124 -37.5s-79 -11.333 -115 -10c-48 2 -86.667 14 -116 36s-51 48.333 -65 79c-3.33301 -0.666992 -6.5 -1 -9.5 -1h-9.5c-16.667 0 -32.334 2.83301 -47.001 8.5s-27 14.5 -37 26.5s-17.167 27.333 -21.5 46s-4.83301 40.667 -1.5 66
c0 4 1.33301 6.83301 4 8.5s5.5 2.5 8.5 2.5s5.5 -1 7.5 -3s2.66699 -5.33301 2 -10c-2.66699 -21.333 -2.33398 -39.833 0.999023 -55.5s9 -28.5 17 -38.5s17.833 -17.333 29.5 -22s24.167 -7 37.5 -7h11c-5.33301 14 -8.83301 28 -10.5 42s-2.5 28 -2.5 42
c0.666992 29.333 5.83398 54.666 15.501 75.999s21.5 38.666 35.5 51.999s29.167 22.333 45.5 27s31.666 4.5 45.999 -0.5s26.166 -14.833 35.499 -29.5s14 -34.334 14 -59.001c0 -18.667 -4 -36.834 -12 -54.501s-18.667 -34 -32 -49s-29 -28 -47 -39
s-36.667 -18.833 -56 -23.5c13.333 -28 32.833 -51.167 58.5 -69.5s59.5 -27.5 101.5 -27.5s86.167 5.66699 132.5 17s92.333 27.666 138 48.999s90.167 47 133.5 77s83.333 64 120 102c12.667 16.667 26.834 31.5 42.501 44.5s32.167 23.333 49.5 31
s35.666 12.334 54.999 14.001s39 -0.5 59 -6.5c3.33301 -1.33301 5.66602 -3.83301 6.99902 -7.5s1.5 -7.33398 0.5 -11.001s-3 -6.5 -6 -8.5s-7.5 -2 -13.5 0c-30 5.33301 -57.667 0.5 -83 -14.5s-47.333 -35.667 -66 -62s-33.667 -56 -45 -89s-18.333 -64.5 -21 -94.5
s-0.5 -56.5 6.5 -79.5s19.5 -37.5 37.5 -43.5c10 -3.33301 22 -2.5 36 2.5s28 12.667 42 23s27.5 22.333 40.5 36s23.833 27.5 32.5 41.5c-27.333 16.667 -44.833 38.334 -52.5 65.001s-8.16699 53.334 -1.5 80.001s18.834 50.834 36.501 72.501s38.5 36.167 62.5 43.5
c12.667 4 23.667 4.5 33 1.5s17.166 -8.33301 23.499 -16s10.666 -17 12.999 -28s2.83301 -22.833 1.5 -35.5c-2.66699 -19.333 -9.5 -43.833 -20.5 -73.5s-25.833 -58.834 -44.5 -87.501c18 0 36.333 6.33301 55 19s36.334 28.834 53.001 48.501
s31.834 41.334 45.501 65.001s24.834 46.834 33.501 69.501zM-560 382.998c0 29.333 -7.50195 48.834 -22.502 58.501s-31.667 11 -50 4s-35 -21.5 -50 -43.5s-22.5 -50.333 -22.5 -85c0 -13.333 1 -26.833 3 -40.5s5.33301 -26.834 10 -39.501c16 4 31.833 10.667 47.5 20
s29.834 20.5 42.501 33.5s22.834 27.333 30.501 43s11.5 32.167 11.5 49.5zM193.998 169.999c9.33301 12.667 18.665 27.498 27.998 44.498s17.333 34.167 24 51.5s11.334 34 14.001 50s2.66699 29.333 0 40c-4.66699 15.333 -12.167 22.833 -22.5 22.5
s-21.333 -5.66602 -33 -15.999s-22.5 -24.166 -32.5 -41.499s-16.667 -35.5 -20 -54.5s-2.16602 -37.333 3.50098 -55s18.5 -31.5 38.5 -41.5z" />
    <glyph glyph-name="p.003" unicode="&#xe043;" horiz-adv-x="435" 
d="M223 406c12 -13.333 20.5068 -28.999 25.5068 -46.999s7.33301 -36.5 7 -55.5s-3 -37.833 -8 -56.5s-10.833 -35.334 -17.5 -50.001c14.667 4.66699 31.334 13.167 50.001 25.5s37.5 26.5 56.5 42.5s37.167 32.833 54.5 50.5s32 34.167 44 49.5
c3.33301 2.66699 6.66602 3.83398 9.99902 3.50098s6.16602 -1.83301 8.49902 -4.5s3.66602 -6 3.99902 -10s-0.833984 -7.66699 -3.50098 -11c-16 -19.333 -33.5 -39 -52.5 -59s-39.167 -38.667 -60.5 -56s-43.166 -32.5 -65.499 -45.5s-44.5 -21.5 -66.5 -25.5
c-26 -40 -51.167 -68.333 -75.5 -85s-46.166 -25.667 -65.499 -27s-34.666 3 -45.999 13s-16.833 22.167 -16.5 36.5s7.83301 28.666 22.5 42.999s38.334 24.833 71.001 31.5l36 6c14 21.333 24.667 43.333 32 66s11.666 43.834 12.999 63.501s-0.166992 36.834 -4.5 51.501
s-11.166 25.167 -20.499 31.5s-21 7.33301 -35 3s-29.667 -15.5 -47 -33.5c-10.667 -32.667 -23.667 -70.334 -39 -113.001s-32.666 -87.334 -51.999 -134.001s-40.5 -94 -63.5 -142s-47.5 -93.167 -73.5 -135.5s-53.333 -80.666 -82 -114.999s-58.334 -61.5 -89.001 -81.5
c-36 -23.333 -66.5 -35.166 -91.5 -35.499s-43.667 7.16699 -56 22.5s-17.833 36.333 -16.5 63s10.666 55.334 27.999 86.001c12 21.333 27.5 42.833 46.5 64.5s41.333 41.667 67 60s54.834 34.5 87.501 48.5s68.667 24.333 108 31c12 24.667 24.5 52.5 37.5 83.5l39.5 97
l39.5 104l36.5 104.5l13 42c-38 -35.333 -78.833 -67 -122.5 -95s-87.834 -51.5 -132.501 -70.5s-88.834 -33.333 -132.501 -43s-84.5 -13.5 -122.5 -11.5c-48 2 -86.667 14 -116 36s-51 48.333 -65 79c-3.33301 -0.666992 -6.5 -1 -9.5 -1h-9.5
c-16.667 0 -32.334 2.83301 -47.001 8.5s-27 14.5 -37 26.5s-17.167 27.333 -21.5 46s-4.83301 40.667 -1.5 66c0 4 1.33301 6.83301 4 8.5s5.5 2.5 8.5 2.5s5.5 -1 7.5 -3s2.66699 -5.33301 2 -10c-2.66699 -21.333 -2.33398 -39.833 0.999023 -55.5s9 -28.5 17 -38.5
s17.833 -17.333 29.5 -22s24.167 -7 37.5 -7h11c-5.33301 14 -8.83301 28 -10.5 42s-2.5 28 -2.5 42c0.666992 29.333 5.83398 54.666 15.501 75.999s21.5 38.666 35.5 51.999s29.167 22.333 45.5 27s31.666 4.5 45.999 -0.5s26.166 -14.833 35.499 -29.5
s14 -34.334 14 -59.001c0 -18.667 -4 -36.834 -12 -54.501s-18.667 -34 -32 -49s-29 -28 -47 -39s-36.667 -18.833 -56 -23.5c13.333 -28 32.833 -51.167 58.5 -69.5s59.5 -27.5 101.5 -27.5s86.167 5.66699 132.5 17s92.166 27.5 137.499 48.5s89.666 46.5 132.999 76.5
s83 63.667 119 101l1 2h75l-13 -40l-4 -14c10.667 6.66699 22 12.5 34 17.5s24 8.16699 36 9.5s23.667 0.333008 35 -3s21.666 -9.66602 30.999 -18.999zM-164.993 -49.999c-35.333 -7.33301 -67.334 -17.666 -96.001 -30.999s-54.334 -28.5 -77.001 -45.5
s-42.167 -35.333 -58.5 -55s-29.833 -39.5 -40.5 -59.5c-10 -19.333 -17.333 -39.166 -22 -59.499s-4.66699 -36.333 0 -48s14.834 -16.834 30.501 -15.501s38.5 13.666 68.5 36.999c18.667 14.667 37.167 32.834 55.5 54.501s35.833 45.167 52.5 70.5
s32.334 51.166 47.001 77.499zM-529.994 473.001c0 29.333 -7.50195 48.834 -22.502 58.501s-31.667 11 -50 4s-35 -21.5 -50 -43.5s-22.5 -50.333 -22.5 -85c0 -13.333 1 -26.833 3 -40.5s5.33301 -26.834 10 -39.501c16 4 31.833 10.667 47.5 20s29.834 20.5 42.501 33.5
s22.834 27.333 30.501 43s11.5 32.167 11.5 49.5zM109.004 135.002c-14.667 1.33301 -27.998 -0.500977 -39.998 -5.50098s-21.333 -10.833 -28 -17.5s-10.334 -13 -11.001 -19s3 -9 11 -9c6 0 12 1.83301 18 5.5s11.833 8.33398 17.5 14.001l16.5 17
c5.33301 5.66699 10.666 10.5 15.999 14.5z" />
    <glyph glyph-name="q.003" unicode="&#xe044;" horiz-adv-x="356" 
d="M195 455l70.999 0.00683594c-26.667 -66.667 -48.834 -126.667 -66.501 -180l-47.5 -146c22 16.667 42.833 34.667 62.5 54s38 39.333 55 60s32.667 41.167 47 61.5s27.5 40.166 39.5 59.499c1.33301 3.33301 3.83301 5.16602 7.5 5.49902s7 -0.333984 10 -2.00098
s5 -4 6 -7s0.166992 -6.5 -2.5 -10.5c-10 -16.667 -22 -34.5 -36 -53.5s-29.167 -38.5 -45.5 -58.5s-33.5 -39.833 -51.5 -59.5s-36.333 -38.167 -55 -55.5l-24.5 -21.5c-7.66699 -7 -16.167 -13.833 -25.5 -20.5c-3.33301 -8 -6.33301 -16.833 -9 -26.5
s-4.66699 -19.834 -6 -30.501c22 -21.333 37.833 -43.833 47.5 -67.5s14.5 -47.167 14.5 -70.5c0 -30.667 -6.16699 -57.667 -18.5 -81s-26.166 -40.333 -41.499 -51c-9.33301 -6 -18.666 -9.66699 -27.999 -11s-18 0.333984 -26 5.00098s-15.167 12.5 -21.5 23.5
s-10.833 25.833 -13.5 44.5c-3.33301 28.667 -3.66602 59.5 -0.999023 92.5s7.16699 66 13.5 99s14 65.333 23 97s18.167 60.834 27.5 87.501c-15.333 -12.667 -32.333 -22.834 -51 -30.501s-36 -8.83398 -52 -3.50098c-12.667 4 -22.667 10.5 -30 19.5
s-12.333 19.833 -15 32.5s-3.16699 26.5 -1.5 41.5s5.5 30.167 11.5 45.5c-38 -32.667 -78 -61.667 -120 -87s-84.167 -46.666 -126.5 -63.999s-84.166 -30.166 -125.499 -38.499s-80.333 -11.833 -117 -10.5c-48 2 -86.667 14 -116 36s-51 48.333 -65 79
c-3.33301 -0.666992 -6.5 -1 -9.5 -1h-9.5c-16.667 0 -32.334 2.83301 -47.001 8.5s-27 14.5 -37 26.5s-17.167 27.333 -21.5 46s-4.83301 40.667 -1.5 66c0 4 1.33301 6.83301 4 8.5s5.5 2.5 8.5 2.5s5.5 -1 7.5 -3s2.66699 -5.33301 2 -10
c-2.66699 -21.333 -2.33398 -39.833 0.999023 -55.5s9 -28.5 17 -38.5s17.833 -17.333 29.5 -22s24.167 -7 37.5 -7h11c-5.33301 14 -8.83301 28 -10.5 42s-2.5 28 -2.5 42c0.666992 29.333 5.83398 54.666 15.501 75.999s21.5 38.666 35.5 51.999s29.167 22.333 45.5 27
s31.666 4.5 45.999 -0.5s26.166 -14.833 35.499 -29.5s14 -34.334 14 -59.001c0 -18.667 -4 -36.834 -12 -54.501s-18.667 -34 -32 -49s-29 -28 -47 -39s-36.667 -18.833 -56 -23.5c13.333 -28 32.833 -51.167 58.5 -69.5s59.5 -27.5 101.5 -27.5s86.167 5.66699 132.5 17
s92.333 27.666 138 48.999s90.167 47 133.5 77s83.333 64 120 102c10.667 14 22.834 26.5 36.501 37.5s28.5 20 44.5 27s32.833 11.333 50.5 13s36.167 -0.5 55.5 -6.5zM-560.001 383.007c0 29.333 -7.50195 48.834 -22.502 58.501s-31.667 11 -50 4s-35 -21.5 -50 -43.5
s-22.5 -50.333 -22.5 -85c0 -13.333 1 -26.833 3 -40.5s5.33301 -26.834 10 -39.501c16 4 31.833 10.667 47.5 20s29.834 20.5 42.501 33.5s22.834 27.333 30.501 43s11.5 32.167 11.5 49.5zM177.997 415.008c-19.333 6 -37.666 4.83301 -54.999 -3.5
s-32.833 -20.333 -46.5 -36s-25 -33.5 -34 -53.5s-14.833 -38.833 -17.5 -56.5s-1.5 -32.667 3.5 -45s14.5 -18.5 28.5 -18.5c12.667 0 23.5 3 32.5 9s17.167 13 24.5 21l33 99c9.33301 28.667 19.666 56.667 30.999 84zM118.997 -1.99219
c-13.333 -66 -18.666 -114.666 -15.999 -145.999s8.16699 -49.5 16.5 -54.5s17.166 1 26.499 18s14 40.5 14 70.5c0 17.333 -3.16699 35.666 -9.5 54.999s-16.833 38.333 -31.5 57z" />
    <glyph glyph-name="r.003" unicode="&#xe045;" horiz-adv-x="354" 
d="M41 446c-19.333 2 -32.9941 9.16992 -40.9941 21.5029s-11.333 25.5 -10 39.5s6.5 27 15.5 39s20.833 18.333 35.5 19c16 0.666992 27.667 -2.33301 35 -9s11.666 -15.167 12.999 -25.5s0.5 -21.5 -2.5 -33.5s-6.83301 -22.333 -11.5 -31l37.5 2.5c15 1 29.667 1 44 0
s26.666 -3.83301 36.999 -8.5s16.166 -12.334 17.499 -23.001c0.666992 -12.667 -2.83301 -30.834 -10.5 -54.501s-17.167 -49.667 -28.5 -78l-36 -87c-12.667 -29.667 -23.5 -57 -32.5 -82s-15 -46 -18 -63s-0.5 -27.167 7.5 -30.5
c9.33301 -3.33301 21.666 1.33398 36.999 14.001s32.166 30 50.499 52s37 46.333 56 73s36.667 52.667 53 78l42 67c11.667 19.333 19.167 32.333 22.5 39c2 3.33301 4.5 5.5 7.5 6.5s5.83301 0.833008 8.5 -0.5s4.5 -3.5 5.5 -6.5s0.5 -6.5 -1.5 -10.5l-29 -48.5
c-14 -23.667 -30.5 -50.167 -49.5 -79.5s-39.833 -59.166 -62.5 -89.499s-45.167 -56.833 -67.5 -79.5s-43.833 -39.334 -64.5 -50.001s-38.334 -10.334 -53.001 0.999023c-11.333 8.66699 -17.833 22.167 -19.5 40.5s-0.333984 39.5 3.99902 63.5s11.166 49.667 20.499 77
s19.333 54.166 30 80.499l31 74.5c10 23.333 18 43 24 59c5.33301 14 7.16602 23.833 5.49902 29.5s-6 9.16699 -13 10.5s-16.167 1.5 -27.5 0.5s-24 -1.5 -38 -1.5l-43 -87c-15.333 -30.667 -34 -61.334 -56 -92.001s-46.5 -59.834 -73.5 -87.501s-55.667 -52.667 -86 -75
s-61.166 -40.5 -92.499 -54.5c-44.667 -20 -85 -26.667 -121 -20s-67 20.667 -93 42c-5.33301 -4 -10.666 -7 -15.999 -9c-15.333 -7.33301 -30.833 -11.666 -46.5 -12.999s-30.5 1.16699 -44.5 7.5s-27.167 16.833 -39.5 31.5s-22.5 34 -30.5 58
c-2 4 -2.16699 7.5 -0.5 10.5s3.66699 5 6 6s5 1 8 0s5.16699 -3.5 6.5 -7.5c14 -41.333 33.333 -67 58 -77s49 -8.66699 73 4c4 1.33301 7 2.66602 9 3.99902c-20.667 22 -37 45.333 -49 70c-12.667 26.667 -19.334 51.834 -20.001 75.501s2.5 44.5 9.5 62.5
s16.833 32.667 29.5 44s26.334 18 41.001 20s29.334 -1.5 44.001 -10.5s27.667 -24.833 39 -47.5c8.66699 -16.667 13.334 -34.667 14.001 -54s-1.83301 -38.666 -7.5 -57.999s-14 -38 -25 -56s-23.833 -33.333 -38.5 -46c24 -19.333 51.667 -31.5 83 -36.5
s65.666 1.83301 102.999 20.5c56 28 109.5 68 160.5 120s95.5 111.333 133.5 178zM-442.994 287.003c-8.66699 17.333 -18.499 29.3359 -29.499 36.0029s-21.833 8.83398 -32.5 6.50098s-20.667 -8.5 -30 -18.5s-16.333 -22.5 -21 -37.5s-6.33398 -31.833 -5.00098 -50.5
s7 -38.334 17 -59.001c12 -24.667 27.667 -46.667 47 -66c12.667 10.667 24 23.667 34 39s17.833 31.666 23.5 48.999s8.5 34.666 8.5 51.999s-4 33.666 -12 48.999zM50.0068 467.006c5.33301 9.33301 9.83203 20.5029 13.499 33.5029s2.83398 23.167 -2.49902 30.5
c-4 5.33301 -10.167 8.16602 -18.5 8.49902s-15.5 -4.83398 -21.5 -15.501c-8 -14.667 -9.33301 -27.834 -4 -39.501s16.333 -17.5 33 -17.5z" />
    <glyph glyph-name="s.003" unicode="&#xe046;" horiz-adv-x="250" 
d="M267 350c-30.667 -34 -60.4951 -60.6621 -89.4951 -79.9951s-57.167 -36 -84.5 -50c8 -42.667 10.167 -78.667 6.5 -108s-10.834 -53.333 -21.501 -72s-23.667 -32.667 -39 -42s-31 -15.333 -47 -18c-21.333 -3.33301 -41.166 -0.166016 -59.499 9.50098
s-30.833 23.167 -37.5 40.5s-5.33398 37.833 3.99902 61.5s31 48.5 65 74.5c10.667 8 21.667 15.333 33 22l35 21c-4 21.333 -8.66699 42.666 -14 63.999s-10 42.666 -14 63.999c-38.667 -38.667 -80.667 -73.167 -126 -103.5s-91.333 -56 -138 -77
s-92.834 -36.667 -138.501 -47s-88.5 -14.5 -128.5 -12.5c-48 2 -86.667 14 -116 36s-51 48.333 -65 79c-3.33301 -0.666992 -6.5 -1 -9.5 -1h-9.5c-16.667 0 -32.334 2.83301 -47.001 8.5s-27 14.5 -37 26.5s-17.167 27.333 -21.5 46s-4.83301 40.667 -1.5 66
c0 4 1.33301 6.83301 4 8.5s5.5 2.5 8.5 2.5s5.5 -1 7.5 -3s2.66699 -5.33301 2 -10c-2.66699 -21.333 -2.33398 -39.833 0.999023 -55.5s9 -28.5 17 -38.5s17.833 -17.333 29.5 -22s24.167 -7 37.5 -7h11c-5.33301 14 -8.83301 28 -10.5 42s-2.5 28 -2.5 42
c0.666992 29.333 5.83398 54.666 15.501 75.999s21.5 38.666 35.5 51.999s29.167 22.333 45.5 27s31.666 4.5 45.999 -0.5s26.166 -14.833 35.499 -29.5s14 -34.334 14 -59.001c0 -18.667 -4 -36.834 -12 -54.501s-18.667 -34 -32 -49s-29 -28 -47 -39
s-36.667 -18.833 -56 -23.5c13.333 -28 32.833 -51.167 58.5 -69.5s59.5 -27.5 101.5 -27.5s86.167 5.66699 132.5 17s92.333 27.666 138 48.999s90.167 47 133.5 77s83.333 64 120 102c-1.33301 9.33301 -2.33301 19 -3 29s-1 19.667 -1 29c0 28 5.33301 50.667 16 68
s22.5 28.666 35.5 33.999s25 4.83301 36 -1.5s16.5 -19.166 16.5 -38.499c0 -16 -5.33301 -32.167 -16 -48.5s-22 -31.5 -34 -45.5c4 -23.333 9.83301 -47.666 17.5 -72.999s14.5 -50.666 20.5 -75.999c25.333 13.333 51.333 29.333 78 48s54.667 43.667 84 75
c3.33301 3.33301 6.83301 5.16602 10.5 5.49902s6.5 -0.5 8.5 -2.5s3 -4.5 3 -7.5s-1.66699 -6.5 -5 -10.5zM-559.995 383.005c0 29.333 -7.50195 48.834 -22.502 58.501s-31.667 11 -50 4s-35 -21.5 -50 -43.5s-22.5 -50.333 -22.5 -85c0 -13.333 1 -26.833 3 -40.5
s5.33301 -26.834 10 -39.501c16 4 31.833 10.667 47.5 20s29.834 20.5 42.501 33.5s22.834 27.333 30.501 43s11.5 32.167 11.5 49.5zM37.0029 188.006c-10.667 -5.33301 -20.832 -11.1699 -30.499 -17.5029s-18.5 -12.5 -26.5 -18.5
c-10 -7.33301 -19.667 -15.666 -29 -24.999s-17.333 -19.166 -24 -29.499s-11 -21 -13 -32s-1 -21.833 3 -32.5c4.66699 -11.333 13.167 -20.166 25.5 -26.499s25.833 -7.16602 40.5 -2.49902c12.667 4 23.5 13.333 32.5 28s15.667 31.167 20 49.5
s6.66602 37.166 6.99902 56.499s-1.5 36 -5.5 50zM46.0049 419.002c8 11.333 14.999 22.5 20.999 33.5s9 21.833 9 32.5c0 12.667 -2.16699 20 -6.5 22s-8.66602 -0.333008 -12.999 -7s-8 -17 -11 -31s-2.83301 -30.667 0.5 -50z" />
    <glyph glyph-name="t.003" unicode="&#xe047;" horiz-adv-x="330" 
d="M246 756c-6.66699 -12 -13.3281 -24.6641 -19.9951 -37.9971l-15 -30c45.333 -5.33301 89.666 -8.66602 132.999 -9.99902s83.333 1.5 120 8.5s68.667 19.667 96 38s47.666 45.166 60.999 80.499c0.666992 4 2.66699 6.83301 6 8.5s6.5 2 9.5 1s5.33301 -3 7 -6
s1.16699 -7.5 -1.5 -13.5c-15.333 -40 -37.666 -70.333 -66.999 -91s-63.5 -34.834 -102.5 -42.501s-81.667 -10.167 -128 -7.5s-93.833 7.33398 -142.5 14.001c-3.33301 -6 -11.333 -22.167 -24 -48.5l-43.5 -95l-51 -119c-17.667 -42.333 -32.834 -82.833 -45.501 -121.5
c-10 -29.333 -19.167 -59 -27.5 -89s-14.5 -56.667 -18.5 -80s-5 -42 -3 -56s8.33301 -20 19 -18c11.333 2 27.5 11.667 48.5 29s43.5 38.166 67.5 62.499s48.333 50.333 73 78l67 76.5l48.5 57c12.333 14.667 18.166 21.334 17.499 20.001c2 3.33301 4.66699 5.33301 8 6
s6.16602 0.333984 8.49902 -0.999023s4 -3.5 5 -6.5s0.5 -6.5 -1.5 -10.5c-3.33301 -6 -12.833 -19 -28.5 -39s-35.167 -43.333 -58.5 -70s-49.166 -54.667 -77.499 -84s-56 -56.166 -83 -80.499s-52.333 -44 -76 -59s-42.5 -21.5 -56.5 -19.5
c-13.333 2 -23 8.83301 -29 20.5s-9.5 26.5 -10.5 44.5s0.166992 38.167 3.5 60.5s7.83301 45 13.5 68s11.834 45.333 18.501 67l18 57.5c-38 -36 -78.833 -68 -122.5 -96s-88 -51.5 -133 -70.5s-89.333 -33.333 -133 -43s-84.5 -13.5 -122.5 -11.5
c-48 2 -86.667 14 -116 36s-51 48.333 -65 79c-3.33301 -0.666992 -6.5 -1 -9.5 -1h-9.5c-16.667 0 -32.334 2.83301 -47.001 8.5s-27 14.5 -37 26.5s-17.167 27.333 -21.5 46s-4.83301 40.667 -1.5 66c0 4 1.33301 6.83301 4 8.5s5.5 2.5 8.5 2.5s5.5 -1 7.5 -3
s2.66699 -5.33301 2 -10c-2.66699 -21.333 -2.33398 -39.833 0.999023 -55.5s9 -28.5 17 -38.5s17.833 -17.333 29.5 -22s24.167 -7 37.5 -7h11c-5.33301 14 -8.83301 28 -10.5 42s-2.5 28 -2.5 42c0.666992 29.333 5.83398 54.666 15.501 75.999s21.5 38.666 35.5 51.999
s29.167 22.333 45.5 27s31.666 4.5 45.999 -0.5s26.166 -14.833 35.499 -29.5s14 -34.334 14 -59.001c0 -18.667 -4 -36.834 -12 -54.501s-18.667 -34 -32 -49s-29 -28 -47 -39s-36.667 -18.833 -56 -23.5c13.333 -28 32.833 -51.167 58.5 -69.5s59.5 -27.5 101.5 -27.5
s86.167 5.66699 132.5 17s92.333 27.666 138 48.999s90.167 47 133.5 77s83.333 64 120 102v-1c19.333 56 40.333 109.333 63 160l68 151c-17.333 2 -39.333 5 -66 9s-55.5 7.33301 -86.5 10s-62.667 4.16699 -95 4.5s-62.833 -1.66699 -91.5 -6s-54 -11.833 -76 -22.5
s-38 -25.667 -48 -45c-2 -2.66699 -4.66699 -4 -8 -4s-6.33301 0.666992 -9 2s-4.66699 3.5 -6 6.5s-1 6.16699 1 9.5c12 21.333 29.667 37.833 53 49.5s50.166 20.167 80.499 25.5s62.333 7.83301 96 7.5s67 -2 100 -5s63.833 -6.66699 92.5 -11s53 -7.83301 73 -10.5
l12.5 25c5.66699 11.333 11.834 23 18.501 35zM-559.994 383.003c0 29.333 -7.50195 48.834 -22.502 58.501s-31.667 11 -50 4s-35 -21.5 -50 -43.5s-22.5 -50.333 -22.5 -85c0 -13.333 1 -26.833 3 -40.5s5.33301 -26.834 10 -39.501c16 4 31.833 10.667 47.5 20
s29.834 20.5 42.501 33.5s22.834 27.333 30.501 43s11.5 32.167 11.5 49.5z" />
    <glyph glyph-name="u.003" unicode="&#xe048;" horiz-adv-x="438" 
d="M97 455c-24 -66 -40.1621 -116.999 -48.4951 -152.999s-10.833 -60.167 -7.5 -72.5s11.166 -14.5 23.499 -6.5s27 23 44 45s35.167 49.333 54.5 82s37.333 67.667 54 105h75c-6 -11.333 -13.833 -29 -23.5 -53s-19.667 -50.5 -30 -79.5s-20.5 -59.167 -30.5 -90.5
s-18 -60.5 -24 -87.5s-9.5 -50 -10.5 -69s2.16699 -30.667 9.5 -35s19.5 0.166992 36.5 13.5s40.5 39 70.5 77c18 22.667 35.5 46.834 52.5 72.501s32.167 49.667 45.5 72l33.5 58c9 16.333 14.5 26.5 16.5 30.5c2 2.66699 4.5 4.5 7.5 5.5s5.83301 0.833008 8.5 -0.5
s4.66699 -3.66602 6 -6.99902s1 -7.33301 -1 -12c-2.66699 -5.33301 -9.83398 -18 -21.501 -38s-26.167 -43.167 -43.5 -69.5l-57 -83.5c-20.667 -29.333 -41.5 -55.833 -62.5 -79.5s-41.167 -43 -60.5 -58s-36 -21.5 -50 -19.5c-12 0.666992 -21.167 5.83398 -27.5 15.501
s-10.5 20.834 -12.5 33.501s-2.66699 25.834 -2 39.501s1.66699 25.5 3 35.5c3.33301 30 9.83301 62.167 19.5 96.5s19.5 67.5 29.5 99.5c-8.66699 -12.667 -18.167 -27.334 -28.5 -44.001s-21.333 -32.5 -33 -47.5s-23.5 -28.167 -35.5 -39.5s-23.667 -17.666 -35 -18.999
c-22 -2.66699 -37.667 1.66602 -47 12.999s-14.666 26.666 -15.999 45.999s0.333984 40.833 5.00098 64.5s10 46.5 16 68.5l13 44c-38 -36 -78.833 -68 -122.5 -96s-88 -51.5 -133 -70.5s-89.333 -33.333 -133 -43s-84.5 -13.5 -122.5 -11.5c-48 2 -86.667 14 -116 36
s-51 48.333 -65 79c-3.33301 -0.666992 -6.5 -1 -9.5 -1h-9.5c-16.667 0 -32.334 2.83301 -47.001 8.5s-27 14.5 -37 26.5s-17.167 27.333 -21.5 46s-4.83301 40.667 -1.5 66c0 4 1.33301 6.83301 4 8.5s5.5 2.5 8.5 2.5s5.5 -1 7.5 -3s2.66699 -5.33301 2 -10
c-2.66699 -21.333 -2.33398 -39.833 0.999023 -55.5s9 -28.5 17 -38.5s17.833 -17.333 29.5 -22s24.167 -7 37.5 -7h11c-5.33301 14 -8.83301 28 -10.5 42s-2.5 28 -2.5 42c0.666992 29.333 5.83398 54.666 15.501 75.999s21.5 38.666 35.5 51.999s29.167 22.333 45.5 27
s31.666 4.5 45.999 -0.5s26.166 -14.833 35.499 -29.5s14 -34.334 14 -59.001c0 -18.667 -4 -36.834 -12 -54.501s-18.667 -34 -32 -49s-29 -28 -47 -39s-36.667 -18.833 -56 -23.5c13.333 -28 32.833 -51.167 58.5 -69.5s59.5 -27.5 101.5 -27.5s86.167 5.66699 132.5 17
s92.166 27.5 137.499 48.5s89.666 46.5 132.999 76.5s83 63.667 119 101c0 0.666992 0.166992 1 0.5 1s0.5 0.333008 0.5 1h69zM-530.995 473.001c0 29.333 -7.50195 48.834 -22.502 58.501s-31.667 11 -50 4s-35 -21.5 -50 -43.5s-22.5 -50.333 -22.5 -85
c0 -13.333 1 -26.833 3 -40.5s5.33301 -26.834 10 -39.501c16 4 31.833 10.667 47.5 20s29.834 20.5 42.501 33.5s22.834 27.333 30.501 43s11.5 32.167 11.5 49.5z" />
    <glyph glyph-name="v.003" unicode="&#xe049;" horiz-adv-x="357" 
d="M102 455c-8 -13.333 -16.8281 -31.8281 -26.4951 -55.4951s-19.334 -49.5 -29.001 -77.5s-18.667 -56.833 -27 -86.5s-15.166 -57 -20.499 -82s-8.33301 -46.5 -9 -64.5s1.83301 -29.333 7.5 -34s15 -1.5 28 9.5s30.833 33.167 53.5 66.5c10.667 15.333 20.667 31 30 47
s18.333 30.667 27 44c-6.66699 24 -9.5 50.833 -8.5 80.5s5.5 58.167 13.5 85.5c12 42.667 26 71.334 42 86.001s29.667 18.5 41 11.5s18.666 -22.667 21.999 -47s-1.66699 -53.833 -15 -88.5c-3.33301 -8.66699 -7.83301 -18.667 -13.5 -30l-18 -35l-19.5 -36
c-6.66699 -12 -12.334 -23 -17.001 -33c7.33301 -18.667 16.333 -29.334 27 -32.001s22.334 -0.166992 35.001 7.5s25.5 19.167 38.5 34.5s25.667 31.5 38 48.5s23.333 33.833 33 50.5l23.5 40c2 3.33301 4.5 5.5 7.5 6.5s6 0.833008 9 -0.5s5.33301 -3.5 7 -6.5
s1.5 -6.5 -0.5 -10.5c-7.33301 -13.333 -16.666 -29.333 -27.999 -48s-24 -37.167 -38 -55.5s-28.667 -35.333 -44 -51s-30.333 -27.167 -45 -34.5s-29 -9.16602 -43 -5.49902s-26.333 15.5 -37 35.5l-34.5 -56.5c-12.333 -20.333 -24.166 -38.833 -35.499 -55.5
c-14 -20 -29.5 -36.333 -46.5 -49s-32.5 -18.834 -46.5 -18.501s-24.833 8.83301 -32.5 25.5s-9.5 44.667 -5.5 84c5.33301 50 14.666 99.833 27.999 149.5s26.666 93.5 39.999 131.5c-38 -35.333 -78.667 -67 -122 -95s-87.333 -51.5 -132 -70.5
s-88.834 -33.167 -132.501 -42.5s-84.5 -13 -122.5 -11c-48 2 -86.667 14 -116 36s-51 48.333 -65 79c-3.33301 -0.666992 -6.5 -1 -9.5 -1h-9.5c-16.667 0 -32.334 2.83301 -47.001 8.5s-27 14.5 -37 26.5s-17.167 27.333 -21.5 46s-4.83301 40.667 -1.5 66
c0 4 1.33301 6.83301 4 8.5s5.5 2.5 8.5 2.5s5.5 -1 7.5 -3s2.66699 -5.33301 2 -10c-2.66699 -21.333 -2.33398 -39.833 0.999023 -55.5s9 -28.5 17 -38.5s17.833 -17.333 29.5 -22s24.167 -7 37.5 -7h11c-5.33301 14 -8.83301 28 -10.5 42s-2.5 28 -2.5 42
c0.666992 29.333 5.83398 54.666 15.501 75.999s21.5 38.666 35.5 51.999s29.167 22.333 45.5 27s31.666 4.5 45.999 -0.5s26.166 -14.833 35.499 -29.5s14 -34.334 14 -59.001c0 -18.667 -4 -36.834 -12 -54.501s-18.667 -34 -32 -49s-29 -28 -47 -39
s-36.667 -18.833 -56 -23.5c13.333 -28 32.833 -51.167 58.5 -69.5s59.5 -27.5 101.5 -27.5s86.167 5.66699 132.5 17s92.333 27.666 138 48.999s90.167 47 133.5 77s83.333 64 120 102h71zM-528.995 473.005c0 29.333 -7.50195 48.834 -22.502 58.501s-31.667 11 -50 4
s-35 -21.5 -50 -43.5s-22.5 -50.333 -22.5 -85c0 -13.333 1 -26.833 3 -40.5s5.33301 -26.834 10 -39.501c16 4 31.833 10.667 47.5 20s29.834 20.5 42.501 33.5s22.834 27.333 30.501 43s11.5 32.167 11.5 49.5zM153.003 257.006c8.66699 14 17.999 30.3379 27.999 49.0049
s18.667 37.667 26 57c8.66699 23.333 13.334 42.666 14.001 57.999s-1.33301 24.666 -6 27.999s-11.5 -0.333984 -20.5 -11.001s-18.5 -30.334 -28.5 -59.001c-6.66699 -19.333 -11 -39.833 -13 -61.5s-2 -41.834 0 -60.501z" />
    <glyph glyph-name="w.003" unicode="&#xe04a;" horiz-adv-x="595" 
d="M102 455l-60 -165.489c-17.333 -49.667 -31.166 -92.334 -41.499 -128.001s-17 -63.834 -20 -84.501s-1.5 -32.334 4.5 -35.001c6 -3.33301 14.833 -0.5 26.5 8.5s24.5 22.167 38.5 39.5s29.167 38.166 45.5 62.499s32.166 50.5 47.499 78.5s30.166 57 44.499 87
s26.5 59 36.5 87h64c-8.66699 -20 -17.667 -42.167 -27 -66.5s-18.166 -48.833 -26.499 -73.5s-15.666 -48.167 -21.999 -70.5s-10.666 -41.5 -12.999 -57.5s-2.16602 -27.667 0.500977 -35s8.83398 -8 18.501 -2s23.334 19.667 41.001 41s40.167 52.666 67.5 93.999
c-8.66699 18 -12.167 39.667 -10.5 65s6.83398 49.333 15.501 72s19.834 42 33.501 58s28.5 24 44.5 24c15.333 0 25 -5 29 -15s4.33301 -22.5 1 -37.5s-9.16602 -31.5 -17.499 -49.5s-17.166 -35.167 -26.499 -51.5s-17.833 -30.5 -25.5 -42.5s-12.5 -19.667 -14.5 -23
c9.33301 -14.667 21 -23 35 -25s29 0.333008 45 7s32.167 16.167 48.5 28.5s31.833 25.833 46.5 40.5s27.667 29 39 43s19.666 25.667 24.999 35c2 4 4.5 6.33301 7.5 7s5.66699 0.166992 8 -1.5s4 -4 5 -7s0.5 -6.16699 -1.5 -9.5
c-6.66699 -12 -16.167 -25.833 -28.5 -41.5s-26.333 -31.167 -42 -46.5s-32.5 -29.5 -50.5 -42.5s-35.833 -22.667 -53.5 -29s-34.834 -8.33301 -51.501 -6s-31.334 11.166 -44.001 26.499l-38.5 -49.5l-36.5 -46.5c-17.333 -21.333 -34.666 -38.5 -51.999 -51.5
s-33.333 -16.833 -48 -11.5c-10.667 4 -17.667 12.5 -21 25.5s-4.66602 27.5 -3.99902 43.5s2.5 32 5.5 48s5.5 28.667 7.5 38c-14.667 -26.667 -31 -53.5 -49 -80.5s-36.667 -50.167 -56 -69.5c-6 -6 -13.833 -13 -23.5 -21s-19.834 -14.333 -30.501 -19
s-21.167 -6.33398 -31.5 -5.00098s-18.833 8.33301 -25.5 21c-7.33301 13.333 -9.83301 33.333 -7.5 60s7 55.834 14 87.501s15.5 63.5 25.5 95.5l27 85c1.33301 4 3.16602 9.83301 5.49902 17.5s5.16602 16.167 8.49902 25.5c-38 -35.333 -78.833 -67 -122.5 -95
s-87.834 -51.5 -132.501 -70.5s-88.834 -33.333 -132.501 -43s-84.5 -13.5 -122.5 -11.5c-48 2 -86.667 14 -116 36s-51 48.333 -65 79c-3.33301 -0.666992 -6.5 -1 -9.5 -1h-9.5c-16.667 0 -32.334 2.83301 -47.001 8.5s-27 14.5 -37 26.5s-17.167 27.333 -21.5 46
s-4.83301 40.667 -1.5 66c0 4 1.33301 6.83301 4 8.5s5.5 2.5 8.5 2.5s5.5 -1 7.5 -3s2.66699 -5.33301 2 -10c-2.66699 -21.333 -2.33398 -39.833 0.999023 -55.5s9 -28.5 17 -38.5s17.833 -17.333 29.5 -22s24.167 -7 37.5 -7h11c-5.33301 14 -8.83301 28 -10.5 42
s-2.5 28 -2.5 42c0.666992 29.333 5.83398 54.666 15.501 75.999s21.5 38.666 35.5 51.999s29.167 22.333 45.5 27s31.666 4.5 45.999 -0.5s26.166 -14.833 35.499 -29.5s14 -34.334 14 -59.001c0 -18.667 -4 -36.834 -12 -54.501s-18.667 -34 -32 -49s-29 -28 -47 -39
s-36.667 -18.833 -56 -23.5c13.333 -28 32.833 -51.167 58.5 -69.5s59.5 -27.5 101.5 -27.5s86.167 5.66699 132.5 17s92.333 27.666 138 48.999s90.167 47 133.5 77s83.333 64 120 102h71zM-529 473.011c0 29.333 -7.50195 48.834 -22.502 58.501s-31.667 11 -50 4
s-35 -21.5 -50 -43.5s-22.5 -50.333 -22.5 -85c0 -13.333 1 -26.833 3 -40.5s5.33301 -26.834 10 -39.501c16 4 31.833 10.667 47.5 20s29.834 20.5 42.501 33.5s22.834 27.333 30.501 43s11.5 32.167 11.5 49.5zM343.998 259.012l9.49902 15.5029l14.5 24.5
c5.33301 9.33301 10.833 19.5 16.5 30.5s11.167 22.5 16.5 34.5c8 16 13.5 30.833 16.5 44.5s0.5 20.5 -7.5 20.5c-6.66699 0 -13.167 -2.83301 -19.5 -8.5s-12.166 -12.5 -17.499 -20.5c-5.33301 -9.33301 -10.333 -19.833 -15 -31.5s-8.5 -23.834 -11.5 -36.501
s-4.83301 -25.334 -5.5 -38.001s0.333008 -24.334 3 -35.001z" />
    <glyph glyph-name="x.003" unicode="&#xe04b;" horiz-adv-x="540" 
d="M540 364c2 3.33301 4.50293 5.17969 7.50293 5.5127s5.83301 -0.166992 8.5 -1.5s4.66699 -3.33301 6 -6s1 -5 -1 -7c-24 -41.333 -50.5 -79 -79.5 -113s-59 -63.667 -90 -89s-62 -45.833 -93 -61.5s-60.833 -26.167 -89.5 -31.5c-18.667 -3.33301 -38 -2.83301 -58 1.5
s-35.667 15.166 -47 32.499c-24.667 -30.667 -51.334 -53.834 -80.001 -69.501s-56.834 -23.334 -84.501 -23.001s-53.167 9 -76.5 26s-42.333 42.833 -57 77.5c-1.33301 3.33301 -1.16602 6.16602 0.500977 8.49902s3.83398 4.16602 6.50098 5.49902
s5.5 1.66602 8.5 0.999023s5.16699 -2.33398 6.5 -5.00098c15.333 -32 32 -54.167 50 -66.5s36.667 -17.5 56 -15.5s38.5 10.167 57.5 24.5s37.167 32.333 54.5 54s33.166 45.5 47.499 71.5s26.333 51.667 36 77s16.5 49.166 20.5 71.499s4.33301 40.833 1 55.5
c-5.33301 24 -13.833 37.5 -25.5 40.5s-24.167 0.666992 -37.5 -7s-26.166 -18.334 -38.499 -32.001s-21.5 -24.834 -27.5 -33.501c-2 -2.66699 -4.33301 -5 -7 -7c-38.667 -40 -81 -75.833 -127 -107.5s-93 -58.5 -141 -80.5s-95.5 -38.667 -142.5 -50
s-90.833 -16 -131.5 -14c-48 2 -86.667 14 -116 36s-51 48.333 -65 79c-3.33301 -0.666992 -6.5 -1 -9.5 -1h-9.5c-16.667 0 -32.334 2.83301 -47.001 8.5s-27 14.5 -37 26.5s-17.167 27.333 -21.5 46s-4.83301 40.667 -1.5 66c0 4 1.33301 6.83301 4 8.5s5.5 2.5 8.5 2.5
s5.5 -1 7.5 -3s2.66699 -5.33301 2 -10c-2.66699 -21.333 -2.33398 -39.833 0.999023 -55.5s9 -28.5 17 -38.5s17.833 -17.333 29.5 -22s24.167 -7 37.5 -7h11c-5.33301 14 -8.83301 28 -10.5 42s-2.5 28 -2.5 42c0.666992 29.333 5.83398 54.666 15.501 75.999
s21.5 38.666 35.5 51.999s29.167 22.333 45.5 27s31.666 4.5 45.999 -0.5s26.166 -14.833 35.499 -29.5s14 -34.334 14 -59.001c0 -18.667 -4 -36.834 -12 -54.501s-18.667 -34 -32 -49s-29 -28 -47 -39s-36.667 -18.833 -56 -23.5c13.333 -28 32.833 -51.167 58.5 -69.5
s59.5 -27.5 101.5 -27.5s86.167 5.66699 132.5 17s92.333 27.666 138 48.999s90.167 47 133.5 77s83.333 64 120 102c14.667 21.333 29.5 39 44.5 53s29.5 24.667 43.5 32c14.667 6.66699 29.167 10.334 43.5 11.001s27.666 -1.5 39.999 -6.5s22.833 -12.667 31.5 -23
s14.667 -23.5 18 -39.5c29.333 32 57 54 83 66s49.333 16.667 70 14c17.333 -2 32.5 -7.66699 45.5 -17s22.667 -20.666 29 -33.999s8.66602 -27.833 6.99902 -43.5s-8.5 -31.167 -20.5 -46.5c-3.33301 -3.33301 -6.5 -4.83301 -9.5 -4.5s-5.5 1.5 -7.5 3.5
s-3.5 4.66699 -4.5 8s-0.5 6.66602 1.5 9.99902c14.667 19.333 21.334 36.5 20.001 51.5s-8 26 -20 33s-28 8.83301 -48 5.5s-41 -13.833 -63 -31.5s-44.167 -43.667 -66.5 -78s-41.5 -78.833 -57.5 -133.5c-4 -14 -7 -28.5 -9 -43.5s-1.33301 -28 2 -39s10 -19 20 -24
s25 -4.5 45 1.5c22.667 6.66699 47 17.834 73 33.501s52.333 35.167 79 58.5s52.834 50.333 78.501 81s49.5 64.667 71.5 102zM-559.997 382.014c0 29.333 -7.50195 48.834 -22.502 58.501s-31.667 11 -50 4s-35 -21.5 -50 -43.5s-22.5 -50.333 -22.5 -85
c0 -13.333 1 -26.833 3 -40.5s5.33301 -26.834 10 -39.501c16 4 31.833 10.667 47.5 20s29.834 20.5 42.501 33.5s22.834 27.333 30.501 43s11.5 32.167 11.5 49.5z" />
    <glyph glyph-name="y.003" unicode="&#xe04c;" horiz-adv-x="495" 
d="M104 454c-28 -62 -46.1641 -112.329 -54.4971 -150.996s-8.5 -59.667 -0.5 -63c4.66699 -2 14.167 3.33301 28.5 16s30.333 29.5 48 50.5s35.5 44.667 53.5 71s33.333 52.166 46 77.499h79c-4 -13.333 -8.66699 -30.166 -14 -50.499l-18.5 -68l-23 -79.5
c-8.33301 -28 -17.166 -55.667 -26.499 -83c48 16.667 95.167 39.167 141.5 67.5s90.166 69.166 131.499 122.499c3.33301 2.66699 6.66602 4 9.99902 4s6 -1 8 -3s3 -4.66699 3 -8s-1.33301 -6.33301 -4 -9c-22.667 -28.667 -46 -53.667 -70 -75s-48.667 -39.833 -74 -55.5
s-51 -29.334 -77 -41.001s-52 -22.167 -78 -31.5c-10 -30.667 -21.167 -62.167 -33.5 -94.5s-25.333 -64.5 -39 -96.5s-27.834 -63.167 -42.501 -93.5s-30 -58.5 -46 -84.5c-32 -53.333 -65 -92 -99 -116s-64.667 -37.333 -92 -40c-31.333 -2 -57.833 6.83301 -79.5 26.5
s-36.167 46 -43.5 79s-6.16602 70 3.50098 111s30.5 81.833 62.5 122.5c22.667 28.667 47 52.834 73 72.501s53.333 36.334 82 50.001s58.5 25.334 89.5 35.001l94.5 28.5l39 128c12.667 41.333 23 77.666 31 108.999c-11.333 -18 -25 -37.833 -41 -59.5
s-32.833 -41.834 -50.5 -60.501s-35.5 -34.167 -53.5 -46.5s-34 -17.833 -48 -16.5c-12 0.666992 -20.833 6.16699 -26.5 16.5s-8.66699 23.333 -9 39s1 33.167 4 52.5s6.83301 38.333 11.5 57l12 41c-38 -35.333 -78.833 -66.833 -122.5 -94.5s-87.667 -51 -132 -70
s-88.166 -33.167 -131.499 -42.5s-84 -13 -122 -11c-48 2 -86.667 14 -116 36s-51 48.333 -65 79c-3.33301 -0.666992 -6.5 -1 -9.5 -1h-9.5c-16.667 0 -32.334 2.83301 -47.001 8.5s-27 14.5 -37 26.5s-17.167 27.333 -21.5 46s-4.83301 40.667 -1.5 66
c0 4 1.33301 6.83301 4 8.5s5.5 2.5 8.5 2.5s5.5 -1 7.5 -3s2.66699 -5.33301 2 -10c-2.66699 -21.333 -2.33398 -39.833 0.999023 -55.5s9 -28.5 17 -38.5s17.833 -17.333 29.5 -22s24.167 -7 37.5 -7h11c-5.33301 14 -8.83301 28 -10.5 42s-2.5 28 -2.5 42
c0.666992 29.333 5.83398 54.666 15.501 75.999s21.5 38.666 35.5 51.999s29.167 22.333 45.5 27s31.666 4.5 45.999 -0.5s26.166 -14.833 35.499 -29.5s14 -34.334 14 -59.001c0 -18.667 -4 -36.834 -12 -54.501s-18.667 -34 -32 -49s-29 -28 -47 -39
s-36.667 -18.833 -56 -23.5c13.333 -28 32.833 -51.167 58.5 -69.5s59.5 -27.5 101.5 -27.5s86 5.66699 132 17s91.833 27.5 137.5 48.5s90 46.5 133 76.5s82.833 63.667 119.5 101c0 0.666992 0.333008 1.33398 1 2.00098h1zM-12.9971 -209.996
c24.667 47.333 50.168 99.667 76.501 157s49.166 115.333 68.499 174l-86 -28c-28 -9.33301 -55 -20.666 -81 -33.999s-50.833 -29.333 -74.5 -48s-46.5 -41.334 -68.5 -68.001c-25.333 -32 -43.333 -66 -54 -102s-13.667 -69.667 -9 -101
c3.33301 -25.333 12.166 -46.5 26.499 -63.5s32 -25.667 53 -26s44.333 10 70 31s51.834 57.167 78.501 108.5zM-528.996 473.005c0 29.333 -7.50195 48.834 -22.502 58.501s-31.667 11 -50 4s-35 -21.5 -50 -43.5s-22.5 -50.333 -22.5 -85c0 -13.333 1 -26.833 3 -40.5
s5.33301 -26.834 10 -39.501c16 4 31.833 10.667 47.5 20s29.834 20.5 42.501 33.5s22.834 27.333 30.501 43s11.5 32.167 11.5 49.5z" />
    <glyph glyph-name="z.003" unicode="&#xe04d;" horiz-adv-x="403" 
d="M403 364c4 6.66699 8.83594 8.16992 14.5029 4.50293s7.16699 -8.16699 4.5 -13.5c-18 -39.333 -44.167 -75.333 -78.5 -108s-72.833 -61.667 -115.5 -87c-6 -54.667 -19.333 -104 -40 -148s-45.334 -82.333 -74.001 -115s-60.167 -60.167 -94.5 -82.5
s-68.166 -39.166 -101.499 -50.499s-64.666 -17.5 -93.999 -18.5s-53.833 3.33301 -73.5 13s-32.667 24.334 -39 44.001s-3.16602 44.5 9.50098 74.5c10.667 24 26 45.833 46 65.5s43 37.667 69 54s53.833 31.333 83.5 45s59.334 26.667 89.001 39l85.5 35.5
c27.333 11.333 51.333 23.333 72 36c0 10 -0.333008 20.667 -1 32s-3 22.333 -7 33c-3.33301 -5.33301 -7.83301 -10.5 -13.5 -15.5s-11.834 -9.5 -18.501 -13.5s-13.667 -7.16699 -21 -9.5s-14 -2.83301 -20 -1.5c-8.66699 2.66699 -14.667 6.83398 -18 12.501
s-5 11.667 -5 18s1.5 12.5 4.5 18.5s6.83301 11 11.5 15c9.33301 7.33301 20.833 12.333 34.5 15s26.167 2.33398 37.5 -0.999023c16 19.333 27.833 39.5 35.5 60.5s11.167 40.167 10.5 57.5s-5 31.833 -13 43.5s-19.667 17.667 -35 18s-33.833 -5.83398 -55.5 -18.501
s-46.5 -34.667 -74.5 -66c-33.333 -37.333 -70.833 -71.833 -112.5 -103.5s-86.167 -59 -133.5 -82s-96.333 -40.5 -147 -52.5s-101.334 -17 -152.001 -15c-48 2 -86.667 14 -116 36s-51 48.333 -65 79c-3.33301 -0.666992 -6.5 -1 -9.5 -1h-9.5
c-16.667 0 -32.334 2.83301 -47.001 8.5s-27 14.5 -37 26.5s-17.167 27.333 -21.5 46s-4.83301 40.667 -1.5 66c0 4 1.33301 6.83301 4 8.5s5.5 2.5 8.5 2.5s5.5 -1 7.5 -3s2.66699 -5.33301 2 -10c-2.66699 -21.333 -2.33398 -39.833 0.999023 -55.5s9 -28.5 17 -38.5
s17.833 -17.333 29.5 -22s24.167 -7 37.5 -7h11c-5.33301 14 -8.83301 28 -10.5 42s-2.5 28 -2.5 42c0.666992 29.333 5.83398 54.666 15.501 75.999s21.5 38.666 35.5 51.999s29.167 22.333 45.5 27s31.666 4.5 45.999 -0.5s26.166 -14.833 35.499 -29.5
s14 -34.334 14 -59.001c0 -18.667 -4 -36.834 -12 -54.501s-18.667 -34 -32 -49s-29 -28 -47 -39s-36.667 -18.833 -56 -23.5c13.333 -28 32.833 -51.167 58.5 -69.5s59.5 -27.5 101.5 -27.5s86.167 5.66699 132.5 17s92.333 27.666 138 48.999s90.167 47 133.5 77
s83.333 64 120 102c28 36.667 55.833 63.5 83.5 80.5s52.834 26 75.501 27s41.667 -4.5 57 -16.5s25 -28.667 29 -50s1.33301 -46.166 -8 -74.499s-27.333 -57.833 -54 -88.5c10 -6.66699 19 -14.834 27 -24.501s12.667 -20.834 14 -33.501
c39.333 25.333 74.166 52.5 104.499 81.5s55.166 61.5 74.499 97.5zM165.003 122.003c-20 -10 -43.166 -20.4971 -69.499 -31.4971l-82.5 -35c-28.667 -12.333 -57.334 -25.333 -86.001 -39s-55.334 -28.334 -80.001 -44.001s-46.167 -32 -64.5 -49
s-31.5 -34.833 -39.5 -53.5c-9.33301 -21.333 -11.833 -39.333 -7.5 -54s13.833 -25.5 28.5 -32.5s33.167 -10 55.5 -9s46.333 6.16699 72 15.5s52.334 23.166 80.001 41.499s53.834 41.166 78.501 68.499s47.167 59.333 67.5 96s36.166 78.667 47.499 126z
M-559.996 383.006c0 29.333 -7.50195 48.834 -22.502 58.501s-31.667 11 -50 4s-35 -21.5 -50 -43.5s-22.5 -50.333 -22.5 -85c0 -13.333 1 -26.833 3 -40.5s5.33301 -26.834 10 -39.501c16 4 31.833 10.667 47.5 20s29.834 20.5 42.501 33.5s22.834 27.333 30.501 43
s11.5 32.167 11.5 49.5zM132.002 235.007c-4.66699 0.666992 -10 0.667969 -16 0.000976562s-11.667 -2 -17 -4s-9.83301 -5 -13.5 -9s-5.5 -9 -5.5 -15c0 -9.33301 5.16699 -10.333 15.5 -3s22.5 17.666 36.5 30.999z" />
    <glyph glyph-name="a.004" unicode="&#xe04e;" horiz-adv-x="425" 
d="M218 74c38.667 42.667 81.166 80.167 127.499 112.5s93.333 59.166 141 80.499s95 37 142 47s91.167 14 132.5 12c48 -2.66699 86.667 -14.834 116 -36.501s51 -47.834 65 -78.501c3.33301 0.666992 6.5 1 9.5 1h9.5c16.667 0 32.167 -2.83301 46.5 -8.5
s26.5 -14.5 36.5 -26.5s17.333 -27.333 22 -46s5.33398 -40.667 2.00098 -66c0 -4 -1.33301 -6.83301 -4 -8.5s-5.5 -2.5 -8.5 -2.5s-5.5 1 -7.5 3s-2.66699 5.33301 -2 10c2.66699 21.333 2.33398 39.833 -0.999023 55.5s-9 28.5 -17 38.5s-17.833 17.333 -29.5 22
s-24.167 7 -37.5 7c-4.66699 0 -8.33398 -0.333008 -11.001 -1c5.33301 -13.333 8.83301 -27.166 10.5 -41.499s2.5 -28.166 2.5 -41.499c-0.666992 -29.333 -5.83398 -54.666 -15.501 -75.999s-21.5 -38.666 -35.5 -51.999s-29.167 -22.333 -45.5 -27
s-31.666 -4.5 -45.999 0.5s-26.166 14.833 -35.499 29.5s-14 34.334 -14 59.001c0 18 4 35.833 12 53.5s18.667 34 32 49s29 28 47 39s36.667 19.167 56 24.5c-13.333 28 -32.833 51.167 -58.5 69.5s-59.5 27.5 -101.5 27.5s-86 -5.66699 -132 -17s-91.667 -27.5 -137 -48.5
s-89.5 -46.5 -132.5 -76.5s-82.833 -63.667 -119.5 -101c-18 -18.667 -35 -33.667 -51 -45s-30.333 -16.333 -43 -15c-11.333 2 -20 7.66699 -26 17s-10.167 20.5 -12.5 33.5s-3.16602 27.333 -2.49902 43s2.16699 31 4.5 46s4.83301 28.833 7.5 41.5s5 23 7 31
c-8 -8.66699 -17 -16.834 -27 -24.501s-20.5 -14.334 -31.5 -20.001s-22.167 -9.5 -33.5 -11.5s-22 -1.33301 -32 2c-18 5.33301 -30.667 15.5 -38 30.5s-10.5 32.333 -9.5 52s5.83301 40.5 14.5 62.5s20.667 42.667 36 62c10.667 14 23 26.667 37 38s29 20.5 45 27.5
s33 11.167 51 12.5s36.667 -1 56 -7c0.666992 0 1.16699 -0.166992 1.5 -0.5s0.833008 -0.5 1.5 -0.5l7 20l75 -1l-15 -39l-25 -67.5l-28.5 -82.5c-9.66699 -29.333 -18.334 -57.666 -26.001 -84.999s-13.667 -52.333 -18 -75s-5.5 -39.834 -3.5 -51.501
s7.66699 -16.5 17 -14.5s23.666 13.667 42.999 35zM793.999 40c0 -29.333 7.50195 -48.832 22.502 -58.499s31.667 -11 50 -4s35 21.5 50 43.5s22.5 50.333 22.5 85c0 28.667 -4.33301 55 -13 79c-16 -4 -31.833 -10.667 -47.5 -20s-29.834 -20.5 -42.501 -33.5
s-22.834 -27.333 -30.501 -43s-11.5 -31.834 -11.5 -48.501zM57.001 202.001c11.333 0 21.332 2.5 29.999 7.5s16.334 11.167 23.001 18.5s12.167 14.833 16.5 22.5s8.16602 14.167 11.499 19.5c8 27.333 16.167 53.5 24.5 78.5l21.5 64.5l-6 2
c-19.333 6 -37.666 4.83301 -54.999 -3.5s-32.833 -20.333 -46.5 -36s-25 -33.5 -34 -53.5s-14.833 -38.833 -17.5 -56.5s-1.5 -32.667 3.5 -45s14.5 -18.5 28.5 -18.5z" />
    <glyph glyph-name="b.004" unicode="&#xe04f;" horiz-adv-x="376" 
d="M214 207c0 -1.33301 -0.167969 -2.83008 -0.500977 -4.49707s-0.5 -3.5 -0.5 -5.5h10c48 -2.66699 86.667 -14.834 116 -36.501s51 -47.834 65 -78.501c3.33301 0.666992 6.5 1 9.5 1h9.5c16.667 0 32.167 -2.83301 46.5 -8.5s26.5 -14.5 36.5 -26.5
s17.333 -27.333 22 -46s5.33398 -40.667 2.00098 -66c0 -4 -1.33301 -6.83301 -4 -8.5s-5.5 -2.5 -8.5 -2.5s-5.5 1 -7.5 3s-2.66699 5.33301 -2 10c2.66699 21.333 2.33398 39.833 -0.999023 55.5s-9 28.5 -17 38.5s-17.833 17.333 -29.5 22s-24.167 7 -37.5 7
c-4.66699 0 -8.33398 -0.333008 -11.001 -1c5.33301 -13.333 8.83301 -27.166 10.5 -41.499s2.5 -28.166 2.5 -41.499c-0.666992 -29.333 -5.83398 -54.666 -15.501 -75.999s-21.5 -38.666 -35.5 -51.999s-29.167 -22.333 -45.5 -27s-31.666 -4.5 -45.999 0.5
s-26.166 14.833 -35.499 29.5s-14 34.334 -14 59.001c0 18.667 4 36.834 12 54.501s18.667 33.834 32 48.501s29 27.5 47 38.5s36.667 19.167 56 24.5c-13.333 28 -32.833 51.167 -58.5 69.5s-59.5 27.5 -101.5 27.5h-11c-4.66699 -18.667 -11.834 -37.5 -21.501 -56.5
s-21.667 -36.5 -36 -52.5s-31 -29.667 -50 -41s-40.167 -18.333 -63.5 -21c-15.333 -2 -28.5 0.333008 -39.5 7s-18.667 15.834 -23 27.501s-5 25 -2 40s10.833 30.167 23.5 45.5c10 12 22 22.167 36 30.5s28.167 15.333 42.5 21s27.833 10.167 40.5 13.5
s22.667 6.33301 30 9c2 19.333 -0.166992 37.166 -6.5 53.499s-15.166 29.166 -26.499 38.499s-24 14.666 -38 15.999s-27.333 -3.33398 -40 -14.001l-21.5 -56.5l-26 -66.5l-25.5 -66.5l-21 -56.5l-60 2l21.5 60l28 76l33 87l36.5 95
c16.667 43.333 35.167 86.166 55.5 128.499s42 82.333 65 120s47.667 71.5 74 101.5s53.833 54.333 82.5 73c36 23.333 66.5 35.166 91.5 35.499s43.667 -7.16699 56 -22.5s17.833 -36.333 16.5 -63s-10.666 -55.334 -27.999 -86.001c-12 -21.333 -27.5 -42.833 -46.5 -64.5
s-41.333 -41.667 -67 -60s-54.834 -34.5 -87.501 -48.5s-68.667 -24.333 -108 -31c-6 -12.667 -11.167 -23.167 -15.5 -31.5s-8.33301 -16.5 -12 -24.5l-12 -26.5c-4.33301 -9.66699 -9.5 -22.167 -15.5 -37.5c16.667 10.667 34 16.167 52 16.5
s34.833 -3.83398 50.5 -12.501s29.167 -21.334 40.5 -38.001s18.666 -37 21.999 -61v-26zM115.999 474.003c35.333 7.33301 67.334 17.499 96.001 30.499s54.334 28 77.001 45s42.167 35.5 58.5 55.5s29.833 40 40.5 60c10 19.333 17.333 39.166 22 59.499
s4.66699 36.333 0 48s-14.834 16.834 -30.501 15.501s-38.5 -13.666 -68.5 -36.999c-18.667 -14.667 -37.167 -32.834 -55.5 -54.501s-35.833 -45.167 -52.5 -70.5s-32.334 -51.166 -47.001 -77.499zM256 -88.998c0 -29.333 7.50195 -48.832 22.502 -58.499
s31.667 -11 50 -4s35 21.5 50 43.5s22.5 50.333 22.5 85c0 28.667 -4.33301 55 -13 79c-16 -4 -31.833 -10.667 -47.5 -20s-29.834 -20.5 -42.501 -33.5s-22.834 -27.333 -30.501 -43s-11.5 -31.834 -11.5 -48.501zM142.002 168.003c-26 -4.66699 -48.5039 -12 -67.5039 -22
s-34.167 -20.667 -45.5 -32s-19.166 -22.333 -23.499 -33s-5.16602 -19 -2.49902 -25s8.83398 -9 18.501 -9s22.834 5.33301 39.501 16c5.33301 3.33301 12 8.33301 20 15s15.833 14.5 23.5 23.5s15 19.167 22 30.5s12.167 23.333 15.5 36z" />
    <glyph glyph-name="c.004" unicode="&#xe050;" 
d="M138 103c40 40 83.167 75.9961 129.5 107.996s93.5 59.167 141.5 81.5s95.333 39.166 142 50.499s90.667 16 132 14c48 -2.66699 86.667 -14.834 116 -36.501s51 -47.834 65 -78.501c3.33301 0.666992 6.5 1 9.5 1h9.5c16.667 0 32.167 -2.83301 46.5 -8.5
s26.5 -14.5 36.5 -26.5s17.333 -27.333 22 -46s5.33398 -40.667 2.00098 -66c0 -4 -1.33301 -6.83301 -4 -8.5s-5.5 -2.5 -8.5 -2.5s-5.5 1 -7.5 3s-2.66699 5.33301 -2 10c2.66699 21.333 2.33398 39.833 -0.999023 55.5s-9 28.5 -17 38.5s-17.833 17.333 -29.5 22
s-24.167 7 -37.5 7c-4.66699 0 -8.33398 -0.333008 -11.001 -1c5.33301 -13.333 8.83301 -27.166 10.5 -41.499s2.5 -28.166 2.5 -41.499c-0.666992 -29.333 -5.83398 -54.666 -15.501 -75.999s-21.5 -38.666 -35.5 -51.999s-29.167 -22.333 -45.5 -27
s-31.666 -4.5 -45.999 0.5s-26.166 14.833 -35.499 29.5s-14 34.334 -14 59.001c0 18 4 35.833 12 53.5s18.667 34 32 49s29 28 47 39s36.667 19.167 56 24.5c-13.333 28 -32.833 51.167 -58.5 69.5s-59.5 27.5 -101.5 27.5s-86 -6 -132 -18s-91.833 -28.833 -137.5 -50.5
s-90.167 -47.834 -133.5 -78.501s-83.333 -64.667 -120 -102c-24 -24.667 -47.333 -44.5 -70 -59.5s-43.667 -23.167 -63 -24.5c-24.667 -2 -43.834 3 -57.501 15s-23.167 28.167 -28.5 48.5s-7.16602 43.833 -5.49902 70.5s5.66699 53.667 12 81s14.5 54 24.5 80
s20.333 48.667 31 68l8.5 14c2.33301 4 5.16602 8 8.49902 12c14 18 30.833 34 50.5 48s41.834 20 66.501 18c11.333 -1.33301 22.666 -5.66602 33.999 -12.999s18.666 -18 21.999 -32c3.33301 -14.667 2.33301 -32.167 -3 -52.5s-17.333 -41.166 -36 -62.499
c-2 -3.33301 -4.33301 -5 -7 -5s-5 0.833008 -7 2.5s-3.16699 4 -3.5 7s0.5 5.83301 2.5 8.5c16 21.333 26.167 39.833 30.5 55.5s4.83301 27.834 1.5 36.501s-10.166 13.667 -20.499 15s-21.833 -1.66699 -34.5 -9c-15.333 -8.66699 -30.166 -24 -44.499 -46
s-27 -47 -38 -75s-20.167 -57 -27.5 -87s-11.833 -57.667 -13.5 -83s0.166016 -46 5.49902 -62s14.666 -24 27.999 -24c16 0 33.833 6.83301 53.5 20.5s40.167 31.167 61.5 52.5zM716 70.9961c0 -29.333 7.50195 -48.832 22.502 -58.499s31.667 -11 50 -4s35 21.5 50 43.5
s22.5 50.333 22.5 85c0 28.667 -4.33301 55 -13 79c-16 -4 -31.833 -10.667 -47.5 -20s-29.834 -20.5 -42.501 -33.5s-22.834 -27.333 -30.501 -43s-11.5 -31.834 -11.5 -48.501z" />
    <glyph glyph-name="d.004" unicode="&#xe051;" horiz-adv-x="393" 
d="M140 -1c-16.667 3.33301 -28.5 12.668 -35.5 28.001s-11 33.166 -12 53.499s-0.166992 41.333 2.5 63s5.66699 40.167 9 55.5c-20.667 -19.333 -40.334 -32.166 -59.001 -38.499s-35.334 -7.5 -50.001 -3.5c-22 6 -35.5 18.167 -40.5 36.5s-5.33301 38.5 -1 60.5
s11.333 43.333 21 64s18.167 36 25.5 46c20.667 29.333 47.167 51.666 79.5 66.999s67.833 18 106.5 8c18.667 45.333 39.167 91.166 61.5 137.499s46.333 90.333 72 132s52.834 79.334 81.501 113.001s58.667 60.5 90 80.5c36 23.333 66.5 35.166 91.5 35.499
s43.667 -7.16699 56 -22.5s17.833 -36.333 16.5 -63s-10.666 -55.334 -27.999 -86.001c-12 -21.333 -27.5 -42.833 -46.5 -64.5s-41.333 -41.667 -67 -60s-54.834 -34.5 -87.501 -48.5s-68.667 -24.333 -108 -31c-9.33301 -16 -20 -37 -32 -63s-24.167 -54.5 -36.5 -85.5
s-24.333 -63.333 -36 -97s-22.167 -66.167 -31.5 -97.5s-16.833 -60 -22.5 -86s-8.66699 -46.833 -9 -62.5s2.66699 -25 9 -28s16.833 3.16699 31.5 18.5c38.667 40 81 75.833 127 107.5s93 58.5 141 80.5s95.333 38.5 142 49.5s90.667 15.5 132 13.5
c48 -2.66699 86.667 -14.834 116 -36.501s51 -47.834 65 -78.501c3.33301 0.666992 6.5 1 9.5 1h9.5c16.667 0 32.167 -2.83301 46.5 -8.5s26.5 -14.5 36.5 -26.5s17.333 -27.333 22 -46s5.33398 -40.667 2.00098 -66c0 -4 -1.33301 -6.83301 -4 -8.5s-5.5 -2.5 -8.5 -2.5
s-5.5 1 -7.5 3s-2.66699 5.33301 -2 10c2.66699 21.333 2.33398 39.833 -0.999023 55.5s-9 28.5 -17 38.5s-17.833 17.333 -29.5 22s-24.167 7 -37.5 7c-4.66699 0 -8.33398 -0.333008 -11.001 -1c5.33301 -13.333 8.83301 -27.166 10.5 -41.499s2.5 -28.166 2.5 -41.499
c-0.666992 -29.333 -5.83398 -54.666 -15.501 -75.999s-21.5 -38.666 -35.5 -51.999s-29.167 -22.333 -45.5 -27s-31.666 -4.5 -45.999 0.5s-26.166 14.833 -35.499 29.5s-14 34.334 -14 59.001c0 18 4 35.833 12 53.5s18.667 34 32 49s29 28 47 39s36.667 19.167 56 24.5
c-13.333 28 -32.833 51.167 -58.5 69.5s-59.5 27.5 -101.5 27.5s-86.167 -5.83301 -132.5 -17.5s-92.5 -28.334 -138.5 -50.001s-90.667 -47.667 -134 -78s-83.333 -64.5 -120 -102.5c-26.667 -30 -48.334 -44 -65.001 -42zM330 588.002
c35.333 7.33301 67.334 17.499 96.001 30.499s54.334 28 77.001 45s42.167 35.5 58.5 55.5s29.833 40 40.5 60c10 19.333 17.333 39.166 22 59.499s4.66699 36.333 0 48s-14.834 16.834 -30.501 15.501s-38.5 -13.666 -68.5 -36.999
c-18.667 -14.667 -37.167 -32.834 -55.5 -54.501s-35.833 -45.167 -52.5 -70.5s-32.334 -51.166 -47.001 -77.499zM766.001 26.001c0 -29.333 7.50195 -48.832 22.502 -58.499s31.667 -11 50 -4s35 21.5 50 43.5s22.5 50.333 22.5 85c0 28.667 -4.33301 55 -13 79
c-16 -4 -31.833 -10.667 -47.5 -20s-29.834 -20.5 -42.501 -33.5s-22.834 -27.333 -30.501 -43s-11.5 -31.834 -11.5 -48.501zM176.003 417.002c-19.333 5.33301 -37.665 2.66797 -54.998 -7.99902s-32.5 -25.167 -45.5 -43.5s-23.833 -38.666 -32.5 -60.999
s-14.334 -42.833 -17.001 -61.5s-1.83398 -33.334 2.49902 -44.001s12.833 -13.334 25.5 -8.00098c10.667 4 21.167 10.833 31.5 20.5s20.5 21.167 30.5 34.5c11.333 29.333 21.5 58.833 30.5 88.5s18.833 57.167 29.5 82.5z" />
    </font>
</defs>
</svg>
