<?xml version="1.0" standalone="no"?>
<!DOCTYPE svg PUBLIC "-//W3C//DTD SVG 1.1//EN" "http://www.w3.org/Graphics/SVG/1.1/DTD/svg11.dtd" >
<svg xmlns="http://www.w3.org/2000/svg" xmlns:xlink="http://www.w3.org/1999/xlink" version="1.1">
<metadata>
Created by FontForge 20170812 at Thu Jun 24 08:29:53 2021
 By www-data
</metadata>
<defs>
<font id="BabyfishRegular" horiz-adv-x="214" >
  <font-face 
    font-family="Babyfish"
    font-weight="400"
    font-stretch="normal"
    units-per-em="1000"
    panose-1="0 0 0 0 0 0 0 0 0 0"
    ascent="800"
    descent="-200"
    x-height="463.017"
    cap-height="463.805"
    bbox="-52.9993 -178.02 477 700"
    underline-thickness="50"
    underline-position="-100"
    unicode-range="U+000A-20AC"
  />
<missing-glyph horiz-adv-x="527" 
d="M50 700h427v-700h-427v700zM78 680l185 -309l186 309h-371zM251 350l-180 300v-601zM264 329l-185 -308h370zM276 350l181 -303v605z" />
    <glyph glyph-name=".notdef" horiz-adv-x="527" 
d="M50 700h427v-700h-427v700zM78 680l185 -309l186 309h-371zM251 350l-180 300v-601zM264 329l-185 -308h370zM276 350l181 -303v605z" />
    <glyph glyph-name=".null" horiz-adv-x="0" 
 />
    <glyph glyph-name=".null" horiz-adv-x="0" 
 />
    <glyph glyph-name="LF" unicode="&#xa;" horiz-adv-x="0" 
 />
    <glyph glyph-name="controlCR" unicode="&#xd;" horiz-adv-x="0" 
 />
    <glyph glyph-name="space" unicode=" " horiz-adv-x="142" 
 />
    <glyph glyph-name="exclam" unicode="!" horiz-adv-x="154" 
d="M73.9824 13.5742c-8.41211 5.06934 -18.623 13.7842 -19.1787 24.3008c-8.4834 160.751 -5.72754 321.962 8.24121 482.331c1.26953 14.582 41.8955 -9.70996 40.5957 -24.623c-13.9688 -160.369 -16.7227 -321.58 -8.24121 -482.331
c0.535156 -10.1523 -18.2656 -1.57812 -21.417 0.322266zM63.6826 -7.70898c2.62891 15.2979 43.0752 -10.1846 40.5947 -24.624c-1.83789 -10.6992 -2.47559 -21.4121 -1.91992 -32.2539c0.524414 -10.2061 -18.2559 -1.49609 -21.416 0.322266
c-8.44824 4.85645 -18.6475 13.9268 -19.1787 24.3018c-0.555664 10.8418 0.0820312 21.5547 1.91992 32.2539z" />
    <glyph glyph-name="quotedbl" unicode="&#x22;" horiz-adv-x="197" 
d="M91.2969 449.613c-0.146484 -3.58691 -0.688477 -8.1123 -0.52832 -12.3242c4.12695 -5.86523 8.66309 -14.5977 1.4668 -15.667c-16.6914 -2.48047 -37.6455 13.457 -40.915 29.915c-2.84473 14.3291 -0.533203 31.0088 1.69336 45.2734
c2.37109 15.1846 42.8652 -10.0811 40.5938 -24.623c-1.1709 -7.49414 -2.00391 -14.9932 -2.31055 -22.5742zM140.272 444.981c-0.506836 -4.18945 -0.84375 -8.40137 -1.02148 -12.6172c-0.120117 -2.81152 -0.168945 -5.625 -0.144531 -8.43848
c0.0751953 -0.458008 0.130859 -0.844727 0.168945 -1.16895c3.61621 -5.75 5.31445 -13.5889 -3.74707 -14.2158c-10.7568 -0.744141 -22.4277 10.0195 -28.6816 17.623c-15.6729 19.0537 -7.35156 50.8555 -1.06445 72.3096
c4.6582 15.8975 44.5459 -11.1445 40.5938 -24.624c-2.77637 -9.47461 -4.91699 -19.0625 -6.10352 -28.8682z" />
    <glyph glyph-name="quotedbl" unicode="&#x201d;" horiz-adv-x="197" 
d="M91.2969 449.613c-0.146484 -3.58691 -0.688477 -8.1123 -0.52832 -12.3242c4.12695 -5.86523 8.66309 -14.5977 1.4668 -15.667c-16.6914 -2.48047 -37.6455 13.457 -40.915 29.915c-2.84473 14.3291 -0.533203 31.0088 1.69336 45.2734
c2.37109 15.1846 42.8652 -10.0811 40.5938 -24.623c-1.1709 -7.49414 -2.00391 -14.9932 -2.31055 -22.5742zM140.272 444.981c-0.506836 -4.18945 -0.84375 -8.40137 -1.02148 -12.6172c-0.120117 -2.81152 -0.168945 -5.625 -0.144531 -8.43848
c0.0751953 -0.458008 0.130859 -0.844727 0.168945 -1.16895c3.61621 -5.75 5.31445 -13.5889 -3.74707 -14.2158c-10.7568 -0.744141 -22.4277 10.0195 -28.6816 17.623c-15.6729 19.0537 -7.35156 50.8555 -1.06445 72.3096
c4.6582 15.8975 44.5459 -11.1445 40.5938 -24.624c-2.77637 -9.47461 -4.91699 -19.0625 -6.10352 -28.8682z" />
    <glyph glyph-name="quotedbl" unicode="&#x201c;" horiz-adv-x="197" 
d="M91.2969 449.613c-0.146484 -3.58691 -0.688477 -8.1123 -0.52832 -12.3242c4.12695 -5.86523 8.66309 -14.5977 1.4668 -15.667c-16.6914 -2.48047 -37.6455 13.457 -40.915 29.915c-2.84473 14.3291 -0.533203 31.0088 1.69336 45.2734
c2.37109 15.1846 42.8652 -10.0811 40.5938 -24.623c-1.1709 -7.49414 -2.00391 -14.9932 -2.31055 -22.5742zM140.272 444.981c-0.506836 -4.18945 -0.84375 -8.40137 -1.02148 -12.6172c-0.120117 -2.81152 -0.168945 -5.625 -0.144531 -8.43848
c0.0751953 -0.458008 0.130859 -0.844727 0.168945 -1.16895c3.61621 -5.75 5.31445 -13.5889 -3.74707 -14.2158c-10.7568 -0.744141 -22.4277 10.0195 -28.6816 17.623c-15.6729 19.0537 -7.35156 50.8555 -1.06445 72.3096
c4.6582 15.8975 44.5459 -11.1445 40.5938 -24.624c-2.77637 -9.47461 -4.91699 -19.0625 -6.10352 -28.8682z" />
    <glyph glyph-name="numbersign" unicode="#" horiz-adv-x="283" 
d="M191.988 499.249c2.27344 15.1377 42.7881 -10.042 40.5967 -24.6172c-9.5127 -63.3818 -17.0029 -126.99 -23.2285 -190.732c4.02539 -2.56738 7.63672 -5.68164 10.2305 -8.26855c3.20508 -3.19629 15.1953 -17.7979 5.49414 -20.7031
c-6.31445 -1.8916 -12.6416 -3.72754 -18.9775 -5.53711c-0.780273 -8.59668 -1.52734 -17.1953 -2.26758 -25.7969c7.20508 -2.03809 13.9951 -7.25684 18.8828 -12.1309c2.64258 -2.63379 15.5557 -18.8584 5.49414 -20.7031
c-9.19238 -1.68652 -18.3672 -3.45996 -27.542 -5.24023c-6.21875 -77.8574 -11.0996 -155.839 -15.9404 -233.774c-0.625 -10.0723 -17.5029 -2.03516 -21.417 0.323242c-7.65039 4.61133 -19.8076 14.168 -19.1787 24.3008
c4.15137 66.8154 8.33008 133.667 13.3555 200.445c-7.10938 -1.5 -14.2012 -3.08203 -21.2998 -4.63965c-9.52832 -64.2021 -19.0566 -128.402 -28.585 -192.604c-2.24512 -15.124 -42.7598 10.0332 -40.5947 24.624l23.3818 157.556
c-0.97168 -0.231445 -1.94727 -0.447266 -2.9209 -0.678711c-10.1084 -2.41406 -21.5859 6.11426 -28.2197 12.7285c-2.90918 2.90039 -15.4023 18.3379 -5.49414 20.7031c14.291 3.41113 28.6152 6.66699 42.957 9.84473c0.928711 6.25195 1.85547 12.502 2.78223 18.752
c-2.00879 -0.417969 -4.01562 -0.855469 -6.02734 -1.2666c-10.2969 -2.10449 -21.376 5.90527 -28.2188 12.7285c-2.74512 2.73633 -15.5029 18.6562 -5.49512 20.7031c15.4004 3.14941 30.7402 6.5498 46.0244 10.1729c11.5195 77.6172 23.0371 155.236 34.5566 232.854
c2.24512 15.124 42.7598 -10.0332 40.5947 -24.624l-29.1709 -196.567c4.80762 1.2998 9.6084 2.62207 14.4043 3.96875c6.71387 72.9297 14.9443 145.704 25.8232 218.181zM160.702 217.759c0.535156 6.6123 1.06445 13.2266 1.62207 19.8359
c-5.67383 -1.4375 -11.3564 -2.84473 -17.0459 -4.21582c-0.958008 -6.44336 -1.91406 -12.8887 -2.87012 -19.332c6.09668 1.24219 12.1885 2.51172 18.2939 3.71191z" />
    <glyph glyph-name="dollar" unicode="$" horiz-adv-x="278" 
d="M220.225 108.291c9.93262 -40.5918 19.3242 -99.1738 -31.3779 -116.301c-12.7773 -4.31641 -25.5928 -4.80566 -37.9883 -2.50488c0.484375 -8.46973 0.973633 -16.9424 1.51367 -25.4102c0.649414 -10.1504 -18.333 -1.53613 -21.416 0.322266
c-8.4834 5.11426 -18.5049 13.7559 -19.1787 24.3018c-0.386719 6.08301 -0.726562 12.168 -1.08691 18.251c-18.4111 12.7041 -34.0381 30.3018 -44.5439 47.9531c-5.19141 8.72168 0.351562 13.6953 9.15234 11.7148c11.0771 -2.48926 21.5654 -11.7393 27.2461 -21.2852
c1.98926 -3.34277 4.16113 -6.35254 6.51465 -9.01465c-4.59375 88.5459 -6.2627 177.218 -5.00879 265.854c-9.78613 13.2666 -20.2139 26.0303 -29.5908 39.6523c-13.6221 19.7891 -25.4375 42.6143 -24.3926 67.3486c0.953125 22.6055 14.8125 41.0771 32.7129 53.708
c8.66797 6.11426 17.9541 10.9971 27.5645 14.5625c0.873047 15.1377 1.80176 30.2734 2.84668 45.4023c0.996094 14.3975 41.6309 -9.63477 40.5977 -24.6211c-0.322266 -4.66309 -0.602539 -9.32812 -0.90918 -13.9932c19.8428 -0.96875 39.3408 -7.8457 56.1982 -21.5605
c4.06055 -3.30273 18.751 -16.2715 12.792 -23.3369c-5.96973 -7.0791 -20.7695 2.72656 -25.7373 6.76758c-6.96582 5.66504 -19.6982 5.07129 -28.542 4.0625c-5.72949 -0.65332 -11.4365 -1.95117 -17.0107 -3.69824
c-2.98047 -53.0693 -4.91406 -106.186 -5.79199 -159.317c7.57422 -11.3262 14.6748 -22.9658 21.209 -34.9346c24.6318 -45.1104 42.0322 -94.084 54.2275 -143.924zM104.801 341.606c0.635742 26.5078 1.50684 53.0117 2.66211 79.502
c-9.55957 -9.85938 -16.1914 -22.1162 -16.8008 -36.5605c-0.673828 -15.9443 5.66211 -30.002 14.1387 -42.9414zM188.198 75.4248c0.677734 23.25 -6.52344 46.9053 -12.5869 69.1172c-6.58301 24.1162 -14.4287 47.9258 -23.9209 71.0605
c-2.36523 5.76074 -4.85254 11.4795 -7.45508 17.1465c-0.212891 -69.6943 1.40039 -139.396 4.80273 -209.022c0.0507812 0.0107422 0.0996094 0.015625 0.150391 0.0263672c25.4121 5.5498 38.2832 26.7637 39.0098 51.6719z" />
    <glyph glyph-name="percent" unicode="%" horiz-adv-x="432" 
d="M342.02 500.092c9.13477 11.7617 47.6006 -18.4268 38.5322 -30.1035c-25.6992 -33.0869 -49.9561 -67.2559 -72.9902 -102.25c-81.2109 -123.377 -147.462 -255.65 -218.061 -385.166c-6.37012 -11.6865 -46.1738 16.082 -38.5303 30.1035
c20.1025 36.8809 39.8584 73.9482 59.6924 110.974c69.5781 129.894 140.722 259.751 231.356 376.442zM306.169 208.827c9.74316 -15.0176 11.9834 -34.7441 12.5879 -52.2822c1.03613 -29.875 -7.0498 -60.3574 -22.5518 -85.916
c-7.03613 -11.6035 -17.3887 -24.6074 -32.1729 -25.2383c-17.2979 -0.740234 -34.5156 12.0166 -44.501 25.1719c-17.3604 22.8672 -15.2227 58.6436 -10.9551 85.458c4.87402 30.6084 17.0068 59.9434 34.9424 85.1826c3.85352 5.42285 14.1172 2.12695 23.2588 -4.21191
c16.0596 -2.73633 30.7412 -14.8311 39.3916 -28.1641zM274.291 141.536c2.74902 11.7705 4.0918 23.9121 3.9541 36.0029c-0.0751953 6.70312 -0.59082 13.3594 -1.73145 19.9668c-0.238281 1.38672 -0.494141 2.77148 -0.769531 4.1543
c-12.1641 -19.3359 -20.8076 -40.459 -25.2812 -63.0332c-2.49609 -12.6016 -3.76758 -25.459 -3.69434 -38.3096c0.0244141 -4.53809 0.155273 -9.12793 0.533203 -13.6797c0.873047 0.917969 1.71777 1.84961 2.48926 2.75
c3.77148 4.39355 6.86328 9.45605 9.72852 14.4697c6.74805 11.8154 11.6797 24.4307 14.7715 37.6787zM146.809 247.068c-17.2998 -0.738281 -34.5156 12.0176 -44.5039 25.1748c-17.3604 22.8672 -15.2227 58.6436 -10.9551 85.458
c4.87402 30.6084 17.0068 59.9434 34.9424 85.1826c3.85352 5.42285 14.1172 2.12695 23.2588 -4.21191c16.0576 -2.73633 30.7422 -14.8311 39.3926 -28.1641c9.74316 -15.0176 11.9834 -34.7451 12.5898 -52.2852c1.03613 -29.875 -7.0498 -60.3574 -22.5518 -85.916
c-7.03613 -11.6035 -17.3887 -24.6074 -32.1729 -25.2383zM133.238 340.309c-2.49805 -12.6035 -3.76953 -25.46 -3.69629 -38.3086c0.0244141 -4.53809 0.155273 -9.12793 0.533203 -13.6797c0.873047 0.917969 1.71777 1.84961 2.48926 2.75
c3.77148 4.39355 6.86328 9.45605 9.72852 14.4697c6.74805 11.8154 11.6797 24.4307 14.7715 37.6787c2.74902 11.7725 4.09375 23.9141 3.95605 36.002c-0.0751953 6.70312 -0.59082 13.3594 -1.73145 19.9668c-0.238281 1.38672 -0.494141 2.77148 -0.769531 4.1543
c-12.1641 -19.3359 -20.8076 -40.459 -25.2812 -63.0332z" />
    <glyph glyph-name="ampersand" unicode="&#x26;" horiz-adv-x="338" 
d="M246.898 212.295c5.33594 15.9912 44.9688 -11.5186 40.5947 -24.6162c-15.3291 -45.9268 -35.8301 -89.9482 -61.8496 -130.81c-7.54785 -11.8506 -15.5801 -24.0078 -24.166 -35.9541c2.23828 -8.79004 4.52734 -18.3623 9.69727 -25.8545
c3.9873 -5.77832 8.99707 -15.9756 -1.94434 -16.7334c-9.72168 -0.673828 -22.0586 8.83008 -27.8789 16.5332c-14.8311 -17.751 -31.1797 -34.0352 -49.4131 -46.7949c-8.10547 -5.66992 -16.8516 -11.5576 -26.7842 -13.1377
c-12.4414 -1.98047 -24.4229 4.11621 -33.9912 11.6279c-19.2852 15.1377 -22.1631 36.8984 -20.9121 59.9463c2.37598 43.7412 23.5742 84.4561 44.1904 122.137c12.0947 22.1074 24.125 44.3818 35.4775 66.9717c-5.18945 40.5879 -7.51855 81.5664 -5.29199 122.43
c2.50293 45.9111 9.91504 93.8555 27.3398 136.673c8.56152 21.0381 25.8018 25.7656 45.502 14.4082c19.0557 -10.9834 34.2227 -29.5234 38.4541 -51.3818c3.89648 -20.1162 1.40234 -41.084 -1.45996 -61.1602c-3.18262 -22.3213 -8.2207 -44.3643 -14.6172 -65.9785
c-12.3525 -41.7324 -29.5771 -81.9111 -48.9619 -120.839c1.81348 -13.5332 3.94727 -27.0244 6.36328 -40.4639c2.64453 -14.7178 5.63574 -29.3711 8.8291 -43.9795c1.36914 2.15332 2.72754 4.30664 4.07031 6.45801c23.5586 37.792 42.6523 78.2773 56.752 120.519z
M107.822 -10.542c19.0586 16.7227 36.165 36.3701 51.6602 57.1201c-2.12891 8.23633 -4.01172 16.5801 -6.00781 24.8994c-3.69629 15.4023 -7.15918 30.8623 -10.3643 46.376c-14.3994 -25.877 -28.7305 -51.8477 -39.3252 -79.3711
c-7.60742 -19.7607 -12.7461 -40.7969 -13.124 -62.0371c6.09668 3.80273 11.7891 8.29883 17.1611 13.0127zM164.477 272.831c-0.00195312 -0.109375 -0.000976562 -0.217773 -0.00292969 -0.324219c13.5127 34.9873 23.9961 71.0498 29.3926 108.692
c2.48047 17.3086 5.63379 36.6846 2.24023 54.2402c-5.40918 -7.07422 -7.74023 -16.7354 -10.3496 -24.9873c-14.0557 -44.4482 -20.4072 -91.0898 -21.2803 -137.621z" />
    <glyph glyph-name="quotesingle" unicode="'" horiz-adv-x="148" 
d="M57.2793 496.183c4.8291 15.9268 44.6543 -11.2344 40.5957 -24.623c-4.32715 -14.2705 -9.34961 -29.7725 -7.25391 -44.875c1.45801 -10.501 -8.74121 -8.9834 -15.7666 -5.93457c-8.65234 3.75391 -22.6094 13.2793 -24.0361 23.5654
c-2.53809 18.2852 1.16895 34.416 6.46094 51.8672z" />
    <glyph glyph-name="quotesingle" unicode="&#x2019;" horiz-adv-x="148" 
d="M57.2793 496.183c4.8291 15.9268 44.6543 -11.2344 40.5957 -24.623c-4.32715 -14.2705 -9.34961 -29.7725 -7.25391 -44.875c1.45801 -10.501 -8.74121 -8.9834 -15.7666 -5.93457c-8.65234 3.75391 -22.6094 13.2793 -24.0361 23.5654
c-2.53809 18.2852 1.16895 34.416 6.46094 51.8672z" />
    <glyph glyph-name="quotesingle" unicode="&#x2018;" horiz-adv-x="148" 
d="M57.2793 496.183c4.8291 15.9268 44.6543 -11.2344 40.5957 -24.623c-4.32715 -14.2705 -9.34961 -29.7725 -7.25391 -44.875c1.45801 -10.501 -8.74121 -8.9834 -15.7666 -5.93457c-8.65234 3.75391 -22.6094 13.2793 -24.0361 23.5654
c-2.53809 18.2852 1.16895 34.416 6.46094 51.8672z" />
    <glyph glyph-name="parenleft" unicode="(" horiz-adv-x="258" 
d="M168.308 521.313c13.6016 9.74316 48.0645 -23.2754 38.5322 -30.1025c-35.7783 -25.6328 -57.3633 -64.9336 -74.0967 -104.701c-61.166 -145.364 -55.7031 -318.124 14.7471 -459.159c4.36719 -8.74316 0.275391 -13.835 -9.15234 -11.7148
c-10.541 2.36914 -22.4141 11.6123 -27.2461 21.2852c-20.6357 41.3125 -36.5068 84.9336 -46.6709 129.995c-18.0068 79.8359 -19.3252 163.677 -2.96777 243.899c8.12988 39.877 20.6289 78.8867 37.2021 116.059c16.1113 36.1357 36.9678 71.0254 69.6523 94.4395z" />
    <glyph glyph-name="parenright" unicode=")" horiz-adv-x="207" 
d="M135.896 397.236c19.1777 -78.582 22.5078 -160.303 20.1299 -240.858c-2.2959 -77.6836 -9.4834 -156.926 -44.9482 -227.382c-5.82031 -11.5635 -45.7949 15.6689 -38.5293 30.1045c18.7871 37.3252 29.249 77.7822 35.1318 119.015
c10.5566 73.9883 11.2305 151.196 5.57812 225.636c-2.84082 37.4141 -8.27441 74.6455 -17.1641 111.115c-4.49219 18.4248 -9.88672 36.6387 -16.2695 54.4971c-4.96777 13.8975 -9.86426 30.0215 -20.8477 40.4473c-3.89844 3.7002 -14.3887 16.4062 -5.49414 20.7021
c8.8252 4.2627 22.498 -7.29883 28.2188 -12.7285c31.8623 -30.2441 44.1084 -79.2246 54.1943 -120.548z" />
    <glyph glyph-name="asterisk" unicode="*" horiz-adv-x="261" 
d="M206.014 415.389c4.02246 -5.24512 8.86719 -16.6689 -1.94727 -16.7354c-13.9443 -0.0869141 -27.9062 0.0751953 -41.8662 0.144531c9.19922 -8.70996 18.0586 -17.7646 26.0244 -27.7109c4.52734 -5.6543 8.60742 -16.002 -1.94531 -16.7334
c-10.666 -0.738281 -22.5547 9.97168 -28.6797 17.6221c-1.22266 1.5293 -2.4873 3.0166 -3.75195 4.50586c0.384766 -14.6377 0.498047 -29.2822 0.0976562 -43.9307c-0.275391 -10.1172 -17.7402 -1.89355 -21.416 0.322266
c-7.88086 4.75 -19.458 14.0361 -19.1777 24.3018c0.0595703 2.17578 0.0644531 4.34961 0.102539 6.52539c-2.66504 -3.01367 -5.30273 -6.06055 -7.88281 -9.17188c-9.67285 -11.668 -47.7871 18.9385 -38.5303 30.1045c3.39648 4.09863 6.87207 8.10352 10.415 12.0352
c-15.1973 5.12695 -38.7578 31.6152 -21.2559 33.5332c13.0576 1.43164 26.1484 2.19824 39.2549 2.5957c-9.06152 8.59863 -17.7871 17.5352 -25.6416 27.3428c-4.52734 5.6543 -8.61035 16.002 1.94434 16.7334c10.666 0.738281 22.5547 -9.97461 28.6797 -17.6221
c3.48047 -4.34473 7.14062 -8.50977 10.9189 -12.5635c-0.675781 12.7637 -1.40723 25.5254 -2.07812 38.2832c-0.535156 10.1523 18.2627 1.57812 21.416 -0.322266c7.43652 -4.48242 16.2715 -11.8164 18.6025 -20.7266c3.66699 3.11328 7.34082 6.22461 11.0195 9.34082
c12.4727 10.5684 48.2197 -21.8936 38.5293 -30.1035c-4.58105 -3.88281 -9.15918 -7.75879 -13.7217 -11.6416c8.28125 -3.02246 16.2754 -10.1123 20.8896 -16.1289z" />
    <glyph glyph-name="plus" unicode="+" 
d="M159.55 208.385c4.3252 -5.64062 8.62695 -16.0693 -1.94531 -16.7314c-10.0879 -0.630859 -20.1758 -1.27344 -30.248 -2.12695c-0.175781 -32.0088 0.208984 -64.0225 1.20215 -96.0244c0.31543 -10.1523 -18.125 -1.66211 -21.417 0.322266
c-8.26758 4.98242 -18.8535 13.8438 -19.1777 24.3008c-0.639648 20.627 -1.02441 41.2607 -1.17773 61.8945c-7.46582 -2.3584 -17.0693 4.45117 -22.6074 8.42969c-0.137695 0.0996094 -0.275391 0.197266 -0.413086 0.296875
c-5.62988 4.04492 -17.1807 15.1396 -12.793 23.3359c5.16309 9.64551 25.6436 9.33398 34.7646 10.3564c0.360352 0.0400391 0.720703 0.0693359 1.08105 0.109375c0.207031 23.5342 0.711914 47.0645 1.5498 70.5898c0.360352 10.1084 17.6826 1.92773 21.416 -0.321289
c7.8252 -4.71582 19.542 -14.0664 19.1777 -24.3008c-0.506836 -14.2334 -0.893555 -28.4688 -1.16895 -42.7041c1.02637 0.0644531 2.05078 0.130859 3.07715 0.195312c10.4258 0.65332 22.9385 -10.1367 28.6797 -17.6221z" />
    <glyph glyph-name="comma" unicode="," horiz-adv-x="178" 
d="M88.6514 42.0615c4.66016 11.1748 44.8887 -14.8604 38.5303 -30.1045c-8.77246 -21.0322 -21.1631 -39.7637 -37.085 -56.0635c-11.0195 -11.2812 -48.1162 20.29 -38.5303 30.1045c15.9219 16.3027 28.3125 35.0342 37.085 56.0635z" />
    <glyph glyph-name="hyphen" unicode="-" horiz-adv-x="233" 
d="M178.489 165.475c3.64062 -4.75 9.10742 -17.4531 -1.94336 -16.7334c-31.1045 2.0293 -62.1973 1.51562 -93.2168 -1.53613c-10.2324 -1.00488 -23.1436 10.3984 -28.6816 17.6221c-4.51367 5.88965 -8.46094 15.709 1.94531 16.7334
c31.0195 3.05176 62.1123 3.56543 93.2168 1.53613c11.0264 -0.719727 22.208 -9.18066 28.6797 -17.6221z" />
    <glyph glyph-name="period" unicode="." horiz-adv-x="147" 
d="M95.0547 11.0527c1.7666 -3.35156 2.88867 -6.75977 1.06641 -10.2666c-2.2207 -4.27637 -4.44141 -8.5498 -6.66211 -12.8262c-1.70508 -3.28223 -7.45215 -2.04004 -10.2188 -1.44922c-5.68262 1.21582 -10.9346 4.77637 -15.5176 8.2168
c-4.38086 3.28906 -9.13281 8.14941 -11.7266 13.0684c-1.7666 3.35156 -2.88867 6.75879 -1.06641 10.2656c2.2207 4.27637 4.44141 8.5498 6.66211 12.8262c1.70508 3.28223 7.45215 2.04004 10.2188 1.44922c5.68262 -1.21582 10.9346 -4.77637 15.5176 -8.2168
c4.38281 -3.28906 9.13477 -8.14941 11.7266 -13.0674z" />
    <glyph glyph-name="slash" unicode="/" horiz-adv-x="362" 
d="M272.343 494.035c6.2627 11.666 46.0996 -15.9971 38.5273 -30.1055c-19.749 -36.7959 -38.7891 -73.9658 -57.0361 -111.528c-64.0596 -131.871 -118.482 -268.294 -162.929 -407.998c-5.07617 -15.96 -44.8105 11.375 -40.5947 24.623
c12.873 40.459 26.5332 80.6602 41.0557 120.557c50.5762 138.948 111.049 274.165 180.977 404.452z" />
    <glyph glyph-name="zero" unicode="0" horiz-adv-x="204" 
d="M156.293 402.946c17.2822 -36.1875 25.6992 -76.3672 30.4248 -115.979c8.77051 -73.5498 3.27148 -150.641 -21.3564 -220.846c-5.52539 -15.749 -11.9912 -31.1826 -20.0186 -45.8271c-7.59473 -13.8555 -16.4492 -29.8848 -29.624 -39.1592
c-16.3066 -11.4795 -35.2959 -3.11426 -49.1152 8.51172c-14.3682 12.0879 -21.3359 28.3994 -27.6367 45.6416c-24.9766 68.3379 -26.0322 146.471 -22.4541 218.345c3.60254 72.3408 17.3936 143.842 45.3887 210.802c-3.32227 5.7207 -4.76953 12.873 4.00293 13.6445
c41.3994 3.63574 74.7686 -42.4258 90.3887 -75.1328zM131.601 112.396c17.3271 61.1309 22.4463 126.28 15.625 189.422c-3.30078 30.5576 -9.20605 61.5039 -19.2471 90.6055c-4.75391 13.7754 -10.7285 27.3682 -18.8389 39.5273
c-2.94727 4.41797 -4.75879 7.77441 -7.35938 9.77441c0.308594 -1.86719 0.193359 -3.66699 -0.510742 -5.33398c-27.4775 -64.9561 -40.3887 -135.147 -44.0625 -205.353c-3.22266 -61.5977 -2.54883 -126.322 13.1484 -186.317
c2.05176 -7.83398 4.38574 -15.5977 7.05273 -23.2451c0.857422 -2.45996 1.95996 -4.93555 3.10254 -7.41797c0.753906 0.466797 1.48242 0.959961 2.11816 1.52637c5.37012 4.79883 9.49707 11.1865 13.4756 17.125c16.2979 24.3369 27.5332 51.5918 35.4961 79.6865z" />
    <glyph glyph-name="one" unicode="1" horiz-adv-x="87" 
d="M36.1943 1.98828c-7.72559 4.65625 -19.6943 14.124 -19.1787 24.3008c7.66504 150.98 11.2363 302.15 10.707 453.324c-0.0351562 10.1416 17.9453 1.76953 21.417 -0.322266c8.08594 -4.87402 19.1426 -13.9287 19.1777 -24.3008
c0.529297 -151.174 -3.04199 -302.344 -10.707 -453.324c-0.510742 -10.0879 -17.5801 -1.98926 -21.416 0.322266z" />
    <glyph glyph-name="two" unicode="2" horiz-adv-x="132" 
d="M61.1279 257.877c8.05176 37.8076 15.209 76.3154 17.7295 114.94c1.25098 19.1602 1.44238 38.9336 -2.11621 57.874c-0.193359 1.02441 -3.18945 10.6328 -5.11621 16.1758c-2.96484 -0.710938 -5.70508 -1.02832 -8.69922 -2.58887
c-12.8887 -6.71875 -47.873 26.0498 -33.7129 33.4307c18.4336 9.6084 40.7031 -0.655273 55.7432 -12.1416c16.4219 -12.542 27.1699 -30.6758 31.2461 -50.8076c7.63672 -37.7207 3.37793 -77.1104 -2.28027 -114.773
c-5.88281 -39.1543 -14.1133 -77.9238 -23.7217 -116.324c-9.41699 -37.6426 -20.4229 -74.8096 -31.2998 -112.046c-5.24121 -17.9336 -10.7285 -36.3408 -12.793 -54.9697c-0.458008 -4.13379 -0.871094 -8.52539 -0.37793 -12.6855
c3.30664 0.0488281 6.48047 0.506836 9.72754 1.23145c10.1924 2.27539 21.4922 -6.02148 28.2197 -12.7295c2.83594 -2.82715 15.4492 -18.4805 5.49414 -20.7031c-38.8145 -8.66602 -84.2031 18.5869 -84.1719 61.0215c0.0136719 17.9561 5.64551 36.3496 10.4463 53.4922
c5.28516 18.8711 11.1055 37.5938 16.4932 56.4365c10.8906 38.0811 20.9346 76.4219 29.1895 115.167zM39.7393 4.13086c-1.43359 1.69336 -1.47754 0.0175781 0 0zM70.042 450.768c-0.0996094 -0.09375 0.0410156 -0.28418 0.325195 -0.533203
c-0.160156 0.357422 -0.280273 0.575195 -0.325195 0.533203zM75.9307 446.752c0.137695 -0.0839844 0.225586 -0.142578 0.223633 -0.151367c0.0136719 0.0537109 -0.0839844 0.104492 -0.223633 0.151367z" />
    <glyph glyph-name="three" unicode="3" horiz-adv-x="207" 
d="M192.843 427.905c3.03809 -14.5645 -0.955078 -29.75 -4.2334 -43.9209c-11.8975 -51.3711 -31.2197 -101.296 -21.5986 -154.806c4.56543 -25.3906 12.5439 -50.0566 16.4756 -75.5732c3.96289 -25.7129 3.22461 -50.9316 -3.98047 -76.0264
c-6.67871 -23.2539 -16.8916 -46.1523 -29.7734 -66.6348c-11.293 -17.9561 -30.7314 -43.0352 -54.8926 -37.7637c-28.0283 6.11621 -46.5645 33.1445 -44.7129 60.7354c1.71387 25.5234 10.5 50.5156 23.502 72.4121c6.99609 11.7812 46.5635 -16.5742 38.5293 -30.1045
c-10.999 -18.5244 -18.1553 -38.667 -20.7383 -59.999c5.58496 5.10547 10.457 11.2734 14.7129 17.2432c22.6582 31.7822 38.9268 72.5498 39.4424 111.838c0.524414 39.9473 -16.042 77.8037 -20.6875 117.145c-4.89355 41.4434 5.98535 80.8203 16.6025 120.492
c2.80664 10.4883 5.54492 21.001 7.85645 31.6113c1.78906 8.2207 4.28027 17.4795 4.07617 26.1982c-3.2002 -0.198242 -6.62695 0.0107422 -9.57617 -0.253906c-10.4883 -0.944336 -20.8652 -2.48633 -31.2129 -4.41113
c-10.3945 -1.93359 -21.2627 5.79199 -28.2188 12.7285c-2.65332 2.64746 -15.5508 18.834 -5.49414 20.7031c29.6484 5.51172 63.624 13.1348 89.6006 -6.46582c11.4639 -8.65039 21.332 -20.8164 24.3213 -35.1475z" />
    <glyph glyph-name="four" unicode="4" horiz-adv-x="136" 
d="M110.462 162.577c-2 0.322266 -3.99219 0.667969 -5.97656 1.03516c-1.27148 -69.2959 -0.588867 -138.632 2.07617 -207.912c0.391602 -10.1523 -18.1729 -1.63379 -21.416 0.322266c-8.31934 5.01367 -18.7764 13.8213 -19.1787 24.3008
c-2.50879 65.2227 -3.24902 130.491 -2.26855 195.731c-12.0107 5.625 -23.0918 13.1465 -32.6709 23.415c-21.2119 22.7344 -23.3408 51.4141 -21.5098 81.0273c4.07422 65.8135 25.8262 128.747 47.251 190.56c5.47363 15.7959 44.0078 -10.9014 40.7207 -24.083
c10.6973 -6.01172 21.625 -16.4639 20.9229 -24.3115c-6.92285 -77.4219 -11.377 -155.039 -13.3594 -232.719c6.26074 -4.29395 11.877 -10.2812 14.5615 -15.6514c4.4541 -8.91016 -0.00878906 -13.1973 -9.15234 -11.7148zM61.8672 202.328
c0.762695 -0.280273 1.53613 -0.525391 2.30762 -0.78125c1.21973 55.5898 3.70215 111.148 7.4541 166.632c-7.64355 -25.9795 -14.0645 -52.2832 -18.0156 -79.1182c-3.48535 -23.6523 -8.02637 -51.5967 -1.3584 -75.0312
c2.19629 -7.7168 2.66504 -9.14551 9.6123 -11.7012z" />
    <glyph glyph-name="five" unicode="5" horiz-adv-x="157" 
d="M21.7236 425.383c-3.23633 3.22754 -15.1758 17.7422 -5.50098 20.6982c30.9951 9.4834 62.168 18.3467 93.5166 26.583c9.97266 2.62012 21.7275 -6.25684 28.2197 -12.7285c3.02734 -3.01855 15.3242 -18.1211 5.49414 -20.7041
c-15.9795 -4.19824 -31.915 -8.56543 -47.8037 -13.0879c2.79785 -3.93359 4.17383 -7.80273 3.05566 -10.8213c-9.65039 -26.0771 -19.3076 -52.1631 -28.0439 -78.5645c-4.25391 -12.8555 -8.30078 -25.7812 -12.0039 -38.8076
c-3.2207 -11.3281 -7.08105 -23.6455 -6.25684 -35.5781c1.2959 -18.752 18.8896 -22.4502 32.9404 -31.127c19.2383 -11.8838 36.0029 -27.5127 46.8555 -47.5439c19.1807 -35.4053 17.7402 -78.7227 5.04785 -115.985
c-6.92285 -20.3252 -16.6045 -39.8838 -29.335 -57.2168c-10.4277 -14.2002 -27.4209 -32.2432 -46.7432 -30.2344c-22.207 2.30957 -42.6006 23.8574 -44.874 45.6826c-2.14648 20.6162 4.74805 42.2617 13.0938 60.8447
c5.09375 11.3438 45.2461 -15.1484 38.5293 -30.1016c-4.14746 -9.23242 -7.20117 -18.7822 -9.11914 -28.6787c0.891602 0.90918 1.76465 1.8291 2.61328 2.75781c6.625 7.23926 12.1992 15.4668 17.2715 23.8457c18.7695 31.0039 31.0176 68.8916 26.8369 105.497
c-1.58887 13.915 -5.52246 29.959 -14.79 40.9023c-8.66797 10.2324 -23.9902 14.9131 -35.0693 22.2812c-16.1689 10.7529 -31.958 24.5996 -39.5059 42.9424c-7.64551 18.585 -3.36523 37.7539 1.91504 56.3389c8.6123 30.3086 19.0205 60.0547 29.8311 89.6455
c-9.33887 -1.24219 -20.3672 7.37012 -26.1748 13.1602z" />
    <glyph glyph-name="six" unicode="6" horiz-adv-x="156" 
d="M124.784 13.9502c-20.3877 -19.5098 -45.3232 -19.5508 -67.917 -3.24414c-18.2139 13.1465 -27.5684 30.3291 -32.6846 50.0625c-12.0146 7.39844 -23.2207 20.8398 -17.7646 27.5479c3.64746 4.48242 7.70605 8.54297 12.0693 12.1943
c-1.41309 21.9766 -0.566406 44 1.6582 65.9561c11.0127 108.713 42.9902 215.604 90.1475 313.995c5.49902 11.4727 45.5625 -15.4355 38.5303 -30.1045c-20.7832 -43.3613 -38.3877 -88.123 -52.3896 -134.132c-12.0908 -39.7344 -21.6035 -80.2559 -28.4336 -121.224
c-4.12012 -24.7256 -7.80469 -49.9717 -9.23145 -75.2461c4.76758 0.928711 9.63477 1.47363 14.5625 1.60938c27.8457 0.759766 59.7988 -16.1963 69.9131 -43.1797c8.22559 -21.9434 -2.18457 -48.6621 -18.46 -64.2354zM62.3145 32.1562
c0.0195312 0.0449219 0.385742 0.157227 0.970703 0.3125c-0.381836 0.238281 -0.719727 0.211914 -0.970703 -0.3125zM112.601 85.8672c1.38477 -1.28223 1.23535 -0.557617 0 0zM88.5781 85.5312c-10.8857 -2.46484 -20.7227 -7.05176 -29.3242 -13.5039
c0.162109 -1.8584 0.317383 -3.7207 0.517578 -5.57617c1.15332 -10.6768 2.6582 -21.8516 6.1582 -32.0527c0.106445 -0.31543 0.28418 -0.710938 0.488281 -1.14453c2.87402 0.698242 6.26367 1.49414 6.65039 1.66309c15.3047 6.69629 27.3711 23.3984 31.0156 39.4473
c0.658203 2.90039 1.12305 5.82715 1.31641 8.79395c0.0625 0.961914 -0.139648 2.2998 -0.308594 3.61328c-5.5166 0.289062 -10.9326 0.0244141 -16.5137 -1.24023z" />
    <glyph glyph-name="seven" unicode="7" horiz-adv-x="130" 
d="M23.3379 20.4639c16.1309 76.0283 23.9023 153.411 31.2188 230.687c2.03809 21.5186 3.97168 43.0996 5.03613 64.707c-7.86523 1.62207 -15.5303 7.53809 -20.6641 12.6562c-2.79395 2.78516 -15.4736 18.5605 -5.49414 20.7031
c8.97266 1.92871 17.9453 3.85547 26.9199 5.78223c-0.0625 4.03418 -0.142578 8.06836 -0.306641 12.1025c-0.740234 18.085 -2.24707 36.4404 -6.34082 54.1113c-0.170898 0.731445 -4.05566 11.1416 -6.49121 17.0449
c-2.50684 -0.324219 -5.91211 -0.0214844 -8.24805 -0.850586c-14.2861 -5.0625 -47.4238 28.5732 -33.7129 33.4316c19.2139 6.80957 39.8809 -2.40039 55.0986 -14.2178c17.2227 -13.3711 28.2666 -31.9336 33.1562 -53.0391
c3.21191 -13.8662 5.23633 -28.0322 6.41406 -42.3301c7.43848 -1.94434 14.5908 -7.50488 19.46 -12.3613c2.79395 -2.78516 15.4736 -18.5605 5.49414 -20.7031c-7.87695 -1.69336 -15.751 -3.38477 -23.6279 -5.07617
c-0.111328 -18.0244 -1.10449 -36.0225 -2.38477 -53.6602c-6.62988 -91.4277 -15.8936 -183.86 -34.9336 -273.61c-3.29785 -15.5537 -43.5967 10.4697 -40.5938 24.623zM45.2939 442.266c-0.655273 -0.882812 -0.0078125 -1.40625 0.972656 -1.78223
c-0.526367 1.18945 -0.890625 1.89355 -0.972656 1.78223z" />
    <glyph glyph-name="eight" unicode="8" horiz-adv-x="170" 
d="M25.5508 455.695c20.6787 34.4648 65.2031 29.6562 93.9492 9.40918c16.8516 -11.8701 30.9111 -28.9727 35.6738 -49.3818c4.00977 -17.1758 2.12109 -35.0498 -1.55469 -52.0879c-8.39844 -38.9316 -22.6562 -76.4014 -36.749 -113.577
c3.93164 -12.7969 7.28125 -25.7695 9.95508 -38.8691c7.74121 -37.9277 10.6592 -76.9268 9.36816 -115.592c-1.16211 -34.7852 -2.37598 -77.4395 -23.6963 -106.79c-12.084 -16.6357 -30.3662 -16.1113 -47.0283 -6.12305
c-18.8984 11.3281 -31.3623 29.7373 -37.8281 50.4893c-5.8584 18.8135 -7.60742 39.2158 -9.38965 58.7559c-1.90039 20.832 -2.56055 41.7754 -2.11816 62.6895c0.888672 41.9727 6.21582 83.7939 14.8193 124.862c4.20703 20.0781 9.21484 39.9873 14.8848 59.7031
c-2.76074 5.26074 -5.5791 10.5234 -8.45996 15.8066c-16.2734 29.8555 -31.1133 68.5586 -11.8262 100.705zM95.8564 131.888c0.442383 39.6455 -3.72852 79.2344 -13.6191 117.662c-1.13574 4.4209 -2.37402 8.77246 -3.68555 13.0752
c-1.94043 3.08301 -3.06055 6.1875 -2.91797 9.07715c-0.0625 0.18457 -0.128906 0.369141 -0.191406 0.553711c-3.25781 -13.9824 -6.19141 -28.042 -8.66699 -42.1836c-8.19238 -46.7734 -11.8994 -94.4424 -9.42383 -141.902
c1.07129 -20.543 2.8623 -41.417 7.23438 -61.5527c0.400391 -1.84961 2.2627 -8.06836 4.10254 -13.6934c0.0292969 0.0224609 0.0625 0.0419922 0.0888672 0.0644531c2.78906 2.3623 4.9541 5.47168 6.92969 8.51172c19.9648 30.7158 19.7559 75.0312 20.1494 110.388z
M106.764 446.712c-18.5137 4.15625 -37.5898 -9.27637 -45.0684 -25.5322c-6.46094 -14.0488 -6.10352 -28.2666 -2.3457 -42.1689c2.26465 4.56055 4.88281 8.9209 8.04102 12.9434c9.21875 11.7461 47.6309 -18.5088 38.5293 -30.1035
c-9.17871 -11.6953 -14.2568 -26.4756 -18.2861 -41.3105c0.0107422 -0.0224609 0.0244141 -0.0449219 0.0351562 -0.0673828c1.21387 -2.2666 2.34277 -4.57617 3.51172 -6.86719c11.6924 31.1201 22.3223 63.2754 25.1914 95.627
c0.857422 9.68848 0.857422 19.71 -2.37207 29.002c-0.917969 2.64746 -2.0918 4.80371 -3.52734 6.97949c-0.597656 0.397461 -1.80469 1.07129 -3.70898 1.49805z" />
    <glyph glyph-name="nine" unicode="9" horiz-adv-x="143" 
d="M79.625 223.276c5.88965 41.2412 8.17676 82.8213 8.25488 124.432c-6.55859 -5.58105 -14.1045 -10.3994 -22.377 -11.502c-14.8066 -1.97363 -29.7734 7.19629 -39.9395 17.2402c-38.5566 38.085 -2.16309 98.3242 37.2715 118.798
c10.0615 5.22559 33.5332 -13.5547 36.6738 -25.5654c2.83594 -1.11816 5.33398 -2.43164 6.6582 -3.22949c8.46387 -5.10059 18.541 -13.7617 19.1787 -24.3008c4.52734 -74.7686 5.33008 -150.212 -5.70703 -224.484
c-10.4277 -70.167 -30.3301 -147.298 -74.7295 -204.161c-9.17676 -11.7529 -47.6152 18.4688 -38.5293 30.1035c44.2305 56.6475 63.2617 132.749 73.2451 202.67zM52.9082 381.037c5.91016 5.31836 11.165 11.3643 15.6543 17.9277
c6.47461 9.46582 10.9131 19.6338 13.6201 30.4395c-7.7168 -6.23242 -14.3203 -13.749 -19.6787 -22.3125c-4.06055 -6.49023 -7.36328 -13.3975 -9.46777 -20.7695c-0.602539 -2.10742 -0.994141 -4.20508 -1.27441 -6.29688
c0.381836 0.337891 0.770508 0.673828 1.14648 1.01172z" />
    <glyph glyph-name="colon" unicode=":" horiz-adv-x="149" 
d="M63.8408 278.549c-5.79395 4.34961 -17.375 15.1074 -12.7939 23.333c1.92676 3.46094 3.5957 7.02344 5.07617 10.6904c0.742188 2.11621 1.43164 4.24512 2.03418 6.41016c2.66504 9.60352 15.9756 2.80469 21.416 -0.322266
c5.20117 -2.98926 10.5439 -7.66113 14.1934 -12.4326c1.78906 -2.34277 5.96777 -8.33008 4.98535 -11.8682c-2.17578 -7.84766 -5.20996 -15.4619 -9.1748 -22.5781c-1.81543 -3.25586 -7.38086 -2.05566 -10.2188 -1.44922
c-5.68262 1.21582 -10.9346 4.77637 -15.5176 8.2168zM79.5742 135.67c5.19824 -2.98926 10.543 -7.66113 14.1924 -12.4355c1.78906 -2.34277 5.96777 -8.33008 4.98535 -11.8682c-2.17578 -7.84766 -5.20996 -15.4619 -9.1748 -22.5781
c-1.81543 -3.25586 -7.38086 -2.05566 -10.2188 -1.44922c-5.68262 1.21582 -10.9346 4.77637 -15.5176 8.2168c-5.79395 4.35156 -17.376 15.1104 -12.793 23.3359c1.92676 3.46094 3.5957 7.02344 5.07617 10.6904c0.742188 2.11621 1.43164 4.24512 2.03418 6.41016
c2.66504 9.60352 15.9756 2.80469 21.416 -0.322266z" />
    <glyph glyph-name="semicolon" unicode=";" horiz-adv-x="176" 
d="M120.555 306.227c1.79102 -2.33984 5.9707 -8.32812 4.98438 -11.8682c-2.17578 -7.84766 -5.20996 -15.4619 -9.1748 -22.5781c-1.81543 -3.25586 -7.38086 -2.05566 -10.2188 -1.44922c-5.68262 1.21582 -10.9346 4.77637 -15.5176 8.2168
c-5.79395 4.35156 -17.376 15.1104 -12.793 23.3359c1.92871 3.45801 3.59766 7.02246 5.07812 10.6895c0.742188 2.11621 1.43359 4.24316 2.0332 6.4082c2.66211 9.60352 15.9746 2.80469 21.415 -0.322266c5.20117 -2.98926 10.5439 -7.66113 14.1934 -12.4326z
M53.7861 96.4141c-0.0107422 -0.015625 -0.0205078 -0.0292969 -0.0341797 -0.0449219c-0.142578 -0.0244141 -0.302734 -0.0351562 -0.436523 -0.0664062c0.144531 0.0419922 0.292969 0.0800781 0.470703 0.111328zM81.0732 148.015
c5.45898 16 45.04 -11.5967 40.5947 -24.625c-4.67383 -13.7021 -11.1768 -26.8018 -18.2285 -39.4209c-3.62988 -6.49414 -10.4795 -23.123 -20.2012 -21.916c-11.2305 1.39551 -21.874 8.74805 -28.6797 17.623c-2.95605 3.85156 -7.90137 15.0645 -1.24219 16.6289
c-1.93555 -0.546875 -1.02246 -1.87402 0.435547 0.0664062c0.275391 0.0449219 0.524414 0.109375 0.833008 0.125c-0.295898 -0.0136719 -0.564453 -0.0400391 -0.797852 -0.0800781c0.182617 0.24707 0.369141 0.527344 0.5625 0.884766
c0.917969 1.69336 2.37793 3.26074 3.44922 4.88086c3.02246 4.57422 5.73438 9.35938 8.36621 14.1641c5.55371 10.1396 11.1631 20.6943 14.9082 31.6689zM54.6387 96.4922c0.560547 0.0244141 1.17871 -0.00195312 1.86523 -0.0859375
c-0.731445 0.0908203 -1.34277 0.108398 -1.86523 0.0859375z" />
    <glyph glyph-name="less" unicode="&#x3c;" horiz-adv-x="253" 
d="M165.861 313.047c12.6592 6.91211 47.876 -25.6992 33.7119 -33.4316c-19.8516 -10.8369 -39.2363 -22.498 -57.9971 -35.1328c-9.67285 -6.51465 -19.1475 -13.3154 -28.46 -20.332c-0.164062 -0.124023 -0.381836 -0.279297 -0.628906 -0.450195
c0.21582 0.00488281 0.442383 0.0136719 0.65332 0.015625c16.8027 0.170898 33.6055 0.339844 50.4082 0.508789c10.6943 0.106445 22.6387 -9.74414 28.6797 -17.623c4.04102 -5.27148 8.85059 -16.624 -1.94434 -16.7334
c-26.3057 -0.266602 -52.7402 -1.30273 -79.042 -0.727539c-12.7109 0.280273 -25.499 2.52051 -36.7031 8.78613c-10.0498 5.62109 -26.332 18.0869 -24.3789 31.5928c1.52246 10.5264 15.167 17.7207 22.835 23.5322c9.79004 7.41895 19.7852 14.5576 29.9199 21.4961
c20.3135 13.9111 41.3389 26.7041 62.9463 38.499z" />
    <glyph glyph-name="equal" unicode="=" horiz-adv-x="348" 
d="M293.57 251.382c4.30762 -5.61426 8.64551 -16.1055 -1.94238 -16.7324c-67.3271 -3.97852 -136.245 12.3301 -202.43 -5.47266c-9.93652 -2.67383 -21.7646 6.29395 -28.2188 12.7285c-3.05859 3.04688 -15.3027 18.0645 -5.49512 20.7021
c68.792 18.5049 139.526 2.26465 209.407 6.39648c10.4434 0.615234 22.918 -10.1104 28.6787 -17.6221zM257.406 204.452c11.2705 -1.55176 21.8008 -8.64941 28.6816 -17.6221c3.26953 -4.26465 9.27246 -18.2754 -1.94434 -16.7334
c-65.1758 8.96582 -131.474 9.27051 -196.643 -0.00195312c-10.6152 -1.51172 -20.9941 5.52246 -28.2197 12.7275c-2.44922 2.44043 -15.6465 19.2588 -5.49414 20.7031c67.6562 9.62793 135.886 10.2461 203.619 0.926758z" />
    <glyph glyph-name="greater" unicode="&#x3e;" horiz-adv-x="237" 
d="M181.619 265.32c3.0293 -3.94922 8.54297 -13.0615 1.54199 -16.2734c-32.042 -14.6904 -64.082 -29.3809 -96.124 -44.0723c-13.4443 -6.16504 -47.791 26.9775 -33.7109 33.4316c22.5938 10.3594 45.1855 20.7188 67.7793 31.0781
c-14.1377 6.36719 -27.9639 13.4521 -41.4326 21.3223c-5.93652 3.46973 -21.4678 15.3643 -19.1787 24.3008c2.46289 9.61914 16.167 2.74512 21.417 -0.322266c23.752 -13.8779 48.9824 -24.6924 75.3486 -32.5205c9.43945 -2.80273 18.3652 -9.12793 24.3594 -16.9443z
" />
    <glyph glyph-name="question" unicode="?" horiz-adv-x="210" 
d="M149.892 436.124c15.7617 -30.9707 9.80859 -69.9326 6.04785 -102.975c-4.27344 -37.5166 -10.168 -74.8174 -15.8398 -112.141c-11.2881 -74.2812 -21.5381 -149.143 -16.5771 -224.439c0.668945 -10.1504 -18.3467 -1.52734 -21.416 0.322266
c-8.49902 5.12109 -18.4824 13.749 -19.1777 24.3018c-5.34082 81.0469 6.96777 161.467 19.1562 241.352c5.99609 39.3076 12.0547 78.6729 15.6641 118.287c1.74023 19.1094 3.08887 38.9502 -1.91602 57.6992c-0.135742 0.510742 -0.362305 1.09277 -0.615234 1.69922
c-0.789062 -0.166992 -1.56934 -0.369141 -2.33594 -0.633789c-8.89453 -2.48047 -15.9893 -8.22559 -22.7217 -14.2842c-12.0264 -10.8232 -48.2207 21.3838 -38.5303 30.1055c13.8262 12.4463 29.5039 22.1436 48.8135 18.7607
c20.7803 -3.64062 39.9736 -19.4365 49.4482 -38.0547zM103.453 -32.5078c5.19824 -2.98926 10.542 -7.65918 14.1963 -12.4336c1.68457 -2.20215 6.07812 -8.45605 4.98438 -11.8672c-3.03125 -9.46094 -4.01172 -19.0449 -2.95801 -28.9219
c0.395508 -3.70508 -4.24023 -4.86328 -6.92969 -4.86523c-5.13379 -0.00488281 -10.1523 2.69336 -14.4883 5.1875c-8.81055 5.06543 -18.0586 13.8018 -19.1787 24.3008c-1.05371 9.87891 -0.0732422 19.4629 2.95801 28.9219
c3.02734 9.45508 15.6865 2.97168 21.416 -0.322266z" />
    <glyph glyph-name="at" unicode="@" horiz-adv-x="407" 
d="M338.004 405.028c17.7959 -45.5215 21.958 -98.3008 18.0576 -146.67c-2.10938 -26.1592 -6.9541 -52.0957 -14.5283 -77.2256c-3.6875 -12.2324 -8.02148 -24.292 -12.8975 -36.1025c-3.77637 -9.14551 -7.41699 -19.4961 -17.9854 -22.3252
c-8.29004 -2.21777 -17.373 0.985352 -25.207 6.13477c-3.90234 -16.4355 -8.47852 -32.7041 -13.9551 -48.7266c-7.62109 -22.292 -16.7402 -44.1592 -28.1621 -64.7891c-10.2168 -18.4561 -24.5986 -31.5889 -46.7109 -22.9053
c-23.9033 9.3877 -40.6367 30.0752 -44.9287 55.2256c-4.07812 23.8965 -5.38086 48.5537 -4.7959 72.7617c1.16504 48.3799 11.1484 96.1465 28.5283 141.266c7.36133 19.1045 17.8203 41.2939 41.9971 39.4248c16.9443 -1.30859 40.9873 -17.1904 46.5859 -35.7822
c6.35156 10.5479 41.3701 -13.6045 39.7656 -26.8574c-1.27539 -10.5439 -2.62695 -21.0947 -4.10254 -31.6318c-0.162109 -2.15625 -0.295898 -4.3125 -0.407227 -6.47266c1.5625 4.92773 3.03125 9.88184 4.38672 14.8652c6.03418 22.1582 9.98828 44.877 11.8223 67.7666
c3.44043 42.9482 0.0224609 87.668 -13.373 128.794c-4.66113 14.3105 -10.9199 29.1924 -21.0215 40.5898c-8.05859 9.09277 -20.2139 11.9639 -33.1953 11.9551c-37.4316 -0.0244141 -68.5068 -24.9639 -89.5273 -53.8926
c-44.9727 -61.8887 -63.8711 -142.864 -66.998 -218.19c-3.19336 -76.9014 8.65918 -159.751 39.6123 -230.639c6.9209 -15.8516 14.8994 -34.041 27.2305 -46.5205c10.1592 -10.2812 27.3438 -1.87109 37.6543 4.32129c32.3174 19.4023 54.2666 53.0137 74.9053 83.5537
c7.99902 11.8369 47.1064 -17.4111 38.5293 -30.1035c-15.2021 -22.499 -30.6113 -45.2373 -50.29 -64.1309c-18.5117 -17.7754 -42.7021 -35.9561 -69.8037 -31.9443c-59.8926 8.86523 -91.5107 79.5391 -108.46 129.943
c-31.6025 93.9912 -40.5527 199.586 -18.7471 296.666c17.9355 79.8506 68.4072 207.824 171.342 194.44c50.3252 -6.54492 87.0459 -47.6973 104.68 -92.7988zM259.262 232.768c0.400391 5.25 0.97168 10.4922 1.66309 15.7266
c-6.79688 -1.99316 -20.6279 5.35449 -29.2803 14.0781c-1.75391 -1.38477 -3.32715 -2.9873 -4.77148 -4.7832c-6.07812 -7.56543 -9.52051 -17.2715 -12.9209 -26.2305c-7.21875 -19.0117 -12.915 -38.6436 -17.2158 -58.5156
c-7.74805 -35.7979 -10.793 -72.6338 -8.74609 -109.212c0.566406 -10.1279 1.47559 -20.249 2.96484 -30.2861c0.302734 -2.04297 0.631836 -4.08301 1.00098 -6.11914c0.0449219 0.0351562 0.0869141 0.0615234 0.131836 0.0996094
c2.66699 2.2334 4.85352 5.21582 6.81836 8.06055c4.36719 6.32129 7.86523 13.293 11.3438 20.1318c28.0088 55.0547 40.5908 116.128 49.0117 177.05z" />
    <glyph glyph-name="A" unicode="A" 
d="M185.737 427.346c9.4082 -15.6885 12.2861 -33.6016 14.0107 -51.5156c4.46289 -46.333 2.16699 -93.1104 -1.72656 -139.395c-7.65039 -90.915 -22.9834 -181.065 -45.5039 -269.469c-4.33789 -17.0312 -40.9004 11.9531 -40.5938 24.624
c0.00195312 0.0839844 0.00390625 0.170898 0.00585938 0.257812c-3.65625 -0.921875 -7.36523 -1.6709 -11.1523 -2.16895c-18.7295 -2.46484 -37.1562 1.83105 -53.0225 12.1279c-27.4326 17.8027 -46.5645 49.209 -37.71 82.4736
c7.08105 26.5947 29.4639 51.3848 59.0928 48.5508c26.6172 -2.54492 50.1406 -21.0742 64.5869 -43.7666c2.3252 12.0771 4.52539 24.1787 6.57227 36.3096c13.3037 78.8242 23.3672 160.155 20.9668 240.224c-0.540039 18.0049 -0.942383 36.7139 -5.25391 54.2959
c-1.27148 5.18555 -2.76953 11.8662 -6.18359 16.3584c-0.357422 0.202148 -0.78418 0.395508 -1.16016 0.40625c-3.0918 0.0957031 -6.56738 1.96289 -9.72754 2.44043c-36.9297 5.58789 -73.4902 -14.6855 -103.966 -32.9639
c-12.1592 -7.29395 -47.8467 24.9551 -33.7139 33.4316c39.1963 23.5078 85.5918 44.9043 131.807 29.3018c21.5293 -7.26758 40.9209 -21.9277 52.6719 -41.5234zM52.8838 24.1641c-1.15332 0.637695 -1.97852 -0.222656 0 0zM79.8848 25.5684
c11.1455 2.94727 21.7402 7.61719 32.3994 12.0156c-0.599609 14.8506 -2.34863 29.584 -6.61816 43.6836c-1.54492 5.09863 -3.50293 12.0508 -7.37207 15.9531c-1.62012 1.63574 0.179688 1.17773 -3.4248 1.39551c-11.0508 0.664062 -21.0078 -4.44531 -28.667 -12.1689
c-16.0596 -16.1982 -22.9473 -41.4414 -12.7617 -62.2246c2.11621 0.235352 5.33203 -0.929688 7.58789 -1.02051c6.39648 -0.257812 12.6865 0.735352 18.8564 2.36621z" />
    <glyph glyph-name="A" unicode="&#xc5;" 
d="M185.737 427.346c9.4082 -15.6885 12.2861 -33.6016 14.0107 -51.5156c4.46289 -46.333 2.16699 -93.1104 -1.72656 -139.395c-7.65039 -90.915 -22.9834 -181.065 -45.5039 -269.469c-4.33789 -17.0312 -40.9004 11.9531 -40.5938 24.624
c0.00195312 0.0839844 0.00390625 0.170898 0.00585938 0.257812c-3.65625 -0.921875 -7.36523 -1.6709 -11.1523 -2.16895c-18.7295 -2.46484 -37.1562 1.83105 -53.0225 12.1279c-27.4326 17.8027 -46.5645 49.209 -37.71 82.4736
c7.08105 26.5947 29.4639 51.3848 59.0928 48.5508c26.6172 -2.54492 50.1406 -21.0742 64.5869 -43.7666c2.3252 12.0771 4.52539 24.1787 6.57227 36.3096c13.3037 78.8242 23.3672 160.155 20.9668 240.224c-0.540039 18.0049 -0.942383 36.7139 -5.25391 54.2959
c-1.27148 5.18555 -2.76953 11.8662 -6.18359 16.3584c-0.357422 0.202148 -0.78418 0.395508 -1.16016 0.40625c-3.0918 0.0957031 -6.56738 1.96289 -9.72754 2.44043c-36.9297 5.58789 -73.4902 -14.6855 -103.966 -32.9639
c-12.1592 -7.29395 -47.8467 24.9551 -33.7139 33.4316c39.1963 23.5078 85.5918 44.9043 131.807 29.3018c21.5293 -7.26758 40.9209 -21.9277 52.6719 -41.5234zM52.8838 24.1641c-1.15332 0.637695 -1.97852 -0.222656 0 0zM79.8848 25.5684
c11.1455 2.94727 21.7402 7.61719 32.3994 12.0156c-0.599609 14.8506 -2.34863 29.584 -6.61816 43.6836c-1.54492 5.09863 -3.50293 12.0508 -7.37207 15.9531c-1.62012 1.63574 0.179688 1.17773 -3.4248 1.39551c-11.0508 0.664062 -21.0078 -4.44531 -28.667 -12.1689
c-16.0596 -16.1982 -22.9473 -41.4414 -12.7617 -62.2246c2.11621 0.235352 5.33203 -0.929688 7.58789 -1.02051c6.39648 -0.257812 12.6865 0.735352 18.8564 2.36621z" />
    <glyph glyph-name="A" unicode="&#xc4;" 
d="M185.737 427.346c9.4082 -15.6885 12.2861 -33.6016 14.0107 -51.5156c4.46289 -46.333 2.16699 -93.1104 -1.72656 -139.395c-7.65039 -90.915 -22.9834 -181.065 -45.5039 -269.469c-4.33789 -17.0312 -40.9004 11.9531 -40.5938 24.624
c0.00195312 0.0839844 0.00390625 0.170898 0.00585938 0.257812c-3.65625 -0.921875 -7.36523 -1.6709 -11.1523 -2.16895c-18.7295 -2.46484 -37.1562 1.83105 -53.0225 12.1279c-27.4326 17.8027 -46.5645 49.209 -37.71 82.4736
c7.08105 26.5947 29.4639 51.3848 59.0928 48.5508c26.6172 -2.54492 50.1406 -21.0742 64.5869 -43.7666c2.3252 12.0771 4.52539 24.1787 6.57227 36.3096c13.3037 78.8242 23.3672 160.155 20.9668 240.224c-0.540039 18.0049 -0.942383 36.7139 -5.25391 54.2959
c-1.27148 5.18555 -2.76953 11.8662 -6.18359 16.3584c-0.357422 0.202148 -0.78418 0.395508 -1.16016 0.40625c-3.0918 0.0957031 -6.56738 1.96289 -9.72754 2.44043c-36.9297 5.58789 -73.4902 -14.6855 -103.966 -32.9639
c-12.1592 -7.29395 -47.8467 24.9551 -33.7139 33.4316c39.1963 23.5078 85.5918 44.9043 131.807 29.3018c21.5293 -7.26758 40.9209 -21.9277 52.6719 -41.5234zM52.8838 24.1641c-1.15332 0.637695 -1.97852 -0.222656 0 0zM79.8848 25.5684
c11.1455 2.94727 21.7402 7.61719 32.3994 12.0156c-0.599609 14.8506 -2.34863 29.584 -6.61816 43.6836c-1.54492 5.09863 -3.50293 12.0508 -7.37207 15.9531c-1.62012 1.63574 0.179688 1.17773 -3.4248 1.39551c-11.0508 0.664062 -21.0078 -4.44531 -28.667 -12.1689
c-16.0596 -16.1982 -22.9473 -41.4414 -12.7617 -62.2246c2.11621 0.235352 5.33203 -0.929688 7.58789 -1.02051c6.39648 -0.257812 12.6865 0.735352 18.8564 2.36621z" />
    <glyph glyph-name="A" unicode="&#xc3;" 
d="M185.737 427.346c9.4082 -15.6885 12.2861 -33.6016 14.0107 -51.5156c4.46289 -46.333 2.16699 -93.1104 -1.72656 -139.395c-7.65039 -90.915 -22.9834 -181.065 -45.5039 -269.469c-4.33789 -17.0312 -40.9004 11.9531 -40.5938 24.624
c0.00195312 0.0839844 0.00390625 0.170898 0.00585938 0.257812c-3.65625 -0.921875 -7.36523 -1.6709 -11.1523 -2.16895c-18.7295 -2.46484 -37.1562 1.83105 -53.0225 12.1279c-27.4326 17.8027 -46.5645 49.209 -37.71 82.4736
c7.08105 26.5947 29.4639 51.3848 59.0928 48.5508c26.6172 -2.54492 50.1406 -21.0742 64.5869 -43.7666c2.3252 12.0771 4.52539 24.1787 6.57227 36.3096c13.3037 78.8242 23.3672 160.155 20.9668 240.224c-0.540039 18.0049 -0.942383 36.7139 -5.25391 54.2959
c-1.27148 5.18555 -2.76953 11.8662 -6.18359 16.3584c-0.357422 0.202148 -0.78418 0.395508 -1.16016 0.40625c-3.0918 0.0957031 -6.56738 1.96289 -9.72754 2.44043c-36.9297 5.58789 -73.4902 -14.6855 -103.966 -32.9639
c-12.1592 -7.29395 -47.8467 24.9551 -33.7139 33.4316c39.1963 23.5078 85.5918 44.9043 131.807 29.3018c21.5293 -7.26758 40.9209 -21.9277 52.6719 -41.5234zM52.8838 24.1641c-1.15332 0.637695 -1.97852 -0.222656 0 0zM79.8848 25.5684
c11.1455 2.94727 21.7402 7.61719 32.3994 12.0156c-0.599609 14.8506 -2.34863 29.584 -6.61816 43.6836c-1.54492 5.09863 -3.50293 12.0508 -7.37207 15.9531c-1.62012 1.63574 0.179688 1.17773 -3.4248 1.39551c-11.0508 0.664062 -21.0078 -4.44531 -28.667 -12.1689
c-16.0596 -16.1982 -22.9473 -41.4414 -12.7617 -62.2246c2.11621 0.235352 5.33203 -0.929688 7.58789 -1.02051c6.39648 -0.257812 12.6865 0.735352 18.8564 2.36621z" />
    <glyph glyph-name="A" unicode="&#xc2;" 
d="M185.737 427.346c9.4082 -15.6885 12.2861 -33.6016 14.0107 -51.5156c4.46289 -46.333 2.16699 -93.1104 -1.72656 -139.395c-7.65039 -90.915 -22.9834 -181.065 -45.5039 -269.469c-4.33789 -17.0312 -40.9004 11.9531 -40.5938 24.624
c0.00195312 0.0839844 0.00390625 0.170898 0.00585938 0.257812c-3.65625 -0.921875 -7.36523 -1.6709 -11.1523 -2.16895c-18.7295 -2.46484 -37.1562 1.83105 -53.0225 12.1279c-27.4326 17.8027 -46.5645 49.209 -37.71 82.4736
c7.08105 26.5947 29.4639 51.3848 59.0928 48.5508c26.6172 -2.54492 50.1406 -21.0742 64.5869 -43.7666c2.3252 12.0771 4.52539 24.1787 6.57227 36.3096c13.3037 78.8242 23.3672 160.155 20.9668 240.224c-0.540039 18.0049 -0.942383 36.7139 -5.25391 54.2959
c-1.27148 5.18555 -2.76953 11.8662 -6.18359 16.3584c-0.357422 0.202148 -0.78418 0.395508 -1.16016 0.40625c-3.0918 0.0957031 -6.56738 1.96289 -9.72754 2.44043c-36.9297 5.58789 -73.4902 -14.6855 -103.966 -32.9639
c-12.1592 -7.29395 -47.8467 24.9551 -33.7139 33.4316c39.1963 23.5078 85.5918 44.9043 131.807 29.3018c21.5293 -7.26758 40.9209 -21.9277 52.6719 -41.5234zM52.8838 24.1641c-1.15332 0.637695 -1.97852 -0.222656 0 0zM79.8848 25.5684
c11.1455 2.94727 21.7402 7.61719 32.3994 12.0156c-0.599609 14.8506 -2.34863 29.584 -6.61816 43.6836c-1.54492 5.09863 -3.50293 12.0508 -7.37207 15.9531c-1.62012 1.63574 0.179688 1.17773 -3.4248 1.39551c-11.0508 0.664062 -21.0078 -4.44531 -28.667 -12.1689
c-16.0596 -16.1982 -22.9473 -41.4414 -12.7617 -62.2246c2.11621 0.235352 5.33203 -0.929688 7.58789 -1.02051c6.39648 -0.257812 12.6865 0.735352 18.8564 2.36621z" />
    <glyph glyph-name="A" unicode="&#xc1;" 
d="M185.737 427.346c9.4082 -15.6885 12.2861 -33.6016 14.0107 -51.5156c4.46289 -46.333 2.16699 -93.1104 -1.72656 -139.395c-7.65039 -90.915 -22.9834 -181.065 -45.5039 -269.469c-4.33789 -17.0312 -40.9004 11.9531 -40.5938 24.624
c0.00195312 0.0839844 0.00390625 0.170898 0.00585938 0.257812c-3.65625 -0.921875 -7.36523 -1.6709 -11.1523 -2.16895c-18.7295 -2.46484 -37.1562 1.83105 -53.0225 12.1279c-27.4326 17.8027 -46.5645 49.209 -37.71 82.4736
c7.08105 26.5947 29.4639 51.3848 59.0928 48.5508c26.6172 -2.54492 50.1406 -21.0742 64.5869 -43.7666c2.3252 12.0771 4.52539 24.1787 6.57227 36.3096c13.3037 78.8242 23.3672 160.155 20.9668 240.224c-0.540039 18.0049 -0.942383 36.7139 -5.25391 54.2959
c-1.27148 5.18555 -2.76953 11.8662 -6.18359 16.3584c-0.357422 0.202148 -0.78418 0.395508 -1.16016 0.40625c-3.0918 0.0957031 -6.56738 1.96289 -9.72754 2.44043c-36.9297 5.58789 -73.4902 -14.6855 -103.966 -32.9639
c-12.1592 -7.29395 -47.8467 24.9551 -33.7139 33.4316c39.1963 23.5078 85.5918 44.9043 131.807 29.3018c21.5293 -7.26758 40.9209 -21.9277 52.6719 -41.5234zM52.8838 24.1641c-1.15332 0.637695 -1.97852 -0.222656 0 0zM79.8848 25.5684
c11.1455 2.94727 21.7402 7.61719 32.3994 12.0156c-0.599609 14.8506 -2.34863 29.584 -6.61816 43.6836c-1.54492 5.09863 -3.50293 12.0508 -7.37207 15.9531c-1.62012 1.63574 0.179688 1.17773 -3.4248 1.39551c-11.0508 0.664062 -21.0078 -4.44531 -28.667 -12.1689
c-16.0596 -16.1982 -22.9473 -41.4414 -12.7617 -62.2246c2.11621 0.235352 5.33203 -0.929688 7.58789 -1.02051c6.39648 -0.257812 12.6865 0.735352 18.8564 2.36621z" />
    <glyph glyph-name="B" unicode="B" horiz-adv-x="212" 
d="M137.116 371.285c19.6758 -13.2979 35.8398 -32.0811 46.0879 -53.3818c29.9238 -62.2197 23.2432 -140.028 -1.04004 -202.817c-22.3516 -57.7988 -63.6592 -114.927 -127.65 -125.551c-1.31543 -5.66504 -10.3057 -3.14258 -16.3379 -0.59082
c-8.80078 2.55859 -18.002 10.9824 -22.5381 16.8984c-3.84961 5.02051 -7.41016 13.2217 -1.49609 15.9062c0.268555 60.0635 1.20605 120.123 2.91113 180.165c1.52441 53.7588 3.47168 107.936 13.1064 160.965c8.25684 45.4551 22.665 101.921 61.7549 130.991
c17.4775 12.9971 39.0869 19.8867 60.8232 15.6484c22.5098 -4.3877 48.4424 -24.168 49.543 -48.7715c0.942383 -21.0811 -15.0576 -41.1279 -28.3701 -55.8438c-11.1748 -12.3506 -23.8008 -23.2188 -36.7939 -33.6182zM126.259 460.478
c-15.8887 -13.1953 -26.6621 -31.4082 -34.8252 -50.126c-2.98242 -6.83398 -5.61816 -13.8057 -8.00781 -20.8691c18.1934 14.1113 36.4473 28.4131 51.9541 45.5264c7.40332 8.16992 14.3047 17.0205 19.7881 26.6104c2.4043 4.20508 4.41309 8.48145 5.51367 13.2178
c0.102539 0.433594 0.162109 0.867188 0.22168 1.30078c-3.15137 -0.40918 -6.22949 -1.14258 -9.29199 -2.07617c-9.2373 -2.81348 -17.9248 -7.41406 -25.3525 -13.584zM152.668 173.805c9.26367 35.4717 12.2969 73.3037 6.50684 109.611
c-4.11426 25.8057 -12.8066 68.3291 -44.3486 72.8789c-9.49023 1.36914 -17.9688 6.4502 -24.7295 13.1914c-1.62695 1.625 -7.23438 7.87891 -8.92578 13.0527c-10.5771 -34.0273 -15.2109 -70.123 -18.3848 -105.319
c-7.30078 -80.9736 -7.77832 -162.951 -7.98047 -244.416c51.8691 24.8213 84.1777 88.5986 97.8623 141.001z" />
    <glyph glyph-name="C" unicode="C" horiz-adv-x="223" 
d="M188.169 40.0547c11.8418 10.9189 48.2119 -21.1768 38.5303 -30.1113c-21.3096 -19.6514 -43.9814 -41.0166 -71.9072 -50.707c-26.666 -9.25195 -55.2432 -4.75977 -78.9951 9.98633c-50.3799 31.2773 -61.2793 96.7178 -65.7998 151.17
c-4.71191 56.7432 -1.17578 114.911 11.6436 170.426c11.6885 50.6113 31.1689 102.609 63.5664 143.777c14.7041 18.6846 36.249 41.4785 61.2676 43.8125c26.9482 2.51562 57.0391 -21.499 63.4043 -47.2207c2.64746 -10.6943 -9.67188 -8.57812 -15.7656 -5.93359
c-7.85645 3.40918 -17.5156 10.2275 -22.0117 18.5068c-5.13672 -1.22461 -10.249 -4.07129 -14.5254 -6.78027c-9.64551 -6.1123 -18.1738 -14.46 -25.7812 -22.9141c-15.5352 -17.2646 -27.7275 -37.3408 -38.0264 -58.0791
c-39.3525 -79.2334 -50.4648 -172.762 -43.1748 -260.214c1.95801 -23.501 5.91406 -46.9756 12.7236 -69.5811c3.68457 -12.2305 8.1123 -32.3691 21.8516 -36.0674c39.6963 -10.6855 76.7676 25.7373 103 49.9297zM179.796 444.142
c-0.0195312 -0.03125 -0.637695 -0.015625 -1.4248 0.0107422c0.626953 -0.381836 1.12891 -0.448242 1.4248 -0.0107422z" />
    <glyph glyph-name="D" unicode="D" horiz-adv-x="215" 
d="M176.01 447.843c22.1182 -30.0068 31.3174 -67.3359 33.2822 -104.083c3.80957 -71.2744 -17.4287 -145.369 -45.6396 -210.189c-28.1748 -64.7402 -68.1514 -123.946 -117.554 -174.369c-11.0439 -11.2705 -48.1201 20.3164 -38.5303 30.1045
c9.22363 9.41504 18.1182 19.1387 26.6709 29.1445c-1.32715 1.37793 -2.5498 2.73633 -3.61914 4.00098c-7.11914 8.41211 -8.15039 17.0176 -9.30371 27.5547c-1.25586 11.4639 -2.28223 22.9521 -3.09766 34.4561c-1.68066 23.7256 -2.4873 47.5088 -2.75195 71.29
c-0.515625 46.2197 1.01367 92.4258 2.14746 138.625c0.964844 39.3213 0.0517578 79.3447 7.91016 118.074c6.38574 31.46 18.9141 74.8682 55.5234 81.6582c36.9248 6.84766 73.8926 -17.6846 94.9619 -46.2666zM125.123 163.675
c25.5166 58.6279 43.5889 124.389 43.9424 188.655c0.175781 31.5 -4.3916 67.4785 -22.2451 94.3691c-15.042 22.6582 -45.7949 15.9287 -60.2832 -4.49414c-19.4092 -27.3545 -23.7656 -65.6973 -25.9902 -98.2422c-2.42676 -35.4668 -2.25977 -71.1719 -3.16895 -106.701
c-0.942383 -36.8096 -1.77539 -73.6348 -1.26172 -110.46c0.262695 -18.7383 0.869141 -37.4717 1.99121 -56.1787c0.40625 -6.78516 0.908203 -13.5635 1.45703 -20.3379c26.0195 35.1475 48.0674 73.1992 65.5586 113.39z" />
    <glyph glyph-name="E" unicode="E" horiz-adv-x="218" 
d="M8.36523 227.241c2.36035 65.3711 17.1406 133.395 47.5557 191.678c13.3799 25.6348 32.1807 52.9717 58.2109 67.083c30.8779 16.7402 68.043 -4.97656 80.249 -35.5137c24.583 -61.4951 -49.8135 -110.082 -100.738 -119.304
c-7.10059 -1.28711 -14.3818 1.86035 -20.5137 6.19824c-15.918 -47.9531 -24.1367 -98.4893 -24.4766 -148.998c-0.367188 -54.2227 6.90723 -112.148 31.1709 -161.271c2.98242 -6.03906 6.07617 -12.3662 10.0703 -17.8115
c0.839844 -1.14648 1.70703 -2.35352 2.71191 -3.37109c0.0888672 -0.0263672 0.155273 -0.0458984 0.25293 -0.0771484c9.59863 -3.11816 20.4336 -1.68652 29.8682 1.2627c25.0498 7.83203 43.0322 28.1504 60.0703 47.0127
c10.3838 11.4932 47.9863 -19.6357 38.5293 -30.1035c-23.2236 -25.708 -48.9512 -51.8359 -85.6162 -54.0498c-39.1895 -2.36719 -71.1826 27.2148 -88.6143 59.5752c-32.0225 59.4482 -41.1396 130.984 -38.7305 197.689zM111.384 416.499
c-10.0391 -13.915 -18.2305 -29.0947 -25.1582 -44.8164c18.2578 6.625 35.2646 16.7373 48.7666 30.7549c9.37012 9.72559 17.7402 21.6445 21.2344 34.8379c1.37793 5.20312 2.20703 10.7285 1.94434 16.1201c-0.0195312 0.371094 -0.261719 1.61328 -0.585938 3.1582
c-0.804688 -0.133789 -1.54297 -0.285156 -2.11816 -0.492188c-3.15332 -1.12891 -6.2207 -2.61133 -9.11035 -4.30273c-5.10547 -2.98926 -9.54395 -6.86523 -13.8311 -10.9189c-7.82129 -7.39648 -14.8447 -15.6152 -21.1416 -24.3408z" />
    <glyph glyph-name="E" unicode="&#xcb;" horiz-adv-x="218" 
d="M8.36523 227.241c2.36035 65.3711 17.1406 133.395 47.5557 191.678c13.3799 25.6348 32.1807 52.9717 58.2109 67.083c30.8779 16.7402 68.043 -4.97656 80.249 -35.5137c24.583 -61.4951 -49.8135 -110.082 -100.738 -119.304
c-7.10059 -1.28711 -14.3818 1.86035 -20.5137 6.19824c-15.918 -47.9531 -24.1367 -98.4893 -24.4766 -148.998c-0.367188 -54.2227 6.90723 -112.148 31.1709 -161.271c2.98242 -6.03906 6.07617 -12.3662 10.0703 -17.8115
c0.839844 -1.14648 1.70703 -2.35352 2.71191 -3.37109c0.0888672 -0.0263672 0.155273 -0.0458984 0.25293 -0.0771484c9.59863 -3.11816 20.4336 -1.68652 29.8682 1.2627c25.0498 7.83203 43.0322 28.1504 60.0703 47.0127
c10.3838 11.4932 47.9863 -19.6357 38.5293 -30.1035c-23.2236 -25.708 -48.9512 -51.8359 -85.6162 -54.0498c-39.1895 -2.36719 -71.1826 27.2148 -88.6143 59.5752c-32.0225 59.4482 -41.1396 130.984 -38.7305 197.689zM111.384 416.499
c-10.0391 -13.915 -18.2305 -29.0947 -25.1582 -44.8164c18.2578 6.625 35.2646 16.7373 48.7666 30.7549c9.37012 9.72559 17.7402 21.6445 21.2344 34.8379c1.37793 5.20312 2.20703 10.7285 1.94434 16.1201c-0.0195312 0.371094 -0.261719 1.61328 -0.585938 3.1582
c-0.804688 -0.133789 -1.54297 -0.285156 -2.11816 -0.492188c-3.15332 -1.12891 -6.2207 -2.61133 -9.11035 -4.30273c-5.10547 -2.98926 -9.54395 -6.86523 -13.8311 -10.9189c-7.82129 -7.39648 -14.8447 -15.6152 -21.1416 -24.3408z" />
    <glyph glyph-name="E" unicode="&#xca;" horiz-adv-x="218" 
d="M8.36523 227.241c2.36035 65.3711 17.1406 133.395 47.5557 191.678c13.3799 25.6348 32.1807 52.9717 58.2109 67.083c30.8779 16.7402 68.043 -4.97656 80.249 -35.5137c24.583 -61.4951 -49.8135 -110.082 -100.738 -119.304
c-7.10059 -1.28711 -14.3818 1.86035 -20.5137 6.19824c-15.918 -47.9531 -24.1367 -98.4893 -24.4766 -148.998c-0.367188 -54.2227 6.90723 -112.148 31.1709 -161.271c2.98242 -6.03906 6.07617 -12.3662 10.0703 -17.8115
c0.839844 -1.14648 1.70703 -2.35352 2.71191 -3.37109c0.0888672 -0.0263672 0.155273 -0.0458984 0.25293 -0.0771484c9.59863 -3.11816 20.4336 -1.68652 29.8682 1.2627c25.0498 7.83203 43.0322 28.1504 60.0703 47.0127
c10.3838 11.4932 47.9863 -19.6357 38.5293 -30.1035c-23.2236 -25.708 -48.9512 -51.8359 -85.6162 -54.0498c-39.1895 -2.36719 -71.1826 27.2148 -88.6143 59.5752c-32.0225 59.4482 -41.1396 130.984 -38.7305 197.689zM111.384 416.499
c-10.0391 -13.915 -18.2305 -29.0947 -25.1582 -44.8164c18.2578 6.625 35.2646 16.7373 48.7666 30.7549c9.37012 9.72559 17.7402 21.6445 21.2344 34.8379c1.37793 5.20312 2.20703 10.7285 1.94434 16.1201c-0.0195312 0.371094 -0.261719 1.61328 -0.585938 3.1582
c-0.804688 -0.133789 -1.54297 -0.285156 -2.11816 -0.492188c-3.15332 -1.12891 -6.2207 -2.61133 -9.11035 -4.30273c-5.10547 -2.98926 -9.54395 -6.86523 -13.8311 -10.9189c-7.82129 -7.39648 -14.8447 -15.6152 -21.1416 -24.3408z" />
    <glyph glyph-name="E" unicode="&#xc9;" horiz-adv-x="218" 
d="M8.36523 227.241c2.36035 65.3711 17.1406 133.395 47.5557 191.678c13.3799 25.6348 32.1807 52.9717 58.2109 67.083c30.8779 16.7402 68.043 -4.97656 80.249 -35.5137c24.583 -61.4951 -49.8135 -110.082 -100.738 -119.304
c-7.10059 -1.28711 -14.3818 1.86035 -20.5137 6.19824c-15.918 -47.9531 -24.1367 -98.4893 -24.4766 -148.998c-0.367188 -54.2227 6.90723 -112.148 31.1709 -161.271c2.98242 -6.03906 6.07617 -12.3662 10.0703 -17.8115
c0.839844 -1.14648 1.70703 -2.35352 2.71191 -3.37109c0.0888672 -0.0263672 0.155273 -0.0458984 0.25293 -0.0771484c9.59863 -3.11816 20.4336 -1.68652 29.8682 1.2627c25.0498 7.83203 43.0322 28.1504 60.0703 47.0127
c10.3838 11.4932 47.9863 -19.6357 38.5293 -30.1035c-23.2236 -25.708 -48.9512 -51.8359 -85.6162 -54.0498c-39.1895 -2.36719 -71.1826 27.2148 -88.6143 59.5752c-32.0225 59.4482 -41.1396 130.984 -38.7305 197.689zM111.384 416.499
c-10.0391 -13.915 -18.2305 -29.0947 -25.1582 -44.8164c18.2578 6.625 35.2646 16.7373 48.7666 30.7549c9.37012 9.72559 17.7402 21.6445 21.2344 34.8379c1.37793 5.20312 2.20703 10.7285 1.94434 16.1201c-0.0195312 0.371094 -0.261719 1.61328 -0.585938 3.1582
c-0.804688 -0.133789 -1.54297 -0.285156 -2.11816 -0.492188c-3.15332 -1.12891 -6.2207 -2.61133 -9.11035 -4.30273c-5.10547 -2.98926 -9.54395 -6.86523 -13.8311 -10.9189c-7.82129 -7.39648 -14.8447 -15.6152 -21.1416 -24.3408z" />
    <glyph glyph-name="F" unicode="F" horiz-adv-x="171" 
d="M174.533 469.085c3.41602 -4.45605 9.21777 -17.9453 -1.94824 -16.7344c-35.3584 3.84277 -58.8945 -33.1895 -71.6338 -61.0137c-13.5977 -29.6992 -19.7744 -62.4062 -23.4326 -94.6816c-0.250977 -2.22949 -0.463867 -4.46582 -0.697266 -6.69727
c2.84668 1.02246 5.69336 2.04688 8.54004 3.06934c14.249 5.12305 47.4492 -28.4951 33.7139 -33.4316c-15.249 -5.4834 -30.498 -10.9639 -45.7471 -16.4443c-0.799805 -17.4316 -1.08691 -34.8877 -0.947266 -52.3076
c0.584961 -73.4941 9.95996 -146.551 27.4648 -217.916c2.62305 -10.6924 -9.6543 -8.58496 -15.7666 -5.93359c-9.39453 4.07617 -21.458 13.0508 -24.0361 23.5654c-10.4395 42.5566 -17.9648 85.6895 -22.6875 129.251c-3.90527 36.0117 -6.17871 72.7549 -6.125 109.482
c-15.6377 1.71582 -41.3408 29.417 -28.9678 33.8643c10.0811 3.62305 20.1602 7.24805 30.2412 10.8711c1.38281 24.1836 3.90723 48.2266 7.82129 71.9121c5.49219 33.2354 15.1494 66.5889 32.6758 95.5947c15.3799 25.4521 41.166 48.6152 72.8525 45.1729
c11.1816 -1.21582 21.9609 -8.85938 28.6797 -17.623z" />
    <glyph glyph-name="G" unicode="G" horiz-adv-x="174" 
d="M157.757 436.323c0.255859 -2.42676 0.371094 -4.83398 0.413086 -7.23242c2.24219 -38.6279 4.22266 -77.2842 4.42285 -115.985c0.364258 -70.3633 -5.19824 -141.516 -26.1299 -209.036c-17.6846 -57.0459 -46.7217 -112.169 -95.2324 -148.729
c-13.2793 -10.0078 -48.1328 22.8652 -38.5293 30.1045c27.0752 20.4053 48.5225 46.8115 64.958 76.3623c31.8779 57.3164 45.4307 123.768 51.1006 188.53c2.81836 32.2021 3.56543 64.4824 3.16309 96.7715c-0.168945 -0.186523 -0.331055 -0.379883 -0.5 -0.566406
c-18.9824 -20.8633 -43.3682 -43.5889 -73.8232 -36.0674c-16.9648 4.1875 -33.5068 15.9668 -42.8701 30.7314c-8.76074 13.8174 -7.99219 29.0859 -3.22949 44.2217c15.9551 50.6914 66.2822 85.3691 119.265 82.9512c7.83203 -0.357422 15.873 -4.98438 22.1494 -10.623
c7.26367 -5.24316 13.9072 -12.5488 14.8428 -21.4326zM86.5 380.702c12.666 14.6816 23.1104 31.1572 28.0381 49.2822c-14.1934 -4.1543 -27.5215 -11.3066 -38.9004 -20.9326c-18.5361 -15.6797 -36.0137 -40.2207 -37.1562 -65.4219
c5.54785 1.13574 11.1016 3.96289 15.6846 6.90527c12.1865 7.82129 22.9346 19.2695 32.334 30.167z" />
    <glyph glyph-name="H" unicode="H" horiz-adv-x="179" 
d="M63.2617 214.786c-2.44043 -39.5654 -4.70215 -79.1406 -6.78711 -118.724c-0.857422 -16.2646 -1.66016 -32.5312 -2.45605 -48.7979c1.63379 1.73535 3.27637 3.46191 4.96094 5.15527c14.373 14.4463 33.2354 33.4863 53.4541 38.9053
c24.2725 6.50293 51.4209 -9.46387 63.4443 -30.4131c11.5234 -20.083 10.9609 -48.5801 7.84082 -70.748c-2.11816 -15.0645 -42.6553 9.98828 -40.5947 24.624c1.36914 9.71875 2.03613 19.4717 1.4873 29.2842c-0.242188 4.35645 -0.712891 8.67969 -1.45117 12.9824
c-2.00293 -0.753906 -3.95898 -1.67871 -5.80566 -2.61035c-7.49023 -3.77344 -14.1885 -9.33008 -20.6338 -14.6396c-24.4502 -20.1387 -44.8467 -44.5771 -60.8115 -71.9014c-6.51465 -11.1523 -30.9043 10.748 -34.5762 15.4951
c-12.7285 16.4561 -10.4951 34.123 -9.58789 53.7012c0.951172 20.5312 1.94922 41.0625 2.99609 61.5898c2.16699 42.5215 4.54102 85.0322 7.11914 127.531c5.1582 84.9961 11.1523 169.943 17.9375 254.826c1.16016 14.5107 41.79 -9.67676 40.5947 -24.623
c-6.43652 -80.4932 -12.1592 -161.042 -17.1309 -241.638z" />
    <glyph glyph-name="I" unicode="I" horiz-adv-x="89" 
d="M45.668 -40.4668c-2.07617 -15.042 -42.6162 9.96973 -40.5938 24.623c21.9189 158.864 30.9775 319.326 27.0723 479.648c-0.249023 10.1504 18.082 1.68652 21.416 -0.322266c8.22559 -4.95605 18.9248 -13.8643 19.1777 -24.3008
c3.90527 -160.322 -5.15137 -320.784 -27.0723 -479.648z" />
    <glyph glyph-name="I" unicode="&#xcf;" horiz-adv-x="89" 
d="M45.668 -40.4668c-2.07617 -15.042 -42.6162 9.96973 -40.5938 24.623c21.9189 158.864 30.9775 319.326 27.0723 479.648c-0.249023 10.1504 18.082 1.68652 21.416 -0.322266c8.22559 -4.95605 18.9248 -13.8643 19.1777 -24.3008
c3.90527 -160.322 -5.15137 -320.784 -27.0723 -479.648z" />
    <glyph glyph-name="I" unicode="&#xce;" horiz-adv-x="89" 
d="M45.668 -40.4668c-2.07617 -15.042 -42.6162 9.96973 -40.5938 24.623c21.9189 158.864 30.9775 319.326 27.0723 479.648c-0.249023 10.1504 18.082 1.68652 21.416 -0.322266c8.22559 -4.95605 18.9248 -13.8643 19.1777 -24.3008
c3.90527 -160.322 -5.15137 -320.784 -27.0723 -479.648z" />
    <glyph glyph-name="I" unicode="&#xcd;" horiz-adv-x="89" 
d="M45.668 -40.4668c-2.07617 -15.042 -42.6162 9.96973 -40.5938 24.623c21.9189 158.864 30.9775 319.326 27.0723 479.648c-0.249023 10.1504 18.082 1.68652 21.416 -0.322266c8.22559 -4.95605 18.9248 -13.8643 19.1777 -24.3008
c3.90527 -160.322 -5.15137 -320.784 -27.0723 -479.648z" />
    <glyph glyph-name="J" unicode="J" horiz-adv-x="164" 
d="M152.454 477.5c2.71387 -2.70508 15.5156 -18.7158 5.49219 -20.707c-13.3555 -2.64746 -26.3438 -6.36816 -38.9365 -11.1377c9.91016 -61.2969 14.3223 -123.481 16.9209 -185.475c2.27832 -54.3457 2.08301 -109.171 -6.85156 -162.967
c-4.31152 -25.9639 -10.666 -51.6387 -19.6914 -76.3799c-7.87695 -21.5938 -17.8584 -46.0146 -36.5205 -60.6367c-22.75 -17.8242 -52.4248 -0.331055 -67.4512 19.7344c-16.1182 21.5234 -10.9395 46.2734 -1.8252 69.5547
c16.1621 41.2832 48.9092 73.75 87.9814 93.8369c1.61621 13.0088 2.79199 26.0703 3.57617 39.1318c2.79199 46.4082 1.00488 92.9434 -1.7002 139.31c-2.0918 35.876 -4.86133 71.7051 -9.35352 107.339c-0.702148 -0.402344 -1.41797 -0.773438 -2.11816 -1.18457
c-12.2793 -7.20996 -47.8594 25.126 -33.7129 33.4316c23.6475 13.8818 49.0732 23.5479 75.9707 28.8779c10.3281 2.04688 21.3389 -5.86719 28.2197 -12.7285zM69.4404 47.25c3.30469 9.20996 6.22168 18.5439 8.82617 27.9629
c-16.1338 -16.4824 -29.0596 -36.0498 -36.832 -57.7529c-2.95605 -8.25 -5.9209 -17.5244 -6.34082 -26.499c1.01562 0.792969 1.9873 1.65039 2.96484 2.57031c15.124 14.209 24.4805 34.4893 31.3818 53.7188z" />
    <glyph glyph-name="K" unicode="K" horiz-adv-x="180" 
d="M121.064 151.121c11.8105 10.7393 48.2432 -20.9375 38.5371 -30.1055c-6.8125 -6.43164 -13.418 -13.0566 -19.8564 -19.8242c-14.6758 -15.9863 -27.6484 -33.4688 -38.4766 -52.376c-2.18945 -3.82715 -4.52051 -7.6875 -6.35449 -11.7012
c-0.0693359 -0.148438 -0.15332 -0.379883 -0.24707 -0.648438c1.50195 -0.0869141 3.00391 -0.162109 4.49707 -0.231445c16.7686 -0.782227 33.4619 0.375977 49.96 3.42773c10.3994 1.9248 21.2568 -5.78516 28.2197 -12.7285
c2.64941 -2.64258 15.5537 -18.8428 5.49414 -20.7031c-24.001 -4.43848 -48.7822 -6.22363 -73.0654 -2.99219c-11.5264 1.5332 -24.5615 6.08301 -35.4189 13.3525c-8.54102 -13.7666 -16.4736 -27.9326 -23.7275 -42.4922
c-3.61426 -7.25195 -19.3877 2.41797 -23.0615 4.91406c-6.25684 4.24707 -17.4824 13.5264 -16.502 22.4473c8.60547 78.3555 11.8926 156.859 12.0283 235.654c0.0693359 39.874 -0.0400391 79.7754 2.00488 119.609c2.02246 39.3633 6.98047 78.5889 5.72461 118.065
c-0.322266 10.1523 18.1289 1.6582 21.416 -0.322266c8.27441 -4.9873 18.8447 -13.8418 19.1777 -24.3008c1.27832 -40.1992 -3.85156 -80.1494 -5.83203 -120.237c-1.93164 -39.1143 -1.83203 -78.2881 -1.89844 -117.438
c-0.0751953 -43.3838 -1.15527 -86.6787 -3.50195 -129.911c12.1123 16.3203 25.1982 31.916 39.1621 46.749c6.87207 7.60547 14.1152 14.8779 21.7207 21.792z" />
    <glyph glyph-name="L" unicode="L" horiz-adv-x="116" 
d="M82.1748 26.8047c13.3174 6.30078 47.8184 -26.7568 33.71 -33.4355c-18.1025 -8.56738 -35.6494 -9.74707 -53.4033 0.591797c-16.9355 9.86328 -29.0439 25.7812 -32.9844 45.0127c-6.90332 33.6982 -5.2627 69.8125 -6.42285 104.048
c-1.26465 37.3291 -2.40918 74.6631 -3.43359 111.999c-2.00684 73.21 -3.54492 146.432 -4.64062 219.659c-0.15332 10.1455 18.0205 1.72461 21.417 -0.322266c8.16113 -4.91895 19.0225 -13.8936 19.1777 -24.3018c1.20508 -80.5508 2.94727 -161.093 5.25879 -241.619
c1.13379 -39.5303 2.40332 -79.0576 3.80762 -118.581c0.695312 -19.5869 0.535156 -39.5137 3.07324 -58.9746c0.402344 -3.08301 0.898438 -6.1748 1.51855 -9.23047c4.48047 1.19824 8.74805 3.17871 12.9219 5.1543z" />
    <glyph glyph-name="M" unicode="M" horiz-adv-x="311" 
d="M35.1836 -52.9199c-7.88379 4.75 -19.459 14.0342 -19.1816 24.2998c4.58301 169.188 6.77637 338.436 6.57812 507.688c-0.0136719 10.1396 17.9287 1.78027 21.416 -0.322266c8.07031 -4.86523 19.167 -13.9375 19.1777 -24.3008
c0.0820312 -70.1611 -0.271484 -140.324 -1.01172 -210.48c5.96973 16.8955 13.377 33.6826 25.5742 47.0576c6.75195 7.40527 13.2178 12.4834 23.6367 10.7695c9.06836 -1.49121 18.1094 -7.25391 24.9902 -14.0752c13.96 60.626 27.6221 121.343 56.6367 176.788
c7.99023 15.2715 18.3271 38.4033 38.0273 40.1328c12.7822 1.12012 25.1504 -6.95215 33.832 -15.5889c11.2617 -11.2061 16.2627 -25.8945 19.2656 -41.1387c9.05664 -45.9756 8.84766 -94.3271 9.12109 -140.984c0.673828 -114.967 -4.97559 -230.156 -12.9834 -344.823
c-1.00488 -14.4062 -41.6416 9.63672 -40.5947 24.623c3.8877 55.6504 6.90137 111.364 9.19922 167.101c2.38965 57.9414 4.04785 115.945 3.80371 173.94c-0.182617 43.3818 -0.0117188 88.2812 -7.11719 130.858c-2.16895 -3.16504 -4.07129 -6.50293 -5.80078 -9.42773
c-10.4814 -17.7334 -19.2275 -36.4941 -26.6152 -55.7119c-29.5771 -76.9287 -38.4092 -159.972 -64.875 -237.892c-5.56934 -16.4004 -42.4453 11.3525 -40.5938 24.623c2.65625 19.04 4.20801 38.1846 4.38184 57.4141
c0.00683594 0.90918 -0.0224609 1.81641 -0.0205078 2.72559c-5.56934 -10.3789 -9.63477 -21.418 -13.126 -32.6572c-8.40527 -27.0635 -14.1328 -54.9004 -18.8574 -82.8174c-9.99023 -59.0264 -17.2891 -118.588 -23.4473 -178.123
c-1.0332 -10.0039 -17.2197 -2.20703 -21.416 0.322266zM258.963 469.651c0.728516 -0.675781 1.9043 -1.03223 2.77734 0.746094c-0.0595703 -0.124023 -1.39746 -0.428711 -2.77734 -0.746094z" />
    <glyph glyph-name="N" unicode="N" 
d="M194.851 389.754c7.70996 -132.609 -3.76172 -265.91 -5.82617 -398.526c-0.158203 -10.126 -17.8184 -1.84668 -21.417 0.322266c-7.95898 4.7959 -19.3379 13.9932 -19.1777 24.3008c1.05762 67.8809 4.10059 135.694 6.1123 203.546
c1.79102 60.4014 2.40234 120.836 0.286133 181.24c-0.489258 13.8994 -0.849609 27.9814 -4.89258 41.3965c-0.604492 -0.308594 -1.00879 -0.521484 -1.05566 -0.556641c-2.79395 -2.11133 -5.20312 -5.03613 -7.36328 -7.76074
c-17.9092 -22.5898 -29.1045 -51.0361 -37.2764 -78.3936c-17.9404 -60.0527 -23.6475 -123.953 -29.0928 -186.146c-5.7207 -65.3184 -8.90332 -131.041 -6.7832 -196.607c0.329102 -10.1523 -18.1338 -1.65527 -21.416 0.323242
c-8.76562 5.2832 -18.04 13.6602 -19.1777 24.3018c-8.20996 76.7861 -6.59863 154.69 -7.87695 231.816c-1.29785 78.2441 -2.59375 156.49 -3.8916 234.734c-0.168945 10.1484 18.0312 1.71875 21.416 -0.321289c8.17188 -4.9248 19.0049 -13.8857 19.1787 -24.3008
c0.435547 -26.3789 0.873047 -52.7559 1.31055 -79.1328c6.37402 25.6816 14.8975 50.6895 26.8945 74.2617c7.10547 13.96 15.4131 30.0068 28.3174 39.4502c12.3037 9.00586 26.377 6.76562 39.0186 -0.413086c30.8379 -17.5117 40.7793 -50.2852 42.7129 -83.5342z
M156.484 445.159c0.768555 -0.477539 1.33789 -0.449219 1.56934 0.439453c0.046875 0.182617 -0.604492 -0.0351562 -1.56934 -0.439453z" />
    <glyph glyph-name="O" unicode="O" horiz-adv-x="213" 
d="M79.6406 518.804c7.08496 11.793 46.6152 -16.6416 38.5273 -30.1016c-4.0918 -6.80957 -7.94531 -13.7656 -11.5771 -20.8467c35.3809 -21.9033 58.3574 -60.1621 72.7549 -99.4854c18.2383 -49.8203 26.9219 -103.272 26.3711 -156.291
c-0.5 -47.9893 -8.8457 -95.9297 -25.0527 -141.12c-7.58984 -21.167 -16.3955 -42.1787 -29.1729 -60.7988c-10.6279 -15.4863 -25.7812 -34.4893 -46.1641 -35.5254c-25.2969 -1.28711 -48.1289 21.4229 -60.0195 41.541
c-12.7666 21.6025 -18.7188 47.3418 -23.1279 71.7852c-10.7842 59.7793 -13.291 122.199 -9.55078 182.783c5.23633 84.8076 22.8232 174.505 67.0117 248.06zM83.626 3.98828c0.895508 -0.664062 1.74512 -1.10254 0 0zM145.887 367.319
c-8.48145 27.0996 -20.1377 67.8887 -49.0371 80.0234c-28.2197 -64.0732 -40.1055 -136.546 -43.8701 -205.446c-2.91406 -53.3291 -1.13379 -107.846 7.16504 -160.64c1.95605 -12.4326 4.32715 -24.8145 7.4502 -37.0098
c2.31348 -9.03711 6.31641 -21.8193 9.12598 -28.0088c0.975586 -2.14941 2.02246 -4.26953 3.14258 -6.34961c2.19629 0.339844 4.33398 0.90918 7.10742 2.51855c16.2002 9.40332 28.1572 29.6064 36.71 45.6377c9.83496 18.4336 17.165 38.1699 23.1787 58.1436
c12.3242 40.9277 18.4229 83.6963 18.292 126.431c-0.128906 42.2861 -6.63379 84.3408 -19.2646 124.7z" />
    <glyph glyph-name="O" unicode="&#xd6;" horiz-adv-x="213" 
d="M79.6406 518.804c7.08496 11.793 46.6152 -16.6416 38.5273 -30.1016c-4.0918 -6.80957 -7.94531 -13.7656 -11.5771 -20.8467c35.3809 -21.9033 58.3574 -60.1621 72.7549 -99.4854c18.2383 -49.8203 26.9219 -103.272 26.3711 -156.291
c-0.5 -47.9893 -8.8457 -95.9297 -25.0527 -141.12c-7.58984 -21.167 -16.3955 -42.1787 -29.1729 -60.7988c-10.6279 -15.4863 -25.7812 -34.4893 -46.1641 -35.5254c-25.2969 -1.28711 -48.1289 21.4229 -60.0195 41.541
c-12.7666 21.6025 -18.7188 47.3418 -23.1279 71.7852c-10.7842 59.7793 -13.291 122.199 -9.55078 182.783c5.23633 84.8076 22.8232 174.505 67.0117 248.06zM83.626 3.98828c0.895508 -0.664062 1.74512 -1.10254 0 0zM145.887 367.319
c-8.48145 27.0996 -20.1377 67.8887 -49.0371 80.0234c-28.2197 -64.0732 -40.1055 -136.546 -43.8701 -205.446c-2.91406 -53.3291 -1.13379 -107.846 7.16504 -160.64c1.95605 -12.4326 4.32715 -24.8145 7.4502 -37.0098
c2.31348 -9.03711 6.31641 -21.8193 9.12598 -28.0088c0.975586 -2.14941 2.02246 -4.26953 3.14258 -6.34961c2.19629 0.339844 4.33398 0.90918 7.10742 2.51855c16.2002 9.40332 28.1572 29.6064 36.71 45.6377c9.83496 18.4336 17.165 38.1699 23.1787 58.1436
c12.3242 40.9277 18.4229 83.6963 18.292 126.431c-0.128906 42.2861 -6.63379 84.3408 -19.2646 124.7z" />
    <glyph glyph-name="O" unicode="&#xd5;" horiz-adv-x="213" 
d="M79.6406 518.804c7.08496 11.793 46.6152 -16.6416 38.5273 -30.1016c-4.0918 -6.80957 -7.94531 -13.7656 -11.5771 -20.8467c35.3809 -21.9033 58.3574 -60.1621 72.7549 -99.4854c18.2383 -49.8203 26.9219 -103.272 26.3711 -156.291
c-0.5 -47.9893 -8.8457 -95.9297 -25.0527 -141.12c-7.58984 -21.167 -16.3955 -42.1787 -29.1729 -60.7988c-10.6279 -15.4863 -25.7812 -34.4893 -46.1641 -35.5254c-25.2969 -1.28711 -48.1289 21.4229 -60.0195 41.541
c-12.7666 21.6025 -18.7188 47.3418 -23.1279 71.7852c-10.7842 59.7793 -13.291 122.199 -9.55078 182.783c5.23633 84.8076 22.8232 174.505 67.0117 248.06zM83.626 3.98828c0.895508 -0.664062 1.74512 -1.10254 0 0zM145.887 367.319
c-8.48145 27.0996 -20.1377 67.8887 -49.0371 80.0234c-28.2197 -64.0732 -40.1055 -136.546 -43.8701 -205.446c-2.91406 -53.3291 -1.13379 -107.846 7.16504 -160.64c1.95605 -12.4326 4.32715 -24.8145 7.4502 -37.0098
c2.31348 -9.03711 6.31641 -21.8193 9.12598 -28.0088c0.975586 -2.14941 2.02246 -4.26953 3.14258 -6.34961c2.19629 0.339844 4.33398 0.90918 7.10742 2.51855c16.2002 9.40332 28.1572 29.6064 36.71 45.6377c9.83496 18.4336 17.165 38.1699 23.1787 58.1436
c12.3242 40.9277 18.4229 83.6963 18.292 126.431c-0.128906 42.2861 -6.63379 84.3408 -19.2646 124.7z" />
    <glyph glyph-name="O" unicode="&#xd4;" horiz-adv-x="213" 
d="M79.6406 518.804c7.08496 11.793 46.6152 -16.6416 38.5273 -30.1016c-4.0918 -6.80957 -7.94531 -13.7656 -11.5771 -20.8467c35.3809 -21.9033 58.3574 -60.1621 72.7549 -99.4854c18.2383 -49.8203 26.9219 -103.272 26.3711 -156.291
c-0.5 -47.9893 -8.8457 -95.9297 -25.0527 -141.12c-7.58984 -21.167 -16.3955 -42.1787 -29.1729 -60.7988c-10.6279 -15.4863 -25.7812 -34.4893 -46.1641 -35.5254c-25.2969 -1.28711 -48.1289 21.4229 -60.0195 41.541
c-12.7666 21.6025 -18.7188 47.3418 -23.1279 71.7852c-10.7842 59.7793 -13.291 122.199 -9.55078 182.783c5.23633 84.8076 22.8232 174.505 67.0117 248.06zM83.626 3.98828c0.895508 -0.664062 1.74512 -1.10254 0 0zM145.887 367.319
c-8.48145 27.0996 -20.1377 67.8887 -49.0371 80.0234c-28.2197 -64.0732 -40.1055 -136.546 -43.8701 -205.446c-2.91406 -53.3291 -1.13379 -107.846 7.16504 -160.64c1.95605 -12.4326 4.32715 -24.8145 7.4502 -37.0098
c2.31348 -9.03711 6.31641 -21.8193 9.12598 -28.0088c0.975586 -2.14941 2.02246 -4.26953 3.14258 -6.34961c2.19629 0.339844 4.33398 0.90918 7.10742 2.51855c16.2002 9.40332 28.1572 29.6064 36.71 45.6377c9.83496 18.4336 17.165 38.1699 23.1787 58.1436
c12.3242 40.9277 18.4229 83.6963 18.292 126.431c-0.128906 42.2861 -6.63379 84.3408 -19.2646 124.7z" />
    <glyph glyph-name="O" unicode="&#xd3;" horiz-adv-x="213" 
d="M79.6406 518.804c7.08496 11.793 46.6152 -16.6416 38.5273 -30.1016c-4.0918 -6.80957 -7.94531 -13.7656 -11.5771 -20.8467c35.3809 -21.9033 58.3574 -60.1621 72.7549 -99.4854c18.2383 -49.8203 26.9219 -103.272 26.3711 -156.291
c-0.5 -47.9893 -8.8457 -95.9297 -25.0527 -141.12c-7.58984 -21.167 -16.3955 -42.1787 -29.1729 -60.7988c-10.6279 -15.4863 -25.7812 -34.4893 -46.1641 -35.5254c-25.2969 -1.28711 -48.1289 21.4229 -60.0195 41.541
c-12.7666 21.6025 -18.7188 47.3418 -23.1279 71.7852c-10.7842 59.7793 -13.291 122.199 -9.55078 182.783c5.23633 84.8076 22.8232 174.505 67.0117 248.06zM83.626 3.98828c0.895508 -0.664062 1.74512 -1.10254 0 0zM145.887 367.319
c-8.48145 27.0996 -20.1377 67.8887 -49.0371 80.0234c-28.2197 -64.0732 -40.1055 -136.546 -43.8701 -205.446c-2.91406 -53.3291 -1.13379 -107.846 7.16504 -160.64c1.95605 -12.4326 4.32715 -24.8145 7.4502 -37.0098
c2.31348 -9.03711 6.31641 -21.8193 9.12598 -28.0088c0.975586 -2.14941 2.02246 -4.26953 3.14258 -6.34961c2.19629 0.339844 4.33398 0.90918 7.10742 2.51855c16.2002 9.40332 28.1572 29.6064 36.71 45.6377c9.83496 18.4336 17.165 38.1699 23.1787 58.1436
c12.3242 40.9277 18.4229 83.6963 18.292 126.431c-0.128906 42.2861 -6.63379 84.3408 -19.2646 124.7z" />
    <glyph glyph-name="P" unicode="P" horiz-adv-x="182" 
d="M56.0117 -59.7939c-7.9209 4.77441 -19.3975 14.0146 -19.1816 24.3027c1.98047 93.4199 4.88281 186.817 8.64355 280.182c-15.2041 4.2002 -34.9492 25.374 -27.4258 31.3457c9.94141 7.88965 19.8848 15.7881 29.7461 23.7871
c1.61816 36.7607 3.35645 73.5146 5.25195 110.262c-4.94531 -4.33594 -9.04785 -9.53027 -11.7969 -15.8643c-4.8877 -11.2637 -45.0801 15.0107 -38.5303 30.1035c8.62109 19.8652 30.6846 30.9463 53.0518 36.8623c0.102539 1.87402 0.196289 3.74512 0.298828 5.61914
c0.560547 10.0811 17.5518 2.00879 21.4189 -0.322266c0.428711 -0.257812 0.87793 -0.538086 1.33105 -0.827148c3.24512 0.421875 6.38965 0.757812 9.37891 1.00684c36.3965 3.03418 77.4043 -17.6709 93.3154 -51.416
c17.2334 -36.5498 -9.9707 -68.25 -34.6982 -92.4668c-18.6006 -18.2158 -38.4121 -35.0977 -58.5996 -51.5195c-4.83203 -110.413 -8.44629 -220.88 -10.7891 -331.377c-0.212891 -10.1211 -17.7793 -1.86914 -21.415 0.322266zM95.96 428.966
c-1.67578 -30.7041 -3.24512 -61.416 -4.72754 -92.1338c0.233398 0.210938 0.47168 0.417969 0.705078 0.630859c19.7646 18.0156 47.6328 40.0322 53.3848 67.6406c1.39355 6.6875 1.81836 20.7783 -2.64941 24.0459c-9.33203 6.82324 -27.8037 3.63184 -38.0869 1.62695
c-2.80469 -0.546875 -5.69629 -1.14648 -8.62598 -1.81055z" />
    <glyph glyph-name="Q" unicode="Q" horiz-adv-x="213" 
d="M179.345 368.367c18.2383 -49.8203 26.9248 -103.273 26.376 -156.29c-0.5 -47.9893 -8.8457 -95.9287 -25.0527 -141.119c-7.58984 -21.167 -16.3955 -42.1787 -29.1729 -60.7988c-1.60059 -2.3291 -3.31445 -4.73828 -5.11914 -7.1543
c8.71875 -29.6465 16.8154 -59.4775 24.2295 -89.4883c2.64258 -10.6943 -9.66992 -8.57812 -15.7666 -5.93359c-9.40527 4.08301 -21.4385 13.0488 -24.0371 23.5654c-3.87207 15.6689 -7.94336 31.2842 -12.1709 46.8555
c-4.16504 -1.89551 -8.58594 -3.12891 -13.3018 -3.36914c-25.2969 -1.28711 -48.1289 21.4229 -60.0195 41.541c-12.7686 21.6025 -18.7207 47.3418 -23.1299 71.7852c-10.7842 59.7793 -13.291 122.199 -9.55078 182.783c5.23438 84.8076 22.8213 174.505 67.0098 248.06
c7.08301 11.793 46.6152 -16.6416 38.5293 -30.1016c-4.08984 -6.8125 -7.94629 -13.7686 -11.5781 -20.8496c35.3809 -21.9033 58.3574 -60.1621 72.7549 -99.4854zM83.626 3.9873c0.893555 -0.664062 1.74512 -1.10254 0 0zM146.857 116.187
c12.3262 40.9277 18.4229 83.6943 18.2891 126.429c-0.128906 42.2861 -6.63184 84.3408 -19.2646 124.7c-8.48145 27.0996 -20.1387 67.8896 -49.0361 80.0244c-28.2197 -64.0732 -40.1055 -136.546 -43.8701 -205.446
c-2.91406 -53.3291 -1.13379 -107.846 7.16504 -160.64c1.9541 -12.4326 4.32812 -24.8145 7.45117 -37.0098c2.31348 -9.03711 6.31641 -21.8193 9.12598 -28.0088c0.975586 -2.14941 2.02246 -4.26953 3.14258 -6.34961c2.19824 0.339844 4.33594 0.90918 7.10742 2.51855
c6.48047 3.7627 12.2725 9.26562 17.4492 15.5264c-6.49219 21.79 -13.3223 43.4795 -20.5166 65.0557c-3.58301 10.7441 10.374 8.27539 15.7656 5.93555c9.97656 -4.3291 20.5068 -12.9814 24.0361 -23.5654c1.16895 -3.50293 2.30273 -7.01855 3.4541 -10.5283
c8.11914 16.4531 14.418 33.8135 19.7012 51.3584z" />
    <glyph glyph-name="R" unicode="R" horiz-adv-x="210" 
d="M163.904 -18.6572c-8.0127 4.8291 -19.252 13.9658 -19.1699 24.3027c0.977539 132.616 16.1396 265.537 5.21191 398.077c-0.710938 8.62109 -1.12207 17.6914 -2.5752 26.4463c-4.64551 -3.125 -8.93066 -6.9541 -13.125 -10.6143
c-10.793 -9.4209 -21.6162 -20.8555 -33.6064 -30.1699c1.18652 -16.9111 0.915039 -34.0049 0.683594 -50.8584c-0.953125 -69.5205 -5.77637 -139.034 -11.0176 -208.342c-3.65137 -48.2598 -6.62695 -96.9199 -13.0566 -144.918
c-2.00879 -15.0088 -42.5615 9.94824 -40.5947 24.624c7.0166 52.3779 10.1729 105.517 14.0469 158.19c4.77148 64.9023 9.13184 129.98 10.0254 195.069c0.0419922 3.15137 0.0771484 6.30273 0.0966797 9.4541c-22.6367 0.177734 -44.2246 17.9443 -54.5859 37.2627
c-9.85645 18.3799 -11.4854 44.6768 6.85938 58.4609c21.9922 16.5225 51.0693 0.506836 66.3955 -17.7334c2.48926 -2.96289 4.76074 -6.12598 6.82324 -9.42871c0.482422 0.442383 0.964844 0.888672 1.44727 1.33105c9.19922 8.41211 18.792 17.627 29.8535 23.583
c11.79 6.34961 24.7314 3.49316 35.8438 -2.9873c24.5215 -14.3037 32.4561 -37.9111 35.2539 -64.501c2.77148 -26.3262 4.27344 -52.7764 5.01562 -79.2314c3.16504 -112.871 -7.57617 -225.518 -8.40723 -338.34c-0.0751953 -10.1328 -17.873 -1.81348 -21.418 0.322266z
M40.0889 407.964c2.60059 0.775391 5.10547 1.95605 7.54395 3.14062c4.21582 2.05371 8.18555 4.4834 11.9932 7.18359c-0.102539 1.27344 -0.200195 2.54883 -0.322266 3.82031c-0.115234 1.19824 -0.0976562 1.27148 -0.078125 1.20215
c-0.03125 0.166992 -0.109375 0.628906 -0.289062 1.7998c-0.456055 2.95605 -0.966797 5.87012 -1.74219 8.76172c-0.522461 1.94434 -1.25391 3.78027 -2.01855 5.59375c-8.0459 -3.6582 -13.6826 -10.0898 -15.2314 -19.4092
c-0.668945 -4.02734 -0.651367 -8.10742 0.144531 -12.0928z" />
    <glyph glyph-name="S" unicode="S" horiz-adv-x="186" 
d="M180.779 47.2363c3.78711 -28.3682 4.9668 -62.3848 -11.8398 -87.2441c-16.9092 -25.0039 -46.5176 -25.3711 -70.8232 -11.3428c-26.7588 15.4443 -45.2529 43.1104 -49.6182 73.5898c-4.52246 31.584 4.38086 61.7881 13.833 91.6123
c5.05859 15.958 44.7998 -11.3633 40.5947 -24.623c-10.208 -32.2041 -22.5586 -69.3535 -10.3701 -102.796c1.71582 -4.70508 3.89355 -9.59473 7.22949 -13.3555c0.31543 -0.0664062 0.666992 -0.0976562 1.04883 -0.0507812
c3.29395 0.395508 5.87207 0.0195312 9.17285 0.979492c14.6777 4.26758 24.0127 18.7852 28.042 32.7178c8.94336 30.9424 3.24512 64.4229 -4.20703 95.0156c-6.94336 28.502 -16.6738 56.3857 -28.7041 83.1318c-25.8418 57.4502 -64.6406 107.56 -91.251 164.443
c-11.5723 24.7393 -20.2109 52.2588 -11.0342 79.1865c7.69043 22.5674 24.5791 41.3252 46.5352 50.8848c28.9443 12.6016 60.6045 4.75781 83.0947 -16.667c19.2334 -18.3223 40.3271 -48.9199 35.3242 -76.8145c-2.75391 -15.3506 -43.1777 10.2354 -40.5947 24.624
c2.58887 14.4395 -3.97168 28.5078 -13.2061 39.54c-0.470703 0 -1.27344 0.331055 -2.44043 1.03125c-3.21582 -0.771484 -7.67383 0.310547 -11.0811 -0.111328c-5.96973 -0.740234 -11.8906 -2.64258 -17.3828 -5.03418
c-24.6123 -10.7168 -42.915 -36.2451 -43.6729 -63.2578c-0.824219 -29.4395 17.8516 -58.1904 32.1777 -82.5938c15.3242 -26.1035 31.9199 -51.4385 46.502 -77.9824c29.6641 -54.001 54.4678 -113.429 62.6709 -174.884zM99.6816 -26.8926
c-2.23145 2.13574 -1.73145 0.44043 0 0z" />
    <glyph glyph-name="T" unicode="T" horiz-adv-x="182" 
d="M183.11 454.372c4.03125 -5.25586 8.86133 -16.6475 -1.94727 -16.7295c-22.0605 -0.170898 -44.3389 -0.219727 -66.3105 -2.73535c0.228516 -5.64551 1.00391 -11.5283 1.03906 -14.4756c0.115234 -9.55469 0.228516 -19.1113 0.339844 -28.666
c0.240234 -20.5811 0.46875 -41.1621 0.688477 -61.7432c0.4375 -41.1611 0.833008 -82.3223 1.18457 -123.485c0.704102 -82.3242 1.2334 -164.651 1.59766 -246.979c0.0449219 -10.1416 -17.9512 -1.76758 -21.416 0.321289
c-8.0918 4.87598 -19.1309 13.9258 -19.1777 24.3008c-0.416016 94.0889 -1.0498 188.175 -1.91016 282.261c-0.428711 47.042 -0.915039 94.084 -1.45703 141.126c-0.0732422 6.40527 -0.151367 12.8125 -0.226562 19.2178
c-15.7197 -4.82031 -30.9131 -11.0479 -46.5215 -16.9551c-14.1016 -5.33887 -47.5352 28.1992 -33.7109 33.4307c25.6455 9.70996 50.0713 19.9287 77.4131 24.0156c0.580078 0.0869141 1.16211 0.149414 1.74219 0.233398
c0.257812 2.40527 0.731445 4.66309 1.55566 6.64551c4.66992 11.2217 19.6143 6.03906 30.8535 -3.45801c15.8291 0.944336 31.7051 1.17578 47.585 1.29785c10.7061 0.0820312 22.625 -9.72852 28.6787 -17.623z" />
    <glyph glyph-name="U" unicode="U" horiz-adv-x="210" 
d="M174.992 485.839c7.90332 -4.7627 19.4209 -14.0234 19.1768 -24.2979c-4.14062 -164.721 -10.8789 -329.424 -10.2725 -494.225c0.0351562 -10.1416 -17.9473 -1.76953 -21.4189 0.322266c-8.08789 4.87402 -19.1406 13.9287 -19.1787 24.3008
c-0.0556641 15.6309 -0.0292969 31.2617 0.0371094 46.8906c-2.93848 -11.0146 -6.24121 -21.918 -10.1064 -32.6104c-5.44727 -15.0732 -13.124 -39.4629 -30.6152 -44.9102c-25.1631 -7.83887 -50.5576 22.7295 -59.332 42.6924
c-12.4287 28.2793 -16.1777 60.0967 -19.5557 90.5098c-4.64941 41.8682 -6.46777 84.041 -7.24805 126.143c-1.57129 84.7715 0.588867 170.034 8.43848 254.481c1.3623 14.6396 41.9814 -9.73438 40.5967 -24.623c-8.4502 -90.9033 -10.5547 -182.827 -7.98535 -274.06
c1.08203 -38.4902 2.9248 -77.1484 7.87695 -115.358c1.94434 -15.0039 4.32031 -29.9971 7.84277 -44.7168c1.21387 -5.06738 2.57422 -10.1035 4.16113 -15.0664c0.599609 0.740234 1.18652 1.49609 1.74707 2.26953c13.0176 17.9248 18.7646 41.6797 24.2139 62.7402
c18.6426 72.041 27.6709 146.854 35.6094 220.706c7.10352 66.1025 13.0176 132.641 14.5938 199.134c0.255859 10.1172 17.7559 1.88477 21.4189 -0.322266zM68.542 -5.17285c-0.00878906 -0.139648 0.243164 -0.204102 0.87207 -0.00390625
c0.25293 -0.00683594 0.448242 -0.0205078 0.472656 -0.0449219c-0.0380859 0.0400391 -0.0761719 0.046875 -0.116211 0.0800781c-0.0664062 0.00195312 -0.139648 0.00390625 -0.212891 0.00585938c0.046875 0.015625 0.0849609 0.0263672 0.135742 0.0458984
c-0.555664 0.404297 -1.11133 0.144531 -1.1582 -0.0683594c-0.182617 -0.00878906 -0.34082 -0.0107422 -0.544922 -0.0283203c0.0556641 0.00488281 0.280273 0.0117188 0.551758 0.0136719zM84.0225 -14.3164c1.14648 -1.29785 2.74219 -2.66016 -0.0712891 0.12207
c0.0244141 -0.0400391 0.046875 -0.0820312 0.0712891 -0.12207z" />
    <glyph glyph-name="U" unicode="&#xdc;" horiz-adv-x="210" 
d="M174.992 485.839c7.90332 -4.7627 19.4209 -14.0234 19.1768 -24.2979c-4.14062 -164.721 -10.8789 -329.424 -10.2725 -494.225c0.0351562 -10.1416 -17.9473 -1.76953 -21.4189 0.322266c-8.08789 4.87402 -19.1406 13.9287 -19.1787 24.3008
c-0.0556641 15.6309 -0.0292969 31.2617 0.0371094 46.8906c-2.93848 -11.0146 -6.24121 -21.918 -10.1064 -32.6104c-5.44727 -15.0732 -13.124 -39.4629 -30.6152 -44.9102c-25.1631 -7.83887 -50.5576 22.7295 -59.332 42.6924
c-12.4287 28.2793 -16.1777 60.0967 -19.5557 90.5098c-4.64941 41.8682 -6.46777 84.041 -7.24805 126.143c-1.57129 84.7715 0.588867 170.034 8.43848 254.481c1.3623 14.6396 41.9814 -9.73438 40.5967 -24.623c-8.4502 -90.9033 -10.5547 -182.827 -7.98535 -274.06
c1.08203 -38.4902 2.9248 -77.1484 7.87695 -115.358c1.94434 -15.0039 4.32031 -29.9971 7.84277 -44.7168c1.21387 -5.06738 2.57422 -10.1035 4.16113 -15.0664c0.599609 0.740234 1.18652 1.49609 1.74707 2.26953c13.0176 17.9248 18.7646 41.6797 24.2139 62.7402
c18.6426 72.041 27.6709 146.854 35.6094 220.706c7.10352 66.1025 13.0176 132.641 14.5938 199.134c0.255859 10.1172 17.7559 1.88477 21.4189 -0.322266zM68.542 -5.17285c-0.00878906 -0.139648 0.243164 -0.204102 0.87207 -0.00390625
c0.25293 -0.00683594 0.448242 -0.0205078 0.472656 -0.0449219c-0.0380859 0.0400391 -0.0761719 0.046875 -0.116211 0.0800781c-0.0664062 0.00195312 -0.139648 0.00390625 -0.212891 0.00585938c0.046875 0.015625 0.0849609 0.0263672 0.135742 0.0458984
c-0.555664 0.404297 -1.11133 0.144531 -1.1582 -0.0683594c-0.182617 -0.00878906 -0.34082 -0.0107422 -0.544922 -0.0283203c0.0556641 0.00488281 0.280273 0.0117188 0.551758 0.0136719zM84.0225 -14.3164c1.14648 -1.29785 2.74219 -2.66016 -0.0712891 0.12207
c0.0244141 -0.0400391 0.046875 -0.0820312 0.0712891 -0.12207z" />
    <glyph glyph-name="U" unicode="&#xdb;" horiz-adv-x="210" 
d="M174.992 485.839c7.90332 -4.7627 19.4209 -14.0234 19.1768 -24.2979c-4.14062 -164.721 -10.8789 -329.424 -10.2725 -494.225c0.0351562 -10.1416 -17.9473 -1.76953 -21.4189 0.322266c-8.08789 4.87402 -19.1406 13.9287 -19.1787 24.3008
c-0.0556641 15.6309 -0.0292969 31.2617 0.0371094 46.8906c-2.93848 -11.0146 -6.24121 -21.918 -10.1064 -32.6104c-5.44727 -15.0732 -13.124 -39.4629 -30.6152 -44.9102c-25.1631 -7.83887 -50.5576 22.7295 -59.332 42.6924
c-12.4287 28.2793 -16.1777 60.0967 -19.5557 90.5098c-4.64941 41.8682 -6.46777 84.041 -7.24805 126.143c-1.57129 84.7715 0.588867 170.034 8.43848 254.481c1.3623 14.6396 41.9814 -9.73438 40.5967 -24.623c-8.4502 -90.9033 -10.5547 -182.827 -7.98535 -274.06
c1.08203 -38.4902 2.9248 -77.1484 7.87695 -115.358c1.94434 -15.0039 4.32031 -29.9971 7.84277 -44.7168c1.21387 -5.06738 2.57422 -10.1035 4.16113 -15.0664c0.599609 0.740234 1.18652 1.49609 1.74707 2.26953c13.0176 17.9248 18.7646 41.6797 24.2139 62.7402
c18.6426 72.041 27.6709 146.854 35.6094 220.706c7.10352 66.1025 13.0176 132.641 14.5938 199.134c0.255859 10.1172 17.7559 1.88477 21.4189 -0.322266zM68.542 -5.17285c-0.00878906 -0.139648 0.243164 -0.204102 0.87207 -0.00390625
c0.25293 -0.00683594 0.448242 -0.0205078 0.472656 -0.0449219c-0.0380859 0.0400391 -0.0761719 0.046875 -0.116211 0.0800781c-0.0664062 0.00195312 -0.139648 0.00390625 -0.212891 0.00585938c0.046875 0.015625 0.0849609 0.0263672 0.135742 0.0458984
c-0.555664 0.404297 -1.11133 0.144531 -1.1582 -0.0683594c-0.182617 -0.00878906 -0.34082 -0.0107422 -0.544922 -0.0283203c0.0556641 0.00488281 0.280273 0.0117188 0.551758 0.0136719zM84.0225 -14.3164c1.14648 -1.29785 2.74219 -2.66016 -0.0712891 0.12207
c0.0244141 -0.0400391 0.046875 -0.0820312 0.0712891 -0.12207z" />
    <glyph glyph-name="U" unicode="&#xda;" horiz-adv-x="210" 
d="M174.992 485.839c7.90332 -4.7627 19.4209 -14.0234 19.1768 -24.2979c-4.14062 -164.721 -10.8789 -329.424 -10.2725 -494.225c0.0351562 -10.1416 -17.9473 -1.76953 -21.4189 0.322266c-8.08789 4.87402 -19.1406 13.9287 -19.1787 24.3008
c-0.0556641 15.6309 -0.0292969 31.2617 0.0371094 46.8906c-2.93848 -11.0146 -6.24121 -21.918 -10.1064 -32.6104c-5.44727 -15.0732 -13.124 -39.4629 -30.6152 -44.9102c-25.1631 -7.83887 -50.5576 22.7295 -59.332 42.6924
c-12.4287 28.2793 -16.1777 60.0967 -19.5557 90.5098c-4.64941 41.8682 -6.46777 84.041 -7.24805 126.143c-1.57129 84.7715 0.588867 170.034 8.43848 254.481c1.3623 14.6396 41.9814 -9.73438 40.5967 -24.623c-8.4502 -90.9033 -10.5547 -182.827 -7.98535 -274.06
c1.08203 -38.4902 2.9248 -77.1484 7.87695 -115.358c1.94434 -15.0039 4.32031 -29.9971 7.84277 -44.7168c1.21387 -5.06738 2.57422 -10.1035 4.16113 -15.0664c0.599609 0.740234 1.18652 1.49609 1.74707 2.26953c13.0176 17.9248 18.7646 41.6797 24.2139 62.7402
c18.6426 72.041 27.6709 146.854 35.6094 220.706c7.10352 66.1025 13.0176 132.641 14.5938 199.134c0.255859 10.1172 17.7559 1.88477 21.4189 -0.322266zM68.542 -5.17285c-0.00878906 -0.139648 0.243164 -0.204102 0.87207 -0.00390625
c0.25293 -0.00683594 0.448242 -0.0205078 0.472656 -0.0449219c-0.0380859 0.0400391 -0.0761719 0.046875 -0.116211 0.0800781c-0.0664062 0.00195312 -0.139648 0.00390625 -0.212891 0.00585938c0.046875 0.015625 0.0849609 0.0263672 0.135742 0.0458984
c-0.555664 0.404297 -1.11133 0.144531 -1.1582 -0.0683594c-0.182617 -0.00878906 -0.34082 -0.0107422 -0.544922 -0.0283203c0.0556641 0.00488281 0.280273 0.0117188 0.551758 0.0136719zM84.0225 -14.3164c1.14648 -1.29785 2.74219 -2.66016 -0.0712891 0.12207
c0.0244141 -0.0400391 0.046875 -0.0820312 0.0712891 -0.12207z" />
    <glyph glyph-name="V" unicode="V" horiz-adv-x="204" 
d="M109.975 45.8516c1.63574 10.7881 3.16992 21.5859 4.69922 32.3916c10.1748 72.043 19.4629 144.233 27.4482 216.555c4.14453 37.5566 7.99414 75.1709 10.6123 112.869c0.984375 14.1934 1.81152 28.4062 2.10742 42.6328
c0.12207 5.91406 0.162109 11.833 -0.0263672 17.7451c-0.0712891 2.23633 -0.202148 4.46582 -0.326172 6.69922c-0.0507812 0.964844 -0.150391 1.9248 -0.232422 2.88672c-0.00683594 0.0507812 -0.0136719 0.0820312 -0.0205078 0.137695
c-1.38281 10.4834 8.68066 9.00977 15.7656 5.93359c8.60352 -3.7334 22.6836 -13.2988 24.0371 -23.5645c3.52539 -26.7217 0.933594 -54.3896 -0.995117 -81.1309c-2.98242 -41.3701 -7.33594 -82.6445 -12.0078 -123.853
c-7.82812 -69.0469 -16.7314 -137.989 -26.5127 -206.788c-3.64941 -25.6729 -5.7168 -53.6816 -16.9785 -77.2119c-6.77441 -14.1533 -16.0977 -21.8389 -32.1514 -14.8887c-15.5352 6.72363 -27.8232 20.9033 -35.3574 35.7852
c-5.4834 10.8262 -8.9502 21.9502 -10.9658 33.7803c-11.3057 66.3496 -17.5908 133.774 -25.4805 200.584c-9.5791 81.1201 -18.6562 162.322 -29.46 243.291c-1.40039 10.4883 8.69434 9.00391 15.7666 5.93457c8.61426 -3.73828 22.665 -13.2949 24.0361 -23.5654
c4.84082 -36.2871 9.22559 -72.6387 13.5771 -108.988c9.0791 -75.8105 17.7695 -151.668 27.0244 -227.458c3.48926 -28.584 6.9873 -57.1748 11.0303 -85.6875c1.20703 -8.5127 2.40918 -17.043 3.9668 -25.5c0.09375 -0.510742 0.196289 -1.01953 0.290039 -1.53027
c0.249023 0.604492 0.489258 1.19336 0.71582 1.74023c3.44727 8.34375 5.32715 17.3252 6.96973 26.1689c0.926758 4.99414 1.70508 10.0127 2.46777 15.0312zM107.477 -19.5352c2.36914 -4.28027 2.66895 -2.73633 0 0z" />
    <glyph glyph-name="W" unicode="W" horiz-adv-x="253" 
d="M77.3936 449.916c-11.4414 -45.3975 -16.9541 -91.9355 -19.6475 -138.615c-4.78027 -82.9355 -5.19336 -167.925 8.73535 -250.05c3.08887 -18.209 7.11133 -36.3623 13.6035 -53.6895c0.360352 -0.961914 0.776367 -1.89746 1.16113 -2.84863
c1.72266 2.91406 3.08496 6.03223 4.42969 9.13965c15.8799 36.6982 25.6279 76.1416 31.0596 115.676c2.13184 15.5088 41.6035 -10.5283 40.5947 -24.624c-2.66211 -37.2627 -3.53516 -75.5234 6.82227 -111.784c1.10254 -3.85645 2.47559 -7.54102 3.9248 -11.1885
c1.88867 1.77539 3.83984 3.51758 5.35352 5.80469c7.02344 10.6191 10.2725 23.6338 12.6865 36.0332c6.09668 31.3018 7.00098 63.8594 8.06348 95.6396c1.49609 44.7285 1.42676 89.5146 0.682617 134.259c-1.22656 73.5459 -1.84863 151.905 -12.0371 222.966
c-1.50684 10.5127 8.78125 8.96582 15.7666 5.93457c8.68359 -3.76953 22.5586 -13.2666 24.0342 -23.5654c5.80566 -40.499 7.61523 -81.6934 9.49512 -122.519c4.36914 -94.8379 6.99609 -190.72 0.501953 -285.52c-1.0957 -15.9795 -2.43848 -32.0303 -5.18359 -47.8232
c-3.73633 -21.5098 -11.8105 -58.9502 -38.6299 -60.9238c-19.2822 -1.41797 -38.0645 15.0332 -48.0146 30.0215c-4.79883 7.22949 -8.6123 15.248 -11.7129 23.5645c-0.351562 -0.897461 -0.689453 -1.80176 -1.04492 -2.69727
c-4.02734 -10.1523 -7.75195 -22.4004 -17.6621 -28.3633c-21.1162 -12.7041 -45.7822 13.6289 -55.6436 29.7578c-10.8086 17.6807 -17.832 37.875 -22.6992 57.9307c-10.7549 44.3125 -14.3955 90.9326 -16.3486 136.372
c-4.06738 94.5576 -2.11816 193.554 21.1143 285.735c3.96973 15.751 44.082 -10.7881 40.5947 -24.623z" />
    <glyph glyph-name="X" unicode="X" horiz-adv-x="198" 
d="M195.887 4.51855c1.38672 -2.97168 5.13672 -8.85742 0.335938 -1.79688c3.93652 -5.79004 9.0332 -15.9736 -1.94434 -16.7334c-10.1367 -0.700195 -23.3203 9.74609 -28.6787 17.623c-12.9951 19.1025 -19.6738 43.4746 -27.5576 64.9727
c-12.7598 34.8008 -25.0596 69.7744 -37.1016 104.839c-18.7607 -58.6484 -37.6475 -117.252 -56.9365 -175.729c-5.27148 -15.9844 -44.9277 11.4863 -40.5938 24.624c24.666 74.7725 48.6777 149.756 72.5967 224.771c-5.4873 16.416 -10.9482 32.8379 -16.3916 49.2646
c-19.5186 58.9121 -40.8574 117.974 -56.2324 178.155c-2.73633 10.7041 9.74121 8.55078 15.7666 5.93457c9.46387 -4.10742 21.3477 -13.0371 24.0371 -23.5654c6.70312 -26.2324 15.3418 -52.043 23.5566 -77.8262c8.48828 -26.6484 17.1494 -53.2412 25.8838 -79.8135
c18.9141 59.3525 37.8496 118.698 57.0791 177.951c5.18262 15.9736 44.875 -11.4346 40.5947 -24.623c-24.5986 -75.7969 -48.7148 -151.75 -72.9229 -227.674c8.85938 -26.2832 17.7832 -52.5469 26.8242 -78.7656c11.6035 -33.6494 23.3252 -67.2676 35.6582 -100.656
c4.16309 -11.2656 8.36816 -22.5225 12.8936 -33.6504c0.40918 -1.00684 0.827148 -2.01172 1.23828 -3.0166c0.625 -1.43164 1.23438 -2.86914 1.89453 -4.28516z" />
    <glyph glyph-name="Y" unicode="Y" horiz-adv-x="180" 
d="M144.931 465.847c12.8193 -57.5215 20.2559 -116.259 21.9541 -175.178c1.49805 -52.1094 -1.51562 -104.343 -9.02344 -155.93c-6.95898 -47.793 -16.3955 -96.7822 -37.5322 -140.582c-8.14551 -16.8799 -19.7695 -42.0234 -41.0654 -44.293
c-25.8281 -2.75195 -47.7402 22.4697 -56.1748 44.251c-17.8135 46.0068 -12.6465 97.1895 -3.75391 144.516c2.89551 15.4062 43.2881 -10.293 40.5967 -24.624c-4.5498 -24.208 -8.10547 -48.6963 -8.10547 -73.3799c0 -11.9971 0.824219 -23.9434 3.05762 -35.7432
c1.0332 -5.46289 2.58203 -10.6523 4.27148 -15.7861c2.91797 2.53613 5.44727 5.72363 7.66992 8.79785c5.50781 7.61426 9.98145 16.2217 14.1201 24.6318c9.2793 18.8604 15.9111 38.8145 21.1768 59.1328c11.0127 42.5127 17.4492 86.4609 21.2119 130.176
c5.5498 64.4863 4.02051 129.331 -4.39844 193.362c-10.8037 -16.6309 -24.8525 -29.7617 -43.9219 -30.9844c-23.3252 -1.49316 -44.7012 15.876 -56.6055 34.5234c-10.9775 17.1982 -16.1426 37.0322 -15.3203 57.375c0.40625 10.1016 17.6504 1.94727 21.415 -0.322266
c7.79395 -4.69824 19.5908 -14.084 19.1777 -24.3008c-0.31543 -7.80762 0.229492 -15.2178 2.24707 -22.7852c0.787109 -2.95605 1.73145 -5.88086 2.92676 -8.69434c0.0644531 -0.151367 0.182617 -0.364258 0.311523 -0.588867
c1.43359 0.166992 2.87402 0.325195 3.91211 0.71875c5.57617 2.11816 10.0371 5.64941 14.1729 9.87207c18.7002 19.0986 28.7549 45.3379 38.5137 69.7031c2.57324 6.42285 17.1016 -1.08496 20.3838 -3.06348c7.06055 -4.25586 16.875 -12.2432 18.7822 -20.8047z" />
    <glyph glyph-name="Y" unicode="&#x178;" horiz-adv-x="180" 
d="M144.931 465.847c12.8193 -57.5215 20.2559 -116.259 21.9541 -175.178c1.49805 -52.1094 -1.51562 -104.343 -9.02344 -155.93c-6.95898 -47.793 -16.3955 -96.7822 -37.5322 -140.582c-8.14551 -16.8799 -19.7695 -42.0234 -41.0654 -44.293
c-25.8281 -2.75195 -47.7402 22.4697 -56.1748 44.251c-17.8135 46.0068 -12.6465 97.1895 -3.75391 144.516c2.89551 15.4062 43.2881 -10.293 40.5967 -24.624c-4.5498 -24.208 -8.10547 -48.6963 -8.10547 -73.3799c0 -11.9971 0.824219 -23.9434 3.05762 -35.7432
c1.0332 -5.46289 2.58203 -10.6523 4.27148 -15.7861c2.91797 2.53613 5.44727 5.72363 7.66992 8.79785c5.50781 7.61426 9.98145 16.2217 14.1201 24.6318c9.2793 18.8604 15.9111 38.8145 21.1768 59.1328c11.0127 42.5127 17.4492 86.4609 21.2119 130.176
c5.5498 64.4863 4.02051 129.331 -4.39844 193.362c-10.8037 -16.6309 -24.8525 -29.7617 -43.9219 -30.9844c-23.3252 -1.49316 -44.7012 15.876 -56.6055 34.5234c-10.9775 17.1982 -16.1426 37.0322 -15.3203 57.375c0.40625 10.1016 17.6504 1.94727 21.415 -0.322266
c7.79395 -4.69824 19.5908 -14.084 19.1777 -24.3008c-0.31543 -7.80762 0.229492 -15.2178 2.24707 -22.7852c0.787109 -2.95605 1.73145 -5.88086 2.92676 -8.69434c0.0644531 -0.151367 0.182617 -0.364258 0.311523 -0.588867
c1.43359 0.166992 2.87402 0.325195 3.91211 0.71875c5.57617 2.11816 10.0371 5.64941 14.1729 9.87207c18.7002 19.0986 28.7549 45.3379 38.5137 69.7031c2.57324 6.42285 17.1016 -1.08496 20.3838 -3.06348c7.06055 -4.25586 16.875 -12.2432 18.7822 -20.8047z" />
    <glyph glyph-name="Y" unicode="&#xdd;" horiz-adv-x="180" 
d="M144.931 465.847c12.8193 -57.5215 20.2559 -116.259 21.9541 -175.178c1.49805 -52.1094 -1.51562 -104.343 -9.02344 -155.93c-6.95898 -47.793 -16.3955 -96.7822 -37.5322 -140.582c-8.14551 -16.8799 -19.7695 -42.0234 -41.0654 -44.293
c-25.8281 -2.75195 -47.7402 22.4697 -56.1748 44.251c-17.8135 46.0068 -12.6465 97.1895 -3.75391 144.516c2.89551 15.4062 43.2881 -10.293 40.5967 -24.624c-4.5498 -24.208 -8.10547 -48.6963 -8.10547 -73.3799c0 -11.9971 0.824219 -23.9434 3.05762 -35.7432
c1.0332 -5.46289 2.58203 -10.6523 4.27148 -15.7861c2.91797 2.53613 5.44727 5.72363 7.66992 8.79785c5.50781 7.61426 9.98145 16.2217 14.1201 24.6318c9.2793 18.8604 15.9111 38.8145 21.1768 59.1328c11.0127 42.5127 17.4492 86.4609 21.2119 130.176
c5.5498 64.4863 4.02051 129.331 -4.39844 193.362c-10.8037 -16.6309 -24.8525 -29.7617 -43.9219 -30.9844c-23.3252 -1.49316 -44.7012 15.876 -56.6055 34.5234c-10.9775 17.1982 -16.1426 37.0322 -15.3203 57.375c0.40625 10.1016 17.6504 1.94727 21.415 -0.322266
c7.79395 -4.69824 19.5908 -14.084 19.1777 -24.3008c-0.31543 -7.80762 0.229492 -15.2178 2.24707 -22.7852c0.787109 -2.95605 1.73145 -5.88086 2.92676 -8.69434c0.0644531 -0.151367 0.182617 -0.364258 0.311523 -0.588867
c1.43359 0.166992 2.87402 0.325195 3.91211 0.71875c5.57617 2.11816 10.0371 5.64941 14.1729 9.87207c18.7002 19.0986 28.7549 45.3379 38.5137 69.7031c2.57324 6.42285 17.1016 -1.08496 20.3838 -3.06348c7.06055 -4.25586 16.875 -12.2432 18.7822 -20.8047z" />
    <glyph glyph-name="Z" unicode="Z" horiz-adv-x="159" 
d="M43.7129 415.049c-7.7207 -11.835 -46.9668 17.1709 -38.5322 30.0996c20.4854 31.3906 62.3242 42.6543 92.3818 17.8682c17.2754 -14.2461 21.4541 -31.2354 15.3799 -52.1719c-2.45605 -8.46387 -5.7627 -16.7676 -9.43164 -24.7705
c-1.6377 -3.56934 -4.49609 -7.88281 -7.1123 -12.3105c2.53613 -1.58496 5.02344 -3.24512 7.40332 -5.03613c11.3701 -8.55859 20.918 -19.625 28.1055 -31.8818c14.0371 -23.9385 18.5469 -52.8223 19.6963 -80.1572
c2.35547 -56.0674 -7.66992 -114.044 -22.2812 -167.991c-6.73828 -24.8877 -14.1953 -50.4004 -26.0771 -73.3945c-10.4365 -20.1982 -27.2812 -47.0215 -53.3955 -35.7598c-28.4131 12.2529 -36.3545 39.3145 -38.2881 67.6113
c-1.91797 28.0703 1.82715 56.832 6.99414 84.3867c10.126 53.9941 29.0977 105.835 49.8184 156.549c4.54492 11.124 44.7881 -14.7842 38.5293 -30.1045c-25.1455 -61.5459 -47.2979 -125.335 -53.5635 -191.929c-1.31836 -13.9844 -2.17188 -28.1689 -1.27441 -42.2178
c13.5752 16.4648 21.4893 40.1016 27.5791 58.8799c18.1963 56.1123 29.4219 115.329 31.4023 174.34c0.900391 26.7969 -0.317383 55.7832 -11.0742 80.7871c-1.93164 4.49219 -4.57227 8.41504 -7.11035 12.5107
c-0.0175781 0.0292969 -0.03125 0.046875 -0.0488281 0.0761719c0.271484 -0.09375 0.558594 -0.171875 0.880859 -0.209961c-0.275391 0.03125 -0.583984 0.135742 -0.901367 0.242188c-2.66895 4.24512 -2.82031 1.27832 -0.395508 0.128906
c-0.411133 0.133789 -0.820312 0.238281 -1.18066 0.178711c-13.6553 -2.26465 -31.4707 13.0508 -37.665 23.1943c-7.89258 12.9238 2.15527 23.3301 8.00977 35.0986c4.82031 9.69238 9.44727 19.9785 12.0146 30.6396
c-1.30273 -0.498047 -2.58691 -1.0332 -3.84473 -1.59766c-11.0635 -4.9541 -19.4512 -12.9951 -26.0186 -23.0586z" />
    <glyph glyph-name="bracketleft" unicode="[" horiz-adv-x="193" 
d="M133.848 -40.4619c2.80273 -2.7959 15.4668 -18.542 5.4873 -20.6982c-13.335 -2.88965 -25.6162 -3.66992 -38.4531 1.78223c-11.7012 4.96973 -22.3008 14.0332 -29.708 24.2861c-13.6465 18.8848 -13.1445 43.9189 -14.916 66.1572
c-7.59668 95.333 -8.03906 191.188 -2.62012 286.65c2.75195 48.4844 7.00586 96.8818 12.6064 145.122c3.78906 32.6377 4.48438 78.3037 38.6777 94.8369c13.2266 6.39648 47.8359 -26.6016 33.7139 -33.4316c-14.9336 -7.2207 -21.5986 -23.2744 -25.0928 -38.6191
c-4.64941 -20.4248 -6.125 -41.752 -8.41406 -62.5352c-9.12598 -82.8379 -14.2471 -166.143 -14.5156 -249.492c-0.133789 -41.2861 0.928711 -82.5762 3.28027 -123.798c1.19824 -20.9736 2.73438 -41.9277 4.61719 -62.8506
c0.402344 -4.47656 0.764648 -8.94824 1.57617 -13.373c0.104492 -0.573242 0.280273 -1.19531 0.478516 -1.83301c1.82031 0.0976562 3.5957 0.207031 5.0625 0.524414c10.2305 2.21582 21.4502 -5.97852 28.2197 -12.7285zM103.406 -38.248
c0.273438 0.664062 -0.0458984 1.2793 -0.72168 1.85938c-0.00195312 -0.0664062 0.00878906 -0.141602 0.00390625 -0.206055c-0.03125 -0.433594 0.893555 -1.22656 0.717773 -1.65332z" />
    <glyph glyph-name="backslash" unicode="\" horiz-adv-x="275" 
d="M225.187 -63.5986c2.37109 -10.6641 -9.46387 -8.66992 -15.7666 -5.93359c-9.2373 4.00977 -21.7061 13.0869 -24.0371 23.5664c-9.32324 41.9121 -18.6494 83.8271 -27.9727 125.742c-16.1533 72.6123 -32.0625 145.284 -48.6006 217.81
c-8.1123 35.5801 -16.4775 71.1074 -25.4385 106.485c-8.58105 33.876 -17.0195 68.252 -31.7236 100.094c-4.03418 8.73438 -0.536133 13.8926 9.15234 11.7148c10.3125 -2.31836 22.7676 -11.5889 27.2461 -21.2861c17.2178 -37.292 27.3213 -76.9463 37.2676 -116.647
c36.6514 -146.324 67.1201 -294.312 99.873 -441.545z" />
    <glyph glyph-name="bracketright" unicode="]" horiz-adv-x="205" 
d="M144.853 439.009c6.07227 -45.4512 10.123 -91.2393 10.2539 -137.119c0.137695 -45.9482 -3.61426 -91.79 -7.69238 -137.523c-3.7832 -42.4219 -6.17871 -85.3145 -13.8574 -127.263c-3.7002 -20.2158 -8.85449 -40.1094 -16.1826 -59.3271
c-6.81641 -17.8779 -14.1172 -36.5068 -30.375 -47.6328c-7.53027 -5.15137 -23.8174 8.33984 -28.2207 12.7295c-4.8916 4.87891 -13.5303 15.2051 -5.49316 20.7031c14.8193 10.1416 22.3896 34.6475 27.7773 50.7539c6.42578 19.207 10.7266 39.0605 13.8779 59.0498
c5.69434 36.0986 8.03418 72.7012 11.2969 109.073c3.51855 39.208 6.92773 78.4619 7.95898 117.827c1.02246 39.0273 -0.686523 78.0371 -4.52441 116.883c-1.94043 19.6445 -4.46289 39.2295 -7.33398 58.7588c-1.4043 9.56152 -2.61816 19.2207 -4.63184 28.6758
c-0.291016 1.36719 -1.09375 3.31641 -1.80957 5.25879c-8.6875 0.792969 -17.3174 7.25391 -23.04 12.9609c-2.72656 2.7207 -15.5107 18.6895 -5.49414 20.7031c24.0166 4.8291 49 -13.4131 61.0664 -33.1133c12.582 -20.543 13.3105 -48.0908 16.4238 -71.3984z" />
    <glyph glyph-name="asciicircum" unicode="^" horiz-adv-x="198" 
d="M110.153 494.011c37.8721 -9.0127 39.0225 -50.3516 38.167 -81.2178c-0.895508 -32.5205 -3.77148 -64.9297 -8.37402 -97.1299c-2.15625 -15.082 -42.6836 10.001 -40.5947 24.623c3.2627 22.8232 5.66504 45.749 7.08789 68.7607
c-1.50879 -4.13867 -2.94629 -8.30566 -4.23535 -12.5264c-7.10742 -23.2881 -10.8613 -47.3604 -11.6016 -71.6816c-0.306641 -10.1123 -17.7178 -1.90723 -21.416 0.322266c-7.86133 4.73828 -19.4922 14.0459 -19.1787 24.3008
c0.900391 29.4951 6.36523 58.4854 16.4932 86.2139c4.7207 12.9258 10.2529 25.5391 16.8115 37.6406c6.03613 11.1396 11.8477 24.2617 26.8408 20.6943z" />
    <glyph glyph-name="underscore" unicode="_" horiz-adv-x="307" 
d="M252.717 15.2461c3.71582 -4.84766 9.06641 -17.2969 -1.94141 -16.7344c-56.8789 2.89844 -111.756 -15.624 -167.837 -21.8164c-13.7197 -1.51367 -46.5576 32.167 -26.7373 34.3564c56.1748 6.20312 110.778 24.7236 167.837 21.8164
c10.9678 -0.560547 22.2891 -9.28809 28.6787 -17.6221z" />
    <glyph glyph-name="grave" unicode="`" horiz-adv-x="148" 
d="M90.0098 476.001c3.53418 -20.2988 6.15039 -40.7109 7.97461 -61.2314c0.902344 -10.1396 -18.4893 -1.44336 -21.416 0.321289c-8.64746 5.21191 -18.2354 13.6953 -19.1777 24.3008c-1.61816 18.1914 -4.05176 36.249 -7.18359 54.2402
c-1.84277 10.5791 9.04785 8.84961 15.7666 5.93359c8.90137 -3.8623 22.2295 -13.1855 24.0361 -23.5645z" />
    <glyph glyph-name="a" unicode="a" 
d="M185.737 427.346c9.4082 -15.6885 12.2861 -33.6016 14.0107 -51.5156c4.46289 -46.333 2.16699 -93.1104 -1.72656 -139.395c-7.65039 -90.915 -22.9834 -181.065 -45.5039 -269.469c-4.33789 -17.0312 -40.9004 11.9531 -40.5938 24.624
c0.00195312 0.0839844 0.00390625 0.170898 0.00585938 0.257812c-3.65625 -0.921875 -7.36523 -1.6709 -11.1523 -2.16895c-18.7295 -2.46484 -37.1562 1.83105 -53.0225 12.1279c-27.4326 17.8027 -46.5645 49.209 -37.71 82.4736
c7.08105 26.5947 29.4639 51.3848 59.0928 48.5508c26.6172 -2.54492 50.1406 -21.0742 64.5869 -43.7666c2.3252 12.0771 4.52539 24.1787 6.57227 36.3096c13.3037 78.8242 23.3672 160.155 20.9668 240.224c-0.540039 18.0049 -0.942383 36.7139 -5.25391 54.2959
c-1.27148 5.18555 -2.76953 11.8662 -6.18359 16.3584c-0.357422 0.202148 -0.78418 0.395508 -1.16016 0.40625c-3.0918 0.0957031 -6.56738 1.96289 -9.72754 2.44043c-36.9297 5.58789 -73.4902 -14.6855 -103.966 -32.9639
c-12.1592 -7.29395 -47.8467 24.9551 -33.7139 33.4316c39.1963 23.5078 85.5918 44.9043 131.807 29.3018c21.5293 -7.26758 40.9209 -21.9277 52.6719 -41.5234zM52.8838 24.1641c-1.15332 0.637695 -1.97852 -0.222656 0 0zM79.8848 25.5684
c11.1455 2.94727 21.7402 7.61719 32.3994 12.0156c-0.599609 14.8506 -2.34863 29.584 -6.61816 43.6836c-1.54492 5.09863 -3.50293 12.0508 -7.37207 15.9531c-1.62012 1.63574 0.179688 1.17773 -3.4248 1.39551c-11.0508 0.664062 -21.0078 -4.44531 -28.667 -12.1689
c-16.0596 -16.1982 -22.9473 -41.4414 -12.7617 -62.2246c2.11621 0.235352 5.33203 -0.929688 7.58789 -1.02051c6.39648 -0.257812 12.6865 0.735352 18.8564 2.36621z" />
    <glyph glyph-name="a" unicode="&#xe5;" 
d="M185.737 427.346c9.4082 -15.6885 12.2861 -33.6016 14.0107 -51.5156c4.46289 -46.333 2.16699 -93.1104 -1.72656 -139.395c-7.65039 -90.915 -22.9834 -181.065 -45.5039 -269.469c-4.33789 -17.0312 -40.9004 11.9531 -40.5938 24.624
c0.00195312 0.0839844 0.00390625 0.170898 0.00585938 0.257812c-3.65625 -0.921875 -7.36523 -1.6709 -11.1523 -2.16895c-18.7295 -2.46484 -37.1562 1.83105 -53.0225 12.1279c-27.4326 17.8027 -46.5645 49.209 -37.71 82.4736
c7.08105 26.5947 29.4639 51.3848 59.0928 48.5508c26.6172 -2.54492 50.1406 -21.0742 64.5869 -43.7666c2.3252 12.0771 4.52539 24.1787 6.57227 36.3096c13.3037 78.8242 23.3672 160.155 20.9668 240.224c-0.540039 18.0049 -0.942383 36.7139 -5.25391 54.2959
c-1.27148 5.18555 -2.76953 11.8662 -6.18359 16.3584c-0.357422 0.202148 -0.78418 0.395508 -1.16016 0.40625c-3.0918 0.0957031 -6.56738 1.96289 -9.72754 2.44043c-36.9297 5.58789 -73.4902 -14.6855 -103.966 -32.9639
c-12.1592 -7.29395 -47.8467 24.9551 -33.7139 33.4316c39.1963 23.5078 85.5918 44.9043 131.807 29.3018c21.5293 -7.26758 40.9209 -21.9277 52.6719 -41.5234zM52.8838 24.1641c-1.15332 0.637695 -1.97852 -0.222656 0 0zM79.8848 25.5684
c11.1455 2.94727 21.7402 7.61719 32.3994 12.0156c-0.599609 14.8506 -2.34863 29.584 -6.61816 43.6836c-1.54492 5.09863 -3.50293 12.0508 -7.37207 15.9531c-1.62012 1.63574 0.179688 1.17773 -3.4248 1.39551c-11.0508 0.664062 -21.0078 -4.44531 -28.667 -12.1689
c-16.0596 -16.1982 -22.9473 -41.4414 -12.7617 -62.2246c2.11621 0.235352 5.33203 -0.929688 7.58789 -1.02051c6.39648 -0.257812 12.6865 0.735352 18.8564 2.36621z" />
    <glyph glyph-name="a" unicode="&#xe4;" 
d="M185.737 427.346c9.4082 -15.6885 12.2861 -33.6016 14.0107 -51.5156c4.46289 -46.333 2.16699 -93.1104 -1.72656 -139.395c-7.65039 -90.915 -22.9834 -181.065 -45.5039 -269.469c-4.33789 -17.0312 -40.9004 11.9531 -40.5938 24.624
c0.00195312 0.0839844 0.00390625 0.170898 0.00585938 0.257812c-3.65625 -0.921875 -7.36523 -1.6709 -11.1523 -2.16895c-18.7295 -2.46484 -37.1562 1.83105 -53.0225 12.1279c-27.4326 17.8027 -46.5645 49.209 -37.71 82.4736
c7.08105 26.5947 29.4639 51.3848 59.0928 48.5508c26.6172 -2.54492 50.1406 -21.0742 64.5869 -43.7666c2.3252 12.0771 4.52539 24.1787 6.57227 36.3096c13.3037 78.8242 23.3672 160.155 20.9668 240.224c-0.540039 18.0049 -0.942383 36.7139 -5.25391 54.2959
c-1.27148 5.18555 -2.76953 11.8662 -6.18359 16.3584c-0.357422 0.202148 -0.78418 0.395508 -1.16016 0.40625c-3.0918 0.0957031 -6.56738 1.96289 -9.72754 2.44043c-36.9297 5.58789 -73.4902 -14.6855 -103.966 -32.9639
c-12.1592 -7.29395 -47.8467 24.9551 -33.7139 33.4316c39.1963 23.5078 85.5918 44.9043 131.807 29.3018c21.5293 -7.26758 40.9209 -21.9277 52.6719 -41.5234zM52.8838 24.1641c-1.15332 0.637695 -1.97852 -0.222656 0 0zM79.8848 25.5684
c11.1455 2.94727 21.7402 7.61719 32.3994 12.0156c-0.599609 14.8506 -2.34863 29.584 -6.61816 43.6836c-1.54492 5.09863 -3.50293 12.0508 -7.37207 15.9531c-1.62012 1.63574 0.179688 1.17773 -3.4248 1.39551c-11.0508 0.664062 -21.0078 -4.44531 -28.667 -12.1689
c-16.0596 -16.1982 -22.9473 -41.4414 -12.7617 -62.2246c2.11621 0.235352 5.33203 -0.929688 7.58789 -1.02051c6.39648 -0.257812 12.6865 0.735352 18.8564 2.36621z" />
    <glyph glyph-name="a" unicode="&#xe3;" 
d="M185.737 427.346c9.4082 -15.6885 12.2861 -33.6016 14.0107 -51.5156c4.46289 -46.333 2.16699 -93.1104 -1.72656 -139.395c-7.65039 -90.915 -22.9834 -181.065 -45.5039 -269.469c-4.33789 -17.0312 -40.9004 11.9531 -40.5938 24.624
c0.00195312 0.0839844 0.00390625 0.170898 0.00585938 0.257812c-3.65625 -0.921875 -7.36523 -1.6709 -11.1523 -2.16895c-18.7295 -2.46484 -37.1562 1.83105 -53.0225 12.1279c-27.4326 17.8027 -46.5645 49.209 -37.71 82.4736
c7.08105 26.5947 29.4639 51.3848 59.0928 48.5508c26.6172 -2.54492 50.1406 -21.0742 64.5869 -43.7666c2.3252 12.0771 4.52539 24.1787 6.57227 36.3096c13.3037 78.8242 23.3672 160.155 20.9668 240.224c-0.540039 18.0049 -0.942383 36.7139 -5.25391 54.2959
c-1.27148 5.18555 -2.76953 11.8662 -6.18359 16.3584c-0.357422 0.202148 -0.78418 0.395508 -1.16016 0.40625c-3.0918 0.0957031 -6.56738 1.96289 -9.72754 2.44043c-36.9297 5.58789 -73.4902 -14.6855 -103.966 -32.9639
c-12.1592 -7.29395 -47.8467 24.9551 -33.7139 33.4316c39.1963 23.5078 85.5918 44.9043 131.807 29.3018c21.5293 -7.26758 40.9209 -21.9277 52.6719 -41.5234zM52.8838 24.1641c-1.15332 0.637695 -1.97852 -0.222656 0 0zM79.8848 25.5684
c11.1455 2.94727 21.7402 7.61719 32.3994 12.0156c-0.599609 14.8506 -2.34863 29.584 -6.61816 43.6836c-1.54492 5.09863 -3.50293 12.0508 -7.37207 15.9531c-1.62012 1.63574 0.179688 1.17773 -3.4248 1.39551c-11.0508 0.664062 -21.0078 -4.44531 -28.667 -12.1689
c-16.0596 -16.1982 -22.9473 -41.4414 -12.7617 -62.2246c2.11621 0.235352 5.33203 -0.929688 7.58789 -1.02051c6.39648 -0.257812 12.6865 0.735352 18.8564 2.36621z" />
    <glyph glyph-name="a" unicode="&#xe2;" 
d="M185.737 427.346c9.4082 -15.6885 12.2861 -33.6016 14.0107 -51.5156c4.46289 -46.333 2.16699 -93.1104 -1.72656 -139.395c-7.65039 -90.915 -22.9834 -181.065 -45.5039 -269.469c-4.33789 -17.0312 -40.9004 11.9531 -40.5938 24.624
c0.00195312 0.0839844 0.00390625 0.170898 0.00585938 0.257812c-3.65625 -0.921875 -7.36523 -1.6709 -11.1523 -2.16895c-18.7295 -2.46484 -37.1562 1.83105 -53.0225 12.1279c-27.4326 17.8027 -46.5645 49.209 -37.71 82.4736
c7.08105 26.5947 29.4639 51.3848 59.0928 48.5508c26.6172 -2.54492 50.1406 -21.0742 64.5869 -43.7666c2.3252 12.0771 4.52539 24.1787 6.57227 36.3096c13.3037 78.8242 23.3672 160.155 20.9668 240.224c-0.540039 18.0049 -0.942383 36.7139 -5.25391 54.2959
c-1.27148 5.18555 -2.76953 11.8662 -6.18359 16.3584c-0.357422 0.202148 -0.78418 0.395508 -1.16016 0.40625c-3.0918 0.0957031 -6.56738 1.96289 -9.72754 2.44043c-36.9297 5.58789 -73.4902 -14.6855 -103.966 -32.9639
c-12.1592 -7.29395 -47.8467 24.9551 -33.7139 33.4316c39.1963 23.5078 85.5918 44.9043 131.807 29.3018c21.5293 -7.26758 40.9209 -21.9277 52.6719 -41.5234zM52.8838 24.1641c-1.15332 0.637695 -1.97852 -0.222656 0 0zM79.8848 25.5684
c11.1455 2.94727 21.7402 7.61719 32.3994 12.0156c-0.599609 14.8506 -2.34863 29.584 -6.61816 43.6836c-1.54492 5.09863 -3.50293 12.0508 -7.37207 15.9531c-1.62012 1.63574 0.179688 1.17773 -3.4248 1.39551c-11.0508 0.664062 -21.0078 -4.44531 -28.667 -12.1689
c-16.0596 -16.1982 -22.9473 -41.4414 -12.7617 -62.2246c2.11621 0.235352 5.33203 -0.929688 7.58789 -1.02051c6.39648 -0.257812 12.6865 0.735352 18.8564 2.36621z" />
    <glyph glyph-name="a" unicode="&#xe1;" 
d="M185.737 427.346c9.4082 -15.6885 12.2861 -33.6016 14.0107 -51.5156c4.46289 -46.333 2.16699 -93.1104 -1.72656 -139.395c-7.65039 -90.915 -22.9834 -181.065 -45.5039 -269.469c-4.33789 -17.0312 -40.9004 11.9531 -40.5938 24.624
c0.00195312 0.0839844 0.00390625 0.170898 0.00585938 0.257812c-3.65625 -0.921875 -7.36523 -1.6709 -11.1523 -2.16895c-18.7295 -2.46484 -37.1562 1.83105 -53.0225 12.1279c-27.4326 17.8027 -46.5645 49.209 -37.71 82.4736
c7.08105 26.5947 29.4639 51.3848 59.0928 48.5508c26.6172 -2.54492 50.1406 -21.0742 64.5869 -43.7666c2.3252 12.0771 4.52539 24.1787 6.57227 36.3096c13.3037 78.8242 23.3672 160.155 20.9668 240.224c-0.540039 18.0049 -0.942383 36.7139 -5.25391 54.2959
c-1.27148 5.18555 -2.76953 11.8662 -6.18359 16.3584c-0.357422 0.202148 -0.78418 0.395508 -1.16016 0.40625c-3.0918 0.0957031 -6.56738 1.96289 -9.72754 2.44043c-36.9297 5.58789 -73.4902 -14.6855 -103.966 -32.9639
c-12.1592 -7.29395 -47.8467 24.9551 -33.7139 33.4316c39.1963 23.5078 85.5918 44.9043 131.807 29.3018c21.5293 -7.26758 40.9209 -21.9277 52.6719 -41.5234zM52.8838 24.1641c-1.15332 0.637695 -1.97852 -0.222656 0 0zM79.8848 25.5684
c11.1455 2.94727 21.7402 7.61719 32.3994 12.0156c-0.599609 14.8506 -2.34863 29.584 -6.61816 43.6836c-1.54492 5.09863 -3.50293 12.0508 -7.37207 15.9531c-1.62012 1.63574 0.179688 1.17773 -3.4248 1.39551c-11.0508 0.664062 -21.0078 -4.44531 -28.667 -12.1689
c-16.0596 -16.1982 -22.9473 -41.4414 -12.7617 -62.2246c2.11621 0.235352 5.33203 -0.929688 7.58789 -1.02051c6.39648 -0.257812 12.6865 0.735352 18.8564 2.36621z" />
    <glyph glyph-name="b" unicode="b" horiz-adv-x="212" 
d="M137.116 371.285c19.6758 -13.2979 35.8398 -32.0811 46.0879 -53.3818c29.9238 -62.2197 23.2432 -140.028 -1.04004 -202.817c-22.3516 -57.7988 -63.6592 -114.927 -127.65 -125.551c-1.31543 -5.66504 -10.3057 -3.14258 -16.3379 -0.59082
c-8.80078 2.55859 -18.002 10.9824 -22.5381 16.8984c-3.84961 5.02051 -7.41016 13.2217 -1.49609 15.9062c0.268555 60.0635 1.20605 120.123 2.91113 180.165c1.52441 53.7588 3.47168 107.936 13.1064 160.965c8.25684 45.4551 22.665 101.921 61.7549 130.991
c17.4775 12.9971 39.0869 19.8867 60.8232 15.6484c22.5098 -4.3877 48.4424 -24.168 49.543 -48.7715c0.942383 -21.0811 -15.0576 -41.1279 -28.3701 -55.8438c-11.1748 -12.3506 -23.8008 -23.2188 -36.7939 -33.6182zM126.259 460.478
c-15.8887 -13.1953 -26.6621 -31.4082 -34.8252 -50.126c-2.98242 -6.83398 -5.61816 -13.8057 -8.00781 -20.8691c18.1934 14.1113 36.4473 28.4131 51.9541 45.5264c7.40332 8.16992 14.3047 17.0205 19.7881 26.6104c2.4043 4.20508 4.41309 8.48145 5.51367 13.2178
c0.102539 0.433594 0.162109 0.867188 0.22168 1.30078c-3.15137 -0.40918 -6.22949 -1.14258 -9.29199 -2.07617c-9.2373 -2.81348 -17.9248 -7.41406 -25.3525 -13.584zM152.668 173.805c9.26367 35.4717 12.2969 73.3037 6.50684 109.611
c-4.11426 25.8057 -12.8066 68.3291 -44.3486 72.8789c-9.49023 1.36914 -17.9688 6.4502 -24.7295 13.1914c-1.62695 1.625 -7.23438 7.87891 -8.92578 13.0527c-10.5771 -34.0273 -15.2109 -70.123 -18.3848 -105.319
c-7.30078 -80.9736 -7.77832 -162.951 -7.98047 -244.416c51.8691 24.8213 84.1777 88.5986 97.8623 141.001z" />
    <glyph glyph-name="c" unicode="c" horiz-adv-x="223" 
d="M188.169 40.0547c11.8418 10.9189 48.2119 -21.1768 38.5303 -30.1113c-21.3096 -19.6514 -43.9814 -41.0166 -71.9072 -50.707c-26.666 -9.25195 -55.2432 -4.75977 -78.9951 9.98633c-50.3799 31.2773 -61.2793 96.7178 -65.7998 151.17
c-4.71191 56.7432 -1.17578 114.911 11.6436 170.426c11.6885 50.6113 31.1689 102.609 63.5664 143.777c14.7041 18.6846 36.249 41.4785 61.2676 43.8125c26.9482 2.51562 57.0391 -21.499 63.4043 -47.2207c2.64746 -10.6943 -9.67188 -8.57812 -15.7656 -5.93359
c-7.85645 3.40918 -17.5156 10.2275 -22.0117 18.5068c-5.13672 -1.22461 -10.249 -4.07129 -14.5254 -6.78027c-9.64551 -6.1123 -18.1738 -14.46 -25.7812 -22.9141c-15.5352 -17.2646 -27.7275 -37.3408 -38.0264 -58.0791
c-39.3525 -79.2334 -50.4648 -172.762 -43.1748 -260.214c1.95801 -23.501 5.91406 -46.9756 12.7236 -69.5811c3.68457 -12.2305 8.1123 -32.3691 21.8516 -36.0674c39.6963 -10.6855 76.7676 25.7373 103 49.9297zM179.796 444.142
c-0.0195312 -0.03125 -0.637695 -0.015625 -1.4248 0.0107422c0.626953 -0.381836 1.12891 -0.448242 1.4248 -0.0107422z" />
    <glyph glyph-name="d" unicode="d" horiz-adv-x="215" 
d="M176.01 447.843c22.1182 -30.0068 31.3174 -67.3359 33.2822 -104.083c3.80957 -71.2744 -17.4287 -145.369 -45.6396 -210.189c-28.1748 -64.7402 -68.1514 -123.946 -117.554 -174.369c-11.0439 -11.2705 -48.1201 20.3164 -38.5303 30.1045
c9.22363 9.41504 18.1182 19.1387 26.6709 29.1445c-1.32715 1.37793 -2.5498 2.73633 -3.61914 4.00098c-7.11914 8.41211 -8.15039 17.0176 -9.30371 27.5547c-1.25586 11.4639 -2.28223 22.9521 -3.09766 34.4561c-1.68066 23.7256 -2.4873 47.5088 -2.75195 71.29
c-0.515625 46.2197 1.01367 92.4258 2.14746 138.625c0.964844 39.3213 0.0517578 79.3447 7.91016 118.074c6.38574 31.46 18.9141 74.8682 55.5234 81.6582c36.9248 6.84766 73.8926 -17.6846 94.9619 -46.2666zM125.123 163.675
c25.5166 58.6279 43.5889 124.389 43.9424 188.655c0.175781 31.5 -4.3916 67.4785 -22.2451 94.3691c-15.042 22.6582 -45.7949 15.9287 -60.2832 -4.49414c-19.4092 -27.3545 -23.7656 -65.6973 -25.9902 -98.2422c-2.42676 -35.4668 -2.25977 -71.1719 -3.16895 -106.701
c-0.942383 -36.8096 -1.77539 -73.6348 -1.26172 -110.46c0.262695 -18.7383 0.869141 -37.4717 1.99121 -56.1787c0.40625 -6.78516 0.908203 -13.5635 1.45703 -20.3379c26.0195 35.1475 48.0674 73.1992 65.5586 113.39z" />
    <glyph glyph-name="e" unicode="e" horiz-adv-x="218" 
d="M8.36523 227.241c2.36035 65.3711 17.1406 133.395 47.5557 191.678c13.3799 25.6348 32.1807 52.9717 58.2109 67.083c30.8779 16.7402 68.043 -4.97656 80.249 -35.5137c24.583 -61.4951 -49.8135 -110.082 -100.738 -119.304
c-7.10059 -1.28711 -14.3818 1.86035 -20.5137 6.19824c-15.918 -47.9531 -24.1367 -98.4893 -24.4766 -148.998c-0.367188 -54.2227 6.90723 -112.148 31.1709 -161.271c2.98242 -6.03906 6.07617 -12.3662 10.0703 -17.8115
c0.839844 -1.14648 1.70703 -2.35352 2.71191 -3.37109c0.0888672 -0.0263672 0.155273 -0.0458984 0.25293 -0.0771484c9.59863 -3.11816 20.4336 -1.68652 29.8682 1.2627c25.0498 7.83203 43.0322 28.1504 60.0703 47.0127
c10.3838 11.4932 47.9863 -19.6357 38.5293 -30.1035c-23.2236 -25.708 -48.9512 -51.8359 -85.6162 -54.0498c-39.1895 -2.36719 -71.1826 27.2148 -88.6143 59.5752c-32.0225 59.4482 -41.1396 130.984 -38.7305 197.689zM111.384 416.499
c-10.0391 -13.915 -18.2305 -29.0947 -25.1582 -44.8164c18.2578 6.625 35.2646 16.7373 48.7666 30.7549c9.37012 9.72559 17.7402 21.6445 21.2344 34.8379c1.37793 5.20312 2.20703 10.7285 1.94434 16.1201c-0.0195312 0.371094 -0.261719 1.61328 -0.585938 3.1582
c-0.804688 -0.133789 -1.54297 -0.285156 -2.11816 -0.492188c-3.15332 -1.12891 -6.2207 -2.61133 -9.11035 -4.30273c-5.10547 -2.98926 -9.54395 -6.86523 -13.8311 -10.9189c-7.82129 -7.39648 -14.8447 -15.6152 -21.1416 -24.3408z" />
    <glyph glyph-name="e" unicode="&#xeb;" horiz-adv-x="218" 
d="M8.36523 227.241c2.36035 65.3711 17.1406 133.395 47.5557 191.678c13.3799 25.6348 32.1807 52.9717 58.2109 67.083c30.8779 16.7402 68.043 -4.97656 80.249 -35.5137c24.583 -61.4951 -49.8135 -110.082 -100.738 -119.304
c-7.10059 -1.28711 -14.3818 1.86035 -20.5137 6.19824c-15.918 -47.9531 -24.1367 -98.4893 -24.4766 -148.998c-0.367188 -54.2227 6.90723 -112.148 31.1709 -161.271c2.98242 -6.03906 6.07617 -12.3662 10.0703 -17.8115
c0.839844 -1.14648 1.70703 -2.35352 2.71191 -3.37109c0.0888672 -0.0263672 0.155273 -0.0458984 0.25293 -0.0771484c9.59863 -3.11816 20.4336 -1.68652 29.8682 1.2627c25.0498 7.83203 43.0322 28.1504 60.0703 47.0127
c10.3838 11.4932 47.9863 -19.6357 38.5293 -30.1035c-23.2236 -25.708 -48.9512 -51.8359 -85.6162 -54.0498c-39.1895 -2.36719 -71.1826 27.2148 -88.6143 59.5752c-32.0225 59.4482 -41.1396 130.984 -38.7305 197.689zM111.384 416.499
c-10.0391 -13.915 -18.2305 -29.0947 -25.1582 -44.8164c18.2578 6.625 35.2646 16.7373 48.7666 30.7549c9.37012 9.72559 17.7402 21.6445 21.2344 34.8379c1.37793 5.20312 2.20703 10.7285 1.94434 16.1201c-0.0195312 0.371094 -0.261719 1.61328 -0.585938 3.1582
c-0.804688 -0.133789 -1.54297 -0.285156 -2.11816 -0.492188c-3.15332 -1.12891 -6.2207 -2.61133 -9.11035 -4.30273c-5.10547 -2.98926 -9.54395 -6.86523 -13.8311 -10.9189c-7.82129 -7.39648 -14.8447 -15.6152 -21.1416 -24.3408z" />
    <glyph glyph-name="e" unicode="&#xea;" horiz-adv-x="218" 
d="M8.36523 227.241c2.36035 65.3711 17.1406 133.395 47.5557 191.678c13.3799 25.6348 32.1807 52.9717 58.2109 67.083c30.8779 16.7402 68.043 -4.97656 80.249 -35.5137c24.583 -61.4951 -49.8135 -110.082 -100.738 -119.304
c-7.10059 -1.28711 -14.3818 1.86035 -20.5137 6.19824c-15.918 -47.9531 -24.1367 -98.4893 -24.4766 -148.998c-0.367188 -54.2227 6.90723 -112.148 31.1709 -161.271c2.98242 -6.03906 6.07617 -12.3662 10.0703 -17.8115
c0.839844 -1.14648 1.70703 -2.35352 2.71191 -3.37109c0.0888672 -0.0263672 0.155273 -0.0458984 0.25293 -0.0771484c9.59863 -3.11816 20.4336 -1.68652 29.8682 1.2627c25.0498 7.83203 43.0322 28.1504 60.0703 47.0127
c10.3838 11.4932 47.9863 -19.6357 38.5293 -30.1035c-23.2236 -25.708 -48.9512 -51.8359 -85.6162 -54.0498c-39.1895 -2.36719 -71.1826 27.2148 -88.6143 59.5752c-32.0225 59.4482 -41.1396 130.984 -38.7305 197.689zM111.384 416.499
c-10.0391 -13.915 -18.2305 -29.0947 -25.1582 -44.8164c18.2578 6.625 35.2646 16.7373 48.7666 30.7549c9.37012 9.72559 17.7402 21.6445 21.2344 34.8379c1.37793 5.20312 2.20703 10.7285 1.94434 16.1201c-0.0195312 0.371094 -0.261719 1.61328 -0.585938 3.1582
c-0.804688 -0.133789 -1.54297 -0.285156 -2.11816 -0.492188c-3.15332 -1.12891 -6.2207 -2.61133 -9.11035 -4.30273c-5.10547 -2.98926 -9.54395 -6.86523 -13.8311 -10.9189c-7.82129 -7.39648 -14.8447 -15.6152 -21.1416 -24.3408z" />
    <glyph glyph-name="e" unicode="&#xe9;" horiz-adv-x="218" 
d="M8.36523 227.241c2.36035 65.3711 17.1406 133.395 47.5557 191.678c13.3799 25.6348 32.1807 52.9717 58.2109 67.083c30.8779 16.7402 68.043 -4.97656 80.249 -35.5137c24.583 -61.4951 -49.8135 -110.082 -100.738 -119.304
c-7.10059 -1.28711 -14.3818 1.86035 -20.5137 6.19824c-15.918 -47.9531 -24.1367 -98.4893 -24.4766 -148.998c-0.367188 -54.2227 6.90723 -112.148 31.1709 -161.271c2.98242 -6.03906 6.07617 -12.3662 10.0703 -17.8115
c0.839844 -1.14648 1.70703 -2.35352 2.71191 -3.37109c0.0888672 -0.0263672 0.155273 -0.0458984 0.25293 -0.0771484c9.59863 -3.11816 20.4336 -1.68652 29.8682 1.2627c25.0498 7.83203 43.0322 28.1504 60.0703 47.0127
c10.3838 11.4932 47.9863 -19.6357 38.5293 -30.1035c-23.2236 -25.708 -48.9512 -51.8359 -85.6162 -54.0498c-39.1895 -2.36719 -71.1826 27.2148 -88.6143 59.5752c-32.0225 59.4482 -41.1396 130.984 -38.7305 197.689zM111.384 416.499
c-10.0391 -13.915 -18.2305 -29.0947 -25.1582 -44.8164c18.2578 6.625 35.2646 16.7373 48.7666 30.7549c9.37012 9.72559 17.7402 21.6445 21.2344 34.8379c1.37793 5.20312 2.20703 10.7285 1.94434 16.1201c-0.0195312 0.371094 -0.261719 1.61328 -0.585938 3.1582
c-0.804688 -0.133789 -1.54297 -0.285156 -2.11816 -0.492188c-3.15332 -1.12891 -6.2207 -2.61133 -9.11035 -4.30273c-5.10547 -2.98926 -9.54395 -6.86523 -13.8311 -10.9189c-7.82129 -7.39648 -14.8447 -15.6152 -21.1416 -24.3408z" />
    <glyph glyph-name="f" unicode="f" horiz-adv-x="171" 
d="M174.533 469.085c3.41602 -4.45605 9.21777 -17.9453 -1.94824 -16.7344c-35.3584 3.84277 -58.8945 -33.1895 -71.6338 -61.0137c-13.5977 -29.6992 -19.7744 -62.4062 -23.4326 -94.6816c-0.250977 -2.22949 -0.463867 -4.46582 -0.697266 -6.69727
c2.84668 1.02246 5.69336 2.04688 8.54004 3.06934c14.249 5.12305 47.4492 -28.4951 33.7139 -33.4316c-15.249 -5.4834 -30.498 -10.9639 -45.7471 -16.4443c-0.799805 -17.4316 -1.08691 -34.8877 -0.947266 -52.3076
c0.584961 -73.4941 9.95996 -146.551 27.4648 -217.916c2.62305 -10.6924 -9.6543 -8.58496 -15.7666 -5.93359c-9.39453 4.07617 -21.458 13.0508 -24.0361 23.5654c-10.4395 42.5566 -17.9648 85.6895 -22.6875 129.251c-3.90527 36.0117 -6.17871 72.7549 -6.125 109.482
c-15.6377 1.71582 -41.3408 29.417 -28.9678 33.8643c10.0811 3.62305 20.1602 7.24805 30.2412 10.8711c1.38281 24.1836 3.90723 48.2266 7.82129 71.9121c5.49219 33.2354 15.1494 66.5889 32.6758 95.5947c15.3799 25.4521 41.166 48.6152 72.8525 45.1729
c11.1816 -1.21582 21.9609 -8.85938 28.6797 -17.623z" />
    <glyph glyph-name="g" unicode="g" horiz-adv-x="174" 
d="M157.757 436.323c0.255859 -2.42676 0.371094 -4.83398 0.413086 -7.23242c2.24219 -38.6279 4.22266 -77.2842 4.42285 -115.985c0.364258 -70.3633 -5.19824 -141.516 -26.1299 -209.036c-17.6846 -57.0459 -46.7217 -112.169 -95.2324 -148.729
c-13.2793 -10.0078 -48.1328 22.8652 -38.5293 30.1045c27.0752 20.4053 48.5225 46.8115 64.958 76.3623c31.8779 57.3164 45.4307 123.768 51.1006 188.53c2.81836 32.2021 3.56543 64.4824 3.16309 96.7715c-0.168945 -0.186523 -0.331055 -0.379883 -0.5 -0.566406
c-18.9824 -20.8633 -43.3682 -43.5889 -73.8232 -36.0674c-16.9648 4.1875 -33.5068 15.9668 -42.8701 30.7314c-8.76074 13.8174 -7.99219 29.0859 -3.22949 44.2217c15.9551 50.6914 66.2822 85.3691 119.265 82.9512c7.83203 -0.357422 15.873 -4.98438 22.1494 -10.623
c7.26367 -5.24316 13.9072 -12.5488 14.8428 -21.4326zM86.5 380.702c12.666 14.6816 23.1104 31.1572 28.0381 49.2822c-14.1934 -4.1543 -27.5215 -11.3066 -38.9004 -20.9326c-18.5361 -15.6797 -36.0137 -40.2207 -37.1562 -65.4219
c5.54785 1.13574 11.1016 3.96289 15.6846 6.90527c12.1865 7.82129 22.9346 19.2695 32.334 30.167z" />
    <glyph glyph-name="h" unicode="h" horiz-adv-x="179" 
d="M63.2617 214.786c-2.44043 -39.5654 -4.70215 -79.1406 -6.78711 -118.724c-0.857422 -16.2646 -1.66016 -32.5312 -2.45605 -48.7979c1.63379 1.73535 3.27637 3.46191 4.96094 5.15527c14.373 14.4463 33.2354 33.4863 53.4541 38.9053
c24.2725 6.50293 51.4209 -9.46387 63.4443 -30.4131c11.5234 -20.083 10.9609 -48.5801 7.84082 -70.748c-2.11816 -15.0645 -42.6553 9.98828 -40.5947 24.624c1.36914 9.71875 2.03613 19.4717 1.4873 29.2842c-0.242188 4.35645 -0.712891 8.67969 -1.45117 12.9824
c-2.00293 -0.753906 -3.95898 -1.67871 -5.80566 -2.61035c-7.49023 -3.77344 -14.1885 -9.33008 -20.6338 -14.6396c-24.4502 -20.1387 -44.8467 -44.5771 -60.8115 -71.9014c-6.51465 -11.1523 -30.9043 10.748 -34.5762 15.4951
c-12.7285 16.4561 -10.4951 34.123 -9.58789 53.7012c0.951172 20.5312 1.94922 41.0625 2.99609 61.5898c2.16699 42.5215 4.54102 85.0322 7.11914 127.531c5.1582 84.9961 11.1523 169.943 17.9375 254.826c1.16016 14.5107 41.79 -9.67676 40.5947 -24.623
c-6.43652 -80.4932 -12.1592 -161.042 -17.1309 -241.638z" />
    <glyph glyph-name="i" unicode="i" horiz-adv-x="89" 
d="M45.668 -40.4668c-2.07617 -15.042 -42.6162 9.96973 -40.5938 24.623c21.9189 158.864 30.9775 319.326 27.0723 479.648c-0.249023 10.1504 18.082 1.68652 21.416 -0.322266c8.22559 -4.95605 18.9248 -13.8643 19.1777 -24.3008
c3.90527 -160.322 -5.15137 -320.784 -27.0723 -479.648z" />
    <glyph glyph-name="i" unicode="&#xef;" horiz-adv-x="89" 
d="M45.668 -40.4668c-2.07617 -15.042 -42.6162 9.96973 -40.5938 24.623c21.9189 158.864 30.9775 319.326 27.0723 479.648c-0.249023 10.1504 18.082 1.68652 21.416 -0.322266c8.22559 -4.95605 18.9248 -13.8643 19.1777 -24.3008
c3.90527 -160.322 -5.15137 -320.784 -27.0723 -479.648z" />
    <glyph glyph-name="i" unicode="&#xee;" horiz-adv-x="89" 
d="M45.668 -40.4668c-2.07617 -15.042 -42.6162 9.96973 -40.5938 24.623c21.9189 158.864 30.9775 319.326 27.0723 479.648c-0.249023 10.1504 18.082 1.68652 21.416 -0.322266c8.22559 -4.95605 18.9248 -13.8643 19.1777 -24.3008
c3.90527 -160.322 -5.15137 -320.784 -27.0723 -479.648z" />
    <glyph glyph-name="i" unicode="&#xed;" horiz-adv-x="89" 
d="M45.668 -40.4668c-2.07617 -15.042 -42.6162 9.96973 -40.5938 24.623c21.9189 158.864 30.9775 319.326 27.0723 479.648c-0.249023 10.1504 18.082 1.68652 21.416 -0.322266c8.22559 -4.95605 18.9248 -13.8643 19.1777 -24.3008
c3.90527 -160.322 -5.15137 -320.784 -27.0723 -479.648z" />
    <glyph glyph-name="j" unicode="j" horiz-adv-x="164" 
d="M152.454 477.5c2.71387 -2.70508 15.5156 -18.7158 5.49219 -20.707c-13.3555 -2.64746 -26.3438 -6.36816 -38.9365 -11.1377c9.91016 -61.2969 14.3223 -123.481 16.9209 -185.475c2.27832 -54.3457 2.08301 -109.171 -6.85156 -162.967
c-4.31152 -25.9639 -10.666 -51.6387 -19.6914 -76.3799c-7.87695 -21.5938 -17.8584 -46.0146 -36.5205 -60.6367c-22.75 -17.8242 -52.4248 -0.331055 -67.4512 19.7344c-16.1182 21.5234 -10.9395 46.2734 -1.8252 69.5547
c16.1621 41.2832 48.9092 73.75 87.9814 93.8369c1.61621 13.0088 2.79199 26.0703 3.57617 39.1318c2.79199 46.4082 1.00488 92.9434 -1.7002 139.31c-2.0918 35.876 -4.86133 71.7051 -9.35352 107.339c-0.702148 -0.402344 -1.41797 -0.773438 -2.11816 -1.18457
c-12.2793 -7.20996 -47.8594 25.126 -33.7129 33.4316c23.6475 13.8818 49.0732 23.5479 75.9707 28.8779c10.3281 2.04688 21.3389 -5.86719 28.2197 -12.7285zM69.4404 47.25c3.30469 9.20996 6.22168 18.5439 8.82617 27.9629
c-16.1338 -16.4824 -29.0596 -36.0498 -36.832 -57.7529c-2.95605 -8.25 -5.9209 -17.5244 -6.34082 -26.499c1.01562 0.792969 1.9873 1.65039 2.96484 2.57031c15.124 14.209 24.4805 34.4893 31.3818 53.7188z" />
    <glyph glyph-name="k" unicode="k" horiz-adv-x="180" 
d="M121.064 151.121c11.8105 10.7393 48.2432 -20.9375 38.5371 -30.1055c-6.8125 -6.43164 -13.418 -13.0566 -19.8564 -19.8242c-14.6758 -15.9863 -27.6484 -33.4688 -38.4766 -52.376c-2.18945 -3.82715 -4.52051 -7.6875 -6.35449 -11.7012
c-0.0693359 -0.148438 -0.15332 -0.379883 -0.24707 -0.648438c1.50195 -0.0869141 3.00391 -0.162109 4.49707 -0.231445c16.7686 -0.782227 33.4619 0.375977 49.96 3.42773c10.3994 1.9248 21.2568 -5.78516 28.2197 -12.7285
c2.64941 -2.64258 15.5537 -18.8428 5.49414 -20.7031c-24.001 -4.43848 -48.7822 -6.22363 -73.0654 -2.99219c-11.5264 1.5332 -24.5615 6.08301 -35.4189 13.3525c-8.54102 -13.7666 -16.4736 -27.9326 -23.7275 -42.4922
c-3.61426 -7.25195 -19.3877 2.41797 -23.0615 4.91406c-6.25684 4.24707 -17.4824 13.5264 -16.502 22.4473c8.60547 78.3555 11.8926 156.859 12.0283 235.654c0.0693359 39.874 -0.0400391 79.7754 2.00488 119.609c2.02246 39.3633 6.98047 78.5889 5.72461 118.065
c-0.322266 10.1523 18.1289 1.6582 21.416 -0.322266c8.27441 -4.9873 18.8447 -13.8418 19.1777 -24.3008c1.27832 -40.1992 -3.85156 -80.1494 -5.83203 -120.237c-1.93164 -39.1143 -1.83203 -78.2881 -1.89844 -117.438
c-0.0751953 -43.3838 -1.15527 -86.6787 -3.50195 -129.911c12.1123 16.3203 25.1982 31.916 39.1621 46.749c6.87207 7.60547 14.1152 14.8779 21.7207 21.792z" />
    <glyph glyph-name="l" unicode="l" horiz-adv-x="116" 
d="M82.1748 26.8047c13.3174 6.30078 47.8184 -26.7568 33.71 -33.4355c-18.1025 -8.56738 -35.6494 -9.74707 -53.4033 0.591797c-16.9355 9.86328 -29.0439 25.7812 -32.9844 45.0127c-6.90332 33.6982 -5.2627 69.8125 -6.42285 104.048
c-1.26465 37.3291 -2.40918 74.6631 -3.43359 111.999c-2.00684 73.21 -3.54492 146.432 -4.64062 219.659c-0.15332 10.1455 18.0205 1.72461 21.417 -0.322266c8.16113 -4.91895 19.0225 -13.8936 19.1777 -24.3018c1.20508 -80.5508 2.94727 -161.093 5.25879 -241.619
c1.13379 -39.5303 2.40332 -79.0576 3.80762 -118.581c0.695312 -19.5869 0.535156 -39.5137 3.07324 -58.9746c0.402344 -3.08301 0.898438 -6.1748 1.51855 -9.23047c4.48047 1.19824 8.74805 3.17871 12.9219 5.1543z" />
    <glyph glyph-name="m" unicode="m" horiz-adv-x="311" 
d="M35.1836 -52.9199c-7.88379 4.75 -19.459 14.0342 -19.1816 24.2998c4.58301 169.188 6.77637 338.436 6.57812 507.688c-0.0136719 10.1396 17.9287 1.78027 21.416 -0.322266c8.07031 -4.86523 19.167 -13.9375 19.1777 -24.3008
c0.0820312 -70.1611 -0.271484 -140.324 -1.01172 -210.48c5.96973 16.8955 13.377 33.6826 25.5742 47.0576c6.75195 7.40527 13.2178 12.4834 23.6367 10.7695c9.06836 -1.49121 18.1094 -7.25391 24.9902 -14.0752c13.96 60.626 27.6221 121.343 56.6367 176.788
c7.99023 15.2715 18.3271 38.4033 38.0273 40.1328c12.7822 1.12012 25.1504 -6.95215 33.832 -15.5889c11.2617 -11.2061 16.2627 -25.8945 19.2656 -41.1387c9.05664 -45.9756 8.84766 -94.3271 9.12109 -140.984c0.673828 -114.967 -4.97559 -230.156 -12.9834 -344.823
c-1.00488 -14.4062 -41.6416 9.63672 -40.5947 24.623c3.8877 55.6504 6.90137 111.364 9.19922 167.101c2.38965 57.9414 4.04785 115.945 3.80371 173.94c-0.182617 43.3818 -0.0117188 88.2812 -7.11719 130.858c-2.16895 -3.16504 -4.07129 -6.50293 -5.80078 -9.42773
c-10.4814 -17.7334 -19.2275 -36.4941 -26.6152 -55.7119c-29.5771 -76.9287 -38.4092 -159.972 -64.875 -237.892c-5.56934 -16.4004 -42.4453 11.3525 -40.5938 24.623c2.65625 19.04 4.20801 38.1846 4.38184 57.4141
c0.00683594 0.90918 -0.0224609 1.81641 -0.0205078 2.72559c-5.56934 -10.3789 -9.63477 -21.418 -13.126 -32.6572c-8.40527 -27.0635 -14.1328 -54.9004 -18.8574 -82.8174c-9.99023 -59.0264 -17.2891 -118.588 -23.4473 -178.123
c-1.0332 -10.0039 -17.2197 -2.20703 -21.416 0.322266zM258.963 469.651c0.728516 -0.675781 1.9043 -1.03223 2.77734 0.746094c-0.0595703 -0.124023 -1.39746 -0.428711 -2.77734 -0.746094z" />
    <glyph glyph-name="n" unicode="n" 
d="M194.851 389.754c7.70996 -132.609 -3.76172 -265.91 -5.82617 -398.526c-0.158203 -10.126 -17.8184 -1.84668 -21.417 0.322266c-7.95898 4.7959 -19.3379 13.9932 -19.1777 24.3008c1.05762 67.8809 4.10059 135.694 6.1123 203.546
c1.79102 60.4014 2.40234 120.836 0.286133 181.24c-0.489258 13.8994 -0.849609 27.9814 -4.89258 41.3965c-0.604492 -0.308594 -1.00879 -0.521484 -1.05566 -0.556641c-2.79395 -2.11133 -5.20312 -5.03613 -7.36328 -7.76074
c-17.9092 -22.5898 -29.1045 -51.0361 -37.2764 -78.3936c-17.9404 -60.0527 -23.6475 -123.953 -29.0928 -186.146c-5.7207 -65.3184 -8.90332 -131.041 -6.7832 -196.607c0.329102 -10.1523 -18.1338 -1.65527 -21.416 0.323242
c-8.76562 5.2832 -18.04 13.6602 -19.1777 24.3018c-8.20996 76.7861 -6.59863 154.69 -7.87695 231.816c-1.29785 78.2441 -2.59375 156.49 -3.8916 234.734c-0.168945 10.1484 18.0312 1.71875 21.416 -0.321289c8.17188 -4.9248 19.0049 -13.8857 19.1787 -24.3008
c0.435547 -26.3789 0.873047 -52.7559 1.31055 -79.1328c6.37402 25.6816 14.8975 50.6895 26.8945 74.2617c7.10547 13.96 15.4131 30.0068 28.3174 39.4502c12.3037 9.00586 26.377 6.76562 39.0186 -0.413086c30.8379 -17.5117 40.7793 -50.2852 42.7129 -83.5342z
M156.484 445.159c0.768555 -0.477539 1.33789 -0.449219 1.56934 0.439453c0.046875 0.182617 -0.604492 -0.0351562 -1.56934 -0.439453z" />
    <glyph glyph-name="o" unicode="o" 
d="M79.6406 518.804c7.08496 11.793 46.6152 -16.6416 38.5273 -30.1016c-4.0918 -6.80957 -7.94531 -13.7656 -11.5771 -20.8467c35.3809 -21.9033 58.3574 -60.1621 72.7549 -99.4854c18.2383 -49.8203 26.9219 -103.272 26.3711 -156.291
c-0.5 -47.9893 -8.8457 -95.9297 -25.0527 -141.12c-7.58984 -21.167 -16.3955 -42.1787 -29.1729 -60.7988c-10.6279 -15.4863 -25.7812 -34.4893 -46.1641 -35.5254c-25.2969 -1.28711 -48.1289 21.4229 -60.0195 41.541
c-12.7666 21.6025 -18.7188 47.3418 -23.1279 71.7852c-10.7842 59.7793 -13.291 122.199 -9.55078 182.783c5.23633 84.8076 22.8232 174.505 67.0117 248.06zM83.626 3.98828c0.895508 -0.664062 1.74512 -1.10254 0 0zM145.887 367.319
c-8.48145 27.0996 -20.1377 67.8887 -49.0371 80.0234c-28.2197 -64.0732 -40.1055 -136.546 -43.8701 -205.446c-2.91406 -53.3291 -1.13379 -107.846 7.16504 -160.64c1.95605 -12.4326 4.32715 -24.8145 7.4502 -37.0098
c2.31348 -9.03711 6.31641 -21.8193 9.12598 -28.0088c0.975586 -2.14941 2.02246 -4.26953 3.14258 -6.34961c2.19629 0.339844 4.33398 0.90918 7.10742 2.51855c16.2002 9.40332 28.1572 29.6064 36.71 45.6377c9.83496 18.4336 17.165 38.1699 23.1787 58.1436
c12.3242 40.9277 18.4229 83.6963 18.292 126.431c-0.128906 42.2861 -6.63379 84.3408 -19.2646 124.7z" />
    <glyph glyph-name="o" unicode="&#xf6;" 
d="M79.6406 518.804c7.08496 11.793 46.6152 -16.6416 38.5273 -30.1016c-4.0918 -6.80957 -7.94531 -13.7656 -11.5771 -20.8467c35.3809 -21.9033 58.3574 -60.1621 72.7549 -99.4854c18.2383 -49.8203 26.9219 -103.272 26.3711 -156.291
c-0.5 -47.9893 -8.8457 -95.9297 -25.0527 -141.12c-7.58984 -21.167 -16.3955 -42.1787 -29.1729 -60.7988c-10.6279 -15.4863 -25.7812 -34.4893 -46.1641 -35.5254c-25.2969 -1.28711 -48.1289 21.4229 -60.0195 41.541
c-12.7666 21.6025 -18.7188 47.3418 -23.1279 71.7852c-10.7842 59.7793 -13.291 122.199 -9.55078 182.783c5.23633 84.8076 22.8232 174.505 67.0117 248.06zM83.626 3.98828c0.895508 -0.664062 1.74512 -1.10254 0 0zM145.887 367.319
c-8.48145 27.0996 -20.1377 67.8887 -49.0371 80.0234c-28.2197 -64.0732 -40.1055 -136.546 -43.8701 -205.446c-2.91406 -53.3291 -1.13379 -107.846 7.16504 -160.64c1.95605 -12.4326 4.32715 -24.8145 7.4502 -37.0098
c2.31348 -9.03711 6.31641 -21.8193 9.12598 -28.0088c0.975586 -2.14941 2.02246 -4.26953 3.14258 -6.34961c2.19629 0.339844 4.33398 0.90918 7.10742 2.51855c16.2002 9.40332 28.1572 29.6064 36.71 45.6377c9.83496 18.4336 17.165 38.1699 23.1787 58.1436
c12.3242 40.9277 18.4229 83.6963 18.292 126.431c-0.128906 42.2861 -6.63379 84.3408 -19.2646 124.7z" />
    <glyph glyph-name="o" unicode="&#xf5;" 
d="M79.6406 518.804c7.08496 11.793 46.6152 -16.6416 38.5273 -30.1016c-4.0918 -6.80957 -7.94531 -13.7656 -11.5771 -20.8467c35.3809 -21.9033 58.3574 -60.1621 72.7549 -99.4854c18.2383 -49.8203 26.9219 -103.272 26.3711 -156.291
c-0.5 -47.9893 -8.8457 -95.9297 -25.0527 -141.12c-7.58984 -21.167 -16.3955 -42.1787 -29.1729 -60.7988c-10.6279 -15.4863 -25.7812 -34.4893 -46.1641 -35.5254c-25.2969 -1.28711 -48.1289 21.4229 -60.0195 41.541
c-12.7666 21.6025 -18.7188 47.3418 -23.1279 71.7852c-10.7842 59.7793 -13.291 122.199 -9.55078 182.783c5.23633 84.8076 22.8232 174.505 67.0117 248.06zM83.626 3.98828c0.895508 -0.664062 1.74512 -1.10254 0 0zM145.887 367.319
c-8.48145 27.0996 -20.1377 67.8887 -49.0371 80.0234c-28.2197 -64.0732 -40.1055 -136.546 -43.8701 -205.446c-2.91406 -53.3291 -1.13379 -107.846 7.16504 -160.64c1.95605 -12.4326 4.32715 -24.8145 7.4502 -37.0098
c2.31348 -9.03711 6.31641 -21.8193 9.12598 -28.0088c0.975586 -2.14941 2.02246 -4.26953 3.14258 -6.34961c2.19629 0.339844 4.33398 0.90918 7.10742 2.51855c16.2002 9.40332 28.1572 29.6064 36.71 45.6377c9.83496 18.4336 17.165 38.1699 23.1787 58.1436
c12.3242 40.9277 18.4229 83.6963 18.292 126.431c-0.128906 42.2861 -6.63379 84.3408 -19.2646 124.7z" />
    <glyph glyph-name="o" unicode="&#xf4;" 
d="M79.6406 518.804c7.08496 11.793 46.6152 -16.6416 38.5273 -30.1016c-4.0918 -6.80957 -7.94531 -13.7656 -11.5771 -20.8467c35.3809 -21.9033 58.3574 -60.1621 72.7549 -99.4854c18.2383 -49.8203 26.9219 -103.272 26.3711 -156.291
c-0.5 -47.9893 -8.8457 -95.9297 -25.0527 -141.12c-7.58984 -21.167 -16.3955 -42.1787 -29.1729 -60.7988c-10.6279 -15.4863 -25.7812 -34.4893 -46.1641 -35.5254c-25.2969 -1.28711 -48.1289 21.4229 -60.0195 41.541
c-12.7666 21.6025 -18.7188 47.3418 -23.1279 71.7852c-10.7842 59.7793 -13.291 122.199 -9.55078 182.783c5.23633 84.8076 22.8232 174.505 67.0117 248.06zM83.626 3.98828c0.895508 -0.664062 1.74512 -1.10254 0 0zM145.887 367.319
c-8.48145 27.0996 -20.1377 67.8887 -49.0371 80.0234c-28.2197 -64.0732 -40.1055 -136.546 -43.8701 -205.446c-2.91406 -53.3291 -1.13379 -107.846 7.16504 -160.64c1.95605 -12.4326 4.32715 -24.8145 7.4502 -37.0098
c2.31348 -9.03711 6.31641 -21.8193 9.12598 -28.0088c0.975586 -2.14941 2.02246 -4.26953 3.14258 -6.34961c2.19629 0.339844 4.33398 0.90918 7.10742 2.51855c16.2002 9.40332 28.1572 29.6064 36.71 45.6377c9.83496 18.4336 17.165 38.1699 23.1787 58.1436
c12.3242 40.9277 18.4229 83.6963 18.292 126.431c-0.128906 42.2861 -6.63379 84.3408 -19.2646 124.7z" />
    <glyph glyph-name="o" unicode="&#xf3;" 
d="M79.6406 518.804c7.08496 11.793 46.6152 -16.6416 38.5273 -30.1016c-4.0918 -6.80957 -7.94531 -13.7656 -11.5771 -20.8467c35.3809 -21.9033 58.3574 -60.1621 72.7549 -99.4854c18.2383 -49.8203 26.9219 -103.272 26.3711 -156.291
c-0.5 -47.9893 -8.8457 -95.9297 -25.0527 -141.12c-7.58984 -21.167 -16.3955 -42.1787 -29.1729 -60.7988c-10.6279 -15.4863 -25.7812 -34.4893 -46.1641 -35.5254c-25.2969 -1.28711 -48.1289 21.4229 -60.0195 41.541
c-12.7666 21.6025 -18.7188 47.3418 -23.1279 71.7852c-10.7842 59.7793 -13.291 122.199 -9.55078 182.783c5.23633 84.8076 22.8232 174.505 67.0117 248.06zM83.626 3.98828c0.895508 -0.664062 1.74512 -1.10254 0 0zM145.887 367.319
c-8.48145 27.0996 -20.1377 67.8887 -49.0371 80.0234c-28.2197 -64.0732 -40.1055 -136.546 -43.8701 -205.446c-2.91406 -53.3291 -1.13379 -107.846 7.16504 -160.64c1.95605 -12.4326 4.32715 -24.8145 7.4502 -37.0098
c2.31348 -9.03711 6.31641 -21.8193 9.12598 -28.0088c0.975586 -2.14941 2.02246 -4.26953 3.14258 -6.34961c2.19629 0.339844 4.33398 0.90918 7.10742 2.51855c16.2002 9.40332 28.1572 29.6064 36.71 45.6377c9.83496 18.4336 17.165 38.1699 23.1787 58.1436
c12.3242 40.9277 18.4229 83.6963 18.292 126.431c-0.128906 42.2861 -6.63379 84.3408 -19.2646 124.7z" />
    <glyph glyph-name="p" unicode="p" horiz-adv-x="182" 
d="M56.0117 -59.7939c-7.9209 4.77441 -19.3975 14.0146 -19.1816 24.3027c1.98047 93.4199 4.88281 186.817 8.64355 280.182c-15.2041 4.2002 -34.9492 25.374 -27.4258 31.3457c9.94141 7.88965 19.8848 15.7881 29.7461 23.7871
c1.61816 36.7607 3.35645 73.5146 5.25195 110.262c-4.94531 -4.33594 -9.04785 -9.53027 -11.7969 -15.8643c-4.8877 -11.2637 -45.0801 15.0107 -38.5303 30.1035c8.62109 19.8652 30.6846 30.9463 53.0518 36.8623c0.102539 1.87402 0.196289 3.74512 0.298828 5.61914
c0.560547 10.0811 17.5518 2.00879 21.4189 -0.322266c0.428711 -0.257812 0.87793 -0.538086 1.33105 -0.827148c3.24512 0.421875 6.38965 0.757812 9.37891 1.00684c36.3965 3.03418 77.4043 -17.6709 93.3154 -51.416
c17.2334 -36.5498 -9.9707 -68.25 -34.6982 -92.4668c-18.6006 -18.2158 -38.4121 -35.0977 -58.5996 -51.5195c-4.83203 -110.413 -8.44629 -220.88 -10.7891 -331.377c-0.212891 -10.1211 -17.7793 -1.86914 -21.415 0.322266zM95.96 428.966
c-1.67578 -30.7041 -3.24512 -61.416 -4.72754 -92.1338c0.233398 0.210938 0.47168 0.417969 0.705078 0.630859c19.7646 18.0156 47.6328 40.0322 53.3848 67.6406c1.39355 6.6875 1.81836 20.7783 -2.64941 24.0459c-9.33203 6.82324 -27.8037 3.63184 -38.0869 1.62695
c-2.80469 -0.546875 -5.69629 -1.14648 -8.62598 -1.81055z" />
    <glyph glyph-name="q" unicode="q" 
d="M179.345 368.367c18.2383 -49.8203 26.9248 -103.273 26.376 -156.29c-0.5 -47.9893 -8.8457 -95.9287 -25.0527 -141.119c-7.58984 -21.167 -16.3955 -42.1787 -29.1729 -60.7988c-1.60059 -2.3291 -3.31445 -4.73828 -5.11914 -7.1543
c8.71875 -29.6465 16.8154 -59.4775 24.2295 -89.4883c2.64258 -10.6943 -9.66992 -8.57812 -15.7666 -5.93359c-9.40527 4.08301 -21.4385 13.0488 -24.0371 23.5654c-3.87207 15.6689 -7.94336 31.2842 -12.1709 46.8555
c-4.16504 -1.89551 -8.58594 -3.12891 -13.3018 -3.36914c-25.2969 -1.28711 -48.1289 21.4229 -60.0195 41.541c-12.7686 21.6025 -18.7207 47.3418 -23.1299 71.7852c-10.7842 59.7793 -13.291 122.199 -9.55078 182.783c5.23438 84.8076 22.8213 174.505 67.0098 248.06
c7.08301 11.793 46.6152 -16.6416 38.5293 -30.1016c-4.08984 -6.8125 -7.94629 -13.7686 -11.5781 -20.8496c35.3809 -21.9033 58.3574 -60.1621 72.7549 -99.4854zM83.626 3.9873c0.893555 -0.664062 1.74512 -1.10254 0 0zM146.857 116.187
c12.3262 40.9277 18.4229 83.6943 18.2891 126.429c-0.128906 42.2861 -6.63184 84.3408 -19.2646 124.7c-8.48145 27.0996 -20.1387 67.8896 -49.0361 80.0244c-28.2197 -64.0732 -40.1055 -136.546 -43.8701 -205.446
c-2.91406 -53.3291 -1.13379 -107.846 7.16504 -160.64c1.9541 -12.4326 4.32812 -24.8145 7.45117 -37.0098c2.31348 -9.03711 6.31641 -21.8193 9.12598 -28.0088c0.975586 -2.14941 2.02246 -4.26953 3.14258 -6.34961c2.19824 0.339844 4.33594 0.90918 7.10742 2.51855
c6.48047 3.7627 12.2725 9.26562 17.4492 15.5264c-6.49219 21.79 -13.3223 43.4795 -20.5166 65.0557c-3.58301 10.7441 10.374 8.27539 15.7656 5.93555c9.97656 -4.3291 20.5068 -12.9814 24.0361 -23.5654c1.16895 -3.50293 2.30273 -7.01855 3.4541 -10.5283
c8.11914 16.4531 14.418 33.8135 19.7012 51.3584z" />
    <glyph glyph-name="r" unicode="r" horiz-adv-x="211" 
d="M163.904 -18.6572c-8.0127 4.8291 -19.252 13.9658 -19.1699 24.3027c0.977539 132.616 16.1396 265.537 5.21191 398.077c-0.710938 8.62109 -1.12207 17.6914 -2.5752 26.4463c-4.64551 -3.125 -8.93066 -6.9541 -13.125 -10.6143
c-10.793 -9.4209 -21.6162 -20.8555 -33.6064 -30.1699c1.18652 -16.9111 0.915039 -34.0049 0.683594 -50.8584c-0.953125 -69.5205 -5.77637 -139.034 -11.0176 -208.342c-3.65137 -48.2598 -6.62695 -96.9199 -13.0566 -144.918
c-2.00879 -15.0088 -42.5615 9.94824 -40.5947 24.624c7.0166 52.3779 10.1729 105.517 14.0469 158.19c4.77148 64.9023 9.13184 129.98 10.0254 195.069c0.0419922 3.15137 0.0771484 6.30273 0.0966797 9.4541c-22.6367 0.177734 -44.2246 17.9443 -54.5859 37.2627
c-9.85645 18.3799 -11.4854 44.6768 6.85938 58.4609c21.9922 16.5225 51.0693 0.506836 66.3955 -17.7334c2.48926 -2.96289 4.76074 -6.12598 6.82324 -9.42871c0.482422 0.442383 0.964844 0.888672 1.44727 1.33105c9.19922 8.41211 18.792 17.627 29.8535 23.583
c11.79 6.34961 24.7314 3.49316 35.8438 -2.9873c24.5215 -14.3037 32.4561 -37.9111 35.2539 -64.501c2.77148 -26.3262 4.27344 -52.7764 5.01562 -79.2314c3.16504 -112.871 -7.57617 -225.518 -8.40723 -338.34c-0.0751953 -10.1328 -17.873 -1.81348 -21.418 0.322266z
M40.0889 407.964c2.60059 0.775391 5.10547 1.95605 7.54395 3.14062c4.21582 2.05371 8.18555 4.4834 11.9932 7.18359c-0.102539 1.27344 -0.200195 2.54883 -0.322266 3.82031c-0.115234 1.19824 -0.0976562 1.27148 -0.078125 1.20215
c-0.03125 0.166992 -0.109375 0.628906 -0.289062 1.7998c-0.456055 2.95605 -0.966797 5.87012 -1.74219 8.76172c-0.522461 1.94434 -1.25391 3.78027 -2.01855 5.59375c-8.0459 -3.6582 -13.6826 -10.0898 -15.2314 -19.4092
c-0.668945 -4.02734 -0.651367 -8.10742 0.144531 -12.0928z" />
    <glyph glyph-name="s" unicode="s" horiz-adv-x="186" 
d="M180.779 47.2363c3.78711 -28.3682 4.9668 -62.3848 -11.8398 -87.2441c-16.9092 -25.0039 -46.5176 -25.3711 -70.8232 -11.3428c-26.7588 15.4443 -45.2529 43.1104 -49.6182 73.5898c-4.52246 31.584 4.38086 61.7881 13.833 91.6123
c5.05859 15.958 44.7998 -11.3633 40.5947 -24.623c-10.208 -32.2041 -22.5586 -69.3535 -10.3701 -102.796c1.71582 -4.70508 3.89355 -9.59473 7.22949 -13.3555c0.31543 -0.0664062 0.666992 -0.0976562 1.04883 -0.0507812
c3.29395 0.395508 5.87207 0.0195312 9.17285 0.979492c14.6777 4.26758 24.0127 18.7852 28.042 32.7178c8.94336 30.9424 3.24512 64.4229 -4.20703 95.0156c-6.94336 28.502 -16.6738 56.3857 -28.7041 83.1318c-25.8418 57.4502 -64.6406 107.56 -91.251 164.443
c-11.5723 24.7393 -20.2109 52.2588 -11.0342 79.1865c7.69043 22.5674 24.5791 41.3252 46.5352 50.8848c28.9443 12.6016 60.6045 4.75781 83.0947 -16.667c19.2334 -18.3223 40.3271 -48.9199 35.3242 -76.8145c-2.75391 -15.3506 -43.1777 10.2354 -40.5947 24.624
c2.58887 14.4395 -3.97168 28.5078 -13.2061 39.54c-0.470703 0 -1.27344 0.331055 -2.44043 1.03125c-3.21582 -0.771484 -7.67383 0.310547 -11.0811 -0.111328c-5.96973 -0.740234 -11.8906 -2.64258 -17.3828 -5.03418
c-24.6123 -10.7168 -42.915 -36.2451 -43.6729 -63.2578c-0.824219 -29.4395 17.8516 -58.1904 32.1777 -82.5938c15.3242 -26.1035 31.9199 -51.4385 46.502 -77.9824c29.6641 -54.001 54.4678 -113.429 62.6709 -174.884zM99.6816 -26.8926
c-2.23145 2.13574 -1.73145 0.44043 0 0z" />
    <glyph glyph-name="t" unicode="t" horiz-adv-x="182" 
d="M183.11 454.372c4.03125 -5.25586 8.86133 -16.6475 -1.94727 -16.7295c-22.0605 -0.170898 -44.3389 -0.219727 -66.3105 -2.73535c0.228516 -5.64551 1.00391 -11.5283 1.03906 -14.4756c0.115234 -9.55469 0.228516 -19.1113 0.339844 -28.666
c0.240234 -20.5811 0.46875 -41.1621 0.688477 -61.7432c0.4375 -41.1611 0.833008 -82.3223 1.18457 -123.485c0.704102 -82.3242 1.2334 -164.651 1.59766 -246.979c0.0449219 -10.1416 -17.9512 -1.76758 -21.416 0.321289
c-8.0918 4.87598 -19.1309 13.9258 -19.1777 24.3008c-0.416016 94.0889 -1.0498 188.175 -1.91016 282.261c-0.428711 47.042 -0.915039 94.084 -1.45703 141.126c-0.0732422 6.40527 -0.151367 12.8125 -0.226562 19.2178
c-15.7197 -4.82031 -30.9131 -11.0479 -46.5215 -16.9551c-14.1016 -5.33887 -47.5352 28.1992 -33.7109 33.4307c25.6455 9.70996 50.0713 19.9287 77.4131 24.0156c0.580078 0.0869141 1.16211 0.149414 1.74219 0.233398
c0.257812 2.40527 0.731445 4.66309 1.55566 6.64551c4.66992 11.2217 19.6143 6.03906 30.8535 -3.45801c15.8291 0.944336 31.7051 1.17578 47.585 1.29785c10.7061 0.0820312 22.625 -9.72852 28.6787 -17.623z" />
    <glyph glyph-name="u" unicode="u" horiz-adv-x="210" 
d="M174.992 485.839c7.90332 -4.7627 19.4209 -14.0234 19.1768 -24.2979c-4.14062 -164.721 -10.8789 -329.424 -10.2725 -494.225c0.0351562 -10.1416 -17.9473 -1.76953 -21.4189 0.322266c-8.08789 4.87402 -19.1406 13.9287 -19.1787 24.3008
c-0.0556641 15.6309 -0.0292969 31.2617 0.0371094 46.8906c-2.93848 -11.0146 -6.24121 -21.918 -10.1064 -32.6104c-5.44727 -15.0732 -13.124 -39.4629 -30.6152 -44.9102c-25.1631 -7.83887 -50.5576 22.7295 -59.332 42.6924
c-12.4287 28.2793 -16.1777 60.0967 -19.5557 90.5098c-4.64941 41.8682 -6.46777 84.041 -7.24805 126.143c-1.57129 84.7715 0.588867 170.034 8.43848 254.481c1.3623 14.6396 41.9814 -9.73438 40.5967 -24.623c-8.4502 -90.9033 -10.5547 -182.827 -7.98535 -274.06
c1.08203 -38.4902 2.9248 -77.1484 7.87695 -115.358c1.94434 -15.0039 4.32031 -29.9971 7.84277 -44.7168c1.21387 -5.06738 2.57422 -10.1035 4.16113 -15.0664c0.599609 0.740234 1.18652 1.49609 1.74707 2.26953c13.0176 17.9248 18.7646 41.6797 24.2139 62.7402
c18.6426 72.041 27.6709 146.854 35.6094 220.706c7.10352 66.1025 13.0176 132.641 14.5938 199.134c0.255859 10.1172 17.7559 1.88477 21.4189 -0.322266zM68.542 -5.17285c-0.00878906 -0.139648 0.243164 -0.204102 0.87207 -0.00390625
c0.25293 -0.00683594 0.448242 -0.0205078 0.472656 -0.0449219c-0.0380859 0.0400391 -0.0761719 0.046875 -0.116211 0.0800781c-0.0664062 0.00195312 -0.139648 0.00390625 -0.212891 0.00585938c0.046875 0.015625 0.0849609 0.0263672 0.135742 0.0458984
c-0.555664 0.404297 -1.11133 0.144531 -1.1582 -0.0683594c-0.182617 -0.00878906 -0.34082 -0.0107422 -0.544922 -0.0283203c0.0556641 0.00488281 0.280273 0.0117188 0.551758 0.0136719zM84.0225 -14.3164c1.14648 -1.29785 2.74219 -2.66016 -0.0712891 0.12207
c0.0244141 -0.0400391 0.046875 -0.0820312 0.0712891 -0.12207z" />
    <glyph glyph-name="u" unicode="&#xfc;" horiz-adv-x="210" 
d="M174.992 485.839c7.90332 -4.7627 19.4209 -14.0234 19.1768 -24.2979c-4.14062 -164.721 -10.8789 -329.424 -10.2725 -494.225c0.0351562 -10.1416 -17.9473 -1.76953 -21.4189 0.322266c-8.08789 4.87402 -19.1406 13.9287 -19.1787 24.3008
c-0.0556641 15.6309 -0.0292969 31.2617 0.0371094 46.8906c-2.93848 -11.0146 -6.24121 -21.918 -10.1064 -32.6104c-5.44727 -15.0732 -13.124 -39.4629 -30.6152 -44.9102c-25.1631 -7.83887 -50.5576 22.7295 -59.332 42.6924
c-12.4287 28.2793 -16.1777 60.0967 -19.5557 90.5098c-4.64941 41.8682 -6.46777 84.041 -7.24805 126.143c-1.57129 84.7715 0.588867 170.034 8.43848 254.481c1.3623 14.6396 41.9814 -9.73438 40.5967 -24.623c-8.4502 -90.9033 -10.5547 -182.827 -7.98535 -274.06
c1.08203 -38.4902 2.9248 -77.1484 7.87695 -115.358c1.94434 -15.0039 4.32031 -29.9971 7.84277 -44.7168c1.21387 -5.06738 2.57422 -10.1035 4.16113 -15.0664c0.599609 0.740234 1.18652 1.49609 1.74707 2.26953c13.0176 17.9248 18.7646 41.6797 24.2139 62.7402
c18.6426 72.041 27.6709 146.854 35.6094 220.706c7.10352 66.1025 13.0176 132.641 14.5938 199.134c0.255859 10.1172 17.7559 1.88477 21.4189 -0.322266zM68.542 -5.17285c-0.00878906 -0.139648 0.243164 -0.204102 0.87207 -0.00390625
c0.25293 -0.00683594 0.448242 -0.0205078 0.472656 -0.0449219c-0.0380859 0.0400391 -0.0761719 0.046875 -0.116211 0.0800781c-0.0664062 0.00195312 -0.139648 0.00390625 -0.212891 0.00585938c0.046875 0.015625 0.0849609 0.0263672 0.135742 0.0458984
c-0.555664 0.404297 -1.11133 0.144531 -1.1582 -0.0683594c-0.182617 -0.00878906 -0.34082 -0.0107422 -0.544922 -0.0283203c0.0556641 0.00488281 0.280273 0.0117188 0.551758 0.0136719zM84.0225 -14.3164c1.14648 -1.29785 2.74219 -2.66016 -0.0712891 0.12207
c0.0244141 -0.0400391 0.046875 -0.0820312 0.0712891 -0.12207z" />
    <glyph glyph-name="u" unicode="&#xfb;" horiz-adv-x="210" 
d="M174.992 485.839c7.90332 -4.7627 19.4209 -14.0234 19.1768 -24.2979c-4.14062 -164.721 -10.8789 -329.424 -10.2725 -494.225c0.0351562 -10.1416 -17.9473 -1.76953 -21.4189 0.322266c-8.08789 4.87402 -19.1406 13.9287 -19.1787 24.3008
c-0.0556641 15.6309 -0.0292969 31.2617 0.0371094 46.8906c-2.93848 -11.0146 -6.24121 -21.918 -10.1064 -32.6104c-5.44727 -15.0732 -13.124 -39.4629 -30.6152 -44.9102c-25.1631 -7.83887 -50.5576 22.7295 -59.332 42.6924
c-12.4287 28.2793 -16.1777 60.0967 -19.5557 90.5098c-4.64941 41.8682 -6.46777 84.041 -7.24805 126.143c-1.57129 84.7715 0.588867 170.034 8.43848 254.481c1.3623 14.6396 41.9814 -9.73438 40.5967 -24.623c-8.4502 -90.9033 -10.5547 -182.827 -7.98535 -274.06
c1.08203 -38.4902 2.9248 -77.1484 7.87695 -115.358c1.94434 -15.0039 4.32031 -29.9971 7.84277 -44.7168c1.21387 -5.06738 2.57422 -10.1035 4.16113 -15.0664c0.599609 0.740234 1.18652 1.49609 1.74707 2.26953c13.0176 17.9248 18.7646 41.6797 24.2139 62.7402
c18.6426 72.041 27.6709 146.854 35.6094 220.706c7.10352 66.1025 13.0176 132.641 14.5938 199.134c0.255859 10.1172 17.7559 1.88477 21.4189 -0.322266zM68.542 -5.17285c-0.00878906 -0.139648 0.243164 -0.204102 0.87207 -0.00390625
c0.25293 -0.00683594 0.448242 -0.0205078 0.472656 -0.0449219c-0.0380859 0.0400391 -0.0761719 0.046875 -0.116211 0.0800781c-0.0664062 0.00195312 -0.139648 0.00390625 -0.212891 0.00585938c0.046875 0.015625 0.0849609 0.0263672 0.135742 0.0458984
c-0.555664 0.404297 -1.11133 0.144531 -1.1582 -0.0683594c-0.182617 -0.00878906 -0.34082 -0.0107422 -0.544922 -0.0283203c0.0556641 0.00488281 0.280273 0.0117188 0.551758 0.0136719zM84.0225 -14.3164c1.14648 -1.29785 2.74219 -2.66016 -0.0712891 0.12207
c0.0244141 -0.0400391 0.046875 -0.0820312 0.0712891 -0.12207z" />
    <glyph glyph-name="u" unicode="&#xfa;" horiz-adv-x="210" 
d="M174.992 485.839c7.90332 -4.7627 19.4209 -14.0234 19.1768 -24.2979c-4.14062 -164.721 -10.8789 -329.424 -10.2725 -494.225c0.0351562 -10.1416 -17.9473 -1.76953 -21.4189 0.322266c-8.08789 4.87402 -19.1406 13.9287 -19.1787 24.3008
c-0.0556641 15.6309 -0.0292969 31.2617 0.0371094 46.8906c-2.93848 -11.0146 -6.24121 -21.918 -10.1064 -32.6104c-5.44727 -15.0732 -13.124 -39.4629 -30.6152 -44.9102c-25.1631 -7.83887 -50.5576 22.7295 -59.332 42.6924
c-12.4287 28.2793 -16.1777 60.0967 -19.5557 90.5098c-4.64941 41.8682 -6.46777 84.041 -7.24805 126.143c-1.57129 84.7715 0.588867 170.034 8.43848 254.481c1.3623 14.6396 41.9814 -9.73438 40.5967 -24.623c-8.4502 -90.9033 -10.5547 -182.827 -7.98535 -274.06
c1.08203 -38.4902 2.9248 -77.1484 7.87695 -115.358c1.94434 -15.0039 4.32031 -29.9971 7.84277 -44.7168c1.21387 -5.06738 2.57422 -10.1035 4.16113 -15.0664c0.599609 0.740234 1.18652 1.49609 1.74707 2.26953c13.0176 17.9248 18.7646 41.6797 24.2139 62.7402
c18.6426 72.041 27.6709 146.854 35.6094 220.706c7.10352 66.1025 13.0176 132.641 14.5938 199.134c0.255859 10.1172 17.7559 1.88477 21.4189 -0.322266zM68.542 -5.17285c-0.00878906 -0.139648 0.243164 -0.204102 0.87207 -0.00390625
c0.25293 -0.00683594 0.448242 -0.0205078 0.472656 -0.0449219c-0.0380859 0.0400391 -0.0761719 0.046875 -0.116211 0.0800781c-0.0664062 0.00195312 -0.139648 0.00390625 -0.212891 0.00585938c0.046875 0.015625 0.0849609 0.0263672 0.135742 0.0458984
c-0.555664 0.404297 -1.11133 0.144531 -1.1582 -0.0683594c-0.182617 -0.00878906 -0.34082 -0.0107422 -0.544922 -0.0283203c0.0556641 0.00488281 0.280273 0.0117188 0.551758 0.0136719zM84.0225 -14.3164c1.14648 -1.29785 2.74219 -2.66016 -0.0712891 0.12207
c0.0244141 -0.0400391 0.046875 -0.0820312 0.0712891 -0.12207z" />
    <glyph glyph-name="v" unicode="v" horiz-adv-x="204" 
d="M109.975 45.8516c1.63574 10.7881 3.16992 21.5859 4.69922 32.3916c10.1748 72.043 19.4629 144.233 27.4482 216.555c4.14453 37.5566 7.99414 75.1709 10.6123 112.869c0.984375 14.1934 1.81152 28.4062 2.10742 42.6328
c0.12207 5.91406 0.162109 11.833 -0.0263672 17.7451c-0.0712891 2.23633 -0.202148 4.46582 -0.326172 6.69922c-0.0507812 0.964844 -0.150391 1.9248 -0.232422 2.88672c-0.00683594 0.0507812 -0.0136719 0.0820312 -0.0205078 0.137695
c-1.38281 10.4834 8.68066 9.00977 15.7656 5.93359c8.60352 -3.7334 22.6836 -13.2988 24.0371 -23.5645c3.52539 -26.7217 0.933594 -54.3896 -0.995117 -81.1309c-2.98242 -41.3701 -7.33594 -82.6445 -12.0078 -123.853
c-7.82812 -69.0469 -16.7314 -137.989 -26.5127 -206.788c-3.64941 -25.6729 -5.7168 -53.6816 -16.9785 -77.2119c-6.77441 -14.1533 -16.0977 -21.8389 -32.1514 -14.8887c-15.5352 6.72363 -27.8232 20.9033 -35.3574 35.7852
c-5.4834 10.8262 -8.9502 21.9502 -10.9658 33.7803c-11.3057 66.3496 -17.5908 133.774 -25.4805 200.584c-9.5791 81.1201 -18.6562 162.322 -29.46 243.291c-1.40039 10.4883 8.69434 9.00391 15.7666 5.93457c8.61426 -3.73828 22.665 -13.2949 24.0361 -23.5654
c4.84082 -36.2871 9.22559 -72.6387 13.5771 -108.988c9.0791 -75.8105 17.7695 -151.668 27.0244 -227.458c3.48926 -28.584 6.9873 -57.1748 11.0303 -85.6875c1.20703 -8.5127 2.40918 -17.043 3.9668 -25.5c0.09375 -0.510742 0.196289 -1.01953 0.290039 -1.53027
c0.249023 0.604492 0.489258 1.19336 0.71582 1.74023c3.44727 8.34375 5.32715 17.3252 6.96973 26.1689c0.926758 4.99414 1.70508 10.0127 2.46777 15.0312zM107.477 -19.5352c2.36914 -4.28027 2.66895 -2.73633 0 0z" />
    <glyph glyph-name="w" unicode="w" horiz-adv-x="253" 
d="M77.3936 449.916c-11.4414 -45.3975 -16.9541 -91.9355 -19.6475 -138.615c-4.78027 -82.9355 -5.19336 -167.925 8.73535 -250.05c3.08887 -18.209 7.11133 -36.3623 13.6035 -53.6895c0.360352 -0.961914 0.776367 -1.89746 1.16113 -2.84863
c1.72266 2.91406 3.08496 6.03223 4.42969 9.13965c15.8799 36.6982 25.6279 76.1416 31.0596 115.676c2.13184 15.5088 41.6035 -10.5283 40.5947 -24.624c-2.66211 -37.2627 -3.53516 -75.5234 6.82227 -111.784c1.10254 -3.85645 2.47559 -7.54102 3.9248 -11.1885
c1.88867 1.77539 3.83984 3.51758 5.35352 5.80469c7.02344 10.6191 10.2725 23.6338 12.6865 36.0332c6.09668 31.3018 7.00098 63.8594 8.06348 95.6396c1.49609 44.7285 1.42676 89.5146 0.682617 134.259c-1.22656 73.5459 -1.84863 151.905 -12.0371 222.966
c-1.50684 10.5127 8.78125 8.96582 15.7666 5.93457c8.68359 -3.76953 22.5586 -13.2666 24.0342 -23.5654c5.80566 -40.499 7.61523 -81.6934 9.49512 -122.519c4.36914 -94.8379 6.99609 -190.72 0.501953 -285.52c-1.0957 -15.9795 -2.43848 -32.0303 -5.18359 -47.8232
c-3.73633 -21.5098 -11.8105 -58.9502 -38.6299 -60.9238c-19.2822 -1.41797 -38.0645 15.0332 -48.0146 30.0215c-4.79883 7.22949 -8.6123 15.248 -11.7129 23.5645c-0.351562 -0.897461 -0.689453 -1.80176 -1.04492 -2.69727
c-4.02734 -10.1523 -7.75195 -22.4004 -17.6621 -28.3633c-21.1162 -12.7041 -45.7822 13.6289 -55.6436 29.7578c-10.8086 17.6807 -17.832 37.875 -22.6992 57.9307c-10.7549 44.3125 -14.3955 90.9326 -16.3486 136.372
c-4.06738 94.5576 -2.11816 193.554 21.1143 285.735c3.96973 15.751 44.082 -10.7881 40.5947 -24.623z" />
    <glyph glyph-name="x" unicode="x" horiz-adv-x="198" 
d="M195.887 4.51855c1.38672 -2.97168 5.13672 -8.85742 0.335938 -1.79688c3.93652 -5.79004 9.0332 -15.9736 -1.94434 -16.7334c-10.1367 -0.700195 -23.3203 9.74609 -28.6787 17.623c-12.9951 19.1025 -19.6738 43.4746 -27.5576 64.9727
c-12.7598 34.8008 -25.0596 69.7744 -37.1016 104.839c-18.7607 -58.6484 -37.6475 -117.252 -56.9365 -175.729c-5.27148 -15.9844 -44.9277 11.4863 -40.5938 24.624c24.666 74.7725 48.6777 149.756 72.5967 224.771c-5.4873 16.416 -10.9482 32.8379 -16.3916 49.2646
c-19.5186 58.9121 -40.8574 117.974 -56.2324 178.155c-2.73633 10.7041 9.74121 8.55078 15.7666 5.93457c9.46387 -4.10742 21.3477 -13.0371 24.0371 -23.5654c6.70312 -26.2324 15.3418 -52.043 23.5566 -77.8262c8.48828 -26.6484 17.1494 -53.2412 25.8838 -79.8135
c18.9141 59.3525 37.8496 118.698 57.0791 177.951c5.18262 15.9736 44.875 -11.4346 40.5947 -24.623c-24.5986 -75.7969 -48.7148 -151.75 -72.9229 -227.674c8.85938 -26.2832 17.7832 -52.5469 26.8242 -78.7656c11.6035 -33.6494 23.3252 -67.2676 35.6582 -100.656
c4.16309 -11.2656 8.36816 -22.5225 12.8936 -33.6504c0.40918 -1.00684 0.827148 -2.01172 1.23828 -3.0166c0.625 -1.43164 1.23438 -2.86914 1.89453 -4.28516z" />
    <glyph glyph-name="y" unicode="y" horiz-adv-x="180" 
d="M144.931 465.847c12.8193 -57.5215 20.2559 -116.259 21.9541 -175.178c1.49805 -52.1094 -1.51562 -104.343 -9.02344 -155.93c-6.95898 -47.793 -16.3955 -96.7822 -37.5322 -140.582c-8.14551 -16.8799 -19.7695 -42.0234 -41.0654 -44.293
c-25.8281 -2.75195 -47.7402 22.4697 -56.1748 44.251c-17.8135 46.0068 -12.6465 97.1895 -3.75391 144.516c2.89551 15.4062 43.2881 -10.293 40.5967 -24.624c-4.5498 -24.208 -8.10547 -48.6963 -8.10547 -73.3799c0 -11.9971 0.824219 -23.9434 3.05762 -35.7432
c1.0332 -5.46289 2.58203 -10.6523 4.27148 -15.7861c2.91797 2.53613 5.44727 5.72363 7.66992 8.79785c5.50781 7.61426 9.98145 16.2217 14.1201 24.6318c9.2793 18.8604 15.9111 38.8145 21.1768 59.1328c11.0127 42.5127 17.4492 86.4609 21.2119 130.176
c5.5498 64.4863 4.02051 129.331 -4.39844 193.362c-10.8037 -16.6309 -24.8525 -29.7617 -43.9219 -30.9844c-23.3252 -1.49316 -44.7012 15.876 -56.6055 34.5234c-10.9775 17.1982 -16.1426 37.0322 -15.3203 57.375c0.40625 10.1016 17.6504 1.94727 21.415 -0.322266
c7.79395 -4.69824 19.5908 -14.084 19.1777 -24.3008c-0.31543 -7.80762 0.229492 -15.2178 2.24707 -22.7852c0.787109 -2.95605 1.73145 -5.88086 2.92676 -8.69434c0.0644531 -0.151367 0.182617 -0.364258 0.311523 -0.588867
c1.43359 0.166992 2.87402 0.325195 3.91211 0.71875c5.57617 2.11816 10.0371 5.64941 14.1729 9.87207c18.7002 19.0986 28.7549 45.3379 38.5137 69.7031c2.57324 6.42285 17.1016 -1.08496 20.3838 -3.06348c7.06055 -4.25586 16.875 -12.2432 18.7822 -20.8047z" />
    <glyph glyph-name="y" unicode="&#xff;" horiz-adv-x="180" 
d="M144.931 465.847c12.8193 -57.5215 20.2559 -116.259 21.9541 -175.178c1.49805 -52.1094 -1.51562 -104.343 -9.02344 -155.93c-6.95898 -47.793 -16.3955 -96.7822 -37.5322 -140.582c-8.14551 -16.8799 -19.7695 -42.0234 -41.0654 -44.293
c-25.8281 -2.75195 -47.7402 22.4697 -56.1748 44.251c-17.8135 46.0068 -12.6465 97.1895 -3.75391 144.516c2.89551 15.4062 43.2881 -10.293 40.5967 -24.624c-4.5498 -24.208 -8.10547 -48.6963 -8.10547 -73.3799c0 -11.9971 0.824219 -23.9434 3.05762 -35.7432
c1.0332 -5.46289 2.58203 -10.6523 4.27148 -15.7861c2.91797 2.53613 5.44727 5.72363 7.66992 8.79785c5.50781 7.61426 9.98145 16.2217 14.1201 24.6318c9.2793 18.8604 15.9111 38.8145 21.1768 59.1328c11.0127 42.5127 17.4492 86.4609 21.2119 130.176
c5.5498 64.4863 4.02051 129.331 -4.39844 193.362c-10.8037 -16.6309 -24.8525 -29.7617 -43.9219 -30.9844c-23.3252 -1.49316 -44.7012 15.876 -56.6055 34.5234c-10.9775 17.1982 -16.1426 37.0322 -15.3203 57.375c0.40625 10.1016 17.6504 1.94727 21.415 -0.322266
c7.79395 -4.69824 19.5908 -14.084 19.1777 -24.3008c-0.31543 -7.80762 0.229492 -15.2178 2.24707 -22.7852c0.787109 -2.95605 1.73145 -5.88086 2.92676 -8.69434c0.0644531 -0.151367 0.182617 -0.364258 0.311523 -0.588867
c1.43359 0.166992 2.87402 0.325195 3.91211 0.71875c5.57617 2.11816 10.0371 5.64941 14.1729 9.87207c18.7002 19.0986 28.7549 45.3379 38.5137 69.7031c2.57324 6.42285 17.1016 -1.08496 20.3838 -3.06348c7.06055 -4.25586 16.875 -12.2432 18.7822 -20.8047z" />
    <glyph glyph-name="y" unicode="&#xfd;" horiz-adv-x="180" 
d="M144.931 465.847c12.8193 -57.5215 20.2559 -116.259 21.9541 -175.178c1.49805 -52.1094 -1.51562 -104.343 -9.02344 -155.93c-6.95898 -47.793 -16.3955 -96.7822 -37.5322 -140.582c-8.14551 -16.8799 -19.7695 -42.0234 -41.0654 -44.293
c-25.8281 -2.75195 -47.7402 22.4697 -56.1748 44.251c-17.8135 46.0068 -12.6465 97.1895 -3.75391 144.516c2.89551 15.4062 43.2881 -10.293 40.5967 -24.624c-4.5498 -24.208 -8.10547 -48.6963 -8.10547 -73.3799c0 -11.9971 0.824219 -23.9434 3.05762 -35.7432
c1.0332 -5.46289 2.58203 -10.6523 4.27148 -15.7861c2.91797 2.53613 5.44727 5.72363 7.66992 8.79785c5.50781 7.61426 9.98145 16.2217 14.1201 24.6318c9.2793 18.8604 15.9111 38.8145 21.1768 59.1328c11.0127 42.5127 17.4492 86.4609 21.2119 130.176
c5.5498 64.4863 4.02051 129.331 -4.39844 193.362c-10.8037 -16.6309 -24.8525 -29.7617 -43.9219 -30.9844c-23.3252 -1.49316 -44.7012 15.876 -56.6055 34.5234c-10.9775 17.1982 -16.1426 37.0322 -15.3203 57.375c0.40625 10.1016 17.6504 1.94727 21.415 -0.322266
c7.79395 -4.69824 19.5908 -14.084 19.1777 -24.3008c-0.31543 -7.80762 0.229492 -15.2178 2.24707 -22.7852c0.787109 -2.95605 1.73145 -5.88086 2.92676 -8.69434c0.0644531 -0.151367 0.182617 -0.364258 0.311523 -0.588867
c1.43359 0.166992 2.87402 0.325195 3.91211 0.71875c5.57617 2.11816 10.0371 5.64941 14.1729 9.87207c18.7002 19.0986 28.7549 45.3379 38.5137 69.7031c2.57324 6.42285 17.1016 -1.08496 20.3838 -3.06348c7.06055 -4.25586 16.875 -12.2432 18.7822 -20.8047z" />
    <glyph glyph-name="z" unicode="z" horiz-adv-x="159" 
d="M43.7129 415.049c-7.7207 -11.835 -46.9668 17.1709 -38.5322 30.0996c20.4854 31.3906 62.3242 42.6543 92.3818 17.8682c17.2754 -14.2461 21.4541 -31.2354 15.3799 -52.1719c-2.45605 -8.46387 -5.7627 -16.7676 -9.43164 -24.7705
c-1.6377 -3.56934 -4.49609 -7.88281 -7.1123 -12.3105c2.53613 -1.58496 5.02344 -3.24512 7.40332 -5.03613c11.3701 -8.55859 20.918 -19.625 28.1055 -31.8818c14.0371 -23.9385 18.5469 -52.8223 19.6963 -80.1572
c2.35547 -56.0674 -7.66992 -114.044 -22.2812 -167.991c-6.73828 -24.8877 -14.1953 -50.4004 -26.0771 -73.3945c-10.4365 -20.1982 -27.2812 -47.0215 -53.3955 -35.7598c-28.4131 12.2529 -36.3545 39.3145 -38.2881 67.6113
c-1.91797 28.0703 1.82715 56.832 6.99414 84.3867c10.126 53.9941 29.0977 105.835 49.8184 156.549c4.54492 11.124 44.7881 -14.7842 38.5293 -30.1045c-25.1455 -61.5459 -47.2979 -125.335 -53.5635 -191.929c-1.31836 -13.9844 -2.17188 -28.1689 -1.27441 -42.2178
c13.5752 16.4648 21.4893 40.1016 27.5791 58.8799c18.1963 56.1123 29.4219 115.329 31.4023 174.34c0.900391 26.7969 -0.317383 55.7832 -11.0742 80.7871c-1.93164 4.49219 -4.57227 8.41504 -7.11035 12.5107
c-0.0175781 0.0292969 -0.03125 0.046875 -0.0488281 0.0761719c0.271484 -0.09375 0.558594 -0.171875 0.880859 -0.209961c-0.275391 0.03125 -0.583984 0.135742 -0.901367 0.242188c-2.66895 4.24512 -2.82031 1.27832 -0.395508 0.128906
c-0.411133 0.133789 -0.820312 0.238281 -1.18066 0.178711c-13.6553 -2.26465 -31.4707 13.0508 -37.665 23.1943c-7.89258 12.9238 2.15527 23.3301 8.00977 35.0986c4.82031 9.69238 9.44727 19.9785 12.0146 30.6396
c-1.30273 -0.498047 -2.58691 -1.0332 -3.84473 -1.59766c-11.0635 -4.9541 -19.4512 -12.9951 -26.0186 -23.0586z" />
    <glyph glyph-name="braceleft" unicode="{" horiz-adv-x="206" 
d="M119.355 -72.7529c11.5479 7.68066 47.7402 -24.1045 33.7188 -33.4346c-23.6855 -15.7529 -56.6592 13.8916 -67.2314 33.3145c-12.0859 22.2012 -13.8311 49.4297 -14.2227 74.1816c-0.456055 28.8906 0.946289 57.8477 3.94238 86.583
c1.45801 13.9932 3.56055 27.8662 5.54102 41.7881c0.428711 3.01562 0.626953 5.89844 0.736328 8.76758c-15.1465 2.01172 -38.2119 24.5479 -30.1865 32.0352c11.6973 10.9131 14.8662 25.457 16.6084 40.8125c2.07324 18.2734 3.21973 36.6934 4.20898 55.0518
c2.03613 37.7783 2.47363 75.6279 1.99609 113.453c-0.421875 33.6113 -4.82715 68.7275 -0.191406 102.159c3.14062 22.6455 17.874 64.1064 48.1846 53.8877c10.5391 -3.55176 22.1094 -11.0059 27.2461 -21.2852c3.8916 -7.78516 0.291016 -14.8994 -9.15234 -11.7148
c-9.25488 3.11816 -20.4609 -23.4209 -22.3457 -29.6172c-3.84082 -12.6221 -4.72363 -26.0664 -4.86328 -39.1855c-0.355469 -33.542 1.79785 -67.1426 1.88672 -100.7c0.09375 -35.6426 -0.739258 -71.2969 -3.07324 -106.866
c-1.31836 -20.0918 -0.698242 -45.6602 -8.75684 -66.0166c5.4541 -4.90332 9.98145 -10.3037 12.877 -15.2773c13.6992 -23.5322 2.80664 -54.5723 0.101562 -79.7998c-3.08496 -28.7822 -4.5498 -57.7754 -4.19824 -86.7217
c0.170898 -13.9707 0.820312 -27.9502 3.80469 -41.6387c0.740234 -3.39648 1.87109 -6.67871 2.99121 -9.95215c0.264648 0.128906 0.417969 0.202148 0.37793 0.175781zM111.272 -75.7383c-0.0712891 -0.200195 0.0751953 -0.261719 0.348633 -0.242188
c-0.115234 0.0820312 -0.233398 0.162109 -0.348633 0.242188z" />
    <glyph glyph-name="verticalbar" unicode="|" horiz-adv-x="157" 
d="M88.124 526.597c7.76758 -4.68066 19.6289 -14.0957 19.1777 -24.2998c-1.89551 -42.7061 -3.65137 -85.4189 -5.25781 -128.136c-5.59375 -148.773 -9.3916 -297.614 -11.4473 -446.481c-0.139648 -10.1279 -17.8291 -1.83984 -21.416 0.322266
c-7.97266 4.80469 -19.3213 13.9883 -19.1787 24.3008c0.59082 42.7441 1.31738 85.4854 2.19531 128.225c3.06055 148.85 7.91406 297.659 14.5107 446.393c0.446289 10.0967 17.624 1.96191 21.416 -0.323242z" />
    <glyph glyph-name="braceright" unicode="}" horiz-adv-x="210" 
d="M158.612 183.711c2.57812 -5.9873 3.07227 -11.9014 -4.83301 -12.3906c-1.52246 -0.09375 -3.11621 0.0927734 -4.73633 0.479492c-6.84082 -5.30957 -8.64746 -18.9141 -9.6123 -26.2393c-1.75586 -13.3418 -0.602539 -26.6924 1.58691 -39.9033
c4.58496 -27.6553 10.2705 -54.2832 8.36816 -82.5244c-1.96289 -29.1309 -9.06348 -57.6455 -16.4062 -85.8047c-4.90723 -18.8184 -11.3838 -40.1504 -31.582 -47.2422c-14.3086 -5.02539 -47.4062 28.624 -33.7129 33.4316
c23.2363 8.15918 26.6875 45.1816 31.4414 65.4043c7.08984 30.1572 12.6221 61.6484 9.24609 92.708c-3.20703 29.5059 -13.4814 58.5586 -9.53613 88.5537c1.41797 10.7842 4.55859 26.1221 13.4043 33.3789c1.54004 1.2627 3.15332 2.19141 4.81543 2.84473
c-16.585 45.5283 -19.2471 93.5332 -19.7871 141.971c-0.295898 26.4521 -0.205078 52.9443 -2.1875 79.3418c-1.01562 13.5107 -2.66895 26.9502 -5.2627 40.2539c-1.00488 5.14258 -1.97363 10.4697 -3.45801 15.5684c-13.9355 -4.77148 -46.8711 27.4375 -33.0361 33.665
c15.9023 7.15625 34.5225 -2.08301 47.0264 -12.1113c13.4814 -10.8125 22.1426 -25.2549 26.4434 -41.8662c7.79883 -30.126 9.63477 -61.9619 10.4463 -92.9463c1.62695 -62.0508 -3.79785 -128.133 21.3721 -186.572z" />
    <glyph glyph-name="nonbreakingspace" unicode="&#xa0;" horiz-adv-x="142" 
 />
    <glyph glyph-name="exclamdown" unicode="&#xa1;" horiz-adv-x="155" 
d="M99.7656 417.753c9.14355 -160.716 7.05566 -321.937 -6.25293 -482.361c-1.20508 -14.542 -41.833 9.69043 -40.5947 24.624c13.3086 160.425 15.3975 321.645 6.25391 482.36c-0.578125 10.1523 18.2891 1.5625 21.416 -0.322266
c8.43848 -5.08496 18.5781 -13.7705 19.1777 -24.3008zM90.7012 463.301c-2.55859 -15.2686 -43.0205 10.1543 -40.5957 24.623c1.79395 10.7061 2.3877 21.4209 1.78809 32.2598c-0.566406 10.2061 18.2832 1.48047 21.417 -0.322266
c8.47461 -4.87402 18.6025 -13.915 19.1777 -24.3008c0.602539 -10.8389 0.00683594 -21.5537 -1.78711 -32.2598z" />
    <glyph glyph-name="cent" unicode="&#xa2;" horiz-adv-x="302" 
d="M252.112 422.69c2.34668 -10.6592 -9.43945 -8.68066 -15.7646 -5.93555c-9.22168 4.00293 -21.7305 13.0908 -24.0371 23.5654c-0.015625 0.0732422 -0.37793 2.02051 -0.869141 3.81836c-0.573242 0.235352 -1.19824 0.442383 -1.8252 0.555664
c-9.91699 1.78906 -20.6855 -2.07324 -29.3643 -6.51562c-2.50488 -1.28027 -4.93164 -2.71387 -7.29395 -4.25879c-1.15137 -19.5293 -2.12695 -39.0674 -2.88281 -58.6191c-4.59375 -118.983 -2.36914 -238.044 1.27539 -357.031
c8.91504 0.0332031 18.0605 3.14062 24.5635 8.29004c12.9502 10.2529 48.1816 -22.4609 38.5293 -30.1045c-19.9365 -15.7861 -41.666 -15.9814 -62.1582 -7.89844c0.702148 -21.6914 1.43359 -43.3809 2.16699 -65.0664
c0.344727 -10.1523 -18.1426 -1.65137 -21.416 0.322266c-8.28809 4.99414 -18.8252 13.835 -19.1787 24.3008c-0.762695 22.5205 -1.52051 45.041 -2.24512 67.5615c-13.584 12.7686 -25.0566 27.4727 -32.915 40.5215c-51.2939 85.1699 -60.4482 192.493 -35.0557 287.546
c11.7656 44.0459 31.0752 91.1572 69.0049 118.981c1.33594 22.3184 2.90723 44.626 4.81445 66.918c1.24707 14.5664 41.873 -9.70117 40.5947 -24.623c-0.744141 -8.69629 -1.41309 -17.3975 -2.07129 -26.1006c8.20312 0.224609 16.5645 -1.09766 24.9453 -4.2334
c22.5361 -8.43262 45.793 -27.5107 51.1826 -51.9941zM127.041 60.9805c1.09082 -2.07129 2.22461 -4.2666 3.40039 -6.52051c-0.235352 7.89844 -0.498047 15.7969 -0.717773 23.6953c-2.8252 101.505 -4.14551 203.154 -0.776367 304.644
c-16.5938 -29.5947 -26.0244 -63.2148 -31.9941 -96.3887c-6.80566 -37.8203 -8.49902 -77.0371 -3.66992 -115.207c4.84277 -38.2656 15.751 -76.042 33.7578 -110.223zM209.96 447.166c0.0908203 0.0136719 0.384766 -0.345703 0.71582 -0.786133
c-0.238281 0.501953 -0.482422 0.819336 -0.71582 0.786133z" />
    <glyph glyph-name="sterling" unicode="&#xa3;" horiz-adv-x="253" 
d="M198.655 466.113c3.25781 -4.24902 9.27734 -18.3125 -1.94238 -16.7344c-16.8135 2.3584 -28.8105 -23.0586 -34.1533 -35.7695c-7.01172 -16.6797 -10.3525 -34.9375 -13.2861 -52.707c-6.51855 -39.4834 -8.55859 -79.8818 -9.9541 -120.396
c9.6416 0.529297 19.4717 -6.61621 25.875 -12.999c2.68066 -2.67383 15.5361 -18.7803 5.49512 -20.7031c-10.8906 -2.08496 -21.7832 -4.16992 -32.6738 -6.25488c-1.79785 -52.5186 -4.63379 -104.792 -16.8555 -155.097
c11.2773 4.70508 22.9102 8.55859 34.8145 11.5459c10.0391 2.52051 21.6562 -6.18555 28.2197 -12.7285c2.96973 -2.95996 15.3623 -18.2266 5.49414 -20.7021c-19.8027 -4.96777 -38.8789 -12.2158 -56.7832 -22.0635
c-9.1875 -5.05176 -18.0283 -10.708 -26.3633 -17.0732c-2.94727 -2.25098 -6.32324 -4.61816 -9.20801 -7.34473c-2.43555 -5.16309 -5.00879 -10.2969 -7.76074 -15.3955c-3.86914 -7.16992 -19.2227 2.30664 -23.0605 4.91406
c-6.75 4.58301 -16.8379 13.2246 -16.502 22.4482c0.255859 7.0166 3.85449 13.2529 9.04199 18.7783c13.624 29.3838 22.4004 60.5996 28.0029 92.6064c5.34473 30.5264 7.86914 61.2949 9.36719 92.1523c-1.97852 -0.37793 -3.9541 -0.757812 -5.93262 -1.13574
c-10.3662 -1.98438 -21.2969 5.8252 -28.2197 12.7285c-2.68066 2.67383 -15.5361 18.7803 -5.49512 20.7031c13.7197 2.62695 27.4395 5.25195 41.1592 7.87891c0.799805 26.1885 1.41992 52.3896 2.94922 78.5068c2.09375 35.7715 5.35156 72.2412 14.5107 106.99
c6.3457 24.0654 22.3164 70.001 54.5811 65.4736c11.2773 -1.58203 21.7852 -8.62988 28.6797 -17.6221z" />
    <glyph glyph-name="currency" unicode="&#xa4;" horiz-adv-x="351" 
d="M261.208 349.197c12.8818 10.3037 48.1875 -22.3721 38.5264 -30.1064c-12.584 -10.0635 -25.0215 -20.3008 -37.334 -30.6826c5.08301 -8.34082 8.43945 -17.7441 9.50391 -28.0967c3.4248 -33.2803 -10.5078 -67.2051 -32.7021 -91.6396
c-2.90918 -3.20508 -6.05371 -6.37402 -9.3916 -9.44531c5.12988 -7.96777 10.4531 -15.8203 16.0518 -23.5078c4.18066 -5.73828 8.85938 -15.9844 -1.94434 -16.7334c-10.3545 -0.71582 -23.0029 9.83008 -28.6797 17.6221c-1.7666 2.42676 -3.5 4.87598 -5.21777 7.33398
c-19.6562 -12.5264 -42.7109 -19.752 -65.0381 -13.707c-11.5967 3.14062 -22.5986 9.39941 -31.9648 17.5186c-7.72559 -8.11914 -15.3848 -16.3027 -22.9658 -24.5615c-10.5127 -11.4551 -48.0156 19.7666 -38.5303 30.1035
c11.4375 12.4619 23.0498 24.7568 34.8154 36.8984c-3.02051 13.0088 -2.65625 26.7461 -0.0888672 40.0127c4.96094 25.6436 16.3252 49.625 32.5811 69.8057c-9.42578 15.0527 -19.4854 29.7129 -30.6201 43.7061c-4.50488 5.66113 -8.625 16.0029 1.94531 16.7344
c10.6455 0.735352 22.583 -9.96387 28.6797 -17.623c6.23438 -7.83398 12.124 -15.873 17.7578 -24.0654c1 0.900391 1.98926 1.81152 3.01172 2.68457c4.66309 3.98242 12.626 1.89355 20.2383 -2.70508c-0.0351562 2.12891 0.982422 3.75098 3.77637 4.26172
c21.5029 3.93359 42.126 5.57129 61.9824 -3.04102c11.751 9.88379 23.6123 19.6387 35.6074 29.2334zM145.777 253.704c-2.08008 -3.37207 -4.01562 -6.82715 -5.82031 -10.3496c2.51562 2.39355 5.05176 4.76953 7.58105 7.14941
c-0.586914 1.06641 -1.17188 2.13574 -1.76074 3.2002zM130.92 160.168c0.193359 -0.273438 0.360352 -0.404297 0.466797 -0.275391c-0.173828 0.0996094 -0.302734 0.179688 -0.466797 0.275391zM168.925 173.361c5.4541 3.01172 10.7139 6.52051 15.7305 10.4141
c-4.44727 7.56152 -8.78809 15.1875 -13.0596 22.8525c-14.3906 -13.8379 -28.5664 -27.8994 -42.5088 -42.1943c0.240234 -0.670898 0.46875 -1.28613 0.691406 -1.85059c1.11523 -0.158203 2.2334 -0.257812 3.3623 -0.240234
c4.36035 -0.170898 8.51855 0.47168 12.7432 1.52539c8.05664 2.00684 15.793 5.49219 23.041 9.49316zM167.395 268.938c7.6123 6.96094 15.2842 13.8545 23.0117 20.6914c-3.72754 0.655273 -7.38379 2.24023 -10.7773 4.30078
c-0.210938 -1.00195 -0.679688 -1.88477 -1.49805 -2.58301c-5.36719 -4.58301 -10.4141 -9.52344 -15.1348 -14.7461c1.47754 -2.54883 2.94238 -5.10254 4.39844 -7.66309zM226.43 241.496c2.08008 6.25684 3.80078 13.0928 4.7832 20.0518
c-13.4463 -11.8506 -26.7188 -23.8945 -39.8164 -36.127c4.2002 -7.69629 8.41602 -15.3799 12.7012 -23.0254c9.8457 11.6328 17.6357 24.9834 22.332 39.1006z" />
    <glyph glyph-name="yen" unicode="&#xa5;" horiz-adv-x="322" 
d="M263.146 261.861c3.22949 -3.2207 15.1807 -17.7598 5.49219 -20.709c-12.7354 -3.87793 -25.4678 -7.75586 -38.2002 -11.6338c-0.09375 -3.4209 -0.18457 -6.83887 -0.302734 -10.2598c8.72168 -0.797852 17.2695 -7.12305 23.0879 -12.9238
c2.65332 -2.64453 15.5508 -18.8359 5.49414 -20.7031c-10.2129 -1.89551 -20.4258 -3.78906 -30.6387 -5.68457c-1.11523 -15.7646 -2.60645 -31.4912 -4.67969 -47.1289c-5.31641 -40.1074 -15.5068 -80.791 -36.6318 -115.707
c-8.94531 -14.7861 -22.7432 -33.3887 -40.9346 -36.5869c-22.1211 -3.88965 -45.709 16.8398 -52.7031 36.5957c-6.67383 18.8555 -5.51562 42.7969 -3.41309 62.3555c2.27832 21.1855 8.09277 41.5488 16.2607 61.1807c4.64551 11.168 44.876 -14.8516 38.5303 -30.1045
c-8.42773 -20.2588 -13.4131 -41.8594 -14.9004 -63.751c-0.540039 -7.95215 -0.609375 -15.9463 -0.207031 -23.9121c9.47949 8.30371 16.6787 20.1523 22.5088 30.6846c8.86328 16.0137 15.4619 33.0674 20.374 50.6787c6.16992 22.1123 9.83008 44.7979 12.2637 67.6191
l-5.31445 -0.987305c-10.3975 -1.92871 -21.2607 5.79004 -28.2197 12.7285c-2.65332 2.64453 -15.5508 18.8359 -5.49414 20.7031c14.0996 2.61621 28.1973 5.23242 42.2969 7.84863c0.115234 1.8584 0.210938 3.71387 0.317383 5.57227
c-8.56152 0.707031 -17.8379 8.05957 -23.0078 13.2139c-3.22949 3.2207 -15.1777 17.7539 -5.49414 20.7031l30.3164 9.23438c0.792969 29.2373 0.786133 58.4922 0.319336 87.7451c-7.34766 -8.83691 -15.4844 -17.3359 -26.084 -22.1348
c-11.7217 -5.30762 -25.6885 -4.95898 -37.9189 -1.73438c-30.5469 8.05664 -56.2842 32.4688 -68.1348 61.3838c-11.9795 29.2373 -8.37012 60.7568 -3.97363 91.1992c2.18066 15.0928 42.7061 -10.0107 40.5947 -24.624
c-3.4248 -23.7168 -7.45898 -48.7383 -0.980469 -72.29c4.14941 -15.082 9.08984 -25.459 26.1904 -23.5762c20.2559 2.22949 34.3047 23.9121 45.124 39.0811c12.5996 17.6621 22.0186 36.625 22.1963 58.708c0.0800781 10.1328 17.8691 1.81641 21.416 -0.321289
c8.29004 -4.99609 18.8184 -13.833 19.1787 -24.3008c1.79102 -52.1758 3.56641 -104.374 3.26172 -156.588c1.2627 0.384766 2.52734 0.769531 3.79004 1.1543c9.73047 2.96484 21.9746 -6.50098 28.2197 -12.7285z" />
    <glyph glyph-name="section" unicode="&#xa7;" horiz-adv-x="223" 
d="M171.445 468.344c-19.7803 -24.7832 -31.7041 -54.1611 -40.5879 -84.3545c-9.16602 -31.1396 -13.6289 -62.6553 -5.18359 -94.4619c7.93848 -29.9023 22.918 -57.335 31.3789 -87.0459c5.81445 -20.418 9.11719 -67.1758 -23.958 -64.7822
c-2.63184 0.191406 -5.26562 0.818359 -7.8418 1.7627c5.47656 -13.1348 10.4795 -26.459 14.3115 -40.2607c9.27246 -33.4004 13.126 -68.6279 11.2725 -103.241c-1.62012 -30.2373 -6.04102 -63.7666 -25.7012 -88.0547
c-9.47461 -11.7061 -47.7197 18.749 -38.5293 30.1035c21.2783 26.2881 23.8369 64.4199 24.0654 96.9619c0.250977 35.9297 -6.10547 71.5967 -18.4541 105.33c-12.2969 33.5938 -33.1113 65.5293 -40.5459 100.721c-5.9209 28.0234 3.52441 60.5928 34.624 64.96
c-2.1582 7.91895 -3.87402 15.9648 -4.87402 24.208c-3.8252 31.5107 3.27832 62.2568 13.1016 92.0547c8.97852 27.2354 20.3867 53.6475 38.3916 76.2041c9.35938 11.7256 47.6826 -18.6387 38.5303 -30.1045zM110.696 172.669
c10.4639 4.02246 10.7061 26.2305 9.52832 34.5137c-1.9873 13.96 -7.60547 27.5889 -12.6973 40.6377c-2.14062 5.48926 -4.34961 10.9658 -6.53906 16.4512c-5.30469 -5.39648 -8.91406 -12.8291 -10.1387 -19.752c-3.07812 -17.3887 4.01855 -34.8047 10.5947 -50.5605
c2.98242 -7.14355 6.10254 -14.2246 9.25195 -21.29z" />
    <glyph glyph-name="copyright" unicode="&#xa9;" horiz-adv-x="348" 
d="M293.664 293.929c9.77246 -78.3379 6.1416 -161.961 -30.7793 -233.317c-15.7773 -30.4932 -38.2402 -60.7617 -67.7178 -79.2109c-37.2852 -23.3369 -78.6816 -5.77051 -104.494 25.9785c-23.8125 29.2881 -33.5781 67.4648 -37.5723 104.245
c-4.17578 38.4766 -3.7998 77.6689 -0.84375 116.219c6.13379 79.9844 25.9033 158.335 57.3896 232.065c4.79395 11.2285 45.002 -14.9482 38.5303 -30.1035c-30.1533 -70.6055 -48.6963 -145.994 -55.002 -222.509c-2.77344 -33.6445 -3.32227 -67.5869 -1.13086 -101.285
c2.01367 -30.9736 7.09863 -63.498 23.1143 -90.6152c2.09375 -3.54492 4.58301 -6.55469 6.9541 -9.87109c6.79688 -0.795898 12.5225 -1.38086 19.377 0.361328c13.4355 3.41406 24.8242 11.5859 34.8809 20.8232c22.4404 20.6113 40.0029 46.3301 52.8291 73.8721
c28.9814 62.2305 32.4326 134.381 25.6846 201.748c-3.3291 33.2334 -9.6123 67.8203 -22.7275 98.7197c-8.42578 19.8535 -22.9189 48.042 -48.8984 40.8076c-9.88184 -2.75391 -21.8213 6.34961 -28.2197 12.7285c-3.10254 3.09375 -15.2705 17.9805 -5.49316 20.7031
c43.4658 12.1064 86.3027 -28.2061 107.485 -61.8555c22.1875 -35.2451 31.5469 -78.7158 36.6338 -119.504zM175.624 269.061c-5.76562 -16.4062 -9.06641 -33.9922 -11.7441 -51.1328c-2.72949 -17.4775 -4.7832 -35.4463 -4.17188 -53.1602
c0.00683594 -0.217773 0.0224609 -0.433594 0.03125 -0.651367c1.96289 1.8623 3.80273 3.87793 5.62109 5.75586c10.9463 11.3086 48.1045 -20.2109 38.5303 -30.1035c-8.36133 -8.6416 -17.4785 -16.832 -30.1045 -17.3232
c-15.0596 -0.586914 -29.4932 8.79199 -39.3857 19.3672c-17.6621 18.8809 -16.4268 48.1777 -14.4863 72.2744c2.14941 26.6768 6.4541 54.1982 15.1152 79.5977c7.02344 20.5938 20.9717 44.4033 46.1777 41.6562c11.1816 -1.21973 21.959 -8.8584 28.6797 -17.6221
c3.41406 -4.4541 9.21973 -17.9492 -1.94434 -16.7334c-17.1738 1.87109 -27.5332 -18.3047 -32.3184 -31.9248z" />
    <glyph glyph-name="softhyphen" unicode="&#xad;" horiz-adv-x="0" 
 />
    <glyph glyph-name="registered" unicode="&#xae;" horiz-adv-x="348" 
d="M293.666 293.929c9.77051 -78.3379 6.14258 -161.961 -30.7783 -233.317c-15.7773 -30.4932 -38.2402 -60.7617 -67.7178 -79.2109c-37.2852 -23.3369 -78.6816 -5.77051 -104.494 25.9785c-23.8125 29.2881 -33.5781 67.4648 -37.5723 104.245
c-4.17871 38.4766 -3.80273 77.6689 -0.84668 116.219c6.13379 79.9844 25.9033 158.335 57.3896 232.065c4.79395 11.2285 45.002 -14.9482 38.5303 -30.1035c-30.1533 -70.6055 -48.6963 -145.994 -55.002 -222.509
c-2.77344 -33.6445 -3.32227 -67.5869 -1.13086 -101.285c2.01367 -30.9736 7.09863 -63.498 23.1143 -90.6152c2.09375 -3.54492 4.58301 -6.55469 6.9541 -9.87109c6.79688 -0.795898 12.5225 -1.38086 19.377 0.361328c13.4355 3.41406 24.8242 11.5859 34.8809 20.8232
c22.4404 20.6113 40.0029 46.3301 52.8291 73.8721c28.9814 62.2305 32.4326 134.381 25.6846 201.748c-3.3291 33.2334 -9.6123 67.8203 -22.7275 98.7197c-8.42578 19.8535 -22.9189 48.042 -48.8984 40.8076c-9.88379 -2.75391 -21.8213 6.34961 -28.2197 12.7285
c-3.10254 3.09375 -15.2705 17.9805 -5.49316 20.7031c43.4678 12.1064 86.3027 -28.2061 107.485 -61.8555c22.1895 -35.2451 31.5488 -78.7158 36.6357 -119.504zM171.759 261.382c-0.113281 1.2666 -0.317383 2.66992 -0.543945 4.12109
c-0.855469 -0.226562 -1.70703 -0.473633 -2.55176 -0.736328c7.20312 -36.2764 -0.947266 -73.1729 5.15625 -109.434c1.77832 -10.5684 -8.99609 -8.87305 -15.7656 -5.93457c-8.85938 3.84473 -22.292 13.2012 -24.0371 23.5645
c-5.44336 32.3398 0.399414 65.3291 -3.32129 97.627c-9.20801 8.49902 -15.1182 19.1846 -7.74805 22.7588c27.2529 13.2129 59.4814 10.9238 78.9971 -14.5283c8.23438 -10.7412 8.94336 -23.1895 9.95215 -36.1738c0.480469 -6.16309 2.61816 -12.6992 3.32031 -18.8271
c9.29492 -2.13379 18.8672 -10.4727 23.9414 -17.0918c4.12988 -5.3877 8.78418 -16.4492 -1.94434 -16.7334c-27.5908 -0.733398 -54.5967 25.3662 -62.1377 50.5693c-2.01758 6.74316 -2.68164 13.835 -3.31738 20.8184zM216.501 218.557
c0.355469 0.308594 0.142578 0.671875 -0.402344 1.05859c0.250977 -0.522461 0.466797 -1.00293 0.402344 -1.05859z" />
    <glyph glyph-name="mu" unicode="&#xb5;" horiz-adv-x="252" 
d="M201.326 332.31c2.70508 -10.7012 -9.71875 -8.56348 -15.7666 -5.94336c-9.44531 4.10059 -21.374 13.04 -24.0361 23.5664c-1.51562 6.00293 -2.85156 12.0371 -4.04492 18.0938c-9.4502 -12.8906 -21.6787 -24.3213 -37.8789 -24.0166
c-8.2793 0.155273 -16.2275 2.73828 -23.5 6.89648c3.27637 -127.815 7.8877 -255.596 13.8867 -383.315c0.477539 -10.1523 -18.2275 -1.59961 -21.417 0.323242c-8.37402 5.04688 -18.6846 13.7969 -19.1777 24.3008c-6.6543 141.673 -11.6221 283.421 -14.9248 425.212
c-3.24512 15.5996 -4.5293 31.8125 -4.46484 47.1836c0.0107422 2.74707 1.35352 4.10742 3.34082 4.63184c0.0175781 9.86328 18.0605 1.52637 21.4014 -0.487305c8.19922 -4.94043 18.9648 -13.875 19.1777 -24.3008
c0.313477 -15.3818 0.665039 -30.7666 1.01855 -46.1484c1.11328 -5.28711 2.41113 -10.5342 3.92871 -15.7148c0.226562 -0.775391 0.46875 -1.57324 0.704102 -2.36621c0.773438 0.24707 1.56055 0.558594 2.31836 0.985352
c3.2002 1.80273 5.9209 4.28711 8.49219 6.87891c23.1191 23.2881 36.9102 58.0332 43.4863 89.5752c3.31152 15.8867 42.4238 -10.7412 40.5947 -24.623c-5.34082 -40.5498 -3.16699 -81.0684 6.86133 -120.731z" />
    <glyph glyph-name="paragraph" unicode="&#xb6;" horiz-adv-x="269" 
d="M200.022 475.385c8.05859 -4.85645 19.1885 -13.9414 19.1797 -24.3008c-0.120117 -172.988 -0.238281 -345.975 -0.356445 -518.961c-0.00683594 -10.1367 -17.918 -1.78711 -21.416 0.322266c-5.53223 3.33398 -12.5107 8.66406 -16.3398 15.0293
c-1.15527 -6.58301 -9.6123 -5.11426 -15.7598 -2.44727c-8.62305 3.74316 -22.6514 13.293 -24.0361 23.5654c-15.6465 116.165 -14.3594 233.21 -16.3311 350.131c-9.91504 0.959961 -19.5322 3.00879 -28.4248 6.61328
c-30.0752 12.1953 -49.8691 42.4619 -46.0713 74.9707c6.69238 57.29 78.0938 81.6846 128.134 66.3154c0.00195312 3.02734 0.00390625 6.05664 0.00585938 9.08398c0.00683594 10.1367 17.918 1.78711 21.416 -0.322266zM86.4551 355.543
c0.00195312 0.00488281 0.691406 -0.160156 1.58008 -0.373047c-0.710938 0.768555 -1.28906 1.07129 -1.58008 0.373047zM93.6846 354.03c9.93066 -1.4248 20.2578 -1.61328 30.5859 -0.961914c-0.548828 22.8428 -1.2998 45.6768 -2.39746 68.4932
c-11.2598 -7.50781 -20.5146 -17.1064 -25.6973 -27.8076c-4.51367 -9.31934 -6.40527 -20.5078 -5.30078 -30.8115c0.249023 -2.33789 1.84473 -5.86523 2.80957 -8.91211zM178.264 -26.2227c0.078125 116.012 0.157227 232.021 0.237305 348.032
c-4.43359 -0.766602 -8.94727 -1.45996 -13.5166 -2.0332c2.36914 -115.463 0.00195312 -231.21 13.2793 -345.999zM178.522 354.153c0.0175781 27.8643 0.0361328 55.7314 0.0585938 83.5957c-9.62793 0.731445 -19.8203 -0.588867 -29.7148 -3.53418
c6.43652 -5.08105 12.251 -11.9395 12.6953 -19.832c1.04688 -18.5361 1.81836 -37.0898 2.41406 -55.6523c4.94336 0.139648 9.98438 -1.79883 14.5469 -4.57715z" />
    <glyph glyph-name="questiondown" unicode="&#xbf;" horiz-adv-x="210" 
d="M120.202 -18.543c11.9727 10.8525 48.2207 -21.3242 38.5303 -30.1006c-13.1504 -11.9238 -28.1055 -21.5898 -46.5928 -19.2432c-21.6094 2.74219 -41.8926 19.2471 -51.6699 38.3213c-15.5713 30.3779 -10.124 68.5361 -6.59277 101.043
c4.12988 37.9873 9.96582 75.7588 15.5732 113.549c11.0566 74.5078 21.1045 149.587 15.8682 225.058c-0.704102 10.1484 18.3701 1.5166 21.417 -0.321289c8.52148 -5.13672 18.4453 -13.7402 19.1787 -24.3018c5.64062 -81.2871 -6.47461 -162 -18.4189 -242.183
c-6.01465 -40.377 -12.2021 -80.8535 -15.4736 -121.565c-1.4668 -18.249 -2.48047 -37.5225 2.89355 -55.2822c1.45996 0.280273 2.9043 0.637695 4.30859 1.16016c8.14551 2.70898 14.7246 8.19629 20.9785 13.8662zM105.201 439.164
c-5.19824 2.98926 -10.5391 7.6582 -14.1934 12.4326c-1.69336 2.21582 -6.06738 8.44531 -4.98535 11.8682c2.99805 9.47266 3.94238 19.0605 2.85547 28.9326c-0.40625 3.70312 4.24805 4.86328 6.93066 4.86523c5.13379 0.00488281 10.1523 -2.69336 14.4883 -5.1875
c8.83203 -5.07812 18.0195 -13.7949 19.1777 -24.3008c1.08887 -9.87695 0.141602 -19.4629 -2.85645 -28.9326c-2.99609 -9.46777 -15.7139 -2.95801 -21.417 0.322266z" />
    <glyph glyph-name="Agrave" unicode="&#xc0;" 
d="M199.748 375.831c4.46094 -46.335 2.16699 -93.1104 -1.72656 -139.396c-7.65039 -90.915 -22.9834 -181.065 -45.5039 -269.469c-4.33789 -17.0312 -40.9004 11.9531 -40.5938 24.624c0.00195312 0.0839844 0.00390625 0.170898 0.00585938 0.257812
c-3.65625 -0.921875 -7.36523 -1.6709 -11.1523 -2.16895c-18.7295 -2.46484 -37.1562 1.83105 -53.0225 12.1279c-27.4326 17.8027 -46.5645 49.209 -37.71 82.4736c7.08105 26.5947 29.4639 51.3848 59.0928 48.5508c26.6172 -2.54492 50.1406 -21.0742 64.5869 -43.7666
c2.3252 12.0771 4.52539 24.1787 6.57227 36.3096c13.3037 78.8242 23.3691 160.155 20.9668 240.224c-0.540039 18.0049 -0.942383 36.7139 -5.25391 54.2959c-1.27148 5.18555 -2.76953 11.8662 -6.18359 16.3584c-0.357422 0.202148 -0.78418 0.395508 -1.16016 0.40625
c-3.0918 0.0957031 -6.56738 1.96289 -9.72754 2.44043c-36.9297 5.58789 -73.4902 -14.6885 -103.966 -32.9619c-12.1592 -7.29395 -47.8467 24.9551 -33.7139 33.4316c39.1963 23.5078 85.5918 44.9043 131.807 29.3018
c21.5293 -7.26758 40.9209 -21.9277 52.6719 -41.5234c9.4082 -15.6885 12.2861 -33.6025 14.0107 -51.5156zM52.8838 24.1621c-1.15332 0.639648 -1.97852 -0.219727 0 0zM79.8848 25.5703c11.1455 2.94727 21.7412 7.61719 32.4004 12.0156
c-0.599609 14.8506 -2.34863 29.584 -6.61816 43.6836c-1.54492 5.09863 -3.50098 12.0508 -7.37305 15.9531c-1.62012 1.63379 0.179688 1.17578 -3.4248 1.39355c-11.0508 0.664062 -21.0078 -4.44531 -28.667 -12.1689
c-16.0596 -16.1982 -22.9473 -41.4414 -12.7617 -62.2246c2.11621 0.235352 5.33203 -0.929688 7.58789 -1.02051c6.39648 -0.255859 12.6885 0.737305 18.8564 2.36816zM49.2842 502.562c-13.1104 -6.50781 -47.8525 26.4141 -33.7129 33.4346
c44.8438 22.2627 92.5928 37.4785 142.051 45.2637c10.5391 1.66016 21.0869 -5.61621 28.2188 -12.7285c2.52051 -2.51172 15.6152 -19.1094 5.49414 -20.7031c-49.458 -7.78809 -97.207 -23.0039 -142.051 -45.2666z" />
    <glyph glyph-name="AE" unicode="&#xc6;" horiz-adv-x="389" 
d="M353.729 54.1289c10.3838 11.4951 47.9863 -19.6357 38.5293 -30.1084c-23.2236 -25.7061 -48.9512 -51.834 -85.6162 -54.0479c-39.1895 -2.36719 -71.1826 27.2148 -88.6143 59.5752c-16.458 30.5557 -26.8525 64.3047 -32.7529 98.9473
c-8.24316 -54.332 -19.1846 -108.251 -32.7578 -161.529c-4.33789 -17.0312 -40.9004 11.9531 -40.5938 24.624c0.00195312 0.0839844 0.00390625 0.170898 0.00585938 0.257812c-3.65625 -0.921875 -7.36523 -1.6709 -11.1523 -2.16895
c-18.7266 -2.46484 -37.1533 1.83105 -53.0195 12.1279c-27.4326 17.8027 -46.5645 49.209 -37.71 82.4736c7.08105 26.5947 29.4639 51.3848 59.0928 48.5508c26.6172 -2.54492 50.1406 -21.0742 64.5869 -43.7666c2.3252 12.0771 4.52539 24.1787 6.57227 36.3096
c13.3037 78.8242 23.3691 160.155 20.9668 240.224c-0.540039 18.0049 -0.942383 36.7139 -5.25391 54.2959c-1.27148 5.18555 -2.76953 11.8662 -6.18359 16.3584c-0.357422 0.202148 -0.78418 0.395508 -1.16016 0.40625
c-3.09375 0.0957031 -6.56934 1.96289 -9.72949 2.44043c-36.9297 5.58789 -73.4902 -14.6855 -103.966 -32.9639c-12.1592 -7.29395 -47.8467 24.9551 -33.7139 33.4316c39.1963 23.5078 85.5918 44.9043 131.807 29.3018
c21.5293 -7.26758 40.9209 -21.9277 52.6719 -41.5234c9.4082 -15.6885 12.2861 -33.6025 14.0107 -51.5156c0.613281 -6.37402 1.08887 -12.7568 1.45996 -19.1465c6.84766 21.5381 15.3262 42.4561 25.6494 62.2363c13.377 25.6348 32.1777 52.9717 58.208 67.083
c30.8779 16.7402 68.041 -4.97656 80.249 -35.5137c24.583 -61.4951 -49.8164 -110.082 -100.739 -119.304c-7.10059 -1.28711 -14.3818 1.86035 -20.5137 6.19824c-15.915 -47.9531 -24.1357 -98.4893 -24.4756 -148.998
c-0.367188 -54.2227 6.90723 -112.148 31.1709 -161.271c2.98047 -6.03906 6.07422 -12.3691 10.0684 -17.8125c0.839844 -1.14648 1.70703 -2.35352 2.71191 -3.37109c0.0888672 -0.0263672 0.155273 -0.0458984 0.25293 -0.0771484
c9.59863 -3.11816 20.4316 -1.68652 29.8682 1.2627c25.0498 7.83203 43.0322 28.1504 60.0703 47.0127zM282.319 416.499c-10.0391 -13.9131 -18.2324 -29.0928 -25.1621 -44.8193c18.2578 6.625 35.2646 16.7373 48.7666 30.7549
c9.37012 9.72559 17.7402 21.6445 21.2344 34.8379c1.37793 5.20312 2.20703 10.7285 1.94434 16.1201c-0.0175781 0.371094 -0.261719 1.61328 -0.585938 3.1582c-0.804688 -0.130859 -1.54297 -0.282227 -2.11816 -0.489258
c-3.15332 -1.12891 -6.21777 -2.61133 -9.10742 -4.30273c-5.10547 -2.98926 -9.54395 -6.86523 -13.8311 -10.9189c-7.82129 -7.39648 -14.8467 -15.6152 -21.1406 -24.3408zM52.8818 24.1631c-1.15332 0.639648 -1.97852 -0.219727 0 0zM79.8828 25.5713
c11.1455 2.94727 21.7412 7.61719 32.4004 12.0156c-0.599609 14.8506 -2.34863 29.584 -6.61816 43.6836c-1.54492 5.09863 -3.50098 12.0508 -7.37305 15.9531c-1.62012 1.63379 0.179688 1.17578 -3.4248 1.39355c-11.0508 0.664062 -21.0078 -4.44531 -28.667 -12.1689
c-16.0596 -16.1982 -22.9473 -41.4414 -12.7617 -62.2246c2.11621 0.235352 5.33203 -0.929688 7.58789 -1.02051c6.39648 -0.255859 12.6885 0.737305 18.8564 2.36816z" />
    <glyph glyph-name="Ccedilla" unicode="&#xc7;" horiz-adv-x="223" 
d="M226.696 9.95117c-21.3096 -19.6543 -43.9795 -41.0156 -71.9082 -50.71c-5.79395 -2.01172 -11.6787 -3.33398 -17.584 -4.08301c0.170898 -1.75586 -0.078125 -3.4248 -0.900391 -4.92676c-1.74902 -3.19824 -3.72754 -6.7168 -5.64746 -10.4043
c11.9395 -4.83887 22.6162 -12.9287 31.0527 -22.5742c16.3086 -18.6475 20.3604 -44.04 6.50293 -65.4492c-11.0439 -17.0605 -34.8809 -31.9053 -55.6611 -29.583c-15.1328 1.69141 -29.959 12.002 -38.9404 23.9746c-7.61035 10.1455 -9.18652 21.4541 -8.33496 33.7871
c0.884766 12.791 33.0225 -4.73828 39.4727 -19.3223c6.02734 2.8252 11.6797 6.59863 16.4473 11.1328c5.96289 5.67188 11.0303 12.6309 13.4551 20.5674c1.35547 4.44043 2.12402 9.65918 1.65527 14.3018c-0.126953 1.02637 -0.327148 2.03516 -0.549805 3.03711
c-0.755859 -0.0839844 -1.51367 -0.193359 -2.26758 -0.351562c-5.03223 -0.633789 -10.042 -2.63184 -15.1689 -2.63184c-10.6191 -0.00195312 -20.8984 7.04785 -28.1396 14.2803c-10.1787 10.1641 -9.65625 17.9072 -5.27148 30.4932
c1.27344 3.6543 2.69629 7.2373 4.1875 10.7871c-4.56055 1.97363 -9.00977 4.28711 -13.2969 6.94922c-50.3799 31.2773 -61.2812 96.7178 -65.8018 151.17c-4.71191 56.7432 -1.17578 114.911 11.6436 170.426c11.6865 50.6113 31.167 102.609 63.5645 143.777
c14.7041 18.6846 36.249 41.4785 61.2676 43.8125c26.9482 2.51562 57.0391 -21.499 63.4043 -47.2207c2.64746 -10.6943 -9.67383 -8.57812 -15.7656 -5.93359c-7.85645 3.40918 -17.5156 10.2275 -22.0117 18.5068c-5.13672 -1.22461 -10.249 -4.07129 -14.5254 -6.78027
c-9.64551 -6.1123 -18.1738 -14.46 -25.7812 -22.9141c-15.5352 -17.2646 -27.7275 -37.3408 -38.0264 -58.0791c-39.3525 -79.2334 -50.4648 -172.762 -43.1748 -260.214c1.95801 -23.501 5.91602 -46.9756 12.7236 -69.5811
c3.68457 -12.2324 8.1123 -32.3711 21.8516 -36.0693c39.6963 -10.6855 76.7676 25.7373 103 49.9297c11.8418 10.9189 48.2109 -21.1768 38.5293 -30.1045zM179.794 444.145c-0.0195312 -0.03125 -0.637695 -0.015625 -1.4248 0.0107422
c0.626953 -0.381836 1.12891 -0.448242 1.4248 -0.0107422z" />
    <glyph glyph-name="Egrave" unicode="&#xc8;" horiz-adv-x="218" 
d="M182.792 54.1289c10.3838 11.4951 47.9863 -19.6357 38.5342 -30.1064c-23.2236 -25.7061 -48.9512 -51.834 -85.6162 -54.0479c-39.1895 -2.36719 -71.1826 27.2148 -88.6143 59.5752c-32.0225 59.4482 -41.1396 130.984 -38.7305 197.689
c2.36035 65.3711 17.1377 133.396 47.5557 191.68c13.377 25.6348 32.1777 52.9717 58.208 67.083c30.8779 16.7402 68.041 -4.97656 80.249 -35.5137c24.583 -61.4951 -49.8164 -110.082 -100.739 -119.304c-7.10059 -1.28711 -14.3818 1.86035 -20.5137 6.19824
c-15.915 -47.9531 -24.1338 -98.4893 -24.4756 -148.998c-0.367188 -54.2227 6.90723 -112.148 31.1709 -161.271c2.98242 -6.03906 6.07422 -12.3691 10.0684 -17.8125c0.839844 -1.14648 1.70703 -2.35352 2.71191 -3.37109
c0.0888672 -0.0263672 0.155273 -0.0458984 0.25293 -0.0771484c9.59863 -3.11816 20.4316 -1.68652 29.8682 1.2627c25.0498 7.83203 43.0322 28.1504 60.0703 47.0127zM111.38 416.499c-10.0371 -13.9131 -18.2305 -29.0928 -25.1621 -44.8193
c18.2578 6.625 35.2646 16.7373 48.7666 30.7549c9.37012 9.72559 17.7402 21.6445 21.2344 34.8379c1.37793 5.20312 2.20703 10.7285 1.94434 16.1201c-0.0175781 0.371094 -0.261719 1.61328 -0.585938 3.1582
c-0.804688 -0.130859 -1.54297 -0.282227 -2.11816 -0.489258c-3.15332 -1.12891 -6.21777 -2.61133 -9.10742 -4.30273c-5.10547 -2.98926 -9.54395 -6.86523 -13.8311 -10.9189c-7.82129 -7.39648 -14.8467 -15.6152 -21.1406 -24.3408zM61.5879 502.558
c-13.1133 -6.50781 -47.8525 26.4131 -33.7129 33.4316c44.8438 22.2656 92.5928 37.4814 142.051 45.2666c10.5391 1.66016 21.0869 -5.61621 28.2188 -12.7285c2.52051 -2.51172 15.6152 -19.1094 5.49414 -20.7031c-49.458 -7.78809 -97.207 -23.0039 -142.051 -45.2666z
" />
    <glyph glyph-name="Igrave" unicode="&#xcc;" horiz-adv-x="89" 
d="M53.7354 463.48c8.22363 -4.95605 18.9229 -13.8652 19.1787 -24.3018c3.90527 -160.322 -5.15137 -320.784 -27.0723 -479.648c-2.07617 -15.042 -42.6172 9.9707 -40.5947 24.624c21.9189 158.866 30.9775 319.326 27.0723 479.648
c-0.249023 10.1504 18.082 1.68652 21.416 -0.322266zM120.594 568.525c2.52051 -2.51172 15.6152 -19.1084 5.49414 -20.7021c-49.458 -7.78809 -97.207 -23.0039 -142.051 -45.2666c-13.1104 -6.50977 -47.8525 26.4121 -33.7129 33.4307
c44.8438 22.2656 92.5928 37.4814 142.051 45.2666c10.5391 1.66016 21.0869 -5.61621 28.2188 -12.7285z" />
    <glyph glyph-name="Ntilde" unicode="&#xd1;" 
d="M195.189 389.753c7.70996 -132.607 -3.76074 -265.908 -5.82812 -398.526c-0.158203 -10.126 -17.8184 -1.84668 -21.417 0.322266c-7.95898 4.7959 -19.3379 13.9932 -19.1777 24.3008c1.05762 67.8809 4.10059 135.694 6.1123 203.546
c1.79102 60.4014 2.40234 120.836 0.286133 181.24c-0.489258 13.8994 -0.849609 27.9814 -4.89258 41.3965c-0.604492 -0.308594 -1.00879 -0.521484 -1.05566 -0.556641c-2.79395 -2.11133 -5.20312 -5.03613 -7.36328 -7.76074
c-17.9092 -22.5898 -29.1045 -51.0361 -37.2764 -78.3936c-17.9385 -60.0527 -23.6455 -123.953 -29.0908 -186.146c-5.7207 -65.3184 -8.90332 -131.041 -6.7832 -196.607c0.329102 -10.1523 -18.1338 -1.65527 -21.416 0.323242
c-8.76562 5.2832 -18.04 13.6602 -19.1777 24.3018c-8.20996 76.7861 -6.59863 154.69 -7.87695 231.816c-1.29785 78.2441 -2.59375 156.49 -3.8916 234.734c-0.168945 10.1484 18.0312 1.71875 21.416 -0.321289c8.17188 -4.9248 19.0049 -13.8857 19.1787 -24.3008
c0.435547 -26.3789 0.873047 -52.7559 1.31055 -79.1328c6.37402 25.6816 14.8975 50.6895 26.8945 74.2617c7.10547 13.96 15.4131 30.0068 28.3174 39.4502c12.3037 9.00586 26.377 6.76562 39.0186 -0.413086c30.8379 -17.5117 40.7793 -50.2852 42.7129 -83.5342z
M156.824 445.161c0.768555 -0.480469 1.33691 -0.449219 1.56836 0.439453c0.046875 0.182617 -0.606445 -0.0351562 -1.56836 -0.439453zM49.8066 526.868c-10.6172 -8.51465 -20.4697 -17.8428 -29.7402 -27.793c-10.6396 -11.415 -48.0449 19.8955 -38.5303 30.1035
c13.9463 14.9619 29.291 28.3037 46.1182 39.9385c6.96582 4.81836 14.3359 10.9014 22.8389 12.5879c12.7441 2.5293 25.8037 -5.67188 34.6338 -14.0039c3.86523 -3.64746 7.35059 -7.87012 9.96387 -12.5527c2.32031 0.548828 4.64258 1.12402 6.90723 1.99707
c18.418 7.09668 34.6426 18.0957 48.7021 31.8623c11.375 11.1367 48.1689 -20.668 38.5303 -30.1045c-18.0957 -17.7158 -43.1396 -35.7959 -68.8613 -39.334c-15.6396 -2.15137 -30.3643 4.49805 -42.3037 14.2529c-2.82715 2.30957 -5.58496 4.88965 -8.08496 7.69629
c-1.28027 -0.842773 -2.54492 -1.70703 -3.80762 -2.55566c-5.63184 -3.78711 -11.0723 -7.84961 -16.3662 -12.0947z" />
    <glyph glyph-name="Ograve" unicode="&#xd2;" 
d="M179.875 368.367c18.2402 -49.8203 26.9238 -103.273 26.3701 -156.29c-0.5 -47.9893 -8.84766 -95.9287 -25.0518 -141.119c-7.58984 -21.167 -16.3955 -42.1787 -29.1729 -60.7988c-10.6279 -15.4863 -25.7812 -34.4893 -46.1641 -35.5254
c-25.2969 -1.28711 -48.1289 21.4229 -60.0195 41.541c-12.7686 21.6025 -18.7207 47.3418 -23.1299 71.7852c-10.7842 59.7793 -13.291 122.199 -9.55078 182.783c5.23633 84.8076 22.8232 174.505 67.0117 248.06c7.08301 11.791 46.6152 -16.6436 38.5293 -30.1035
c-4.0918 -6.80957 -7.94531 -13.7656 -11.5771 -20.8467c35.3809 -21.9033 58.3574 -60.1621 72.7549 -99.4854zM84.1533 3.9873c0.895508 -0.664062 1.74512 -1.10254 0 0zM147.388 116.187c12.3242 40.9277 18.4189 83.6953 18.2881 126.43
c-0.128906 42.2861 -6.63379 84.3408 -19.2646 124.7c-8.48145 27.0996 -20.1387 67.8896 -49.0361 80.0244c-28.2197 -64.0732 -40.1055 -136.546 -43.8701 -205.446c-2.91406 -53.3291 -1.13379 -107.846 7.16504 -160.64
c1.9541 -12.4326 4.32812 -24.8125 7.45117 -37.0098c2.31348 -9.03906 6.31641 -21.8213 9.12598 -28.0107c0.975586 -2.14941 2.02246 -4.26953 3.14258 -6.34961c2.19629 0.341797 4.33691 0.911133 7.1084 2.52051c16.2002 9.40332 28.1553 29.6064 36.71 45.6377
c9.83496 18.4336 17.1631 38.1699 23.1797 58.1436zM28.0342 506.999c-13.1104 -6.50781 -47.8516 26.4131 -33.7139 33.4316c44.8438 22.2656 92.5928 37.4814 142.051 45.2666c10.5391 1.66016 21.0869 -5.61621 28.2188 -12.7285
c2.51855 -2.51172 15.6162 -19.1094 5.49512 -20.7031c-49.458 -7.78809 -97.207 -23.0039 -142.051 -45.2666z" />
    </font>
</defs>
</svg>
